<svg xmlns="http://www.w3.org/2000/svg" xmlns:xlink="http://www.w3.org/1999/xlink" version="1.1" width="18.125" height="18.125" viewBox="0,0,18.125,18.125"><defs><linearGradient x1="225.80945" y1="181" x2="243.93445" y2="181" gradientUnits="userSpaceOnUse" id="color-1"><stop offset="0" stop-color="#9966ff" stop-opacity="0"/><stop offset="1" stop-color="#9966ff" stop-opacity="0"/></linearGradient></defs><g><g data-paper-data="{&quot;isPaintingLayer&quot;:true}" fill-rule="nonzero" stroke-linecap="butt" stroke-linejoin="miter" stroke-miterlimit="10" stroke-dasharray="" stroke-dashoffset="0" style="mix-blend-mode: normal"><g><path d="M 0.3109 9.1507 C 0.3109 4.3661 4.1896 0.4873 8.9743 0.4873 C 13.7589 0.4873 17.6376 4.3661 17.6376 9.1507 C 17.6376 13.9353 13.7589 17.8141 8.9743 17.8141 C 4.1896 17.8141 0.3109 13.9353 0.3109 9.1507 Z " fill="#fcb40f" stroke-width="1" stroke="none"/><path d="M 2.3717 9.1507 C 2.3717 5.5042 5.3278 2.5482 8.9743 2.5482 C 12.6207 2.5482 15.5768 5.5042 15.5768 9.1507 C 15.5768 12.7972 12.6207 15.7532 8.9743 15.7532 C 5.3278 15.7532 2.3717 12.7972 2.3717 9.1507 Z " fill="#fdd264" stroke-width="1" stroke="none"/><path d="M 8.9742 16.2742 C 6.093 16.2743 3.4954 14.5388 2.3928 11.8769 C 1.2901 9.215 1.8995 6.1511 3.9368 4.1137 C 5.9741 2.0763 9.038 1.4668 11.6999 2.5694 C 14.3618 3.672 16.0974 6.2695 16.0974 9.1507 C 16.0931 13.083 12.9065 16.2697 8.9742 16.2742 Z M 8.9742 3.0687 C 6.5142 3.0686 4.2964 4.5504 3.355 6.823 C 2.4135 9.0957 2.9338 11.7117 4.6732 13.4512 C 6.4126 15.1907 9.0286 15.7111 11.3014 14.7697 C 13.5741 13.8284 15.056 11.6106 15.056 9.1507 C 15.0523 5.7933 12.3316 3.0725 8.9742 3.0686 Z " fill="#eaab0c" stroke-width="1" stroke="none"/><path d="M 11.723 10.5136 C 11.723 11.6563 10.8409 12.3686 9.755 12.5952 L 9.755 13.0815 C 9.7486 13.4706 9.4314 13.7827 9.0423 13.7827 C 8.6531 13.7827 8.3359 13.4706 8.3295 13.0815 L 8.3295 12.64 C 7.7753 12.5891 7.2368 12.4277 6.7459 12.1653 C 6.441 12.022 6.2406 11.7215 6.2255 11.3849 C 6.2253 11.1868 6.3039 10.9967 6.444 10.8567 C 6.5841 10.7166 6.7741 10.638 6.9722 10.6382 C 7.1712 10.651 7.3646 10.7089 7.5378 10.8077 C 7.9879 11.0333 8.4823 11.157 8.9857 11.1699 C 9.4609 11.1699 9.9132 10.9888 9.9132 10.6038 C 9.9132 9.4955 6.4294 9.9369 6.4294 7.6515 C 6.4294 6.475 7.3456 5.853 8.3296 5.6381 L 8.3296 5.2199 C 8.3359 4.8308 8.6531 4.5187 9.0423 4.5187 C 9.4314 4.5187 9.7487 4.8308 9.755 5.2199 L 9.755 5.5705 C 10.0883 5.5991 10.4159 5.6752 10.7277 5.7965 C 11.2254 6.0003 11.5422 6.2379 11.5422 6.6678 C 11.5425 6.8629 11.4651 7.0501 11.3272 7.188 C 11.1892 7.3259 11.002 7.4032 10.8069 7.4028 C 10.6327 7.3973 10.4607 7.3629 10.2978 7.3009 C 9.8967 7.1622 9.4776 7.0821 9.0535 7.0633 C 8.5445 7.0633 8.1373 7.2782 8.1373 7.5839 C 8.1373 8.6474 11.723 8.3306 11.723 10.5136 Z " fill="#e3a71a" stroke-width="1" stroke="none"/></g><path d="M225.80945,190.0625v-18.125h18.125v18.125z" fill="url(#color-1)" stroke-width="0" stroke="none" transform="matrix(1,0,0,1,-225.80945,-171.9375)"/></g></g></svg>