<svg xmlns="http://www.w3.org/2000/svg" xmlns:xlink="http://www.w3.org/1999/xlink" version="1.1" width="118.80995" height="29.57678" viewBox="0,0,118.80995,29.57678"><g><g data-paper-data="{&quot;isPaintingLayer&quot;:true}" fill-rule="nonzero" stroke-linecap="butt" stroke-linejoin="miter" stroke-miterlimit="10" stroke-dasharray="" stroke-dashoffset="0" style="mix-blend-mode: normal"><g><path d="M 6.6023 5.8304 L 6.6023 12.6448 L 13.8894 12.6448 C 14.9102 12.6297 15.8599 13.1656 16.3746 14.0471 C 16.8894 14.9287 16.8894 16.0192 16.3746 16.9007 C 15.8599 17.7822 14.9101 18.3181 13.8894 18.303 L 6.6023 18.303 L 6.6023 26.0608 C 6.6023 27.8835 5.1247 29.3611 3.302 29.3611 C 1.4793 29.3611 0.0017 27.8835 0.0017 26.0608 L 0.0017 3.3011 C -0.0267 2.4396 0.2942 1.6031 0.8914 0.9816 C 1.4887 0.3601 2.3117 0.0062 3.1736 0.0003 L 15.0896 0.0003 C 16.141 -0.0148 17.1191 0.5375 17.6492 1.4456 C 18.1793 2.3537 18.1793 3.4769 17.6492 4.3851 C 17.1191 5.2932 16.141 5.8455 15.0896 5.8304 Z " stroke-width="1" fill="#dd2c2c" stroke="none"/><path d="M 34.9744 12.345 C 34.9957 13.1777 34.6803 13.9838 34.0994 14.5809 C 33.5186 15.1779 32.7214 15.5154 31.8885 15.5169 C 29.8959 15.3985 27.9948 16.3653 26.9168 18.0452 L 26.9168 26.1468 C 26.9318 27.2899 26.3306 28.3528 25.343 28.9287 C 24.3555 29.5047 23.1344 29.5047 22.1468 28.9287 C 21.1592 28.3527 20.558 27.2899 20.573 26.1468 L 20.573 12.7308 C 20.571 11.5962 21.1751 10.547 22.1573 9.9792 C 23.1395 9.4113 24.3503 9.4113 25.3325 9.9792 C 26.3147 10.547 26.9188 11.5962 26.9168 12.7308 L 26.9168 12.9446 C 28.3308 10.2874 30.0027 9.345 31.9314 9.345 C 32.7373 9.3237 33.5172 9.6314 34.0914 10.1974 C 34.6655 10.7634 34.9843 11.5389 34.9744 12.345 Z " stroke-width="1" fill="#dd2c2c" stroke="none"/><path d="M 55.3318 17.9603 C 55.3901 18.7364 55.1442 19.5047 54.6463 20.1028 C 53.9089 20.7566 52.922 21.0542 51.9461 20.9173 L 42.4304 20.9173 C 43.031 22.9749 44.7879 24.1321 47.617 24.1321 C 48.4099 24.1337 49.2005 24.0473 49.9744 23.8743 C 50.5499 23.7284 51.139 23.6423 51.7322 23.6175 C 52.3894 23.6118 53.0206 23.8734 53.4811 24.3422 C 53.9417 24.811 54.192 25.4469 54.1746 26.1038 C 54.174 27.2538 53.455 28.2809 52.3748 28.6751 C 50.6426 29.2942 48.8138 29.5992 46.9744 29.5755 C 40.8445 29.5755 36.1297 25.6321 36.1297 19.5032 C 36.1297 13.5452 40.3738 9.345 46.3738 9.345 C 48.726 9.22 51.0247 10.0758 52.7225 11.7086 C 54.4203 13.3414 55.365 15.605 55.3318 17.9603 Z M 49.8885 17.2737 C 49.8708 16.3469 49.4681 15.4692 48.7771 14.8513 C 48.086 14.2334 47.1689 13.9311 46.2459 14.0169 C 44.2978 13.9265 42.6041 15.3408 42.3455 17.2737 Z " stroke-width="1" fill="#dd2c2c" stroke="none"/><path d="M 77.2742 17.9603 C 77.3324 18.7364 77.0866 19.5047 76.5887 20.1028 C 75.8512 20.7566 74.8644 21.0542 73.8885 20.9173 L 64.3728 20.9173 C 64.9734 22.9749 66.7303 24.1321 69.5594 24.1321 C 70.3523 24.1337 71.1429 24.0473 71.9168 23.8743 C 72.4923 23.7284 73.0814 23.6423 73.6746 23.6175 C 74.3317 23.6118 74.963 23.8734 75.4235 24.3422 C 75.8841 24.811 76.1344 25.4469 76.117 26.1038 C 76.1163 27.2538 75.3974 28.2809 74.3172 28.6751 C 72.585 29.2942 70.7561 29.5992 68.9168 29.5755 C 62.7869 29.5755 58.0721 25.6321 58.0721 19.5032 C 58.0721 13.5452 62.3162 9.345 68.3162 9.345 C 70.6684 9.22 72.9671 10.0758 74.6649 11.7086 C 76.3626 13.3414 77.3074 15.605 77.2742 17.9603 Z M 71.8308 17.2737 C 71.8132 16.3469 71.4105 15.4692 70.7195 14.8513 C 70.0284 14.2334 69.1113 13.9311 68.1883 14.0169 C 66.2402 13.9265 64.5464 15.3408 64.2879 17.2737 Z " stroke-width="1" fill="#dd2c2c" stroke="none"/><path d="M 97.5447 26.6175 C 97.5412 27.2945 97.2678 27.9422 96.7851 28.4169 C 96.3025 28.8917 95.6504 29.1544 94.9734 29.1468 L 82.5857 29.1468 C 81.8286 29.1449 81.1036 28.8404 80.5724 28.3008 C 80.0411 27.7613 79.7478 27.0318 79.7576 26.2747 C 79.7598 25.3766 80.1135 24.5149 80.7429 23.8743 L 88.7586 14.7884 L 82.3719 14.7884 C 81.4632 14.8041 80.6159 14.3311 80.1525 13.5493 C 79.6891 12.7674 79.6808 11.7971 80.1309 11.0075 C 80.5809 10.2179 81.42 9.7305 82.3289 9.7308 L 93.9441 9.7308 C 94.7078 9.7121 95.4468 10.0012 95.9951 10.5331 C 96.5433 11.065 96.8547 11.795 96.8591 12.5589 C 96.864 13.4296 96.5428 14.2706 95.9587 14.9163 L 87.9011 24.0892 L 94.9304 24.0892 C 95.6159 24.0653 96.2816 24.3211 96.7747 24.7979 C 97.2677 25.2748 97.5457 25.9316 97.5447 26.6175 Z " stroke-width="1" fill="#dd2c2c" stroke="none"/><path d="M 118.8015 17.9603 C 118.8598 18.7364 118.6139 19.5047 118.116 20.1028 C 117.3786 20.7566 116.3917 21.0542 115.4158 20.9173 L 105.9002 20.9173 C 106.5008 22.9749 108.2576 24.1321 111.0867 24.1321 C 111.8796 24.1337 112.6703 24.0473 113.4441 23.8743 C 114.0196 23.7284 114.6087 23.6423 115.2019 23.6175 C 115.8591 23.6118 116.4903 23.8734 116.9509 24.3422 C 117.4114 24.811 117.6617 25.4469 117.6443 26.1038 C 117.6437 27.2538 116.9248 28.2809 115.8445 28.6751 C 114.1123 29.2942 112.2835 29.5992 110.4441 29.5755 C 104.3142 29.5755 99.5994 25.6321 99.5994 19.5032 C 99.5994 13.5452 103.8435 9.345 109.8435 9.345 C 112.1957 9.22 114.4945 10.0758 116.1922 11.7086 C 117.89 13.3414 118.8348 15.605 118.8015 17.9603 Z M 113.3582 17.2737 C 113.3405 16.3469 112.9379 15.4692 112.2468 14.8513 C 111.5557 14.2334 110.6386 13.9311 109.7156 14.0169 C 107.7675 13.9265 106.0738 15.3408 105.8152 17.2737 Z " stroke-width="1" fill="#dd2c2c" stroke="none"/></g></g></g></svg>