<svg xmlns="http://www.w3.org/2000/svg" xmlns:xlink="http://www.w3.org/1999/xlink" version="1.1" width="100.12397" height="13.83846" viewBox="0,0,100.12397,13.83846"><g><g data-paper-data="{&quot;isPaintingLayer&quot;:true}" fill-rule="nonzero" stroke-linecap="butt" stroke-linejoin="miter" stroke-miterlimit="10" stroke-dasharray="" stroke-dashoffset="0" style="mix-blend-mode: normal"><path d="M 8.673 1.0519 C 8.682 1.3162 8.583 1.5729 8.3988 1.7627 C 8.2146 1.9526 7.961 2.0593 7.6965 2.0583 L 5.4764 2.0583 L 5.4764 9.0436 C 5.4753 9.6721 4.9655 10.181 4.3371 10.181 C 3.7086 10.181 3.1988 9.6721 3.1977 9.0436 L 3.1977 2.0583 L 0.9925 2.0583 C 0.7256 2.0625 0.4686 1.9573 0.2812 1.7672 C 0.0939 1.5771 -0.0076 1.3186 0.0005 1.0518 C -0.0076 0.785 0.0939 0.5266 0.2812 0.3364 C 0.4686 0.1463 0.7256 0.0411 0.9925 0.0453 L 7.6965 0.0453 C 7.961 0.0443 8.2146 0.1511 8.3988 0.3409 C 8.583 0.5308 8.682 0.7874 8.673 1.0518 Z " stroke-width="1" fill="#343434" stroke="none"/><path d="M 13.778 5.7283 L 13.778 9.1322 C 13.7872 9.6634 13.392 10.1149 12.8643 10.1761 C 12.3366 10.2373 11.8486 9.8881 11.736 9.369 C 11.1755 9.9151 10.431 10.2319 9.6488 10.2571 C 9.1282 10.2875 8.6183 10.1012 8.2399 9.7424 C 7.8616 9.3836 7.6485 8.8842 7.6513 8.3628 C 7.6513 7.4008 8.2285 6.8532 9.0425 6.5275 C 9.9044 6.2519 10.8016 6.1025 11.7063 6.0837 L 11.7063 5.8912 C 11.7063 5.3287 11.3806 5.1365 10.626 5.1365 C 10.3055 5.1376 9.9868 5.1824 9.6785 5.2697 C 9.4958 5.3265 9.307 5.3613 9.116 5.3732 C 8.8833 5.3854 8.6557 5.3024 8.4855 5.1433 C 8.3153 4.9841 8.2172 4.7626 8.2137 4.5296 C 8.2048 4.158 8.4297 3.8207 8.7761 3.6859 C 9.4641 3.4139 10.197 3.2735 10.9368 3.2719 C 12.668 3.2719 13.778 4.1004 13.778 5.7283 Z M 10.3744 8.5847 C 10.8536 8.5528 11.3146 8.389 11.7063 8.1112 L 11.7063 7.3121 C 11.3509 7.3563 11.0104 7.4008 10.6705 7.4746 C 10.0042 7.6078 9.7378 7.7855 9.7378 8.0964 C 9.7378 8.4073 9.9745 8.5847 10.3744 8.5847 Z " stroke-width="1" fill="#343434" stroke="none"/><path d="M 22.4351 6.7645 C 22.4351 8.5257 21.2515 10.2571 19.2978 10.2571 C 18.6623 10.2918 18.0441 10.0424 17.6106 9.5764 L 17.6106 12.7288 C 17.6158 13.1235 17.4082 13.4904 17.0672 13.6893 C 16.7262 13.8882 16.3046 13.8882 15.9636 13.6893 C 15.6226 13.4904 15.415 13.1235 15.4202 12.7288 L 15.4202 4.4261 C 15.4058 3.86 15.8415 3.3837 16.4067 3.3479 C 16.972 3.312 17.4644 3.7295 17.5215 4.2929 C 17.9298 3.651 18.6403 3.265 19.401 3.2719 C 21.207 3.2719 22.4351 4.8554 22.4351 6.7645 Z M 20.215 6.7645 C 20.215 5.8764 19.6236 5.1807 18.8237 5.1807 C 18.2988 5.2034 17.8306 5.5176 17.6106 5.9947 L 17.6106 7.5933 C 17.8356 8.0512 18.2995 8.3431 18.8096 8.348 C 19.6236 8.348 20.215 7.6375 20.215 6.7645 Z " stroke-width="1" fill="#343434" stroke="none"/><path d="M 32.275 8.9991 C 32.275 9.4135 32.0234 9.665 31.579 9.8872 C 31.0766 10.1133 30.5316 10.2293 29.9807 10.2275 C 28.2496 10.2275 27.4059 9.4135 27.4059 7.9632 L 27.4059 5.2401 L 26.9028 5.2401 C 26.7291 5.2476 26.5599 5.1839 26.4342 5.0639 C 26.3085 4.9438 26.2371 4.7777 26.2366 4.6038 C 26.2437 4.3656 26.3649 4.1453 26.5623 4.0117 L 28.4269 2.4431 C 28.5687 2.3003 28.7588 2.2158 28.9597 2.206 C 29.2854 2.206 29.5963 2.4283 29.5963 2.9759 L 29.5963 3.4051 L 31.2688 3.4051 C 31.7744 3.4076 32.1836 3.817 32.1859 4.3226 C 32.1873 4.5663 32.0911 4.8004 31.9188 4.9728 C 31.7465 5.1451 31.5125 5.2414 31.2688 5.2401 L 29.5963 5.2401 L 29.5963 7.534 C 29.5733 7.7377 29.6432 7.9409 29.7867 8.0873 C 29.9302 8.2337 30.132 8.3076 30.3361 8.2887 C 30.5114 8.2892 30.6858 8.2643 30.854 8.2148 C 31.0303 8.1479 31.2143 8.1031 31.4016 8.0816 C 31.6408 8.0822 31.8694 8.1805 32.0343 8.3538 C 32.1992 8.527 32.2861 8.7602 32.2749 8.9991 Z " stroke-width="1" fill="#343434" stroke="none"/><path d="M 32.8664 6.7348 C 32.8664 4.6777 34.4943 3.2719 36.4777 3.2719 C 38.4752 3.2719 40.0883 4.6777 40.0883 6.7348 C 40.0395 8.6941 38.4372 10.257 36.4773 10.257 C 34.5175 10.257 32.9151 8.6941 32.8664 6.7348 Z M 37.8689 6.7348 C 37.8689 5.6693 37.1878 5.1366 36.4777 5.1366 C 35.7669 5.1366 35.0864 5.6693 35.0864 6.7348 C 35.0864 7.8152 35.7669 8.3925 36.4777 8.3925 C 37.1878 8.3925 37.8689 7.8152 37.8689 6.7348 Z " stroke-width="1" fill="#343434" stroke="none"/><path d="M 44.2155 6.7645 C 44.2155 4.6628 45.7848 3.2571 47.8417 3.2571 C 48.5063 3.2399 49.1625 3.409 49.736 3.7453 C 50.0395 3.9337 50.2284 4.2616 50.2391 4.6187 C 50.2518 4.8683 50.1602 5.112 49.9863 5.2915 C 49.8125 5.4711 49.5718 5.5704 49.3219 5.5658 C 49.0878 5.5578 48.8571 5.5076 48.6408 5.4178 C 48.4093 5.3295 48.1636 5.2844 47.9158 5.2846 C 47.5204 5.2655 47.1351 5.4132 46.8537 5.6917 C 46.5723 5.9703 46.4206 6.354 46.4356 6.7497 C 46.4273 7.1683 46.5961 7.5709 46.9005 7.8583 C 47.2049 8.1458 47.6164 8.2914 48.0339 8.2593 C 48.2569 8.2656 48.4788 8.2253 48.6853 8.1409 C 48.8692 8.0674 49.0647 8.0273 49.2626 8.0222 C 49.5097 8.0043 49.7528 8.0927 49.9307 8.2651 C 50.1087 8.4375 50.2047 8.6777 50.1946 8.9252 C 50.1774 9.376 49.8918 9.7725 49.4696 9.9314 C 48.9579 10.1596 48.4018 10.2709 47.8417 10.2571 C 45.7996 10.2571 44.2155 8.8659 44.2155 6.7645 Z " stroke-width="1" fill="#343434" stroke="none"/><path d="M 51.0376 6.7348 C 51.0376 4.6777 52.6655 3.2719 54.6489 3.2719 C 56.6464 3.2719 58.2595 4.6777 58.2595 6.7348 C 58.2107 8.6941 56.6084 10.257 54.6485 10.257 C 52.6886 10.257 51.0863 8.6941 51.0376 6.7348 Z M 56.0401 6.7348 C 56.0401 5.6693 55.359 5.1366 54.6489 5.1366 C 53.9381 5.1366 53.2576 5.6693 53.2576 6.7348 C 53.2576 7.8152 53.9381 8.3925 54.6489 8.3925 C 55.359 8.3925 56.0401 7.8152 56.0401 6.7348 Z " stroke-width="1" fill="#343434" stroke="none"/><path d="M 65.969 5.699 L 65.969 9.0733 C 65.9742 9.468 65.7666 9.835 65.4257 10.0338 C 65.0847 10.2327 64.663 10.2327 64.322 10.0338 C 63.9811 9.8349 63.7735 9.468 63.7787 9.0733 L 63.7787 6.2021 C 63.7787 5.5952 63.5419 5.1366 62.8757 5.1366 C 62.3679 5.1573 61.9207 5.4769 61.7366 5.9506 L 61.7366 9.0733 C 61.7418 9.468 61.5342 9.835 61.1932 10.0338 C 60.8522 10.2327 60.4306 10.2327 60.0896 10.0338 C 59.7486 9.8349 59.541 9.468 59.5462 9.0733 L 59.5462 4.4409 C 59.5455 4.1503 59.6607 3.8713 59.8662 3.6657 C 60.0718 3.4602 60.3508 3.345 60.6414 3.3458 C 61.1754 3.3518 61.6293 3.7373 61.7218 4.2632 C 62.199 3.6423 62.9362 3.2764 63.7193 3.2719 C 64.9035 3.2719 65.969 4.0562 65.969 5.699 Z " stroke-width="1" fill="#343434" stroke="none"/><path d="M 72.9381 8.9991 C 72.9381 9.4135 72.6865 9.665 72.2428 9.8872 C 71.7404 10.1133 71.1955 10.2293 70.6445 10.2275 C 68.9127 10.2275 68.0691 9.4135 68.0691 7.9632 L 68.0691 5.2401 L 67.566 5.2401 C 67.3924 5.2474 67.2233 5.1837 67.0977 5.0637 C 66.9721 4.9436 66.9009 4.7776 66.9004 4.6038 C 66.9072 4.3657 67.0282 4.1453 67.2254 4.0117 L 69.0908 2.4431 C 69.2324 2.3001 69.4225 2.2155 69.6235 2.206 C 69.9486 2.206 70.2595 2.4283 70.2595 2.9759 L 70.2595 3.4051 L 71.9319 3.4051 C 72.4377 3.4075 72.8472 3.8168 72.8498 4.3226 C 72.851 4.5664 72.7547 4.8005 72.5823 4.9728 C 72.4099 5.1452 72.1757 5.2414 71.932 5.2401 L 70.2595 5.2401 L 70.2595 7.534 C 70.2365 7.7378 70.3066 7.9411 70.4502 8.0875 C 70.5938 8.2339 70.7958 8.3078 71 8.2887 C 71.1753 8.2891 71.3497 8.2642 71.5179 8.2148 C 71.6942 8.1478 71.8781 8.103 72.0655 8.0816 C 72.3046 8.0822 72.5331 8.1806 72.6979 8.3539 C 72.8627 8.5271 72.9495 8.7602 72.9381 8.9991 Z " stroke-width="1" fill="#343434" stroke="none"/><path d="M 73.9139 1.1405 C 73.9216 0.5084 74.4363 0 75.0685 0 C 75.7006 0 76.2153 0.5084 76.223 1.1405 C 76.2153 1.7726 75.7006 2.281 75.0685 2.281 C 74.4363 2.281 73.9216 1.7726 73.9139 1.1405 Z M 73.9733 9.0733 L 73.9733 4.4409 C 73.9726 4.0492 74.1812 3.6869 74.5203 3.4908 C 74.8594 3.2948 75.2775 3.2948 75.6166 3.4908 C 75.9558 3.6869 76.1644 4.0492 76.1637 4.4409 L 76.1637 9.0733 C 76.1689 9.468 75.9613 9.8349 75.6203 10.0338 C 75.2793 10.2327 74.8577 10.2327 74.5167 10.0338 C 74.1757 9.8349 73.9681 9.468 73.9733 9.0733 Z " stroke-width="1" fill="#343434" stroke="none"/><path d="M 84.2144 5.699 L 84.2144 9.0733 C 84.2196 9.468 84.012 9.835 83.671 10.0338 C 83.33 10.2327 82.9084 10.2327 82.5674 10.0338 C 82.2264 9.8349 82.0188 9.468 82.024 9.0733 L 82.024 6.2021 C 82.024 5.5952 81.7873 5.1366 81.121 5.1366 C 80.6133 5.1573 80.166 5.4769 79.982 5.9506 L 79.982 9.0733 C 79.9871 9.468 79.7795 9.8349 79.4386 10.0337 C 79.0976 10.2326 78.676 10.2326 78.335 10.0337 C 77.9941 9.8349 77.7865 9.468 77.7916 9.0733 L 77.7916 4.4409 C 77.7909 4.1503 77.9061 3.8713 78.1116 3.6657 C 78.3171 3.4602 78.5961 3.345 78.8868 3.3458 C 79.4208 3.3518 79.8747 3.7373 79.9672 4.2632 C 80.4444 3.6423 81.1815 3.2764 81.9647 3.2719 C 83.1489 3.2719 84.2144 4.0562 84.2144 5.699 Z " stroke-width="1" fill="#343434" stroke="none"/><path d="M 92.1903 4.4409 L 92.1903 9.0733 C 92.1908 9.3639 92.0756 9.6428 91.8701 9.8483 C 91.6646 10.0538 91.3858 10.169 91.0951 10.1685 C 90.561 10.1626 90.1069 9.7768 90.0148 9.2506 C 89.5374 9.8718 88.8 10.2378 88.0166 10.2423 C 86.8324 10.2423 85.7668 9.458 85.7668 7.8152 L 85.7668 4.4409 C 85.7615 4.0462 85.9691 3.6791 86.3101 3.4802 C 86.6512 3.2812 87.0729 3.2812 87.4139 3.4802 C 87.7549 3.6791 87.9625 4.0462 87.9572 4.4409 L 87.9572 7.3121 C 87.9572 7.9187 88.1939 8.3776 88.8602 8.3776 C 89.3681 8.357 89.8156 8.0374 89.9999 7.5637 L 89.9999 4.4409 C 89.9946 4.0462 90.2022 3.6791 90.5432 3.4802 C 90.8843 3.2812 91.306 3.2812 91.647 3.4802 C 91.988 3.6791 92.1956 4.0462 92.1903 4.4409 Z " stroke-width="1" fill="#343434" stroke="none"/><path d="M 100.121 6.2466 C 100.1413 6.5146 100.0564 6.7799 99.8843 6.9864 C 99.6298 7.2121 99.2892 7.3148 98.9523 7.2676 L 95.6667 7.2676 C 95.8738 7.978 96.4807 8.3776 97.4572 8.3776 C 97.731 8.3782 98.004 8.3483 98.2712 8.2886 C 98.4699 8.2382 98.6733 8.2085 98.8781 8.1999 C 99.1051 8.1979 99.3231 8.2883 99.4821 8.4501 C 99.6412 8.612 99.7277 8.8315 99.7218 9.0584 C 99.7216 9.4556 99.4732 9.8102 99.1 9.9462 C 98.5019 10.16 97.8704 10.2653 97.2353 10.2571 C 95.1191 10.2571 93.4912 8.8955 93.4912 6.7793 C 93.4912 4.7221 94.9566 3.2719 97.0283 3.2719 C 97.8404 3.2288 98.6341 3.5243 99.2202 4.0881 C 99.8063 4.6518 100.1325 5.4334 100.121 6.2466 Z M 98.2415 6.0095 C 98.2355 5.6895 98.0965 5.3864 97.8578 5.1731 C 97.6192 4.9597 97.3025 4.8553 96.9838 4.885 C 96.3112 4.8539 95.7264 5.3422 95.6371 6.0096 Z " stroke-width="1" fill="#343434" stroke="none"/></g></g></svg>