<svg xmlns="http://www.w3.org/2000/svg" xmlns:xlink="http://www.w3.org/1999/xlink" version="1.1" width="17.125" height="17.125" viewBox="0,0,17.125,17.125"><defs><linearGradient x1="231.4375" y1="180" x2="248.5625" y2="180" gradientUnits="userSpaceOnUse" id="color-1"><stop offset="0" stop-color="#9966ff" stop-opacity="0"/><stop offset="1" stop-color="#9966ff" stop-opacity="0"/></linearGradient></defs><g><g data-paper-data="{&quot;isPaintingLayer&quot;:true}" fill-rule="nonzero" stroke-linecap="butt" stroke-linejoin="miter" stroke-miterlimit="10" stroke-dasharray="" stroke-dashoffset="0" style="mix-blend-mode: normal"><path d="M 12.3918 1.967 L 12.3918 15.2558 C 12.3769 16.2498 11.5747 17.0519 10.5807 17.0669 C 10.1001 17.068 9.6389 16.8775 9.299 16.5376 C 8.9592 16.1977 8.7688 15.7364 8.77 15.2558 L 8.77 4.243 L 7.2523 4.8549 C 6.9753 4.9833 6.6765 5.058 6.3716 5.0751 C 5.4614 5.0635 4.7301 4.3214 4.7319 3.4111 C 4.7361 2.684 5.1962 2.0377 5.8819 1.7958 L 9.2103 0.4253 C 9.6244 0.2225 10.0724 0.0981 10.5318 0.0582 C 11.0354 0.0525 11.5193 0.2534 11.8708 0.6141 C 12.2223 0.9748 12.4106 1.4638 12.3918 1.9671 Z " fill="#fcfcfc" stroke-width="1" stroke="none"/><path d="M231.4375,188.5625v-17.125h17.125v17.125z" fill="url(#color-1)" stroke-width="0" stroke="none" transform="matrix(1,0,0,1,-231.4375,-171.4375)"/></g></g></svg>