<svg xmlns="http://www.w3.org/2000/svg" xmlns:xlink="http://www.w3.org/1999/xlink" version="1.1" width="113.14443" height="30.99098" viewBox="0,0,113.14443,30.99098"><g><g data-paper-data="{&quot;isPaintingLayer&quot;:true}" fill-rule="nonzero" stroke-linecap="butt" stroke-linejoin="miter" stroke-miterlimit="10" stroke-dasharray="" stroke-dashoffset="0" style="mix-blend-mode: normal"><g><path d="M 26.874 17.4871 L 26.874 25.2879 C 27.0343 27.047 25.9994 28.6963 24.3457 29.3172 C 21.5288 30.4596 18.5121 31.028 15.4726 30.9891 C 6.7295 30.9891 0 24.9451 0 15.9012 C 0 7.0721 6.9434 0.9852 16.0732 0.9852 C 18.4229 0.9706 20.7575 1.3624 22.9736 2.1434 C 24.7744 2.8719 25.6738 3.9002 25.6738 5.4862 C 25.7186 6.9441 24.6009 8.1758 23.1455 8.2723 C 22.2376 8.217 21.3494 7.9841 20.5312 7.5868 C 19.0973 7.0879 17.5914 6.8273 16.0732 6.8153 C 10.2871 6.8153 6.8574 10.7157 6.8574 15.9012 C 6.8574 21.6883 10.8008 25.16 15.6875 25.16 C 17.7291 25.2117 19.7545 24.786 21.6025 23.9168 L 21.6025 19.9305 L 17.916 19.9305 C 17.1725 19.9579 16.4501 19.6806 15.916 19.1627 C 15.3819 18.6448 15.0824 17.9313 15.0869 17.1874 C 15.0806 16.439 15.3781 15.7201 15.9113 15.195 C 16.4445 14.6699 17.1679 14.3835 17.916 14.4012 L 23.917 14.4012 C 24.7255 14.396 25.5005 14.7238 26.0599 15.3076 C 26.6192 15.8913 26.9137 16.6796 26.874 17.4871 Z " stroke-width="1" fill="#dd2c2c" stroke="none"/><path d="M 49.7578 17.7879 L 49.7578 27.5603 C 49.7729 28.7035 49.1716 29.7663 48.184 30.3423 C 47.1965 30.9183 45.9754 30.9183 44.9878 30.3423 C 44.0002 29.7663 43.399 28.7035 43.4141 27.5603 L 43.4141 19.2449 C 43.4141 17.4871 42.7285 16.159 40.7998 16.159 C 39.329 16.2189 38.0334 17.1444 37.5 18.5164 L 37.5 27.5603 C 37.515 28.7035 36.9138 29.7663 35.9262 30.3423 C 34.9387 30.9183 33.7176 30.9183 32.73 30.3423 C 31.7424 29.7663 31.1412 28.7035 31.1562 27.5603 L 31.1562 3.2147 C 31.1409 2.0713 31.7421 1.0082 32.7298 0.4321 C 33.7175 -0.144 34.9388 -0.144 35.9265 0.4321 C 36.9141 1.0082 37.5153 2.0713 37.5 3.2147 L 37.5 13.5867 C 38.8885 11.8244 40.9997 10.7847 43.2432 10.7586 C 46.6719 10.7586 49.7578 13.0301 49.7578 17.7879 Z " stroke-width="1" fill="#dd2c2c" stroke="none"/><path d="M 53.3984 20.7879 C 53.3984 14.8299 58.1123 10.7586 63.8564 10.7586 C 69.6426 10.7586 74.3144 14.8299 74.3144 20.7879 C 74.1732 26.4623 69.5326 30.9888 63.8564 30.9888 C 58.1803 30.9888 53.5397 26.4623 53.3984 20.7879 Z M 67.8857 20.7879 C 67.8857 17.702 65.9141 16.159 63.8564 16.159 C 61.7988 16.159 59.8271 17.702 59.8271 20.7879 C 59.8271 23.9168 61.7988 25.5887 63.8564 25.5887 C 65.9141 25.5887 67.8857 23.9168 67.8857 20.7879 Z " stroke-width="1" fill="#dd2c2c" stroke="none"/><path d="M 78.9414 29.617 C 77.8484 29.223 77.1026 28.2066 77.0547 27.0457 C 77.0258 26.4155 77.2576 25.8011 77.6956 25.347 C 78.1336 24.8929 78.7393 24.6392 79.3701 24.6453 C 80.3043 24.7374 81.2167 24.9835 82.0703 25.3739 C 83.1728 25.7599 84.331 25.9628 85.499 25.9744 C 87.2559 25.9744 87.9424 25.5887 87.9424 24.9451 C 87.9424 24.0457 86.4424 23.745 83.9561 23.0164 C 80.0557 21.8592 77.4414 20.5731 77.4414 16.9734 C 77.4414 13.4158 80.1846 10.7586 85.499 10.7586 C 87.4549 10.766 89.3958 11.099 91.2422 11.7439 C 92.4044 12.0408 93.2275 13.0741 93.2569 14.2732 C 93.3196 14.9165 93.1094 15.5565 92.6775 16.0372 C 92.2455 16.518 91.6316 16.7953 90.9854 16.8016 C 90.1959 16.7241 89.4188 16.5513 88.6709 16.2869 C 87.6392 15.9901 86.5725 15.8319 85.499 15.8162 C 83.999 15.8162 83.3135 16.159 83.3135 16.8016 C 83.3135 17.616 84.3418 17.8729 87.5567 18.8162 C 90.9854 19.8016 93.8145 21.0018 93.8145 24.6883 C 93.8145 28.4168 90.8995 30.9891 85.585 30.9891 C 83.2985 31.0054 81.0344 30.5378 78.9414 29.617 Z " stroke-width="1" fill="#dd2c2c" stroke="none"/><path d="M 113.1416 27.3455 C 113.1416 28.5457 112.4131 29.2742 111.1269 29.9178 C 109.6719 30.5726 108.0936 30.9086 106.498 30.9032 C 101.4834 30.9032 99.04 28.5457 99.04 24.3455 L 99.04 16.4588 L 97.583 16.4588 C 97.0801 16.4803 96.5902 16.2959 96.2263 15.9481 C 95.8623 15.6004 95.6558 15.1194 95.6543 14.6161 C 95.6746 13.926 96.0257 13.2878 96.5977 12.9012 L 101.9981 8.3582 C 102.4085 7.9445 102.959 7.6996 103.5411 7.6717 C 104.4835 7.6717 105.3838 8.3152 105.3838 9.9012 L 105.3838 11.1444 L 110.2276 11.1444 C 111.6922 11.1514 112.8777 12.337 112.8848 13.8016 C 112.8886 14.5075 112.6098 15.1855 112.1107 15.6847 C 111.6115 16.1838 110.9335 16.4625 110.2276 16.4588 L 105.3838 16.4588 L 105.3838 23.1024 C 105.3173 23.6924 105.52 24.281 105.9358 24.705 C 106.3516 25.1289 106.9362 25.343 107.5274 25.2879 C 108.0351 25.2893 108.5403 25.2173 109.0274 25.074 C 109.538 24.88 110.0707 24.7505 110.6133 24.6883 C 111.306 24.69 111.9678 24.9749 112.4453 25.4767 C 112.9227 25.9785 113.1743 26.6537 113.1416 27.3455 Z " stroke-width="1" fill="#dd2c2c" stroke="none"/></g></g></g></svg>