<svg xmlns="http://www.w3.org/2000/svg" xmlns:xlink="http://www.w3.org/1999/xlink" version="1.1" width="101.69922" height="30.0089" viewBox="0,0,101.69922,30.0089"><g><g data-paper-data="{&quot;isPaintingLayer&quot;:true}" fill-rule="nonzero" stroke-linecap="butt" stroke-linejoin="miter" stroke-miterlimit="10" stroke-dasharray="" stroke-dashoffset="0" style="mix-blend-mode: normal"><g><path d="M 0 14.9636 C 0 6.0486 6.8144 0.0046 15.1299 0.0046 C 17.4295 -0.0512 19.7129 0.4027 21.8164 1.3337 C 23.5313 2.2341 24.3887 3.1765 24.3887 4.6774 C 24.388 5.3858 24.1003 6.0636 23.5913 6.5562 C 23.0823 7.0488 22.3955 7.3142 21.6875 7.2917 C 20.8913 7.2531 20.1144 7.0333 19.416 6.6491 C 18.1218 6.0763 16.7166 5.7981 15.3017 5.8347 C 9.6865 5.8347 6.8574 10.2487 6.8574 14.9636 C 6.8574 19.6354 9.6865 24.0075 15.2158 24.0075 C 16.6891 24.0279 18.1499 23.7357 19.5019 23.1501 C 20.3121 22.6614 21.2187 22.3545 22.1592 22.2507 C 22.8872 22.2233 23.5943 22.4976 24.1136 23.0087 C 24.6328 23.5198 24.9182 24.2225 24.9023 24.9509 C 24.8837 25.9679 24.3928 26.9183 23.5742 27.5222 C 22.2451 28.6364 19.416 30.0085 15.2158 30.0085 C 6.5576 30.0085 0 23.9646 0 14.9636 Z " stroke-width="1" fill="#dd2c2c" stroke="none"/><path d="M 26.998 19.8073 C 26.998 13.8493 31.7129 9.778 37.457 9.778 C 43.2432 9.778 47.915 13.8493 47.915 19.8073 C 47.7736 25.4819 43.1328 30.0083 37.4565 30.0083 C 31.7802 30.0083 27.1395 25.4819 26.998 19.8073 Z M 41.4863 19.8073 C 41.4863 16.7214 39.5146 15.1784 37.457 15.1784 C 35.3994 15.1784 33.4277 16.7214 33.4277 19.8073 C 33.4277 22.9362 35.3994 24.6081 37.457 24.6081 C 39.5146 24.6081 41.4863 22.9363 41.4863 19.8073 Z " stroke-width="1" fill="#dd2c2c" stroke="none"/><path d="M 51.4697 3.6052 C 51.4524 2.2491 52.2559 1.0169 53.5038 0.4859 C 54.7517 -0.0452 56.1967 0.2302 57.1619 1.183 C 58.127 2.1357 58.4211 3.5771 57.9062 4.8317 C 57.3914 6.0864 56.1697 6.9058 54.8135 6.906 C 53.9293 6.9219 53.0761 6.5806 52.4468 5.9594 C 51.8175 5.3382 51.4652 4.4895 51.4697 3.6052 Z M 51.6416 26.5798 L 51.6416 13.1638 C 51.6396 12.0293 52.2437 10.98 53.2259 10.4122 C 54.2081 9.8443 55.4188 9.8443 56.401 10.4122 C 57.3833 10.98 57.9874 12.0293 57.9853 13.1638 L 57.9853 26.5798 C 58.0004 27.723 57.3992 28.7858 56.4116 29.3617 C 55.424 29.9377 54.2029 29.9377 53.2154 29.3617 C 52.2278 28.7858 51.6265 27.723 51.6416 26.5798 Z " stroke-width="1" fill="#dd2c2c" stroke="none"/><path d="M 81.3008 16.8073 L 81.3008 26.5798 C 81.3158 27.723 80.7146 28.7858 79.727 29.3617 C 78.7395 29.9377 77.5184 29.9377 76.5308 29.3617 C 75.5432 28.7858 74.942 27.723 74.957 26.5798 L 74.957 18.2644 C 74.957 16.5066 74.2705 15.1784 72.3418 15.1784 C 70.871 15.2383 69.5754 16.1639 69.042 17.5359 L 69.042 26.5798 C 69.057 27.723 68.4558 28.7858 67.4682 29.3617 C 66.4806 29.9377 65.2595 29.9377 64.272 29.3617 C 63.2844 28.7858 62.6832 27.723 62.6982 26.5798 L 62.6982 13.1638 C 62.6962 12.3219 63.0297 11.514 63.625 10.9187 C 64.2203 10.3234 65.0282 9.9899 65.8701 9.9919 C 67.4167 10.0092 68.7315 11.1258 68.999 12.6492 C 70.3814 10.8507 72.5168 9.7911 74.7852 9.7781 C 78.2138 9.7781 81.3008 12.0495 81.3008 16.8073 Z " stroke-width="1" fill="#dd2c2c" stroke="none"/><path d="M 86.8262 28.6364 C 85.7332 28.2424 84.9874 27.226 84.9394 26.0652 C 84.9106 25.4349 85.1424 24.8206 85.5804 24.3665 C 86.0184 23.9124 86.624 23.6586 87.2549 23.6648 C 88.189 23.7568 89.1014 24.003 89.9551 24.3933 C 91.0575 24.7793 92.2158 24.9822 93.3838 24.9939 C 95.1406 24.9939 95.8271 24.6081 95.8271 23.9646 C 95.8271 23.0652 94.3271 22.7644 91.8408 22.0359 C 87.9404 20.8786 85.3262 19.5925 85.3262 15.9929 C 85.3262 12.4352 88.0693 9.778 93.3838 9.778 C 95.3396 9.7854 97.2805 10.1184 99.127 10.7634 C 100.2891 11.0602 101.1123 12.0935 101.1416 13.2927 C 101.2043 13.9359 100.9941 14.5759 100.5622 15.0567 C 100.1303 15.5374 99.5164 15.8147 98.8701 15.821 C 98.0807 15.7435 97.3035 15.5707 96.5557 15.3063 C 95.5239 15.0096 94.4573 14.8513 93.3838 14.8356 C 91.8838 14.8356 91.1982 15.1784 91.1982 15.821 C 91.1982 16.6354 92.2266 16.8923 95.4414 17.8356 C 98.8701 18.821 101.6992 20.0212 101.6992 23.7077 C 101.6992 27.4362 98.7842 30.0085 93.4697 30.0085 C 91.1832 30.0248 88.9192 29.5572 86.8262 28.6365 Z " stroke-width="1" fill="#dd2c2c" stroke="none"/></g></g></g></svg>