<svg xmlns="http://www.w3.org/2000/svg" xmlns:xlink="http://www.w3.org/1999/xlink" version="1.1" width="17.125" height="17.15546" viewBox="0,0,17.125,17.15546"><defs><linearGradient x1="231.4375" y1="180" x2="248.5625" y2="180" gradientUnits="userSpaceOnUse" id="color-1"><stop offset="0" stop-color="#9966ff" stop-opacity="0"/><stop offset="1" stop-color="#9966ff" stop-opacity="0"/></linearGradient></defs><g><g data-paper-data="{&quot;isPaintingLayer&quot;:true}" fill-rule="nonzero" stroke-linecap="butt" stroke-linejoin="miter" stroke-miterlimit="10" stroke-dasharray="" stroke-dashoffset="0" style="mix-blend-mode: normal"><path d="M 14.4243 12.1141 C 14.4243 15.0754 11.928 17.1555 8.3062 17.1555 C 6.2506 17.1555 4.7088 16.6661 3.7053 15.9075 C 3.0691 15.418 2.7018 14.8795 2.7018 14.1453 C 2.6844 13.6902 2.861 13.249 3.1877 12.9316 C 3.5144 12.6142 3.9606 12.4505 4.415 12.4811 C 4.971 12.5077 5.5034 12.7138 5.9323 13.0686 C 6.6393 13.5446 7.4789 13.7845 8.3307 13.7538 C 9.6276 13.7538 10.5821 12.9217 10.5821 11.8449 C 10.5821 10.8171 9.7745 9.9605 8.0124 9.9605 L 6.9603 9.9605 C 6.3725 10.0048 5.8095 9.7163 5.5021 9.2135 C 5.1947 8.7106 5.1947 8.0779 5.5021 7.5751 C 5.8095 7.0722 6.3725 6.7837 6.9603 6.828 L 7.9634 6.828 C 9.2607 6.828 10.1662 6.1428 10.1662 5.1393 C 10.1662 4.136 9.2852 3.4018 8.1103 3.4018 C 7.3997 3.4262 6.7113 3.6557 6.1282 4.0626 C 5.7899 4.2969 5.3893 4.4247 4.9778 4.4296 C 4.539 4.4286 4.1199 4.2471 3.819 3.9277 C 3.5181 3.6082 3.3619 3.1791 3.387 2.741 C 3.4154 2.1724 3.7043 1.6487 4.1702 1.3216 C 5.0267 0.6119 6.6664 0 8.4531 0 C 11.5121 0 13.886 1.5907 13.886 4.4296 C 13.9227 5.9754 13.0913 7.4116 11.7325 8.1494 C 13.3722 8.8593 14.4243 10.2052 14.4243 12.1141 Z " fill="#fcfcfc" stroke-width="1" stroke="none"/><path d="M231.4375,188.5625v-17.125h17.125v17.125z" fill="url(#color-1)" stroke-width="0" stroke="none" transform="matrix(1,0,0,1,-231.4375,-171.42227)"/></g></g></svg>