<svg xmlns="http://www.w3.org/2000/svg" xmlns:xlink="http://www.w3.org/1999/xlink" version="1.1" width="101.78536" height="41.36147" viewBox="0,0,101.78536,41.36147"><g><g data-paper-data="{&quot;isPaintingLayer&quot;:true}" fill-rule="nonzero" stroke-linecap="butt" stroke-linejoin="miter" stroke-miterlimit="10" stroke-dasharray="" stroke-dashoffset="0" style="mix-blend-mode: normal"><path d="M 2.0576 28.5887 C 0.8359 27.9735 0.047 26.7409 0 25.3739 C -0.0023 24.5967 0.3113 23.8519 0.8689 23.3105 C 1.4265 22.7691 2.1802 22.4776 2.957 22.5028 C 3.8813 22.5637 4.7644 22.9077 5.4863 23.4881 C 6.9409 24.5158 8.6771 25.0696 10.458 25.0741 C 12.7724 25.0741 14.2724 23.9168 14.2724 22.3309 C 14.2724 20.3162 11.7011 19.7166 9.001 18.6873 C 3.9433 16.7586 1.0713 14.4442 1.0713 9.7723 C 1.0713 4.6718 4.6719 0.9852 11.0586 0.9852 C 13.2575 0.8603 15.4528 1.2877 17.4443 2.2284 C 18.7141 2.7109 19.5966 3.8764 19.7168 5.2294 C 19.7629 5.9571 19.5177 6.6733 19.0351 7.22 C 18.5526 7.7667 17.8724 8.099 17.1445 8.1435 C 16.373 8.1019 15.6165 7.9129 14.916 7.5868 C 13.7049 7.0837 12.4116 6.8076 11.1006 6.7724 C 8.8291 6.7724 7.5439 7.8866 7.5439 9.3007 C 7.5439 11.4013 10.0293 12.0868 13.0303 13.2011 C 16.9736 14.6591 20.7021 16.6728 20.7021 21.9452 C 20.7021 27.7743 16.1162 30.9032 10.2011 30.9032 C 7.3269 30.8851 4.5118 30.085 2.0576 28.5887 Z " stroke-width="1" fill="#fc5702" stroke="none"/><path d="M 44.959 20.8738 C 44.959 25.9744 41.5303 30.9891 35.8721 30.9891 C 34.0313 31.0896 32.2409 30.3673 30.9854 29.0174 L 30.9854 38.1473 C 31.0007 39.2904 30.3996 40.3534 29.4121 40.9294 C 28.4245 41.5055 27.2034 41.5055 26.2159 40.9294 C 25.2284 40.3534 24.6273 39.2904 24.6426 38.1473 L 24.6426 14.1014 C 24.6008 12.4617 25.8629 11.0823 27.4999 10.9786 C 29.1368 10.8748 30.5629 12.0838 30.7285 13.7157 C 31.9106 11.8561 33.9685 10.7382 36.1719 10.7587 C 41.4014 10.7586 44.959 15.3446 44.959 20.8738 Z M 38.5293 20.8738 C 38.5293 18.3016 36.8154 16.2869 34.501 16.2869 C 32.9801 16.3523 31.6232 17.2621 30.9854 18.6444 L 30.9854 23.2742 C 31.6375 24.5999 32.9807 25.4452 34.458 25.4598 C 36.8154 25.4598 38.5293 23.4022 38.5293 20.8738 Z " stroke-width="1" fill="#fc5702" stroke="none"/><path d="M 48.5557 4.5858 C 48.5798 2.7565 50.0695 1.2863 51.8989 1.2863 C 53.7284 1.2863 55.2181 2.7565 55.2422 4.5858 C 55.2189 6.4156 53.7289 7.8868 51.8989 7.8868 C 50.0689 7.8868 48.5789 6.4156 48.5557 4.5858 Z M 48.7276 27.5604 L 48.7276 14.1444 C 48.7307 12.3948 50.1498 10.9781 51.8994 10.9781 C 53.649 10.9781 55.0682 12.3948 55.0713 14.1444 L 55.0713 27.5604 C 55.0864 28.7036 54.4851 29.7664 53.4975 30.3423 C 52.51 30.9183 51.2889 30.9183 50.3013 30.3423 C 49.3137 29.7664 48.7125 28.7035 48.7276 27.5604 Z " stroke-width="1" fill="#fc5702" stroke="none"/><path d="M 79.2432 27.7743 C 79.2483 28.5941 78.9159 29.3799 78.3241 29.9474 C 77.7323 30.5148 76.9332 30.8138 76.1143 30.7743 C 75.0916 30.7382 74.1428 30.2323 73.543 29.4032 L 68.7422 23.2313 L 66.2139 24.7743 L 66.2139 27.5604 C 66.2289 28.7036 65.6277 29.7664 64.6401 30.3424 C 63.6526 30.9183 62.4315 30.9183 61.4439 30.3424 C 60.4563 29.7664 59.8551 28.7036 59.8701 27.5604 L 59.8701 3.2147 C 59.8548 2.0713 60.456 1.0082 61.4437 0.4321 C 62.4313 -0.144 63.6527 -0.144 64.6403 0.4321 C 65.628 1.0082 66.2292 2.0713 66.2139 3.2147 L 66.2139 18.5594 L 73.8858 11.8299 C 74.4642 11.2802 75.2314 10.9733 76.0293 10.9725 C 77.5875 11.0216 78.8323 12.2859 78.8574 13.8446 C 78.8343 14.8049 78.3771 15.7031 77.6143 16.287 L 73.543 19.8016 L 78.1289 25.3739 C 78.785 26.0082 79.1821 26.8637 79.2432 27.7742 Z " stroke-width="1" fill="#fc5702" stroke="none"/><path d="M 101.7852 14.0584 C 101.7907 14.5785 101.6733 15.0924 101.4424 15.5584 L 89.8272 39.2616 C 89.3268 40.5283 88.1033 41.3608 86.7412 41.3612 C 85.0918 41.2821 83.7925 39.9265 83.7832 38.2752 C 83.7784 37.7553 83.8958 37.2415 84.126 36.7752 L 87.8985 29.703 L 81.4688 15.5584 C 81.2384 15.0923 81.121 14.5784 81.126 14.0584 C 81.1594 12.3346 82.5738 10.9586 84.2979 10.9725 C 85.6455 10.9873 86.8493 11.8183 87.3409 13.0731 C 88.4981 15.7303 90.2989 20.3592 91.4132 23.4881 C 92.6768 19.9445 94.1217 16.4683 95.7423 13.0731 C 96.2426 11.8061 97.466 10.9733 98.8282 10.9725 C 100.4774 11.0517 101.7764 12.4074 101.7852 14.0584 Z " stroke-width="1" fill="#fc5702" stroke="none"/></g></g></svg>