<svg xmlns="http://www.w3.org/2000/svg" viewBox="0 0 70.37076 70.37076" width="70.37075805664062" height="70.37075805664062"><g id="Calque_2" data-name="Calque 2"><g id="Calque_1-2" data-name="Calque 1"><circle cx="35.18538" cy="35.18538" r="35.18538" style="fill:#fcb40f" stroke-width="1"/><circle cx="35.18538" cy="35.18538" r="26.81551" style="fill:#fdd264" stroke-width="1"/><path d="M35.18509,64.11667A28.93136,28.93136,0,1,1,64.11542,35.18531,28.96334,28.96334,0,0,1,35.18509,64.11667Zm0-53.63289a24.70153,24.70153,0,1,0,24.7005,24.70153A24.72867,24.72867,0,0,0,35.18509,10.48378Z" style="fill:#eaab0c" stroke-width="1"/><path d="M31.78619,28.8223c0-1.24179,1.65348-2.11465,3.72089-2.11465a17.8909,17.8909,0,0,1,5.05379.96509,6.38091,6.38091,0,0,0,2.06741.41393,2.98014,2.98014,0,0,0,2.98639-2.98525c0-1.74572-1.28679-2.71081-3.30808-3.53867a14.26678,14.26678,0,0,0-3.95035-.91785v-1.424a2.8951,2.8951,0,0,0-5.78943,0v1.69847c-3.99646.87286-7.71735,3.39919-7.71735,8.17741,0,9.282,14.14905,7.489,14.14905,11.99053,0,1.56349-1.83683,2.29912-3.767,2.29912A13.919,13.919,0,0,1,29.351,41.91515a5.32448,5.32448,0,0,0-2.29688-.68839,3.02951,3.02951,0,0,0-3.0325,3.0325A3.68484,3.68484,0,0,0,26.13512,47.429a16.936,16.936,0,0,0,6.43169,1.92794v1.793a2.8951,2.8951,0,0,0,5.78943,0V49.17471c4.4104-.9201,7.99293-3.81313,7.99293-8.45411C46.34917,31.8548,31.78619,33.14159,31.78619,28.8223Z" style="fill:#e3a71a" stroke-width="1"/></g></g></svg>