<svg xmlns="http://www.w3.org/2000/svg" xmlns:xlink="http://www.w3.org/1999/xlink" version="1.1" width="45.90594" height="41.66146" viewBox="0,0,45.90594,41.66146"><g><g data-paper-data="{&quot;isPaintingLayer&quot;:true}" fill-rule="nonzero" stroke-linecap="butt" stroke-linejoin="miter" stroke-miterlimit="10" stroke-dasharray="" stroke-dashoffset="0" style="mix-blend-mode: normal"><path d="M 38.1884 28.9781 L 36.3071 34.7408 L 8.2804 34.7679 L 6.5633 28.9752 L 22.2978 19.9426 Z " fill="#b85a22" stroke-width="1" stroke="none"/><path d="M 24.1684 31.0843 C 24.1678 31.8979 23.5078 32.5571 22.6941 32.5566 L 22.6941 29.6101 C 23.5082 29.6105 24.168 30.2703 24.1684 31.0843 Z " fill="#d9a829" stroke-width="1" stroke="none"/><path d="M 8.3191 35.8245 L 8.3191 34.5742 L 36.2767 34.5742 L 36.2767 35.8245 Z " fill="#9d4613" stroke-width="1" stroke="none"/><path d="M 28.5381 1.8462 L 30.45 20.9259 L 22.6941 20.9259 L 22.6941 1.8462 Z " fill="#484848" stroke-width="1" stroke="none"/><path d="M 16.328 1.8462 L 22.7136 1.8462 L 22.7136 20.9259 L 14.0097 20.9259 Z " fill="#665c5c" stroke-width="1" stroke="none"/><path d="M 13.5887 20.732 L 22.4862 20.9259 L 22.4862 22.3732 L 13.5887 22.1797 Z " fill="#7b7979" stroke-width="1" stroke="none"/><path d="M 22.486 22.3733 L 22.486 20.9259 L 31.6311 20.9259 L 31.6311 22.3733 Z " fill="#726c6a" stroke-width="1" stroke="none"/><path d="M 13.8153 22.1797 L 22.7127 22.3732 L 22.6941 23.013 L 13.7979 22.7937 Z " fill="#3c3b3b" stroke-width="1" stroke="none"/><path d="M 16.0181 1.2856 L 22.4947 1.2856 L 22.4815 1.925 L 16.0054 1.8996 Z " fill="#3c3b3b" stroke-width="1" stroke="none"/><path d="M 22.4947 1.2856 L 28.829 1.2369 L 28.829 1.8767 L 22.4815 1.925 Z " fill="#302c2a" stroke-width="1" stroke="none"/><path d="M 22.6941 29.6101 L 22.6941 32.5566 C 22.1672 32.5575 21.6799 32.2769 21.4162 31.8207 C 21.1525 31.3645 21.1525 30.8022 21.4162 30.346 C 21.6799 29.8898 22.1672 29.6092 22.6942 29.6101 Z " fill="#fe9b01" stroke-width="1" stroke="none"/><path d="M 14.0109 22.7988 L 22.6941 23.0131 L 22.7127 31.0835 L 18.0701 30.5572 Z " fill="#665c5c" stroke-width="1" stroke="none"/><path d="M 27.3143 30.5572 L 22.6721 31.0835 L 22.6903 23.0131 L 31.3739 22.7988 Z " fill="#484848" stroke-width="1" stroke="none"/><path d="M 15.8169 1.3158 L 15.8169 0 L 22.0671 0 L 22.0671 1.3158 Z " fill="#7b7979" stroke-width="1" stroke="none"/><path d="M 28.9789 0 L 28.9751 1.3157 L 22.067 1.3157 L 22.067 0 Z " fill="#726c6a" stroke-width="1" stroke="none"/><path d="M 22.7127 22.3732 L 31.4146 22.325 L 31.4146 22.9643 L 22.6941 23.013 Z " fill="#302c2a" stroke-width="1" stroke="none"/><g><path d="M 35.8475 23.7356 L 36.3217 29.5454 L 34.81 29.901 L 32.4982 24.7139 Z " fill="#191818" stroke-width="1" stroke="none"/><path d="M 42.3074 26.3435 L 38.0566 30.3318 L 36.8372 29.3703 L 39.4569 24.3316 Z " fill="#191818" stroke-width="1" stroke="none"/><path d="M 44.1099 32.8591 L 38.2878 32.5775 L 38.1306 31.0326 L 43.573 29.4111 Z " fill="#191818" stroke-width="1" stroke="none"/><path d="M 40.2497 38.5033 L 36.9566 33.6939 L 38.0929 32.6351 L 42.6729 35.9928 Z " fill="#191818" stroke-width="1" stroke="none"/><path d="M 33.2377 39.0833 L 35.1576 33.5795 L 36.6838 33.8668 L 36.696 39.5457 Z " fill="#191818" stroke-width="1" stroke="none"/><path d="M 28.381 34.3197 L 33.8237 32.233 L 34.5895 33.5841 L 30.2605 37.2595 Z " fill="#191818" stroke-width="1" stroke="none"/><path d="M 29.4848 27.057 L 34.3919 30.2024 L 33.7581 31.6203 L 28.2314 30.3135 Z " fill="#191818" stroke-width="1" stroke="none"/><path d="M 45.7314 31.8057 C 45.7309 37.0975 41.4409 41.387 36.1491 41.3869 C 30.8573 41.3867 26.5676 37.0969 26.5674 31.8052 C 26.5673 26.5134 30.8568 22.2234 36.1486 22.2229 C 41.441 22.2229 45.7314 26.5133 45.7314 31.8057 Z M 43.7956 31.8057 C 43.796 28.7123 41.9327 25.9232 39.0748 24.7392 C 36.2169 23.5553 32.9271 24.2095 30.7397 26.397 C 28.5523 28.5844 27.898 31.8741 29.082 34.732 C 30.266 37.59 33.0551 39.4532 36.1485 39.4529 C 40.3719 39.4528 43.7955 36.0291 43.7956 31.8058 Z " fill="#0b0600" stroke-width="1" stroke="none"/><path d="M 36.1485 41.6615 C 30.7601 41.661 26.3923 37.2924 26.3929 31.904 C 26.3934 26.5156 30.762 22.1479 36.1503 22.1484 C 41.5387 22.1489 45.9065 26.5175 45.9059 31.9059 C 45.8994 37.2917 41.5343 41.6559 36.1485 41.6615 Z M 36.1485 22.4975 C 30.9531 22.498 26.7418 26.7099 26.742 31.9052 C 26.7421 37.1006 30.9537 41.3122 36.1491 41.3124 C 41.3444 41.3125 45.5563 37.1012 45.5568 31.9058 C 45.551 26.7121 41.3421 22.5033 36.1485 22.4975 Z M 36.1485 39.7274 C 32.9844 39.7277 30.1317 37.8219 28.9208 34.8988 C 27.7098 31.9756 28.3791 28.6108 30.6164 26.3735 C 32.8538 24.1362 36.2186 23.467 39.1417 24.6781 C 42.0649 25.8891 43.9706 28.7418 43.9702 31.9059 C 43.9653 36.2236 40.4662 39.7226 36.1485 39.7274 Z M 36.1485 24.4315 C 32.021 24.4311 28.6747 27.7767 28.6743 31.9041 C 28.6738 36.0315 32.0194 39.3778 36.1468 39.3783 C 40.2742 39.3788 43.6206 36.0333 43.6211 31.9059 C 43.617 27.7803 40.274 24.4366 36.1485 24.4315 Z " fill="#b44c0c" stroke-width="1" stroke="none"/><path d="M 39.2155 31.804 C 39.2167 32.7932 38.6896 33.7078 37.8331 34.2027 C 36.9767 34.6976 35.9211 34.6976 35.0646 34.2027 C 34.2082 33.7077 33.6811 32.7932 33.6823 31.804 C 33.684 30.2773 34.9222 29.0406 36.4489 29.0406 C 37.9756 29.0406 39.2137 30.2773 39.2155 31.804 Z " fill="#dd5601" stroke-width="1" stroke="none"/><path d="M 39.2155 31.804 C 39.2155 32.0125 39.1921 32.2204 39.1457 32.4237 C 38.2334 32.9556 37.1062 32.9591 36.1905 32.433 C 35.2748 31.9069 34.7103 30.9313 34.7104 29.8752 C 34.7104 29.7984 34.7139 29.7216 34.7208 29.6465 C 35.5506 28.9816 36.6882 28.8513 37.6468 29.3114 C 38.6055 29.7716 39.2154 30.7406 39.2155 31.804 Z " fill="#df7823" stroke-width="1" stroke="none"/><path d="M 37.9674 30.4076 C 37.9674 30.462 37.9595 30.5161 37.9439 30.5683 C 37.7863 30.638 37.6156 30.6735 37.4432 30.6724 C 36.9598 30.7271 36.52 30.3887 36.4489 29.9074 C 36.4489 29.8876 36.4501 29.8678 36.4524 29.8481 C 36.6284 29.7429 36.8299 29.6884 37.0349 29.6906 C 37.4882 29.6393 37.9006 29.9564 37.9674 30.4076 Z " fill="#ee9954" stroke-width="1" stroke="none"/><path d="M 36.4229 34.8542 C 34.7532 34.8542 33.3996 33.5006 33.3996 31.8308 C 33.3996 30.1611 34.7532 28.8075 36.423 28.8075 C 38.0927 28.8075 39.4463 30.161 39.4464 31.8308 C 39.4444 33.4998 38.0919 34.8523 36.4229 34.8542 Z M 36.4229 29.1566 C 34.946 29.1567 33.7487 30.354 33.7487 31.831 C 33.7488 33.3079 34.9461 34.5052 36.4231 34.5051 C 37.9 34.5051 39.0973 33.3077 39.0973 31.8308 C 39.0955 30.3545 37.8991 29.1583 36.4229 29.1566 Z " fill="#31180a" stroke-width="1" stroke="none"/></g><g><path d="M 9.4546 23.6106 L 9.9289 29.4204 L 8.4172 29.776 L 6.1054 24.5889 Z " fill="#191818" stroke-width="1" stroke="none"/><path d="M 15.9146 26.2185 L 11.6638 30.2068 L 10.4443 29.2453 L 13.064 24.2066 Z " fill="#191818" stroke-width="1" stroke="none"/><path d="M 17.717 32.7341 L 11.895 32.4525 L 11.7378 30.9077 L 17.1802 29.2861 Z " fill="#191818" stroke-width="1" stroke="none"/><path d="M 13.8569 38.3783 L 10.5638 33.569 L 11.7 32.5102 L 16.2801 35.8678 Z " fill="#191818" stroke-width="1" stroke="none"/><path d="M 6.8448 38.9583 L 8.7648 33.4545 L 10.291 33.7418 L 10.3032 39.4207 Z " fill="#191818" stroke-width="1" stroke="none"/><path d="M 1.9881 34.1947 L 7.4309 32.108 L 8.1967 33.4591 L 3.8676 37.1345 Z " fill="#191818" stroke-width="1" stroke="none"/><path d="M 3.0919 26.932 L 7.999 30.0774 L 7.3653 31.4953 L 1.8386 30.1885 Z " fill="#191818" stroke-width="1" stroke="none"/><path d="M 19.3385 31.6807 C 19.3381 36.9725 15.048 41.262 9.7563 41.2619 C 4.4645 41.2617 0.1747 36.9719 0.1746 31.6802 C 0.1744 26.3884 4.4639 22.0984 9.7557 22.0979 C 15.0481 22.0979 19.3385 26.3883 19.3385 31.6807 Z M 17.4028 31.6807 C 17.4031 28.5873 15.5399 25.7982 12.682 24.6142 C 9.824 23.4302 6.5343 24.0845 4.3469 26.2719 C 2.1595 28.4594 1.5052 31.7491 2.6892 34.607 C 3.8732 37.4649 6.6622 39.3282 9.7557 39.3278 C 13.979 39.3278 17.4027 35.9041 17.4027 31.6808 Z " fill="#0b0600" stroke-width="1" stroke="none"/><path d="M 9.7556 41.5365 C 4.3672 41.5359 -0.0005 37.1674 0 31.779 C 0.0005 26.3906 4.3691 22.0229 9.7575 22.0234 C 15.1459 22.0239 19.5136 26.3925 19.5131 31.7809 C 19.5065 37.1667 15.1415 41.5309 9.7556 41.5365 Z M 9.7556 22.3725 C 4.5602 22.373 0.3489 26.5849 0.3491 31.7802 C 0.3493 36.9756 4.5609 41.1872 9.7562 41.1874 C 14.9516 41.1875 19.1634 36.9762 19.164 31.7809 C 19.1582 26.5872 14.9493 22.3783 9.7556 22.3725 Z M 9.7556 39.6024 C 6.5915 39.6027 3.7389 37.6969 2.5279 34.7738 C 1.317 31.8506 1.9862 28.4858 4.2236 26.2485 C 6.4609 24.0112 9.8257 23.3421 12.7489 24.5531 C 15.672 25.7641 17.5777 28.6168 17.5774 31.7809 C 17.5725 36.0986 14.0734 39.5976 9.7556 39.6024 Z M 9.7556 24.3065 C 5.6282 24.3061 2.2819 27.6517 2.2814 31.7791 C 2.281 35.9065 5.6265 39.2528 9.754 39.2533 C 13.8814 39.2538 17.2277 35.9083 17.2282 31.7809 C 17.2241 27.6553 13.8812 24.3116 9.7556 24.3065 Z " fill="#b44c0c" stroke-width="1" stroke="none"/><path d="M 12.8227 31.679 C 12.8238 32.6682 12.2968 33.5827 11.4403 34.0777 C 10.5838 34.5726 9.5282 34.5726 8.6718 34.0777 C 7.8153 33.5827 7.2882 32.6682 7.2894 31.679 C 7.2912 30.1523 8.5293 28.9156 10.056 28.9156 C 11.5827 28.9156 12.8209 30.1523 12.8227 31.679 Z " fill="#dd5601" stroke-width="1" stroke="none"/><path d="M 12.8227 31.679 C 12.8227 31.8875 12.7992 32.0954 12.7528 32.2987 C 11.8405 32.8306 10.7134 32.8341 9.7977 32.308 C 8.882 31.7819 8.3174 30.8063 8.3175 29.7502 C 8.3175 29.6734 8.321 29.5966 8.328 29.5215 C 9.1577 28.8566 10.2953 28.7263 11.254 29.1864 C 12.2126 29.6466 12.8225 30.6156 12.8227 31.679 Z " fill="#df7823" stroke-width="1" stroke="none"/><path d="M 11.5746 30.2826 C 11.5745 30.337 11.5666 30.3911 11.5511 30.4433 C 11.3934 30.513 11.2228 30.5485 11.0504 30.5474 C 10.5669 30.6021 10.1271 30.2637 10.0561 29.7824 C 10.056 29.7626 10.0572 29.7428 10.0596 29.7231 C 10.2355 29.6179 10.4371 29.5634 10.6421 29.5656 C 11.0953 29.5143 11.5077 29.8314 11.5746 30.2826 Z " fill="#ee9954" stroke-width="1" stroke="none"/><path d="M 10.0301 34.7292 C 8.3603 34.7292 7.0067 33.3756 7.0068 31.7058 C 7.0068 30.0361 8.3604 28.6825 10.0301 28.6825 C 11.6998 28.6825 13.0535 30.036 13.0535 31.7058 C 13.0516 33.3748 11.6991 34.7273 10.0301 34.7292 Z M 10.0301 29.0316 C 8.5531 29.0317 7.3558 30.229 7.3559 31.706 C 7.3559 33.1829 8.5533 34.3802 10.0302 34.3801 C 11.5072 34.3801 12.7044 33.1827 12.7044 31.7058 C 12.7027 30.2295 11.5063 29.0333 10.03 29.0316 Z " fill="#31180a" stroke-width="1" stroke="none"/></g></g></g></svg>