<svg xmlns="http://www.w3.org/2000/svg" xmlns:xlink="http://www.w3.org/1999/xlink" version="1.1" width="26.13839" height="17.25042" viewBox="0,0,26.13839,17.25042"><defs><linearGradient x1="231.4375" y1="180" x2="248.5625" y2="180" gradientUnits="userSpaceOnUse" id="color-1"><stop offset="0" stop-color="#9966ff" stop-opacity="0"/><stop offset="1" stop-color="#9966ff" stop-opacity="0"/></linearGradient></defs><g><g data-paper-data="{&quot;isPaintingLayer&quot;:true}" fill-rule="nonzero" stroke-linecap="butt" stroke-linejoin="miter" stroke-miterlimit="10" stroke-dasharray="" stroke-dashoffset="0" style="mix-blend-mode: normal"><path d="M 26.1382 8.9267 L 26.1382 15.1837 C 26.1479 15.9188 25.7613 16.6023 25.1262 16.9726 C 24.4912 17.343 23.706 17.343 23.0709 16.9726 C 22.4359 16.6023 22.0493 15.9188 22.0589 15.1837 L 22.0589 9.8366 C 22.0589 8.2931 21.1496 7.8522 20.4055 7.8522 C 19.5214 7.8688 18.7265 8.395 18.3658 9.2024 L 18.3658 15.1838 C 18.3755 15.9188 17.9889 16.6023 17.3538 16.9726 C 16.7188 17.343 15.9336 17.343 15.2985 16.9726 C 14.6635 16.6023 14.2769 15.9188 14.2865 15.1838 L 14.2865 9.809 C 14.2865 8.293 13.3773 7.8522 12.6331 7.8522 C 11.7339 7.8678 10.9263 8.406 10.5658 9.23 L 10.5658 15.1837 C 10.5703 16.3164 9.6589 17.2399 8.5262 17.2504 C 7.3976 17.2304 6.4917 16.3125 6.4866 15.1837 L 6.4866 6.612 C 6.4894 5.4775 7.3922 4.5502 8.5262 4.5171 C 9.5174 4.5371 10.3579 5.251 10.5382 6.2258 C 11.3624 5.0476 12.7112 4.3476 14.149 4.3519 C 15.6564 4.2606 17.0822 5.0432 17.8145 6.3639 C 18.7649 5.0534 20.3034 4.2997 21.9214 4.3519 C 23.961 4.3519 26.1382 5.4264 26.1382 8.9267 Z " fill="#f9f9f9" stroke-width="1" stroke="none"/><path d="M231.4375,188.5625v-17.125h17.125v17.125z" fill="url(#color-1)" stroke-width="0" stroke="none" transform="matrix(1,0,0,1,-231.4375,-171.4375)"/></g></g></svg>