<svg xmlns="http://www.w3.org/2000/svg" xmlns:xlink="http://www.w3.org/1999/xlink" version="1.1" width="34.27776" height="34.27776" viewBox="0,0,34.27776,34.27776"><defs><linearGradient x1="245.47047" y1="194.133" x2="234.52923" y2="165.93057" gradientUnits="userSpaceOnUse" id="color-1"><stop offset="0" stop-color="#4d2f09"/><stop offset="1" stop-color="#302211"/></linearGradient><linearGradient x1="22.6094" y1="31.2719" x2="11.6681" y2="3.0694" gradientUnits="userSpaceOnUse" id="color-1-,0,0,1,-222.86112,-162.86112"><stop offset="0" stop-color="#4d2f09"/><stop offset="1" stop-color="#302211"/></linearGradient></defs><g><g data-paper-data="{&quot;isPaintingLayer&quot;:true}" fill-rule="nonzero" stroke-linecap="butt" stroke-linejoin="miter" stroke-miterlimit="10" stroke-dasharray="" stroke-dashoffset="0" style="mix-blend-mode: normal"><path d="M 17.1035 16.1035 L 29.9103 16.1035 L 29.9103 18.2379 L 17.1035 18.2379 Z " fill="#5f4f28" stroke-width="1" stroke="none"/><path d="M 16.5324 16.2678 L 25.5882 7.212 L 27.0975 8.7212 L 18.0417 17.7771 Z " fill="#5f4f28" stroke-width="1" stroke="none"/><path d="M 16.0362 17.1707 L 16.0362 4.3639 L 18.1707 4.3639 L 18.1707 17.1707 Z " fill="#5f4f28" stroke-width="1" stroke="none"/><path d="M 16.1097 17.6863 L 7.0539 8.6305 L 8.5632 7.1212 L 17.619 16.177 Z " fill="#5f4f28" stroke-width="1" stroke="none"/><path d="M 17.1035 18.2379 L 4.2966 18.2379 L 4.2966 16.1035 L 17.1035 16.1035 Z " fill="#5f4f28" stroke-width="1" stroke="none"/><path d="M 18.1707 17.1707 L 18.1707 29.9776 L 16.0362 29.9776 L 16.0362 17.1707 Z " fill="#5f4f28" stroke-width="1" stroke="none"/><path d="M 17.5455 16.1035 L 26.6013 25.1593 L 25.092 26.6686 L 16.0362 17.6128 Z " fill="#5f4f28" stroke-width="1" stroke="none"/><path d="M 17.9125 17.9063 L 8.8567 26.9621 L 7.3474 25.4528 L 16.4032 16.397 Z " fill="#5f4f28" stroke-width="1" stroke="none"/><path d="M 17.1387 34.2778 C 7.6732 34.2777 0 26.6043 0 17.1388 C 0 7.6733 7.6733 0 17.1388 0 C 26.6043 0 34.2777 7.6732 34.2778 17.1387 C 34.2672 26.6 26.6 34.2672 17.1387 34.2778 Z M 17.1387 3.303 C 11.5426 3.303 6.4976 6.6741 4.3561 11.8443 C 2.2147 17.0144 3.3985 22.9655 7.3555 26.9225 C 11.3126 30.8795 17.2637 32.0631 22.4338 29.9215 C 27.6039 27.7799 30.9749 22.7348 30.9748 17.1387 C 30.9662 9.5009 24.7766 3.3114 17.1387 3.303 Z " fill="#160d04" stroke-width="1" stroke="none"/><path d="M 17.1387 31.1003 C 11.519 31.1002 6.4527 27.7149 4.3022 22.5229 C 2.1517 17.331 3.3405 11.3548 7.3143 7.3811 C 11.288 3.4074 17.2642 2.2188 22.4562 4.3694 C 27.6481 6.52 31.0332 11.5864 31.0332 17.2061 C 31.0244 24.8762 24.8087 31.0917 17.1387 31.1003 Z M 17.1387 6.6147 C 11.2894 6.6148 6.5475 11.3567 6.5476 17.206 C 6.5476 23.0554 11.2895 27.7973 17.1388 27.7973 C 22.9882 27.7973 27.7301 23.0555 27.7302 17.2062 C 27.7236 11.3594 22.9855 6.6213 17.1387 6.6147 Z " fill="#160d04" stroke-width="1" stroke="none"/><path d="M 13.0553 17.1707 C 13.0553 14.935 14.8677 13.1226 17.1035 13.1226 C 19.3392 13.1226 21.1516 14.935 21.1516 17.1707 C 21.1516 19.4064 19.3392 21.2189 17.1035 21.2189 C 14.8677 21.2189 13.0553 19.4064 13.0553 17.1707 Z " fill="#4e280b" stroke-width="1" stroke="none"/><path d="M 17.1387 32.2953 C 8.7856 32.2953 2.0141 25.5238 2.0141 17.1707 C 2.0141 8.8175 8.7857 2.046 17.1388 2.046 C 25.4919 2.046 32.2634 8.8175 32.2634 17.1707 C 32.2539 25.5199 25.4879 32.2859 17.1387 32.2954 Z M 17.1387 5.349 C 12.3573 5.349 8.0467 8.2292 6.2169 12.6467 C 4.3871 17.0642 5.3985 22.1489 8.7795 25.5299 C 12.1605 28.9109 17.2452 29.9223 21.6627 28.0925 C 26.0801 26.2627 28.9604 21.9521 28.9604 17.1707 C 28.953 10.6448 23.6646 5.3564 17.1387 5.349 Z " fill="url(#color-1-,0,0,1,-222.86112,-162.86112)" stroke-width="1" stroke="none"/></g></g></svg>