<svg xmlns="http://www.w3.org/2000/svg" xmlns:xlink="http://www.w3.org/1999/xlink" version="1.1" width="179.3276" height="147.32265" viewBox="0,0,179.3276,147.32265"><g><g data-paper-data="{&quot;isPaintingLayer&quot;:true}" fill-rule="nonzero" stroke-linecap="butt" stroke-linejoin="miter" stroke-miterlimit="10" stroke-dasharray="" stroke-dashoffset="0" style="mix-blend-mode: normal"><path d="M 7.3464 18.0407 C 3.5479 18.0407 0 15.6422 0 10.6443 L 0 2.5988 C 0.0137 1.546 0.8711 0.6997 1.924 0.6997 C 2.9769 0.6997 3.8342 1.546 3.8479 2.5988 L 3.8479 10.6198 C 3.8479 13.6178 5.5468 14.6425 7.3714 14.6425 C 9.1203 14.6425 10.8943 13.5682 10.8943 10.6198 L 10.8943 2.4986 C 10.9647 1.4673 11.8347 0.6744 12.8681 0.6996 C 13.3523 0.6914 13.8198 0.8767 14.1669 1.2144 C 14.514 1.5521 14.7121 2.0143 14.7172 2.4986 L 14.7172 10.6442 C 14.7172 15.6422 11.1192 18.0407 7.3464 18.0407 Z " stroke-width="1" fill="#000000" stroke="none"/><path d="M 17.5894 22.2388 L 17.5894 8.2207 C 17.565 7.2648 18.3008 6.4607 19.2551 6.4002 C 20.2094 6.3397 21.0408 7.0445 21.1373 7.9958 C 21.8264 6.9118 23.0261 6.26 24.3106 6.272 C 27.3593 6.272 29.4333 8.9454 29.4333 12.1689 C 29.4333 15.1424 27.4344 18.0658 24.1358 18.0658 C 23.0627 18.1244 22.019 17.7032 21.287 16.9163 L 21.287 22.2388 C 21.2825 23.2619 20.4615 24.0941 19.4385 24.1124 C 18.4115 24.1031 17.5851 23.2657 17.5894 22.2388 Z M 21.287 13.5682 C 21.6672 14.341 22.4503 14.8338 23.3115 14.8423 C 24.6858 14.8423 25.6849 13.6428 25.6849 12.1688 C 25.6849 10.6693 24.6858 9.4948 23.3365 9.4948 C 22.4499 9.5329 21.6589 10.0633 21.287 10.8691 Z " stroke-width="1" fill="#000000" stroke="none"/><path d="M 32.9789 17.4412 C 32.4916 17.1207 32.1999 16.5751 32.2041 15.9918 C 32.2041 15.1674 32.6538 14.6175 33.5289 14.1928 C 32.1009 13.5702 31.1851 12.1524 31.2049 10.5947 C 31.2049 7.9708 33.7287 6.4969 36.627 6.4969 L 42.3491 6.4969 C 43.1986 6.4969 43.8732 6.9466 43.8732 7.8211 C 43.8786 8.185 43.7294 8.5341 43.4628 8.7818 C 43.1961 9.0295 42.8369 9.1525 42.4744 9.1202 C 41.8413 9.1005 41.2161 8.9738 40.6253 8.7456 L 40.6002 8.7952 C 41.3791 9.3065 41.8339 10.188 41.7992 11.1191 C 41.7992 13.2181 39.9751 14.8173 36.627 14.8173 C 36.46 14.8221 36.2929 14.8137 36.1272 14.7922 C 35.9293 14.9173 35.8074 15.1333 35.8026 15.3672 C 35.8026 15.792 36.1522 15.8671 38.1266 16.2417 C 41.5248 16.8913 43.3739 17.616 43.3739 19.8898 C 43.3739 22.4637 40.9748 24.1124 36.8018 24.1124 C 32.6789 24.1124 30.5804 22.4887 30.5804 20.4147 C 30.5804 19.3148 31.1799 18.2907 32.9789 17.4412 Z M 36.5024 9.1202 C 35.3279 9.1202 34.6031 9.8199 34.6031 10.6693 C 34.6031 11.5438 35.3529 12.2184 36.5023 12.2184 C 37.6267 12.2184 38.3759 11.5438 38.3759 10.6693 C 38.3759 9.8199 37.6768 9.1202 36.5023 9.1202 Z M 35.4275 18.4404 C 34.3282 18.9903 34.0782 19.5898 34.0782 19.9895 C 34.0782 20.8895 35.2026 21.6137 37.0768 21.6137 C 39.1007 21.6137 39.9005 20.7893 39.9005 20.0897 C 39.9005 19.3399 38.976 19.2152 37.1519 18.8406 C 36.5023 18.7154 35.9273 18.5907 35.4275 18.4404 Z " stroke-width="1" fill="#000000" stroke="none"/><path d="M 45.1962 16.0669 L 45.1962 8.2458 C 45.1981 7.2258 46.0254 6.3999 47.0454 6.3999 C 48.0653 6.3999 48.8927 7.2258 48.8945 8.2458 L 48.8945 8.3704 C 49.7188 6.8213 50.6935 6.272 51.8179 6.272 C 52.2877 6.2595 52.7424 6.4389 53.0771 6.7689 C 53.4118 7.0989 53.5976 7.5509 53.5919 8.0209 C 53.6043 8.5063 53.4204 8.9763 53.0818 9.3243 C 52.7432 9.6724 52.2784 9.8691 51.7928 9.87 C 50.6313 9.801 49.5229 10.3646 48.8945 11.344 L 48.8945 16.0669 C 48.8898 17.0903 48.0685 17.9224 47.0454 17.9405 C 46.0184 17.9313 45.192 17.0939 45.1962 16.0669 Z " stroke-width="1" fill="#000000" stroke="none"/><path d="M 60.937 11.0194 L 60.937 10.6944 C 60.937 9.7447 60.3877 9.4202 59.113 9.4202 C 58.5722 9.422 58.0341 9.4977 57.5138 9.6451 C 57.2054 9.741 56.8865 9.7997 56.5642 9.8199 C 56.1712 9.8405 55.7868 9.7004 55.4993 9.4317 C 55.2119 9.163 55.0461 8.7889 55.0401 8.3955 C 55.0253 7.7682 55.405 7.1987 55.9897 6.9711 C 57.1513 6.5119 58.3888 6.2747 59.6379 6.272 C 62.5613 6.272 64.4354 7.6707 64.4354 10.4194 L 64.4354 16.1665 C 64.4507 17.0633 63.7834 17.8255 62.8924 17.9288 C 62.0014 18.032 61.1774 17.4427 60.9872 16.5662 C 60.0409 17.4882 58.7842 18.0231 57.4637 18.0658 C 56.5847 18.1172 55.7236 17.8027 55.0847 17.1968 C 54.4458 16.591 54.086 15.7479 54.0906 14.8674 C 54.0906 13.2432 55.0652 12.3186 56.4395 11.7686 C 57.8948 11.3035 59.4096 11.0511 60.937 11.0194 Z M 60.9371 13.0934 C 60.3376 13.168 59.7626 13.2432 59.1882 13.3678 C 58.0638 13.5927 57.614 13.8927 57.614 14.4176 C 57.614 14.9425 58.0137 15.242 58.6883 15.242 C 59.4974 15.1885 60.2758 14.9118 60.9371 14.4427 Z " stroke-width="1" fill="#000000" stroke="none"/><path d="M 66.5824 12.1689 C 66.5824 9.0701 68.5818 6.272 71.7551 6.272 C 72.8912 6.2335 73.9963 6.6468 74.8282 7.4214 L 74.8282 1.8741 C 74.8193 1.2075 75.1698 0.5878 75.7455 0.2519 C 76.3213 -0.084 77.0333 -0.084 77.6091 0.2519 C 78.1849 0.5878 78.5354 1.2075 78.5264 1.8741 L 78.5264 16.1165 C 78.5436 16.5966 78.3639 17.0629 78.029 17.4073 C 77.694 17.7517 77.2329 17.9443 76.7524 17.9405 C 75.8898 17.9612 75.1437 17.3431 75.0035 16.4916 C 74.2261 17.495 73.0243 18.0774 71.7551 18.0658 C 68.5818 18.0658 66.5823 15.242 66.5824 12.1689 Z M 70.974 10.3167 C 70.5169 10.8211 70.2846 11.4897 70.3307 12.1689 C 70.289 12.8469 70.5227 13.5131 70.979 14.0164 C 71.4352 14.5197 72.0753 14.8175 72.7542 14.8424 C 73.6386 14.8231 74.4385 14.3123 74.8282 13.5181 L 74.8282 10.7445 C 74.4151 9.9822 73.6212 9.5038 72.7542 9.4948 C 72.0738 9.5156 71.4312 9.8123 70.974 10.3167 Z " stroke-width="1" fill="#000000" stroke="none"/><path d="M 80.798 12.1939 C 80.798 8.7206 83.2722 6.272 86.77 6.272 C 88.1413 6.1991 89.4814 6.698 90.4711 7.6499 C 91.4609 8.6017 92.0116 9.9214 91.9923 11.2944 C 92.0262 11.7469 91.8829 12.1948 91.5926 12.5435 C 91.1627 12.9246 90.5874 13.0981 90.0185 13.0183 L 84.4711 13.0183 C 84.8213 14.2178 85.8454 14.8924 87.4947 14.8924 C 87.957 14.8934 88.4179 14.843 88.869 14.7422 C 89.2046 14.6571 89.548 14.6069 89.8938 14.5924 C 90.2769 14.5891 90.6449 14.7416 90.9134 15.0149 C 91.1819 15.2882 91.3278 15.6589 91.3176 16.0419 C 91.3173 16.7123 90.8982 17.311 90.2684 17.5409 C 89.2586 17.9018 88.1924 18.0796 87.1201 18.0658 C 83.5466 18.0658 80.798 15.7669 80.798 12.1939 Z M 84.4216 10.8942 L 88.8189 10.8942 C 88.8087 10.3539 88.5739 9.8422 88.171 9.482 C 87.7682 9.1218 87.2335 8.9455 86.6954 8.9955 C 85.5597 8.9428 84.5723 9.7673 84.4216 10.8942 Z " stroke-width="1" fill="#000000" stroke="none"/><path d="M 7.2912 79.5084 C 7.2912 80.571 6.4298 81.4323 5.3672 81.4323 C 4.3046 81.4323 3.4432 80.571 3.4432 79.5084 L 3.4432 66.2401 C 3.4267 65.7378 3.6137 65.2502 3.9619 64.8879 C 4.3101 64.5256 4.7898 64.3193 5.2923 64.3158 L 12.239 64.3158 C 12.852 64.307 13.4221 64.629 13.7312 65.1584 C 14.0402 65.6878 14.0402 66.3426 13.7312 66.872 C 13.4221 67.4014 12.852 67.7234 12.239 67.7146 L 7.2912 67.7146 L 7.2912 71.6872 L 11.5393 71.6872 C 12.1344 71.6784 12.688 71.9908 12.9881 72.5047 C 13.2882 73.0186 13.2882 73.6543 12.9881 74.1683 C 12.688 74.6822 12.1344 74.9946 11.5393 74.9858 L 7.2912 74.9858 L 7.2912 79.5084 Z " stroke-width="1" fill="#000000" stroke="none"/><path d="M 16.3001 67.5421 C 15.9323 67.179 15.7283 66.6817 15.7351 66.1649 C 15.7353 65.1055 16.5917 64.2456 17.6511 64.2411 C 18.7104 64.2365 19.5742 65.0892 19.5833 66.1485 C 19.5925 67.2078 18.7437 68.0753 17.6844 68.0891 C 17.1678 68.1027 16.6679 67.9052 16.3001 67.5421 Z " stroke-width="1" fill="#000000" stroke="none"/><path d="M 19.5336 71.7373 L 19.5336 79.5585 C 19.5423 80.2249 19.1918 80.8445 18.6161 81.1803 C 18.0404 81.516 17.3285 81.516 16.7528 81.1803 C 16.1771 80.8445 15.8265 80.2249 15.8353 79.5585 L 15.8353 71.7373 C 15.8505 70.7224 16.6696 69.9034 17.6844 69.8882 C 18.703 69.8947 19.527 70.7188 19.5336 71.7373 Z " stroke-width="1" fill="#000000" stroke="none"/><path d="M 25.9793 71.7373 L 25.9793 71.862 C 26.8036 70.3129 27.7783 69.7635 28.9026 69.7635 C 29.3725 69.751 29.8271 69.9305 30.1618 70.2604 C 30.4965 70.5904 30.6824 71.0425 30.6766 71.5124 C 30.6891 71.9979 30.5052 72.4678 30.1666 72.8159 C 29.8279 73.1639 29.3632 73.3607 28.8776 73.3615 C 27.716 73.2925 26.6077 73.8562 25.9793 74.8355 L 25.9793 79.5585 C 25.988 80.2249 25.6375 80.8445 25.0618 81.1802 C 24.4861 81.516 23.7742 81.516 23.1985 81.1802 C 22.6227 80.8445 22.2722 80.2249 22.281 79.5585 L 22.281 71.7373 C 22.2798 71.2465 22.4743 70.7755 22.8213 70.4285 C 23.1683 70.0814 23.6394 69.887 24.1301 69.8882 C 25.1487 69.8945 25.9729 70.7187 25.9792 71.7373 Z " stroke-width="1" fill="#000000" stroke="none"/><path d="M 40.5707 76.5098 L 35.0233 76.5098 C 35.3735 77.7094 36.3976 78.384 38.0469 78.384 C 38.5092 78.3849 38.9701 78.3345 39.4212 78.2337 C 39.7567 78.1486 40.1002 78.0984 40.446 78.0839 C 40.8291 78.0806 41.1971 78.2331 41.4656 78.5065 C 41.7341 78.7798 41.88 79.1504 41.8698 79.5334 C 41.8695 80.2038 41.4504 80.8026 40.8206 81.0324 C 39.8108 81.3933 38.7446 81.5711 37.6723 81.5573 C 34.0988 81.5573 31.3502 79.2584 31.3502 75.6855 C 31.3502 72.2121 33.8244 69.7635 37.3222 69.7635 C 38.6935 69.6906 40.0336 70.1895 41.0233 71.1414 C 42.0131 72.0933 42.5638 73.4129 42.5445 74.786 C 42.5784 75.2384 42.4351 75.6863 42.1448 76.035 C 41.7149 76.4161 41.1396 76.5897 40.5707 76.5098 Z M 39.3711 74.3857 C 39.3608 73.8454 39.1261 73.3337 38.7232 72.9735 C 38.3203 72.6133 37.7857 72.4371 37.2476 72.4871 C 36.1119 72.4344 35.1245 73.2589 34.9738 74.3857 Z " stroke-width="1" fill="#000000" stroke="none"/><path d="M 56.6599 81.5573 C 55.5867 81.6159 54.543 81.1948 53.811 80.4078 L 53.811 85.7303 C 53.82 86.3967 53.4696 87.0164 52.8939 87.3522 C 52.3181 87.688 51.6063 87.688 51.0306 87.3522 C 50.4549 87.0164 50.1045 86.3967 50.1134 85.7303 L 50.1134 71.7122 C 50.089 70.7563 50.8248 69.9522 51.7791 69.8917 C 52.7334 69.8312 53.5648 70.536 53.6613 71.4873 C 54.3504 70.4033 55.5502 69.7516 56.8346 69.7635 C 59.8833 69.7635 61.9573 72.437 61.9573 75.6604 C 61.9573 78.6339 59.9584 81.5573 56.6599 81.5573 Z M 55.8355 78.3339 C 57.2098 78.3339 58.2089 77.1343 58.2089 75.6604 C 58.2089 74.1608 57.2098 72.9864 55.8605 72.9864 C 54.9739 73.0245 54.1829 73.5549 53.811 74.3607 L 53.811 77.0598 C 54.1912 77.8326 54.9743 78.3254 55.8355 78.3339 Z " stroke-width="1" fill="#000000" stroke="none"/><path d="M 75.7727 75.6103 C 75.6903 78.9183 72.985 81.5571 69.676 81.5571 C 66.3669 81.5571 63.6616 78.9183 63.5792 75.6103 C 63.5792 72.1369 66.3273 69.7635 69.676 69.7635 C 73.0491 69.7635 75.7727 72.1369 75.7727 75.6103 Z M 72.0249 75.6103 C 72.0249 73.8113 70.8755 72.9118 69.676 72.9118 C 68.4764 72.9118 67.327 73.8113 67.327 75.6103 C 67.327 77.4344 68.4764 78.409 69.676 78.409 C 70.8755 78.409 72.0249 77.4344 72.0249 75.6103 Z " stroke-width="1" fill="#000000" stroke="none"/><path d="M 87.7151 79.908 C 87.3154 78.9834 86.4404 76.7848 85.7657 75.0353 C 85.1412 76.7848 84.3168 78.9834 83.9918 79.908 C 83.7659 80.8116 82.9493 81.4421 82.018 81.432 C 81.1435 81.432 80.4934 81.0073 80.0436 79.8579 L 77.0206 72.5115 C 76.8949 72.2367 76.8267 71.9392 76.8202 71.6371 C 76.8469 70.6627 77.645 69.887 78.6198 69.8882 C 79.401 69.8868 80.1041 70.3621 80.3938 71.0877 C 81.0876 72.8625 81.688 74.6723 82.1928 76.5098 L 82.2429 76.5098 C 82.5674 75.6854 83.517 72.9619 84.3169 71.0125 C 84.546 70.3279 85.1942 69.8721 85.916 69.8882 C 86.6798 69.8607 87.3708 70.3384 87.6149 71.0627 C 88.4147 73.0364 89.3888 75.7851 89.6889 76.5098 L 89.739 76.5098 C 89.9889 75.7099 90.5633 73.4116 91.4879 71.0627 C 91.7692 70.2521 92.5974 69.7657 93.4424 69.9147 C 94.2873 70.0638 94.8991 70.8042 94.8861 71.6621 C 94.8813 71.9699 94.8221 72.2745 94.7113 72.5617 L 91.6877 79.9581 C 91.263 80.9823 90.6134 81.4321 89.739 81.4321 C 88.7893 81.4321 88.1899 81.0073 87.7151 79.908 Z " stroke-width="1" fill="#000000" stroke="none"/><path d="M 105.2287 76.5098 L 99.6813 76.5098 C 100.0315 77.7094 101.0557 78.384 102.7049 78.384 C 103.1672 78.3849 103.6281 78.3345 104.0792 78.2337 C 104.4148 78.1486 104.7582 78.0984 105.104 78.0839 C 105.4871 78.0806 105.8551 78.2331 106.1236 78.5065 C 106.3921 78.7798 106.538 79.1504 106.5278 79.5334 C 106.5275 80.2038 106.1084 80.8025 105.4786 81.0324 C 104.4688 81.3933 103.4026 81.5711 102.3303 81.5573 C 98.7568 81.5573 96.0082 79.2584 96.0082 75.6854 C 96.0082 72.2121 98.4824 69.7635 101.9802 69.7635 C 103.3515 69.6906 104.6916 70.1895 105.6813 71.1414 C 106.6711 72.0932 107.2218 73.4129 107.2025 74.7859 C 107.2364 75.2384 107.0931 75.6863 106.8028 76.035 C 106.3729 76.4161 105.7976 76.5896 105.2287 76.5098 Z M 104.0292 74.3857 C 104.0189 73.8454 103.7841 73.3337 103.3813 72.9735 C 102.9784 72.6133 102.4438 72.4371 101.9056 72.4871 C 100.77 72.4344 99.7826 73.2589 99.6318 74.3857 Z " stroke-width="1" fill="#000000" stroke="none"/><path d="M 113.0481 74.8355 L 113.0481 79.5585 C 113.0569 80.2249 112.7064 80.8445 112.1307 81.1802 C 111.5549 81.516 110.8431 81.516 110.2673 81.1802 C 109.6916 80.8445 109.3411 80.2249 109.3499 79.5585 L 109.3499 71.7373 C 109.3499 70.7161 110.1778 69.8882 111.199 69.8882 C 112.2202 69.8882 113.0481 70.7161 113.0481 71.7373 L 113.0481 71.862 C 113.8725 70.3129 114.8471 69.7635 115.9715 69.7635 C 116.4414 69.751 116.896 69.9305 117.2307 70.2604 C 117.5654 70.5904 117.7513 71.0425 117.7455 71.5124 C 117.7579 71.9979 117.574 72.4678 117.2354 72.8159 C 116.8968 73.1639 116.4321 73.3606 115.9465 73.3615 C 114.7849 73.2925 113.6766 73.8561 113.0481 74.8355 Z " stroke-width="1" fill="#000000" stroke="none"/><path d="M 4.9809 102.8067 C 4.9809 97.6095 8.9535 94.0861 13.8012 94.0861 C 15.1418 94.0535 16.473 94.3181 17.6993 94.8609 C 18.699 95.3858 19.1988 95.9352 19.1988 96.8102 C 19.1984 97.2231 19.0307 97.6183 18.734 97.9055 C 18.4373 98.1926 18.0368 98.3473 17.6241 98.3342 C 17.16 98.3117 16.7071 98.1836 16.2999 97.9596 C 15.5454 97.6257 14.7262 97.4635 13.9014 97.4848 C 10.6279 97.4848 8.9786 100.0581 8.9786 102.8067 C 8.9786 105.5303 10.6279 108.0791 13.8513 108.0791 C 14.7102 108.0909 15.5618 107.9206 16.35 107.5792 C 16.8223 107.2943 17.3508 107.1154 17.8991 107.0549 C 18.3235 107.0389 18.7357 107.1988 19.0384 107.4968 C 19.3411 107.7947 19.5075 108.2044 19.4983 108.629 C 19.4874 109.2219 19.2012 109.776 18.724 110.128 C 17.9492 110.7776 16.2999 111.5775 13.8513 111.5775 C 8.8038 111.5775 4.9809 108.054 4.9809 102.8067 Z " stroke-width="1" fill="#000000" stroke="none"/><path d="M 22.5007 109.904 C 21.3498 108.7815 20.7067 107.2381 20.72 105.6305 C 20.72 102.1571 23.4686 99.7837 26.8173 99.7837 C 30.1905 99.7837 32.914 102.1571 32.914 105.6305 C 32.9316 107.2393 32.2899 108.7851 31.1382 109.9085 C 29.9865 111.032 28.4252 111.635 26.8173 111.5775 C 25.2106 111.6309 23.6516 111.0265 22.5007 109.904 Z M 24.4684 105.6305 C 24.4684 107.4546 25.6178 108.4292 26.8173 108.4292 C 28.0169 108.4292 29.1663 107.4546 29.1663 105.6305 C 29.1663 103.8315 28.0169 102.932 26.8173 102.932 C 25.6178 102.932 24.4683 103.8315 24.4684 105.6305 Z " stroke-width="1" fill="#000000" stroke="none"/><path d="M 38.7847 101.7575 L 38.7847 109.5787 C 38.7935 110.2451 38.443 110.8647 37.8673 111.2004 C 37.2915 111.5362 36.5797 111.5362 36.0039 111.2004 C 35.4282 110.8647 35.0777 110.2451 35.0865 109.5787 L 35.0865 101.7575 C 35.1017 100.7426 35.9207 99.9236 36.9356 99.9084 C 37.9541 99.9149 38.7781 100.739 38.7847 101.7575 Z " stroke-width="1" fill="#000000" stroke="none"/><path d="M 38.3147 94.8132 C 38.6814 95.1753 38.8868 95.6698 38.8843 96.1851 C 38.8845 97.2446 38.0281 98.1049 36.9686 98.1095 C 35.9091 98.1141 35.0452 97.2613 35.0361 96.2019 C 35.0271 95.1424 35.8762 94.275 36.9356 94.2614 C 37.4508 94.2523 37.948 94.4512 38.3147 94.8132 Z " stroke-width="1" fill="#000000" stroke="none"/><path d="M 52.3769 109.5786 C 52.3857 110.245 52.0352 110.8647 51.4595 111.2004 C 50.8838 111.5362 50.1719 111.5362 49.5962 111.2004 C 49.0205 110.8647 48.6699 110.2451 48.6787 109.5786 L 48.6787 104.731 C 48.6787 103.7062 48.2785 102.9319 47.1541 102.9319 C 46.2967 102.9668 45.5414 103.5064 45.2304 104.3063 L 45.2304 109.5786 C 45.2392 110.245 44.8887 110.8647 44.313 111.2004 C 43.7372 111.5362 43.0254 111.5362 42.4496 111.2004 C 41.8739 110.8647 41.5234 110.2451 41.5322 109.5786 L 41.5322 101.7575 C 41.531 101.2667 41.7254 100.7957 42.0725 100.4486 C 42.4195 100.1016 42.8905 99.9072 43.3813 99.9084 C 44.2829 99.9184 45.0494 100.5694 45.2054 101.4575 C 46.0113 100.409 47.2561 99.7913 48.5785 99.7837 C 50.5774 99.7837 52.3769 101.1079 52.3769 103.8816 L 52.3769 109.5787 Z " stroke-width="1" fill="#000000" stroke="none"/><path d="M 59.4711 111.5775 C 58.1382 111.587 56.8183 111.3144 55.5981 110.7776 C 54.9609 110.5479 54.5262 109.9554 54.4982 109.2786 C 54.4814 108.9112 54.6165 108.5531 54.8718 108.2884 C 55.1272 108.0236 55.4803 107.8757 55.848 107.8793 C 56.3926 107.9329 56.9245 108.0764 57.4222 108.304 C 58.0649 108.529 58.7401 108.6473 59.421 108.6541 C 60.4452 108.6541 60.8454 108.4292 60.8454 108.0541 C 60.8454 107.5297 59.971 107.3544 58.5215 106.9297 C 56.2477 106.255 54.7236 105.5052 54.7236 103.4068 C 54.7236 101.3328 56.3228 99.7837 59.421 99.7837 C 60.5612 99.788 61.6927 99.9821 62.7691 100.3581 C 63.4466 100.5312 63.9265 101.1336 63.9436 101.8326 C 63.9802 102.2076 63.8576 102.5807 63.6058 102.861 C 63.354 103.1413 62.9961 103.3029 62.6194 103.3066 C 62.1592 103.2614 61.7061 103.1607 61.2701 103.0066 C 60.6686 102.8335 60.0468 102.7413 59.421 102.7322 C 58.5465 102.7322 58.1469 102.932 58.1469 103.3066 C 58.1469 103.7814 58.7464 103.9311 60.6205 104.4811 C 62.6194 105.0555 64.2687 105.7552 64.2687 107.9043 C 64.2687 110.078 62.5693 111.5775 59.4711 111.5775 Z " stroke-width="1" fill="#000000" stroke="none"/><path d="M 21.6391 126.2704 C 23.3054 127.9224 24.2229 130.1844 24.1785 132.5303 C 24.1785 137.7031 20.2304 141.2761 15.3577 141.2761 C 10.4605 141.2761 6.5123 137.7031 6.5123 132.5303 C 6.5123 127.3832 10.4605 123.7846 15.3577 123.7846 C 17.7032 123.7201 19.9729 124.6183 21.6391 126.2704 Z M 20.1803 132.5303 C 20.1803 129.2073 17.9566 127.2329 15.3577 127.2329 C 12.7594 127.2329 10.51 129.2073 10.51 132.5303 C 10.51 135.854 12.7594 137.8277 15.3577 137.8277 C 17.9566 137.8277 20.1803 135.8539 20.1803 132.5303 Z " stroke-width="1" fill="#000000" stroke="none"/><path d="M 47.2891 128.6072 L 47.2891 139.2772 C 47.2978 139.9436 46.9473 140.5632 46.3716 140.899 C 45.7959 141.2348 45.084 141.2348 44.5083 140.899 C 43.9326 140.5632 43.582 139.9436 43.5908 139.2772 L 43.5908 128.7325 C 43.5908 127.6582 43.0659 126.4587 41.3922 126.4587 C 39.7178 126.4587 39.1929 127.6582 39.1929 128.7325 L 39.1929 129.7071 L 40.7175 129.7071 C 41.5633 129.7209 42.2417 130.4104 42.2417 131.2562 C 42.2417 132.1021 41.5633 132.7916 40.7175 132.8053 L 39.1929 132.8053 L 39.1929 139.2772 C 39.2017 139.9436 38.8512 140.5632 38.2755 140.899 C 37.6997 141.2348 36.9879 141.2348 36.4121 140.899 C 35.8364 140.5632 35.4859 139.9436 35.4947 139.2772 L 35.4947 128.6072 C 35.4947 125.9838 37.2692 123.2102 41.3921 123.2102 C 45.5151 123.2102 47.289 125.9838 47.289 128.6072 Z " stroke-width="1" fill="#000000" stroke="none"/><path d="M 35.2698 125.184 C 35.279 126.0515 34.5881 126.7648 33.7207 126.7832 C 33.403 126.7727 33.0898 126.705 32.7962 126.5833 C 32.5562 126.4931 32.3032 126.4425 32.047 126.4336 C 31.4219 126.4336 31.0974 126.8082 31.0974 127.4828 L 31.0974 129.7071 L 32.6214 129.7071 C 33.4671 129.7209 34.1455 130.4104 34.1455 131.2562 C 34.1455 132.1021 33.4671 132.7916 32.6214 132.8053 L 31.0974 132.8053 L 31.0974 139.2772 C 31.1061 139.9436 30.7556 140.5632 30.1799 140.899 C 29.6042 141.2348 28.8923 141.2348 28.3166 140.899 C 27.7408 140.5632 27.3903 139.9436 27.3991 139.2772 L 27.3991 132.8053 L 27.1993 132.8053 C 26.3438 132.8053 25.6502 132.1118 25.6502 131.2562 C 25.6502 130.4007 26.3437 129.7071 27.1993 129.7071 L 27.3991 129.7071 L 27.3991 127.5079 C 27.3991 125.1344 28.8731 123.11 31.9217 123.11 C 32.5505 123.1054 33.1757 123.2069 33.7708 123.41 C 34.6202 123.7351 35.2698 124.2594 35.2698 125.184 Z " stroke-width="1" fill="#000000" stroke="none"/><path d="M 53.3126 124.5118 C 53.6793 124.8738 53.8847 125.3683 53.8822 125.8837 C 53.8824 126.9432 53.026 127.8034 51.9665 127.8081 C 50.907 127.8127 50.0431 126.9599 50.034 125.9004 C 50.0249 124.841 50.8741 123.9735 51.9335 123.96 C 52.4487 123.9508 52.9459 124.1498 53.3126 124.5118 Z " stroke-width="1" fill="#000000" stroke="none"/><path d="M 53.7826 131.456 L 53.7826 139.2772 C 53.7914 139.9436 53.4409 140.5632 52.8651 140.899 C 52.2894 141.2348 51.5776 141.2348 51.0018 140.899 C 50.4261 140.5632 50.0756 139.9436 50.0844 139.2772 L 50.0844 131.456 C 50.0995 130.4412 50.9186 129.6221 51.9335 129.6069 C 52.952 129.6135 53.776 130.4375 53.7826 131.456 Z " stroke-width="1" fill="#000000" stroke="none"/><path d="M 67.3748 133.5801 L 67.3748 139.2772 C 67.3836 139.9436 67.0331 140.5632 66.4574 140.8989 C 65.8816 141.2347 65.1698 141.2347 64.594 140.8989 C 64.0183 140.5632 63.6678 139.9436 63.6766 139.2772 L 63.6766 134.4295 C 63.6766 133.4047 63.2764 132.6305 62.152 132.6305 C 61.2945 132.6654 60.5393 133.205 60.2283 134.0048 L 60.2283 139.2772 C 60.2371 139.9436 59.8865 140.5632 59.3108 140.899 C 58.7351 141.2347 58.0232 141.2347 57.4475 140.899 C 56.8718 140.5632 56.5213 139.9436 56.53 139.2772 L 56.53 131.456 C 56.5288 130.9652 56.7233 130.4942 57.0703 130.1472 C 57.4174 129.8001 57.8884 129.6057 58.3792 129.6069 C 59.2808 129.617 60.0472 130.2679 60.2032 131.156 C 61.0091 130.1075 62.254 129.4898 63.5764 129.4822 C 65.5752 129.4822 67.3748 130.8064 67.3748 133.5801 Z " stroke-width="1" fill="#000000" stroke="none"/><path d="M 79.1948 130.8601 C 80.1846 131.812 80.7353 133.1316 80.716 134.5047 C 80.7499 134.9571 80.6066 135.405 80.3163 135.7537 C 79.8864 136.1348 79.3111 136.3084 78.7422 136.2285 L 73.1949 136.2285 C 73.545 137.4281 74.5692 138.1027 76.2184 138.1027 C 76.6807 138.1036 77.1416 138.0532 77.5928 137.9524 C 77.9283 137.8673 78.2717 137.8171 78.6175 137.8027 C 79.0006 137.7994 79.3686 137.9519 79.6371 138.2252 C 79.9056 138.4985 80.0515 138.8692 80.0413 139.2521 C 80.041 139.9225 79.6219 140.5213 78.9921 140.7511 C 77.9823 141.1121 76.9161 141.2898 75.8439 141.276 C 72.2703 141.276 69.5217 138.9772 69.5217 135.4042 C 69.5217 131.9309 71.9959 129.4823 75.4937 129.4823 C 76.865 129.4094 78.2051 129.9083 79.1948 130.8601 Z M 77.5426 134.1045 C 77.5324 133.5641 77.2976 133.0525 76.8947 132.6923 C 76.4919 132.332 75.9572 132.1558 75.4191 132.2058 C 74.2835 132.1531 73.2961 132.9776 73.1453 134.1045 Z " stroke-width="1" fill="#000000" stroke="none"/><path d="M 97.333 130.8601 C 98.3227 131.812 98.8735 133.1316 98.8542 134.5047 C 98.8881 134.9571 98.7448 135.405 98.4545 135.7537 C 98.0246 136.1348 97.4493 136.3084 96.8804 136.2285 L 91.333 136.2285 C 91.6831 137.4281 92.7073 138.1027 94.3566 138.1027 C 94.8189 138.1036 95.2798 138.0532 95.7309 137.9524 C 96.0664 137.8673 96.4098 137.8171 96.7557 137.8027 C 97.1388 137.7994 97.5068 137.9519 97.7753 138.2252 C 98.0437 138.4985 98.1896 138.8692 98.1795 139.2521 C 98.1792 139.9225 97.76 140.5213 97.1303 140.7511 C 96.1205 141.1121 95.0543 141.2898 93.982 141.276 C 90.4085 141.276 87.6598 138.9772 87.6598 135.4042 C 87.6598 131.9308 90.1341 129.4822 93.6319 129.4822 C 95.0031 129.4093 96.3432 129.9082 97.333 130.8601 Z M 95.6808 134.1045 C 95.6705 133.5641 95.4358 133.0525 95.0329 132.6923 C 94.6301 132.332 94.0954 132.1558 93.5573 132.2058 C 92.4216 132.1531 91.4342 132.9776 91.2835 134.1044 Z " stroke-width="1" fill="#000000" stroke="none"/><path d="M 110.5215 133.6296 L 110.5215 139.3768 C 110.5368 140.2736 109.8694 141.0358 108.9785 141.1391 C 108.0875 141.2424 107.2634 140.653 107.0732 139.7765 C 106.127 140.6984 104.8702 141.2333 103.5498 141.276 C 102.6708 141.3274 101.8097 141.0129 101.1708 140.4071 C 100.5318 139.8013 100.172 138.9581 100.1766 138.0776 C 100.1766 136.4534 101.1513 135.5289 102.5256 134.9789 C 103.9808 134.5137 105.4957 134.2614 107.0231 134.2297 L 107.0231 133.9046 C 107.0231 132.955 106.4737 132.6305 105.1991 132.6305 C 104.6582 132.6323 104.1202 132.7079 103.5999 132.8554 C 103.2914 132.9512 102.9726 133.0099 102.6503 133.0302 C 102.2573 133.0508 101.8729 132.9106 101.5854 132.6419 C 101.298 132.3733 101.1322 131.9992 101.1262 131.6058 C 101.1115 130.9784 101.4911 130.409 102.0758 130.1814 C 103.2374 129.7222 104.4749 129.485 105.724 129.4822 C 108.6474 129.4822 110.5215 130.881 110.5215 133.6296 Z M 107.0232 136.3037 C 106.4237 136.3783 105.8487 136.4534 105.2742 136.5781 C 104.1499 136.803 103.7001 137.103 103.7001 137.6279 C 103.7001 138.1528 104.0998 138.4523 104.7744 138.4523 C 105.5834 138.3987 106.3618 138.122 107.0232 137.653 Z " stroke-width="1" fill="#000000" stroke="none"/><path d="M 121.0997 129.9792 C 121.4344 130.3091 121.6203 130.7612 121.6145 131.2312 C 121.627 131.7166 121.4431 132.1865 121.1045 132.5346 C 120.7658 132.8826 120.3011 133.0794 119.8155 133.0803 C 118.6539 133.0113 117.5456 133.5749 116.9172 134.5542 L 116.9172 139.2772 C 116.9259 139.9436 116.5754 140.5632 115.9997 140.899 C 115.424 141.2347 114.7121 141.2347 114.1364 140.899 C 113.5607 140.5632 113.2101 139.9436 113.2189 139.2772 L 113.2189 131.456 C 113.2189 130.4348 114.0468 129.6069 115.068 129.6069 C 116.0893 129.6069 116.9171 130.4348 116.9171 131.456 L 116.9171 131.5807 C 117.7415 130.0316 118.7161 129.4822 119.8405 129.4822 C 120.3104 129.4698 120.765 129.6492 121.0997 129.9792 Z " stroke-width="1" fill="#000000" stroke="none"/><path d="M 133.9822 133.5801 L 133.9822 139.2772 C 133.991 139.9436 133.6404 140.5632 133.0647 140.8989 C 132.489 141.2347 131.7771 141.2347 131.2014 140.8989 C 130.6257 140.5632 130.2752 139.9436 130.2839 139.2772 L 130.2839 134.4295 C 130.2839 133.4047 129.8837 132.6305 128.7593 132.6305 C 127.9019 132.6654 127.1466 133.205 126.8356 134.0048 L 126.8356 139.2772 C 126.8444 139.9436 126.4939 140.5632 125.9182 140.899 C 125.3425 141.2347 124.6306 141.2347 124.0549 140.899 C 123.4791 140.5632 123.1286 139.9436 123.1374 139.2772 L 123.1374 131.456 C 123.1362 130.9652 123.3306 130.4942 123.6777 130.1472 C 124.0247 129.8001 124.4957 129.6057 124.9865 129.6069 C 125.8881 129.617 126.6546 130.2679 126.8106 131.156 C 127.6165 130.1075 128.8613 129.4898 130.1837 129.4822 C 132.1826 129.4822 133.9822 130.8064 133.9822 133.5801 Z " stroke-width="1" fill="#000000" stroke="none"/><path d="M 140.3766 131.456 L 140.3766 139.2772 C 140.3854 139.9436 140.0349 140.5632 139.4592 140.899 C 138.8835 141.2348 138.1716 141.2348 137.5959 140.899 C 137.0201 140.5632 136.6696 139.9436 136.6784 139.2772 L 136.6784 131.456 C 136.6936 130.4412 137.5126 129.6221 138.5275 129.6069 C 139.546 129.6135 140.3701 130.4375 140.3766 131.456 Z " stroke-width="1" fill="#000000" stroke="none"/><path d="M 139.9066 124.5118 C 140.2734 124.8738 140.4787 125.3683 140.4763 125.8837 C 140.4764 126.9432 139.62 127.8034 138.5605 127.8081 C 137.501 127.8127 136.6372 126.9599 136.6281 125.9005 C 136.619 124.841 137.4681 123.9735 138.5275 123.96 C 139.0427 123.9508 139.5399 124.1498 139.9066 124.5118 Z " stroke-width="1" fill="#000000" stroke="none"/><path d="M 153.9689 133.5801 L 153.9689 139.2772 C 153.9777 139.9436 153.6271 140.5632 153.0514 140.8989 C 152.4757 141.2347 151.7638 141.2347 151.1881 140.8989 C 150.6124 140.5632 150.2619 139.9436 150.2706 139.2772 L 150.2706 134.4295 C 150.2706 133.4047 149.8704 132.6305 148.746 132.6305 C 147.8886 132.6654 147.1333 133.205 146.8223 134.0048 L 146.8223 139.2772 C 146.8311 139.9436 146.4806 140.5632 145.9049 140.899 C 145.3292 141.2347 144.6173 141.2347 144.0416 140.899 C 143.4658 140.5632 143.1153 139.9436 143.1241 139.2772 L 143.1241 131.456 C 143.1229 130.9652 143.3173 130.4942 143.6644 130.1472 C 144.0114 129.8001 144.4824 129.6057 144.9732 129.6069 C 145.8748 129.617 146.6413 130.2679 146.7973 131.156 C 147.6032 130.1075 148.848 129.4898 150.1704 129.4822 C 152.1693 129.4822 153.9689 130.8064 153.9689 133.5801 Z " stroke-width="1" fill="#000000" stroke="none"/><path d="M 168.9092 131.0313 C 168.9146 131.3952 168.7655 131.7444 168.4988 131.9921 C 168.2321 132.2397 167.873 132.3627 167.5104 132.3305 C 166.8774 132.3107 166.2522 132.1841 165.6613 131.9559 L 165.6362 132.0054 C 166.4152 132.5168 166.8699 133.3982 166.8352 134.3293 C 166.8352 136.4284 165.0111 138.0276 161.663 138.0276 C 161.496 138.0323 161.3289 138.024 161.1632 138.0025 C 160.9654 138.1275 160.8435 138.3435 160.8387 138.5775 C 160.8387 139.0022 161.1882 139.0774 163.1626 139.452 C 166.5608 140.1016 168.4099 140.8263 168.4099 143.1001 C 168.4099 145.6739 166.0109 147.3227 161.8378 147.3227 C 157.7149 147.3227 155.6164 145.699 155.6164 143.625 C 155.6164 142.5251 156.2159 141.5009 158.0149 140.6515 C 157.5276 140.331 157.2359 139.7853 157.2401 139.202 C 157.2401 138.3777 157.6898 137.8277 158.5649 137.403 C 157.1369 136.7805 156.2211 135.3627 156.241 133.805 C 156.241 131.1811 158.7647 129.7071 161.6631 129.7071 L 167.3852 129.7071 C 168.2346 129.7071 168.9092 130.1569 168.9092 131.0313 Z M 160.4636 141.6506 C 159.3642 142.2006 159.1143 142.8001 159.1143 143.1997 C 159.1143 144.0998 160.2387 144.824 162.1129 144.824 C 164.1367 144.824 164.9366 143.9996 164.9366 143.2999 C 164.9366 142.5502 164.0121 142.4255 162.188 142.0509 C 161.5384 141.9256 160.9634 141.801 160.4636 141.6506 Z M 163.412 133.8796 C 163.412 133.0302 162.7129 132.3305 161.5384 132.3305 C 160.3639 132.3305 159.6392 133.0302 159.6392 133.8796 C 159.6392 134.754 160.3889 135.4287 161.5384 135.4287 C 162.6628 135.4287 163.412 134.754 163.412 133.8796 Z " stroke-width="1" fill="#000000" stroke="none"/><path d="M 179.3276 137.6029 C 179.3276 139.7765 177.6282 141.276 174.53 141.276 C 173.1971 141.2855 171.8772 141.0129 170.657 140.4762 C 170.0199 140.2464 169.5854 139.6538 169.5577 138.9772 C 169.5407 138.6098 169.6757 138.2517 169.931 137.987 C 170.1862 137.7222 170.5392 137.5742 170.9069 137.5778 C 171.4515 137.6315 171.9834 137.775 172.4811 138.0025 C 173.1238 138.2276 173.799 138.3458 174.4799 138.3526 C 175.5041 138.3526 175.9043 138.1278 175.9043 137.7526 C 175.9043 137.2283 175.0299 137.0529 173.5804 136.6282 C 171.3066 135.9536 169.7825 135.2038 169.7825 133.1053 C 169.7825 131.0313 171.3817 129.4822 174.4799 129.4822 C 175.6201 129.4865 176.7516 129.6807 177.828 130.0567 C 178.5055 130.2297 178.9854 130.8321 179.0025 131.5312 C 179.0391 131.9062 178.9165 132.2793 178.6647 132.5595 C 178.4129 132.8398 178.055 133.0015 177.6783 133.0051 C 177.2181 132.9599 176.765 132.8592 176.329 132.7051 C 175.7275 132.5321 175.1057 132.4398 174.4799 132.4307 C 173.6055 132.4307 173.2058 132.6305 173.2058 133.0051 C 173.2058 133.4799 173.8053 133.6297 175.6795 134.1796 C 177.6783 134.754 179.3276 135.4537 179.3276 137.6029 Z " stroke-width="1" fill="#000000" stroke="none"/><g><path d="M 7.2912 39.8162 L 7.2912 43.7888 L 11.5393 43.7888 C 12.1344 43.78 12.688 44.0924 12.9881 44.6063 C 13.2882 45.1202 13.2882 45.756 12.9881 46.2699 C 12.688 46.7838 12.1344 47.0962 11.5393 47.0874 L 7.2912 47.0874 L 7.2912 51.61 C 7.2912 52.6726 6.4298 53.534 5.3672 53.534 C 4.3046 53.534 3.4432 52.6726 3.4432 51.61 L 3.4432 38.3417 C 3.4267 37.8394 3.6137 37.3518 3.9619 36.9895 C 4.3101 36.6272 4.7898 36.4209 5.2923 36.4174 L 12.239 36.4174 C 12.852 36.4086 13.4221 36.7306 13.7312 37.26 C 14.0402 37.7894 14.0402 38.4442 13.7312 38.9736 C 13.4221 39.503 12.852 39.825 12.239 39.8162 Z " stroke-width="1" fill="#000000" stroke="none"/><path d="M 19.5336 43.8389 L 19.5336 51.6601 C 19.5423 52.3265 19.1918 52.9461 18.6161 53.2818 C 18.0404 53.6176 17.3285 53.6176 16.7528 53.2818 C 16.1771 52.9461 15.8265 52.3265 15.8353 51.6601 L 15.8353 43.8389 C 15.8505 42.824 16.6696 42.005 17.6844 41.9898 C 18.703 41.9963 19.527 42.8204 19.5336 43.8389 Z " stroke-width="1" fill="#000000" stroke="none"/><path d="M 16.3001 39.6437 C 15.9323 39.2806 15.7283 38.7833 15.7351 38.2665 C 15.7353 37.2072 16.5917 36.3472 17.6511 36.3427 C 18.7104 36.3382 19.5742 37.1908 19.5834 38.2501 C 19.5925 39.3095 18.7437 40.1769 17.6845 40.1908 C 17.1678 40.2044 16.6679 40.0068 16.3001 39.6437 Z " stroke-width="1" fill="#000000" stroke="none"/><path d="M 28.9026 41.8651 C 29.3725 41.8527 29.8271 42.0321 30.1618 42.3621 C 30.4965 42.692 30.6824 43.1441 30.6766 43.614 C 30.6891 44.0995 30.5052 44.5694 30.1666 44.9175 C 29.8279 45.2655 29.3632 45.4623 28.8776 45.4632 C 27.716 45.3941 26.6077 45.9578 25.9793 46.9371 L 25.9793 51.6601 C 25.988 52.3265 25.6375 52.9461 25.0618 53.2819 C 24.4861 53.6176 23.7742 53.6176 23.1985 53.2819 C 22.6227 52.9461 22.2722 52.3265 22.281 51.6601 L 22.281 43.8389 C 22.2798 43.1775 22.632 42.5658 23.2046 42.2348 C 23.7772 41.9038 24.483 41.9038 25.0556 42.2348 C 25.6282 42.5658 25.9804 43.1775 25.9792 43.8389 L 25.9792 43.9636 C 26.8036 42.4145 27.7782 41.8651 28.9026 41.8651 Z " stroke-width="1" fill="#000000" stroke="none"/><path d="M 41.0233 43.243 C 42.013 44.1949 42.5638 45.5145 42.5444 46.8876 C 42.5784 47.34 42.4351 47.7879 42.1448 48.1366 C 41.7149 48.5177 41.1396 48.6913 40.5706 48.6114 L 35.0233 48.6114 C 35.3734 49.811 36.3976 50.4856 38.0469 50.4856 C 38.5092 50.4865 38.9701 50.4361 39.4212 50.3353 C 39.7567 50.2502 40.1001 50.2001 40.446 50.1856 C 40.8291 50.1823 41.1971 50.3348 41.4656 50.6081 C 41.734 50.8814 41.8799 51.2521 41.8698 51.6351 C 41.8694 52.3054 41.4503 52.9042 40.8206 53.134 C 39.8108 53.495 38.7446 53.6727 37.6723 53.6589 C 34.0987 53.6589 31.3501 51.3601 31.3501 47.7871 C 31.3501 44.3137 33.8244 41.8651 37.3222 41.8651 C 38.6934 41.7922 40.0335 42.2911 41.0233 43.243 Z M 39.3711 46.4873 C 39.3608 45.947 39.1261 45.4354 38.7232 45.0752 C 38.3203 44.7149 37.7857 44.5387 37.2476 44.5887 C 36.1119 44.536 35.1245 45.3605 34.9738 46.4873 Z " stroke-width="1" fill="#000000" stroke="none"/><path d="M 55.8105 50.1355 C 55.8105 49.6112 54.936 49.4358 53.4865 49.0111 C 51.2127 48.3365 49.6887 47.5867 49.6887 45.4882 C 49.6887 43.4142 51.2879 41.8652 54.3861 41.8652 C 55.5262 41.8695 56.6577 42.0636 57.7341 42.4396 C 58.4117 42.6126 58.8915 43.215 58.9086 43.9141 C 58.9452 44.2891 58.8226 44.6622 58.5709 44.9424 C 58.3191 45.2227 57.9612 45.3844 57.5844 45.388 C 57.1242 45.3428 56.6712 45.2421 56.2352 45.088 C 55.6337 44.915 55.0118 44.8227 54.386 44.8136 C 53.5116 44.8136 53.1119 45.0134 53.1119 45.388 C 53.1119 45.8628 53.7114 46.0126 55.5856 46.5625 C 57.5844 47.1369 59.2337 47.8366 59.2337 49.9858 C 59.2337 52.1594 57.5343 53.6589 54.4362 53.6589 C 53.1032 53.6684 51.7833 53.3958 50.5632 52.8591 C 49.9261 52.6293 49.4915 52.0368 49.4638 51.3601 C 49.4469 50.9927 49.5819 50.6346 49.8371 50.3699 C 50.0924 50.1051 50.4454 49.9572 50.8131 49.9607 C 51.3577 50.0144 51.8896 50.1579 52.3872 50.3854 C 53.0299 50.6105 53.7051 50.7287 54.3861 50.7356 C 55.4102 50.7356 55.8105 50.5107 55.8105 50.1355 Z " stroke-width="1" fill="#000000" stroke="none"/><path d="M 61.5058 43.8139 C 61.4815 42.858 62.2172 42.0539 63.1715 41.9934 C 64.1258 41.9329 64.9572 42.6377 65.0537 43.589 C 65.7429 42.505 66.9426 41.8532 68.2271 41.8652 C 71.2757 41.8652 73.3497 44.5386 73.3497 47.762 C 73.3497 50.7355 71.3509 53.6589 68.0523 53.6589 C 66.9792 53.7176 65.9354 53.2964 65.2035 52.5095 L 65.2035 57.8319 C 65.2123 58.4983 64.8619 59.1179 64.2862 59.4537 C 63.7106 59.7894 62.9987 59.7894 62.4231 59.4537 C 61.8474 59.1179 61.497 58.4983 61.5058 57.8319 L 61.5058 43.8139 Z M 65.2035 49.1614 C 65.5837 49.9342 66.3667 50.427 67.2279 50.4355 C 68.6022 50.4355 69.6014 49.236 69.6014 47.762 C 69.6014 46.2625 68.6022 45.088 67.2524 45.088 C 66.366 45.1264 65.5753 45.6568 65.2035 46.4623 Z " stroke-width="1" fill="#000000" stroke="none"/><path d="M 84.2172 48.6115 L 78.6699 48.6115 C 79.02 49.811 80.0442 50.4856 81.6935 50.4856 C 82.1557 50.4865 82.6167 50.4361 83.0678 50.3353 C 83.4033 50.2502 83.7467 50.2001 84.0926 50.1856 C 84.4757 50.1823 84.8437 50.3348 85.1121 50.6081 C 85.3806 50.8814 85.5265 51.2521 85.5164 51.6351 C 85.516 52.3054 85.0969 52.9042 84.4672 53.134 C 83.4573 53.495 82.3912 53.6727 81.3189 53.6589 C 77.7453 53.6589 74.9967 51.3601 74.9967 47.7871 C 74.9967 44.3137 77.4709 41.8651 80.9688 41.8651 C 82.34 41.7922 83.6801 42.2912 84.6699 43.243 C 85.6596 44.1949 86.2104 45.5145 86.191 46.8876 C 86.225 47.34 86.0816 47.7879 85.7914 48.1367 C 85.3615 48.5178 84.7862 48.6913 84.2173 48.6115 Z M 83.0177 46.4874 C 83.0074 45.947 82.7727 45.4354 82.3698 45.0752 C 81.9669 44.7149 81.4323 44.5387 80.8942 44.5887 C 79.7585 44.536 78.7711 45.3605 78.6204 46.4874 Z " stroke-width="1" fill="#000000" stroke="none"/><path d="M 93.7605 41.8651 C 95.1318 41.7922 96.4719 42.2911 97.4616 43.243 C 98.4514 44.1949 99.0022 45.5145 98.9828 46.8876 C 99.0168 47.34 98.8734 47.7879 98.5832 48.1366 C 98.1533 48.5177 97.5779 48.6913 97.009 48.6114 L 91.4617 48.6114 C 91.8118 49.811 92.836 50.4856 94.4853 50.4856 C 94.9475 50.4865 95.4084 50.4361 95.8596 50.3353 C 96.1951 50.2502 96.5385 50.2 96.8843 50.1856 C 97.2674 50.1823 97.6354 50.3348 97.9039 50.6081 C 98.1724 50.8814 98.3183 51.252 98.3082 51.635 C 98.3078 52.3054 97.8887 52.9042 97.2589 53.134 C 96.2491 53.4949 95.183 53.6727 94.1107 53.6589 C 90.5371 53.6589 87.7885 51.36 87.7885 47.7871 C 87.7885 44.3137 90.2627 41.8651 93.7606 41.8651 Z M 91.4121 46.4873 L 95.8095 46.4873 C 95.7992 45.947 95.5645 45.4353 95.1616 45.0751 C 94.7587 44.7149 94.2241 44.5387 93.686 44.5887 C 92.5503 44.536 91.5629 45.3605 91.4121 46.4873 Z " stroke-width="1" fill="#000000" stroke="none"/><path d="M 100.5803 47.762 C 100.5803 44.6633 102.5797 41.8651 105.7531 41.8651 C 106.8892 41.8266 107.9942 42.2399 108.8262 43.0146 L 108.8262 37.4672 C 108.8172 36.8007 109.1677 36.1809 109.7435 35.8451 C 110.3193 35.5092 111.0313 35.5092 111.6071 35.8451 C 112.1829 36.1809 112.5334 36.8007 112.5244 37.4672 L 112.5244 51.7096 C 112.5415 52.1897 112.3618 52.656 112.0268 53.0003 C 111.6919 53.3447 111.2308 53.5374 110.7504 53.5337 C 109.8877 53.5543 109.1417 52.9363 109.0015 52.0848 C 108.2241 53.0882 107.0223 53.6705 105.753 53.6589 C 102.5797 53.6589 100.5803 50.8351 100.5804 47.762 Z M 104.3286 47.7617 C 104.3286 49.1436 105.3769 50.3002 106.7522 50.4355 C 107.6366 50.4162 108.4365 49.9055 108.8261 49.1113 L 108.8261 46.3376 C 108.413 45.5754 107.6191 45.097 106.7522 45.088 C 105.3769 45.2233 104.3286 46.3798 104.3286 47.7617 Z " stroke-width="1" fill="#000000" stroke="none"/></g></g></g></svg>