<svg xmlns="http://www.w3.org/2000/svg" xmlns:xlink="http://www.w3.org/1999/xlink" version="1.1" width="194.41317" height="77.86308" viewBox="0,0,194.41317,77.86308"><g><g data-paper-data="{&quot;isPaintingLayer&quot;:true}" fill-rule="nonzero" stroke-linecap="butt" stroke-linejoin="miter" stroke-miterlimit="10" stroke-dasharray="" stroke-dashoffset="0" style="mix-blend-mode: normal"><path d="M 194.4132 77.8631 L 0.0003 77.8631 C -0.0003 61.7751 0 45.6871 0.0012 29.5991 C 0.0013 29.2343 0.0176 28.8694 0.0262 28.5046 L 194.3872 28.5046 C 194.3959 28.8695 194.4122 29.2343 194.4122 29.5991 C 194.4129 45.6871 194.4132 61.7751 194.4132 77.8631 Z " fill="#faf0c0" stroke-width="1" stroke="none"/><path d="M 194.3881 25.0628 L 194.3881 28.5055 L 0.0262 28.5055 L 0.0262 25.0837 L 6.0952 25.0837 C 6.1432 25.0858 6.1891 25.0858 6.2329 25.0837 L 57.3005 25.0837 L 57.3005 25.0628 C 64.2867 25.0635 71.2736 25.0628 78.2612 25.0608 C 78.5472 25.0608 78.8353 25.044 79.1213 25.0357 C 80.2521 25.0343 81.3823 25.0336 82.5117 25.0336 C 82.5892 25.0462 82.6672 25.0546 82.7456 25.0587 C 94.1549 25.0559 105.5643 25.0524 116.9736 25.0482 L 120.5144 25.0419 C 120.8798 25.0482 121.243 25.0608 121.6084 25.0608 L 122.0524 25.0608 C 121.7044 25.0597 121.3563 25.049 121.0085 25.043 C 121.0041 20.6979 121.0046 16.3527 121.0102 12.0074 C 121.0156 7.7801 122.9549 4.5649 126.312 2.1603 C 127.8222 1.109 129.5373 0.3884 131.3451 0.0456 L 134.8153 0 L 141.2114 0.0041 C 142.8553 0.1067 144.5254 -0.1614 146.1402 0.35 C 146.5798 0.4893 147.0173 0.6352 147.4558 0.7782 C 151.0004 2.1671 153.7212 5.0922 154.8503 8.728 C 155.154 9.6322 155.3088 10.5797 155.3088 11.5336 C 155.2975 16.0352 155.3051 20.5368 155.3058 25.0383 C 155.1917 25.0394 155.0777 25.0409 154.9636 25.0422 C 155.2525 25.0505 155.5404 25.0608 155.8281 25.0608 C 168.6807 25.0622 181.534 25.0628 194.3881 25.0628 Z M 138.3387 3.7225 C 135.9667 3.7037 133.6845 4.6288 131.9952 6.294 C 130.3058 7.9592 129.3478 10.2277 129.3324 12.5998 C 129.2897 16.24 131.4484 19.5461 134.7984 20.971 C 138.1484 22.396 142.0272 21.658 144.62 19.1025 C 147.2127 16.5469 148.0066 12.6791 146.6302 9.3089 C 145.2537 5.9386 141.9792 3.7324 138.3387 3.7225 Z " fill="#fedb04" stroke-width="1" stroke="none"/><path d="M 117.4664 25.0495 C 117.4778 20.1639 117.4892 15.2784 117.5007 10.3929 C 117.7388 9.526 118.0087 8.6724 118.3263 7.8276 C 119.5771 4.5006 121.9914 2.3301 125.1272 0.8506 C 126.0404 0.5094 126.977 0.2346 127.9297 0.0282 C 129.0683 0.034 130.2068 0.0397 131.3452 0.0455 C 129.5373 0.3883 127.8221 1.109 126.3119 2.1604 C 122.9548 4.5649 121.0155 7.7802 121.0101 12.0074 C 121.0045 16.3527 121.004 20.6979 121.0085 25.043 C 119.8276 25.0452 118.6469 25.0473 117.4664 25.0495 Z " fill="#bfa502" stroke-width="1" stroke="none"/><path d="M 138.2848 21.6876 C 134.6515 21.677 131.3824 19.4786 130.002 16.1177 C 128.6217 12.7568 129.402 8.8953 131.979 6.334 C 134.556 3.7727 138.4222 3.0161 141.7746 4.417 C 145.127 5.818 147.3053 9.1005 147.2937 12.7338 C 147.3038 15.1212 146.3561 17.4128 144.6628 19.0958 C 142.9695 20.7787 140.672 21.7124 138.2848 21.6877 Z M 138.2349 20.0547 C 141.2138 20.0835 143.9157 18.3122 145.0772 15.569 C 146.2387 12.8258 145.6302 9.6529 143.5363 7.5339 C 141.4424 5.415 138.2769 4.7689 135.5201 5.8977 C 132.7633 7.0265 130.96 9.7072 130.9535 12.6861 C 130.9662 16.7165 134.205 19.994 138.2349 20.0547 Z " fill="#fafcfe" stroke-width="1" stroke="none"/><path d="M 138.2349 20.0547 C 134.1889 20.0025 130.9453 16.691 130.977 12.6447 C 131.0087 8.5985 134.3038 5.3382 138.3502 5.3495 C 142.3966 5.3608 145.6734 8.6393 145.6826 12.6857 C 145.6829 14.6539 144.8958 16.5403 143.4967 17.9246 C 142.0977 19.3089 140.203 20.0759 138.2349 20.0547 Z M 137.4771 10.2644 C 137.4771 10.9921 137.4844 11.72 137.4739 12.4475 C 137.4437 12.7612 137.5492 13.0729 137.7637 13.3038 C 138.4966 14.0405 139.2194 14.7874 139.9596 15.5168 C 140.101 15.7116 140.3229 15.8321 140.5634 15.8446 C 140.8039 15.8571 141.0371 15.7603 141.198 15.5812 C 141.3679 15.4115 141.4553 15.1762 141.4374 14.9367 C 141.4195 14.6973 141.298 14.4776 141.1048 14.3351 C 140.6899 13.869 140.2469 13.4288 139.7784 13.0168 C 139.2914 12.6189 139.0428 11.9988 139.1203 11.3748 C 139.1627 10.2328 139.1281 9.0881 139.1329 7.9446 C 139.1353 7.3865 138.8791 7.0272 138.3163 7.0167 C 137.7447 7.0061 137.4829 7.3731 137.4795 7.9254 C 137.4748 8.705 137.4783 9.4847 137.4771 10.2644 Z " fill="#fedb04" stroke-width="1" stroke="none"/><path d="M 137.4777 10.2644 C 137.4783 9.4847 137.4748 8.705 137.4795 7.9254 C 137.4829 7.3731 137.7447 7.0061 138.3163 7.0167 C 138.8791 7.0272 139.1353 7.3865 139.1329 7.9446 C 139.1281 9.0881 139.1627 10.2328 139.1203 11.3748 C 139.0428 11.9989 139.2914 12.6189 139.7784 13.0168 C 140.2469 13.4288 140.6899 13.8691 141.1048 14.3351 C 141.298 14.4776 141.4195 14.6973 141.4374 14.9368 C 141.4553 15.1762 141.3679 15.4115 141.198 15.5812 C 141.0371 15.7603 140.8039 15.8572 140.5634 15.8446 C 140.323 15.8321 140.101 15.7116 139.9596 15.5168 C 139.2194 14.7874 138.4966 14.0405 137.7637 13.3038 C 137.5492 13.0729 137.4437 12.7612 137.4739 12.4475 C 137.4844 11.72 137.4771 10.9922 137.4777 10.2644 Z " fill="#fafcfe" stroke-width="1" stroke="none"/><g><path d="M 23.637 36.0549 C 24.2466 36.6593 24.5824 37.487 24.5661 38.3454 C 24.5661 40.2381 23.1215 41.5454 21.3386 41.5454 C 19.5467 41.5454 18.1021 40.2381 18.1021 38.3454 C 18.1021 36.462 19.5467 35.1453 21.3386 35.1453 C 22.1968 35.1217 23.0273 35.4504 23.637 36.0548 Z M 23.1032 38.3454 C 23.1032 37.1295 22.2895 36.407 21.3386 36.407 C 20.3879 36.407 19.5648 37.1295 19.5648 38.3454 C 19.5648 39.5615 20.3879 40.2837 21.3386 40.2837 C 22.2895 40.2837 23.1032 39.5615 23.1032 38.3454 Z " stroke-width="1" fill="#191919" stroke="none"/><path d="M 33.0222 36.9099 L 33.0222 40.8141 C 33.0255 41.0579 32.8972 41.2846 32.6865 41.4075 C 32.4759 41.5303 32.2154 41.5303 32.0048 41.4075 C 31.7941 41.2846 31.6658 41.0579 31.669 40.8141 L 31.669 36.9557 C 31.669 36.5627 31.477 36.1238 30.8646 36.1238 C 30.2519 36.1238 30.0599 36.5627 30.0599 36.9557 L 30.0599 37.3124 L 30.6177 37.3124 C 30.9272 37.3174 31.1754 37.5697 31.1754 37.8792 C 31.1754 38.1887 30.9272 38.441 30.6177 38.446 L 30.0599 38.446 L 30.0599 40.814 C 30.0631 41.0579 29.9348 41.2846 29.7242 41.4075 C 29.5135 41.5303 29.253 41.5303 29.0424 41.4075 C 28.8317 41.2846 28.7035 41.0579 28.7067 40.814 L 28.7067 36.9099 C 28.7067 35.95 29.356 34.9351 30.8646 34.9351 C 32.3731 34.9351 33.0222 35.95 33.0222 36.9099 Z " stroke-width="1" fill="#191919" stroke="none"/><path d="M 28.6244 35.6573 C 28.6278 35.9748 28.375 36.2358 28.0576 36.2425 C 27.9414 36.2387 27.8268 36.2139 27.7193 36.1694 C 27.6315 36.1364 27.5389 36.1179 27.4452 36.1146 C 27.2165 36.1146 27.0977 36.2517 27.0977 36.4985 L 27.0977 37.3124 L 27.6554 37.3124 C 27.9648 37.3174 28.213 37.5697 28.213 37.8792 C 28.213 38.1887 27.9648 38.441 27.6554 38.446 L 27.0977 38.446 L 27.0977 40.814 C 27.1009 41.0579 26.9727 41.2846 26.762 41.4075 C 26.5514 41.5303 26.2909 41.5303 26.0802 41.4075 C 25.8696 41.2846 25.7413 41.0579 25.7445 40.814 L 25.7445 38.446 L 25.6714 38.446 C 25.3584 38.446 25.1046 38.1922 25.1046 37.8792 C 25.1046 37.5661 25.3584 37.3124 25.6714 37.3124 L 25.7445 37.3124 L 25.7445 36.5077 C 25.7445 35.6392 26.2838 34.8985 27.3993 34.8985 C 27.6294 34.8968 27.8582 34.9339 28.0759 35.0083 C 28.3867 35.1272 28.6244 35.3191 28.6244 35.6573 Z " stroke-width="1" fill="#191919" stroke="none"/><path d="M 35.2262 35.4114 C 35.3604 35.5439 35.4356 35.7248 35.4347 35.9134 C 35.4347 36.301 35.1214 36.6158 34.7337 36.6175 C 34.346 36.6192 34.0299 36.3072 34.0266 35.9195 C 34.0233 35.5318 34.334 35.2144 34.7216 35.2095 C 34.9102 35.2061 35.0921 35.2789 35.2262 35.4114 Z " stroke-width="1" fill="#191919" stroke="none"/><path d="M 35.3982 37.9523 L 35.3982 40.814 C 35.4014 41.0579 35.2732 41.2846 35.0625 41.4075 C 34.8519 41.5303 34.5914 41.5303 34.3807 41.4075 C 34.1701 41.2846 34.0418 41.0579 34.045 40.814 L 34.045 37.9523 C 34.0506 37.581 34.3503 37.2813 34.7216 37.2757 C 35.0943 37.2781 35.3958 37.5796 35.3982 37.9523 Z " stroke-width="1" fill="#191919" stroke="none"/><path d="M 40.3716 38.7295 L 40.3716 40.814 C 40.3748 41.0579 40.2465 41.2846 40.0359 41.4074 C 39.8252 41.5303 39.5648 41.5303 39.3541 41.4074 C 39.1434 41.2846 39.0152 41.0579 39.0184 40.814 L 39.0184 39.0403 C 39.0184 38.6653 38.872 38.382 38.4605 38.382 C 38.1468 38.3948 37.8705 38.5922 37.7567 38.8849 L 37.7567 40.814 C 37.7599 41.0579 37.6316 41.2846 37.421 41.4074 C 37.2103 41.5303 36.9498 41.5303 36.7392 41.4074 C 36.5285 41.2846 36.4003 41.0579 36.4035 40.814 L 36.4035 37.9523 C 36.403 37.7727 36.4742 37.6004 36.6012 37.4734 C 36.7281 37.3464 36.9005 37.2753 37.0801 37.2757 C 37.41 37.2794 37.6904 37.5176 37.7475 37.8425 C 38.0424 37.4589 38.4979 37.2328 38.9817 37.2301 C 39.7131 37.2301 40.3716 37.7146 40.3716 38.7295 Z " stroke-width="1" fill="#191919" stroke="none"/><path d="M 44.6965 37.7342 C 45.0587 38.0825 45.2602 38.5654 45.2531 39.0678 C 45.2655 39.2333 45.2131 39.3972 45.1069 39.5248 C 44.9496 39.6643 44.7391 39.7278 44.5309 39.6985 L 42.5011 39.6985 C 42.6292 40.1375 43.004 40.3843 43.6075 40.3843 C 43.7766 40.3846 43.9453 40.3662 44.1103 40.3293 C 44.2331 40.2982 44.3588 40.2798 44.4853 40.2745 C 44.6255 40.2733 44.7601 40.3291 44.8584 40.4291 C 44.9566 40.5291 45.01 40.6647 45.0063 40.8049 C 45.0061 41.0502 44.8528 41.2693 44.6224 41.3534 C 44.2529 41.4854 43.8628 41.5505 43.4704 41.5454 C 42.1629 41.5454 41.1571 40.7043 41.1571 39.3969 C 41.1571 38.126 42.0624 37.2301 43.3423 37.2301 C 43.844 37.2034 44.3344 37.386 44.6965 37.7343 Z M 44.092 38.9213 C 44.0882 38.7236 44.0023 38.5364 43.8549 38.4046 C 43.7075 38.2728 43.5119 38.2083 43.315 38.2266 C 42.8995 38.2073 42.5382 38.509 42.483 38.9213 Z " stroke-width="1" fill="#191919" stroke="none"/><path d="M 51.3332 37.7342 C 51.6954 38.0825 51.8969 38.5654 51.8898 39.0678 C 51.9023 39.2333 51.8498 39.3972 51.7436 39.5248 C 51.5863 39.6643 51.3758 39.7278 51.1676 39.6985 L 49.1379 39.6985 C 49.266 40.1375 49.6407 40.3843 50.2442 40.3843 C 50.4133 40.3846 50.582 40.3662 50.7471 40.3293 C 50.8698 40.2982 50.9955 40.2798 51.122 40.2745 C 51.2622 40.2733 51.3968 40.3291 51.4951 40.4291 C 51.5933 40.5291 51.6467 40.6647 51.643 40.8049 C 51.6429 41.0502 51.4895 41.2693 51.2591 41.3534 C 50.8896 41.4854 50.4995 41.5505 50.1071 41.5454 C 48.7996 41.5454 47.7939 40.7043 47.7939 39.3969 C 47.7939 38.126 48.6992 37.2301 49.979 37.2301 C 50.4808 37.2034 50.9711 37.386 51.3332 37.7343 Z M 50.7287 38.9213 C 50.725 38.7236 50.6391 38.5364 50.4917 38.4046 C 50.3442 38.2728 50.1486 38.2083 49.9517 38.2266 C 49.5362 38.2073 49.1749 38.509 49.1197 38.9213 Z " stroke-width="1" fill="#191919" stroke="none"/><path d="M 56.1589 38.7476 L 56.1589 40.8505 C 56.1645 41.1786 55.9203 41.4575 55.5943 41.4953 C 55.2683 41.5331 54.9668 41.3174 54.8972 40.9967 C 54.551 41.3341 54.0911 41.5298 53.608 41.5454 C 53.2863 41.5642 52.9713 41.4491 52.7375 41.2275 C 52.5037 41.0058 52.372 40.6973 52.3737 40.3751 C 52.3737 39.7808 52.7303 39.4425 53.2332 39.2413 C 53.7657 39.0711 54.32 38.9788 54.8788 38.9672 L 54.8788 38.8482 C 54.8788 38.5008 54.6778 38.382 54.2114 38.382 C 54.0135 38.3827 53.8167 38.4104 53.6263 38.4643 C 53.5134 38.4994 53.3968 38.5209 53.2788 38.5283 C 53.135 38.5358 52.9944 38.4845 52.8892 38.3862 C 52.784 38.2879 52.7234 38.151 52.7212 38.0071 C 52.7158 37.7775 52.8547 37.5692 53.0686 37.4859 C 53.4937 37.3179 53.9465 37.2311 54.4035 37.2301 C 55.4732 37.2301 56.1589 37.7419 56.1589 38.7476 Z M 54.8789 39.726 C 54.6595 39.7533 54.4491 39.7808 54.2389 39.8264 C 53.8275 39.9087 53.663 40.0185 53.663 40.2106 C 53.663 40.4026 53.8092 40.5122 54.056 40.5122 C 54.3521 40.4926 54.6369 40.3914 54.8789 40.2197 Z " stroke-width="1" fill="#191919" stroke="none"/><path d="M 60.0295 37.4119 C 60.1519 37.5327 60.2199 37.698 60.2178 37.87 C 60.2224 38.0476 60.1551 38.2196 60.0312 38.3469 C 59.9073 38.4743 59.7373 38.5463 59.5596 38.5466 C 59.1346 38.5213 58.729 38.7276 58.4991 39.0859 L 58.4991 40.814 C 58.5023 41.0579 58.374 41.2846 58.1634 41.4074 C 57.9527 41.5303 57.6923 41.5303 57.4816 41.4074 C 57.2709 41.2846 57.1427 41.0579 57.1459 40.814 L 57.1459 37.9523 C 57.1459 37.5786 57.4488 37.2757 57.8225 37.2757 C 58.1961 37.2757 58.4991 37.5786 58.4991 37.9523 L 58.4991 37.9979 C 58.8007 37.4311 59.1573 37.2301 59.5687 37.2301 C 59.7406 37.2255 59.907 37.2912 60.0295 37.4119 Z " stroke-width="1" fill="#191919" stroke="none"/><path d="M 64.7431 38.7295 L 64.7431 40.814 C 64.7463 41.0579 64.6181 41.2846 64.4074 41.4074 C 64.1968 41.5303 63.9363 41.5303 63.7256 41.4074 C 63.515 41.2846 63.3867 41.0579 63.3899 40.814 L 63.3899 39.0403 C 63.3899 38.6653 63.2435 38.382 62.8321 38.382 C 62.5184 38.3948 62.242 38.5922 62.1282 38.8849 L 62.1282 40.814 C 62.1314 41.0579 62.0032 41.2846 61.7925 41.4074 C 61.5819 41.5303 61.3214 41.5303 61.1107 41.4074 C 60.9001 41.2846 60.7718 41.0579 60.775 40.814 L 60.775 37.9523 C 60.7746 37.7727 60.8457 37.6004 60.9727 37.4734 C 61.0997 37.3464 61.272 37.2753 61.4516 37.2757 C 61.7815 37.2794 62.062 37.5176 62.119 37.8425 C 62.4139 37.4589 62.8694 37.2328 63.3533 37.2301 C 64.0846 37.2301 64.7431 37.7146 64.7431 38.7295 Z " stroke-width="1" fill="#191919" stroke="none"/><path d="M 67.0829 37.9523 L 67.0829 40.814 C 67.0861 41.0579 66.9578 41.2846 66.7472 41.4075 C 66.5365 41.5303 66.276 41.5303 66.0654 41.4075 C 65.8547 41.2846 65.7265 41.0579 65.7297 40.814 L 65.7297 37.9523 C 65.7352 37.581 66.0349 37.2813 66.4063 37.2757 C 66.7789 37.2781 67.0805 37.5796 67.0829 37.9523 Z " stroke-width="1" fill="#191919" stroke="none"/><path d="M 66.9109 35.4114 C 67.0451 35.5439 67.1202 35.7248 67.1193 35.9134 C 67.1194 36.301 66.806 36.6158 66.4183 36.6175 C 66.0307 36.6192 65.7146 36.3072 65.7113 35.9195 C 65.7079 35.5319 66.0186 35.2144 66.4063 35.2095 C 66.5948 35.2061 66.7767 35.2789 66.9109 35.4114 Z " stroke-width="1" fill="#191919" stroke="none"/><path d="M 72.0562 38.7295 L 72.0562 40.814 C 72.0594 41.0579 71.9312 41.2846 71.7205 41.4074 C 71.5099 41.5303 71.2494 41.5303 71.0387 41.4074 C 70.8281 41.2846 70.6998 41.0579 70.703 40.814 L 70.703 39.0403 C 70.703 38.6653 70.5566 38.382 70.1452 38.382 C 69.8315 38.3948 69.5551 38.5922 69.4413 38.8849 L 69.4413 40.814 C 69.4445 41.0579 69.3163 41.2846 69.1056 41.4074 C 68.895 41.5303 68.6345 41.5303 68.4238 41.4074 C 68.2132 41.2846 68.0849 41.0579 68.0881 40.814 L 68.0881 37.9523 C 68.0877 37.7727 68.1588 37.6004 68.2858 37.4734 C 68.4128 37.3464 68.5852 37.2753 68.7647 37.2757 C 69.0946 37.2794 69.3751 37.5176 69.4321 37.8425 C 69.727 37.4589 70.1825 37.2328 70.6664 37.2301 C 71.3977 37.2301 72.0562 37.7146 72.0562 38.7295 Z " stroke-width="1" fill="#191919" stroke="none"/><path d="M 77.5229 37.7969 C 77.5249 37.93 77.4703 38.0578 77.3727 38.1484 C 77.2751 38.239 77.1437 38.284 77.0111 38.2722 C 76.7794 38.265 76.5507 38.2187 76.3345 38.1352 L 76.3253 38.1533 C 76.6103 38.3404 76.7767 38.6629 76.764 39.0036 C 76.764 39.7717 76.0966 40.3568 74.8715 40.3568 C 74.8104 40.3586 74.7493 40.3555 74.6886 40.3476 C 74.6162 40.3934 74.5716 40.4724 74.5699 40.558 C 74.5699 40.7134 74.6978 40.7409 75.4202 40.878 C 76.6636 41.1157 77.3402 41.3809 77.3402 42.2128 C 77.3402 43.1546 76.4624 43.7579 74.9355 43.7579 C 73.4269 43.7579 72.6591 43.1638 72.6591 42.4049 C 72.6591 42.0024 72.8784 41.6277 73.5367 41.3169 C 73.3584 41.1996 73.2516 41 73.2532 40.7865 C 73.2532 40.4849 73.4177 40.2837 73.7379 40.1283 C 73.2154 39.9005 72.8803 39.3817 72.8876 38.8118 C 72.8876 37.8517 73.811 37.3124 74.8715 37.3124 L 76.9652 37.3124 C 77.276 37.3124 77.5229 37.4769 77.5229 37.7969 Z M 74.4326 41.6825 C 74.0304 41.8837 73.939 42.1031 73.939 42.2493 C 73.939 42.5786 74.3504 42.8436 75.0361 42.8436 C 75.7767 42.8436 76.0693 42.542 76.0693 42.286 C 76.0693 42.0116 75.731 41.966 75.0636 41.8289 C 74.8259 41.7831 74.6155 41.7375 74.4326 41.6825 Z M 75.5115 38.8391 C 75.5115 38.5283 75.2557 38.2722 74.8259 38.2722 C 74.3962 38.2722 74.131 38.5283 74.131 38.8391 C 74.131 39.159 74.4053 39.4059 74.8259 39.4059 C 75.2373 39.4059 75.5115 39.159 75.5115 38.8391 Z " stroke-width="1" fill="#191919" stroke="none"/><path d="M 81.3349 40.2014 C 81.3349 40.9967 80.7131 41.5454 79.5795 41.5454 C 79.0918 41.5489 78.6089 41.4491 78.1624 41.2527 C 77.9293 41.1687 77.7703 40.9519 77.7602 40.7043 C 77.754 40.5699 77.8034 40.4388 77.8968 40.3419 C 77.9902 40.2451 78.1193 40.1909 78.2539 40.1922 C 78.4531 40.2119 78.6477 40.2644 78.8298 40.3476 C 79.065 40.43 79.312 40.4733 79.5612 40.4758 C 79.9359 40.4758 80.0824 40.3935 80.0824 40.2562 C 80.0824 40.0643 79.7624 40.0002 79.2321 39.8448 C 78.4001 39.5979 77.8424 39.3236 77.8424 38.5558 C 77.8424 37.7969 78.4276 37.2301 79.5612 37.2301 C 79.9784 37.2317 80.3924 37.3027 80.7863 37.4403 C 81.0342 37.5036 81.2097 37.724 81.216 37.9798 C 81.2294 38.117 81.1845 38.2535 81.0924 38.3561 C 81.0003 38.4586 80.8693 38.5178 80.7315 38.5191 C 80.5631 38.5026 80.3973 38.4657 80.2378 38.4093 C 80.0177 38.346 79.7902 38.3122 79.5612 38.3089 C 79.2412 38.3089 79.095 38.382 79.095 38.5191 C 79.095 38.6928 79.3144 38.7476 80.0001 38.9488 C 80.7315 39.159 81.335 39.415 81.335 40.2014 Z " stroke-width="1" fill="#191919" stroke="none"/></g></g></g></svg>