<svg xmlns="http://www.w3.org/2000/svg" xmlns:xlink="http://www.w3.org/1999/xlink" version="1.1" width="46.85488" height="29.88322" viewBox="0,0,46.85488,29.88322"><g><g data-paper-data="{&quot;isPaintingLayer&quot;:true}" fill-rule="nonzero" stroke-linecap="butt" stroke-linejoin="miter" stroke-miterlimit="10" stroke-dasharray="" stroke-dashoffset="0" style="mix-blend-mode: normal"><path d="M 46.5827 25.0828 C 46.577 25.1994 46.5652 25.3156 46.5474 25.4307 C 45.9898 26.482 45.4077 27.3904 44.1094 27.3886 C 27.1053 27.3739 19.6924 27.3708 2.6883 27.3792 C 1.9198 27.3805 1.2007 26.9539 0.7681 26.2402 C 0.5935 25.9869 0.4393 25.7159 0.2758 25.453 C 0.2668 19.1883 0.2582 12.9235 0.25 6.6588 C 0.2484 5.4292 0.2444 4.1996 0.2512 2.97 C 0.2828 1.4745 1.3597 0.2738 2.691 0.25 C 19.7145 0.2473 27.147 0.2472 44.1706 0.2497 C 45.4535 0.2085 46.5278 1.3333 46.5816 2.774 C 46.5846 10.2103 46.5849 17.6466 46.5827 25.0828 Z " fill="#92796b" stroke="#92796b" stroke-width="0.5"/><path d="M 0.3333 26.1087 C 0.4968 26.3427 0.651 26.5839 0.8257 26.8093 C 1.2582 27.4445 1.9773 27.8242 2.7458 27.8231 C 19.7499 27.8156 27.1629 27.8184 44.1669 27.8314 C 45.4652 27.8331 46.0474 27.0246 46.6049 26.0888 C 46.9408 27.8242 46.5204 28.7108 45.043 29.488 C 44.8105 29.6003 44.553 29.6506 44.2953 29.634 C 27.2466 29.6354 19.789 29.6352 2.7403 29.6332 C 1.4198 29.579 0.3612 28.5217 0.3055 27.2012 C 0.3029 26.8371 0.3234 26.4729 0.3333 26.1087 Z " fill="#725f54" stroke="#725f54" stroke-width="0.5"/><g><path d="M 14.0115 6.8366 C 13.095 6.8366 12.239 6.2579 12.239 5.052 L 12.239 3.1108 C 12.2423 2.8567 12.4491 2.6525 12.7032 2.6525 C 12.9572 2.6525 13.1641 2.8567 13.1674 3.1108 L 13.1674 5.0461 C 13.1674 5.7694 13.5773 6.0167 14.0176 6.0167 C 14.4395 6.0167 14.8676 5.7575 14.8676 5.0461 L 14.8676 3.0866 C 14.8846 2.8377 15.0945 2.6464 15.3438 2.6525 C 15.4606 2.6505 15.5734 2.6952 15.6572 2.7767 C 15.7409 2.8582 15.7887 2.9697 15.79 3.0866 L 15.79 5.052 C 15.79 6.2579 14.9218 6.8366 14.0115 6.8366 Z " stroke-width="1" fill="#fdfdfd" stroke="none"/><path d="M 16.483 7.8495 L 16.483 4.4672 C 16.4771 4.2366 16.6546 4.0426 16.8849 4.028 C 17.1151 4.0134 17.3157 4.1834 17.339 4.4129 C 17.5053 4.1514 17.7948 3.9941 18.1047 3.997 C 18.8403 3.997 19.3407 4.6421 19.3407 5.4198 C 19.3407 6.1373 18.8584 6.8426 18.0625 6.8426 C 17.8036 6.8568 17.5518 6.7552 17.3751 6.5653 L 17.3751 7.8495 C 17.3741 8.0964 17.176 8.2972 16.9291 8.3016 C 16.6813 8.2993 16.4819 8.0973 16.483 7.8495 Z M 17.3751 5.7575 C 17.4669 5.9439 17.6558 6.0628 17.8636 6.0649 C 18.1952 6.0649 18.4363 5.7755 18.4363 5.4198 C 18.4363 5.058 18.1952 4.7746 17.8696 4.7746 C 17.6557 4.7838 17.4649 4.9118 17.3751 5.1062 Z " stroke-width="1" fill="#fdfdfd" stroke="none"/><path d="M 20.1962 6.6919 C 20.0786 6.6146 20.0082 6.4829 20.0092 6.3422 C 20.0092 6.1433 20.1177 6.0106 20.3289 5.9081 C 19.9843 5.7579 19.7634 5.4158 19.7681 5.04 C 19.7681 4.4069 20.3771 4.0513 21.0764 4.0513 L 22.457 4.0513 C 22.662 4.0513 22.8247 4.1598 22.8247 4.3708 C 22.8261 4.4586 22.7901 4.5428 22.7257 4.6026 C 22.6614 4.6623 22.5747 4.692 22.4872 4.6842 C 22.3345 4.6795 22.1837 4.6489 22.0411 4.5938 L 22.035 4.6058 C 22.223 4.7292 22.3327 4.9419 22.3243 5.1665 C 22.3243 5.673 21.8842 6.0588 21.0764 6.0588 C 21.0361 6.06 20.9958 6.058 20.9558 6.0528 C 20.908 6.0829 20.8786 6.1351 20.8775 6.1915 C 20.8775 6.294 20.9618 6.3121 21.4382 6.4025 C 22.2581 6.5592 22.7043 6.7341 22.7043 7.2827 C 22.7043 7.9038 22.1254 8.3016 21.1185 8.3016 C 20.1238 8.3016 19.6174 7.9098 19.6174 7.4094 C 19.6174 7.144 19.7621 6.8969 20.1962 6.6919 Z M 21.0463 4.6842 C 20.7629 4.6842 20.5881 4.8531 20.5881 5.058 C 20.5881 5.269 20.769 5.4318 21.0463 5.4318 C 21.3176 5.4318 21.4983 5.269 21.4983 5.058 C 21.4983 4.8531 21.3297 4.6842 21.0463 4.6842 Z M 20.787 6.933 C 20.5217 7.0657 20.4614 7.2104 20.4614 7.3068 C 20.4614 7.524 20.7327 7.6987 21.1849 7.6987 C 21.6732 7.6987 21.8662 7.4998 21.8662 7.331 C 21.8662 7.1501 21.6431 7.12 21.203 7.0296 C 21.0463 6.9994 20.9076 6.9693 20.7869 6.933 Z " stroke-width="1" fill="#fdfdfd" stroke="none"/><path d="M 23.144 6.3604 L 23.144 4.4733 C 23.1444 4.2272 23.344 4.0279 23.5901 4.0279 C 23.8362 4.0279 24.0358 4.2272 24.0363 4.4733 L 24.0363 4.5033 C 24.2352 4.1296 24.4704 3.997 24.7417 3.997 C 24.855 3.994 24.9647 4.0373 25.0455 4.1169 C 25.1262 4.1965 25.1711 4.3056 25.1697 4.419 C 25.1727 4.5361 25.1283 4.6495 25.0466 4.7335 C 24.9649 4.8175 24.8528 4.8649 24.7356 4.8652 C 24.4553 4.8485 24.1879 4.9845 24.0363 5.2208 L 24.0363 6.3604 C 24.0352 6.6073 23.837 6.8081 23.5901 6.8124 C 23.3423 6.8102 23.1429 6.6081 23.144 6.3603 Z " stroke-width="1" fill="#fdfdfd" stroke="none"/><path d="M 26.9419 5.1425 L 26.9419 5.0641 C 26.9419 4.8349 26.8094 4.7566 26.5018 4.7566 C 26.3713 4.7571 26.2415 4.7753 26.116 4.8109 C 26.0416 4.834 25.9646 4.8482 25.8868 4.8531 C 25.792 4.858 25.6993 4.8242 25.6299 4.7594 C 25.5606 4.6946 25.5206 4.6043 25.5191 4.5094 C 25.5156 4.358 25.6072 4.2206 25.7482 4.1657 C 26.0285 4.0549 26.3271 3.9977 26.6285 3.997 C 27.3338 3.997 27.786 4.3345 27.786 4.9977 L 27.786 6.3844 C 27.7897 6.6008 27.6287 6.7847 27.4137 6.8096 C 27.1987 6.8345 26.9999 6.6923 26.954 6.4808 C 26.7257 6.7033 26.4225 6.8323 26.1039 6.8426 C 25.8918 6.855 25.684 6.7792 25.5299 6.633 C 25.3757 6.4868 25.2889 6.2834 25.29 6.0709 C 25.29 5.679 25.5252 5.456 25.8568 5.3233 C 26.2079 5.211 26.5734 5.1501 26.9419 5.1425 Z M 26.9419 5.6429 C 26.7973 5.6609 26.6586 5.679 26.52 5.7091 C 26.2487 5.7634 26.1401 5.8358 26.1401 5.9624 C 26.1401 6.0891 26.2366 6.1613 26.3994 6.1613 C 26.5946 6.1484 26.7824 6.0816 26.9419 5.9685 Z " stroke-width="1" fill="#fdfdfd" stroke="none"/><path d="M 28.304 5.4198 C 28.304 4.6721 28.7865 3.997 29.5521 3.997 C 29.8262 3.9877 30.0929 4.0874 30.2936 4.2743 L 30.2936 2.9359 C 30.2915 2.7751 30.376 2.6255 30.5149 2.5445 C 30.6539 2.4634 30.8257 2.4634 30.9646 2.5445 C 31.1035 2.6255 31.1881 2.7751 31.1859 2.9359 L 31.1859 6.3723 C 31.1901 6.4881 31.1467 6.6007 31.0659 6.6838 C 30.9851 6.7669 30.8738 6.8133 30.7579 6.8124 C 30.5497 6.8174 30.3697 6.6683 30.3359 6.4628 C 30.1483 6.7049 29.8584 6.8454 29.5521 6.8426 C 28.7865 6.8426 28.304 6.1613 28.304 5.4198 Z M 29.3637 4.9729 C 29.2534 5.0946 29.1973 5.2559 29.2084 5.4198 C 29.1984 5.5834 29.2548 5.7441 29.3649 5.8656 C 29.4749 5.987 29.6294 6.0589 29.7932 6.0649 C 30.0066 6.0602 30.1996 5.937 30.2936 5.7454 L 30.2936 5.0761 C 30.1939 4.8922 30.0024 4.7768 29.7932 4.7746 C 29.629 4.7796 29.474 4.8512 29.3637 4.9729 Z " stroke-width="1" fill="#fdfdfd" stroke="none"/><path d="M 31.734 5.4259 C 31.734 4.5878 32.331 3.997 33.1749 3.997 C 33.5058 3.9794 33.8291 4.0998 34.0679 4.3295 C 34.3067 4.5591 34.4396 4.8775 34.435 5.2088 C 34.4432 5.318 34.4086 5.4261 34.3385 5.5102 C 34.2348 5.6022 34.096 5.644 33.9587 5.6248 L 32.6203 5.6248 C 32.7047 5.9142 32.9518 6.077 33.3498 6.077 C 33.4613 6.0772 33.5725 6.065 33.6814 6.0407 C 33.7623 6.0202 33.8452 6.0081 33.9286 6.0046 C 34.0211 6.0038 34.1099 6.0406 34.1746 6.1065 C 34.2394 6.1725 34.2746 6.2619 34.2722 6.3543 C 34.2721 6.5161 34.171 6.6605 34.019 6.716 C 33.7754 6.8031 33.5181 6.846 33.2594 6.8426 C 32.3972 6.8426 31.734 6.288 31.734 5.4259 Z M 32.6083 5.1123 L 33.6693 5.1123 C 33.6668 4.9819 33.6102 4.8584 33.513 4.7715 C 33.4158 4.6846 33.2868 4.6421 33.1569 4.6542 C 32.8829 4.6414 32.6447 4.8404 32.6083 5.1123 Z " stroke-width="1" fill="#fdfdfd" stroke="none"/></g></g></g></svg>