<svg xmlns="http://www.w3.org/2000/svg" xmlns:xlink="http://www.w3.org/1999/xlink" version="1.1" width="17.125" height="17.125" viewBox="0,0,17.125,17.125"><defs><linearGradient x1="231.4375" y1="180" x2="248.5625" y2="180" gradientUnits="userSpaceOnUse" id="color-1"><stop offset="0" stop-color="#9966ff" stop-opacity="0"/><stop offset="1" stop-color="#9966ff" stop-opacity="0"/></linearGradient></defs><g><g data-paper-data="{&quot;isPaintingLayer&quot;:true}" fill-rule="nonzero" stroke-linecap="butt" stroke-linejoin="miter" stroke-miterlimit="10" stroke-dasharray="" stroke-dashoffset="0" style="mix-blend-mode: normal"><path d="M 14.1174 1.8319 C 14.1037 2.2956 13.9778 2.7491 13.7505 3.1535 L 7.8524 15.9283 C 7.5204 16.6219 6.8101 17.0539 6.0416 17.0296 C 5.1272 16.9922 4.41 16.2315 4.4264 15.3166 C 4.4293 14.994 4.5045 14.6762 4.6464 14.3865 L 9.8593 3.5696 L 4.7443 3.5696 C 3.7846 3.5696 3.0067 2.7916 3.0067 1.832 C 3.0067 0.8724 3.7847 0.0945 4.7443 0.0945 L 12.4532 0.0945 C 12.9059 0.0993 13.3375 0.2863 13.6507 0.6132 C 13.9638 0.9402 14.132 1.3795 14.1174 1.8319 Z " fill="#fcfcfc" stroke-width="1" stroke="none"/><path d="M231.4375,188.5625v-17.125h17.125v17.125z" fill="url(#color-1)" stroke-width="0" stroke="none" transform="matrix(1,0,0,1,-231.4375,-171.4375)"/></g></g></svg>