<svg xmlns="http://www.w3.org/2000/svg" xmlns:xlink="http://www.w3.org/1999/xlink" version="1.1" width="24.22534" height="25.02562" viewBox="0,0,24.22534,25.02562"><g><g data-paper-data="{&quot;isPaintingLayer&quot;:true}" fill-rule="nonzero" stroke-linecap="round" stroke-linejoin="miter" stroke-miterlimit="10" stroke-dasharray="" stroke-dashoffset="0" style="mix-blend-mode: normal"><path d="M233.01566,190.94754l2.34646,-7.83581l-6.07838,-5.3275l7.84117,-0.51364l3.13647,-8.21814l3.33103,8.21814h7.12387l-6.07838,5.51867l2.74736,7.83581l-7.31842,-4.62271z" fill="#e62e2e" stroke="#fdff00" stroke-width="0" transform="matrix(1,0,0,1,-227.77819,-167.15979)"/><path d="M 9.1298 10.2211 L 12.0399 2 " fill="none" stroke="#e62e2e" stroke-width="4"/><path d="M 15.4593 9.8573 L 12.2582 2.5093 " fill="none" stroke="#e62e2e" stroke-width="4"/><path d="M 15.5321 10.0028 L 22.0798 10.0756 " fill="none" stroke="#e62e2e" stroke-width="4"/><path d="M 16.6234 15.3138 L 22.2253 10.3666 " fill="none" stroke="#e62e2e" stroke-width="4"/><path d="M 16.4051 15.5321 L 19.0242 22.5891 " fill="none" stroke="#e62e2e" stroke-width="4"/><path d="M 12.4764 18.2239 L 18.6604 22.4436 " fill="none" stroke="#e62e2e" stroke-width="4"/><path d="M 12.3309 18.1512 L 5.5649 23.0256 " fill="none" stroke="#e62e2e" stroke-width="4"/><path d="M 2 10.9486 L 8.1113 15.6776 L 5.5649 22.7346 " fill="none" stroke="#e62e2e" stroke-width="4"/><path d="M 2.0728 10.6576 L 8.9843 10.5121 " fill="none" stroke="#e62e2e" stroke-width="4"/></g></g></svg>