<svg xmlns="http://www.w3.org/2000/svg" xmlns:xlink="http://www.w3.org/1999/xlink" version="1.1" width="46.85884" height="30.32941" viewBox="0,0,46.85884,30.32941"><g><g data-paper-data="{&quot;isPaintingLayer&quot;:true}" fill-rule="nonzero" stroke-linecap="butt" stroke-linejoin="miter" stroke-miterlimit="10" stroke-dasharray="" stroke-dashoffset="0" style="mix-blend-mode: normal"><path d="M 46.5827 25.0828 C 46.5769 25.1994 46.5652 25.3156 46.5473 25.4307 C 45.9898 26.482 45.4076 27.3904 44.1094 27.3886 C 27.1053 27.3739 19.6924 27.3708 2.6883 27.3792 C 1.9198 27.3805 1.2007 26.9539 0.7681 26.2402 C 0.5935 25.9869 0.4393 25.7159 0.2758 25.453 C 0.2668 19.1883 0.2582 12.9235 0.25 6.6588 C 0.2484 5.4292 0.2443 4.1996 0.2512 2.97 C 0.2828 1.4745 1.3597 0.2738 2.691 0.25 C 19.7145 0.2473 27.147 0.2472 44.1706 0.2497 C 45.4535 0.2085 46.5278 1.3333 46.5816 2.774 C 46.5846 10.2103 46.5849 17.6466 46.5827 25.0828 Z " fill="#92796b" stroke="#92796b" stroke-width="0.5"/><path d="M216.60694,190.70552c0.16406,0.23401 0.31874,0.47525 0.49397,0.70063c0.43395,0.63524 1.15546,1.01493 1.92651,1.01381c17.06007,-0.00749 24.78877,-0.00472 41.84883,0.00834c1.30257,0.00161 1.88665,-0.80687 2.44601,-1.7426c0.33697,1.73533 -0.08478,3.77577 -1.56699,4.55302c-0.23328,0.11227 -0.4917,0.16255 -0.75021,0.14599c-17.10485,0.0014 -24.87832,0.00114 -41.98316,-0.0008c-1.32488,-0.0542 -2.38694,-2.26537 -2.44288,-3.58582c-0.00257,-0.3641 0.01799,-0.72837 0.02793,-1.09256z" fill="#725f54" stroke="#725f54" stroke-width="0" transform="matrix(1,0,0,1,-216.57256,-165.05839)"/><g><path d="M 13.7786 5.5419 L 13.7786 3.3838 C 13.7789 3.2477 13.8335 3.1173 13.9304 3.0216 C 14.0273 2.9259 14.1584 2.8729 14.2946 2.8744 C 14.4307 2.8729 14.5619 2.9259 14.6588 3.0215 C 14.7557 3.1172 14.8104 3.2476 14.8107 3.3838 L 14.8107 5.5353 C 14.8107 6.3395 15.2664 6.6144 15.7558 6.6144 C 16.225 6.6144 16.7008 6.3262 16.7008 5.5353 L 16.7008 3.3569 C 16.7197 3.0803 16.9531 2.8676 17.2302 2.8744 C 17.3601 2.8722 17.4855 2.9219 17.5786 3.0125 C 17.6718 3.1031 17.7249 3.227 17.7262 3.3569 L 17.7262 5.5419 C 17.7262 6.8825 16.7611 7.5259 15.7491 7.5259 C 14.7302 7.5259 13.7786 6.8825 13.7786 5.5419 Z " stroke-width="1" fill="#fdfdfd" stroke="none"/><path d="M 21.3855 5.4683 L 21.3855 6.9965 C 21.3878 7.1752 21.2938 7.3414 21.1394 7.4315 C 20.9849 7.5216 20.794 7.5216 20.6396 7.4315 C 20.4851 7.3414 20.3911 7.1752 20.3935 6.9965 L 20.3935 5.6961 C 20.3935 5.4213 20.2861 5.2136 19.9845 5.2136 C 19.7545 5.2229 19.5519 5.3677 19.4685 5.5822 L 19.4685 6.9965 C 19.4709 7.1752 19.3768 7.3414 19.2224 7.4315 C 19.068 7.5215 18.877 7.5215 18.7226 7.4315 C 18.5682 7.3414 18.4742 7.1752 18.4765 6.9965 L 18.4765 4.8985 C 18.4762 4.7669 18.5283 4.6405 18.6214 4.5474 C 18.7145 4.4544 18.8409 4.4022 18.9725 4.4025 C 19.2143 4.4052 19.42 4.5798 19.4618 4.818 C 19.678 4.5368 20.0119 4.3711 20.3666 4.3691 C 20.9028 4.3691 21.3855 4.7243 21.3855 5.4683 Z " stroke-width="1" fill="#fdfdfd" stroke="none"/><path d="M 22.1221 6.9965 L 22.1221 3.1894 C 22.1202 2.9162 22.3382 2.6922 22.6114 2.6867 C 22.8882 2.6887 23.1121 2.9126 23.1141 3.1894 L 23.1141 6.9965 C 23.1165 7.1752 23.0225 7.3414 22.8681 7.4315 C 22.7136 7.5216 22.5227 7.5216 22.3682 7.4315 C 22.2138 7.3414 22.1198 7.1752 22.1221 6.9965 Z " stroke-width="1" fill="#fdfdfd" stroke="none"/><path d="M 23.7103 5.9374 C 23.7103 5.0058 24.4476 4.3691 25.3459 4.3691 C 26.2507 4.3691 26.9812 5.0058 26.9812 5.9374 C 26.9591 6.8248 26.2334 7.5327 25.3458 7.5327 C 24.4581 7.5327 23.7324 6.8248 23.7103 5.9374 Z M 25.9759 5.9374 C 25.9759 5.4549 25.6676 5.2136 25.3458 5.2136 C 25.0241 5.2136 24.7158 5.4549 24.7158 5.9374 C 24.7158 6.4267 25.0241 6.6882 25.3458 6.6882 C 25.6676 6.6882 25.9759 6.4267 25.9759 5.9374 Z " stroke-width="1" fill="#fdfdfd" stroke="none"/><path d="M 27.4163 5.9509 C 27.4163 4.999 28.1268 4.3624 29.0585 4.3624 C 29.3595 4.3546 29.6567 4.4312 29.9164 4.5835 C 30.0538 4.6689 30.1394 4.8174 30.1443 4.979 C 30.15 5.0921 30.1085 5.2025 30.0297 5.2838 C 29.9509 5.3651 29.842 5.4101 29.7288 5.408 C 29.6228 5.4044 29.5183 5.3817 29.4204 5.341 C 29.3155 5.301 29.2042 5.2806 29.092 5.2806 C 28.9129 5.272 28.7384 5.3389 28.611 5.4651 C 28.4836 5.5912 28.4149 5.765 28.4217 5.9442 C 28.4179 6.1337 28.4944 6.3161 28.6322 6.4463 C 28.7701 6.5765 28.9565 6.6424 29.1456 6.6278 C 29.2465 6.6307 29.3469 6.6124 29.4404 6.5742 C 29.5237 6.541 29.6122 6.5228 29.7019 6.5205 C 29.8138 6.5124 29.9239 6.5524 30.0045 6.6305 C 30.0851 6.7085 30.1286 6.8173 30.1241 6.9294 C 30.1164 7.1336 29.987 7.3131 29.7958 7.3851 C 29.564 7.4885 29.3122 7.5389 29.0585 7.5326 C 28.1335 7.5326 27.4163 6.9026 27.4163 5.9509 Z " stroke-width="1" fill="#fdfdfd" stroke="none"/><path d="M 33.743 7.0299 C 33.7438 7.1581 33.6919 7.281 33.5993 7.3697 C 33.5068 7.4585 33.3818 7.5052 33.2538 7.499 C 33.0938 7.4934 32.9455 7.4143 32.8517 7.2846 L 32.101 6.3195 L 31.7056 6.5608 L 31.7056 6.9965 C 31.7079 7.1752 31.6139 7.3414 31.4595 7.4315 C 31.3051 7.5216 31.1141 7.5216 30.9597 7.4315 C 30.8053 7.3414 30.7112 7.1752 30.7136 6.9965 L 30.7136 3.1894 C 30.7112 3.0106 30.8052 2.8444 30.9597 2.7543 C 31.1141 2.6642 31.3051 2.6642 31.4595 2.7543 C 31.614 2.8444 31.708 3.0106 31.7056 3.1894 L 31.7056 5.589 L 32.9053 4.5366 C 32.9957 4.4507 33.1157 4.4027 33.2405 4.4026 C 33.4841 4.4102 33.6788 4.6079 33.6827 4.8517 C 33.6791 5.0019 33.6076 5.1423 33.4883 5.2336 L 32.8517 5.7832 L 33.5688 6.6546 C 33.6714 6.7538 33.7335 6.8875 33.7431 7.0299 Z " stroke-width="1" fill="#fdfdfd" stroke="none"/></g></g></g></svg>