<svg xmlns="http://www.w3.org/2000/svg" xmlns:xlink="http://www.w3.org/1999/xlink" version="1.1" width="194.41317" height="78.65734" viewBox="0,0,194.41317,78.65734"><g><g data-paper-data="{&quot;isPaintingLayer&quot;:true}" fill-rule="nonzero" stroke-linecap="butt" stroke-linejoin="miter" stroke-miterlimit="10" stroke-dasharray="" stroke-dashoffset="0" style="mix-blend-mode: normal"><path d="M 194.4132 78.6573 L 0.0003 78.6573 C -0.0003 62.3075 0 45.9577 0.0012 29.6079 C 0.0013 29.2371 0.0176 28.8663 0.0262 28.4956 L 194.3872 28.4956 C 194.3959 28.8664 194.4122 29.2371 194.4122 29.6079 C 194.4129 45.9577 194.4132 62.3075 194.4132 78.6573 Z " fill="#eec0f9" stroke-width="1" stroke="none"/><path d="M 194.3881 25.0538 L 194.3881 28.4965 L 0.0262 28.4965 L 0.0262 25.0747 L 6.0952 25.0747 C 6.1432 25.0768 6.1891 25.0768 6.2329 25.0747 L 57.3005 25.0747 L 57.3005 25.0538 C 64.2867 25.0545 71.2736 25.0538 78.2611 25.0517 C 78.5472 25.0517 78.8353 25.035 79.1213 25.0267 C 80.2521 25.0253 81.3823 25.0246 82.5117 25.0246 C 82.5891 25.0372 82.6672 25.0455 82.7455 25.0496 C 94.1549 25.0469 105.5642 25.0434 116.9736 25.0392 L 120.5144 25.0329 C 120.8797 25.0392 121.243 25.0517 121.6083 25.0517 C 131.8172 25.0538 142.0262 25.0538 152.2351 25.0517 C 153.0931 25.0517 153.9533 25.0371 154.8113 25.0288 C 155.1516 25.0371 155.4898 25.0517 155.828 25.0517 C 168.6807 25.0531 181.534 25.0538 194.3881 25.0538 Z " fill="#c908e7" stroke-width="1" stroke="none"/><path d="M 44.6654 25.0528 C 44.6646 20.7284 44.6571 16.404 44.6648 12.0797 C 44.6722 7.8815 46.5839 4.6601 49.893 2.2345 C 51.4064 1.127 53.1571 0.3873 55.0061 0.0741 C 56.7757 0.0559 58.5452 0.0377 60.3147 0.0194 C 62.6133 0.0191 64.9119 0.0188 67.2105 0.0185 C 68.6202 0.0435 70.0125 0.3357 71.3134 0.8794 C 74.0581 1.9899 76.3186 4.0399 77.6912 6.6634 C 78.2722 7.8511 78.7136 9.1021 79.0065 10.3915 L 79.0152 25.0521 C 78.7288 25.0609 78.4424 25.0773 78.156 25.0774 C 67.2789 25.0787 56.4017 25.0787 45.5246 25.0774 C 45.2382 25.0774 44.9518 25.0614 44.6654 25.0528 Z M 56.8727 13.9595 C 57.7069 13.9366 58.5438 13.9857 59.3765 13.9438 C 60.067 13.9091 60.0921 14.1135 59.8334 14.6914 C 58.8547 16.8779 57.9208 19.0846 56.9853 21.2902 C 56.8767 21.5461 56.6284 21.8052 56.8685 22.2506 L 67.5053 9.9703 C 66.1504 9.9703 65.0145 9.9807 63.879 9.9632 C 63.586 9.9587 63.1747 10.1312 63.0269 9.8152 C 62.913 9.5716 63.2672 9.3379 63.4029 9.0942 C 63.4475 9.03 63.4958 8.9684 63.5475 8.9098 C 64.9011 7.0354 66.2542 5.1605 67.6229 3.2644 C 67.4884 3.2035 67.4196 3.1451 67.3506 3.1449 C 65.1071 3.1377 62.8636 3.1391 60.6202 3.1303 C 60.3537 3.1142 60.1161 3.2971 60.0636 3.5589 C 58.8386 6.7972 57.6054 10.0324 56.3641 13.2644 C 56.1597 13.7966 56.3274 13.9744 56.8728 13.9594 Z " fill="#c908e7" stroke-width="1" stroke="none"/><path d="M 55.0061 0.0741 C 53.1571 0.3873 51.4064 1.127 49.893 2.2345 C 46.5839 4.6601 44.6723 7.8815 44.6648 12.0797 C 44.6571 16.404 44.6646 20.7284 44.6654 25.0528 C 43.7566 25.0614 42.8456 25.0349 41.9397 25.0911 C 41.3525 25.1275 41.2023 24.942 41.2054 24.3588 C 41.2301 19.7105 41.2195 15.0621 41.2198 10.4136 C 41.4806 9.377 41.8058 8.3577 42.1935 7.3615 C 43.4325 4.655 45.5646 2.4569 48.232 1.1359 C 50.0464 0.2892 52.0423 -0.0943 54.0413 0.0196 Z " fill="#9606ad" stroke-width="1" stroke="none"/><path d="M 67.6228 3.2644 C 66.2542 5.1606 64.9011 7.0354 63.5474 8.9098 C 63.4958 8.9685 63.4475 9.03 63.4029 9.0942 C 63.2672 9.3379 62.913 9.5716 63.0269 9.8152 C 63.1747 10.1312 63.586 9.9587 63.879 9.9632 C 65.0145 9.9807 66.1504 9.9703 67.5053 9.9703 C 63.8779 14.1581 60.3992 18.1743 56.8684 22.2506 C 56.6284 21.8052 56.8767 21.5461 56.9852 21.2902 C 57.9208 19.0846 58.8547 16.8779 59.8334 14.6914 C 60.0921 14.1135 60.067 13.9091 59.3765 13.9438 C 58.5438 13.9857 57.7069 13.9366 56.8727 13.9595 C 56.3273 13.9744 56.1596 13.7967 56.364 13.2645 C 57.6053 10.0324 58.8385 6.7973 60.0635 3.5589 C 60.116 3.2972 60.3536 3.1142 60.6201 3.1303 C 62.8636 3.1391 65.107 3.1378 67.3505 3.145 C 67.4195 3.1452 67.4883 3.2035 67.6228 3.2644 Z " fill="#fafcfe" stroke-width="1" stroke="none"/><g><path d="M 20.6475 40.7871 C 20.6475 41.1759 20.3323 41.4911 19.9435 41.4911 C 19.5547 41.4911 19.2395 41.1759 19.2395 40.7871 L 19.2395 35.9322 C 19.2335 35.7484 19.3019 35.57 19.4293 35.4375 C 19.5567 35.3049 19.7323 35.2294 19.9161 35.2281 L 22.4579 35.2281 C 22.6822 35.2249 22.8908 35.3427 23.0039 35.5364 C 23.1169 35.7301 23.1169 35.9697 23.0039 36.1634 C 22.8908 36.3572 22.6822 36.475 22.4579 36.4717 L 20.6475 36.4717 L 20.6475 37.9253 L 22.2019 37.9253 C 22.4196 37.9221 22.6222 38.0364 22.732 38.2244 C 22.8418 38.4125 22.8418 38.6451 22.732 38.8331 C 22.6222 39.0212 22.4196 39.1355 22.2019 39.1323 L 20.6475 39.1323 L 20.6475 40.7871 Z " stroke-width="1" fill="#191919" stroke="none"/><path d="M 23.9438 36.4086 C 23.8093 36.2758 23.7346 36.0938 23.7371 35.9047 C 23.7372 35.5171 24.0506 35.2024 24.4382 35.2008 C 24.8258 35.1991 25.1418 35.5111 25.1452 35.8987 C 25.1485 36.2863 24.838 36.6037 24.4504 36.6088 C 24.2613 36.6138 24.0784 36.5415 23.9438 36.4086 Z " stroke-width="1" fill="#191919" stroke="none"/><path d="M 25.127 37.9436 L 25.127 40.8054 C 25.1302 41.0493 25.0019 41.276 24.7913 41.3988 C 24.5806 41.5217 24.3201 41.5217 24.1095 41.3988 C 23.8988 41.2759 23.7706 41.0492 23.7738 40.8054 L 23.7738 37.9436 C 23.7793 37.5723 24.079 37.2726 24.4504 37.2671 C 24.8231 37.2694 25.1246 37.571 25.127 37.9436 Z " stroke-width="1" fill="#191919" stroke="none"/><path d="M 27.4854 37.9436 L 27.4854 37.9893 C 27.7871 37.4225 28.1437 37.2214 28.5551 37.2214 C 28.727 37.2169 28.8934 37.2825 29.0158 37.4033 C 29.1383 37.524 29.2063 37.6894 29.2042 37.8614 C 29.2088 38.039 29.1415 38.2109 29.0176 38.3383 C 28.8937 38.4656 28.7236 38.5376 28.5459 38.538 C 28.1209 38.5127 27.7154 38.7189 27.4854 39.0773 L 27.4854 40.8054 C 27.4886 41.0492 27.3604 41.2759 27.1497 41.3988 C 26.9391 41.5217 26.6786 41.5217 26.4679 41.3988 C 26.2573 41.2759 26.129 41.0492 26.1322 40.8054 L 26.1322 37.9436 C 26.1318 37.7641 26.203 37.5917 26.3299 37.4647 C 26.4569 37.3378 26.6293 37.2666 26.8088 37.2671 C 27.1815 37.2694 27.4831 37.5709 27.4854 37.9436 Z " stroke-width="1" fill="#191919" stroke="none"/><path d="M 32.8244 39.6899 L 30.7946 39.6899 C 30.9228 40.1288 31.2975 40.3757 31.901 40.3757 C 32.0701 40.376 32.2388 40.3575 32.4038 40.3207 C 32.5266 40.2895 32.6523 40.2712 32.7788 40.2659 C 32.919 40.2647 33.0536 40.3205 33.1519 40.4205 C 33.2501 40.5205 33.3035 40.6561 33.2998 40.7962 C 33.2997 41.0415 33.1463 41.2606 32.9159 41.3447 C 32.5464 41.4768 32.1563 41.5418 31.7639 41.5368 C 30.4564 41.5368 29.4506 40.6956 29.4506 39.3883 C 29.4506 38.1174 30.356 37.2214 31.6358 37.2214 C 32.1375 37.1948 32.6279 37.3773 32.99 37.7256 C 33.3522 38.0739 33.5537 38.5567 33.5466 39.0591 C 33.559 39.2247 33.5066 39.3886 33.4004 39.5162 C 33.2431 39.6556 33.0326 39.7191 32.8244 39.6899 Z M 32.3855 38.9127 C 32.3817 38.715 32.2959 38.5278 32.1484 38.396 C 32.001 38.2642 31.8054 38.1997 31.6085 38.218 C 31.193 38.1987 30.8317 38.5004 30.7765 38.9127 Z " stroke-width="1" fill="#191919" stroke="none"/><path d="M 38.7114 41.5368 C 38.3188 41.5582 37.9369 41.4041 37.669 41.1162 L 37.669 43.0637 C 37.6723 43.3075 37.5441 43.5342 37.3334 43.6571 C 37.1228 43.78 36.8623 43.78 36.6517 43.6571 C 36.441 43.5343 36.3128 43.3075 36.3161 43.0637 L 36.3161 37.9345 C 36.3072 37.5847 36.5764 37.2905 36.9256 37.2683 C 37.2747 37.2462 37.5789 37.5041 37.6143 37.8522 C 37.8664 37.4555 38.3054 37.2171 38.7754 37.2214 C 39.8909 37.2214 40.6497 38.1996 40.6497 39.3791 C 40.6497 40.4671 39.9184 41.5368 38.7114 41.5368 Z M 38.4098 40.3573 C 38.9127 40.3573 39.2782 39.9184 39.2782 39.3791 C 39.2782 38.8304 38.9127 38.4007 38.4189 38.4007 C 38.0945 38.4146 37.8051 38.6087 37.669 38.9035 L 37.669 39.8911 C 37.8082 40.1739 38.0947 40.3542 38.4098 40.3573 Z " stroke-width="1" fill="#191919" stroke="none"/><path d="M 45.7048 39.3608 C 45.6746 40.5712 44.6848 41.5367 43.474 41.5367 C 42.2632 41.5367 41.2733 40.5712 41.2432 39.3608 C 41.2432 38.0899 42.2487 37.2214 43.474 37.2214 C 44.7082 37.2214 45.7048 38.0899 45.7048 39.3608 Z M 44.3335 39.3608 C 44.3335 38.7025 43.9129 38.3734 43.474 38.3734 C 43.0351 38.3734 42.6145 38.7025 42.6145 39.3608 C 42.6145 40.0282 43.0351 40.3848 43.474 40.3848 C 43.9129 40.3848 44.3335 40.0282 44.3335 39.3608 Z " stroke-width="1" fill="#191919" stroke="none"/><path d="M 50.0745 40.9333 C 49.9282 40.595 49.6081 39.7905 49.3612 39.1504 C 49.1327 39.7905 48.8311 40.595 48.7121 40.9333 C 48.6295 41.2639 48.3307 41.4946 47.9899 41.4909 C 47.67 41.4909 47.4321 41.3355 47.2675 40.915 L 46.1614 38.2269 C 46.1154 38.1264 46.0905 38.0175 46.0881 37.907 C 46.0978 37.5505 46.3899 37.2666 46.7465 37.2671 C 47.0324 37.2665 47.2896 37.4405 47.3956 37.706 C 47.6495 38.3554 47.8692 39.0176 48.0539 39.6899 L 48.0722 39.6899 C 48.1909 39.3883 48.5384 38.3917 48.8311 37.6785 C 48.9149 37.428 49.1521 37.2612 49.4162 37.2671 C 49.6957 37.257 49.9485 37.4318 50.0378 37.6968 C 50.3305 38.419 50.6869 39.4247 50.7967 39.6899 L 50.815 39.6899 C 50.9065 39.3972 51.1166 38.5563 51.4549 37.6968 C 51.5579 37.4002 51.8609 37.2222 52.1701 37.2768 C 52.4792 37.3313 52.7031 37.6022 52.6983 37.9162 C 52.6966 38.0288 52.6749 38.1402 52.6344 38.2453 L 51.5281 40.9516 C 51.3727 41.3264 51.135 41.4909 50.815 41.4909 C 50.4676 41.4909 50.2482 41.3355 50.0745 40.9333 Z " stroke-width="1" fill="#191919" stroke="none"/><path d="M 56.4827 39.6899 L 54.4529 39.6899 C 54.581 40.1288 54.9558 40.3757 55.5593 40.3757 C 55.7284 40.376 55.8971 40.3575 56.0621 40.3207 C 56.1849 40.2895 56.3105 40.2712 56.4371 40.2659 C 56.5772 40.2647 56.7119 40.3205 56.8101 40.4205 C 56.9084 40.5205 56.9618 40.6561 56.9581 40.7962 C 56.9579 41.0415 56.8046 41.2606 56.5741 41.3447 C 56.2046 41.4768 55.8145 41.5418 55.4222 41.5368 C 54.1146 41.5368 53.1089 40.6956 53.1089 39.3883 C 53.1089 38.1174 54.0142 37.2214 55.2941 37.2214 C 55.7958 37.1948 56.2862 37.3773 56.6483 37.7256 C 57.0105 38.0739 57.212 38.5567 57.2049 39.0591 C 57.2173 39.2247 57.1649 39.3886 57.0587 39.5162 C 56.9014 39.6556 56.6909 39.7191 56.4827 39.6899 Z M 56.0438 38.9127 C 56.04 38.715 55.9541 38.5278 55.8067 38.396 C 55.6593 38.2642 55.4637 38.1997 55.2668 38.218 C 54.8513 38.1987 54.49 38.5004 54.4348 38.9127 Z " stroke-width="1" fill="#191919" stroke="none"/><path d="M 59.3438 39.0773 L 59.3438 40.8054 C 59.347 41.0492 59.2188 41.2759 59.0081 41.3988 C 58.7975 41.5217 58.537 41.5217 58.3263 41.3988 C 58.1157 41.2759 57.9874 41.0492 57.9906 40.8054 L 57.9906 37.9436 C 57.9906 37.57 58.2935 37.267 58.6672 37.267 C 59.0409 37.267 59.3438 37.57 59.3438 37.9436 L 59.3438 37.9893 C 59.6454 37.4224 60.0021 37.2214 60.4135 37.2214 C 60.5854 37.2169 60.7517 37.2825 60.8742 37.4033 C 60.9967 37.524 61.0647 37.6894 61.0626 37.8614 C 61.0671 38.039 60.9998 38.2109 60.8759 38.3383 C 60.752 38.4656 60.582 38.5376 60.4043 38.5379 C 59.9793 38.5127 59.5738 38.7189 59.3438 39.0773 Z " stroke-width="1" fill="#191919" stroke="none"/></g></g></g></svg>