<svg version="1.1" xmlns="http://www.w3.org/2000/svg" xmlns:xlink="http://www.w3.org/1999/xlink" width="398.93189" height="302.99192" viewBox="0,0,398.93189,302.99192"><g transform="translate(51.28191,-31.7908)"><g data-paper-data="{&quot;isPaintingLayer&quot;:true}" fill-rule="nonzero" stroke="none" stroke-width="1" stroke-linecap="butt" stroke-linejoin="miter" stroke-miterlimit="10" stroke-dasharray="" stroke-dashoffset="0" style="mix-blend-mode: normal"><path d="M165.6939,59.41557c-1.2218,-0.6152 -2.0107,-1.8478 -2.0576,-3.2149c-0.0024,-0.7772 0.3113,-1.5219 0.8689,-2.0633c0.5576,-0.5414 1.3113,-0.833 2.0881,-0.8078c0.9242,0.0609 1.8074,0.405 2.5293,0.9854c1.4545,1.0276 3.1907,1.5815 4.9717,1.5859c2.3144,0 3.8144,-1.1572 3.8144,-2.7432c0,-2.0146 -2.5713,-2.6142 -5.2715,-3.6435c-5.0576,-1.9287 -7.9297,-4.2432 -7.9297,-8.915c0,-5.1006 3.6006,-8.7871 9.9873,-8.7871c2.199,-0.125 4.3943,0.3024 6.3858,1.2431c1.2697,0.4825 2.1523,1.648 2.2725,3.001c0.0461,0.7277 -0.1991,1.4439 -0.6817,1.9906c-0.4825,0.5467 -1.1628,0.8789 -1.8906,0.9234c-0.7716,-0.0415 -1.528,-0.2305 -2.2285,-0.5566c-1.2112,-0.5031 -2.5045,-0.7792 -3.8155,-0.8144c-2.2714,0 -3.5565,1.1142 -3.5565,2.5283c0,2.1006 2.4853,2.7861 5.4863,3.9004c3.9433,1.458 7.6719,3.4716 7.6719,8.7441c0,5.8291 -4.586,8.958 -10.501,8.958c-2.8743,-0.0181 -5.6894,-0.8182 -8.1436,-2.3144z" fill="#fbfbfb"/><path d="M206.40869,50.20067c0.0583,0.7761 -0.1876,1.5445 -0.6855,2.1426c-0.7374,0.6537 -1.7243,0.9514 -2.7002,0.8145h-9.5156c0.6006,2.0576 2.3574,3.2148 5.1865,3.2148c0.7929,0.0016 1.5836,-0.0849 2.3574,-0.2578c0.5755,-0.146 1.1646,-0.232 1.7578,-0.2568c0.6572,-0.0057 1.2884,0.2559 1.749,0.7247c0.4605,0.4688 0.7108,1.1046 0.6934,1.7616c-0.0006,1.1499 -0.7195,2.177 -1.7998,2.5713c-1.7322,0.6191 -3.561,0.924 -5.4004,0.9004c-6.1299,0 -10.8447,-3.9434 -10.8447,-10.0723c0,-5.958 4.2441,-10.1582 10.2441,-10.1582c2.3522,-0.1251 4.651,0.7307 6.3487,2.3635c1.6978,1.6328 2.6426,3.8964 2.6093,6.2517zM200.9654,49.51417c-0.0177,-0.9269 -0.4203,-1.8045 -1.1114,-2.4224c-0.6911,-0.6179 -1.6082,-0.9202 -2.5312,-0.8344c-1.9481,-0.0904 -3.6418,1.3239 -3.9004,3.2568z" fill="#fbfbfb"/><path d="M225.6509,58.17237c0,1.2002 -0.7285,1.9287 -2.0146,2.5723c-1.4551,0.6548 -3.0334,0.9908 -4.6289,0.9853c-5.0147,0 -7.458,-2.3574 -7.458,-6.5576v-7.8867h-1.457c-0.5029,0.0214 -0.9929,-0.163 -1.3568,-0.5107c-0.3639,-0.3477 -0.5705,-0.8287 -0.5719,-1.3321c0.0202,-0.6898 0.3709,-1.3279 0.9423,-1.7148l5.4014,-4.543c0.4104,-0.4137 0.9609,-0.6587 1.543,-0.6866c0.9424,0 1.8428,0.6436 1.8428,2.2295v1.2432h4.8437c1.4646,0.0071 2.6502,1.1926 2.6573,2.6572c0.0037,0.7059 -0.2751,1.384 -0.7742,1.8831c-0.4991,0.4991 -1.1772,0.7779 -1.8831,0.7742h-4.8438v6.6435c-0.0666,0.5901 0.1362,1.1787 0.552,1.6026c0.4157,0.424 1.0003,0.6381 1.5916,0.583c0.5077,0.0014 1.0129,-0.0707 1.5,-0.2139c0.5105,-0.194 1.0433,-0.3236 1.5859,-0.3858c0.6927,0.0018 1.3545,0.2866 1.832,0.7884c0.4774,0.5018 0.729,1.177 0.6963,1.8689z" fill="#fbfbfb"/><path d="M244.2075,58.17237c0,1.2002 -0.7285,1.9287 -2.0146,2.5723c-1.455,0.6548 -3.0333,0.9908 -4.6289,0.9853c-5.0146,0 -7.458,-2.3574 -7.458,-6.5576v-7.8867h-1.457c-0.5029,0.0214 -0.9928,-0.163 -1.3568,-0.5107c-0.3639,-0.3477 -0.5705,-0.8287 -0.5719,-1.3321c0.0202,-0.6898 0.3709,-1.3279 0.9423,-1.7148l5.4014,-4.543c0.4104,-0.4137 0.9609,-0.6587 1.543,-0.6866c0.9424,0 1.8428,0.6436 1.8428,2.2295v1.2432h4.8437c1.4646,0.0071 2.6502,1.1926 2.6573,2.6572c0.0037,0.7059 -0.275,1.384 -0.7742,1.8831c-0.4991,0.4991 -1.1772,0.7779 -1.8831,0.7742h-4.8438v6.6435c-0.0665,0.5901 0.1362,1.1787 0.552,1.6026c0.4157,0.424 1.0003,0.6381 1.5916,0.583c0.5077,0.0014 1.0129,-0.0707 1.5,-0.2139c0.5105,-0.194 1.0433,-0.3235 1.5859,-0.3857c0.6927,0.0017 1.3545,0.2865 1.832,0.7883c0.4775,0.5018 0.729,1.177 0.6964,1.8689z" fill="#fbfbfb"/><path d="M247.03369,35.41257c0.0241,-1.8292 1.5139,-3.2995 3.3433,-3.2995c1.8294,0 3.3192,1.4703 3.3432,3.2995c-0.0232,1.8299 -1.5132,3.3011 -3.3432,3.3011c-1.83,0 -3.32,-1.4712 -3.3433,-3.3011zM247.20559,58.38727v-13.416c-0.002,-1.1346 0.6021,-2.1838 1.5843,-2.7517c0.9822,-0.5678 2.1929,-0.5678 3.1751,0c0.9823,0.5679 1.5864,1.6171 1.5844,2.7517v13.416c0.015,1.1431 -0.5862,2.2059 -1.5738,2.7819c-0.9876,0.576 -2.2087,0.576 -3.1962,0c-0.9876,-0.576 -1.5888,-1.6388 -1.5738,-2.7819z" fill="#fbfbfb"/><path d="M276.86578,48.61477v9.7725c0.015,1.1431 -0.5862,2.2059 -1.5738,2.7819c-0.9876,0.576 -2.2087,0.576 -3.1962,0c-0.9876,-0.576 -1.5889,-1.6388 -1.5738,-2.7819v-8.3155c0,-1.7578 -0.6865,-3.0859 -2.6152,-3.0859c-1.4708,0.0598 -2.7664,0.9854 -3.2998,2.3574v9.044c0.015,1.1431 -0.5862,2.2059 -1.5738,2.7819c-0.9876,0.576 -2.2086,0.576 -3.1962,0c-0.9876,-0.576 -1.5888,-1.6388 -1.5738,-2.7819v-13.416c-0.002,-0.8419 0.3315,-1.6499 0.9268,-2.2452c0.5953,-0.5953 1.4032,-0.9288 2.2451,-0.9268c1.5466,0.0173 2.8614,1.1339 3.1289,2.6573c1.3825,-1.7985 3.5178,-2.8581 5.7861,-2.8711c3.4288,0 6.5157,2.2715 6.5157,7.0293z" fill="#fbfbfb"/><path d="M296.92139,45.82867l-0.043,0.085c1.3362,0.8771 2.1162,2.3891 2.0567,3.9863c0,3.6006 -3.1289,6.3437 -8.8721,6.3437c-0.2865,0.0082 -0.5732,-0.0061 -0.8574,-0.043c-0.3394,0.2145 -0.5485,0.585 -0.5567,0.9864c0,0.7285 0.5996,0.8574 3.9863,1.5c5.8291,1.1142 9.001,2.3574 9.001,6.2578c0,4.415 -4.1152,7.2431 -11.2734,7.2431c-7.0722,0 -10.6719,-2.7851 -10.6719,-6.3427c0,-1.8868 1.0284,-3.6436 4.1143,-5.1006c-0.836,-0.5498 -1.3364,-1.4858 -1.3291,-2.4863c0,-1.4141 0.7724,-2.3575 2.2724,-3.086c-2.4495,-1.0679 -4.0203,-3.4999 -3.9863,-6.1719c0,-4.501 4.3291,-7.0293 9.3008,-7.0293h9.8154c1.457,0 2.6143,0.7715 2.6143,2.2715c0.0093,0.6243 -0.2466,1.2231 -0.704,1.648c-0.4574,0.4249 -1.0736,0.6358 -1.6954,0.5806c-1.086,-0.034 -2.1584,-0.2512 -3.1719,-0.6426zM290.96338,63.14507c-1.1142,-0.2149 -2.1006,-0.4288 -2.958,-0.6866c-1.8857,0.9434 -2.3144,1.9717 -2.3144,2.6573c0,1.5439 1.9287,2.7861 5.1435,2.7861c3.4717,0 4.8438,-1.4141 4.8438,-2.6143c0,-1.2861 -1.586,-1.5 -4.7149,-2.1425zM293.06298,49.12847c0,-1.457 -1.1992,-2.6573 -3.2138,-2.6573c-2.0147,0 -3.2578,1.2002 -3.2578,2.6573c0,1.5 1.2861,2.6572 3.2578,2.6572c1.9287,0 3.2138,-1.1572 3.2138,-2.6572z" fill="#fbfbfb"/><path d="M305.49078,60.44387c-1.093,-0.3941 -1.8388,-1.4104 -1.8868,-2.5713c-0.0288,-0.6302 0.203,-1.2446 0.641,-1.6987c0.438,-0.4541 1.0436,-0.7078 1.6745,-0.7017c0.9341,0.092 1.8465,0.3382 2.7002,0.7285c1.1024,0.386 2.2607,0.5889 3.4287,0.6006c1.7568,0 2.4433,-0.3857 2.4433,-1.0293c0,-0.8994 -1.5,-1.2002 -3.9863,-1.9287c-3.9004,-1.1572 -6.5146,-2.4434 -6.5146,-6.043c0,-3.5576 2.7431,-6.2148 8.0576,-6.2148c1.9558,0.0073 3.8967,0.3403 5.7431,0.9853c1.1622,0.2968 1.9853,1.3302 2.0147,2.5293c0.0627,0.6432 -0.1475,1.2832 -0.5794,1.764c-0.4319,0.4807 -1.0458,0.7581 -1.6921,0.7643c-0.7894,-0.0775 -1.5666,-0.2503 -2.3145,-0.5146c-1.0317,-0.2968 -2.0983,-0.4551 -3.1718,-0.4707c-1.5,0 -2.1856,0.3427 -2.1856,0.9853c0,0.8145 1.0283,1.0713 4.2432,2.0147c3.4287,0.9853 6.2578,2.1855 6.2578,5.872c0,3.7286 -2.915,6.3008 -8.2295,6.3008c-2.2865,0.0163 -4.5505,-0.4513 -6.6435,-1.372z" fill="#fbfbfb"/><text transform="translate(-51.03191,105.76578) scale(0.5,0.5)" font-size="40" xml:space="preserve" fill="#f9f9f9" fill-rule="nonzero" stroke="none" stroke-width="1" stroke-linecap="butt" stroke-linejoin="miter" stroke-miterlimit="10" stroke-dasharray="" stroke-dashoffset="0" font-family="Sans Serif" font-weight="normal" text-anchor="start" style="mix-blend-mode: normal"><tspan x="0" dy="0"> </tspan></text><g fill="#f9f9f9"><path d="M239.13168,153.57137v12.5057c0.0085,0.6498 -0.3334,1.254 -0.8948,1.5814c-0.5615,0.3274 -1.2557,0.3274 -1.8171,0c-0.5614,-0.3274 -0.9033,-0.9316 -0.8949,-1.5814v-7.9025l-2.7055,4.1053c-0.3751,0.692 -1.0879,1.1342 -1.8745,1.163c-0.7733,-0.0328 -1.4702,-0.4763 -1.8274,-1.163l-2.6812,-3.9863v7.7835c0.0172,0.4855 -0.1665,0.9567 -0.5078,1.3024c-0.3414,0.3457 -0.8102,0.5355 -1.2959,0.5245c-0.4833,0.01 -0.9491,-0.1809 -1.2864,-0.5272c-0.3374,-0.3462 -0.516,-0.8169 -0.4935,-1.2997v-12.5057c-0.0254,-0.5322 0.1683,-1.0515 0.536,-1.4372c0.3676,-0.3856 0.8771,-0.6038 1.4099,-0.6038c0.9732,0 1.5187,0.3795 2.1124,1.3051l4.1523,6.5259l4.082,-6.5259c0.5694,-0.9018 1.1625,-1.3051 1.9692,-1.3051c0.5401,-0.0032 1.0586,0.2116 1.4383,0.5958c0.3797,0.3841 0.5884,0.9052 0.5789,1.4452z"/><path d="M252.22889,158.69687v7.4277c0.0009,0.4661 -0.1838,0.9133 -0.5133,1.2428c-0.3296,0.3296 -0.7768,0.5143 -1.2428,0.5133c-0.8564,-0.0096 -1.5844,-0.6281 -1.7323,-1.4717c-0.7652,0.9961 -1.9475,1.583 -3.2035,1.5902c-1.8988,0 -3.6073,-1.2576 -3.6073,-3.8918v-5.4105c-0.0085,-0.633 0.3243,-1.2216 0.8712,-1.5405c0.5468,-0.319 1.223,-0.319 1.7698,0c0.5468,0.3189 0.8797,0.9075 0.8712,1.5405v4.6038c0,0.9727 0.3795,1.7085 1.4474,1.7085c0.8144,-0.0329 1.532,-0.5454 1.8274,-1.3051v-5.0072c-0.0085,-0.633 0.3244,-1.2216 0.8712,-1.5405c0.5468,-0.319 1.223,-0.319 1.7698,0c0.5468,0.3189 0.8797,0.9075 0.8712,1.5405z"/><path d="M255.33558,167.26327c-0.605,-0.2182 -1.0177,-0.781 -1.0441,-1.4236c-0.0161,-0.3489 0.1122,-0.689 0.3546,-0.9404c0.2424,-0.2514 0.5776,-0.392 0.9268,-0.3886c0.5172,0.051 1.0223,0.1873 1.4949,0.4034c0.6104,0.2137 1.2517,0.326 1.8983,0.3325c0.9727,0 1.3528,-0.2136 1.3528,-0.5699c0,-0.4979 -0.8305,-0.6645 -2.207,-1.0678c-2.1595,-0.6407 -3.6068,-1.3528 -3.6068,-3.3457c0,-1.9696 1.5187,-3.4408 4.461,-3.4408c1.0829,0.0041 2.1574,0.1885 3.1797,0.5455c0.6434,0.1644 1.0992,0.7365 1.1154,1.4004c0.0347,0.3561 -0.0817,0.7104 -0.3208,0.9766c-0.2391,0.2662 -0.579,0.4197 -0.9368,0.4232c-0.4371,-0.043 -0.8673,-0.1386 -1.2814,-0.285c-0.5712,-0.1643 -1.1618,-0.2519 -1.7561,-0.2606c-0.8305,0 -1.21,0.1898 -1.21,0.5456c0,0.4509 0.5693,0.5931 2.3492,1.1153c1.8983,0.5456 3.4646,1.2101 3.4646,3.2511c0,2.0643 -1.6139,3.4884 -4.5562,3.4884c-1.2659,0.009 -2.5194,-0.2499 -3.6782,-0.7596z"/><path d="M265.56118,153.40487c0.0132,-1.0129 0.8381,-1.827 1.851,-1.827c1.0129,0 1.8378,0.8141 1.851,1.827c-0.013,1.013 -0.8379,1.8274 -1.851,1.8274c-1.0131,0 -1.838,-0.8144 -1.851,-1.8274zM265.65639,166.12457v-7.4277c0.0017,-0.9686 0.7874,-1.753 1.7561,-1.753c0.9686,0 1.7544,0.7844 1.7561,1.753v7.4277c0.0083,0.6329 -0.3246,1.2214 -0.8713,1.5402c-0.5468,0.3189 -1.2228,0.3189 -1.7696,0c-0.5467,-0.3188 -0.8796,-0.9073 -0.8713,-1.5402z"/><path d="M271.25559,162.42267c0,-3.37 2.5157,-5.6241 5.8143,-5.6241c1.0657,-0.0274 2.1178,0.2438 3.0375,0.7829c0.4864,0.3023 0.7892,0.8279 0.8066,1.4003c0.0202,0.4004 -0.1267,0.7911 -0.4056,1.079c-0.2789,0.288 -0.6647,0.4472 -1.0655,0.4398c-0.3752,-0.0128 -0.745,-0.0932 -1.0916,-0.2374c-0.3715,-0.1414 -0.7656,-0.2138 -1.163,-0.2135c-0.634,-0.0305 -1.2518,0.2064 -1.7029,0.653c-0.4511,0.4466 -0.6942,1.0619 -0.6701,1.6962c-0.0134,0.6712 0.2573,1.3168 0.7454,1.7778c0.488,0.4609 1.148,0.6944 1.8174,0.6427c0.3574,0.0102 0.713,-0.0545 1.044,-0.1897c0.2948,-0.1178 0.6082,-0.1822 0.9256,-0.1904c0.3964,-0.0287 0.7861,0.1129 1.0716,0.3894c0.2854,0.2765 0.4394,0.6615 0.4234,1.0586c-0.0275,0.7227 -0.4856,1.3585 -1.1625,1.6133c-0.8205,0.3659 -1.7122,0.5443 -2.6103,0.5223c-3.2748,0 -5.8143,-2.2308 -5.8143,-5.6002z"/></g><g fill="#f9f9f9"><path d="M227.5963,114.96157v3.7773h4.0394c0.5658,-0.0083 1.0923,0.2887 1.3776,0.7774c0.2854,0.4886 0.2854,1.0931 0,1.5818c-0.2853,0.4886 -0.8118,0.7857 -1.3776,0.7773h-4.0394v4.3004c-0.0018,1.0091 -0.8203,1.8262 -1.8295,1.8262c-1.0091,0 -1.8276,-0.8171 -1.8294,-1.8262v-12.6163c-0.0157,-0.4776 0.1621,-0.9412 0.4932,-1.2858c0.331,-0.3445 0.7873,-0.5407 1.2651,-0.5439h6.6053c0.8965,-0.0009 1.6271,0.7193 1.6391,1.6158c-0.012,0.8965 -0.7426,1.6167 -1.6391,1.6159z"/><path d="M248.36069,125.08277c0.2752,0.3366 0.4336,0.7534 0.4515,1.1877c-0.0195,0.9683 -0.8136,1.7412 -1.7821,1.7345c-0.5459,-0.0072 -1.0566,-0.2712 -1.3782,-0.7124l-3.635,-4.9424l-3.7065,5.0371c-0.3233,0.4017 -0.8152,0.63 -1.3306,0.6177c-0.4506,0.0032 -0.8839,-0.1727 -1.2048,-0.4891c-0.3208,-0.3163 -0.5028,-0.7472 -0.5059,-1.1977c0.0093,-0.4177 0.1601,-0.8198 0.4277,-1.1406l4.0627,-5.4171l-4.0389,-5.2272c-0.269,-0.3382 -0.4193,-0.7555 -0.4276,-1.1876c0.0164,-0.9603 0.7978,-1.7312 1.7582,-1.7345c0.5816,-0.0126 1.1289,0.2744 1.4492,0.7601l3.6118,4.8232l3.4921,-4.7518c0.3183,-0.521 0.8868,-0.8367 1.4973,-0.8315c0.448,-0.0084 0.8808,0.1625 1.2021,0.4748c0.3213,0.3124 0.5043,0.7402 0.5085,1.1882c-0.0241,0.4674 -0.2088,0.9121 -0.5229,1.2591l-3.9203,5.2039z"/></g><path d="M143.11828,302.36862v7.91526c-0.03277,0.6036 -0.53176,1.07623 -1.13625,1.07623c-0.60449,0 -1.10348,-0.47263 -1.13625,-1.07623v-2.93183h-4.21701v2.93183c0.0055,0.30256 -0.11226,0.59435 -0.32624,0.80833c-0.21398,0.21398 -0.50577,0.33174 -0.80833,0.32624c-0.30256,0.0055 -0.59435,-0.11226 -0.80833,-0.32624c-0.21398,-0.21398 -0.33175,-0.50577 -0.32625,-0.80833v-7.91526c-0.00185,-0.30025 0.11753,-0.58855 0.3311,-0.7996c0.21357,-0.21105 0.50327,-0.327 0.80348,-0.32158c0.30021,-0.00542 0.58991,0.11053 0.80348,0.32158c0.21357,0.21105 0.33294,0.49935 0.3311,0.7996v2.97533h4.21701v-2.97533c0.03277,-0.6036 0.53176,-1.07623 1.13625,-1.07623c0.60449,0 1.10348,0.47263 1.13625,1.07623z" fill="#fe5a01"/><path d="M151.18081,307.49932c0.02048,0.2671 -0.06487,0.53156 -0.23762,0.73631c-0.25264,0.22549 -0.59175,0.32832 -0.92708,0.28113h-3.2732c0.2075,0.70618 0.80993,1.10446 1.78386,1.10446c0.27231,0.00009 0.54385,-0.02909 0.80993,-0.08702c0.19816,-0.05145 0.40122,-0.08174 0.60577,-0.09036c0.2263,-0.00191 0.44364,0.0883 0.60208,0.24989c0.15844,0.1616 0.24434,0.38067 0.23797,0.60689c-0.00111,0.39508 -0.24819,0.74767 -0.61917,0.88356c-0.59612,0.21154 -1.225,0.31579 -1.85749,0.30791c-2.10851,0 -3.73172,-1.35547 -3.73172,-3.46397c0,-2.04826 1.45922,-3.4941 3.52421,-3.4941c0.80943,-0.04269 1.60036,0.25201 2.1845,0.81396c0.58414,0.56194 0.90925,1.34086 0.89793,2.15134zM149.30658,307.26169c-0.00612,-0.31864 -0.14444,-0.62039 -0.38183,-0.83303c-0.23739,-0.21264 -0.5525,-0.31702 -0.86989,-0.28816c-0.66896,-0.02848 -1.24937,0.45761 -1.33873,1.12119z" fill="#fe5a01"/><path d="M157.39922,305.5682c0.00722,0.28599 -0.10136,0.56278 -0.30112,0.76757c-0.19976,0.20479 -0.47375,0.32024 -0.75983,0.32015c-0.68538,-0.04005 -1.33911,0.29257 -1.71023,0.87018v2.78791c0,0.60258 -0.48849,1.09107 -1.09107,1.09107c-0.60258,0 -1.09107,-0.48849 -1.09107,-1.09107v-4.61529c0,-0.60258 0.48849,-1.09106 1.09107,-1.09106c0.60258,0 1.09107,0.48848 1.09107,1.09106v0.07363c0.48864,-0.91368 1.06095,-1.23833 1.72697,-1.23833c0.27849,-0.01128 0.54914,0.09371 0.74717,0.28984c0.19804,0.19613 0.30563,0.46575 0.29704,0.74434z" fill="#fe5a01"/><path d="M164.40415,307.49932c0.02048,0.26711 -0.06487,0.53156 -0.23763,0.73631c-0.2531,0.22468 -0.59181,0.3274 -0.92708,0.28113h-3.2732c0.20415,0.70618 0.80993,1.10446 1.78386,1.10446c0.2723,-0.00009 0.54382,-0.02927 0.80993,-0.08702c0.19816,-0.05145 0.40122,-0.08175 0.60578,-0.09036c0.2263,-0.00191 0.44364,0.0883 0.60208,0.24989c0.15844,0.16159 0.24434,0.38067 0.23797,0.60689c-0.00111,0.39508 -0.24818,0.74767 -0.61916,0.88357c-0.59612,0.21153 -1.225,0.31579 -1.85749,0.30791c-2.10851,0 -3.74176,-1.35547 -3.74176,-3.46397c0,-2.04826 1.45922,-3.4941 3.52421,-3.4941c0.81113,-0.04558 1.60473,0.24784 2.19111,0.81011c0.58639,0.56227 0.91285,1.34286 0.90136,2.15518zM162.52992,307.26169c-0.00612,-0.31864 -0.14444,-0.62039 -0.38183,-0.83303c-0.23739,-0.21264 -0.5525,-0.31702 -0.86989,-0.28816c-0.66896,-0.02848 -1.24937,0.45761 -1.33873,1.12119z" fill="#fe5a01"/><path d="M175.38511,305.6686c0.00149,0.17964 -0.03861,0.35719 -0.11714,0.51876l-3.99612,8.15288c-0.1725,0.43529 -0.59273,0.72163 -1.06095,0.72292c-0.56262,-0.03523 -1.00163,-0.50057 -1.00405,-1.06429c-0.00109,-0.17853 0.03899,-0.3549 0.11714,-0.51542l1.29857,-2.43315l-2.22564,-4.86295c-0.08008,-0.16102 -0.12027,-0.33895 -0.11714,-0.51876c0.01279,-0.59232 0.49861,-1.06474 1.09107,-1.06094c0.46297,0.00533 0.87626,0.29145 1.04422,0.72291c0.39828,0.91368 1.00404,2.50678 1.40232,3.58446c0.43384,-1.21988 0.93097,-2.41633 1.48934,-3.58446c0.17174,-0.43589 0.59243,-0.72255 1.06095,-0.72291c0.56737,0.0267 1.0145,0.49295 1.01744,1.06094z" fill="#fe5a01"/><path d="M175.97415,307.98461c0,-2.04826 1.61986,-3.45059 3.59784,-3.45059c1.97798,0 3.5945,1.40233 3.5945,3.45059c0,2.04826 -1.61652,3.50748 -3.5945,3.50748c-0.94793,0.03195 -1.86784,-0.32431 -2.54699,-0.9864c-0.67915,-0.66208 -1.05869,-1.57264 -1.05085,-2.52108zM180.95759,307.98461c0,-1.06094 -0.66937,-1.59309 -1.38559,-1.59309c-0.71622,0 -1.36885,0.53215 -1.36885,1.59309c0,1.06095 0.66937,1.64999 1.38559,1.64999c0.71622,0 1.36885,-0.57231 1.36885,-1.64999z" fill="#fe5a01"/><path d="M190.80397,305.69872v4.61529c0.0009,0.28964 -0.11377,0.56767 -0.31858,0.77249c-0.20481,0.20481 -0.48285,0.31948 -0.77249,0.31858c-0.53203,-0.00624 -0.98448,-0.38984 -1.07768,-0.91368c-0.47557,0.61733 -1.20877,0.98146 -1.98802,0.98731c-1.18143,0 -2.24238,-0.77981 -2.24238,-2.41641v-3.34683c0,-0.60258 0.48849,-1.09107 1.09107,-1.09107c0.60258,0 1.09107,0.48849 1.09107,1.09107v2.86154c0,0.60243 0.23427,1.06095 0.90029,1.06095c0.50536,-0.02106 0.95049,-0.33883 1.13458,-0.80993v-3.11255c0,-0.60258 0.48848,-1.09107 1.09106,-1.09107c0.60258,0 1.09107,0.48849 1.09107,1.09107z" fill="#fe5a01"/><path d="M195.27199,308.01473c0,-2.09512 1.56298,-3.4941 3.61124,-3.4941c0.66221,-0.01799 1.31619,0.15014 1.88761,0.48529c0.30232,0.18786 0.49072,0.51442 0.50203,0.87018c0.0121,0.24916 -0.0797,0.49216 -0.25353,0.67106c-0.17383,0.1789 -0.41409,0.27767 -0.66349,0.27274c-0.23021,-0.00806 -0.45704,-0.05795 -0.66937,-0.14726c-0.23068,-0.08873 -0.47576,-0.13412 -0.72292,-0.13387c-0.39403,-0.01901 -0.77799,0.12804 -1.05852,0.40539c-0.28053,0.27735 -0.43195,0.6596 -0.41744,1.05383c-0.00776,0.41718 0.16063,0.81833 0.46384,1.10497c0.30321,0.28664 0.71317,0.43226 1.12926,0.4011c0.2226,0.00727 0.44412,-0.03383 0.64928,-0.12048c0.18347,-0.07269 0.37837,-0.11235 0.57566,-0.11714c0.24608,-0.01735 0.48789,0.07097 0.66487,0.24283c0.17697,0.17187 0.27234,0.41098 0.26221,0.65747c-0.01691,0.44968 -0.30182,0.84538 -0.72292,1.00405c-0.50844,0.23036 -1.06177,0.34468 -1.61987,0.33468c-2.0583,-0.01339 -3.61793,-1.39898 -3.61793,-3.49075z" fill="#fe5a01"/><path d="M208.15396,306.98056v3.39369c0.00044,0.52403 -0.39233,0.96499 -0.91292,1.02493c-0.52059,0.05993 -1.0033,-0.28024 -1.12196,-0.79065c-0.55811,0.54379 -1.29954,0.85899 -2.07838,0.88356c-0.51828,0.03049 -1.02611,-0.1546 -1.40322,-0.51143c-0.37711,-0.35683 -0.58997,-0.85367 -0.58814,-1.37284c0,-0.96054 0.57566,-1.50607 1.38559,-1.83071c0.85917,-0.27272 1.75285,-0.42148 2.65404,-0.44178v-0.19077c0,-0.55892 -0.33468,-0.75304 -1.07433,-0.75304c-0.31924,0.0013 -0.6368,0.04634 -0.9438,0.13387c-0.18268,0.05659 -0.37141,0.09141 -0.56227,0.10375c-0.2318,0.01182 -0.45847,-0.0709 -0.62817,-0.22924c-0.1697,-0.15834 -0.2679,-0.37876 -0.27213,-0.61082c-0.00908,-0.37074 0.21606,-0.70711 0.56227,-0.84006c0.68156,-0.27174 1.40824,-0.41253 2.14198,-0.41501c1.73366,0 2.84146,0.82667 2.84146,2.44654zM204.76362,309.82872c0.48148,-0.02958 0.94513,-0.19303 1.33873,-0.4719v-0.79655c-0.35476,0.04351 -0.6928,0.08702 -1.03083,0.16065c-0.66936,0.13387 -0.93042,0.31126 -0.93042,0.61917c0,0.30791 0.22424,0.48864 0.62251,0.48864z" fill="#fe5a01"/><path d="M216.14285,306.95379v3.34683c0,0.60258 -0.48849,1.09107 -1.09107,1.09107c-0.60258,0 -1.09107,-0.48849 -1.09107,-1.09107v-2.84816c0,-0.60243 -0.23427,-1.06094 -0.90029,-1.06094c-0.50536,0.02106 -0.95049,0.33883 -1.13458,0.80993v3.11255c0,0.60258 -0.48849,1.09107 -1.09107,1.09107c-0.60258,0 -1.09107,-0.48849 -1.09107,-1.09107v-4.61529c0,-0.60258 0.48849,-1.09106 1.09107,-1.09106c0.53203,0.00624 0.98449,0.38984 1.07768,0.91368c0.47662,-0.61785 1.21106,-0.98199 1.99137,-0.98732c1.17809,0 2.23904,0.78316 2.23904,2.41977z" fill="#fe5a01"/><path d="M221.19657,311.02018c-0.37551,-0.13502 -0.6312,-0.48479 -0.64593,-0.88356c-0.0101,-0.21636 0.0691,-0.42739 0.21907,-0.58368c0.14997,-0.15629 0.35753,-0.24414 0.57413,-0.24299c0.32186,0.03178 0.63625,0.11659 0.93042,0.25101c0.37857,0.13364 0.77663,0.20376 1.17808,0.2075c0.60577,0 0.84006,-0.13387 0.84006,-0.35477c0,-0.30791 -0.51541,-0.41166 -1.36886,-0.66936c-1.33874,-0.39828 -2.24238,-0.84006 -2.24238,-2.07839c0,-1.23833 0.9438,-2.13862 2.77117,-2.13862c0.67331,0.00129 1.34173,0.11438 1.97798,0.33468c0.39861,0.10393 0.68084,0.45842 0.6928,0.87018c0.02161,0.22162 -0.05091,0.44212 -0.19987,0.60762c-0.14896,0.16551 -0.36063,0.26079 -0.58329,0.26255c-0.27167,-0.02697 -0.53911,-0.08652 -0.79655,-0.17738c-0.3552,-0.10056 -0.72196,-0.15456 -1.09107,-0.16065c-0.51541,0 -0.74969,0.11714 -0.74969,0.33469c0,0.28113 0.35142,0.36815 1.45922,0.69279c1.17809,0.33468 2.15202,0.75304 2.15202,2.0081c0,1.25507 -1.00405,2.1654 -2.83142,2.1654c-0.78483,0.01458 -1.56387,-0.13713 -2.28589,-0.44513z" fill="#fe5a01"/><path d="M233.28533,306.98056v3.39369c0.00044,0.52403 -0.39234,0.96499 -0.91293,1.02493c-0.52059,0.05993 -1.0033,-0.28024 -1.12195,-0.79065c-0.55775,0.54433 -1.29941,0.85963 -2.07838,0.88356c-0.51798,0.03053 -1.02548,-0.15465 -1.40208,-0.51159c-0.3766,-0.35694 -0.58869,-0.85381 -0.58594,-1.37268c0,-0.96054 0.57231,-1.50607 1.38559,-1.83071c0.85904,-0.27325 1.7528,-0.42203 2.65404,-0.44178v-0.19077c0,-0.55892 -0.33469,-0.75304 -1.07768,-0.75304c-0.31922,0.00159 -0.63673,0.04663 -0.9438,0.13387c-0.18156,0.05651 -0.36917,0.09134 -0.55892,0.10375c-0.23292,0.01371 -0.46136,-0.06817 -0.63254,-0.22672c-0.17118,-0.15855 -0.2703,-0.38005 -0.27445,-0.61334c-0.0086,-0.36961 0.21468,-0.7052 0.55892,-0.84006c0.68597,-0.27261 1.4172,-0.41341 2.15536,-0.41501c1.73031,0 2.83477,0.82667 2.83477,2.44654zM229.89499,309.82872c0.48123,-0.0308 0.94456,-0.19413 1.33874,-0.4719v-0.79655c-0.35476,0.04351 -0.6928,0.08702 -1.03417,0.16065c-0.66936,0.13387 -0.92708,0.31126 -0.92708,0.61917c0,0.30791 0.22423,0.48864 0.62251,0.48864z" fill="#fe5a01"/><path d="M236.52841,310.50477l-2.12189,-4.31741c-0.08008,-0.16102 -0.12027,-0.33895 -0.11714,-0.51876c0.01099,-0.59179 0.49584,-1.06471 1.08772,-1.06094c0.46909,-0.00153 0.89074,0.28579 1.06094,0.72291c0.54554,1.23833 1.26845,2.78791 1.43245,3.45059h0.02678c0.13387,-0.66936 0.85679,-2.25577 1.44583,-3.46398c0.16407,-0.43419 0.58348,-0.71826 1.04756,-0.70952c0.56135,0.03513 0.99988,0.49851 1.00405,1.06094c0.00149,0.17964 -0.03861,0.35719 -0.11714,0.51876l-2.13863,4.35088c-0.19734,0.52827 -0.70456,0.87623 -1.26845,0.87018c-0.63255,0.01004 -1.01743,-0.26774 -1.34208,-0.90364z" fill="#fe5a01"/><path d="M248.61718,307.49932c0.01962,0.26644 -0.0643,0.53019 -0.23428,0.73631c-0.25435,0.22483 -0.59413,0.32749 -0.93042,0.28113h-3.2732c0.2075,0.70618 0.80993,1.10446 1.78386,1.10446c0.27231,0.00009 0.54385,-0.02909 0.80993,-0.08702c0.19816,-0.05145 0.40122,-0.08174 0.60578,-0.09036c0.2263,-0.00191 0.44364,0.0883 0.60208,0.24989c0.15844,0.1616 0.24434,0.38067 0.23797,0.60689c-0.00111,0.39508 -0.24818,0.74767 -0.61916,0.88356c-0.59601,0.21195 -1.22497,0.31621 -1.85749,0.30791c-2.10851,0 -3.72837,-1.35547 -3.72837,-3.46397c0,-2.04826 1.45922,-3.4941 3.52087,-3.4941c0.80943,-0.04269 1.60036,0.25201 2.1845,0.81396c0.58414,0.56194 0.90925,1.34086 0.89793,2.15134zM246.7463,307.26169c-0.00704,-0.31894 -0.1461,-0.62065 -0.38401,-0.83319c-0.23791,-0.21254 -0.55334,-0.31682 -0.87105,-0.288c-0.66896,-0.02848 -1.24937,0.45761 -1.33873,1.12119z" fill="#fe5a01"/><path d="M259.59814,305.6686c0.00149,0.17964 -0.03861,0.35719 -0.11714,0.51876l-3.99612,8.15288c-0.1725,0.43529 -0.59273,0.72163 -1.06095,0.72292c-0.56263,-0.03523 -1.00163,-0.50057 -1.00405,-1.06429c-0.00109,-0.17853 0.03899,-0.3549 0.11714,-0.51542l1.29857,-2.43315l-2.21226,-4.86295c-0.07969,-0.16129 -0.12092,-0.33886 -0.12048,-0.51876c0.01279,-0.59232 0.49861,-1.06474 1.09107,-1.06094c0.4642,0.00397 0.87914,0.29033 1.04756,0.72291c0.39828,0.91368 1.00405,2.50678 1.39898,3.58446c0.43312,-1.21919 0.92798,-2.41555 1.48265,-3.58446c0.17174,-0.43589 0.59243,-0.72255 1.06095,-0.72291c0.56605,0.02842 1.01125,0.49419 1.01409,1.06094z" fill="#fe5a01"/><path d="M260.20057,307.98461c0,-2.04826 1.62322,-3.45059 3.59785,-3.45059c1.97463,0 3.59785,1.40233 3.59785,3.45059c0,2.04826 -1.60648,3.50748 -3.59785,3.50748c-0.94793,0.03195 -1.86785,-0.32431 -2.54699,-0.9864c-0.67915,-0.66208 -1.05869,-1.57264 -1.05086,-2.52108zM265.184,307.98461c0,-1.06094 -0.66937,-1.59309 -1.38559,-1.59309c-0.71622,0 -1.38559,0.53215 -1.38559,1.59309c0,1.06095 0.66937,1.64999 1.38559,1.64999c0.71622,0 1.3722,-0.57231 1.3722,-1.64999z" fill="#fe5a01"/><path d="M275.017,305.69872v4.61528c0.0009,0.29023 -0.11422,0.56878 -0.31976,0.77368c-0.20553,0.2049 -0.48444,0.31917 -0.77465,0.31739c-0.53126,-0.00651 -0.98261,-0.39036 -1.07434,-0.91368c-0.47662,0.61786 -1.21106,0.98199 -1.99137,0.98732c-1.17809,0 -2.23903,-0.77981 -2.23903,-2.41641v-3.34683c-0.02238,-0.40361 0.18022,-0.78652 0.5265,-0.99507c0.34629,-0.20854 0.77949,-0.20854 1.12577,0c0.34629,0.20855 0.54889,0.59145 0.52651,0.99507v2.86155c0,0.60243 0.23762,1.06094 0.9003,1.06094c0.50536,-0.02106 0.95049,-0.33883 1.13458,-0.80993v-3.11255c0,-0.60258 0.48849,-1.09107 1.09107,-1.09107c0.60258,0 1.09107,0.48849 1.09107,1.09107z" fill="#fe5a01"/><path d="M281.59353,305.5682c0.0063,0.28631 -0.10304,0.56307 -0.30332,0.76776c-0.20028,0.20469 -0.4746,0.32003 -0.76097,0.31996c-0.68523,-0.03933 -1.33863,0.29311 -1.71023,0.87018v2.78791c0,0.60258 -0.48849,1.09107 -1.09107,1.09107c-0.60258,0 -1.09107,-0.48849 -1.09107,-1.09107v-4.61528c0,-0.60258 0.48849,-1.09107 1.09107,-1.09107c0.60258,0 1.09107,0.48849 1.09107,1.09107v0.07363c0.48864,-0.91368 1.06429,-1.23833 1.72697,-1.23833c0.2774,-0.00636 0.54551,0.10011 0.74298,0.29505c0.19747,0.19494 0.30738,0.46166 0.30458,0.73912z" fill="#fe5a01"/><path d="M292.33017,308.01473c0,1.75374 -1.17809,3.47736 -3.12594,3.47736c-0.62926,0.03476 -1.24173,-0.21022 -1.67342,-0.66937v3.13933c0,0.60258 -0.48848,1.09107 -1.09106,1.09107c-0.60258,0 -1.09107,-0.48849 -1.09107,-1.09107v-8.27672c-0.00887,-0.56072 0.4241,-1.02963 0.98376,-1.06538c0.55966,-0.03576 1.04879,0.37421 1.11136,0.93151c0.40957,-0.63404 1.11612,-1.01322 1.87088,-1.00405c1.78721,-0.01338 3.01549,1.56632 3.01549,3.46732zM290.11792,308.01473c0,-0.88356 -0.58904,-1.5797 -1.38559,-1.5797c-0.52416,0.01985 -0.99316,0.33123 -1.2149,0.80659v1.58974c0.22271,0.45776 0.68577,0.74962 1.19482,0.75304c0.80993,0 1.39898,-0.69949 1.39898,-1.56967z" fill="#fe5a01"/><path d="M298.57536,305.5682c0.0063,0.28631 -0.10303,0.56307 -0.30331,0.76776c-0.20028,0.20469 -0.4746,0.32003 -0.76097,0.31996c-0.68538,-0.04005 -1.33911,0.29257 -1.71024,0.87018v2.78791c0,0.60258 -0.48849,1.09107 -1.09107,1.09107c-0.60258,0 -1.09107,-0.48849 -1.09107,-1.09107v-4.61528c0,-0.60258 0.48849,-1.09107 1.09107,-1.09107c0.60258,0 1.09107,0.48849 1.09107,1.09107v0.07363c0.48864,-0.91368 1.06095,-1.23833 1.72697,-1.23833c0.2774,-0.00636 0.54551,0.10011 0.74298,0.29505c0.19747,0.19494 0.30737,0.46166 0.30458,0.73912z" fill="#fe5a01"/><path d="M298.9569,307.98461c0,-2.04826 1.61987,-3.45059 3.59785,-3.45059c1.97798,0 3.59449,1.40233 3.59449,3.45059c0,2.04826 -1.60647,3.50748 -3.59449,3.50748c-0.94793,0.03195 -1.86785,-0.32431 -2.547,-0.9864c-0.67915,-0.66208 -1.05869,-1.57264 -1.05085,-2.52108zM303.94034,307.98461c0,-1.06094 -0.66936,-1.59309 -1.38558,-1.59309c-0.71622,0 -1.38559,0.53215 -1.38559,1.59309c0,1.06095 0.66937,1.64999 1.38559,1.64999c0.71622,0 1.38558,-0.57231 1.38558,-1.64999z" fill="#fe5a01"/><path d="M312.74586,305.99324v0.03012c0.45851,0.30302 0.72609,0.82297 0.70619,1.3722c0,1.23833 -1.07434,2.18213 -3.05232,2.18213c-0.09848,0.00311 -0.19703,-0.0025 -0.29452,-0.01673c-0.11422,0.0739 -0.18538,0.19874 -0.19077,0.33468c0,0.25101 0.2075,0.29452 1.3722,0.51541c2.0081,0.38154 3.09582,0.80993 3.09582,2.15202c0,1.51946 -1.41571,2.49339 -3.87898,2.49339c-2.46327,0 -3.68152,-0.96055 -3.68152,-2.18548c0,-0.64594 0.35476,-1.25171 1.41571,-1.75374c-0.28778,-0.18784 -0.4595,-0.50982 -0.45517,-0.85345c0,-0.48864 0.26441,-0.80993 0.77981,-1.06095c-0.84222,-0.36911 -1.38241,-1.20574 -1.37221,-2.12524c0,-1.54624 1.48934,-2.41642 3.19957,-2.41642h3.36022c0.50203,0 0.9003,0.26441 0.9003,0.77981c0.00273,0.21481 -0.08561,0.42073 -0.24315,0.56678c-0.15753,0.14605 -0.36954,0.21859 -0.58353,0.19965c-0.36865,-0.01086 -0.73289,-0.08326 -1.07768,-0.2142zM310.69759,311.95061c-0.38488,-0.07363 -0.72292,-0.14725 -1.00405,-0.23428c-0.64929,0.33469 -0.79654,0.66937 -0.79654,0.91368c0,0.5288 0.66937,0.9572 1.77048,0.9572c1.19148,0 1.67341,-0.4853 1.67341,-0.9003c0,-0.41501 -0.57565,-0.51542 -1.64999,-0.73631zM311.40713,307.13117c0,-0.50203 -0.41501,-0.91703 -1.1078,-0.91703c-0.69279,0 -1.12119,0.41501 -1.12119,0.91703c0,0.50203 0.44513,0.91368 1.12119,0.91368c0.67606,0 1.1078,-0.39828 1.1078,-0.91368z" fill="#fe5a01"/><path d="M320.39002,305.5682c0.00629,0.28573 -0.1026,0.56198 -0.30215,0.76656c-0.19955,0.20459 -0.473,0.32033 -0.7588,0.32116c-0.68554,-0.04077 -1.33961,0.29203 -1.71023,0.87018v2.78791c0,0.60258 -0.48849,1.09107 -1.09107,1.09107c-0.60258,0 -1.09107,-0.48849 -1.09107,-1.09107v-4.61529c0,-0.60258 0.48849,-1.09106 1.09107,-1.09106c0.60258,0 1.09107,0.48848 1.09107,1.09106v0.07363c0.48529,-0.91368 1.06095,-1.23833 1.72362,-1.23833c0.27767,-0.00731 0.54634,0.09886 0.74401,0.29401c0.19768,0.19515 0.30728,0.46242 0.30354,0.74017z" fill="#fe5a01"/><path d="M327.3916,307.49932c0.01962,0.26644 -0.0643,0.53019 -0.23428,0.73631c-0.25435,0.22483 -0.59413,0.32749 -0.93042,0.28113h-3.2732c0.20751,0.70618 0.81328,1.10446 1.78386,1.10446c0.27341,-0.00009 0.54604,-0.02926 0.81328,-0.08702c0.19704,-0.05139 0.39899,-0.08168 0.60243,-0.09036c0.2263,-0.00191 0.44365,0.0883 0.60208,0.24989c0.15844,0.1616 0.24435,0.38067 0.23798,0.60689c-0.00111,0.39508 -0.24819,0.74767 -0.61917,0.88356c-0.59601,0.21195 -1.22497,0.31621 -1.8575,0.30791c-2.1085,0 -3.72837,-1.35547 -3.72837,-3.46397c0,-2.04826 1.45922,-3.4941 3.52422,-3.4941c0.80914,-0.04274 1.59974,0.25206 2.18337,0.81412c0.58362,0.56205 0.90797,1.34101 0.89571,2.15118zM325.52072,307.26169c-0.00704,-0.31894 -0.1461,-0.62065 -0.38401,-0.83319c-0.23791,-0.21254 -0.55334,-0.31682 -0.87105,-0.288c-0.66897,-0.02848 -1.24938,0.45761 -1.33874,1.12119z" fill="#fe5a01"/><path d="M328.96796,311.02018c-0.37625,-0.1347 -0.63312,-0.48425 -0.64929,-0.88356c-0.00916,-0.21669 0.07082,-0.42767 0.22131,-0.58385c0.15049,-0.15618 0.35836,-0.24393 0.57524,-0.24282c0.32178,0.0322 0.6361,0.117 0.93042,0.25101c0.37857,0.13364 0.77663,0.20376 1.17809,0.2075c0.60577,0 0.84006,-0.13387 0.84006,-0.35477c0,-0.30791 -0.51541,-0.41166 -1.36885,-0.66936c-1.33873,-0.39828 -2.24238,-0.84006 -2.24238,-2.07839c0,-1.23833 0.94381,-2.13862 2.77118,-2.13862c0.67327,0.00166 1.34163,0.11475 1.97798,0.33468c0.39861,0.10393 0.68084,0.45842 0.69279,0.87018c0.02161,0.22162 -0.05092,0.44212 -0.19988,0.60762c-0.14896,0.16551 -0.36062,0.26079 -0.58328,0.26255c-0.27167,-0.02697 -0.53911,-0.08652 -0.79654,-0.17738c-0.3552,-0.10056 -0.72196,-0.15456 -1.09107,-0.16065c-0.51541,0 -0.75304,0.11714 -0.75304,0.33469c0,0.28113 0.35476,0.36815 1.46256,0.69279c1.17809,0.33468 2.15202,0.75304 2.15202,2.0081c0,1.25507 -1.00405,2.1654 -2.83142,2.1654c-0.78483,0.01458 -1.56387,-0.13713 -2.28589,-0.44513z" fill="#fe5a01"/><path d="M335.69175,311.02018c-0.37625,-0.1347 -0.63312,-0.48425 -0.64929,-0.88356c-0.01013,-0.21695 0.06952,-0.4285 0.22021,-0.5849c0.1507,-0.1564 0.35915,-0.24384 0.57633,-0.24176c0.32071,0.0322 0.63393,0.11701 0.92707,0.25101c0.37965,0.13394 0.77886,0.20406 1.18144,0.2075c0.60243,0 0.84006,-0.13387 0.84006,-0.35477c0,-0.30791 -0.51875,-0.41166 -1.3722,-0.66936c-1.33873,-0.39828 -2.24238,-0.84006 -2.24238,-2.07839c0,-1.23833 0.9438,-2.13862 2.77452,-2.13862c0.67219,0.0016 1.33945,0.11469 1.97463,0.33468c0.39925,0.10294 0.68195,0.45801 0.69279,0.87018c0.02161,0.22162 -0.05091,0.44212 -0.19987,0.60762c-0.14896,0.16551 -0.36063,0.26079 -0.58329,0.26255c-0.27057,-0.02701 -0.53689,-0.08657 -0.7932,-0.17738c-0.3553,-0.10012 -0.72199,-0.15411 -1.09107,-0.16065c-0.51876,0 -0.75304,0.11714 -0.75304,0.33469c0,0.28113 0.35477,0.36815 1.45922,0.69279c1.17809,0.33468 2.15201,0.75304 2.15201,2.0081c0,1.25507 -1.00405,2.1654 -2.83142,2.1654c-0.78379,0.01502 -1.56182,-0.13671 -2.28254,-0.44513z" fill="#fe5a01"/><path d="M345.22688,310.25376c0,-0.66913 0.54242,-1.21156 1.21155,-1.21156c0.66913,0 1.21156,0.54243 1.21156,1.21156c0,0.66913 -0.54243,1.21156 -1.21156,1.21156c-0.66462,-0.01075 -1.2008,-0.54694 -1.21155,-1.21156zM345.86278,307.49932c-0.36046,-1.47338 -0.5591,-2.98167 -0.59239,-4.49814c0,-1.28184 0.50203,-1.78386 1.16805,-1.78386c0.66602,0 1.14796,0.51541 1.14796,1.78386c-0.02562,1.51601 -0.21868,3.02454 -0.57565,4.49814c-0.08702,0.36815 -0.25101,0.61916 -0.55892,0.61916c-0.30791,0 -0.50203,-0.25101 -0.57231,-0.61916z" fill="#fe5a01"/><path d="M140.27223,333.55107c-1.07209,-1.15446 -1.66237,-2.67505 -1.64998,-4.25048c-0.03568,-1.55385 0.55957,-3.05588 1.64998,-4.16346c0.13262,-0.16219 0.32381,-0.2656 0.53215,-0.28782c0.14082,-0.00005 0.27569,0.05679 0.374,0.15762c0.09831,0.10083 0.15172,0.2371 0.14811,0.37787c-0.02522,0.20154 -0.11711,0.38886 -0.26105,0.53215c-0.74155,0.96927 -1.12788,2.16371 -1.09441,3.38365c-0.02203,1.24611 0.36212,2.46554 1.09441,3.47402c0.14705,0.14186 0.24147,0.32952 0.26775,0.53215c0.00363,0.14047 -0.04988,0.2764 -0.14829,0.37671c-0.09841,0.1003 -0.2333,0.15639 -0.37382,0.15544c-0.21073,-0.02052 -0.40462,-0.12409 -0.53884,-0.28783z" fill="#fe5a01"/><path d="M142.25022,331.41914v-5.50219c0.02708,-0.41539 0.3719,-0.73846 0.78818,-0.73846c0.41628,0 0.76109,0.32307 0.78818,0.73846v5.50219c0.01916,0.29385 -0.12674,0.57395 -0.3785,0.72669c-0.25177,0.15274 -0.56759,0.15274 -0.81935,0c-0.25177,-0.15274 -0.39766,-0.43284 -0.3785,-0.72669z" fill="#fe5a01"/><path d="M146.89228,334.07652c0.01837,-0.18479 0.06581,-0.36551 0.14056,-0.53549c0.21497,-0.69329 0.31889,-1.41622 0.30791,-2.14198v-3.16611c0,-0.41959 0.34014,-0.75973 0.75973,-0.75973c0.41959,0 0.75973,0.34014 0.75973,0.75973v3.16611c0.04207,0.97571 -0.14116,1.948 -0.53549,2.84146c-0.10375,0.32428 -0.40588,0.54376 -0.74635,0.54218c-0.18492,-0.00175 -0.36147,-0.07736 -0.49033,-0.21c-0.12886,-0.13264 -0.19935,-0.31128 -0.19577,-0.49618zM147.31063,325.94706c0.02721,-0.419 0.37499,-0.74494 0.79487,-0.74494c0.41988,0 0.76767,0.32594 0.79487,0.74494c-0.02721,0.419 -0.37499,0.74494 -0.79487,0.74494c-0.41988,0 -0.76766,-0.32594 -0.79487,-0.74494z" fill="#fe5a01"/><path d="M154.42265,328.23295v3.20962c0,0.41774 -0.33864,0.75638 -0.75638,0.75638c-0.37083,-0.00268 -0.68655,-0.27047 -0.74969,-0.6359c-0.33336,0.42373 -0.8431,0.67058 -1.38224,0.66937c-0.81997,0 -1.55962,-0.54219 -1.55962,-1.67342v-2.34278c0,-0.41959 0.34014,-0.75974 0.75973,-0.75974c0.41959,0 0.75973,0.34015 0.75973,0.75974v1.98802c0,0.4217 0.16399,0.73965 0.62251,0.73965c0.35202,-0.01561 0.6617,-0.23738 0.78985,-0.56561v-2.14533c-0.0188,-0.28285 0.12143,-0.55264 0.36373,-0.69977c0.2423,-0.14714 0.54636,-0.14714 0.78866,0c0.2423,0.14713 0.38253,0.41692 0.36373,0.69977z" fill="#fe5a01"/><path d="M155.76473,331.93455c-0.26311,-0.09189 -0.44176,-0.3372 -0.44847,-0.61581c-0.00736,-0.15074 0.04765,-0.29786 0.15213,-0.40677c0.10448,-0.1089 0.24918,-0.16999 0.40009,-0.16889c0.22332,0.02263 0.44147,0.08142 0.64594,0.17404c0.26345,0.0931 0.54056,0.14173 0.81997,0.14391c0.4217,0 0.58569,-0.09036 0.58569,-0.24431c0,-0.21755 -0.36146,-0.28783 -0.95385,-0.46186c-0.93376,-0.27778 -1.55962,-0.5857 -1.55962,-1.44584c0,-0.86014 0.66936,-1.48599 1.92777,-1.48599c0.46714,0.00239 0.93072,0.08154 1.3722,0.23427c0.2779,0.07165 0.47459,0.31889 0.48194,0.60578c0.01605,0.15399 -0.03367,0.3076 -0.13693,0.42297c-0.10325,0.11536 -0.25044,0.18175 -0.40526,0.18281c-0.18831,-0.01935 -0.37368,-0.06092 -0.55223,-0.12383c-0.2473,-0.07046 -0.50265,-0.10871 -0.75973,-0.1138c-0.35811,0 -0.52211,0.08367 -0.52211,0.23763c0,0.15395 0.24432,0.25436 1.00405,0.48194c0.81997,0.23428 1.49604,0.52211 1.49604,1.40232c0,0.88021 -0.69615,1.50942 -1.96794,1.50942c-0.54371,0.0024 -1.08189,-0.10934 -1.57971,-0.32799z" fill="#fe5a01"/><path d="M163.94439,331.38901c0,0.28783 -0.17403,0.46187 -0.48194,0.61582c-0.34857,0.15549 -0.72613,0.23534 -1.1078,0.23427c-1.2082,0 -1.78052,-0.56561 -1.78052,-1.56966v-1.88427h-0.35142c-0.11946,0.00453 -0.23566,-0.03954 -0.32206,-0.12216c-0.08641,-0.08262 -0.13564,-0.19673 -0.13646,-0.31627c0.00441,-0.16524 0.08781,-0.31833 0.22424,-0.41166l1.29187,-1.08437c0.09748,-0.09937 0.22908,-0.15799 0.36816,-0.16399c0.22424,0 0.44178,0.1506 0.44178,0.53215v0.29787h1.15801c0.23758,-0.01727 0.4649,0.0997 0.58895,0.30305c0.12406,0.20335 0.12406,0.45899 0,0.66235c-0.12406,0.20335 -0.35137,0.32032 -0.58895,0.30305h-1.15801v1.58974c-0.01567,0.1409 0.03283,0.28139 0.1321,0.3826c0.09927,0.10122 0.23879,0.15244 0.37996,0.1395c0.12114,0.00023 0.2417,-0.01667 0.35811,-0.0502c0.12191,-0.04609 0.24886,-0.07755 0.37819,-0.09371c0.16572,0.00075 0.32397,0.06898 0.43828,0.18897c0.11431,0.11999 0.17478,0.28137 0.1675,0.44692z" fill="#fe5a01"/><path d="M166.62855,329.84278c0,-1.45587 1.08773,-2.4298 2.51013,-2.4298c0.46001,-0.01336 0.91455,0.10259 1.31196,0.33468c0.20542,0.13365 0.33089,0.36074 0.33469,0.60578c0.01224,0.17515 -0.04966,0.34738 -0.17059,0.47467c-0.12093,0.12729 -0.28977,0.19794 -0.46531,0.19469c-0.16229,-0.00567 -0.32219,-0.04083 -0.4719,-0.10375c-0.16066,-0.05964 -0.33065,-0.09024 -0.50202,-0.09037c-0.27193,-0.01316 -0.53702,0.0877 -0.73142,0.27828c-0.1944,0.19059 -0.30049,0.45364 -0.29271,0.72577c-0.00553,0.28927 0.11116,0.56748 0.3214,0.76625c0.21024,0.19877 0.49454,0.29969 0.78305,0.27796c0.15452,0.00447 0.30831,-0.02287 0.45182,-0.08033c0.12652,-0.05202 0.26152,-0.08038 0.39828,-0.08367c0.17409,-0.01767 0.34725,0.04123 0.47446,0.16138c0.12722,0.12014 0.19591,0.28967 0.18821,0.46448c-0.01135,0.31215 -0.20942,0.58682 -0.50203,0.69614c-0.35418,0.15934 -0.73962,0.23712 -1.12788,0.22758c-1.41236,0 -2.51013,-0.96389 -2.51013,-2.41976z" fill="#fe5a01"/><path d="M175.09604,328.13924c0.00449,0.19936 -0.07133,0.39216 -0.21044,0.53503c-0.13911,0.14288 -0.3298,0.22384 -0.52921,0.22469c-0.47649,-0.02799 -0.93091,0.20371 -1.18813,0.60578v1.93782c0.0188,0.28285 -0.12142,0.55265 -0.36372,0.69978c-0.2423,0.14714 -0.54637,0.14714 -0.78867,0c-0.2423,-0.14713 -0.38253,-0.41693 -0.36372,-0.69978v-3.20962c-0.0188,-0.28285 0.12142,-0.55264 0.36372,-0.69977c0.2423,-0.14714 0.54637,-0.14714 0.78867,0c0.2423,0.14713 0.38253,0.41692 0.36372,0.69977v0.05021c0.33469,-0.6359 0.7363,-0.86013 1.19817,-0.86013c0.1928,-0.00547 0.37953,0.06779 0.51717,0.2029c0.13764,0.13511 0.21434,0.32045 0.21244,0.51331z" fill="#fe5a01"/><path d="M179.96234,329.48467c0.01391,0.18551 -0.0449,0.36915 -0.16399,0.51207c-0.1764,0.15635 -0.41258,0.22732 -0.64594,0.19412h-2.27585c0.14391,0.49198 0.56562,0.76977 1.24168,0.76977c0.18918,-0.00074 0.3777,-0.02206 0.56226,-0.06359c0.13815,-0.0344 0.27945,-0.05459 0.4217,-0.06024c0.15649,-0.00095 0.3067,0.06149 0.4164,0.17309c0.1097,0.1116 0.16957,0.26285 0.16594,0.4193c-0.00355,0.27353 -0.17318,0.51736 -0.42839,0.61581c-0.41415,0.14916 -0.85171,0.22285 -1.29188,0.21755c-1.46591,0 -2.5938,-0.9438 -2.5938,-2.40972c-0.02507,-0.65532 0.22568,-1.29115 0.6913,-1.75295c0.46562,-0.4618 1.10349,-0.70731 1.75858,-0.67685c0.56294,-0.03073 1.11332,0.17386 1.51951,0.56482c0.40619,0.39096 0.63166,0.93313 0.62246,1.49683zM178.66042,329.33072c-0.0037,-0.22174 -0.09968,-0.43189 -0.26483,-0.57989c-0.16515,-0.148 -0.38453,-0.22045 -0.60534,-0.19992c-0.46636,-0.02149 -0.87179,0.31709 -0.93377,0.77981z" fill="#fe5a01"/><path d="M184.74831,329.12321v2.35952c0.00535,0.36762 -0.26852,0.67958 -0.63373,0.72188c-0.36522,0.0423 -0.70314,-0.19879 -0.78198,-0.5579c-0.38548,0.37651 -0.89731,0.59605 -1.43579,0.61582c-0.71718,0.1183 -1.39447,-0.36719 -1.51277,-1.08437c-0.1183,-0.71718 0.36719,-1.39447 1.08437,-1.51277c0.59629,-0.19246 1.21764,-0.2962 1.84411,-0.30791v-0.13387c0,-0.38824 -0.22424,-0.52211 -0.74635,-0.52211c-0.22619,-0.00046 -0.45139,0.02994 -0.66936,0.09037c-0.12686,0.04111 -0.25845,0.06585 -0.39158,0.07363c-0.15714,0.00542 -0.30998,-0.05185 -0.42486,-0.1592c-0.11488,-0.10735 -0.18237,-0.25597 -0.18761,-0.41311c-0.00616,-0.25651 0.14908,-0.48937 0.38823,-0.58235c0.47625,-0.18879 0.98373,-0.28643 1.49604,-0.28782c1.20152,0 1.97128,0.56896 1.97128,1.70019zM182.40553,331.10119c0.33231,-0.02208 0.6515,-0.13815 0.92038,-0.33468v-0.54554c-0.24052,0.02571 -0.47957,0.06369 -0.71622,0.1138c-0.46186,0.09036 -0.64594,0.2142 -0.64594,0.42839c0,0.2142 0.15061,0.33803 0.4284,0.33803z" fill="#fe5a01"/><path d="M189.57445,331.38901c0,0.28783 -0.17404,0.46187 -0.48194,0.61582c-0.34751,0.15512 -0.7239,0.23496 -1.10446,0.23427c-1.20152,0 -1.78386,-0.56226 -1.78386,-1.56631v-1.88762h-0.33469c-0.12003,0.00547 -0.2371,-0.0382 -0.32424,-0.12092c-0.08714,-0.08272 -0.13683,-0.19736 -0.13762,-0.31752c0.00441,-0.16524 0.08781,-0.31833 0.22424,-0.41166l1.28518,-1.08437c0.09748,-0.09937 0.22908,-0.15799 0.36815,-0.16399c0.22759,0 0.44178,0.1506 0.44178,0.53215v0.29787h1.15801c0.23758,-0.01727 0.4649,0.0997 0.58896,0.30305c0.12406,0.20335 0.12406,0.45899 0,0.66235c-0.12406,0.20335 -0.35137,0.32032 -0.58896,0.30305h-1.16469v1.58974c-0.01567,0.1409 0.03283,0.28139 0.1321,0.3826c0.09927,0.10122 0.23879,0.15244 0.37996,0.1395c0.12116,0.0005 0.24176,-0.0164 0.35811,-0.0502c0.12294,-0.04647 0.25106,-0.07794 0.38154,-0.09371c0.16544,0.00071 0.32339,0.06905 0.43717,0.18915c0.11378,0.1201 0.17349,0.28151 0.16526,0.44674z" fill="#fe5a01"/><path d="M194.588,329.48467c0.01252,0.18534 -0.04613,0.36848 -0.16399,0.51207c-0.1764,0.15635 -0.41257,0.22732 -0.64593,0.19412h-2.27585c0.14391,0.49198 0.56227,0.76977 1.23833,0.76977c0.19029,-0.00054 0.37995,-0.02187 0.56561,-0.06359c0.13706,-0.03415 0.27723,-0.05433 0.41836,-0.06024c0.15706,-0.00186 0.30814,0.06018 0.41858,0.17188c0.11044,0.1117 0.17076,0.26348 0.16711,0.42051c-0.00409,0.27436 -0.17521,0.51844 -0.43174,0.61581c-0.41299,0.1492 -0.84946,0.22289 -1.28853,0.21755c-1.46591,0 -2.59379,-0.9438 -2.59379,-2.40972c-0.02507,-0.65532 0.22568,-1.29114 0.6913,-1.75295c0.46562,-0.46181 1.10349,-0.70731 1.75858,-0.67685c0.56267,-0.02972 1.11247,0.1752 1.51843,0.56594c0.40596,0.39074 0.63173,0.93231 0.62354,1.49571zM193.27605,329.33072c-0.00463,-0.22203 -0.10136,-0.43215 -0.26703,-0.58004c-0.16567,-0.1479 -0.38536,-0.22026 -0.6065,-0.19977c-0.46188,-0.016 -0.8603,0.32158 -0.92038,0.77981z" fill="#fe5a01"/><path d="M200.1404,325.61908v5.84357c0.00637,0.19634 -0.06743,0.38681 -0.20443,0.5276c-0.137,0.14078 -0.32539,0.21976 -0.52183,0.21875c-0.35335,0.00962 -0.65939,-0.2435 -0.71622,-0.59239c-0.32089,0.41256 -0.8161,0.6515 -1.33873,0.64594c-1.29857,0 -2.11855,-1.16135 -2.11855,-2.41976c0,-1.25841 0.81997,-2.41976 2.11855,-2.41976c0.46995,-0.01891 0.92792,0.15103 1.27179,0.4719v-2.27585c-0.0188,-0.28285 0.12143,-0.55265 0.36373,-0.69978c0.2423,-0.14713 0.54636,-0.14713 0.78866,0c0.2423,0.14713 0.38253,0.41693 0.36372,0.69978zM198.63098,330.39501v-1.13792c-0.16917,-0.31257 -0.4947,-0.50865 -0.8501,-0.51206c-0.56485,0.05412 -0.99608,0.52864 -0.99608,1.09608c0,0.56744 0.43123,1.04197 0.99608,1.09609c0.36237,-0.00782 0.6902,-0.2169 0.8501,-0.54219z" fill="#fe5a01"/><path d="M203.45042,325.94707c-0.00407,-0.32441 0.18822,-0.61915 0.48677,-0.74613c0.29855,-0.12698 0.64424,-0.06104 0.87509,0.16691c0.23085,0.22796 0.30115,0.57278 0.17795,0.87291c-0.1232,0.30014 -0.41548,0.49613 -0.73991,0.49615c-0.21149,0.0036 -0.41551,-0.07813 -0.56602,-0.22674c-0.15051,-0.14862 -0.23481,-0.35159 -0.23388,-0.56311zM203.49393,331.44257v-3.20962c-0.0188,-0.28285 0.12143,-0.55264 0.36373,-0.69977c0.2423,-0.14714 0.54636,-0.14714 0.78866,0c0.2423,0.14713 0.38253,0.41692 0.36373,0.69977v3.20962c0.0188,0.28285 -0.12143,0.55265 -0.36373,0.69978c-0.2423,0.14714 -0.54636,0.14714 -0.78866,0c-0.2423,-0.14713 -0.38253,-0.41693 -0.36373,-0.69978z" fill="#fe5a01"/><path d="M209.85626,331.38901c0,0.28783 -0.17403,0.46187 -0.48194,0.61582c-0.34857,0.15549 -0.72613,0.23534 -1.1078,0.23427c-1.19816,0 -1.78052,-0.56226 -1.78052,-1.56631v-1.88762h-0.35142c-0.11946,0.00453 -0.23566,-0.03954 -0.32207,-0.12216c-0.08641,-0.08262 -0.13563,-0.19673 -0.13645,-0.31627c0.00441,-0.16524 0.0878,-0.31833 0.22424,-0.41166l1.29188,-1.08437c0.09748,-0.09937 0.22908,-0.15799 0.36816,-0.16399c0.22759,0 0.44178,0.1506 0.44178,0.53215v0.29787h1.15801c0.23758,-0.01727 0.4649,0.0997 0.58895,0.30305c0.12406,0.20335 0.12406,0.45899 0,0.66235c-0.12406,0.20335 -0.35137,0.32032 -0.58895,0.30305h-1.15801v1.58974c-0.01567,0.1409 0.03283,0.28139 0.1321,0.3826c0.09927,0.10122 0.23879,0.15244 0.37996,0.1395c0.12114,0.00023 0.2417,-0.01667 0.35811,-0.0502c0.12191,-0.04609 0.24886,-0.07755 0.37819,-0.09371c0.16602,-0.0002 0.32485,0.06774 0.43936,0.18794c0.11451,0.1202 0.17467,0.28214 0.16642,0.44795z" fill="#fe5a01"/><path d="M212.26598,331.63668c-0.02223,0.90761 -0.46654,1.75291 -1.20151,2.28589c-0.08979,0.08792 -0.20911,0.13922 -0.33469,0.14391c-0.09861,0.00841 -0.19625,-0.02477 -0.26934,-0.09149c-0.07308,-0.06673 -0.11497,-0.16096 -0.11555,-0.25993c0.00224,-0.10742 0.04673,-0.20964 0.12383,-0.28448c0.36146,-0.33646 0.60843,-0.77771 0.70619,-1.26175c-0.4232,-0.0475 -0.74391,-0.40416 -0.74635,-0.83002c-0.00591,-0.23667 0.08715,-0.46509 0.25676,-0.63025c0.16961,-0.16517 0.40041,-0.25212 0.63684,-0.23993c0.55223,0 0.9438,0.44847 0.9438,1.16805z" fill="#fe5a01"/><path d="M218.6919,328.13924c0.00449,0.19936 -0.07134,0.39216 -0.21044,0.53503c-0.13911,0.14288 -0.3298,0.22384 -0.52921,0.22469c-0.47559,-0.02375 -0.92801,0.20692 -1.18813,0.60578v1.93782c0.0188,0.28285 -0.12142,0.55265 -0.36372,0.69978c-0.2423,0.14714 -0.54636,0.14714 -0.78866,0c-0.2423,-0.14713 -0.38253,-0.41693 -0.36373,-0.69978v-3.20962c-0.0188,-0.28285 0.12143,-0.55264 0.36373,-0.69977c0.2423,-0.14714 0.54636,-0.14714 0.78866,0c0.2423,0.14713 0.38253,0.41692 0.36372,0.69977v0.05021c0.33469,-0.6359 0.73631,-0.86013 1.19817,-0.86013c0.1928,-0.00547 0.37952,0.06779 0.51716,0.2029c0.13764,0.13511 0.21434,0.32045 0.21245,0.51331z" fill="#fe5a01"/><path d="M223.5582,329.48467c0.01573,0.18618 -0.04192,0.37114 -0.16065,0.51541c-0.1764,0.15635 -0.41258,0.22732 -0.64594,0.19412h-2.27585c0.14391,0.49198 0.56561,0.76977 1.24167,0.76977c0.18918,-0.00074 0.37771,-0.02206 0.56227,-0.06359c0.13818,-0.0342 0.27946,-0.05439 0.4217,-0.06025c0.15649,-0.00095 0.3067,0.06149 0.4164,0.17309c0.1097,0.1116 0.16957,0.26285 0.16595,0.4193c0.00223,0.27534 -0.16947,0.52215 -0.4284,0.61582c-0.41415,0.14916 -0.85171,0.22284 -1.29188,0.21754c-1.46591,0 -2.59379,-0.9438 -2.59379,-2.40972c-0.02507,-0.65532 0.22568,-1.29114 0.6913,-1.75295c0.46562,-0.4618 1.10349,-0.70731 1.75858,-0.67685c0.56178,-0.02972 1.11074,0.17485 1.51608,0.56496c0.40534,0.39011 0.63075,0.93084 0.62256,1.49335zM222.25628,329.33072c-0.0037,-0.22174 -0.09968,-0.43189 -0.26483,-0.57989c-0.16515,-0.148 -0.38453,-0.22045 -0.60534,-0.19992c-0.46636,-0.02149 -0.87179,0.31709 -0.93377,0.77981z" fill="#fe5a01"/><path d="M229.32814,329.84278c0,1.21824 -0.81997,2.41976 -2.1721,2.41976c-0.44006,0.02369 -0.86793,-0.14918 -1.16804,-0.4719v2.18213c-0.00176,0.42051 -0.33929,0.7625 -0.75973,0.76978c-0.42067,-0.00551 -0.75826,-0.34908 -0.75638,-0.76978v-5.74986c0.00251,-0.38286 0.30054,-0.69867 0.68262,-0.72332c0.38208,-0.02465 0.71822,0.25023 0.7699,0.6296c0.28391,-0.44335 0.77547,-0.70998 1.30192,-0.70618c1.25171,0 2.10181,1.09776 2.10181,2.41976zM227.79194,329.84278c0.02598,-0.27526 -0.0627,-0.54906 -0.24513,-0.75682c-0.18242,-0.20776 -0.44246,-0.3311 -0.71877,-0.34094c-0.36424,0.01516 -0.689,0.23383 -0.84005,0.56561v1.10445c0.15568,0.31699 0.47687,0.51903 0.83001,0.52211c0.27543,-0.01284 0.53405,-0.13621 0.71735,-0.34219c0.1833,-0.20598 0.2758,-0.47717 0.25659,-0.75223z" fill="#fe5a01"/><path d="M229.99416,329.8227c-0.0245,-1.01632 0.56886,-1.94626 1.50087,-2.35228c0.93201,-0.40602 2.01707,-0.20725 2.74463,0.50278c0.72756,0.71003 0.95274,1.78992 0.56957,2.73156c-0.38317,0.94164 -1.29837,1.55749 -2.31498,1.55778c-0.65879,0.02096 -1.2977,-0.22737 -1.76942,-0.68772c-0.47172,-0.46035 -0.73555,-1.09301 -0.73066,-1.75212zM233.45813,329.8227c0,-0.73965 -0.47191,-1.1078 -0.96389,-1.1078c-0.49198,0 -0.96389,0.36815 -0.96389,1.1078c0,0.73965 0.4719,1.14796 0.96389,1.14796c0.49198,0 0.96389,-0.40162 0.96389,-1.14796z" fill="#fe5a01"/><path d="M239.33182,328.13924c0.00449,0.19936 -0.07134,0.39216 -0.21044,0.53503c-0.13911,0.14288 -0.3298,0.22384 -0.52921,0.22469c-0.47559,-0.02375 -0.92801,0.20692 -1.18813,0.60578v1.93782c0.0188,0.28285 -0.12142,0.55265 -0.36372,0.69978c-0.2423,0.14714 -0.54637,0.14714 -0.78867,0c-0.2423,-0.14713 -0.38253,-0.41693 -0.36372,-0.69978v-3.20962c-0.0188,-0.28285 0.12142,-0.55264 0.36372,-0.69977c0.2423,-0.14714 0.54637,-0.14714 0.78867,0c0.2423,0.14713 0.38253,0.41692 0.36372,0.69977v0.05021c0.33469,-0.6359 0.7363,-0.86013 1.19817,-0.86013c0.1928,-0.00547 0.37952,0.06779 0.51716,0.2029c0.13764,0.13511 0.21434,0.32045 0.21245,0.51331z" fill="#fe5a01"/><path d="M243.67601,331.38901c0,0.28783 -0.17403,0.46187 -0.48194,0.61582c-0.34857,0.15549 -0.72613,0.23534 -1.10781,0.23427c-1.19816,0 -1.78386,-0.56226 -1.78386,-1.56631v-1.88762h-0.33468c-0.12003,0.00547 -0.23711,-0.0382 -0.32425,-0.12092c-0.08714,-0.08272 -0.13683,-0.19736 -0.13762,-0.31752c0.00572,-0.16571 0.09029,-0.31869 0.22759,-0.41166l1.29188,-1.08437c0.09708,-0.09994 0.22892,-0.15866 0.36815,-0.16399c0.22424,0 0.44178,0.1506 0.44178,0.53215v0.29787h1.15801c0.23758,-0.01727 0.4649,0.0997 0.58895,0.30305c0.12406,0.20335 0.12406,0.45899 0,0.66235c-0.12406,0.20335 -0.35137,0.32032 -0.58895,0.30305h-1.15801v1.58974c-0.01567,0.1409 0.03283,0.28139 0.1321,0.3826c0.09927,0.10122 0.23879,0.15244 0.37996,0.1395c0.12114,0.00023 0.2417,-0.01667 0.35811,-0.0502c0.12178,-0.04649 0.24878,-0.07797 0.37819,-0.09371c0.16338,0.00433 0.31816,0.07413 0.42956,0.19371c0.1114,0.11958 0.17007,0.27891 0.16283,0.44218z" fill="#fe5a01"/><path d="M250.53033,329.12321v2.35952c0.01553,0.37295 -0.25925,0.69473 -0.63003,0.73778c-0.37078,0.04306 -0.71199,-0.20721 -0.78233,-0.5738c-0.38892,0.37744 -0.90421,0.59692 -1.44584,0.61582c-0.69037,0.06416 -1.3125,-0.41727 -1.42363,-1.10165c-0.11112,-0.68438 0.32673,-1.33792 1.00193,-1.4955c0.59744,-0.19245 1.21989,-0.29619 1.84745,-0.3079v-0.13388c0,-0.38824 -0.22759,-0.5221 -0.74969,-0.5221c-0.2262,-0.00046 -0.45139,0.02994 -0.66936,0.09036c-0.12581,0.04073 -0.25625,0.06547 -0.38823,0.07363c-0.16142,0.00819 -0.31924,-0.04956 -0.43726,-0.16c-0.11802,-0.11044 -0.18608,-0.26409 -0.1886,-0.4257c-0.00616,-0.25651 0.14908,-0.48937 0.38823,-0.58235c0.47636,-0.18842 0.98377,-0.28604 1.49603,-0.28783c1.2149,0.01339 1.98133,0.58235 1.98133,1.71358zM248.18755,331.10119c0.33321,-0.02272 0.6533,-0.1387 0.92372,-0.33468v-0.54554c-0.24163,0.0257 -0.4818,0.06369 -0.71957,0.1138c-0.46187,0.09036 -0.64594,0.2142 -0.64594,0.42839c0,0.21419 0.15061,0.33803 0.41836,0.33803z" fill="#fe5a01"/><path d="M256.08607,329.10313v2.34278c0.01881,0.28285 -0.12142,0.55264 -0.36372,0.69978c-0.2423,0.14713 -0.54636,0.14713 -0.78866,0c-0.2423,-0.14713 -0.38254,-0.41693 -0.36373,-0.69978v-2.0081c0,-0.41836 -0.16399,-0.7363 -0.62586,-0.7363c-0.35149,0.0142 -0.66137,0.23478 -0.78985,0.56227v2.1654c0.0188,0.28285 -0.12142,0.55264 -0.36373,0.69978c-0.2423,0.14713 -0.54636,0.14713 -0.78866,0c-0.2423,-0.14714 -0.38253,-0.41692 -0.36373,-0.69978v-3.19623c-0.0009,-0.20176 0.07886,-0.39552 0.22153,-0.53819c0.14267,-0.14267 0.33643,-0.22243 0.5382,-0.22154c0.36956,0.00429 0.68342,0.27171 0.74635,0.6359c0.33505,-0.42345 0.84562,-0.67011 1.38559,-0.66937c0.81997,-0.01674 1.55627,0.52545 1.55627,1.66338z" fill="#fe5a01"/><path d="M261.75561,328.21287c-0.00006,0.12421 -0.02869,0.24674 -0.08367,0.35811l-2.77787,5.66954c-0.11935,0.30243 -0.41118,0.5014 -0.73631,0.50203c-0.39083,-0.01753 -0.7011,-0.33513 -0.70952,-0.72627c-0.00132,-0.12437 0.02738,-0.2472 0.08367,-0.35811l0.9003,-1.67342l-1.5362,-3.38365c-0.05498,-0.11137 -0.08361,-0.2339 -0.08367,-0.35811c0.00733,-0.41327 0.34641,-0.7434 0.75973,-0.73966c0.32239,0.00426 0.61042,0.20244 0.72961,0.50203c0.27444,0.6359 0.70618,1.74371 0.97058,2.4934c0.30391,-0.84796 0.65019,-1.68014 1.03752,-2.4934c0.11935,-0.30243 0.41118,-0.5014 0.73631,-0.50203c0.38393,0.01852 0.69101,0.3256 0.70953,0.70953z" fill="#fe5a01"/><path d="M269.4299,329.79257c0,1.30861 -0.96388,2.46997 -2.64399,2.46997c-0.51247,-0.01313 -1.01738,-0.12685 -1.486,-0.33468c-0.41076,-0.13689 -0.66828,-0.54415 -0.61582,-0.97392v-5.35494c-0.0188,-0.28285 0.12143,-0.55264 0.36373,-0.69978c0.2423,-0.14713 0.54636,-0.14713 0.78866,0c0.2423,0.14713 0.38253,0.41693 0.36373,0.69978v2.09177c0.29995,-0.1907 0.64862,-0.29065 1.00405,-0.28783c1.35547,0.02008 2.22564,1.1078 2.22564,2.38964zM267.91044,329.83274c0.02346,-0.28046 -0.07188,-0.5579 -0.26278,-0.7647c-0.1909,-0.20681 -0.45983,-0.324 -0.74127,-0.32302c-0.25219,-0.00919 -0.49965,0.07014 -0.69949,0.22424v1.81733c0.19025,0.09879 0.40145,0.15044 0.61582,0.15061c0.29699,0.01945 0.58775,-0.09127 0.79659,-0.30332c0.20884,-0.21206 0.31511,-0.50447 0.29113,-0.80113z" fill="#fe5a01"/><path d="M274.73798,328.23295v3.20961c0,0.20119 -0.08014,0.39409 -0.22272,0.53603c-0.14258,0.14195 -0.33582,0.22125 -0.53701,0.22035c-0.37007,-0.00294 -0.68468,-0.27099 -0.74635,-0.6359c-0.33409,0.42466 -0.84527,0.67161 -1.38559,0.66937c-0.81662,0 -1.55628,-0.54219 -1.55628,-1.67342v-2.34278c-0.0188,-0.28285 0.12142,-0.55265 0.36372,-0.69978c0.2423,-0.14714 0.54636,-0.14714 0.78866,0c0.2423,0.14713 0.38253,0.41693 0.36373,0.69978v1.98802c0,0.4217 0.16399,0.73965 0.62586,0.73965c0.35202,-0.01561 0.6617,-0.23737 0.78985,-0.56561v-2.14533c-0.0188,-0.28285 0.12142,-0.55264 0.36372,-0.69977c0.2423,-0.14713 0.54637,-0.14713 0.78867,0c0.2423,0.14713 0.38253,0.41692 0.36372,0.69977z" fill="#fe5a01"/><path d="M279.55407,328.43711v0.02008c0.31883,0.21064 0.50519,0.57194 0.49198,0.95385c0,0.86014 -0.74635,1.51611 -2.1219,1.51611c-0.06795,0.0052 -0.1362,0.0052 -0.20415,0c-0.0817,0.05169 -0.13199,0.14096 -0.13387,0.23763c0,0.17404 0.14391,0.20415 0.95385,0.35811c1.39229,0.26774 2.15202,0.56227 2.15202,1.49604c0,1.0576 -0.98397,1.73366 -2.69421,1.73366c-1.71023,0 -2.55363,-0.66937 -2.55363,-1.51947c0,-0.44847 0.24766,-0.87018 0.98397,-1.21825c-0.19974,-0.13218 -0.31932,-0.35622 -0.31795,-0.59573c0.00684,-0.33539 0.22394,-0.63021 0.54219,-0.7363c-0.58438,-0.25659 -0.95866,-0.83778 -0.9505,-1.47595c0,-1.07768 1.03417,-1.67342 2.22229,-1.67342h2.34279c0.15668,-0.02121 0.31489,0.02617 0.43412,0.13002c0.11923,0.10385 0.18788,0.25406 0.18838,0.41217c0.0025,0.14903 -0.05842,0.2921 -0.16757,0.3936c-0.10915,0.10149 -0.25628,0.15186 -0.40474,0.13855c-0.26227,-0.01265 -0.5204,-0.07038 -0.76307,-0.17069zM278.13167,332.58049c-0.26774,-0.05355 -0.50202,-0.10376 -0.70953,-0.16735c-0.44847,0.22758 -0.55223,0.4719 -0.55223,0.6359c0,0.3715 0.46186,0.66937 1.22828,0.66937c0.83002,0 1.15801,-0.33468 1.15801,-0.62251c0,-0.28783 -0.37819,-0.3648 -1.12453,-0.51541zM278.63369,329.23366c-0.00736,-0.1905 -0.09559,-0.36882 -0.24256,-0.49023c-0.14697,-0.12142 -0.33875,-0.1744 -0.52721,-0.14567c-0.48194,0 -0.77981,0.28783 -0.77981,0.6359c0,0.34807 0.30791,0.6359 0.77981,0.6359c0.18747,0.02468 0.37662,-0.03109 0.52073,-0.15351c0.14411,-0.12243 0.22971,-0.30009 0.23565,-0.48908z" fill="#fe5a01"/><path d="M281.60568,331.93455c-0.26443,-0.09077 -0.4446,-0.33633 -0.45182,-0.61581c-0.00736,-0.15073 0.04766,-0.29786 0.15213,-0.40677c0.10447,-0.1089 0.24918,-0.16999 0.40009,-0.1689c0.22332,0.02264 0.44147,0.08142 0.64594,0.17404c0.26346,0.0931 0.54056,0.14173 0.81997,0.14391c0.4217,0 0.5857,-0.09036 0.5857,-0.24431c0,-0.21755 -0.36145,-0.28783 -0.95385,-0.46186c-0.93376,-0.27778 -1.55963,-0.5857 -1.55963,-1.44584c0,-0.86014 0.66936,-1.48599 1.92777,-1.48599c0.46717,0.00209 0.93081,0.08125 1.37221,0.23427c0.2779,0.07165 0.47458,0.31889 0.48194,0.60578c0.01605,0.15399 -0.03368,0.3076 -0.13693,0.42297c-0.10325,0.11536 -0.25044,0.18176 -0.40526,0.18281c-0.18831,-0.01935 -0.37368,-0.06091 -0.55222,-0.12383c-0.24724,-0.07071 -0.50263,-0.10897 -0.75974,-0.1138c-0.35811,0 -0.5221,0.08367 -0.5221,0.23763c0,0.15395 0.24432,0.25436 1.00405,0.48194c0.75973,0.22759 1.49604,0.52211 1.49604,1.40232c0,0.88022 -0.69615,1.50942 -1.96794,1.50942c-0.54264,0.00242 -1.07972,-0.10932 -1.57635,-0.32799z" fill="#fe5a01"/><path d="M288.21567,325.94707c-0.00408,-0.32472 0.18857,-0.61966 0.48754,-0.74645c0.29897,-0.12678 0.64492,-0.06023 0.87551,0.16842c0.23059,0.22866 0.30006,0.57403 0.1758,0.87405c-0.12426,0.30003 -0.41757,0.49515 -0.74231,0.49382c-0.21118,0.00362 -0.41487,-0.07822 -0.56485,-0.22693c-0.14998,-0.14872 -0.23353,-0.35171 -0.2317,-0.56292zM288.25584,331.44257v-3.20962c-0.0188,-0.28285 0.12143,-0.55264 0.36373,-0.69977c0.2423,-0.14714 0.54636,-0.14714 0.78866,0c0.2423,0.14713 0.38253,0.41692 0.36373,0.69977v3.20962c0.0188,0.28285 -0.12143,0.55265 -0.36373,0.69978c-0.2423,0.14714 -0.54636,0.14714 -0.78866,0c-0.2423,-0.14713 -0.38254,-0.41693 -0.36373,-0.69978z" fill="#fe5a01"/><path d="M295.35447,329.10313v2.34278c0.0188,0.28285 -0.12142,0.55264 -0.36372,0.69978c-0.2423,0.14713 -0.54636,0.14713 -0.78866,0c-0.2423,-0.14713 -0.38254,-0.41693 -0.36373,-0.69978v-2.0081c0,-0.41836 -0.16399,-0.7363 -0.62586,-0.7363c-0.35149,0.0142 -0.66137,0.23478 -0.78985,0.56227v2.1654c0.0188,0.28285 -0.12142,0.55264 -0.36372,0.69978c-0.2423,0.14713 -0.54636,0.14713 -0.78866,0c-0.2423,-0.14714 -0.38253,-0.41692 -0.36373,-0.69978v-3.19623c-0.00092,-0.20293 0.07975,-0.39772 0.22388,-0.54059c0.14413,-0.14287 0.33963,-0.22183 0.54255,-0.21914c0.37083,0.00268 0.68654,0.27048 0.74969,0.6359c0.334,-0.42293 0.84333,-0.66958 1.38224,-0.66937c0.80324,-0.01674 1.54958,0.52545 1.54958,1.66338z" fill="#fe5a01"/><path d="M298.42017,329.84278c0,-1.45587 1.08773,-2.4298 2.51348,-2.4298c0.4599,-0.01229 0.91415,0.10359 1.31196,0.33468c0.20497,0.13406 0.3303,0.3609 0.33468,0.60578c0.01223,0.17515 -0.04966,0.34739 -0.17059,0.47468c-0.12093,0.12729 -0.28976,0.19793 -0.46531,0.19469c-0.1622,-0.0064 -0.32198,-0.04153 -0.4719,-0.10375c-0.16066,-0.05963 -0.33065,-0.09023 -0.50203,-0.09036c-0.27193,-0.01317 -0.53702,0.08769 -0.73142,0.27829c-0.1944,0.19059 -0.30049,0.45363 -0.29271,0.72576c-0.00561,0.28991 0.11152,0.56869 0.32252,0.76757c0.211,0.19888 0.49622,0.29936 0.78528,0.27664c0.15341,0.0042 0.30606,-0.02314 0.44848,-0.08032c0.12759,-0.05235 0.26374,-0.08072 0.40162,-0.08367c0.17327,-0.0155 0.34485,0.04425 0.47102,0.16402c0.12617,0.11977 0.19477,0.288 0.18831,0.46184c-0.0131,0.31155 -0.21055,0.58533 -0.50203,0.69614c-0.35442,0.15859 -0.73969,0.23633 -1.12788,0.22759c-1.41571,0 -2.51348,-0.96389 -2.51348,-2.41976z" fill="#fe5a01"/><path d="M303.1459,329.8227c-0.0245,-1.01632 0.56886,-1.94626 1.50087,-2.35228c0.93201,-0.40602 2.01706,-0.20725 2.74463,0.50278c0.72757,0.71003 0.95274,1.78992 0.56957,2.73156c-0.38317,0.94164 -1.29837,1.55749 -2.31498,1.55778c-0.65879,0.02096 -1.2977,-0.22737 -1.76942,-0.68772c-0.47172,-0.46035 -0.73555,-1.09301 -0.73067,-1.75212zM306.60988,329.8227c0,-0.73965 -0.4719,-1.1078 -0.96389,-1.1078c-0.49198,0 -0.96389,0.36815 -0.96389,1.1078c0,0.73965 0.4719,1.14796 0.96389,1.14796c0.49198,0 0.96389,-0.40162 0.96389,-1.14796z" fill="#fe5a01"/><path d="M316.34581,329.11317v2.34278c0.0188,0.28285 -0.12142,0.55264 -0.36372,0.69978c-0.2423,0.14713 -0.54636,0.14713 -0.78866,0c-0.2423,-0.14713 -0.38253,-0.41692 -0.36373,-0.69978v-2.0081c0,-0.57231 -0.33468,-0.73631 -0.61581,-0.73631c-0.32837,0.0058 -0.62351,0.20169 -0.75639,0.50203v2.22565c-0.00356,0.4192 -0.34058,0.75918 -0.75973,0.76642c-0.42067,-0.00367 -0.75975,-0.34574 -0.75973,-0.76642v-2.0081c0,-0.56227 -0.33469,-0.72627 -0.61247,-0.72627c-0.33457,0.00572 -0.63518,0.2057 -0.76977,0.51207v2.2156c0.0188,0.28285 -0.12142,0.55264 -0.36372,0.69978c-0.2423,0.14713 -0.54637,0.14713 -0.78867,0c-0.2423,-0.14714 -0.38253,-0.41693 -0.36372,-0.69978v-3.17949c-0.001,-0.39234 0.2969,-0.7209 0.68746,-0.75822c0.39056,-0.03732 0.74529,0.22888 0.81862,0.61431c0.30588,-0.43663 0.80562,-0.69649 1.33873,-0.69614c0.56084,-0.03462 1.09134,0.25735 1.36216,0.74969c0.35149,-0.48562 0.92021,-0.76622 1.51946,-0.74969c0.76977,0 1.5797,0.39827 1.5797,1.70019z" fill="#fe5a01"/><path d="M324.75975,329.11317v2.34278c0.0188,0.28285 -0.12142,0.55264 -0.36372,0.69978c-0.2423,0.14713 -0.54636,0.14713 -0.78866,0c-0.2423,-0.14713 -0.38254,-0.41692 -0.36373,-0.69978v-2.0081c0,-0.57231 -0.33468,-0.73631 -0.61581,-0.73631c-0.32837,0.0058 -0.6235,0.20169 -0.75638,0.50203v2.22565c-0.00155,0.41544 -0.33115,0.75538 -0.74635,0.76977c-0.42067,-0.00368 -0.75975,-0.34574 -0.75973,-0.76643v-2.0081c0,-0.56227 -0.33469,-0.72627 -0.61247,-0.72627c-0.33457,0.00573 -0.63519,0.20571 -0.76977,0.51207v2.2156c0.0188,0.28285 -0.12142,0.55265 -0.36372,0.69978c-0.2423,0.14713 -0.54636,0.14713 -0.78866,0c-0.2423,-0.14713 -0.38254,-0.41693 -0.36373,-0.69978v-3.18283c-0.001,-0.39234 0.29691,-0.7209 0.68747,-0.75822c0.39056,-0.03732 0.74529,0.22888 0.81861,0.61431c0.30588,-0.43663 0.80562,-0.69649 1.33873,-0.69614c0.56084,-0.03462 1.09134,0.25735 1.36216,0.74969c0.35351,-0.48861 0.92675,-0.76959 1.52951,-0.74969c0.74635,0 1.55627,0.39827 1.55627,1.70019z" fill="#fe5a01"/><path d="M330.23183,329.48467c0.01391,0.18551 -0.0449,0.36915 -0.16399,0.51207c-0.1764,0.15635 -0.41258,0.22732 -0.64594,0.19412h-2.2725c0.14056,0.49198 0.56227,0.76977 1.23833,0.76977c0.18917,-0.00074 0.37771,-0.02206 0.56227,-0.06359c0.13819,-0.0342 0.27946,-0.05438 0.4217,-0.06024c0.15679,-0.00093 0.30732,0.0614 0.41755,0.1729c0.11023,0.11149 0.17085,0.26272 0.16814,0.41949c-0.00409,0.27436 -0.17521,0.51844 -0.43174,0.61581c-0.41415,0.14916 -0.85171,0.22285 -1.29188,0.21755c-1.46591,0 -2.59379,-0.9438 -2.59379,-2.40972c-0.02506,-0.65532 0.22568,-1.29115 0.6913,-1.75295c0.46562,-0.4618 1.10349,-0.70731 1.75858,-0.67685c0.56293,-0.03073 1.11333,0.17386 1.51952,0.56482c0.40619,0.39096 0.63165,0.93313 0.62246,1.49683zM328.92991,329.33072c-0.00371,-0.22174 -0.09969,-0.43189 -0.26484,-0.57989c-0.16515,-0.148 -0.38452,-0.22045 -0.60534,-0.19992c-0.46636,-0.02149 -0.87178,0.31709 -0.93376,0.77981z" fill="#fe5a01"/><path d="M335.56333,329.10313v2.34278c0,0.41959 -0.34014,0.75973 -0.75973,0.75973c-0.41959,0 -0.75973,-0.34015 -0.75973,-0.75973v-2.0081c0,-0.41835 -0.164,-0.7363 -0.62251,-0.7363c-0.35208,0.01246 -0.66282,0.23367 -0.78985,0.56226v2.16541c0,0.41959 -0.34014,0.75973 -0.75973,0.75973c-0.41959,0 -0.75973,-0.34014 -0.75973,-0.75973v-3.19623c0,-0.41959 0.34014,-0.75973 0.75973,-0.75973c0.36984,0.00534 0.68408,0.27189 0.74969,0.6359c0.334,-0.42293 0.84333,-0.66958 1.38224,-0.66937c0.81997,-0.01673 1.55962,0.52546 1.55962,1.66338z" fill="#fe5a01"/><path d="M340.38947,331.38901c0,0.28783 -0.17404,0.46187 -0.48194,0.61582c-0.34857,0.15549 -0.72613,0.23534 -1.1078,0.23427c-1.19817,0 -1.78386,-0.56226 -1.78386,-1.56631v-1.88762h-0.33468c-0.12003,0.00547 -0.23711,-0.0382 -0.32425,-0.12092c-0.08714,-0.08272 -0.13683,-0.19736 -0.13762,-0.31752c0.00572,-0.16571 0.09029,-0.31869 0.22758,-0.41166l1.29188,-1.08437c0.09708,-0.09994 0.22892,-0.15866 0.36815,-0.16399c0.22424,0 0.43844,0.1506 0.43844,0.53215v0.29787h1.16135c0.33243,0.02416 0.5898,0.30091 0.5898,0.63423c0,0.33331 -0.25737,0.61006 -0.5898,0.63422h-1.17809v1.58974c-0.01585,0.14154 0.03309,0.28267 0.13315,0.38402c0.10005,0.10136 0.24054,0.1521 0.38227,0.13808c0.12113,0 0.24166,-0.01689 0.35811,-0.0502c0.12178,-0.04649 0.24878,-0.07797 0.37819,-0.09371c0.16629,-0.00016 0.32543,0.06768 0.44047,0.18777c0.11503,0.12009 0.17597,0.282 0.16866,0.44813z" fill="#fe5a01"/><path d="M341.79179,325.13713c1.0726,1.15548 1.66289,2.6773 1.64999,4.25382c0.03515,1.55277 -0.56009,3.05357 -1.64999,4.16012c-0.13263,0.16219 -0.32381,0.26561 -0.53215,0.28783c-0.14051,0.00096 -0.2754,-0.05513 -0.37381,-0.15544c-0.09841,-0.1003 -0.15193,-0.23624 -0.1483,-0.37671c0.02663,-0.20181 0.11965,-0.38902 0.2644,-0.53214c0.74372,-0.9683 1.13137,-2.16316 1.09776,-3.38365c0.02155,-1.24656 -0.36384,-2.46617 -1.09776,-3.47401c-0.14414,-0.14357 -0.23704,-0.33057 -0.2644,-0.53215c-0.00361,-0.14078 0.0498,-0.27704 0.14811,-0.37787c0.09831,-0.10083 0.23318,-0.15767 0.374,-0.15762c0.20833,0.02223 0.39952,0.12563 0.53215,0.28783z" fill="#fe5a01"/></g></g></svg>