<svg xmlns="http://www.w3.org/2000/svg" xmlns:xlink="http://www.w3.org/1999/xlink" version="1.1" width="158.22657" height="30.01735" viewBox="0,0,158.22657,30.01735"><g><g data-paper-data="{&quot;isPaintingLayer&quot;:true}" fill-rule="nonzero" stroke-linecap="butt" stroke-linejoin="miter" stroke-miterlimit="10" stroke-dasharray="" stroke-dashoffset="0" style="mix-blend-mode: normal"><g><path d="M 0 14.9636 C 0 6.0486 6.8145 0.0046 15.1299 0.0046 C 17.4295 -0.0512 19.7129 0.4027 21.8164 1.3337 C 23.5312 2.2341 24.3886 3.1765 24.3886 4.6774 C 24.388 5.3858 24.1003 6.0636 23.5913 6.5562 C 23.0823 7.0488 22.3954 7.3142 21.6875 7.2917 C 20.8913 7.2531 20.1144 7.0333 19.416 6.6491 C 18.1218 6.0763 16.7165 5.7981 15.3017 5.8347 C 9.6865 5.8347 6.8574 10.2487 6.8574 14.9636 C 6.8574 19.6354 9.6865 24.0075 15.2158 24.0075 C 16.6891 24.0279 18.1499 23.7357 19.5019 23.1501 C 20.3121 22.6614 21.2187 22.3545 22.1591 22.2507 C 22.8872 22.2233 23.5943 22.4976 24.1136 23.0087 C 24.6328 23.5198 24.9182 24.2225 24.9023 24.9509 C 24.8835 25.9677 24.3926 26.918 23.5742 27.5217 C 22.2451 28.6359 19.416 30.008 15.2158 30.008 C 6.5576 30.008 0 23.9646 0 14.9636 Z " stroke-width="1" fill="#fdfdfd" stroke="none"/><path d="M 44.4864 16.8923 L 44.4864 26.7502 C 44.5126 28.2885 43.3678 29.5959 41.8395 29.7731 C 40.3112 29.9502 38.8977 28.9393 38.5714 27.4357 C 36.9482 29.0173 34.7924 29.9348 32.5274 30.008 C 31.0197 30.0962 29.5427 29.5568 28.4467 28.5177 C 27.3507 27.4786 26.7334 26.0324 26.7412 24.5222 C 26.7412 21.736 28.4131 20.1501 30.7705 19.2067 C 33.2668 18.4088 35.8653 17.976 38.4854 17.9216 L 38.4854 17.364 C 38.4854 15.7351 37.543 15.1784 35.3565 15.1784 C 34.4288 15.1815 33.5059 15.3112 32.6133 15.5642 C 32.0842 15.7286 31.5374 15.8293 30.9844 15.864 C 30.3104 15.8994 29.6509 15.659 29.1578 15.1981 C 28.6647 14.7372 28.3803 14.0955 28.3701 13.4206 C 28.3448 12.3445 28.9959 11.3677 29.999 10.9772 C 31.9916 10.1895 34.1142 9.7828 36.2568 9.778 C 41.2715 9.778 44.4864 12.1774 44.4864 16.8923 Z M 34.628 25.1643 C 36.0157 25.0726 37.3509 24.5982 38.4854 23.7936 L 38.4854 21.4792 C 37.4571 21.6071 36.4707 21.736 35.4854 21.9499 C 33.5567 22.3356 32.7852 22.8503 32.7852 23.7507 C 32.7852 24.6511 33.4707 25.1643 34.6279 25.1643 Z " stroke-width="1" fill="#fdfdfd" stroke="none"/><path d="M 67.7158 16.8073 L 67.7158 26.5793 C 67.7309 27.7225 67.1296 28.7853 66.1421 29.3613 C 65.1545 29.9372 63.9334 29.9372 62.9458 29.3613 C 61.9583 28.7853 61.357 27.7225 61.3721 26.5793 L 61.3721 18.2644 C 61.3721 16.5065 60.6855 15.1784 58.7568 15.1784 C 57.286 15.2383 55.9905 16.1639 55.457 17.5358 L 55.457 26.5793 C 55.4721 27.7225 54.8708 28.7853 53.8833 29.3612 C 52.8957 29.9372 51.6746 29.9372 50.687 29.3612 C 49.6995 28.7853 49.0982 27.7224 49.1133 26.5793 L 49.1133 13.1638 C 49.1112 12.3219 49.4447 11.5139 50.04 10.9186 C 50.6353 10.3234 51.4433 9.9898 52.2851 9.9919 C 53.8317 10.0092 55.1465 11.1258 55.4141 12.6491 C 56.7965 10.8506 58.9318 9.7911 61.2002 9.778 C 64.6289 9.778 67.7158 12.0495 67.7158 16.8073 Z " stroke-width="1" fill="#fdfdfd" stroke="none"/><path d="M 90.9434 16.8073 L 90.9434 26.5793 C 90.9584 27.7225 90.3572 28.7853 89.3696 29.3613 C 88.382 29.9372 87.1609 29.9372 86.1734 29.3613 C 85.1858 28.7853 84.5846 27.7225 84.5996 26.5793 L 84.5996 18.2644 C 84.5996 16.5065 83.9131 15.1784 81.9844 15.1784 C 80.5136 15.2383 79.218 16.1639 78.6846 17.5358 L 78.6846 26.5793 C 78.6996 27.7225 78.0984 28.7853 77.1108 29.3612 C 76.1233 29.9372 74.9022 29.9372 73.9146 29.3612 C 72.927 28.7853 72.3258 27.7224 72.3408 26.5793 L 72.3408 13.1638 C 72.3388 12.3219 72.6723 11.5139 73.2676 10.9187 C 73.8629 10.3234 74.6708 9.9898 75.5127 9.9919 C 77.0592 10.0092 78.3741 11.1258 78.6416 12.6491 C 80.024 10.8506 82.1593 9.7911 84.4277 9.778 C 87.8564 9.778 90.9434 12.0495 90.9434 16.8073 Z " stroke-width="1" fill="#fdfdfd" stroke="none"/><path d="M 94.584 19.8073 C 94.584 13.8493 99.2979 9.778 105.042 9.778 C 110.8281 9.778 115.5 13.8493 115.5 19.8073 C 115.3585 25.4816 110.718 30.0078 105.042 30.0078 C 99.366 30.0078 94.7255 25.4816 94.584 19.8073 Z M 109.0713 19.8073 C 109.0713 16.7214 107.0996 15.1784 105.042 15.1784 C 102.9844 15.1784 101.0127 16.7214 101.0127 19.8073 C 101.0127 22.9362 102.9844 24.6081 105.042 24.6081 C 107.0996 24.6081 109.0713 22.9362 109.0713 19.8073 Z " stroke-width="1" fill="#fdfdfd" stroke="none"/><path d="M 137.8281 16.8073 L 137.8281 26.5793 C 137.8432 27.7225 137.2419 28.7853 136.2544 29.3613 C 135.2668 29.9372 134.0457 29.9372 133.0581 29.3613 C 132.0706 28.7853 131.4693 27.7225 131.4844 26.5793 L 131.4844 18.2644 C 131.4844 16.5065 130.7979 15.1784 128.8691 15.1784 C 127.3983 15.2383 126.1028 16.1639 125.5693 17.5358 L 125.5693 26.5793 C 125.5844 27.7225 124.9831 28.7853 123.9956 29.3612 C 123.008 29.9372 121.7869 29.9372 120.7993 29.3612 C 119.8118 28.7853 119.2105 27.7224 119.2256 26.5793 L 119.2256 13.1638 C 119.2235 12.3219 119.557 11.5139 120.1523 10.9186 C 120.7476 10.3234 121.5556 9.9898 122.3975 9.9919 C 123.944 10.0092 125.2588 11.1258 125.5264 12.6491 C 126.9088 10.8506 129.0441 9.7911 131.3125 9.778 C 134.7412 9.778 137.8281 12.0495 137.8281 16.8073 Z " stroke-width="1" fill="#fdfdfd" stroke="none"/><path d="M 143.3535 28.6359 C 142.2605 28.2419 141.5147 27.2255 141.4668 26.0647 C 141.438 25.4345 141.6699 24.8202 142.1079 24.3662 C 142.5459 23.9123 143.1514 23.6585 143.7822 23.6647 C 144.7164 23.7568 145.6288 24.0029 146.4824 24.3933 C 147.5849 24.7793 148.7431 24.9822 149.9111 24.9938 C 151.668 24.9938 152.3545 24.6081 152.3545 23.9645 C 152.3545 23.0651 150.8545 22.7644 148.3682 22.0358 C 144.4678 20.8786 141.8535 19.5925 141.8535 15.9928 C 141.8535 12.4352 144.5967 9.778 149.9111 9.778 C 151.8669 9.7854 153.8079 10.1184 155.6543 10.7633 C 156.8165 11.0601 157.6396 12.0935 157.6689 13.2926 C 157.7317 13.9359 157.5215 14.5759 157.0895 15.0566 C 156.6576 15.5374 156.0437 15.8147 155.3975 15.821 C 154.608 15.7435 153.8309 15.5706 153.083 15.3063 C 152.0512 15.0095 150.9846 14.8513 149.9111 14.8356 C 148.4111 14.8356 147.7256 15.1784 147.7256 15.821 C 147.7256 16.6354 148.7539 16.8923 151.9688 17.8356 C 155.3975 18.821 158.2266 20.0212 158.2266 23.7077 C 158.2266 27.4357 155.3116 30.008 149.9971 30.008 C 147.7106 30.0243 145.4465 29.5567 143.3535 28.6359 Z " stroke-width="1" fill="#fdfdfd" stroke="none"/></g></g></g></svg>