<svg xmlns="http://www.w3.org/2000/svg" xmlns:xlink="http://www.w3.org/1999/xlink" version="1.1" width="36.85017" height="30.40634" viewBox="0,0,36.85017,30.40634"><g><g data-paper-data="{&quot;isPaintingLayer&quot;:true}" fill-rule="nonzero" stroke-linecap="butt" stroke-linejoin="miter" stroke-miterlimit="10" stroke-dasharray="" stroke-dashoffset="0" style="mix-blend-mode: normal"><path d="M 36.5653 25.0828 C 36.5596 25.1994 36.5478 25.3156 36.53 25.4307 C 35.9725 26.482 35.3903 27.3904 34.092 27.3886 C 17.088 27.3739 19.6924 27.3708 2.6883 27.3792 C 1.9198 27.3805 1.2007 26.9539 0.7681 26.2402 C 0.5935 25.9869 0.4393 25.7159 0.2758 25.453 C 0.2668 19.1883 0.2582 12.9235 0.25 6.6588 C 0.2484 5.4292 0.2443 4.1996 0.2512 2.97 C 0.2828 1.4745 1.3597 0.2738 2.691 0.25 C 19.7145 0.2473 17.1296 0.2472 34.1532 0.2497 C 35.4362 0.2085 36.5105 1.3333 36.5643 2.774 C 36.5672 10.2103 36.5676 17.6466 36.5653 25.0828 Z " fill="#92796b" stroke="#92796b" stroke-width="0.5"/><path d="M221.68377,190.78244c0.16352,0.23401 0.31769,0.47525 0.49235,0.70063c0.43253,0.63524 1.15167,1.01493 1.92018,1.01381c17.00405,-0.00749 14.7843,-0.00472 31.78834,0.00834c1.29829,0.00161 1.88045,-0.80687 2.43798,-1.7426c0.33586,1.73533 -0.0845,3.77578 -1.56184,4.55303c-0.23251,0.11227 -0.49009,0.16255 -0.74775,0.14599c-17.04868,0.0014 -14.87356,0.00114 -31.92223,-0.0008c-1.32053,-0.0542 -2.3791,-2.26537 -2.43486,-3.58583c-0.00256,-0.3641 0.01793,-0.72837 0.02784,-1.09256z" fill="#725f54" stroke="#725f54" stroke-width="0" transform="matrix(1,0,0,1,-221.58123,-165.05839)"/><g><path d="M 8.7699 5.5419 L 8.7699 3.3838 C 8.7702 3.2477 8.8249 3.1173 8.9218 3.0216 C 9.0186 2.9259 9.1497 2.8729 9.2859 2.8744 C 9.4221 2.8729 9.5532 2.9259 9.6501 3.0215 C 9.747 3.1172 9.8017 3.2476 9.802 3.3838 L 9.802 5.5353 C 9.802 6.3395 10.2577 6.6144 10.7472 6.6144 C 11.2163 6.6144 11.6921 6.3262 11.6921 5.5353 L 11.6921 3.3569 C 11.711 3.0803 11.9444 2.8676 12.2216 2.8744 C 12.3515 2.8722 12.4769 2.9219 12.57 3.0125 C 12.6631 3.1031 12.7162 3.227 12.7176 3.3569 L 12.7176 5.5419 C 12.7176 6.8825 11.7525 7.5259 10.7405 7.5259 C 9.7216 7.5259 8.7699 6.8825 8.7699 5.5419 Z " stroke-width="1" fill="#fdfdfd" stroke="none"/><path d="M 16.3768 5.4683 L 16.3768 6.9965 C 16.3792 7.1752 16.2851 7.3414 16.1307 7.4315 C 15.9763 7.5216 15.7853 7.5216 15.6309 7.4315 C 15.4765 7.3414 15.3825 7.1752 15.3848 6.9965 L 15.3848 5.6961 C 15.3848 5.4213 15.2774 5.2136 14.9758 5.2136 C 14.7458 5.2229 14.5433 5.3677 14.4598 5.5822 L 14.4598 6.9965 C 14.4622 7.1752 14.3682 7.3414 14.2137 7.4315 C 14.0593 7.5215 13.8684 7.5215 13.7139 7.4315 C 13.5595 7.3414 13.4655 7.1752 13.4678 6.9965 L 13.4678 4.8985 C 13.4675 4.7669 13.5197 4.6405 13.6128 4.5474 C 13.7058 4.4544 13.8322 4.4022 13.9638 4.4025 C 14.2057 4.4052 14.4113 4.5798 14.4531 4.818 C 14.6693 4.5368 15.0032 4.3711 15.3579 4.3691 C 15.8941 4.3691 16.3768 4.7243 16.3768 5.4683 Z " stroke-width="1" fill="#fdfdfd" stroke="none"/><path d="M 17.1135 6.9965 L 17.1135 3.1894 C 17.1115 2.9162 17.3296 2.6922 17.6028 2.6867 C 17.8796 2.6887 18.1035 2.9126 18.1055 3.1894 L 18.1055 6.9965 C 18.1078 7.1752 18.0138 7.3414 17.8594 7.4315 C 17.705 7.5216 17.514 7.5216 17.3596 7.4315 C 17.2052 7.3414 17.1111 7.1752 17.1135 6.9965 Z " stroke-width="1" fill="#fdfdfd" stroke="none"/><path d="M 18.7017 5.9374 C 18.7017 5.0058 19.4389 4.3691 20.3372 4.3691 C 21.242 4.3691 21.9726 5.0058 21.9726 5.9374 C 21.9505 6.8248 21.2248 7.5327 20.3371 7.5327 C 19.4495 7.5327 18.7238 6.8248 18.7017 5.9374 Z M 20.9673 5.9374 C 20.9673 5.4549 20.6589 5.2136 20.3372 5.2136 C 20.0154 5.2136 19.7071 5.4549 19.7071 5.9374 C 19.7071 6.4267 20.0154 6.6882 20.3372 6.6882 C 20.6589 6.6882 20.9673 6.4267 20.9673 5.9374 Z " stroke-width="1" fill="#fdfdfd" stroke="none"/><path d="M 22.4076 5.9509 C 22.4076 4.999 23.1182 4.3624 24.0499 4.3624 C 24.3509 4.3546 24.648 4.4312 24.9078 4.5835 C 25.0452 4.6689 25.1307 4.8174 25.1356 4.979 C 25.1413 5.0921 25.0998 5.2025 25.0211 5.2838 C 24.9423 5.3651 24.8333 5.4101 24.7201 5.408 C 24.6141 5.4044 24.5097 5.3817 24.4118 5.341 C 24.3069 5.301 24.1955 5.2806 24.0833 5.2806 C 23.9042 5.272 23.7297 5.3389 23.6023 5.4651 C 23.4749 5.5912 23.4062 5.765 23.413 5.9442 C 23.4093 6.1337 23.4857 6.3161 23.6236 6.4463 C 23.7614 6.5765 23.9478 6.6424 24.1369 6.6278 C 24.2378 6.6307 24.3383 6.6124 24.4318 6.5742 C 24.515 6.541 24.6036 6.5228 24.6932 6.5205 C 24.8051 6.5124 24.9152 6.5524 24.9959 6.6305 C 25.0765 6.7085 25.12 6.8173 25.1154 6.9294 C 25.1077 7.1336 24.9783 7.3131 24.7871 7.3851 C 24.5554 7.4885 24.3035 7.5389 24.0498 7.5326 C 23.1249 7.5326 22.4076 6.9026 22.4076 5.9509 Z " stroke-width="1" fill="#fdfdfd" stroke="none"/><path d="M 28.7344 7.0299 C 28.7352 7.1581 28.6832 7.281 28.5906 7.3697 C 28.4981 7.4585 28.3731 7.5052 28.2451 7.499 C 28.0852 7.4934 27.9368 7.4143 27.843 7.2846 L 27.0923 6.3195 L 26.6969 6.5608 L 26.6969 6.9965 C 26.6993 7.1752 26.6053 7.3414 26.4508 7.4315 C 26.2964 7.5216 26.1055 7.5216 25.951 7.4315 C 25.7966 7.3414 25.7026 7.1752 25.7049 6.9965 L 25.7049 3.1894 C 25.7025 3.0106 25.7965 2.8444 25.951 2.7543 C 26.1054 2.6642 26.2964 2.6642 26.4509 2.7543 C 26.6053 2.8444 26.6993 3.0106 26.6969 3.1894 L 26.6969 5.589 L 27.8966 4.5366 C 27.9871 4.4507 28.107 4.4027 28.2318 4.4026 C 28.4755 4.4102 28.6701 4.6079 28.6741 4.8517 C 28.6704 5.0019 28.599 5.1423 28.4797 5.2336 L 27.843 5.7832 L 28.5601 6.6546 C 28.6627 6.7538 28.7248 6.8875 28.7344 7.0299 Z " stroke-width="1" fill="#fdfdfd" stroke="none"/></g></g></g></svg>