<svg xmlns="http://www.w3.org/2000/svg" xmlns:xlink="http://www.w3.org/1999/xlink" version="1.1" width="17.125" height="17.125" viewBox="0,0,17.125,17.125"><defs><linearGradient x1="224.77085" y1="181" x2="241.89585" y2="181" gradientUnits="userSpaceOnUse" id="color-1"><stop offset="0" stop-color="#9966ff" stop-opacity="0"/><stop offset="1" stop-color="#9966ff" stop-opacity="0"/></linearGradient></defs><g><g data-paper-data="{&quot;isPaintingLayer&quot;:true}" fill-rule="nonzero" stroke-linecap="butt" stroke-linejoin="miter" stroke-miterlimit="10" stroke-dasharray="" stroke-dashoffset="0" style="mix-blend-mode: normal"><g><path d="M 0.2938 8.6458 C 0.2938 4.1252 3.9585 0.4605 8.4792 0.4605 C 12.9998 0.4605 16.6645 4.1252 16.6645 8.6458 C 16.6645 13.1665 12.9998 16.8312 8.4792 16.8312 C 3.9585 16.8312 0.2938 13.1665 0.2938 8.6458 Z " fill="#fcb40f" stroke-width="1" stroke="none"/><path d="M 2.2409 8.6458 C 2.2409 5.2006 5.0339 2.4076 8.4791 2.4076 C 11.9244 2.4076 14.7174 5.2006 14.7174 8.6458 C 14.7174 12.0911 11.9244 14.8841 8.4791 14.8841 C 5.0339 14.8841 2.2409 12.0911 2.2409 8.6458 Z " fill="#fdd264" stroke-width="1" stroke="none"/><path d="M 8.4791 15.3763 C 5.7568 15.3764 3.3026 13.7366 2.2608 11.2216 C 1.2189 8.7066 1.7947 5.8117 3.7196 3.8867 C 5.6445 1.9618 8.5394 1.3859 11.0544 2.4277 C 13.5695 3.4694 15.2093 5.9236 15.2093 8.6458 C 15.2052 12.3612 12.1944 15.372 8.4791 15.3763 Z M 8.4791 2.8994 C 6.1548 2.8993 4.0594 4.2993 3.1699 6.4466 C 2.2803 8.5939 2.7719 11.0656 4.4154 12.7091 C 6.0588 14.3526 8.5305 14.8443 10.6779 13.9549 C 12.8252 13.0654 14.2253 10.9701 14.2253 8.6458 C 14.2218 5.4737 11.6512 2.903 8.4791 2.8994 Z " fill="#eaab0c" stroke-width="1" stroke="none"/><path d="M 11.0762 9.9335 C 11.0762 11.0132 10.2428 11.6862 9.2168 11.9003 L 9.2168 12.3598 C 9.2108 12.7274 8.9111 13.0223 8.5434 13.0223 C 8.1757 13.0223 7.876 12.7274 7.87 12.3598 L 7.87 11.9427 C 7.3463 11.8945 6.8376 11.742 6.3737 11.4941 C 6.0856 11.3587 5.8963 11.0748 5.8821 10.7567 C 5.8819 10.5696 5.9561 10.39 6.0885 10.2577 C 6.2208 10.1253 6.4004 10.0511 6.5875 10.0513 C 6.7755 10.0633 6.9582 10.1181 7.1219 10.2114 C 7.5472 10.4246 8.0143 10.5415 8.4899 10.5537 C 8.9389 10.5537 9.3662 10.3825 9.3662 10.0188 C 9.3662 8.9716 6.0746 9.3887 6.0746 7.2294 C 6.0746 6.1178 6.9402 5.5301 7.87 5.327 L 7.87 4.9319 C 7.876 4.5643 8.1757 4.2694 8.5434 4.2694 C 8.9111 4.2694 9.2108 4.5643 9.2168 4.9319 L 9.2168 5.2632 C 9.5317 5.2902 9.8412 5.3621 10.1358 5.4767 C 10.606 5.6693 10.9053 5.8938 10.9053 6.2999 C 10.9057 6.4842 10.8326 6.6611 10.7022 6.7914 C 10.5718 6.9218 10.3949 6.9948 10.2106 6.9944 C 10.0461 6.9892 9.8835 6.9567 9.7297 6.8981 C 9.3506 6.767 8.9546 6.6914 8.554 6.6736 C 8.073 6.6736 7.6884 6.8767 7.6884 7.1655 C 7.6884 8.1704 11.0762 7.871 11.0762 9.9335 Z " fill="#e3a71a" stroke-width="1" stroke="none"/></g><path d="M224.77085,189.5625v-17.125h17.125v17.125z" fill="url(#color-1)" stroke-width="0" stroke="none" transform="matrix(1,0,0,1,-224.77085,-172.4375)"/></g></g></svg>