<svg xmlns="http://www.w3.org/2000/svg" xmlns:xlink="http://www.w3.org/1999/xlink" viewBox="0 0 24.95925 24.95925" width="24.95924949645996" height="24.95924949645996"><defs><linearGradient id="Dégradé_sans_nom_71" x1="-70.13343" y1="-54.01754" x2="-45.17418" y2="-54.01754" gradientTransform="translate(-41.53791 70.13343) rotate(90)" gradientUnits="userSpaceOnUse"><stop offset="0" stop-color="#fff" stop-opacity="0"/><stop offset="0.53538" stop-color="#010101" stop-opacity="0.86891"/><stop offset="0.7216"/><stop offset="1" stop-color="#fff" stop-opacity="0"/></linearGradient><linearGradient id="Dégradé_sans_nom_40" x1="50.25718" y1="5.39777" x2="71.62753" y2="5.39777" gradientTransform="translate(17.8774 -48.46273) rotate(90)" gradientUnits="userSpaceOnUse"><stop offset="0" stop-color="#fff"/><stop offset="0.07212" stop-color="#fff" stop-opacity="0.87385"/><stop offset="0.21577" stop-color="#fff" stop-opacity="0.64539"/><stop offset="0.35942" stop-color="#fff" stop-opacity="0.44824"/><stop offset="0.49981" stop-color="#fff" stop-opacity="0.28704"/><stop offset="0.63614" stop-color="#fff" stop-opacity="0.16179"/><stop offset="0.76729" stop-color="#fff" stop-opacity="0.07232"/><stop offset="0.89113" stop-color="#fff" stop-opacity="0.0184"/><stop offset="1" stop-color="#fff" stop-opacity="0"/></linearGradient></defs><g id="Calque_2" data-name="Calque 2"><g id="Calque_5" data-name="Calque 5"><circle cx="12.47963" cy="12.47963" r="12.47963" fill="#edc003" stroke-width="1"/><circle cx="12.47963" cy="12.47963" r="12.47963" fill="url(#Dégradé_sans_nom_71)" stroke-width="1"/><circle cx="12.47963" cy="12.47963" r="10.68518" fill="#38351d" stroke-width="1"/><circle cx="12.47963" cy="12.47963" r="10.68518" opacity="0.5" fill="url(#Dégradé_sans_nom_40)" stroke-width="1"/><path d="M20.26727,19.77111A10.68546,10.68546,0,0,0,4.703,5.1755,10.68451,10.68451,0,1,1,20.26727,19.77111Z" opacity="0.25" stroke-width="1"/><path d="M20.26727,19.77111A10.68526,10.68526,0,1,1,4.69831,5.18023a10.6846,10.6846,0,0,0,15.569,14.59088Z" fill="#fff" opacity="0.25" stroke-width="1"/><g opacity="0.9"><path d="M7.77049,13.84524a11.93541,11.93541,0,0,0,.748,3.81979c.09672.241.20965.476.29979.71959.05773.15446.11749.14737.2527.07647a2.30737,2.30737,0,0,1,1.99421-.16053c.0638.02482.15546.01672.17015.117l.01418.004a.79933.79933,0,0,1,.43094.15192,1.51632,1.51632,0,0,0,1.86052-.25826c.06786-.0633.14281-.1185.20915-.18332a1.67256,1.67256,0,0,1,1.81342-.41018,2.35073,2.35073,0,0,0,1.06547.16154,2.06954,2.06954,0,0,0,1.44679-1.04218c.09317-.14027-.03545-.17622-.09875-.22889a6.79367,6.79367,0,0,1-1.64378-2.056,5.536,5.536,0,0,1-.552-2.36236c-.01013-.16-.01772-.32106-.02582-.48159-.04254-.867-.05166-1.73594-.15749-2.59885a6.42519,6.42519,0,0,0-.45931-1.82811,2.97618,2.97618,0,0,0-2.44946-1.8276,3.43471,3.43471,0,0,0-2.21653.25522A3.68137,3.68137,0,0,0,9.20056,6.91565c-.06583.09621-.12862.194-.19192.29168l-.043.06634c-.03139.05267-.06228.10533-.09317.158a11.01378,11.01378,0,0,0-.92368,2.81458A15.415,15.415,0,0,0,7.77049,13.84524Z" fill="#ffef7b" stroke-width="1"/><path d="M12.98421,10.14332a.659.659,0,0,0,.02321-1.31769.65911.65911,0,1,0-.02321,1.31769Z" fill="#474121" stroke-width="1"/><path d="M9.0088,9.45284a.6548.6548,0,0,0,.648.663.66944.66944,0,0,0,.67586-.66921A.68.68,0,0,0,9.664,8.79115.6707.6707,0,0,0,9.0088,9.45284Z" fill="#474121" stroke-width="1"/><path d="M10.114,10.58432a1.10393,1.10393,0,1,0,2.20786,0Z" fill="#474121" stroke-width="1"/></g></g></g></svg>