<svg xmlns="http://www.w3.org/2000/svg" xmlns:xlink="http://www.w3.org/1999/xlink" version="1.1" width="218.02703" height="218.02702" viewBox="0,0,218.02703,218.02702"><defs><radialGradient cx="240" cy="180" r="109.01351" gradientUnits="userSpaceOnUse" id="color-1"><stop offset="0" stop-color="#ffffff"/><stop offset="1" stop-color="#ffffff" stop-opacity="0"/></radialGradient><radialGradient cx="240" cy="180" r="109.01351" gradientUnits="userSpaceOnUse" id="color-2"><stop offset="0" stop-color="#ffffff"/><stop offset="1" stop-color="#ffffff" stop-opacity="0"/></radialGradient></defs><g><g data-paper-data="{&quot;isPaintingLayer&quot;:true}" fill-rule="nonzero" stroke-linecap="butt" stroke-linejoin="miter" stroke-miterlimit="10" stroke-dasharray="" stroke-dashoffset="0" style="mix-blend-mode: normal"><path d="M130.98648,180c0,-60.2065 48.80702,-109.01351 109.01351,-109.01351c60.2065,0 109.01351,48.80702 109.01351,109.01351c0,60.2065 -48.80702,109.01351 -109.01351,109.01351c-60.2065,0 -109.01351,-48.80702 -109.01351,-109.01351z" fill="url(#color-1)" stroke-width="0" stroke="none" transform="matrix(1,0,0,1,-130.98648,-70.98648)"/><path d="M130.98649,180c0,-60.2065 48.80702,-109.01351 109.01351,-109.01351c60.2065,0 109.01351,48.80702 109.01351,109.01351c0,60.2065 -48.80702,109.01351 -109.01351,109.01351c-60.2065,0 -109.01351,-48.80702 -109.01351,-109.01351z" fill="url(#color-2)" stroke-width="0" stroke="none" transform="matrix(1,0,0,1,-130.98648,-70.98648)"/></g></g></svg>