<svg xmlns="http://www.w3.org/2000/svg" xmlns:xlink="http://www.w3.org/1999/xlink" version="1.1" width="29.311" height="29.311" viewBox="0,0,29.311,29.311"><defs><radialGradient cx="240.00012" cy="180.0001" r="14.6552" gradientUnits="userSpaceOnUse" id="color-1"><stop offset="0" stop-color="#f5f5f5"/><stop offset="1" stop-color="#e3f6ff"/></radialGradient><radialGradient cx="14.6557" cy="14.6557" r="14.6552" gradientUnits="userSpaceOnUse" id="color-1-,0,0,1,-225.34439,-165.34438"><stop offset="0" stop-color="#f5f5f5"/><stop offset="1" stop-color="#e3f6ff"/></radialGradient></defs><g><g data-paper-data="{&quot;isPaintingLayer&quot;:true}" fill-rule="nonzero" stroke-linecap="butt" stroke-linejoin="miter" stroke-miterlimit="10" stroke-dasharray="" stroke-dashoffset="0" style="mix-blend-mode: normal"><path d="M 29.311 15.6621 L 26.9896 15.6621 L 28.7539 17.4264 L 27.3317 18.8487 L 24.1451 15.6621 L 17.0827 15.6621 L 22.076 20.6537 L 26.585 20.6537 L 26.585 22.6652 L 24.0875 22.6652 L 25.7299 24.3076 L 24.3076 25.7299 L 22.6652 24.0875 L 22.6652 26.5849 L 20.6537 26.5849 L 20.6537 22.076 L 15.6621 17.0827 L 15.6621 24.145 L 18.8487 27.3316 L 17.4264 28.7539 L 15.6621 26.9896 L 15.6621 29.311 L 13.6506 29.311 L 13.6506 26.9896 L 11.8846 28.7539 L 10.4623 27.3316 L 13.6506 24.145 L 13.6506 17.0827 L 8.6573 22.076 L 8.6573 26.5849 L 6.6458 26.5849 L 6.6458 24.0875 L 5.0034 25.7299 L 3.5811 24.3076 L 5.2235 22.6652 L 2.7278 22.6652 L 2.7278 20.6537 L 7.2351 20.6537 L 12.2283 15.6621 L 5.166 15.6621 L 1.9794 18.8487 L 0.5571 17.4264 L 2.3231 15.6621 L 0 15.6621 L 0 13.6506 L 2.3231 13.6506 L 0.5571 11.8846 L 1.9794 10.4623 L 5.166 13.6506 L 12.2283 13.6506 L 7.2351 8.6573 L 2.7278 8.6573 L 2.7278 6.6458 L 5.2235 6.6458 L 3.5811 5.0034 L 5.0034 3.5811 L 6.6458 5.2235 L 6.6458 2.7277 L 8.6573 2.7277 L 8.6573 7.235 L 13.6506 12.2283 L 13.6506 5.166 L 10.4623 1.9794 L 11.8846 0.5571 L 13.6506 2.3231 L 13.6506 0 L 15.6621 0 L 15.6621 2.3231 L 17.4264 0.5571 L 18.8487 1.9794 L 15.6621 5.166 L 15.6621 12.2283 L 20.6537 7.235 L 20.6537 2.7277 L 22.6652 2.7277 L 22.6652 5.2235 L 24.3076 3.5811 L 25.7299 5.0034 L 24.0875 6.6458 L 26.585 6.6458 L 26.585 8.6573 L 22.076 8.6573 L 17.0827 13.6506 L 24.1451 13.6506 L 27.3317 10.4623 L 28.7539 11.8846 L 26.9896 13.6506 L 29.311 13.6506 Z " stroke-width="1" fill="url(#color-1-,0,0,1,-225.34439,-165.34438)" stroke="none"/></g></g></svg>