<svg xmlns="http://www.w3.org/2000/svg" xmlns:xlink="http://www.w3.org/1999/xlink" version="1.1" width="36.04616" height="35.10444" viewBox="0,0,36.04616,35.10444"><g><g data-paper-data="{&quot;isPaintingLayer&quot;:true}" fill-rule="nonzero" stroke-linecap="butt" stroke-linejoin="miter" stroke-miterlimit="10" stroke-dasharray="" stroke-dashoffset="0" style="mix-blend-mode: normal"><g><path d="M 13.3731 30.6033 L 13.3731 32.4471 C 13.3495 33.9215 12.1475 35.1044 10.6729 35.1044 C 9.1982 35.1044 7.9963 33.9215 7.9727 32.4471 L 7.9727 30.7752 C 5.872 30.5823 3.8314 29.97 1.9717 28.9744 C 0.8162 28.4315 0.0569 27.2928 0 26.0174 C -0.0007 25.2669 0.2972 24.5469 0.8279 24.0162 C 1.3586 23.4855 2.0786 23.1876 2.8291 23.1883 C 3.5831 23.2364 4.316 23.4565 4.9717 23.8319 C 6.6777 24.686 8.5508 25.1541 10.458 25.2029 C 12.2588 25.2029 13.9727 24.5174 13.9727 23.0604 C 13.9727 18.8592 0.7715 20.5311 0.7715 11.8729 C 0.7715 7.4159 4.2432 5.0584 7.9727 4.244 L 7.9727 2.658 C 7.9959 1.1833 9.198 0 10.6729 0 C 12.1477 0 13.3498 1.1833 13.3731 2.658 L 13.3731 3.9861 C 14.6363 4.0956 15.8776 4.3843 17.0596 4.8435 C 18.9453 5.615 20.1455 6.5154 20.1455 8.1443 C 20.1469 8.8837 19.8539 9.5932 19.3311 10.116 C 18.8082 10.6388 18.0988 10.9319 17.3594 10.9305 C 16.6995 10.9097 16.0477 10.7794 15.4307 10.5447 C 13.9107 10.0188 12.3226 9.7155 10.7158 9.6443 C 8.7871 9.6443 7.2441 10.4588 7.2441 11.616 C 7.2441 15.6443 20.8311 14.4451 20.8311 22.7166 C 20.8311 27.0457 17.4873 29.7469 13.3731 30.6033 Z " stroke-width="1" fill="#1b1b1b" stroke="none"/><path d="M 36.0439 4.4578 L 36.0439 27.7322 C 36.0172 29.4728 34.6127 30.8774 32.8721 30.9041 C 32.0303 30.906 31.2224 30.5725 30.6271 29.9772 C 30.0318 29.3819 29.6983 28.574 29.7002 27.7322 L 29.7002 8.4441 L 27.043 9.5154 C 26.5575 9.74 26.034 9.8709 25.5 9.9012 C 23.9057 9.8811 22.6248 8.5814 22.6279 6.9871 C 22.6354 5.7135 23.4415 4.5816 24.6426 4.158 L 30.4717 1.7576 C 31.1969 1.4025 31.9816 1.1846 32.7861 1.115 C 33.6681 1.105 34.5156 1.4568 35.1312 2.0884 C 35.7468 2.7201 36.0766 3.5764 36.0439 4.4578 Z " stroke-width="1" fill="#1b1b1b" stroke="none"/></g></g></g></svg>