<svg xmlns="http://www.w3.org/2000/svg" xmlns:xlink="http://www.w3.org/1999/xlink" version="1.1" width="74.0833" height="25" viewBox="0,0,74.0833,25"><g><g data-paper-data="{&quot;isPaintingLayer&quot;:true}" fill-rule="nonzero" stroke-linejoin="miter" stroke-miterlimit="10" stroke-dasharray="" stroke-dashoffset="0" style="mix-blend-mode: normal"><path d="M 61.5833 12.5 L 12.5 12.5 " fill="none" stroke="#ffffff" stroke-width="25" stroke-linecap="round"/><path d="M 61.5833 12.5 L 12.5 12.5 " fill="none" stroke="#323232" stroke-width="20" stroke-linecap="round"/><g stroke-linecap="butt"><path d="M 24.4074 16.6421 C 24.4074 16.9186 24.2963 17.1836 24.099 17.3774 C 23.9017 17.5713 23.6348 17.6777 23.3583 17.6727 L 19.2294 17.6727 C 18.9149 17.6781 18.6121 17.5534 18.3926 17.3281 C 18.1731 17.1028 18.0563 16.7968 18.0699 16.4826 L 18.0699 8.4089 C 18.0699 7.7617 18.5945 7.2371 19.2417 7.2371 C 19.8888 7.2371 20.4135 7.7617 20.4135 8.4089 L 20.4135 15.6053 L 23.3521 15.6053 C 23.6313 15.5969 23.9018 15.7028 24.101 15.8985 C 24.3002 16.0943 24.4108 16.3628 24.4074 16.6421 Z " stroke-width="1" fill="#fcfcfc" stroke="none"/><path d="M 24.6466 12.5009 C 24.7446 9.6018 27.1232 7.3022 30.024 7.3022 C 32.9248 7.3022 35.3034 9.6018 35.4013 12.5009 C 35.3034 15.4001 32.9248 17.6997 30.024 17.6997 C 27.1232 17.6997 24.7445 15.4001 24.6466 12.5009 Z M 32.9657 12.5009 C 32.9657 10.4763 31.6099 9.28 30.0332 9.28 C 28.4565 9.28 27.0822 10.4763 27.0822 12.5009 C 27.0822 14.5255 28.4503 15.7279 30.0332 15.7279 C 31.616 15.7279 32.9964 14.5255 32.9964 12.5009 Z " stroke-width="1" fill="#fcfcfc" stroke="none"/><path d="M 45.6284 16.6543 C 45.642 17.1924 45.2592 17.6592 44.7289 17.7514 C 44.1986 17.8437 43.6808 17.5335 43.5119 17.0224 L 42.9965 15.6973 L 38.6284 15.6973 L 38.113 17.0347 C 37.9538 17.4609 37.5495 17.7459 37.0946 17.7525 C 36.8062 17.7593 36.5276 17.6477 36.3236 17.4437 C 36.1196 17.2398 36.008 16.9612 36.0148 16.6727 C 36.0172 16.4611 36.0631 16.2523 36.1498 16.0592 L 39.2971 8.3904 C 39.5316 7.7243 40.1614 7.279 40.8676 7.28 C 41.5721 7.2878 42.1914 7.7486 42.4014 8.4211 L 45.4689 16.1022 C 45.5538 16.2755 45.6078 16.4624 45.6284 16.6543 Z M 42.2358 13.7831 L 40.837 10.2064 L 40.7756 10.2064 L 39.3768 13.7831 Z " stroke-width="1" fill="#fcfcfc" stroke="none"/><path d="M 56.0028 12.5009 C 56.0028 15.2433 54.1193 17.6727 50.4199 17.6727 L 48.0763 17.6727 C 47.7727 17.6746 47.4813 17.5526 47.2695 17.335 C 47.0577 17.1174 46.9436 16.8229 46.9536 16.5194 L 46.9536 8.507 C 46.9437 8.2018 47.0572 7.9054 47.2685 7.6849 C 47.4798 7.4644 47.771 7.3383 48.0763 7.3352 L 50.4199 7.3352 C 54.1193 7.3291 56.0028 9.7769 56.0028 12.5009 Z M 53.5488 12.5009 C 53.5488 10.7095 52.4322 9.3966 50.3524 9.3966 L 49.2972 9.3966 L 49.2972 15.6052 L 50.377 15.6052 C 52.4568 15.6052 53.5733 14.2985 53.5733 12.5009 Z " stroke-width="1" fill="#fcfcfc" stroke="none"/></g></g></g></svg>