<svg xmlns="http://www.w3.org/2000/svg" xmlns:xlink="http://www.w3.org/1999/xlink" version="1.1" width="17.46849" height="17.84934" viewBox="0,0,17.46849,17.84934"><defs><linearGradient x1="231.4375" y1="180" x2="248.5625" y2="180" gradientUnits="userSpaceOnUse" id="color-1"><stop offset="0" stop-color="#9966ff" stop-opacity="0"/><stop offset="1" stop-color="#9966ff" stop-opacity="0"/></linearGradient></defs><g><g data-paper-data="{&quot;isPaintingLayer&quot;:true}" fill-rule="nonzero" stroke-linecap="butt" stroke-linejoin="miter" stroke-miterlimit="10" stroke-dasharray="" stroke-dashoffset="0" style="mix-blend-mode: normal"><path d="M 17.4684 15.8585 C 17.4712 16.3266 17.2814 16.7753 16.9435 17.0993 C 16.6056 17.4233 16.1494 17.5941 15.6818 17.5717 C 15.0979 17.5509 14.5561 17.2619 14.2135 16.7886 L 11.4727 13.2643 L 10.0289 14.1454 L 10.0289 15.7361 C 10.0377 16.389 9.6944 16.996 9.1304 17.325 C 8.5665 17.654 7.8691 17.654 7.3051 17.325 C 6.7412 16.996 6.3979 16.389 6.4067 15.7361 L 6.4067 1.8356 C 6.3979 1.1828 6.7412 0.5757 7.3051 0.2467 C 7.8691 -0.0822 8.5665 -0.0822 9.1304 0.2467 C 9.6944 0.5757 10.0377 1.1828 10.0289 1.8356 L 10.0289 10.597 L 14.4094 6.7544 C 14.7397 6.441 15.1775 6.2659 15.6329 6.2651 C 16.5226 6.293 17.2336 7.0148 17.2481 7.9048 C 17.235 8.4533 16.974 8.9662 16.5384 9.2997 L 14.2135 11.3067 L 16.8323 14.4882 C 17.3216 15.0754 17.4685 15.4668 17.4685 15.8585 Z " fill="#fcfcfc" stroke-width="1" stroke="none"/><path d="M231.4375,188.5625v-17.125h17.125v17.125z" fill="url(#color-1)" stroke-width="0" stroke="none" transform="matrix(1,0,0,1,-231.4375,-170.71316)"/></g></g></svg>