<svg xmlns="http://www.w3.org/2000/svg" xmlns:xlink="http://www.w3.org/1999/xlink" version="1.1" width="28.09952" height="28.09952" viewBox="0,0,28.09952,28.09952"><defs><linearGradient x1="278.58584" y1="180" x2="279.09647" y2="180" gradientUnits="userSpaceOnUse" id="color-1"><stop offset="0" stop-color="#eaf1f9"/><stop offset="1" stop-color="#838389"/></linearGradient><linearGradient x1="52.6356" y1="14.0498" x2="53.1462" y2="14.0498" gradientUnits="userSpaceOnUse" id="color-1-,0,0,1,-225.95024,-165.95024"><stop offset="0" stop-color="#eaf1f9"/><stop offset="1" stop-color="#838389"/></linearGradient></defs><g><g data-paper-data="{&quot;isPaintingLayer&quot;:true}" fill-rule="nonzero" stroke-linecap="butt" stroke-linejoin="miter" stroke-miterlimit="10" stroke-dasharray="" stroke-dashoffset="0" style="mix-blend-mode: normal"><path d="M 0 14.0498 C 0 6.2903 6.2903 0 14.0498 0 C 21.8092 0 28.0995 6.2903 28.0995 14.0498 C 28.0995 21.8092 21.8092 28.0995 14.0498 28.0995 C 6.2903 28.0995 0 21.8092 0 14.0498 Z " fill="#000000" stroke-width="1" stroke="none"/><path d="M 1.3575 14.0498 C 1.3575 7.04 7.04 1.3575 14.0498 1.3575 C 21.0595 1.3575 26.7421 7.04 26.7421 14.0498 C 26.7421 21.0595 21.0595 26.7421 14.0498 26.7421 C 7.04 26.7421 1.3575 21.0595 1.3575 14.0498 Z " fill="#192a5e" stroke-width="1" stroke="none"/><path d="M 4.6861 14.0498 C 4.6861 8.8784 8.8784 4.6861 14.0498 4.6861 C 19.2211 4.6861 23.4134 8.8784 23.4134 14.0498 C 23.4134 19.2211 19.2211 23.4134 14.0498 23.4134 C 8.8784 23.4134 4.6861 19.2211 4.6861 14.0498 Z " fill="#000000" stroke-width="1" stroke="none"/><path d="M 6.2707 14.0498 C 6.2707 9.7535 9.7535 6.2707 14.0498 6.2707 C 18.346 6.2707 21.8288 9.7535 21.8288 14.0498 C 21.8288 18.346 18.346 21.8288 14.0498 21.8288 C 9.7535 21.8288 6.2707 18.346 6.2707 14.0498 Z " fill="#f7ffff" stroke-width="1" stroke="none"/><path d="M 8.8785 14.0498 C 8.8785 11.1938 11.1938 8.8785 14.0498 8.8785 C 16.9057 8.8785 19.221 11.1938 19.221 14.0498 C 19.221 16.9057 16.9057 19.221 14.0498 19.221 C 11.1938 19.221 8.8785 16.9057 8.8785 14.0498 Z " fill="#939aa2" stroke-width="1" stroke="none"/><path d="M 9.8877 14.0498 C 9.8877 11.7511 11.7511 9.8877 14.0498 9.8877 C 16.3484 9.8877 18.2118 11.7511 18.2118 14.0498 C 18.2118 16.3484 16.3484 18.2118 14.0498 18.2118 C 11.7511 18.2118 9.8877 16.3484 9.8877 14.0498 Z " fill="url(#color-1-,0,0,1,-225.95024,-165.95024)" stroke-width="1" stroke="none"/></g></g></svg>