<svg xmlns="http://www.w3.org/2000/svg" xmlns:xlink="http://www.w3.org/1999/xlink" version="1.1" width="112.27564" height="112.27521" viewBox="0,0,112.27564,112.27521"><g><g data-paper-data="{&quot;isPaintingLayer&quot;:true}" fill-rule="nonzero" stroke-linejoin="miter" stroke-miterlimit="10" stroke-dasharray="" stroke-dashoffset="0" style="mix-blend-mode: normal"><path d="M 112.2756 30.2984 L 112.2756 93.3766 C 112.2752 101.6501 106.8956 108.9623 98.9972 111.4252 C 98.6459 111.5344 98.2887 111.6304 97.9289 111.7194 C 97.3797 111.8553 96.8224 111.9704 96.2555 112.057 C 95.624 112.1535 94.988 112.218 94.35 112.2503 C 94.0277 112.2666 93.7035 112.2748 93.3774 112.2748 L 18.9132 112.2748 L 18.8982 112.2752 C 13.8861 112.2752 9.0793 110.2842 5.5352 106.7401 C 1.9911 103.196 0 98.3891 0 93.377 L 0.0007 93.354 L 0.0007 30.2985 C 0.0011 22.025 5.3807 14.7127 13.2791 12.2498 C 13.7044 12.1176 14.1383 12.0053 14.5758 11.9028 C 14.9101 11.8246 15.2478 11.7553 15.5888 11.6951 C 16.6814 11.5002 17.789 11.4016 18.8988 11.4002 L 93.3775 11.4002 C 96.7197 11.3964 100.0025 12.2834 102.8879 13.97 C 103.2466 14.1794 103.6005 14.3959 103.9436 14.6277 C 104.4787 14.9902 104.9949 15.3799 105.4902 15.7951 C 109.7943 19.3815 112.2807 24.696 112.2756 30.2984 Z " fill="#b2430b" stroke="none" stroke-width="1" stroke-linecap="butt"/><path d="M 112.2756 18.8983 L 112.2756 84.9258 C 112.2752 93.1992 106.8955 100.5114 98.9972 102.9743 C 98.6458 103.0836 98.2887 103.1796 97.9288 103.2686 C 97.3797 103.4044 96.8224 103.5196 96.2555 103.6062 C 95.624 103.7026 94.988 103.7671 94.35 103.7994 C 94.0277 103.8158 93.7035 103.8239 93.3774 103.8239 L 18.9132 103.8239 L 18.8982 103.8243 C 13.8861 103.8244 9.0792 101.8333 5.5351 98.2892 C 1.991 94.7451 0 89.9383 0 84.9262 L 0.0006 84.9032 L 0.0006 18.8983 C 0.001 10.6248 5.3807 3.3126 13.279 0.8497 C 13.7043 0.7174 14.1383 0.6052 14.5757 0.5027 C 14.9101 0.4245 15.2478 0.3552 15.5887 0.2949 C 16.6814 0.1001 17.789 0.0014 18.8988 0 L 93.3775 0 C 96.7197 -0.0038 100.0025 0.8833 102.8879 2.5699 C 103.2466 2.7792 103.6005 2.9958 103.9436 3.2276 C 104.4787 3.5901 104.9949 3.9797 105.4902 4.3949 C 109.7942 7.9813 112.2807 13.2959 112.2756 18.8983 Z " fill="#fc5a03" stroke="none" stroke-width="1" stroke-linecap="butt"/><g stroke-linecap="round"><path d="M 41.5612 34.24 L 41.5612 73.0352 " fill="none" stroke="#f9f9f9" stroke-width="12.5"/><path d="M 42.7669 35.1365 L 72.7144 53.7924 " fill="none" stroke="#f9f9f9" stroke-width="12.5"/><path d="M 71.4967 54.6144 L 43.31 72.1573 " fill="none" stroke="#f9f9f9" stroke-width="12.5"/><path d="M227.65617,162.89826l0.19053,30.92551l24.7682,-15.52648z" fill="#ffffff" stroke="none" stroke-width="0" transform="matrix(1,0,0,1,-183.86218,-123.8624)"/></g></g></g></svg>