<svg xmlns="http://www.w3.org/2000/svg" xmlns:xlink="http://www.w3.org/1999/xlink" version="1.1" width="31.98848" height="51.80549" viewBox="0,0,31.98848,51.80549"><g><g data-paper-data="{&quot;isPaintingLayer&quot;:true}" fill-rule="nonzero" stroke-linecap="butt" stroke-linejoin="miter" stroke-miterlimit="10" stroke-dasharray="" stroke-dashoffset="0" style="mix-blend-mode: normal"><path d="M 30.7321 31.8369 L 30.3984 32.3585 L 27.7767 36.4866 L 26.0308 39.2335 L 24.3108 41.9384 L 15.9916 41.902 L 7.7561 41.8762 L 6.0675 39.2335 L 4.3159 36.4865 L 1.6785 32.3585 L 1.2563 31.6964 L 5.2386 16.4763 L 9.1008 1.7095 L 22.966 1.7095 L 26.7709 16.4763 Z " fill="#343e50" stroke-width="1" stroke="none"/><path d="M 27.8289 39.2335 L 25.0193 43.6484 L 15.9916 43.6116 L 7.0524 43.5805 L 4.2743 39.2335 Z " fill="#3f5065" stroke-width="1" stroke="none"/><path d="M 7.4329 4.1438 L 8.5171 0 L 23.5598 0 L 24.6287 4.1438 Z " fill="#3f5065" stroke-width="1" stroke="none"/><path d="M 25.9266 9.1788 L 6.1144 9.1788 L 6.8387 6.406 L 25.2124 6.406 Z " fill="#3f5065" stroke-width="1" stroke="none"/><path d="M 27.2241 14.2142 L 4.7954 14.2142 L 5.5201 11.441 L 26.5103 11.441 Z " fill="#3f5065" stroke-width="1" stroke="none"/><path d="M 31.9885 32.6917 L 29.5752 36.4866 L 2.5227 36.4866 L 0 32.5354 L 0.0469 32.3585 L 4.2064 16.4764 L 27.8083 16.4764 L 31.9048 32.3585 Z " fill="#3f5065" stroke-width="1" stroke="none"/><path d="M 15.9916 0 L 15.9916 4.1438 L 7.4329 4.1438 L 8.5171 0 Z " fill="#647694" stroke-width="1" stroke="none"/><path d="M 6.8387 6.406 L 15.9916 6.406 L 15.9916 9.1788 L 6.1144 9.1788 Z " fill="#647694" stroke-width="1" stroke="none"/><path d="M 5.5201 11.441 L 15.9916 11.441 L 15.9916 14.2142 L 4.7954 14.2142 Z " fill="#647694" stroke-width="1" stroke="none"/><path d="M 15.9916 16.4764 L 15.9916 36.4865 L 2.5227 36.4865 L 0 32.5354 L 0.0469 32.3585 L 4.2064 16.4764 Z " fill="#647694" stroke-width="1" stroke="none"/><path d="M 15.9916 39.2335 L 15.9916 43.6116 L 7.0523 43.5805 L 4.2743 39.2335 Z " fill="#647694" stroke-width="1" stroke="none"/><path d="M 7.4022 32.5354 L 9.2033 36.4866 L 6.9223 36.4866 L 5.1217 32.5354 L 8.1243 16.4764 L 10.4049 16.4764 Z " fill="#46c4b2" stroke-width="1" stroke="none"/><path d="M 21.6983 16.4764 L 23.9789 16.4764 L 26.9815 32.5354 L 25.1809 36.4866 L 22.8999 36.4866 L 24.701 32.5354 Z " fill="#46c4b2" stroke-width="1" stroke="none"/><path d="M 23.3732 14.2142 L 21.0226 14.2142 L 20.4665 11.441 L 22.8171 11.441 Z " fill="#46c4b2" stroke-width="1" stroke="none"/><path d="M 11.5907 11.441 L 11.0263 14.2142 L 8.6752 14.2142 L 9.2396 11.441 Z " fill="#46c4b2" stroke-width="1" stroke="none"/><path d="M 12.5108 6.406 L 11.9463 9.1788 L 9.5952 9.1788 L 10.1597 6.406 Z " fill="#46c4b2" stroke-width="1" stroke="none"/><path d="M 21.8362 6.406 L 22.4007 9.1788 L 20.05 9.1788 L 19.4856 6.406 Z " fill="#46c4b2" stroke-width="1" stroke="none"/><path d="M 21.3637 4.1412 L 19.402 4.1412 L 18.4644 0.0026 L 20.4262 0.0026 Z " fill="#46c4b2" stroke-width="1" stroke="none"/><path d="M 13.873 0.0053 L 12.8856 4.1438 L 10.8485 4.1438 L 11.8359 0.0053 Z " fill="#46c4b2" stroke-width="1" stroke="none"/><path d="M 11.4545 14.2142 L 10.9426 16.4764 L 8.8114 16.4764 L 9.3233 14.2142 Z " fill="#287768" stroke-width="1" stroke="none"/><path d="M 12.5108 9.1788 L 11.9989 11.441 L 9.8676 11.441 L 10.3791 9.1788 Z " fill="#287768" stroke-width="1" stroke="none"/><path d="M 13.4916 4.1438 L 12.9797 6.406 L 10.8485 6.406 L 11.36 4.1438 Z " fill="#287768" stroke-width="1" stroke="none"/><path d="M 22.7716 14.2142 L 23.2831 16.4764 L 21.1518 16.4764 L 20.6403 14.2142 Z " fill="#287768" stroke-width="1" stroke="none"/><path d="M 21.7154 9.1788 L 22.2273 11.441 L 20.0956 11.441 L 19.5841 9.1788 Z " fill="#287768" stroke-width="1" stroke="none"/><path d="M 20.7345 4.1438 L 21.2464 6.406 L 19.1147 6.406 L 18.6032 4.1438 Z " fill="#287768" stroke-width="1" stroke="none"/><path d="M 9.0969 39.2593 L 7.4898 36.4865 L 9.8409 36.4865 L 11.4475 39.2593 Z " fill="#287768" stroke-width="1" stroke="none"/><path d="M 20.6403 39.2593 L 22.247 36.4865 L 24.5976 36.4865 L 22.991 39.2593 Z " fill="#287768" stroke-width="1" stroke="none"/><path d="M 27.7768 36.4865 L 26.0309 39.2335 L 27.8289 39.2335 L 25.0193 43.6484 L 15.9916 43.6116 L 7.0524 43.5805 L 4.2743 39.2335 L 6.0675 39.2335 L 4.3159 36.4865 L 2.5227 36.4865 L 0 32.5354 L 0.0469 32.3585 L 31.9048 32.3585 L 31.9885 32.6917 L 29.5752 36.4865 Z " fill="#000000" opacity="0.25" stroke-width="1" stroke="none"/><path d="M 20.8321 47.6379 C 20.7925 47.7065 20.7193 47.7487 20.6401 47.7487 C 20.5609 47.7487 20.4877 47.7065 20.4481 47.6379 L 19.716 46.3698 C 19.6764 46.3012 19.6032 46.2589 19.524 46.2589 C 19.4448 46.2589 19.3716 46.3012 19.332 46.3698 L 16.2577 51.6946 C 16.2181 51.7632 16.1449 51.8055 16.0657 51.8055 C 15.9865 51.8055 15.9133 51.7632 15.8737 51.6946 L 12.7994 46.3698 C 12.7598 46.3012 12.6866 46.2589 12.6074 46.2589 C 12.5282 46.2589 12.455 46.3012 12.4154 46.3698 L 11.6833 47.6379 C 11.6437 47.7065 11.5705 47.7487 11.4913 47.7487 C 11.4121 47.7487 11.3389 47.7065 11.2993 47.6379 L 9.1332 43.8861 C 9.0936 43.8175 9.0936 43.733 9.1332 43.6644 C 9.1728 43.5958 9.246 43.5535 9.3252 43.5535 L 22.8062 43.5535 C 22.8854 43.5535 22.9586 43.5958 22.9982 43.6644 C 23.0378 43.733 23.0378 43.8175 22.9982 43.8861 Z " fill="#ff630d" stroke-width="1" stroke="none"/><path d="M 18.1662 46.3339 C 18.1492 46.3633 18.1178 46.3814 18.0838 46.3814 C 18.0498 46.3814 18.0184 46.3633 18.0015 46.3339 L 17.6874 45.7899 C 17.6704 45.7605 17.639 45.7424 17.605 45.7424 C 17.571 45.7424 17.5396 45.7605 17.5226 45.7899 L 16.2037 48.0743 C 16.1867 48.1037 16.1553 48.1219 16.1213 48.1219 C 16.0874 48.1219 16.056 48.1037 16.039 48.0743 L 14.72 45.7899 C 14.703 45.7605 14.6716 45.7424 14.6377 45.7424 C 14.6037 45.7424 14.5723 45.7605 14.5553 45.7899 L 14.2412 46.3339 C 14.2242 46.3633 14.1928 46.3814 14.1588 46.3814 C 14.1249 46.3814 14.0935 46.3633 14.0765 46.3339 L 13.1472 44.7243 C 13.1302 44.6949 13.1302 44.6586 13.1472 44.6292 C 13.1642 44.5998 13.1956 44.5817 13.2296 44.5817 L 19.0131 44.5817 C 19.0471 44.5817 19.0785 44.5998 19.0955 44.6292 C 19.1125 44.6587 19.1125 44.6949 19.0955 44.7243 Z " fill="#fff200" stroke-width="1" stroke="none"/></g></g></svg>