<svg xmlns="http://www.w3.org/2000/svg" xmlns:xlink="http://www.w3.org/1999/xlink" version="1.1" width="174.55763" height="39.94767" viewBox="0,0,174.55763,39.94767"><g><g data-paper-data="{&quot;isPaintingLayer&quot;:true}" fill-rule="nonzero" stroke-linecap="butt" stroke-linejoin="miter" stroke-miterlimit="10" stroke-dasharray="" stroke-dashoffset="0" style="mix-blend-mode: normal"><g><path d="M 19.0759 26.1899 C 19.0887 26.9781 18.7811 27.7379 18.2236 28.2952 C 17.666 28.8526 16.9062 29.1599 16.1179 29.1469 L 3.1736 29.1469 C 2.3161 29.151 1.4937 28.8062 0.8955 28.1918 C 0.2973 27.5774 -0.0253 26.7462 0.0017 25.8891 L 0.0017 3.3012 C -0.0267 2.4397 0.2942 1.6032 0.8914 0.9817 C 1.4887 0.3602 2.3117 0.0063 3.1736 0.0004 L 15.6462 0.0004 C 16.4346 -0.0126 17.1946 0.2949 17.7522 0.8525 C 18.3097 1.41 18.6172 2.17 18.6042 2.9584 C 18.6137 3.7381 18.3022 4.4874 17.7428 5.0305 C 17.1834 5.5737 16.4253 5.8629 15.6462 5.8305 L 6.6023 5.8305 L 6.6023 11.7445 L 14.3611 11.7445 C 15.3611 11.7141 16.2984 12.2301 16.8074 13.0914 C 17.3164 13.9527 17.3164 15.0227 16.8074 15.884 C 16.2984 16.7453 15.3611 17.2614 14.3611 17.2309 L 6.6023 17.2309 L 6.6023 23.3178 L 16.1179 23.3178 C 16.897 23.2853 17.6551 23.5746 18.2145 24.1177 C 18.7739 24.6609 19.0854 25.4102 19.0759 26.1899 Z " stroke-width="1" fill="#dd2c2c" stroke="none"/><path d="M 39.4314 24.1752 C 40.0139 24.7561 40.3512 25.5384 40.3738 26.3607 C 40.3591 27.9948 39.0505 29.3225 37.4168 29.3607 C 36.5343 29.3345 35.7062 28.9283 35.1453 28.2465 L 30.9871 23.3607 L 26.8728 28.3324 C 26.3483 29.0025 25.537 29.3841 24.6863 29.3607 C 23.1132 29.3307 21.8453 28.0627 21.8152 26.4896 C 21.847 25.6817 22.1837 24.9157 22.7576 24.3461 L 27.2156 19.4174 L 22.9295 14.6596 C 22.3655 14.087 22.0431 13.3196 22.0291 12.516 C 22.0279 10.8988 23.327 9.581 24.9441 9.559 C 25.7993 9.5251 26.6222 9.8889 27.1726 10.5444 L 31.2449 15.4741 L 35.4021 10.5873 C 35.9264 9.9175 36.7373 9.5359 37.5876 9.559 C 39.1612 9.5891 40.4296 10.8575 40.4597 12.4311 C 40.4279 13.2388 40.0912 14.0044 39.5174 14.5737 L 34.9734 19.5033 Z " stroke-width="1" fill="#dd2c2c" stroke="none"/><path d="M 59.7019 25.9321 C 59.7019 27.1323 58.9734 27.8608 57.6872 28.5043 C 56.2322 29.1592 54.6539 29.4951 53.0583 29.4897 C 48.0437 29.4897 45.6003 27.1323 45.6003 22.9321 L 45.6003 15.0454 L 44.1433 15.0454 C 43.6404 15.0668 43.1505 14.8824 42.7866 14.5347 C 42.4226 14.1869 42.2161 13.7059 42.2146 13.2026 C 42.2349 12.5125 42.586 11.8743 43.158 11.4877 L 48.5584 6.9447 C 48.9688 6.531 49.5193 6.2861 50.1014 6.2582 C 51.0438 6.2582 51.9441 6.9018 51.9441 8.4877 L 51.9441 9.7309 L 56.7879 9.7309 C 58.2525 9.738 59.438 10.9235 59.4451 12.3881 C 59.4489 13.094 59.1701 13.772 58.671 14.2712 C 58.1718 14.7703 57.4938 15.0491 56.7879 15.0453 L 51.9441 15.0453 L 51.9441 21.6889 C 51.8776 22.2789 52.0803 22.8676 52.4961 23.2915 C 52.9119 23.7154 53.4965 23.9295 54.0877 23.8744 C 54.5954 23.8758 55.1006 23.8038 55.5877 23.6606 C 56.0983 23.4666 56.631 23.337 57.1736 23.2748 C 57.8663 23.2766 58.5281 23.5614 59.0056 24.0632 C 59.483 24.565 59.7346 25.2402 59.7019 25.9321 Z " stroke-width="1" fill="#dd2c2c" stroke="none"/><path d="M 77.1013 12.3451 C 77.1227 13.1778 76.8072 13.9839 76.2263 14.5809 C 75.6455 15.178 74.8483 15.5154 74.0154 15.517 C 72.0228 15.3986 70.1217 16.3654 69.0437 18.0453 L 69.0437 26.1468 C 69.0587 27.29 68.4575 28.3528 67.4699 28.9288 C 66.4823 29.5048 65.2612 29.5048 64.2737 28.9288 C 63.2861 28.3528 62.6849 27.29 62.6999 26.1468 L 62.6999 12.7308 C 62.6979 11.5963 63.302 10.5471 64.2842 9.9792 C 65.2664 9.4114 66.4771 9.4114 67.4594 9.9792 C 68.4416 10.5471 69.0457 11.5963 69.0437 12.7308 L 69.0437 12.9447 C 70.4577 10.2875 72.1296 9.3451 74.0583 9.3451 C 74.8642 9.3237 75.6441 9.6315 76.2182 10.1975 C 76.7924 10.7635 77.1112 11.5389 77.1013 12.3451 Z " stroke-width="1" fill="#dd2c2c" stroke="none"/><path d="M 95.7019 16.4594 L 95.7019 26.3178 C 95.7281 27.8561 94.5833 29.1635 93.055 29.3406 C 91.5267 29.5178 90.1132 28.5069 89.7869 27.0033 C 88.1638 28.5848 86.008 29.5023 83.7429 29.5756 C 82.2352 29.6638 80.7581 29.1243 79.6621 28.0851 C 78.5661 27.0459 77.9489 25.5996 77.9568 24.0893 C 77.9568 21.3031 79.6287 19.7172 81.9861 18.7738 C 84.4823 17.9759 87.0808 17.543 89.7009 17.4887 L 89.7009 16.9311 C 89.7009 15.3022 88.7586 14.7455 86.572 14.7455 C 85.6443 14.7486 84.7214 14.8783 83.8289 15.1313 C 83.2998 15.2957 82.7529 15.3964 82.2 15.4311 C 81.5259 15.4664 80.8665 15.226 80.3734 14.7652 C 79.8803 14.3043 79.5959 13.6626 79.5857 12.9877 C 79.5604 11.9116 80.2116 10.9348 81.2146 10.5444 C 83.2072 9.7567 85.3298 9.3499 87.4724 9.3451 C 92.487 9.3451 95.7019 11.7445 95.7019 16.4594 Z M 85.8435 24.7318 C 87.2313 24.64 88.5665 24.1654 89.7009 23.3607 L 89.7009 21.0463 C 88.6726 21.1742 87.6863 21.3031 86.7009 21.517 C 84.7722 21.9027 84.0007 22.4174 84.0007 23.3178 C 84.0007 24.2182 84.6863 24.7318 85.8435 24.7318 Z " stroke-width="1" fill="#dd2c2c" stroke="none"/><path d="M 124.9294 13.5883 L 124.8864 13.6733 C 126.2226 14.5504 127.0027 16.0624 126.9431 17.6596 C 126.9431 21.2602 123.8142 24.0034 118.071 24.0034 C 117.7845 24.0116 117.4978 23.9972 117.2136 23.9604 C 116.8742 24.1749 116.6651 24.5453 116.6569 24.9467 C 116.6569 25.6752 117.2565 25.8041 120.6433 26.4467 C 126.4724 27.561 129.6443 28.8041 129.6443 32.7045 C 129.6443 37.1195 125.529 39.9477 118.3708 39.9477 C 111.2986 39.9477 107.6989 37.1625 107.6989 33.6049 C 107.6989 31.7182 108.7273 29.9613 111.8132 28.5043 C 110.9772 27.9545 110.4769 27.0185 110.4841 26.018 C 110.4841 24.6039 111.2556 23.6606 112.7566 22.9321 C 110.307 21.8642 108.7362 19.4321 108.7702 16.7602 C 108.7702 12.2592 113.0993 9.7309 118.071 9.7309 L 127.8865 9.7309 C 129.3435 9.7309 130.5007 10.5024 130.5007 12.0024 C 130.51 12.6266 130.2541 13.2255 129.7967 13.6503 C 129.3393 14.0752 128.7231 14.2862 128.1013 14.2309 C 127.0154 14.197 125.943 13.9797 124.9294 13.5883 Z M 118.9714 30.9047 C 117.8572 30.6898 116.8708 30.476 116.0134 30.2182 C 114.1277 31.1615 113.699 32.1898 113.699 32.8754 C 113.699 34.4193 115.6277 35.6615 118.8425 35.6615 C 122.3142 35.6615 123.6863 34.2475 123.6863 33.0473 C 123.6863 31.7611 122.1003 31.5473 118.9714 30.9047 Z M 121.071 16.8881 C 121.071 15.4311 119.8718 14.2309 117.8572 14.2309 C 115.8425 14.2309 114.5993 15.4311 114.5993 16.8881 C 114.5993 18.3881 115.8855 19.5453 117.8572 19.5453 C 119.7859 19.5453 121.071 18.3881 121.071 16.8881 Z " stroke-width="1" fill="#dd2c2c" stroke="none"/><path d="M 151.2439 12.7309 L 151.2439 26.1469 C 151.2456 26.9886 150.912 27.7964 150.3168 28.3916 C 149.7215 28.9868 148.9138 29.3205 148.072 29.3187 C 146.5251 29.3014 145.2102 28.1843 144.9431 26.6605 C 143.5611 28.4596 141.4256 29.5196 139.157 29.5326 C 135.7273 29.5326 132.6413 27.2611 132.6413 22.5033 L 132.6413 12.7309 C 132.626 11.5875 133.2272 10.5244 134.2149 9.9483 C 135.2026 9.3721 136.4239 9.3721 137.4116 9.9483 C 138.3992 10.5244 139.0004 11.5875 138.9851 12.7309 L 138.9851 21.0463 C 138.9851 22.8031 139.6706 24.1322 141.5994 24.1322 C 143.0705 24.0727 144.3665 23.147 144.9001 21.7748 L 144.9001 12.7309 C 144.8848 11.5875 145.486 10.5244 146.4737 9.9483 C 147.4614 9.3721 148.6827 9.3721 149.6704 9.9483 C 150.658 10.5244 151.2592 11.5875 151.2439 12.7309 Z " stroke-width="1" fill="#dd2c2c" stroke="none"/><path d="M 174.5574 16.3744 L 174.5574 26.1469 C 174.5724 27.29 173.9712 28.3529 172.9836 28.9288 C 171.996 29.5048 170.7749 29.5048 169.7874 28.9288 C 168.7998 28.3528 168.1985 27.29 168.2136 26.1469 L 168.2136 17.8314 C 168.2136 16.0736 167.5271 14.7455 165.5984 14.7455 C 164.1276 14.8054 162.832 15.731 162.2986 17.1029 L 162.2986 26.1469 C 162.3136 27.29 161.7124 28.3529 160.7248 28.9288 C 159.7372 29.5048 158.5161 29.5048 157.5286 28.9288 C 156.541 28.3528 155.9398 27.29 155.9548 26.1469 L 155.9548 12.7309 C 155.9528 11.889 156.2863 11.081 156.8816 10.4858 C 157.4768 9.8905 158.2848 9.5569 159.1267 9.559 C 160.6732 9.5763 161.988 10.6929 162.2556 12.2162 C 163.638 10.4177 165.7733 9.3581 168.0417 9.3451 C 171.4704 9.3451 174.5573 11.6166 174.5573 16.3744 Z " stroke-width="1" fill="#dd2c2c" stroke="none"/></g></g></g></svg>