<svg xmlns="http://www.w3.org/2000/svg" xmlns:xlink="http://www.w3.org/1999/xlink" version="1.1" width="70.37076" height="70.37076" viewBox="0,0,70.37076,70.37076"><g><g data-paper-data="{&quot;isPaintingLayer&quot;:true}" fill-rule="nonzero" stroke-linecap="butt" stroke-linejoin="miter" stroke-miterlimit="10" stroke-dasharray="" stroke-dashoffset="0" style="mix-blend-mode: normal"><path d="M 0 35.1854 C 0 15.753 15.753 0 35.1854 0 C 54.6177 0 70.3708 15.753 70.3708 35.1854 C 70.3708 54.6177 54.6177 70.3708 35.1854 70.3708 C 15.753 70.3708 0 54.6177 0 35.1854 Z " fill="#f8fc00" stroke-width="1" stroke="none"/><path d="M 8.3699 35.1854 C 8.3699 20.3756 20.3756 8.3699 35.1854 8.3699 C 49.9952 8.3699 62.0009 20.3756 62.0009 35.1854 C 62.0009 49.9952 49.9952 62.0009 35.1854 62.0009 C 20.3756 62.0009 8.3699 49.9952 8.3699 35.1854 Z " fill="#fcff5f" stroke-width="1" stroke="none"/><path d="M 35.1868 64.1172 C 23.4851 64.1176 12.9354 57.0689 8.457 46.2581 C 3.9787 35.4472 6.4537 23.0031 14.7279 14.7286 C 23.0021 6.4541 35.4461 3.9786 46.2571 8.4566 C 57.0682 12.9346 64.1172 23.4841 64.1172 35.1858 C 64.0996 51.1564 51.1575 64.099 35.1868 64.1172 Z M 35.1868 10.4843 C 25.1959 10.4838 16.1885 16.5019 12.3649 25.7322 C 8.5412 34.9625 10.6543 45.5872 17.7188 52.6521 C 24.7833 59.7168 35.408 61.8304 44.6384 58.0071 C 53.8689 54.1839 59.8873 45.1767 59.8873 35.1858 C 59.8724 21.5501 48.8225 10.4998 35.1868 10.4843 Z " fill="#ebe00c" stroke-width="1" stroke="none"/><path d="M 46.3492 40.7206 C 46.3492 45.3615 42.7666 48.2546 38.3562 49.1747 L 38.3562 51.1499 C 38.3305 52.7302 37.042 53.9978 35.4615 53.9978 C 33.881 53.9978 32.5926 52.7302 32.5668 51.1499 L 32.5668 49.3569 C 30.3157 49.1499 28.1288 48.4944 26.1351 47.429 C 24.8967 46.8468 24.0829 45.6263 24.0216 44.2592 C 24.0208 43.4547 24.3401 42.6829 24.9089 42.114 C 25.4778 41.5452 26.2496 41.2259 27.0541 41.2267 C 27.8621 41.2786 28.6477 41.514 29.351 41.9151 C 31.1793 42.8316 33.187 43.3339 35.2315 43.3864 C 37.1617 43.3864 38.9985 42.6508 38.9985 41.0873 C 38.9985 36.5857 24.8494 38.3787 24.8494 29.0967 C 24.8494 24.3185 28.5703 21.7922 32.5668 20.9193 L 32.5668 19.2209 C 32.5926 17.6406 33.881 16.373 35.4615 16.373 C 37.042 16.373 38.3305 17.6406 38.3562 19.2209 L 38.3562 20.6449 C 39.71 20.7611 41.0402 21.0702 42.3066 21.5627 C 44.3279 22.3906 45.6147 23.3557 45.6147 25.1014 C 45.616 25.8937 45.3018 26.654 44.7414 27.2142 C 44.181 27.7743 43.4206 28.0883 42.6283 28.0866 C 41.9209 28.0642 41.2223 27.9244 40.5609 27.6727 C 38.9316 27.1092 37.2294 26.7841 35.5071 26.7076 C 33.4397 26.7076 31.7862 27.5805 31.7862 28.8223 C 31.7862 33.1415 46.3492 31.8548 46.3492 40.7206 Z " fill="#ebe00c" stroke-width="1" stroke="none"/></g></g></svg>