<svg xmlns="http://www.w3.org/2000/svg" xmlns:xlink="http://www.w3.org/1999/xlink" version="1.1" width="38.82116" height="15.15637" viewBox="0,0,38.82116,15.15637"><g><g data-paper-data="{&quot;isPaintingLayer&quot;:true}" fill-rule="nonzero" stroke-linecap="butt" stroke-linejoin="miter" stroke-miterlimit="10" stroke-dasharray="" stroke-dashoffset="0" style="mix-blend-mode: normal"><path d="M 8.9473 0.6458 L 10.494 3.7796 C 10.6628 4.1216 10.989 4.3586 11.3663 4.4134 L 14.8248 4.916 C 15.2612 4.9794 15.6237 5.2851 15.76 5.7045 C 15.8963 6.124 15.7827 6.5844 15.4669 6.8922 L 12.9644 9.3316 C 12.6913 9.5977 12.5667 9.9812 12.6311 10.3571 L 13.2219 13.8015 C 13.2964 14.2362 13.1177 14.6755 12.761 14.9347 C 12.4042 15.1939 11.9312 15.2281 11.5408 15.0229 L 8.4475 13.3967 C 8.11 13.2192 7.7068 13.2192 7.3692 13.3967 L 4.2759 15.0229 C 3.8856 15.2282 3.4126 15.194 3.0558 14.9347 C 2.699 14.6755 2.5203 14.2362 2.5949 13.8015 L 3.1856 10.3571 C 3.2501 9.9813 3.1255 9.5978 2.8524 9.3316 L 0.3499 6.8922 C 0.0341 6.5844 -0.0795 6.124 0.0567 5.7045 C 0.193 5.2851 0.5556 4.9794 0.992 4.916 L 4.4504 4.4135 C 4.8278 4.3586 5.154 4.1216 5.3228 3.7796 L 6.8694 0.6458 C 7.0646 0.2503 7.4674 0 7.9084 0 C 8.3494 0 8.7521 0.2503 8.9474 0.6458 Z " fill="#fff31a" stroke-width="1" stroke="none"/><path d="M 38.8212 5.6368 C 38.8215 6.9227 38.3046 8.1548 37.3868 9.0556 L 31.6865 14.7559 C 31.4301 15.0123 31.0823 15.1564 30.7196 15.1564 C 30.3569 15.1564 30.0092 15.0123 29.7527 14.7559 L 24.0524 9.0556 C 22.197 7.2 22.1611 4.203 23.9713 2.3034 C 25.7816 0.4038 28.7769 0.2955 30.7196 2.0594 C 32.623 0.3119 35.5674 0.3822 37.3852 2.2186 C 38.3034 3.119 38.8208 4.3508 38.8212 5.6367 Z " fill="#ff4343" stroke-width="1" stroke="none"/></g></g></svg>