<svg xmlns="http://www.w3.org/2000/svg" xmlns:xlink="http://www.w3.org/1999/xlink" version="1.1" width="70.37076" height="70.37076" viewBox="0,0,70.37076,70.37076"><g><g data-paper-data="{&quot;isPaintingLayer&quot;:true}" fill-rule="nonzero" stroke-linecap="butt" stroke-linejoin="miter" stroke-miterlimit="10" stroke-dasharray="" stroke-dashoffset="0" style="mix-blend-mode: normal"><path d="M 0 35.1854 C 0 15.753 15.753 0 35.1854 0 C 54.6177 0 70.3708 15.753 70.3708 35.1854 C 70.3708 54.6177 54.6177 70.3708 35.1854 70.3708 C 15.753 70.3708 0 54.6177 0 35.1854 Z " fill="#fcb80f" stroke-width="1" stroke="none"/><path d="M 8.3699 35.1854 C 8.3699 20.3756 20.3756 8.3699 35.1854 8.3699 C 49.9952 8.3699 62.0009 20.3756 62.0009 35.1854 C 62.0009 49.9952 49.9952 62.0009 35.1854 62.0009 C 20.3756 62.0009 8.3699 49.9952 8.3699 35.1854 Z " fill="#ffbd73" stroke-width="1" stroke="none"/><path d="M 35.1851 64.1167 C 23.4834 64.1171 12.9336 57.0685 8.4553 46.2576 C 3.9769 35.4467 6.4519 23.0026 14.7261 14.7281 C 23.0004 6.4536 35.4443 3.9782 46.2554 8.4561 C 57.0664 12.9341 64.1154 23.4836 64.1154 35.1853 C 64.0978 51.156 51.1557 64.0985 35.1851 64.1167 Z M 35.1851 10.4838 C 25.1942 10.4834 16.1868 16.5014 12.3631 25.7317 C 8.5395 34.962 10.6526 45.5868 17.7171 52.6516 C 24.7816 59.7164 35.4062 61.8299 44.6367 58.0066 C 53.8672 54.1834 59.8856 45.1762 59.8856 35.1853 C 59.8706 21.5496 48.8208 10.4993 35.1851 10.4838 Z " fill="#d97f0b" stroke-width="1" stroke="none"/><path d="M 46.3492 40.7206 C 46.3492 45.3616 42.7666 48.2546 38.3562 49.1747 L 38.3562 51.1499 C 38.3305 52.7302 37.042 53.9978 35.4615 53.9978 C 33.881 53.9978 32.5926 52.7302 32.5668 51.1499 L 32.5668 49.3569 C 30.3157 49.15 28.1289 48.4945 26.1351 47.429 C 24.8967 46.8468 24.0829 45.6263 24.0216 44.2593 C 24.0208 43.4548 24.3401 42.683 24.9089 42.1141 C 25.4778 41.5452 26.2496 41.226 27.0541 41.2268 C 27.8621 41.2786 28.6477 41.514 29.351 41.9152 C 31.1793 42.8316 33.1871 43.334 35.2315 43.3864 C 37.1617 43.3864 38.9985 42.6508 38.9985 41.0873 C 38.9985 36.5858 24.8495 38.3788 24.8495 29.0968 C 24.8495 24.3186 28.5703 21.7922 32.5668 20.9194 L 32.5668 19.2209 C 32.5926 17.6406 33.881 16.373 35.4615 16.373 C 37.042 16.373 38.3305 17.6406 38.3562 19.2209 L 38.3562 20.6449 C 39.71 20.7612 41.0402 21.0703 42.3066 21.5628 C 44.3279 22.3906 45.6147 23.3557 45.6147 25.1014 C 45.616 25.8938 45.3018 26.6541 44.7414 27.2142 C 44.181 27.7744 43.4206 28.0883 42.6283 28.0867 C 41.921 28.0643 41.2223 27.9244 40.5609 27.6727 C 38.9316 27.1092 37.2294 26.7842 35.5071 26.7077 C 33.4397 26.7077 31.7862 27.5805 31.7862 28.8223 C 31.7862 33.1416 46.3492 31.8548 46.3492 40.7206 Z " fill="#d97f0b" stroke-width="1" stroke="none"/></g></g></svg>