<svg xmlns="http://www.w3.org/2000/svg" xmlns:xlink="http://www.w3.org/1999/xlink" version="1.1" width="17.125" height="17.40024" viewBox="0,0,17.125,17.40024"><defs><linearGradient x1="231.4375" y1="180" x2="248.5625" y2="180" gradientUnits="userSpaceOnUse" id="color-1"><stop offset="0" stop-color="#9966ff" stop-opacity="0"/><stop offset="1" stop-color="#9966ff" stop-opacity="0"/></linearGradient></defs><g><g data-paper-data="{&quot;isPaintingLayer&quot;:true}" fill-rule="nonzero" stroke-linecap="butt" stroke-linejoin="miter" stroke-miterlimit="10" stroke-dasharray="" stroke-dashoffset="0" style="mix-blend-mode: normal"><path d="M 11.0585 1.909 L 11.0585 15.1977 C 11.0435 16.1917 10.2414 16.9938 9.2474 17.0088 C 8.7668 17.0099 8.3055 16.8194 7.9657 16.4795 C 7.6259 16.1396 7.4355 15.6783 7.4366 15.1977 L 7.4366 4.1849 L 5.919 4.7968 C 5.642 4.9252 5.3431 4.9999 5.0383 5.017 C 4.128 5.0055 3.3967 4.2633 3.3986 3.353 C 3.4028 2.6259 3.8629 1.9796 4.5486 1.7378 L 7.877 0.3672 C 8.2911 0.1644 8.7391 0.04 9.1984 0.0001 C 9.702 -0.0056 10.186 0.1953 10.5375 0.556 C 10.8889 0.9167 11.0772 1.4057 11.0585 1.909 Z " fill="#1a1a1a" stroke-width="1" stroke="none"/><path d="M231.4375,188.5625v-17.125h17.125v17.125z" fill="url(#color-1)" stroke-width="0" stroke="none" transform="matrix(1,0,0,1,-231.4375,-171.16226)"/></g></g></svg>