<svg xmlns="http://www.w3.org/2000/svg" xmlns:xlink="http://www.w3.org/1999/xlink" version="1.1" width="17.125" height="17.125" viewBox="0,0,17.125,17.125"><defs><linearGradient x1="231.4375" y1="180" x2="248.5625" y2="180" gradientUnits="userSpaceOnUse" id="color-1"><stop offset="0" stop-color="#9966ff" stop-opacity="0"/><stop offset="1" stop-color="#9966ff" stop-opacity="0"/></linearGradient></defs><g><g data-paper-data="{&quot;isPaintingLayer&quot;:true}" fill-rule="nonzero" stroke-linecap="butt" stroke-linejoin="miter" stroke-miterlimit="10" stroke-dasharray="" stroke-dashoffset="0" style="mix-blend-mode: normal"><path d="M 14.5955 15.2563 C 14.5933 15.7357 14.3968 16.1938 14.0509 16.5259 C 13.7051 16.8579 13.2394 17.0356 12.7603 17.0184 L 4.2193 17.0184 C 3.7576 17.0144 3.3178 16.8208 3.0031 16.483 C 2.6884 16.1452 2.5264 15.6928 2.5551 15.232 C 2.5781 14.5166 2.8972 13.8429 3.4362 13.3719 L 7.9881 8.771 C 9.0647 7.6943 9.7992 6.7642 9.7992 5.4673 C 9.7992 4.2924 8.9181 3.6807 7.8901 3.6807 C 6.9356 3.6807 6.2749 4.2191 5.6876 4.9043 C 5.3455 5.3621 4.8149 5.6409 4.2438 5.663 C 3.8115 5.6885 3.3869 5.5398 3.065 5.2501 C 2.7431 4.9604 2.5506 4.5538 2.5306 4.1212 C 2.513 3.5625 2.6952 3.0158 3.0444 2.5794 C 4.2278 0.9772 6.1194 0.0543 8.1105 0.1076 C 11.7079 0.1076 13.7635 2.3591 13.7635 5.3449 C 13.7635 7.2048 12.9072 8.6731 11.1206 10.5087 L 8.135 13.5433 L 12.7603 13.5433 C 13.234 13.5151 13.6985 13.6824 14.0454 14.0061 C 14.3922 14.3299 14.5911 14.7818 14.5956 15.2563 Z " fill="#ff6300" stroke-width="1" stroke="none"/><path d="M231.4375,188.5625v-17.125h17.125v17.125z" fill="url(#color-1)" stroke-width="0" stroke="none" transform="matrix(1,0,0,1,-231.4375,-171.4375)"/></g></g></svg>