<svg xmlns="http://www.w3.org/2000/svg" xmlns:xlink="http://www.w3.org/1999/xlink" version="1.1" width="17.125" height="17.84934" viewBox="0,0,17.125,17.84934"><defs><linearGradient x1="231.4375" y1="180" x2="248.5625" y2="180" gradientUnits="userSpaceOnUse" id="color-1"><stop offset="0" stop-color="#9966ff" stop-opacity="0"/><stop offset="1" stop-color="#9966ff" stop-opacity="0"/></linearGradient></defs><g><g data-paper-data="{&quot;isPaintingLayer&quot;:true}" fill-rule="nonzero" stroke-linecap="butt" stroke-linejoin="miter" stroke-miterlimit="10" stroke-dasharray="" stroke-dashoffset="0" style="mix-blend-mode: normal"><path d="M 16.0934 15.8585 C 16.0962 16.3266 15.9064 16.7753 15.5685 17.0993 C 15.2306 17.4233 14.7744 17.5941 14.3068 17.5717 C 13.7229 17.5509 13.1811 17.2619 12.8385 16.7886 L 10.0977 13.2643 L 8.6539 14.1454 L 8.6539 15.7361 C 8.6627 16.389 8.3194 16.996 7.7554 17.325 C 7.1915 17.654 6.4941 17.654 5.9301 17.325 C 5.3662 16.996 5.0229 16.389 5.0317 15.7361 L 5.0317 1.8356 C 5.0229 1.1828 5.3662 0.5757 5.9301 0.2467 C 6.4941 -0.0822 7.1915 -0.0822 7.7554 0.2467 C 8.3194 0.5757 8.6627 1.1828 8.6539 1.8356 L 8.6539 10.597 L 13.0344 6.7544 C 13.3647 6.441 13.8025 6.2659 14.2579 6.2651 C 15.1476 6.293 15.8586 7.0148 15.8731 7.9048 C 15.86 8.4533 15.599 8.9662 15.1634 9.2997 L 12.8385 11.3067 L 15.4573 14.4882 C 15.9466 15.0754 16.0935 15.4668 16.0935 15.8585 Z " fill="#fcfcfc" stroke-width="1" stroke="none"/><path d="M231.4375,188.5625v-17.125h17.125v17.125z" fill="url(#color-1)" stroke-width="0" stroke="none" transform="matrix(1,0,0,1,-231.4375,-170.71316)"/></g></g></svg>