<svg xmlns="http://www.w3.org/2000/svg" xmlns:xlink="http://www.w3.org/1999/xlink" version="1.1" width="212.18551" height="41.36137" viewBox="0,0,212.18551,41.36137"><g><g data-paper-data="{&quot;isPaintingLayer&quot;:true}" fill-rule="nonzero" stroke-linecap="butt" stroke-linejoin="miter" stroke-miterlimit="10" stroke-dasharray="" stroke-dashoffset="0" style="mix-blend-mode: normal"><g><path d="M 19.076 27.6036 C 19.0887 28.3918 18.7812 29.1516 18.2236 29.7089 C 17.6661 30.2663 16.9062 30.5736 16.118 30.5606 L 3.1736 30.5606 C 2.3161 30.5647 1.4938 30.22 0.8956 29.6055 C 0.2973 28.9911 -0.0253 28.1599 0.0017 27.3028 L 0.0017 4.7149 C -0.0267 3.8534 0.2942 3.0169 0.8914 2.3954 C 1.4887 1.7739 2.3117 1.42 3.1736 1.4141 L 15.6463 1.4141 C 16.4347 1.4011 17.1946 1.7085 17.7522 2.2661 C 18.3098 2.8237 18.6173 3.5836 18.6043 4.3721 C 18.6138 5.1517 18.3023 5.901 17.7429 6.4442 C 17.1834 6.9873 16.4253 7.2766 15.6463 7.2441 L 6.6023 7.2441 L 6.6023 13.1582 L 14.3611 13.1582 C 15.3611 13.1277 16.2984 13.6438 16.8075 14.5051 C 17.3165 15.3664 17.3165 16.4364 16.8075 17.2977 C 16.2985 18.159 15.3611 18.675 14.3611 18.6445 L 6.6023 18.6445 L 6.6023 24.7315 L 16.1179 24.7315 C 16.897 24.699 17.6551 24.9883 18.2146 25.5314 C 18.774 26.0746 19.0855 26.8239 19.076 27.6036 Z " stroke-width="1" fill="#fc5702" stroke="none"/><path d="M 22.9724 27.5606 L 22.9724 3.2148 C 22.96 1.4676 24.3544 0.0349 26.1013 0 C 27.8715 0.0128 29.3034 1.4447 29.3162 3.2148 L 29.3162 27.5605 C 29.3312 28.7037 28.73 29.7665 27.7424 30.3425 C 26.7549 30.9185 25.5338 30.9185 24.5462 30.3425 C 23.5586 29.7665 22.9574 28.7037 22.9724 27.5605 Z " stroke-width="1" fill="#fc5702" stroke="none"/><path d="M 52.3738 19.3741 C 52.432 20.1502 52.1862 20.9185 51.6883 21.5166 C 50.9508 22.1704 49.964 22.4681 48.9881 22.3311 L 39.4724 22.3311 C 40.073 24.3887 41.8299 25.5459 44.659 25.5459 C 45.4519 25.5475 46.2426 25.4611 47.0164 25.2881 C 47.5919 25.1422 48.181 25.0561 48.7742 25.0313 C 49.4314 25.0256 50.0626 25.2872 50.5231 25.756 C 50.9837 26.2249 51.234 26.8607 51.2166 27.5176 C 51.216 28.6676 50.497 29.6947 49.4168 30.0889 C 47.6846 30.708 45.8558 31.013 44.0164 30.9893 C 37.8865 30.9893 33.1717 27.0459 33.1717 20.917 C 33.1717 14.959 37.4158 10.7588 43.4158 10.7588 C 45.768 10.6338 48.0667 11.4896 49.7645 13.1224 C 51.4623 14.7552 52.407 17.0188 52.3738 19.3741 Z M 46.9305 18.6875 C 46.9128 17.7607 46.5101 16.883 45.8191 16.2651 C 45.128 15.6472 44.2109 15.3449 43.2879 15.4307 C 41.3398 15.3403 39.6461 16.7546 39.3875 18.6875 Z " stroke-width="1" fill="#fc5702" stroke="none"/><path d="M 86.618 17.8301 L 86.618 27.5606 C 86.633 28.7038 86.0318 29.7666 85.0442 30.3425 C 84.0566 30.9185 82.8355 30.9185 81.848 30.3425 C 80.8604 29.7666 80.2591 28.7037 80.2742 27.5606 L 80.2742 19.2452 C 80.2742 16.8448 78.8601 16.1592 77.7029 16.1592 C 76.328 16.185 75.0919 17.0033 74.531 18.2589 L 74.531 27.5606 C 74.5461 28.7038 73.9448 29.7666 72.9573 30.3426 C 71.9697 30.9185 70.7486 30.9185 69.761 30.3426 C 68.7735 29.7666 68.1722 28.7038 68.1873 27.5606 L 68.1873 19.2022 C 68.1873 16.8448 66.7732 16.1592 65.616 16.1592 C 64.2176 16.1835 62.9617 17.0205 62.4011 18.3018 L 62.4011 27.5606 C 62.4162 28.7038 61.8149 29.7666 60.8274 30.3425 C 59.8398 30.9185 58.6187 30.9185 57.6311 30.3425 C 56.6436 29.7666 56.0423 28.7037 56.0574 27.5606 L 56.0574 14.2305 C 56.0122 12.5629 57.2665 11.1453 58.9272 10.987 C 60.5879 10.8287 62.0874 11.9838 62.3582 13.6299 C 63.6398 11.7977 65.7374 10.7092 67.9734 10.7159 C 70.3175 10.5738 72.5348 11.7909 73.6736 13.8448 C 75.1515 11.8068 77.5441 10.6347 80.0603 10.7159 C 83.2322 10.7159 86.6179 12.3868 86.6179 17.8301 Z " stroke-width="1" fill="#fc5702" stroke="none"/><path d="M 109.5017 19.3741 C 109.56 20.1502 109.3141 20.9185 108.8162 21.5166 C 108.0788 22.1704 107.0919 22.4681 106.116 22.3311 L 96.6004 22.3311 C 97.201 24.3887 98.9578 25.5459 101.7869 25.5459 C 102.5798 25.5475 103.3705 25.4611 104.1443 25.2881 C 104.7198 25.1422 105.3089 25.0561 105.9021 25.0313 C 106.5593 25.0256 107.1905 25.2872 107.6511 25.756 C 108.1116 26.2249 108.3619 26.8607 108.3445 27.5176 C 108.3439 28.6676 107.625 29.6947 106.5447 30.0889 C 104.8125 30.708 102.9837 31.013 101.1443 30.9893 C 95.0144 30.9893 90.2996 27.0459 90.2996 20.917 C 90.2996 14.959 94.5437 10.7588 100.5437 10.7588 C 102.8959 10.6338 105.1947 11.4896 106.8924 13.1224 C 108.5902 14.7552 109.535 17.0188 109.5017 19.3741 Z M 104.0584 18.6875 C 104.0407 17.7607 103.6381 16.883 102.947 16.2651 C 102.2559 15.6472 101.3388 15.3449 100.4158 15.4307 C 98.4677 15.3403 96.774 16.7546 96.5154 18.6875 Z " stroke-width="1" fill="#fc5702" stroke="none"/><path d="M 131.7879 17.7881 L 131.7879 27.5606 C 131.8029 28.7038 131.2017 29.7666 130.2141 30.3425 C 129.2265 30.9185 128.0054 30.9185 127.0179 30.3425 C 126.0303 29.7666 125.4291 28.7037 125.4441 27.5606 L 125.4441 19.2452 C 125.4441 17.4874 124.7576 16.1592 122.8289 16.1592 C 121.3581 16.2191 120.0625 17.1447 119.5291 18.5166 L 119.5291 27.5606 C 119.5441 28.7038 118.9429 29.7666 117.9553 30.3425 C 116.9677 30.9185 115.7466 30.9185 114.7591 30.3425 C 113.7715 29.7666 113.1703 28.7037 113.1853 27.5606 L 113.1853 14.1446 C 113.1833 13.3027 113.5168 12.4948 114.1121 11.8995 C 114.7074 11.3042 115.5153 10.9707 116.3572 10.9727 C 117.9037 10.99 119.2186 12.1066 119.4861 13.63 C 120.8685 11.8315 123.0039 10.7719 125.2722 10.7589 C 128.7009 10.7589 131.7879 13.0303 131.7879 17.7881 Z " stroke-width="1" fill="#fc5702" stroke="none"/><path d="M 151.9715 27.3457 C 151.9715 28.5459 151.243 29.2745 149.9568 29.918 C 148.5018 30.5728 146.9235 30.9088 145.3279 30.9034 C 140.3133 30.9034 137.8699 28.5459 137.8699 24.3457 L 137.8699 16.459 L 136.4129 16.459 C 135.91 16.4805 135.4201 16.2961 135.0561 15.9484 C 134.6922 15.6006 134.4857 15.1196 134.4842 14.6163 C 134.5045 13.9262 134.8555 13.288 135.4276 12.9014 L 140.8279 8.3584 C 141.2384 7.9447 141.7889 7.6998 142.3709 7.6719 C 143.3133 7.6719 144.2137 8.3154 144.2137 9.9014 L 144.2137 11.1445 L 149.0575 11.1445 C 150.5221 11.1516 151.7076 12.3372 151.7147 13.8018 C 151.7184 14.5076 151.4397 15.1857 150.9405 15.6848 C 150.4414 16.184 149.7633 16.4627 149.0575 16.459 L 144.2137 16.459 L 144.2137 23.1025 C 144.1471 23.6926 144.3499 24.2812 144.7657 24.7052 C 145.1814 25.1291 145.766 25.3432 146.3573 25.2881 C 146.865 25.2895 147.3702 25.2175 147.8573 25.0742 C 148.3678 24.8802 148.9006 24.7507 149.4432 24.6885 C 150.1359 24.6902 150.7977 24.9751 151.2751 25.4769 C 151.7526 25.9787 152.0042 26.6538 151.9715 27.3457 Z " stroke-width="1" fill="#fc5702" stroke="none"/><path d="M 171.4724 17.8731 L 171.4724 27.7315 C 171.4987 29.2698 170.3539 30.5772 168.8256 30.7543 C 167.2973 30.9315 165.8838 29.9206 165.5574 28.417 C 163.9343 29.9985 161.7785 30.916 159.5135 30.9893 C 158.0057 31.0775 156.5287 30.538 155.4327 29.4988 C 154.3367 28.4596 153.7195 27.0133 153.7274 25.503 C 153.7274 22.7168 155.3992 21.1309 157.7567 20.1875 C 160.2529 19.3896 162.8514 18.9567 165.4715 18.9024 L 165.4715 18.3448 C 165.4715 16.7159 164.5291 16.1592 162.3426 16.1592 C 161.4149 16.1623 160.492 16.292 159.5994 16.545 C 159.0704 16.7094 158.5235 16.8101 157.9705 16.8448 C 157.2965 16.8801 156.6371 16.6397 156.144 16.1789 C 155.6509 15.718 155.3665 15.0763 155.3563 14.4014 C 155.3309 13.3253 155.9821 12.3485 156.9852 11.958 C 158.9777 11.1704 161.1004 10.7636 163.243 10.7588 C 168.2576 10.7588 171.4724 13.1582 171.4724 17.8731 Z M 161.614 26.1456 C 163.0018 26.0537 164.337 25.5791 165.4715 24.7745 L 165.4715 22.46 C 164.4432 22.5879 163.4568 22.7168 162.4715 22.9307 C 160.5428 23.3165 159.7713 23.8311 159.7713 24.7315 C 159.7713 25.6319 160.4568 26.1456 161.614 26.1456 Z " stroke-width="1" fill="#fc5702" stroke="none"/><path d="M 190.4998 13.7589 C 190.5212 14.5916 190.2057 15.3977 189.6248 15.9947 C 189.044 16.5917 188.2468 16.9292 187.4139 16.9307 C 185.4213 16.8124 183.5202 17.7792 182.4422 19.4591 L 182.4422 27.5606 C 182.4572 28.7038 181.856 29.7666 180.8684 30.3426 C 179.8808 30.9185 178.6597 30.9185 177.6722 30.3426 C 176.6846 29.7666 176.0834 28.7038 176.0984 27.5606 L 176.0984 14.1446 C 176.1015 12.395 177.5207 10.9784 179.2703 10.9784 C 181.0199 10.9784 182.4391 12.395 182.4422 14.1446 L 182.4422 14.3585 C 183.8562 11.7013 185.5281 10.7589 187.4568 10.7589 C 188.2628 10.7375 189.0426 11.0453 189.6168 11.6113 C 190.1909 12.1773 190.5097 12.9527 190.4998 13.7589 Z " stroke-width="1" fill="#fc5702" stroke="none"/><path d="M 212.1853 14.0587 C 212.1909 14.5787 212.0734 15.0926 211.8426 15.5587 L 200.2273 39.2618 C 199.727 40.5286 198.5034 41.361 197.1414 41.3614 C 195.492 41.2823 194.1926 39.9267 194.1834 38.2754 C 194.1785 37.7555 194.2959 37.2417 194.5262 36.7754 L 198.2986 29.7032 L 191.8689 15.5587 C 191.6385 15.0925 191.5211 14.5786 191.5262 14.0587 C 191.5596 12.3348 192.9739 10.9588 194.698 10.9727 C 196.0456 10.9875 197.2494 11.8185 197.741 13.0733 C 198.8983 15.7305 200.699 20.3594 201.8133 23.4883 C 203.0769 19.9447 204.5218 16.4685 206.1424 13.0733 C 206.6427 11.8063 207.8662 10.9735 209.2283 10.9727 C 210.8775 11.0519 212.1765 12.4076 212.1853 14.0587 Z " stroke-width="1" fill="#fc5702" stroke="none"/></g></g></g></svg>