<svg xmlns="http://www.w3.org/2000/svg" xmlns:xlink="http://www.w3.org/1999/xlink" version="1.1" width="112.84386" height="68.57728" viewBox="0,0,112.84386,68.57728"><g><g data-paper-data="{&quot;isPaintingLayer&quot;:true}" fill-rule="nonzero" stroke-linecap="butt" stroke-linejoin="miter" stroke-miterlimit="10" stroke-dasharray="" stroke-dashoffset="0" style="mix-blend-mode: normal"><g><path d="M 30.0994 59.8321 C 30.0994 64.3321 27.0135 68.3614 20.1131 68.3614 L 11.6268 68.3614 C 10.7692 68.3657 9.9467 68.021 9.3485 67.4065 C 8.7502 66.7921 8.4277 65.9607 8.4549 65.1036 L 8.4549 42.5157 C 8.4263 41.6541 8.7471 40.8176 9.3444 40.196 C 9.9417 39.5745 10.7648 39.2206 11.6268 39.2149 L 19.7693 39.2149 C 26.1561 39.2149 29.115 43.2871 29.115 47.1446 C 29.252 49.6488 28.064 52.041 25.9861 53.4454 C 28.5 54.573 30.1126 57.0769 30.0994 59.8321 Z M 14.9705 44.8731 L 14.9705 51.002 L 18.9549 51.002 C 21.5272 51.002 22.4275 49.459 22.4275 47.8731 C 22.4275 46.4161 21.5272 44.8731 18.9549 44.8731 Z M 23.4139 59.4893 C 23.4139 58.0313 22.4705 56.4453 19.8553 56.4453 L 14.9705 56.4453 L 14.9705 62.7031 L 19.8553 62.7031 C 22.4705 62.7032 23.4139 61.1172 23.4139 59.4893 Z " stroke-width="1" fill="#f33d3d" stroke="none"/><path d="M 59.4139 65.4893 C 59.4258 66.989 58.3501 68.2769 56.8722 68.5323 C 55.3943 68.7876 53.9489 67.9354 53.4569 66.5186 L 51.9999 62.7891 L 39.699 62.7891 L 38.24 66.5616 C 37.7915 67.7619 36.6503 68.5623 35.3689 68.5752 C 34.5561 68.5946 33.7708 68.2802 33.1959 67.7053 C 32.621 67.1303 32.3066 66.3451 32.3259 65.5322 C 32.3399 64.9412 32.4707 64.3587 32.7107 63.8184 L 41.5838 42.2159 C 42.2122 40.3068 43.99 39.0126 45.9998 39.001 C 47.9853 39.0258 49.7306 40.3222 50.3279 42.2159 L 59.0291 63.8604 C 59.2557 64.3753 59.3861 64.9274 59.4139 65.4893 Z M 49.8572 57.3887 L 45.9139 47.3164 L 45.742 47.3164 L 41.7986 57.3887 Z " stroke-width="1" fill="#f33d3d" stroke="none"/><path d="M 80.9705 65.4463 C 80.9742 66.2282 80.6622 66.9786 80.1052 67.5273 C 79.5482 68.076 78.7933 68.3768 78.0115 68.3613 L 66.3963 68.3613 C 65.521 68.3736 64.6786 68.0284 64.0638 67.4054 C 63.4489 66.7824 63.1147 65.9356 63.1385 65.0606 L 63.1385 42.2588 C 63.162 40.4526 64.6329 39.0008 66.4393 39.0008 C 68.2456 39.0008 69.7165 40.4526 69.74 42.2588 L 69.74 62.5323 L 78.0115 62.5323 C 78.7953 62.5094 79.5543 62.8076 80.113 63.3578 C 80.6716 63.9079 80.9814 64.6624 80.9705 65.4463 Z " stroke-width="1" fill="#f33d3d" stroke="none"/><path d="M 102.5271 65.4463 C 102.5309 66.2282 102.2189 66.9786 101.6618 67.5273 C 101.1048 68.076 100.3499 68.3768 99.5681 68.3613 L 87.9529 68.3613 C 87.0777 68.3736 86.2353 68.0284 85.6204 67.4054 C 85.0055 66.7824 84.6713 65.9356 84.6951 65.0606 L 84.6951 42.2588 C 84.7186 40.4526 86.1895 39.0008 87.9959 39.0008 C 89.8022 39.0008 91.2731 40.4526 91.2967 42.2588 L 91.2967 62.5323 L 99.5682 62.5323 C 100.3519 62.5094 101.1109 62.8076 101.6696 63.3578 C 102.2282 63.9079 102.538 64.6624 102.5271 65.4463 Z " stroke-width="1" fill="#f33d3d" stroke="none"/></g><g><path d="M 6.6014 6.045 L 6.6014 12.8594 L 13.8885 12.8594 C 14.9092 12.8443 15.8589 13.3802 16.3737 14.2617 C 16.8885 15.1433 16.8885 16.2337 16.3737 17.1153 C 15.8589 17.9968 14.9092 18.5327 13.8885 18.5176 L 6.6014 18.5176 L 6.6014 26.2754 C 6.6132 27.1615 6.2635 28.0141 5.6329 28.6367 C 5.0024 29.2594 4.1454 29.5982 3.2596 29.5752 C 2.3866 29.5806 1.5484 29.2334 0.935 28.6121 C 0.3217 27.9908 -0.0148 27.1483 0.0018 26.2754 L 0.0018 3.5157 C -0.0268 2.6541 0.294 1.8176 0.8913 1.196 C 1.4886 0.5745 2.3116 0.2206 3.1736 0.2149 L 15.0896 0.2149 C 16.707 0.2134 18.025 1.5126 18.0466 3.1299 C 18.025 4.7471 16.707 6.0464 15.0896 6.0449 Z " stroke-width="1" fill="#f33d3d" stroke="none"/><path d="M 21.9432 26.2754 L 21.9432 3.2588 C 21.9667 1.4526 23.4376 0.0008 25.244 0.0008 C 27.0503 0.0008 28.5212 1.4526 28.5447 3.2588 L 28.5447 26.2754 C 28.5447 28.0984 27.0669 29.5762 25.244 29.5762 C 23.421 29.5762 21.9432 28.0984 21.9432 26.2754 Z " stroke-width="1" fill="#f33d3d" stroke="none"/><path d="M 34.6288 26.4893 L 34.6288 3.7725 C 34.6281 2.757 35.0371 1.7842 35.7631 1.0743 C 36.4892 0.3644 37.471 -0.0225 38.4861 0.001 C 39.9732 0.0174 41.3484 0.7938 42.1307 2.0586 L 54.0897 18.3457 L 54.1307 18.3457 L 54.1307 3.087 C 54.2012 1.3626 55.6197 0.001 57.3455 0.001 C 59.0713 0.001 60.4898 1.3626 60.5603 3.087 L 60.5603 25.7608 C 60.563 26.7807 60.156 27.759 59.4308 28.4761 C 58.7055 29.1933 57.7228 29.5893 56.7029 29.5752 C 55.1744 29.5107 53.7775 28.6918 52.9744 27.3897 L 41.1443 11.4454 L 41.0584 11.4454 L 41.1014 26.4893 C 41.0191 28.2168 39.5945 29.5751 37.8651 29.5751 C 36.1356 29.5751 34.711 28.2168 34.6287 26.4893 Z " stroke-width="1" fill="#f33d3d" stroke="none"/><path d="M 91.2889 26.4893 C 91.3008 27.989 90.2251 29.2769 88.7472 29.5323 C 87.2693 29.7876 85.8239 28.9354 85.3319 27.5186 L 83.8729 23.7891 L 71.5721 23.7891 L 70.1151 27.5616 C 69.6665 28.7619 68.5253 29.5623 67.244 29.5752 C 66.431 29.5946 65.6455 29.2803 65.0702 28.7054 C 64.495 28.1306 64.1802 27.3453 64.1991 26.5322 C 64.2128 25.9409 64.3443 25.3583 64.5858 24.8184 L 73.4588 3.2159 C 74.0859 1.3067 75.8633 0.0122 77.8728 0.001 C 79.859 0.0251 81.6053 1.3216 82.2029 3.2159 L 90.9022 24.8604 C 91.1292 25.3753 91.2603 25.9273 91.2889 26.4893 Z M 81.7303 18.3887 L 77.7869 8.3164 L 77.615 8.3164 L 73.6717 18.3887 Z " stroke-width="1" fill="#f33d3d" stroke="none"/><path d="M 112.8436 26.4463 C 112.8477 27.228 112.5361 27.9783 111.9795 28.5271 C 111.4228 29.0759 110.6681 29.3767 109.8866 29.3613 L 98.2713 29.3613 C 97.3959 29.374 96.5533 29.0288 95.9384 28.4058 C 95.3234 27.7827 94.9894 26.9356 95.0135 26.0605 L 95.0135 3.2588 C 95.0368 1.453 96.5073 0.0014 98.3133 0.0014 C 100.1192 0.0014 101.5898 1.453 101.6131 3.2588 L 101.6131 23.5323 L 109.8865 23.5323 C 110.6701 23.5095 111.4289 23.8078 111.9872 24.358 C 112.5455 24.9082 112.8549 25.6625 112.8436 26.4463 Z " stroke-width="1" fill="#f33d3d" stroke="none"/></g></g></g></svg>