<svg xmlns="http://www.w3.org/2000/svg" xmlns:xlink="http://www.w3.org/1999/xlink" version="1.1" width="85.50748" height="86.50007" viewBox="0,0,85.50748,86.50007"><g><g data-paper-data="{&quot;isPaintingLayer&quot;:true}" fill-rule="nonzero" stroke-linecap="butt" stroke-linejoin="miter" stroke-miterlimit="10" stroke-dasharray="" stroke-dashoffset="0" style="mix-blend-mode: normal"><path d="M 83.1307 63.1501 L 73.0135 58.5738 L 74.1035 29.9544 L 85.5074 25.7856 Z " fill="#e82121" stroke-width="1" stroke="none"/><path d="M 49.8255 86.5001 L 46.9483 72.8627 L 73.0135 58.5738 L 83.1307 63.1501 Z " fill="#c61c1c" stroke-width="1" stroke="none"/><path d="M 21.3983 64.0189 L 46.9483 72.8627 L 49.8255 86.5001 L 14.533 71.4656 Z " fill="#991d1d" stroke-width="1" stroke="none"/><path d="M 13.0571 37.6628 L 21.3983 64.0189 L 14.533 71.4656 L 0 37.0369 Z " fill="#7c1414" stroke-width="1" stroke="none"/><path d="M 23.4492 4.2685 L 29.7341 13.6625 L 13.0571 37.6628 L 0 37.0369 Z " fill="#c92727" stroke-width="1" stroke="none"/><path d="M 56.3322 12.457 L 29.7341 13.6625 L 23.4492 4.2685 L 56.5258 0.2921 Z " fill="#bf3232" stroke-width="1" stroke="none"/><path d="M 74.0448 30.2465 L 56.1537 11.8185 L 56.5846 0 L 85.5075 25.7856 Z " fill="#aa2626" stroke-width="1" stroke="none"/><path d="M 74.0448 30.2465 L 73.0136 58.5738 L 46.9483 72.8627 L 21.3983 64.0189 L 13.0571 37.6628 L 29.7341 13.6626 L 56.3909 12.1649 Z " fill="#dd2c2c" stroke-width="1" stroke="none"/></g></g></svg>