<svg xmlns="http://www.w3.org/2000/svg" xmlns:xlink="http://www.w3.org/1999/xlink" version="1.1" width="48.1844" height="56.04978" viewBox="0,0,48.1844,56.04978"><defs><radialGradient cx="227.30753" cy="194.57898" r="4.29713" gradientUnits="userSpaceOnUse" id="color-1"><stop offset="0" stop-color="#e3520a"/><stop offset="1" stop-color="#cb5923"/></radialGradient><radialGradient cx="985.39222" cy="3034.66139" r="85.5613" gradientUnits="userSpaceOnUse" id="color-2"><stop offset="0" stop-color="#e3520a"/><stop offset="1" stop-color="#cb5923"/></radialGradient><radialGradient cx="11.6652" cy="47.3158" r="4.2971" gradientUnits="userSpaceOnUse" id="color-1-,0,0,1,-215.64238,-147.2632"><stop offset="0" stop-color="#e3520a"/><stop offset="1" stop-color="#cb5923"/></radialGradient><radialGradient cx="769.7498" cy="2887.3982" r="85.5613" gradientUnits="userSpaceOnUse" id="color-2-,0,0,1,-215.64238,-147.2632"><stop offset="0" stop-color="#e3520a"/><stop offset="1" stop-color="#cb5923"/></radialGradient></defs><g><g data-paper-data="{&quot;isPaintingLayer&quot;:true}" fill-rule="nonzero" stroke-linecap="butt" stroke-linejoin="miter" stroke-miterlimit="10" stroke-dasharray="" stroke-dashoffset="0" style="mix-blend-mode: normal"><path d="M 29.2014 1.1179 L 25.6983 1.2582 L 22.1922 1.2582 L 18.8052 1.1179 L 18.8052 0 L 29.2014 0 Z " fill="#e1dae9" stroke-width="1" stroke="none"/><path d="M 24.0922 39.017 L 24.0922 47.3159 L 16.4783 45.7612 L 6.0286 36.0103 L 6.4455 35.3775 L 4.4061 33.2043 L 18.4582 33.2043 L 18.3688 33.2936 Z " fill="#aa160f" stroke-width="1" stroke="none"/><path d="M 24.0922 18.4232 L 24.0922 27.5776 L 18.4582 33.2043 L 4.4061 33.2043 L 6.7805 27.8827 L 5.9543 27.4213 L 13.7327 17.3713 Z " fill="#dd530b" stroke-width="1" stroke="none"/><path d="M 4.4061 33.2044 L 4.3986 33.2044 " fill="none" stroke-width="1" stroke="none"/><path d="M 24.0922 33.1857 L 24.0922 40.1591 L 17.2259 33.2928 L 17.3329 33.1857 Z " fill="#8763ac" stroke-width="1" stroke="none"/><path d="M 24.0922 26.4355 L 24.0922 33.1857 L 17.3329 33.1857 Z " fill="#efd2f4" stroke-width="1" stroke="none"/><path d="M 5.2598 33.2043 L 4.3987 33.2043 L 0.0073 33.2043 L 0 33.197 L 5.3289 27.0717 L 5.9392 27.414 L 5.9543 27.4213 L 6.7766 27.8793 Z " fill="#efd2f4" stroke-width="1" stroke="none"/><path d="M 6.4304 35.3702 L 6.0139 36.003 L 5.5443 36.7044 L 0.0073 33.2043 L 5.2598 33.2043 Z " fill="#8763ac" stroke-width="1" stroke="none"/><path d="M 29.8156 33.2936 L 29.7262 33.2043 L 43.7783 33.2043 L 41.7389 35.3775 L 42.1558 36.0103 L 31.6124 45.835 L 24.0922 47.316 L 24.0922 39.017 Z " fill="#861833" stroke-width="1" stroke="none"/><path d="M 43.7783 33.2043 L 29.7262 33.2043 L 24.0922 27.5776 L 24.0922 18.4232 L 34.63 17.3713 L 42.2301 27.4213 L 41.486 27.8305 L 41.486 27.8383 Z " fill="#a11b1e" stroke-width="1" stroke="none"/><path d="M 43.7856 33.2044 L 43.7782 33.2044 " fill="none" stroke-width="1" stroke="none"/><path d="M 30.8511 33.1857 L 30.9585 33.2928 L 24.0922 40.1591 L 24.0922 33.1857 Z " fill="#432689" stroke-width="1" stroke="none"/><path d="M 30.8511 33.1857 L 24.0922 33.1857 L 24.0922 26.4355 Z " fill="#9a82db" stroke-width="1" stroke="none"/><path d="M 41.489 27.834 L 42.2301 27.4213 L 42.2452 27.414 L 42.8551 27.0717 L 48.1844 33.197 L 48.1766 33.2043 L 43.7857 33.2043 L 42.7968 33.2043 Z " fill="#f7e0f4" stroke-width="1" stroke="none"/><path d="M 42.7968 33.2043 L 48.1766 33.2043 L 42.6397 36.7044 L 42.1705 36.003 L 41.7536 35.3702 Z " fill="#6a5aab" stroke-width="1" stroke="none"/><path d="M 17.6344 42.953 L 19.4404 41.9103 L 20.4831 43.7163 L 18.6771 44.759 Z " fill="#160b30" stroke-width="1" stroke="none"/><path d="M 10.6225 40.038 L 10.6225 37.9527 L 12.7078 37.9527 L 12.7078 40.038 Z " fill="#160b30" stroke-width="1" stroke="none"/><path d="M 5.9065 42.398 L 4.8638 44.204 L 3.0578 43.1613 L 4.1005 41.3553 Z " fill="#160b30" stroke-width="1" stroke="none"/><path d="M 9.1178 40.3364 L 7.2593 41.2823 L 6.3134 39.4237 L 8.1719 38.4779 Z " fill="#160b30" stroke-width="1" stroke="none"/><path d="M 16.5246 41.6414 L 14.7186 40.5987 L 15.7613 38.7928 L 17.5672 39.8354 Z " fill="#160b30" stroke-width="1" stroke="none"/><path d="M 1.9966 47.9368 L 1.9966 45.8515 L 4.082 45.8515 L 4.082 47.9368 Z " fill="#160b30" stroke-width="1" stroke="none"/><path d="M 2.6798 50.5302 L 4.5383 49.5843 L 5.4842 51.4429 L 3.6256 52.3887 Z " fill="#160b30" stroke-width="1" stroke="none"/><path d="M 10.3065 54.3039 L 10.3065 52.2185 L 12.3919 52.2185 L 12.3919 54.3039 Z " fill="#160b30" stroke-width="1" stroke="none"/><path d="M 15.3286 56.0498 L 14.2045 54.2934 L 15.9609 53.1692 L 17.0851 54.9256 Z " fill="#160b30" stroke-width="1" stroke="none"/><path d="M 5.8269 54.7958 L 6.8696 52.9898 L 8.6756 54.0325 L 7.6329 55.8384 Z " fill="#160b30" stroke-width="1" stroke="none"/><path d="M 18.9931 53.3716 L 17.227 52.2627 L 18.336 50.4966 L 20.102 51.6056 Z " fill="#160b30" stroke-width="1" stroke="none"/><path d="M 18.8376 48.864 L 18.8376 46.7786 L 20.9229 46.7786 L 20.9229 48.864 Z " fill="#160b30" stroke-width="1" stroke="none"/><path d="M 3.3447 47.3158 C 3.3447 42.7205 7.0699 38.9954 11.6652 38.9954 C 16.2604 38.9954 19.9856 42.7205 19.9856 47.3158 C 19.9856 51.911 16.2604 55.6362 11.6652 55.6362 C 7.0699 55.6362 3.3447 51.911 3.3447 47.3158 Z " fill="#160534" stroke-width="1" stroke="none"/><path d="M 7.368 47.3158 C 7.368 44.9425 9.2919 43.0186 11.6652 43.0186 C 14.0384 43.0186 15.9623 44.9425 15.9623 47.3158 C 15.9623 49.689 14.0384 51.6129 11.6652 51.6129 C 9.2919 51.6129 7.368 49.689 7.368 47.3158 Z " fill="url(#color-1-,0,0,1,-215.64238,-147.2632)" stroke-width="1" stroke="none"/><path d="M 42.1199 42.953 L 43.9259 41.9103 L 44.9686 43.7163 L 43.1626 44.7589 Z " fill="#160b30" stroke-width="1" stroke="none"/><path d="M 35.108 40.038 L 35.108 37.9527 L 37.1934 37.9527 L 37.1934 40.038 Z " fill="#160b30" stroke-width="1" stroke="none"/><path d="M 30.392 42.398 L 29.3493 44.204 L 27.5433 43.1613 L 28.586 41.3553 Z " fill="#160b30" stroke-width="1" stroke="none"/><path d="M 33.6033 40.3364 L 31.7448 41.2823 L 30.7989 39.4237 L 32.6574 38.4779 Z " fill="#160b30" stroke-width="1" stroke="none"/><path d="M 41.0101 41.6414 L 39.2041 40.5987 L 40.2468 38.7928 L 42.0528 39.8355 Z " fill="#160b30" stroke-width="1" stroke="none"/><path d="M 26.4821 47.9368 L 26.4821 45.8515 L 28.5675 45.8515 L 28.5675 47.9368 Z " fill="#160b30" stroke-width="1" stroke="none"/><path d="M 27.1653 50.5302 L 29.0238 49.5843 L 29.9697 51.4429 L 28.1112 52.3887 Z " fill="#160b30" stroke-width="1" stroke="none"/><path d="M 34.792 54.3039 L 34.792 52.2185 L 36.8774 52.2185 L 36.8774 54.3039 Z " fill="#160b30" stroke-width="1" stroke="none"/><path d="M 39.8142 56.0498 L 38.69 54.2934 L 40.4464 53.1692 L 41.5706 54.9256 Z " fill="#160b30" stroke-width="1" stroke="none"/><path d="M 30.3124 54.7958 L 31.3551 52.9898 L 33.1611 54.0325 L 32.1184 55.8384 Z " fill="#160b30" stroke-width="1" stroke="none"/><path d="M 43.4787 53.3719 L 41.7126 52.263 L 42.8216 50.4969 L 44.5876 51.6058 Z " fill="#160b30" stroke-width="1" stroke="none"/><path d="M 43.3231 48.864 L 43.3231 46.7786 L 45.4085 46.7786 L 45.4085 48.864 Z " fill="#160b30" stroke-width="1" stroke="none"/><path d="M 27.8303 47.3158 C 27.8303 42.7205 31.5554 38.9954 36.1507 38.9954 C 40.7459 38.9954 44.4711 42.7205 44.4711 47.3158 C 44.4711 51.911 40.7459 55.6362 36.1507 55.6362 C 31.5554 55.6362 27.8302 51.911 27.8302 47.3158 Z " fill="#160534" stroke-width="1" stroke="none"/><path d="M 31.8535 47.3158 C 31.8535 44.9425 33.7774 43.0186 36.1507 43.0186 C 38.5239 43.0186 40.4478 44.9425 40.4478 47.3158 C 40.4478 49.689 38.5239 51.6129 36.1507 51.6129 C 33.7774 51.6129 31.8535 49.689 31.8535 47.3158 Z " fill="url(#color-2-,0,0,1,-215.64238,-147.2632)" stroke-width="1" stroke="none"/><path d="M 34.63 17.3713 L 24.0922 18.4232 L 13.7327 17.3713 Z " fill="#dfaeaa" stroke-width="1" stroke="none"/><path d="M 21.8158 17.7585 L 17.0972 17.4654 L 17.0972 11.9328 L 21.8158 12.2254 Z " fill="#d2d0e7" stroke-width="1" stroke="none"/><path d="M 21.65 17.7586 L 21.65 12.2256 L 26.3685 12.2256 L 26.3685 17.7586 Z " fill="#a69ec1" stroke-width="1" stroke="none"/><path d="M 31.0872 17.4654 L 26.3686 17.7585 L 26.3686 12.2254 L 31.0872 11.9328 Z " fill="#7f6d9d" stroke-width="1" stroke="none"/><path d="M 18.6504 16.4251 L 18.6504 13.5591 L 20.2625 13.5591 L 20.2625 16.4251 Z " fill="#2a183f" stroke-width="1" stroke="none"/><path d="M 23.1971 16.4251 L 23.1971 13.5591 L 24.8092 13.5591 L 24.8092 16.4251 Z " fill="#2a183f" stroke-width="1" stroke="none"/><path d="M 27.9217 16.4251 L 27.9217 13.5591 L 29.5338 13.5591 L 29.5338 16.4251 Z " fill="#2a183f" stroke-width="1" stroke="none"/><path d="M 22.3683 11.8145 L 18.967 11.603 L 18.967 1.6609 L 22.3683 1.872 Z " fill="#d2d0e7" stroke-width="1" stroke="none"/><path d="M 22.249 11.8144 L 22.249 1.872 L 25.6501 1.872 L 25.6501 11.8144 Z " fill="#a69ec1" stroke-width="1" stroke="none"/><path d="M 29.0512 11.603 L 25.6499 11.8145 L 25.6499 1.872 L 29.0512 1.6609 Z " fill="#7f6d9d" stroke-width="1" stroke="none"/><path d="M 20.0868 4.899 L 20.0868 2.8332 L 21.2488 2.8332 L 21.2488 4.899 Z " fill="#2a183f" stroke-width="1" stroke="none"/><path d="M 23.3642 4.899 L 23.3642 2.8332 L 24.5262 2.8332 L 24.5262 4.899 Z " fill="#2a183f" stroke-width="1" stroke="none"/><path d="M 26.7697 4.899 L 26.7697 2.8332 L 27.9318 2.8332 L 27.9318 4.899 Z " fill="#2a183f" stroke-width="1" stroke="none"/><path d="M 31.0872 12.0359 L 26.4515 12.2254 L 21.7329 12.2254 L 17.0972 12.0359 L 17.0972 11.2776 L 21.7329 11.4675 L 26.4515 11.4675 L 31.0872 11.2776 Z " fill="#e1dae9" stroke-width="1" stroke="none"/><path d="M 29.2074 1.72 L 25.7626 1.872 L 22.256 1.872 L 18.8112 1.72 L 18.8112 1.1136 L 22.256 1.2655 L 25.7626 1.2655 L 29.2074 1.1136 Z " fill="#bfb3c8" stroke-width="1" stroke="none"/></g></g></svg>