<svg xmlns="http://www.w3.org/2000/svg" xmlns:xlink="http://www.w3.org/1999/xlink" version="1.1" width="37.28026" height="36.8861" viewBox="0,0,37.28026,36.8861"><defs><radialGradient cx="240.40455" cy="180" r="8.4643" gradientUnits="userSpaceOnUse" id="color-1"><stop offset="0" stop-color="#e3520a"/><stop offset="1" stop-color="#cb5923"/></radialGradient><radialGradient cx="19.0447" cy="18.443" r="8.4643" gradientUnits="userSpaceOnUse" id="color-1-,0,0,1,-221.35987,-161.55695"><stop offset="0" stop-color="#e3520a"/><stop offset="1" stop-color="#cb5923"/></radialGradient></defs><g><g data-paper-data="{&quot;isPaintingLayer&quot;:true}" fill-rule="nonzero" stroke-linecap="butt" stroke-linejoin="miter" stroke-miterlimit="10" stroke-dasharray="" stroke-dashoffset="0" style="mix-blend-mode: normal"><path d="M 30.8026 9.8494 L 34.36 7.7955 L 36.4139 11.3529 L 32.8565 13.4067 Z " fill="#160b30" stroke-width="1" stroke="none"/><path d="M 16.9908 4.1077 L 16.9908 0 L 21.0985 0 L 21.0985 4.1077 Z " fill="#160b30" stroke-width="1" stroke="none"/><path d="M 7.7015 8.7562 L 5.6477 12.3136 L 2.0903 10.2597 L 4.1441 6.7024 Z " fill="#160b30" stroke-width="1" stroke="none"/><path d="M 14.027 4.6954 L 10.3661 6.5585 L 8.503 2.8976 L 12.1639 1.0345 Z " fill="#160b30" stroke-width="1" stroke="none"/><path d="M 28.6165 7.266 L 25.0592 5.2121 L 27.113 1.6548 L 30.6704 3.7086 Z " fill="#160b30" stroke-width="1" stroke="none"/><path d="M 0 19.6664 L 0 15.5587 L 4.1077 15.5587 L 4.1077 19.6664 Z " fill="#160b30" stroke-width="1" stroke="none"/><path d="M 1.3457 24.7746 L 5.0066 22.9115 L 6.8697 26.5724 L 3.2088 28.4355 Z " fill="#160b30" stroke-width="1" stroke="none"/><path d="M 16.3685 36.8861 L 16.3685 32.7784 L 20.4761 32.7784 L 20.4761 36.8861 Z " fill="#160b30" stroke-width="1" stroke="none"/><path d="M 26.2609 35.6469 L 24.0465 32.1872 L 27.5062 29.9728 L 29.7206 33.4325 Z " fill="#160b30" stroke-width="1" stroke="none"/><path d="M 7.5448 33.1768 L 9.5986 29.6194 L 13.156 31.6733 L 11.1021 35.2306 Z " fill="#160b30" stroke-width="1" stroke="none"/><path d="M 33.479 30.3716 L 30.0002 28.1873 L 32.1845 24.7085 L 35.6633 26.8929 Z " fill="#160b30" stroke-width="1" stroke="none"/><path d="M 33.1726 21.4927 L 33.1726 17.385 L 37.2803 17.385 L 37.2803 21.4927 Z " fill="#160b30" stroke-width="1" stroke="none"/><path d="M 2.6555 18.443 C 2.6555 9.3915 9.9932 2.0539 19.0447 2.0539 C 28.0962 2.0539 35.4339 9.3916 35.4339 18.443 C 35.4339 27.4946 28.0962 34.8322 19.0447 34.8322 C 9.9932 34.8322 2.6555 27.4945 2.6555 18.443 Z " fill="#160534" stroke-width="1" stroke="none"/><path d="M 10.5804 18.443 C 10.5804 13.7684 14.37 9.9787 19.0447 9.9787 C 23.7194 9.9787 27.509 13.7683 27.509 18.443 C 27.509 23.1177 23.7194 26.9074 19.0447 26.9074 C 14.37 26.9074 10.5804 23.1178 10.5804 18.443 Z " fill="url(#color-1-,0,0,1,-221.35987,-161.55695)" stroke-width="1" stroke="none"/></g></g></svg>