<svg xmlns="http://www.w3.org/2000/svg" xmlns:xlink="http://www.w3.org/1999/xlink" version="1.1" width="147.98238" height="30.00617" viewBox="0,0,147.98238,30.00617"><g><g data-paper-data="{&quot;isPaintingLayer&quot;:true}" fill-rule="nonzero" stroke-linecap="butt" stroke-linejoin="miter" stroke-miterlimit="10" stroke-dasharray="" stroke-dashoffset="0" style="mix-blend-mode: normal"><g><path d="M 26.875 16.5023 L 26.875 24.3031 C 27.0352 26.0625 25.9998 27.712 24.3457 28.3324 C 21.5288 29.4749 18.5121 30.0433 15.4727 30.0043 C 6.7305 30.0043 0 23.9604 0 14.9164 C 0 6.0873 6.9434 0.0004 16.0742 0.0004 C 18.4239 -0.0142 20.7585 0.3776 22.9746 1.1586 C 24.7754 1.8871 25.6738 2.9154 25.6738 4.5014 C 25.719 5.9591 24.6017 7.1909 23.1465 7.2875 C 22.2383 7.2321 21.3498 6.9992 20.5312 6.602 C 19.0977 6.1031 17.5921 5.8425 16.0742 5.8305 C 10.2871 5.8305 6.8574 9.7309 6.8574 14.9164 C 6.8574 20.7035 10.8008 24.1752 15.6875 24.1752 C 17.7294 24.2269 19.7552 23.8012 21.6035 22.932 L 21.6035 18.9457 L 17.916 18.9457 C 17.1727 18.9731 16.4504 18.6957 15.9164 18.1778 C 15.3825 17.6599 15.0832 16.9464 15.0879 16.2025 C 15.0814 15.4543 15.3787 14.7355 15.9117 14.2103 C 16.4448 13.6852 17.168 13.3987 17.916 13.4164 L 23.918 13.4164 C 24.7265 13.4112 25.5015 13.739 26.0608 14.3228 C 26.6202 14.9066 26.9146 15.6948 26.875 16.5023 Z " stroke-width="1" fill="#dd2c2c" stroke="none"/><path d="M 54.0879 26.5756 C 54.0986 27.4239 53.7693 28.2413 53.1733 28.8451 C 52.5773 29.449 51.7644 29.7891 50.916 29.7894 C 49.7861 29.7766 48.7323 29.2177 48.0879 28.2894 L 40.8007 19.2455 L 38.3574 19.2455 L 38.3574 26.4896 C 38.3617 27.3738 38.0094 28.2224 37.3801 28.8434 C 36.7508 29.4645 35.8976 29.8055 35.0136 29.7894 C 34.1407 29.7945 33.3027 29.4471 32.6895 28.826 C 32.0762 28.2048 31.7396 27.3624 31.7558 26.4896 L 31.7558 3.601 C 31.788 1.846 33.2154 0.4376 34.9707 0.4291 L 42 0.4291 C 49.1152 0.4291 52.6308 4.8012 52.6308 9.6879 C 52.6773 13.1783 50.7076 16.3828 47.5722 17.9174 L 53.1015 24.1752 C 53.7301 24.8165 54.084 25.6776 54.0879 26.5756 Z M 38.3574 13.7592 L 41.4433 13.7592 C 44.1015 13.7592 45.8144 12.517 45.8144 10.0736 C 45.8144 7.5443 44.1015 6.2592 41.4433 6.2592 L 38.3574 6.2592 Z " stroke-width="1" fill="#dd2c2c" stroke="none"/><path d="M 77.4882 26.6185 C 77.5008 27.4069 77.193 28.1667 76.6353 28.724 C 76.0776 29.2814 75.3176 29.5887 74.5292 29.5755 L 61.5859 29.5755 C 60.7283 29.5798 59.9059 29.2352 59.3076 28.6207 C 58.7094 28.0062 58.3868 27.1749 58.414 26.3177 L 58.414 3.7299 C 58.3855 2.8683 58.7062 2.0318 59.3035 1.4102 C 59.9008 0.7887 60.7239 0.4349 61.5859 0.4291 L 74.0585 0.4291 C 74.8469 0.4161 75.6067 0.7237 76.1641 1.2813 C 76.7215 1.8388 77.0288 2.5988 77.0155 3.3871 C 77.0253 4.1667 76.714 4.9159 76.1547 5.4591 C 75.5955 6.0023 74.8375 6.2916 74.0585 6.2592 L 65.0136 6.2592 L 65.0136 12.1732 L 72.7734 12.1732 C 73.7734 12.1427 74.7107 12.6588 75.2197 13.5201 C 75.7287 14.3814 75.7287 15.4514 75.2197 16.3127 C 74.7107 17.174 73.7734 17.6901 72.7734 17.6596 L 65.0136 17.6596 L 65.0136 23.7465 L 74.5293 23.7465 C 75.3084 23.714 76.0667 24.0032 76.6262 24.5463 C 77.1858 25.0895 77.4975 25.8388 77.4882 26.6186 Z " stroke-width="1" fill="#dd2c2c" stroke="none"/><path d="M 106.6289 26.7035 C 106.6408 28.2032 105.5651 29.4911 104.0872 29.7464 C 102.6093 30.0018 101.1639 29.1496 100.6719 27.7328 L 99.2149 24.0033 L 86.914 24.0033 L 85.455 27.7758 C 85.0065 28.9761 83.8653 29.7765 82.5839 29.7894 C 81.7711 29.8088 80.9858 29.4944 80.4109 28.9195 C 79.836 28.3446 79.5216 27.5593 79.5409 26.7464 C 79.5549 26.1554 79.6857 25.5729 79.9257 25.0326 L 88.7987 3.43 C 89.4272 1.521 91.2049 0.2268 93.2147 0.2152 C 95.2002 0.24 96.9456 1.5364 97.5429 3.43 L 106.244 25.0746 C 106.4706 25.5895 106.6011 26.1416 106.6289 26.7035 Z M 97.0722 18.6029 L 93.1289 8.5307 L 92.957 8.5307 L 89.0136 18.6029 Z " stroke-width="1" fill="#dd2c2c" stroke="none"/><path d="M 130.1582 3.3441 C 130.1837 4.11 129.8966 4.8534 129.3628 5.4032 C 128.8289 5.9531 128.0944 6.262 127.3281 6.2591 L 120.9003 6.2591 L 120.9003 26.4896 C 120.9003 28.3126 119.4225 29.7904 117.5995 29.7904 C 115.7766 29.7904 114.2988 28.3126 114.2988 26.4896 L 114.2988 6.2592 L 107.912 6.2592 C 106.3195 6.2349 105.0412 4.9369 105.0412 3.3441 C 105.0412 1.7514 106.3195 0.4534 107.912 0.4291 L 127.328 0.4291 C 128.0944 0.4262 128.8289 0.7352 129.3628 1.285 C 129.8966 1.8348 130.1837 2.5782 130.1582 3.3441 Z " stroke-width="1" fill="#dd2c2c" stroke="none"/><path d="M 140.9531 26.4037 C 140.9531 24.4627 142.5264 22.8892 144.4674 22.8891 C 146.4084 22.8889 147.982 24.4621 147.9824 26.4031 C 147.9827 28.344 146.4097 29.9178 144.4687 29.9184 C 142.5413 29.8853 140.9866 28.3311 140.9531 26.4037 Z M 142.7968 18.3891 C 141.7503 14.1069 141.1752 9.7231 141.082 5.3158 C 141.082 1.5863 142.539 0.1293 144.4687 0.1293 C 146.3964 0.1293 147.8125 1.6293 147.8125 5.3158 C 147.7379 9.7218 147.1772 14.1061 146.1406 18.3891 C 145.8828 19.4603 145.4121 20.1889 144.5117 20.1889 C 143.5683 20.1889 143.0547 19.4604 142.7968 18.3891 Z " stroke-width="1" fill="#dd2c2c" stroke="none"/></g></g></g></svg>