<svg xmlns="http://www.w3.org/2000/svg" xmlns:xlink="http://www.w3.org/1999/xlink" viewBox="0 0 24.95925 24.95925" width="24.95924949645996" height="24.95924949645996"><defs><linearGradient id="Dégradé_sans_nom_71" x1="41.76798" y1="0.60339" x2="66.72723" y2="0.60339" gradientTransform="translate(13.08302 -41.76798) rotate(90)" gradientUnits="userSpaceOnUse"><stop offset="0" stop-color="#fff" stop-opacity="0"/><stop offset="0.53538" stop-color="#010101" stop-opacity="0.86891"/><stop offset="0.7216"/><stop offset="1" stop-color="#fff" stop-opacity="0"/></linearGradient><radialGradient id="Dégradé_sans_nom_175" cx="12.47963" cy="12.47963" r="5.59732" gradientUnits="userSpaceOnUse"><stop offset="0" stop-color="#1aff00"/><stop offset="0.23714" stop-color="#19fb00"/><stop offset="0.47493" stop-color="#18ef00"/><stop offset="0.71311" stop-color="#15db00"/><stop offset="0.9503" stop-color="#12bf00"/><stop offset="1" stop-color="#11b800"/></radialGradient><linearGradient id="Dégradé_sans_nom_40" x1="162.15859" y1="60.0187" x2="183.52894" y2="60.0187" gradientTransform="translate(72.49833 -160.36414) rotate(90)" gradientUnits="userSpaceOnUse"><stop offset="0" stop-color="#fff"/><stop offset="0.07212" stop-color="#fff" stop-opacity="0.87385"/><stop offset="0.21577" stop-color="#fff" stop-opacity="0.64539"/><stop offset="0.35942" stop-color="#fff" stop-opacity="0.44824"/><stop offset="0.49981" stop-color="#fff" stop-opacity="0.28704"/><stop offset="0.63614" stop-color="#fff" stop-opacity="0.16179"/><stop offset="0.76729" stop-color="#fff" stop-opacity="0.07232"/><stop offset="0.89113" stop-color="#fff" stop-opacity="0.0184"/><stop offset="1" stop-color="#fff" stop-opacity="0"/></linearGradient></defs><g id="Calque_2" data-name="Calque 2"><g id="Calque_3" data-name="Calque 3"><circle cx="12.47963" cy="12.47963" r="12.47963" fill="#18a809" stroke-width="1"/><circle cx="12.47963" cy="12.47963" r="12.47963" fill="url(#Dégradé_sans_nom_71)" stroke-width="1"/><circle cx="12.47963" cy="12.47963" r="10.68518" fill="#1f3d27" stroke-width="1"/><g id="Calque_2-2" data-name="Calque 2"><g id="Calque_1-2" data-name="Calque 1-2"><path d="M13.62668,17.54138v.71508a1.04738,1.04738,0,0,1-2.0945,0V17.608a6.11665,6.11665,0,0,1-2.32744-.69842,1.33272,1.33272,0,0,1-.76468-1.14686,1.09623,1.09623,0,0,1,1.09523-1.09724h.002a1.91832,1.91832,0,0,1,.831.2496,5.04107,5.04107,0,0,0,2.12782.53176c.69842,0,1.36312-.26588,1.36312-.831,0-1.62938-5.12-.981-5.12-4.339,0-1.72861,1.34646-2.64293,2.7929-2.95881V6.703a1.04738,1.04738,0,0,1,2.0945,0v.51511a5.18437,5.18437,0,0,1,1.42979.33254c.73137.29921,1.19685.64842,1.19685,1.28018a1.07848,1.07848,0,0,1-1.07638,1.08057h-.00419a2.30866,2.30866,0,0,1-.748-.1496,6.46681,6.46681,0,0,0-1.82861-.34921c-.748,0-1.34646.31588-1.34646.7647,0,1.56235,5.26956,1.09724,5.26956,4.30526A3.22364,3.22364,0,0,1,13.62668,17.54138Z" fill="url(#Dégradé_sans_nom_175)" stroke-width="1"/></g></g><circle cx="12.47963" cy="12.47963" r="10.68518" opacity="0.5" fill="url(#Dégradé_sans_nom_40)" stroke-width="1"/><path d="M20.26727,19.77111A10.68546,10.68546,0,0,0,4.703,5.1755,10.68451,10.68451,0,1,1,20.26727,19.77111Z" opacity="0.25" stroke-width="1"/><path d="M20.26727,19.77111A10.68526,10.68526,0,1,1,4.69831,5.18023a10.6846,10.6846,0,0,0,15.569,14.59088Z" fill="#fff" opacity="0.25" stroke-width="1"/></g></g></svg>