<svg xmlns="http://www.w3.org/2000/svg" xmlns:xlink="http://www.w3.org/1999/xlink" version="1.1" width="43.83737" height="47.64446" viewBox="0,0,43.83737,47.64446"><defs><linearGradient x1="230.44912" y1="202.73907" x2="224.36723" y2="187.06224" gradientUnits="userSpaceOnUse" id="color-1"><stop offset="0" stop-color="#4d2f09"/><stop offset="1" stop-color="#302211"/></linearGradient><linearGradient x1="255.26403" y1="202.73907" x2="249.18214" y2="187.06224" gradientUnits="userSpaceOnUse" id="color-2"><stop offset="0" stop-color="#4d2f09"/><stop offset="1" stop-color="#302211"/></linearGradient><linearGradient x1="12.5678" y1="45.9363" x2="6.4859" y2="30.2595" gradientUnits="userSpaceOnUse" id="color-1-,0,0,1,-217.88132,-156.80277"><stop offset="0" stop-color="#4d2f09"/><stop offset="1" stop-color="#302211"/></linearGradient><linearGradient x1="37.3827" y1="45.9363" x2="31.3008" y2="30.2595" gradientUnits="userSpaceOnUse" id="color-2-,0,0,1,-217.88132,-156.80277"><stop offset="0" stop-color="#4d2f09"/><stop offset="1" stop-color="#302211"/></linearGradient></defs><g><g data-paper-data="{&quot;isPaintingLayer&quot;:true}" fill-rule="nonzero" stroke-linecap="butt" stroke-linejoin="miter" stroke-miterlimit="10" stroke-dasharray="" stroke-dashoffset="0" style="mix-blend-mode: normal"><path d="M 21.6202 19.5282 L 21.6202 28.8321 L 20.194 28.8321 L 20.194 25.8136 L 17.5252 25.8136 L 17.5252 28.8321 L 15.004 28.8321 L 15.004 25.8136 L 12.3352 25.8136 L 12.3352 28.8321 L 10.6788 28.8321 L 12.1327 19.5492 L 17.5252 11.0961 Z " fill="#a0a307" stroke-width="1" stroke="none"/><path d="M 21.6202 19.5282 L 25.9113 10.8643 L 31.1535 19.5492 L 32.6074 28.8321 L 31.0706 28.8321 L 31.0706 25.8136 L 28.4022 25.8136 L 28.4022 28.8321 L 25.8806 28.8321 L 25.8806 25.8136 L 23.2122 25.8136 L 23.2122 28.8321 L 21.6202 28.8321 L 21.6202 19.5282 L 21.6294 19.5492 " fill="#6b7a1c" stroke-width="1" stroke="none"/><path d="M 20.1919 28.8296 L 21.6277 28.8296 L 21.6277 36.1831 L 9.527 36.1831 L 10.6771 28.8296 L 12.3335 28.8296 L 12.3335 25.811 L 15.0019 25.811 L 15.0019 28.8296 L 17.5235 28.8296 L 17.5235 25.811 L 20.1919 25.811 Z " fill="#5f4f28" stroke-width="1" stroke="none"/><path d="M 33.7559 36.1831 L 21.6551 36.1831 L 21.6551 28.8296 L 23.2105 28.8296 L 23.2105 25.811 L 25.8789 25.811 L 25.8789 28.8296 L 28.4 28.8296 L 28.4 25.811 L 31.0689 25.811 L 31.0689 28.8296 L 32.6053 28.8296 Z " fill="#5f4f28" stroke-width="1" stroke="none"/><path d="M 21.6278 28.8296 L 21.6551 39.8737 L 9.0485 39.2946 L 10.6771 28.8296 Z " fill="#294a7c" stroke-width="1" stroke="none"/><path d="M 12.3336 28.8294 L 12.3336 25.8112 L 15.0021 25.8112 L 15.0021 28.8294 Z " fill="#294a7c" stroke-width="1" stroke="none"/><path d="M 17.5235 28.8294 L 17.5235 25.8112 L 20.192 25.8112 L 20.192 28.8294 Z " fill="#294a7c" stroke-width="1" stroke="none"/><path d="M 34.3105 39.2946 L 21.6551 39.8737 L 21.6277 28.8296 L 32.6053 28.8296 Z " fill="#352b6d" stroke-width="1" stroke="none"/><path d="M 23.2103 28.8294 L 23.2103 25.8112 L 25.8789 25.8112 L 25.8789 28.8294 Z " fill="#352b6d" stroke-width="1" stroke="none"/><path d="M 28.4002 28.8294 L 28.4002 25.8112 L 31.0688 25.8112 L 31.0688 28.8294 Z " fill="#352b6d" stroke-width="1" stroke="none"/><path d="M 21.6412 4.0272 L 21.6139 19.5227 L 17.5096 11.0696 L 12.1172 19.5227 L 14.5373 4.0272 Z " fill="#cf1201" stroke-width="1" stroke="none"/><path d="M 31.1379 19.5467 L 25.7821 11.0936 L 21.6202 19.5282 L 21.6412 4.0507 L 28.7544 4.0507 L 30.9721 18.4471 Z " fill="#9e120b" stroke-width="1" stroke="none"/><path d="M 13.7157 4.0509 L 13.7157 1.3503 L 21.6414 1.3503 L 21.6414 4.0509 Z " fill="#b3c4b3" stroke-width="1" stroke="none"/><path d="M 21.6202 4.0509 L 21.6202 1.3503 L 29.5459 1.3503 L 29.5459 4.0509 Z " fill="#81898b" stroke-width="1" stroke="none"/><path d="M 13.7157 1.3503 L 13.7157 0 L 21.6414 0 L 21.6414 1.3503 Z " fill="#dae2e9" stroke-width="1" stroke="none"/><path d="M 21.6202 1.3503 L 21.6202 0 L 29.5459 0 L 29.5459 1.3503 Z " fill="#c9cfd3" stroke-width="1" stroke="none"/><path d="M 9.5072 37.5047 L 16.6262 37.5047 L 16.6262 38.6911 L 9.5072 38.6911 Z " fill="#5f4f28" stroke-width="1" stroke="none"/><path d="M 9.1898 37.596 L 14.2237 32.5622 L 15.0626 33.4011 L 10.0288 38.4349 Z " fill="#5f4f28" stroke-width="1" stroke="none"/><path d="M 8.914 38.0979 L 8.914 30.979 L 10.1005 30.979 L 10.1005 38.0979 Z " fill="#5f4f28" stroke-width="1" stroke="none"/><path d="M 8.9549 38.3845 L 3.921 33.3507 L 4.76 32.5117 L 9.7938 37.5455 Z " fill="#5f4f28" stroke-width="1" stroke="none"/><path d="M 9.5072 38.6911 L 2.3883 38.6911 L 2.3883 37.5047 L 9.5072 37.5047 Z " fill="#5f4f28" stroke-width="1" stroke="none"/><path d="M 10.1005 38.0979 L 10.1005 45.2168 L 8.914 45.2168 L 8.914 38.0979 Z " fill="#5f4f28" stroke-width="1" stroke="none"/><path d="M 9.753 37.5047 L 14.7868 42.5385 L 13.9478 43.3775 L 8.914 38.3436 Z " fill="#5f4f28" stroke-width="1" stroke="none"/><path d="M 9.957 38.5068 L 4.9232 43.5406 L 4.0842 42.7016 L 9.118 37.6678 Z " fill="#5f4f28" stroke-width="1" stroke="none"/><path d="M 9.5269 47.6072 C 4.2653 47.6071 0 43.3418 0 38.0802 C 0 32.8186 4.2654 28.5533 9.5269 28.5533 C 14.7885 28.5532 19.0538 32.8186 19.0539 38.0801 C 19.048 43.3393 14.7861 47.6013 9.5269 47.6072 Z M 9.5269 30.3893 C 6.4161 30.3893 3.6118 32.2632 2.4214 35.1371 C 1.231 38.011 1.889 41.3191 4.0887 43.5186 C 6.2883 45.7182 9.5963 46.3762 12.4702 45.1857 C 15.3441 43.9953 17.2179 41.1908 17.2179 38.0801 C 17.2131 33.8345 13.7725 30.394 9.5269 30.3893 Z " fill="#160d04" stroke-width="1" stroke="none"/><path d="M 9.5269 45.8409 C 5.2613 45.8408 1.8035 42.3829 1.8036 38.1174 C 1.8036 33.8519 5.2615 30.3941 9.527 30.3941 C 13.7925 30.3942 17.2504 33.8521 17.2503 38.1176 C 17.2455 42.3811 13.7904 45.8361 9.5269 45.8409 Z M 9.5269 32.2301 C 6.2754 32.2302 3.6396 34.8661 3.6396 38.1175 C 3.6396 41.369 6.2754 44.0049 9.5269 44.0049 C 12.7784 44.0049 15.4143 41.3691 15.4143 38.1176 C 15.4107 34.8676 12.7769 32.2338 9.5269 32.2302 Z " fill="#160d04" stroke-width="1" stroke="none"/><path d="M 7.257 38.0979 C 7.257 36.8551 8.2645 35.8477 9.5072 35.8477 C 10.75 35.8477 11.7575 36.8551 11.7575 38.0979 C 11.7575 39.3407 10.75 40.3481 9.5072 40.3481 C 8.2645 40.3481 7.257 39.3407 7.257 38.0979 Z " fill="#4e280b" stroke-width="1" stroke="none"/><path d="M 9.5269 46.5052 C 4.8836 46.5052 1.1196 42.7411 1.1196 38.0979 C 1.1196 33.4546 4.8837 29.6906 9.5269 29.6906 C 14.1701 29.6906 17.9342 33.4546 17.9342 38.0979 C 17.9289 42.7389 14.1679 46.4999 9.5269 46.5052 Z M 9.5269 31.5266 C 6.869 31.5266 4.4729 33.1276 3.4558 35.5831 C 2.4386 38.0387 3.0008 40.8651 4.8802 42.7445 C 6.7596 44.6239 9.586 45.1861 12.0416 44.169 C 14.4971 43.1519 16.0981 40.7557 16.0981 38.0979 C 16.0941 34.4703 13.1544 31.5307 9.5269 31.5266 Z " fill="url(#color-1-,0,0,1,-217.88132,-156.80277)" stroke-width="1" stroke="none"/><path d="M 34.2907 37.5419 L 41.4096 37.5419 L 41.4096 38.7284 L 34.2907 38.7284 Z " fill="#5f4f28" stroke-width="1" stroke="none"/><path d="M 33.9733 37.6333 L 39.0071 32.5994 L 39.8461 33.4384 L 34.8123 38.4722 Z " fill="#5f4f28" stroke-width="1" stroke="none"/><path d="M 33.6975 38.1352 L 33.6975 31.0163 L 34.884 31.0163 L 34.884 38.1352 Z " fill="#5f4f28" stroke-width="1" stroke="none"/><path d="M 33.7383 38.4218 L 28.7045 33.3879 L 29.5435 32.549 L 34.5773 37.5828 Z " fill="#5f4f28" stroke-width="1" stroke="none"/><path d="M 34.2907 38.7284 L 27.1718 38.7284 L 27.1718 37.542 L 34.2907 37.542 Z " fill="#5f4f28" stroke-width="1" stroke="none"/><path d="M 34.884 38.1352 L 34.884 45.2541 L 33.6975 45.2541 L 33.6975 38.1352 Z " fill="#5f4f28" stroke-width="1" stroke="none"/><path d="M 34.5365 37.5419 L 39.5703 42.5758 L 38.7313 43.4147 L 33.6975 38.3809 Z " fill="#5f4f28" stroke-width="1" stroke="none"/><path d="M 34.7404 38.5441 L 29.7066 43.5779 L 28.8676 42.7389 L 33.9015 37.7051 Z " fill="#5f4f28" stroke-width="1" stroke="none"/><path d="M 34.3103 47.6445 C 29.0488 47.6444 24.7835 43.379 24.7835 38.1175 C 24.7835 32.8559 29.0488 28.5906 34.3104 28.5906 C 39.5719 28.5905 43.8373 32.8559 43.8374 38.1174 C 43.8315 43.3766 39.5695 47.6386 34.3103 47.6445 Z M 34.3103 30.4266 C 31.1996 30.4266 28.3952 32.3005 27.2049 35.1744 C 26.0145 38.0483 26.6725 41.3564 28.8721 43.5559 C 31.0718 45.7555 34.3798 46.4135 37.2537 45.223 C 40.1276 44.0326 42.0014 41.2281 42.0013 38.1174 C 41.9966 33.8718 38.556 30.4313 34.3103 30.4266 Z " fill="#160d04" stroke-width="1" stroke="none"/><path d="M 34.3103 45.8782 C 31.1865 45.8782 28.3703 43.9964 27.1749 41.1103 C 25.9795 38.2243 26.6403 34.9023 28.8492 32.6935 C 31.0581 30.4846 34.3801 29.8239 37.2661 31.0194 C 40.1521 32.2148 42.0339 35.0311 42.0338 38.1549 C 42.0289 42.4184 38.5738 45.8734 34.3103 45.8782 Z M 34.3103 32.2674 C 31.0589 32.2675 28.423 34.9033 28.4231 38.1548 C 28.4231 41.4063 31.0589 44.0421 34.3104 44.0422 C 37.5619 44.0422 40.1977 41.4064 40.1978 38.1549 C 40.1941 34.9048 37.5604 32.2711 34.3103 32.2674 Z " fill="#160d04" stroke-width="1" stroke="none"/><path d="M 32.0405 38.1352 C 32.0405 36.8924 33.0479 35.885 34.2907 35.885 C 35.5335 35.885 36.5409 36.8924 36.5409 38.1352 C 36.5409 39.378 35.5335 40.3854 34.2907 40.3854 C 33.0479 40.3854 32.0405 39.378 32.0405 38.1352 Z " fill="#4e280b" stroke-width="1" stroke="none"/><path d="M 34.3418 46.5052 C 29.6985 46.5052 25.9345 42.7411 25.9345 38.0979 C 25.9345 33.4546 29.6986 29.6906 34.3418 29.6906 C 38.985 29.6906 42.7491 33.4547 42.7491 38.0979 C 42.7438 42.7389 38.9828 46.4999 34.3418 46.5052 Z M 34.3418 31.5266 C 31.6839 31.5266 29.2878 33.1276 28.2707 35.5831 C 27.2536 38.0387 27.8158 40.8651 29.6951 42.7445 C 31.5745 44.6239 34.4009 45.1861 36.8565 44.169 C 39.312 43.1519 40.913 40.7557 40.913 38.0979 C 40.909 34.4703 37.9693 31.5307 34.3418 31.5266 Z " fill="url(#color-2-,0,0,1,-217.88132,-156.80277)" stroke-width="1" stroke="none"/></g></g></svg>