<svg xmlns="http://www.w3.org/2000/svg" xmlns:xlink="http://www.w3.org/1999/xlink" version="1.1" width="81.50496" height="81.50496" viewBox="0,0,81.50496,81.50496"><g><g data-paper-data="{&quot;isPaintingLayer&quot;:true}" fill-rule="nonzero" stroke-linejoin="miter" stroke-miterlimit="10" stroke-dasharray="" stroke-dashoffset="0" style="mix-blend-mode: normal"><path d="M202.74752,180c0,-20.57398 16.6785,-37.25248 37.25248,-37.25248c20.57398,0 37.25248,16.6785 37.25248,37.25248c0,20.57398 -16.6785,37.25248 -37.25248,37.25248c-20.57398,0 -37.25248,-16.6785 -37.25248,-37.25248z" fill="#cc1b1b" stroke="none" stroke-width="0" stroke-linecap="butt" transform="matrix(1,0,0,1,-199.24752,-139.24752)"/><path d="M240,142.03447c0,0 20.17314,5.0589 26.62986,11.51562c6.18694,6.18694 11.33568,26.44992 11.33568,26.44992c0,0 -4.91954,19.57612 -10.69444,25.29628c-6.73271,6.6689 -27.2711,12.30939 -27.2711,12.30939v-75.57122z" fill="#d52222" stroke="none" stroke-width="0" stroke-linecap="round" transform="matrix(1,0,0,1,-199.24752,-139.24752)"/><path d="M 3.5 40.7525 C 3.5 20.1785 20.1785 3.5 40.7525 3.5 C 61.3265 3.5 78.005 20.1785 78.005 40.7525 C 78.005 61.3265 61.3265 78.005 40.7525 78.005 C 20.1785 78.005 3.5 61.3265 3.5 40.7525 Z " fill="none" stroke="#8b1616" stroke-width="7" stroke-linecap="butt"/></g></g></svg>