<svg xmlns="http://www.w3.org/2000/svg" xmlns:xlink="http://www.w3.org/1999/xlink" version="1.1" width="111.0129" height="13.75653" viewBox="0,0,111.0129,13.75653"><g><g data-paper-data="{&quot;isPaintingLayer&quot;:true}" fill-rule="nonzero" stroke-linecap="butt" stroke-linejoin="miter" stroke-miterlimit="10" stroke-dasharray="" stroke-dashoffset="0" style="mix-blend-mode: normal"><path d="M 7.9136 12.2685 C 7.9153 12.6155 7.7769 12.9484 7.5298 13.1919 C 7.2827 13.4355 6.9478 13.5689 6.6009 13.5621 L 1.4463 13.5621 C 1.0578 13.5677 0.684 13.4145 0.4111 13.138 C 0.1382 12.8615 -0.0101 12.4856 0.0005 12.0973 L 0.0005 1.9784 C -0.0018 1.5909 0.1525 1.2189 0.4282 0.9468 C 0.704 0.6746 1.0779 0.5252 1.4653 0.5326 C 1.8527 0.5253 2.2266 0.6746 2.5023 0.9468 C 2.778 1.219 2.9321 1.591 2.9297 1.9784 L 2.9297 10.9753 L 6.6009 10.9753 C 6.9486 10.9652 7.2854 11.0975 7.5333 11.3417 C 7.7811 11.5858 7.9185 11.9206 7.9136 12.2685 Z " stroke-width="1" fill="#fe5a01" stroke="none"/><path d="M 17.1753 8.5978 C 17.2011 8.9422 17.092 9.2832 16.8711 9.5486 C 16.5438 9.8387 16.1059 9.9708 15.6728 9.91 L 11.45 9.91 C 11.7165 10.8232 12.4961 11.3367 13.7516 11.3367 C 14.1035 11.3374 14.4544 11.2991 14.7978 11.2223 C 15.0532 11.1575 15.3146 11.1193 15.5779 11.1083 C 15.8695 11.1058 16.1496 11.2219 16.354 11.43 C 16.5584 11.638 16.6695 11.9202 16.6618 12.2117 C 16.6615 12.722 16.3425 13.1778 15.8631 13.3528 C 15.0944 13.6276 14.2828 13.7629 13.4665 13.7524 C 10.7462 13.7524 8.6538 12.0024 8.6538 9.2825 C 8.6538 6.6385 10.5373 4.7745 13.2 4.7745 C 14.2438 4.719 15.2639 5.0988 16.0173 5.8234 C 16.7708 6.548 17.19 7.5526 17.1753 8.5978 Z M 14.7596 8.2931 C 14.7518 7.8818 14.5731 7.4923 14.2664 7.2181 C 13.9598 6.9439 13.5528 6.8097 13.1431 6.8478 C 12.2786 6.8077 11.527 7.4353 11.4122 8.2931 Z " stroke-width="1" fill="#fe5a01" stroke="none"/><path d="M 20.8456 12.4778 L 18.1062 6.9046 C 18.0039 6.6977 17.9518 6.4697 17.9541 6.2389 C 17.9691 5.4739 18.5966 4.8634 19.3617 4.8694 C 19.9598 4.8761 20.4941 5.2448 20.7126 5.8016 C 21.416 7.3991 22.3481 9.3965 22.5574 10.2524 L 22.5955 10.2524 C 22.7667 9.3965 23.6985 7.3423 24.4595 5.7826 C 24.6709 5.2229 25.2118 4.8572 25.8099 4.8694 C 26.5419 4.9045 27.1185 5.5061 27.1226 6.2389 C 27.1249 6.4697 27.0728 6.6977 26.9705 6.9046 L 24.2121 12.535 C 23.9612 13.219 23.3049 13.6693 22.5765 13.657 C 21.7583 13.657 21.2638 13.296 20.8456 12.4778 Z " stroke-width="1" fill="#fe5a01" stroke="none"/><path d="M 36.4416 8.5978 C 36.4674 8.9422 36.3583 9.2832 36.1373 9.5486 C 35.8101 9.8387 35.3721 9.9708 34.939 9.91 L 30.7162 9.91 C 30.9827 10.8232 31.7624 11.3367 33.0179 11.3367 C 33.3698 11.3374 33.7206 11.2991 34.064 11.2223 C 34.3194 11.1575 34.5809 11.1193 34.8441 11.1083 C 35.1357 11.1058 35.4159 11.2219 35.6202 11.43 C 35.8246 11.638 35.9357 11.9202 35.928 12.2117 C 35.9277 12.722 35.6086 13.1778 35.1293 13.3528 C 34.3605 13.6276 33.549 13.7629 32.7327 13.7524 C 30.0124 13.7524 27.92 12.0024 27.92 9.2825 C 27.92 6.6385 29.8035 4.7745 32.4661 4.7745 C 33.51 4.719 34.5301 5.0988 35.2835 5.8234 C 36.037 6.548 36.4563 7.5525 36.4415 8.5978 Z M 34.0259 8.2931 C 34.0181 7.8818 33.8394 7.4923 33.5327 7.2181 C 33.226 6.9439 32.8191 6.8097 32.4094 6.8478 C 31.5449 6.8077 30.7933 7.4353 30.6785 8.2931 Z " stroke-width="1" fill="#fe5a01" stroke="none"/><path d="M 38.1144 12.2308 L 38.1144 1.4267 C 38.1089 0.6513 38.7277 0.0155 39.5029 0 C 40.2885 0.0057 40.9239 0.6411 40.9296 1.4267 L 40.9296 12.2308 C 40.9363 12.7381 40.6695 13.2098 40.2312 13.4654 C 39.793 13.721 39.2511 13.721 38.8128 13.4654 C 38.3746 13.2098 38.1077 12.7381 38.1144 12.2308 Z " stroke-width="1" fill="#fe5a01" stroke="none"/><path d="M 46.7104 9.2634 C 46.7104 6.5622 48.727 4.7554 51.371 4.7554 C 52.2252 4.7335 53.0686 4.9508 53.8057 5.383 C 54.1956 5.6252 54.4383 6.0466 54.4523 6.5054 C 54.4685 6.8263 54.3507 7.1395 54.1272 7.3703 C 53.9036 7.6011 53.5943 7.7287 53.2731 7.7228 C 52.9724 7.7125 52.6759 7.6481 52.3981 7.5325 C 52.1004 7.4192 51.7845 7.3612 51.4659 7.3614 C 50.9577 7.337 50.4625 7.5268 50.101 7.8848 C 49.7394 8.2427 49.5445 8.7359 49.5638 9.2444 C 49.5531 9.7824 49.7701 10.2999 50.1613 10.6694 C 50.5525 11.0388 51.0815 11.226 51.618 11.1846 C 51.9045 11.1927 52.1895 11.1409 52.4549 11.0325 C 52.6912 10.9381 52.9424 10.8865 53.1968 10.8799 C 53.5145 10.8569 53.8269 10.9704 54.0557 11.192 C 54.2845 11.4136 54.408 11.7223 54.3951 12.0405 C 54.3731 12.6198 54.0059 13.1295 53.4633 13.3337 C 52.8056 13.627 52.0909 13.77 51.371 13.7524 C 48.746 13.7524 46.7104 11.9643 46.7104 9.2634 Z " stroke-width="1" fill="#fe5a01" stroke="none"/><path d="M 56.0675 12.2308 L 56.0675 1.4267 C 56.062 0.6513 56.6808 0.0155 57.456 0 C 58.2416 0.0057 58.877 0.6411 58.8827 1.4267 L 58.8827 12.2308 C 58.8894 12.7381 58.6226 13.2098 58.1843 13.4654 C 57.7461 13.721 57.2042 13.721 56.7659 13.4654 C 56.3276 13.2098 56.0608 12.7381 56.0675 12.2308 Z " stroke-width="1" fill="#fe5a01" stroke="none"/><path d="M 69.1152 8.5978 C 69.1411 8.9422 69.032 9.2832 68.811 9.5486 C 68.4838 9.8387 68.0458 9.9708 67.6127 9.91 L 63.3899 9.91 C 63.6564 10.8232 64.436 11.3367 65.6916 11.3367 C 66.0434 11.3374 66.3943 11.2991 66.7377 11.2223 C 66.9931 11.1575 67.2545 11.1193 67.5178 11.1083 C 67.8094 11.1058 68.0896 11.2219 68.2939 11.43 C 68.4983 11.638 68.6094 11.9202 68.6017 12.2117 C 68.6014 12.722 68.2823 13.1778 67.8029 13.3528 C 67.0342 13.6275 66.2226 13.7629 65.4064 13.7524 C 62.6861 13.7524 60.5937 12.0024 60.5937 9.2825 C 60.5937 6.6385 62.4772 4.7745 65.1398 4.7745 C 66.1837 4.719 67.2038 5.0988 67.9572 5.8234 C 68.7107 6.548 69.13 7.5525 69.1152 8.5978 Z M 66.6996 8.2931 C 66.6917 7.8818 66.513 7.4923 66.2064 7.2181 C 65.8997 6.9439 65.4927 6.8097 65.0831 6.8478 C 64.2185 6.8077 63.4669 7.4353 63.3521 8.2931 Z " stroke-width="1" fill="#fe5a01" stroke="none"/><path d="M 77.9973 7.9317 L 77.9973 12.3066 C 78.0089 12.9893 77.5009 13.5695 76.8227 13.6481 C 76.1444 13.7267 75.5172 13.2781 75.3724 12.6109 C 74.6521 13.3127 73.6954 13.7199 72.6902 13.7524 C 72.0211 13.7915 71.3656 13.5521 70.8792 13.0909 C 70.3928 12.6298 70.1189 11.9879 70.1224 11.3177 C 70.1224 10.0812 70.8644 9.3774 71.9105 8.9588 C 73.0183 8.6047 74.1715 8.4126 75.3342 8.3885 L 75.3342 8.141 C 75.3342 7.4182 74.916 7.1711 73.9457 7.1711 C 73.534 7.1725 73.1244 7.2301 72.7283 7.3423 C 72.4935 7.4153 72.2509 7.46 72.0054 7.4754 C 71.7063 7.4911 71.4137 7.3844 71.1949 7.1799 C 70.976 6.9753 70.8498 6.6906 70.8453 6.3911 C 70.834 5.9135 71.123 5.48 71.5682 5.3068 C 72.4524 4.9572 73.3944 4.7767 74.3453 4.7746 C 76.5706 4.7746 77.9973 5.8394 77.9973 7.9317 Z M 73.6224 11.6028 C 74.2382 11.5621 74.8308 11.3515 75.3342 10.9944 L 75.3342 9.9673 C 74.8778 10.024 74.4401 10.0813 74.0028 10.1762 C 73.1469 10.3473 72.8046 10.5757 72.8046 10.9753 C 72.8046 11.3749 73.1088 11.6028 73.6224 11.6028 Z " stroke-width="1" fill="#fe5a01" stroke="none"/><path d="M 86.4412 6.1059 C 86.4507 6.4754 86.3107 6.8331 86.0529 7.0981 C 85.7952 7.363 85.4414 7.5128 85.0718 7.5135 C 84.1875 7.4609 83.3438 7.89 82.8654 8.6355 L 82.8654 12.2308 C 82.8721 12.7381 82.6053 13.2097 82.167 13.4654 C 81.7288 13.7209 81.1869 13.7209 80.7486 13.4654 C 80.3104 13.2098 80.0435 12.7381 80.0502 12.2308 L 80.0502 6.277 C 80.0516 5.5006 80.6814 4.8719 81.4578 4.8719 C 82.2343 4.8719 82.8641 5.5006 82.8655 6.277 L 82.8655 6.372 C 83.493 5.1927 84.2349 4.7745 85.0908 4.7745 C 85.4485 4.765 85.7946 4.9016 86.0494 5.1528 C 86.3042 5.404 86.4457 5.7481 86.4412 6.1058 Z " stroke-width="1" fill="#fe5a01" stroke="none"/><path d="M 95.475 8.5978 C 95.5008 8.9422 95.3917 9.2832 95.1708 9.5486 C 94.8435 9.8387 94.4056 9.9708 93.9725 9.91 L 89.7496 9.91 C 90.0162 10.8232 90.7958 11.3367 92.0513 11.3367 C 92.4032 11.3374 92.7541 11.2991 93.0975 11.2223 C 93.3529 11.1575 93.6143 11.1193 93.8776 11.1083 C 94.1692 11.1058 94.4493 11.2219 94.6537 11.43 C 94.8581 11.638 94.9692 11.9202 94.9614 12.2117 C 94.9612 12.722 94.6421 13.1778 94.1627 13.3528 C 93.394 13.6275 92.5824 13.7629 91.7661 13.7524 C 89.0458 13.7524 86.9535 12.0024 86.9535 9.2825 C 86.9535 6.6385 88.8369 4.7745 91.4996 4.7745 C 92.5434 4.719 93.5636 5.0988 94.317 5.8234 C 95.0704 6.548 95.4897 7.5525 95.475 8.5978 Z M 93.0593 8.2931 C 93.0515 7.8818 92.8728 7.4923 92.5661 7.2181 C 92.2595 6.9439 91.8525 6.8097 91.4428 6.8478 C 90.5783 6.8077 89.8267 7.4353 89.7119 8.2931 Z " stroke-width="1" fill="#fe5a01" stroke="none"/><path d="M 105.7833 1.4267 L 105.7833 12.2685 C 105.7963 12.634 105.6595 12.9889 105.4046 13.2511 C 105.1496 13.5132 104.7986 13.6599 104.4329 13.657 C 103.7762 13.6728 103.2082 13.2023 103.1016 12.5541 C 102.5097 13.3179 101.5949 13.7612 100.6287 13.7524 C 98.2131 13.7524 96.6911 11.6028 96.6911 9.2634 C 96.6911 6.9046 98.2131 4.7745 100.6287 4.7745 C 101.4935 4.7452 102.3348 5.0598 102.9681 5.6495 L 102.9681 1.4267 C 102.9613 0.9193 103.2281 0.4475 103.6664 0.1918 C 104.1047 -0.0639 104.6467 -0.0639 105.085 0.1918 C 105.5233 0.4475 105.7901 0.9193 105.7833 1.4267 Z M 102.9681 10.2906 L 102.9681 8.1791 C 102.6536 7.5989 102.0493 7.2347 101.3893 7.2279 C 100.8713 7.2436 100.3821 7.4694 100.0341 7.8534 C 99.6861 8.2374 99.5093 8.7464 99.5444 9.2634 C 99.5126 9.7796 99.6905 10.2868 100.0378 10.6699 C 100.3852 11.0531 100.8725 11.2798 101.3893 11.2986 C 102.0626 11.2839 102.6715 10.8951 102.9681 10.2905 Z " stroke-width="1" fill="#fe5a01" stroke="none"/><path d="M 107.8934 12.1545 C 107.8934 11.2931 108.5918 10.5948 109.4532 10.5948 C 110.3146 10.5948 111.0129 11.2931 111.0129 12.1545 C 111.0129 13.0159 110.3146 13.7143 109.4532 13.7143 C 108.598 13.6994 107.9083 13.0097 107.8934 12.1545 Z M 108.7116 8.5978 C 108.2472 6.6974 107.992 4.752 107.9507 2.7962 C 107.9507 1.1411 108.5972 0.4945 109.4532 0.4945 C 110.3091 0.4945 110.9371 1.1602 110.9371 2.7962 C 110.9042 4.7515 110.6554 6.6971 110.1951 8.5978 C 110.0811 9.0732 109.8718 9.3965 109.4722 9.3965 C 109.054 9.3965 108.8256 9.0732 108.7117 8.5978 Z " stroke-width="1" fill="#fe5a01" stroke="none"/></g></g></svg>