<svg xmlns="http://www.w3.org/2000/svg" xmlns:xlink="http://www.w3.org/1999/xlink" version="1.1" width="81.50496" height="81.50496" viewBox="0,0,81.50496,81.50496"><g><g data-paper-data="{&quot;isPaintingLayer&quot;:true}" fill-rule="nonzero" stroke-linejoin="miter" stroke-miterlimit="10" stroke-dasharray="" stroke-dashoffset="0" style="mix-blend-mode: normal"><path d="M202.72432,180.17993c0,-20.57398 16.6785,-37.25248 37.25248,-37.25248c20.57398,0 37.25248,16.6785 37.25248,37.25248c0,20.57398 -16.6785,37.25248 -37.25248,37.25248c-20.57398,0 -37.25248,-16.6785 -37.25248,-37.25248z" fill="#642d1f" stroke="none" stroke-width="0" stroke-linecap="butt" transform="matrix(1,0,0,1,-198.89099,-139.42745)"/><path d="M239.64347,142.2144c0,0 20.17314,5.0589 26.62986,11.51562c6.18694,6.18694 11.33568,26.44992 11.33568,26.44992c0,0 -4.91954,19.57612 -10.69444,25.29628c-6.73271,6.6689 -27.2711,12.30939 -27.2711,12.30939v-75.57122z" fill="#804030" stroke="none" stroke-width="0" stroke-linecap="round" transform="matrix(1,0,0,1,-198.89099,-139.42745)"/><path d="M 3.5 40.7525 C 3.5 20.1785 20.1785 3.5 40.7525 3.5 C 61.3265 3.5 78.005 20.1785 78.005 40.7525 C 78.005 61.3265 61.3265 78.005 40.7525 78.005 C 20.1785 78.005 3.5 61.3265 3.5 40.7525 Z " fill="none" stroke="#4e180f" stroke-width="7" stroke-linecap="butt"/><path d="M 38.213 44.4786 C 38.196 42.0622 39.4621 40.2049 41.1084 38.44 C 42.4728 37.056 44.1685 35.6224 44.155 33.6796 C 44.1419 31.8316 42.8978 30.1341 40.4338 30.1515 C 38.5855 30.1646 37.22 31.359 36.4208 32.2651 C 35.8094 32.9329 35.1028 33.5539 33.8233 33.5628 C 33.0846 33.5597 32.3786 33.2577 31.8661 32.7258 C 31.3536 32.1938 31.0781 31.477 31.1026 30.7387 C 31.1588 29.6984 31.5699 28.7088 32.2675 27.935 C 34.0061 25.8846 36.9789 24.0632 41.1017 24.0341 C 47.5457 23.9887 51.0816 28.0866 51.1167 33.0621 C 51.1437 36.9005 48.7426 39.1447 47.0937 40.5305 C 45.2567 42.1072 44.0347 43.4901 43.3821 45.0108 C 42.9156 46.104 42.2598 47.1986 40.7434 47.2096 C 39.085 47.2213 38.224 46.0422 38.213 44.4786 Z M 37.1848 53.2528 C 37.1698 51.1067 38.8974 49.3548 41.0434 49.3398 C 43.1895 49.3248 44.9414 51.0524 44.9564 53.1984 C 44.9714 55.3445 43.2438 57.0964 41.0977 57.1114 C 38.9668 57.0896 37.2364 55.3832 37.1848 53.2528 Z " fill="#fcfcfc" stroke="none" stroke-width="1" stroke-linecap="butt"/></g></g></svg>