<svg xmlns="http://www.w3.org/2000/svg" xmlns:xlink="http://www.w3.org/1999/xlink" version="1.1" width="86.259" height="83.04472" viewBox="0,0,86.259,83.04472"><g><g data-paper-data="{&quot;isPaintingLayer&quot;:true}" fill-rule="nonzero" stroke-linecap="butt" stroke-linejoin="miter" stroke-miterlimit="10" stroke-dasharray="" stroke-dashoffset="0" style="mix-blend-mode: normal"><path d="M 57.7144 83.0447 L 49.9298 68.3942 L 66.8254 49.4612 L 86.259 52.1115 Z " fill="#4e180f" stroke-width="1" stroke="none"/><path d="M 17.8092 80.9088 L 26.1036 64.6083 L 49.9298 68.3941 L 57.7144 83.0447 Z " fill="#642d1f" stroke-width="1" stroke="none"/><path d="M 13.9103 47.0031 L 26.1036 64.6084 L 17.8092 80.9088 L 0 47.3609 Z " fill="#4e180f" stroke-width="1" stroke="none"/><path d="M 20.4054 23.3725 L 13.9103 47.0031 L 0 47.3608 L 10.0417 11.3378 Z " fill="#3b120b" stroke-width="1" stroke="none"/><path d="M 48.1851 0 L 46.9358 13.7904 L 20.4054 23.3725 L 10.0417 11.3378 Z " fill="#5e2318" stroke-width="1" stroke="none"/><path d="M 62.8014 24.8718 L 46.9358 13.7904 L 48.1851 0 L 71.8589 10.6128 Z " fill="#c88d78" stroke-width="1" stroke="none"/><path d="M 66.8254 49.4612 L 62.8014 24.8718 L 71.8589 10.6128 L 86.259 52.1115 Z " fill="#804030" stroke-width="1" stroke="none"/><path d="M 66.8254 49.4612 L 49.9298 68.3942 L 26.1036 64.6084 L 13.9103 47.0031 L 20.4054 23.3725 L 46.9358 13.7904 L 62.8014 24.8718 Z " fill="#a06350" stroke-width="1" stroke="none"/><path d="M 38.3677 44.9982 C 38.3507 42.5818 39.6168 40.7246 41.2631 38.9597 C 42.6275 37.5757 44.3232 36.142 44.3097 34.1992 C 44.2966 32.3512 43.0525 30.6538 40.5885 30.6712 C 38.7402 30.6843 37.3747 31.8787 36.5755 32.7847 C 35.9641 33.4526 35.2576 34.0735 33.978 34.0824 C 33.2393 34.0793 32.5333 33.7774 32.0208 33.2454 C 31.5083 32.7134 31.2328 31.9967 31.2573 31.2584 C 31.3135 30.2181 31.7247 29.2285 32.4222 28.4546 C 34.1608 26.4042 37.1336 24.5829 41.2564 24.5538 C 47.7004 24.5083 51.2363 28.6062 51.2714 33.5818 C 51.2984 37.4202 48.8973 39.6644 47.2484 41.0501 C 45.4115 42.6269 44.1894 44.0098 43.5368 45.5304 C 43.0703 46.6236 42.4145 47.7182 40.8981 47.7292 C 39.2397 47.7409 38.3787 46.5619 38.3677 44.9982 Z M 37.3395 53.7724 C 37.3245 51.6264 39.0521 49.8745 41.1981 49.8595 C 43.3442 49.8445 45.0961 51.572 45.1111 53.7181 C 45.1261 55.8641 43.3985 57.616 41.2525 57.631 C 39.1215 57.6093 37.3911 55.9028 37.3395 53.7724 Z " fill="#fcfcfc" stroke-width="1" stroke="none"/></g></g></svg>