<svg xmlns="http://www.w3.org/2000/svg" xmlns:xlink="http://www.w3.org/1999/xlink" version="1.1" width="56.42374" height="30.40633" viewBox="0,0,56.42374,30.40633"><g><g data-paper-data="{&quot;isPaintingLayer&quot;:true}" fill-rule="nonzero" stroke-linecap="butt" stroke-linejoin="miter" stroke-miterlimit="10" stroke-dasharray="" stroke-dashoffset="0" style="mix-blend-mode: normal"><path d="M 56.1737 25.0828 C 56.168 25.1994 56.1562 25.3156 56.1384 25.4307 C 55.5809 26.482 54.9987 27.3904 53.7005 27.3886 C 36.6964 27.3739 19.6924 27.3708 2.6883 27.3792 C 1.9198 27.3805 1.2007 26.9539 0.7681 26.2402 C 0.5935 25.9869 0.4393 25.7159 0.2758 25.453 C 0.2668 19.1883 0.2582 12.9235 0.25 6.6588 C 0.2484 5.4292 0.2443 4.1996 0.2512 2.97 C 0.2828 1.4745 1.3597 0.2738 2.691 0.25 C 19.7145 0.2473 36.7381 0.2472 53.7616 0.2497 C 55.0446 0.2085 56.1189 1.3333 56.1727 2.774 C 56.1757 10.2103 56.176 17.6466 56.1737 25.0828 Z " fill="#92796b" stroke="#92796b" stroke-width="0.5"/><path d="M211.8379,190.78244c0.16519,0.23401 0.32093,0.47525 0.49738,0.70063c0.43695,0.63524 1.16343,1.01493 1.93979,1.01381c17.17774,-0.00749 34.17505,-0.00472 51.35278,0.00834c1.31155,0.00161 1.89966,-0.80687 2.46288,-1.7426c0.33929,1.73533 -0.08536,3.77577 -1.57779,4.55302c-0.23488,0.11227 -0.49509,0.16255 -0.75538,0.14599c-17.22283,0.0014 -34.26522,0.00114 -51.48803,-0.0008c-1.33402,-0.0542 -2.4034,-2.26537 -2.45973,-3.58582c-0.00259,-0.3641 0.01811,-0.72837 0.02812,-1.09256z" fill="#725f54" stroke="#725f54" stroke-width="0" transform="matrix(1,0,0,1,-211.77703,-165.05839)"/><g><path d="M 18.5741 5.5419 L 18.5741 3.3838 C 18.5744 3.2477 18.6291 3.1173 18.726 3.0216 C 18.8228 2.9259 18.9539 2.8729 19.0901 2.8744 C 19.2263 2.8729 19.3574 2.9259 19.4543 3.0215 C 19.5512 3.1172 19.6059 3.2476 19.6062 3.3838 L 19.6062 5.5353 C 19.6062 6.3395 20.0619 6.6144 20.5514 6.6144 C 21.0205 6.6144 21.4963 6.3262 21.4963 5.5353 L 21.4963 3.3569 C 21.5152 3.0803 21.7486 2.8676 22.0258 2.8744 C 22.1557 2.8722 22.2811 2.9219 22.3742 3.0125 C 22.4673 3.1031 22.5204 3.227 22.5218 3.3569 L 22.5218 5.5419 C 22.5218 6.8825 21.5567 7.5259 20.5447 7.5259 C 19.5258 7.5259 18.5741 6.8825 18.5741 5.5419 Z " stroke-width="1" fill="#fdfdfd" stroke="none"/><path d="M 26.181 5.4683 L 26.181 6.9965 C 26.1834 7.1752 26.0893 7.3414 25.9349 7.4315 C 25.7805 7.5216 25.5895 7.5216 25.4351 7.4315 C 25.2807 7.3414 25.1867 7.1752 25.189 6.9965 L 25.189 5.6961 C 25.189 5.4213 25.0816 5.2136 24.78 5.2136 C 24.55 5.2229 24.3475 5.3677 24.264 5.5822 L 24.264 6.9965 C 24.2664 7.1752 24.1724 7.3414 24.0179 7.4315 C 23.8635 7.5215 23.6726 7.5215 23.5181 7.4315 C 23.3637 7.3414 23.2697 7.1752 23.272 6.9965 L 23.272 4.8985 C 23.2717 4.7669 23.3239 4.6405 23.417 4.5474 C 23.51 4.4544 23.6364 4.4022 23.768 4.4025 C 24.0099 4.4052 24.2155 4.5798 24.2573 4.818 C 24.4735 4.5368 24.8074 4.3711 25.1621 4.3691 C 25.6983 4.3691 26.181 4.7243 26.181 5.4683 Z " stroke-width="1" fill="#fdfdfd" stroke="none"/><path d="M 26.9177 6.9965 L 26.9177 3.1894 C 26.9157 2.9162 27.1338 2.6922 27.407 2.6867 C 27.6838 2.6887 27.9077 2.9126 27.9097 3.1894 L 27.9097 6.9965 C 27.912 7.1752 27.818 7.3414 27.6636 7.4315 C 27.5092 7.5216 27.3182 7.5216 27.1638 7.4315 C 27.0094 7.3414 26.9153 7.1752 26.9177 6.9965 Z " stroke-width="1" fill="#fdfdfd" stroke="none"/><path d="M 28.5059 5.9374 C 28.5059 5.0058 29.2431 4.3691 30.1414 4.3691 C 31.0462 4.3691 31.7768 5.0058 31.7768 5.9374 C 31.7547 6.8248 31.029 7.5327 30.1413 7.5327 C 29.2537 7.5327 28.528 6.8248 28.5059 5.9374 Z M 30.7715 5.9374 C 30.7715 5.4549 30.4631 5.2136 30.1414 5.2136 C 29.8196 5.2136 29.5113 5.4549 29.5113 5.9374 C 29.5113 6.4267 29.8196 6.6882 30.1414 6.6882 C 30.4631 6.6882 30.7715 6.4267 30.7715 5.9374 Z " stroke-width="1" fill="#fdfdfd" stroke="none"/><path d="M 32.2118 5.9509 C 32.2118 4.999 32.9224 4.3624 33.8541 4.3624 C 34.1551 4.3546 34.4522 4.4312 34.712 4.5835 C 34.8494 4.6689 34.9349 4.8174 34.9398 4.979 C 34.9455 5.0921 34.904 5.2025 34.8253 5.2838 C 34.7465 5.3651 34.6375 5.4101 34.5243 5.408 C 34.4183 5.4044 34.3139 5.3817 34.216 5.341 C 34.1111 5.301 33.9998 5.2806 33.8875 5.2806 C 33.7084 5.272 33.5339 5.3389 33.4065 5.4651 C 33.2791 5.5912 33.2104 5.765 33.2172 5.9442 C 33.2135 6.1337 33.2899 6.3161 33.4278 6.4463 C 33.5656 6.5765 33.752 6.6424 33.9411 6.6278 C 34.042 6.6307 34.1425 6.6124 34.236 6.5742 C 34.3192 6.541 34.4078 6.5228 34.4974 6.5205 C 34.6093 6.5124 34.7194 6.5524 34.8001 6.6305 C 34.8807 6.7085 34.9242 6.8173 34.9196 6.9294 C 34.9119 7.1336 34.7825 7.3131 34.5913 7.3851 C 34.3596 7.4885 34.1077 7.5389 33.854 7.5326 C 32.9291 7.5326 32.2118 6.9026 32.2118 5.9509 Z " stroke-width="1" fill="#fdfdfd" stroke="none"/><path d="M 38.5386 7.0299 C 38.5394 7.1581 38.4874 7.281 38.3948 7.3697 C 38.3023 7.4585 38.1773 7.5052 38.0493 7.499 C 37.8894 7.4934 37.741 7.4143 37.6472 7.2846 L 36.8965 6.3195 L 36.5011 6.5608 L 36.5011 6.9965 C 36.5035 7.1752 36.4095 7.3414 36.255 7.4315 C 36.1006 7.5216 35.9097 7.5216 35.7552 7.4315 C 35.6008 7.3414 35.5068 7.1752 35.5091 6.9965 L 35.5091 3.1894 C 35.5067 3.0106 35.6007 2.8444 35.7552 2.7543 C 35.9096 2.6642 36.1006 2.6642 36.2551 2.7543 C 36.4095 2.8444 36.5035 3.0106 36.5011 3.1894 L 36.5011 5.589 L 37.7008 4.5366 C 37.7913 4.4507 37.9112 4.4027 38.036 4.4026 C 38.2797 4.4102 38.4743 4.6079 38.4783 4.8517 C 38.4746 5.0019 38.4032 5.1423 38.2839 5.2336 L 37.6472 5.7832 L 38.3643 6.6546 C 38.4669 6.7538 38.529 6.8875 38.5386 7.0299 Z " stroke-width="1" fill="#fdfdfd" stroke="none"/></g></g></g></svg>