<svg xmlns="http://www.w3.org/2000/svg" xmlns:xlink="http://www.w3.org/1999/xlink" version="1.1" width="63.72339" height="29.88322" viewBox="0,0,63.72339,29.88322"><g><g data-paper-data="{&quot;isPaintingLayer&quot;:true}" fill-rule="nonzero" stroke-linecap="butt" stroke-linejoin="miter" stroke-miterlimit="10" stroke-dasharray="" stroke-dashoffset="0" style="mix-blend-mode: normal"><path d="M 63.4512 25.0828 C 63.4454 25.1994 63.4337 25.3156 63.4159 25.4307 C 62.8583 26.482 62.2762 27.3904 60.9779 27.3886 C 43.9738 27.3739 19.6923 27.3708 2.6883 27.3792 C 1.9198 27.3805 1.2007 26.9539 0.7681 26.2402 C 0.5935 25.9869 0.4393 25.7159 0.2758 25.453 C 0.2668 19.1883 0.2582 12.9235 0.25 6.6588 C 0.2484 5.4292 0.2443 4.1996 0.2512 2.97 C 0.2828 1.4745 1.3597 0.2738 2.691 0.25 C 19.7145 0.2473 44.0155 0.2472 61.0391 0.2497 C 62.322 0.2085 63.3963 1.3333 63.4501 2.774 C 63.4531 10.2103 63.4534 17.6466 63.4512 25.0828 Z " fill="#92796b" stroke="#92796b" stroke-width="0.5"/><path d="M 0.3333 26.1087 C 0.4968 26.3427 0.651 26.5839 0.8257 26.8093 C 1.2582 27.4445 1.9773 27.8242 2.7458 27.8231 C 19.7499 27.8156 44.0314 27.8184 61.0354 27.8314 C 62.3337 27.8331 62.9159 27.0246 63.4734 26.0888 C 63.8092 27.8242 63.3889 28.7108 61.9115 29.488 C 61.679 29.6003 61.4215 29.6506 61.1638 29.634 C 44.1151 29.6354 19.789 29.6352 2.7403 29.6332 C 1.4198 29.579 0.3612 28.5217 0.3055 27.2012 C 0.3029 26.8371 0.3234 26.4729 0.3333 26.1087 Z " fill="#725f54" stroke="#725f54" stroke-width="0.5"/><g><path d="M 24.0431 6.3166 C 23.1266 6.3166 22.2705 5.7379 22.2705 4.5319 L 22.2705 2.5907 C 22.2738 2.3367 22.4807 2.1325 22.7347 2.1325 C 22.9888 2.1325 23.1957 2.3367 23.199 2.5907 L 23.199 4.526 C 23.199 5.2494 23.6089 5.4966 24.0491 5.4966 C 24.4711 5.4966 24.8991 5.2374 24.8991 4.526 L 24.8991 2.5665 C 24.9161 2.3177 25.126 2.1264 25.3754 2.1325 C 25.4922 2.1305 25.605 2.1752 25.6887 2.2567 C 25.7725 2.3382 25.8203 2.4497 25.8215 2.5665 L 25.8215 4.5319 C 25.8215 5.7379 24.9534 6.3166 24.0431 6.3166 Z " stroke-width="1" fill="#fdfdfd" stroke="none"/><path d="M 26.5145 7.3295 L 26.5145 3.9472 C 26.5086 3.7165 26.6861 3.5225 26.9164 3.5079 C 27.1467 3.4933 27.3473 3.6634 27.3706 3.8929 C 27.5368 3.6314 27.8263 3.4741 28.1362 3.477 C 28.8718 3.477 29.3722 4.122 29.3722 4.8998 C 29.3722 5.6172 28.8899 6.3226 28.0941 6.3226 C 27.8351 6.3368 27.5833 6.2351 27.4067 6.0453 L 27.4067 7.3295 C 27.4056 7.5763 27.2075 7.7771 26.9607 7.7815 C 26.7129 7.7793 26.5135 7.5773 26.5145 7.3295 Z M 27.4067 5.2374 C 27.4984 5.4239 27.6873 5.5428 27.8952 5.5448 C 28.2267 5.5448 28.4678 5.2554 28.4678 4.8998 C 28.4678 4.538 28.2267 4.2546 27.9012 4.2546 C 27.6873 4.2638 27.4964 4.3918 27.4067 4.5862 Z " stroke-width="1" fill="#fdfdfd" stroke="none"/><path d="M 30.2277 6.1719 C 30.1101 6.0946 30.0397 5.9629 30.0408 5.8222 C 30.0408 5.6233 30.1493 5.4906 30.3604 5.3881 C 30.0159 5.2379 29.7949 4.8958 29.7997 4.52 C 29.7997 3.8869 30.4086 3.5312 31.1079 3.5312 L 32.4886 3.5312 C 32.6935 3.5312 32.8563 3.6398 32.8563 3.8508 C 32.8576 3.9386 32.8216 4.0228 32.7573 4.0825 C 32.6929 4.1423 32.6062 4.172 32.5188 4.1642 C 32.366 4.1594 32.2152 4.1289 32.0726 4.0738 L 32.0666 4.0858 C 32.2545 4.2092 32.3642 4.4218 32.3559 4.6465 C 32.3559 5.153 31.9158 5.5388 31.1079 5.5388 C 31.0676 5.54 31.0273 5.5379 30.9873 5.5327 C 30.9396 5.5629 30.9102 5.615 30.909 5.6715 C 30.909 5.774 30.9934 5.7921 31.4697 5.8825 C 32.2897 6.0392 32.7358 6.2141 32.7358 6.7627 C 32.7358 7.3837 32.157 7.7815 31.1501 7.7815 C 30.1553 7.7815 29.649 7.3898 29.649 6.8894 C 29.649 6.624 29.7936 6.3769 30.2277 6.1719 Z M 31.0778 4.1642 C 30.7945 4.1642 30.6196 4.333 30.6196 4.538 C 30.6196 4.749 30.8005 4.9118 31.0778 4.9118 C 31.3491 4.9118 31.5299 4.749 31.5299 4.538 C 31.5299 4.333 31.3612 4.1642 31.0778 4.1642 Z M 30.8185 6.413 C 30.5533 6.5457 30.493 6.6903 30.493 6.7868 C 30.493 7.0039 30.7642 7.1787 31.2164 7.1787 C 31.7048 7.1787 31.8978 6.9797 31.8978 6.8109 C 31.8978 6.63 31.6747 6.6 31.2346 6.5096 C 31.0778 6.4794 30.9391 6.4493 30.8185 6.413 Z " stroke-width="1" fill="#fdfdfd" stroke="none"/><path d="M 33.1755 5.8403 L 33.1755 3.9532 C 33.176 3.7071 33.3756 3.5079 33.6217 3.5079 C 33.8678 3.5079 34.0674 3.7071 34.0678 3.9532 L 34.0678 3.9833 C 34.2667 3.6095 34.5019 3.477 34.7732 3.477 C 34.8866 3.474 34.9963 3.5173 35.077 3.5969 C 35.1578 3.6765 35.2026 3.7856 35.2012 3.899 C 35.2042 4.0161 35.1599 4.1295 35.0782 4.2135 C 34.9965 4.2974 34.8843 4.3449 34.7672 4.3451 C 34.4869 4.3285 34.2195 4.4645 34.0678 4.7007 L 34.0678 5.8403 C 34.0667 6.0872 33.8685 6.288 33.6217 6.2924 C 33.3739 6.2901 33.1745 6.0881 33.1755 5.8403 Z " stroke-width="1" fill="#fdfdfd" stroke="none"/><path d="M 36.9735 4.6224 L 36.9735 4.544 C 36.9735 4.3149 36.8409 4.2366 36.5334 4.2366 C 36.4029 4.237 36.2731 4.2553 36.1475 4.2908 C 36.0731 4.314 35.9962 4.3281 35.9184 4.333 C 35.8236 4.338 35.7308 4.3042 35.6615 4.2394 C 35.5921 4.1745 35.5521 4.0843 35.5507 3.9893 C 35.5471 3.838 35.6387 3.7006 35.7798 3.6457 C 36.0601 3.5349 36.3586 3.4776 36.66 3.477 C 37.3654 3.477 37.8176 3.8145 37.8176 4.4777 L 37.8176 5.8644 C 37.8213 6.0807 37.6602 6.2646 37.4453 6.2896 C 37.2303 6.3145 37.0315 6.1723 36.9856 5.9608 C 36.7573 6.1832 36.454 6.3123 36.1354 6.3226 C 35.9233 6.335 35.7156 6.2591 35.5614 6.113 C 35.4073 5.9668 35.3204 5.7633 35.3215 5.5509 C 35.3215 5.159 35.5567 4.9359 35.8883 4.8032 C 36.2394 4.691 36.6049 4.6301 36.9735 4.6225 Z M 36.9735 5.1229 C 36.8288 5.1409 36.6901 5.159 36.5515 5.1891 C 36.2802 5.2433 36.1717 5.3157 36.1717 5.4424 C 36.1717 5.569 36.2681 5.6413 36.4309 5.6413 C 36.6261 5.6284 36.8139 5.5616 36.9735 5.4484 Z " stroke-width="1" fill="#fdfdfd" stroke="none"/><path d="M 38.3356 4.8998 C 38.3356 4.1521 38.818 3.477 39.5837 3.477 C 39.8578 3.4677 40.1244 3.5674 40.3252 3.7543 L 40.3252 2.4159 C 40.323 2.255 40.4076 2.1055 40.5465 2.0245 C 40.6854 1.9434 40.8572 1.9434 40.9961 2.0245 C 41.1351 2.1055 41.2196 2.255 41.2175 2.4159 L 41.2175 5.8523 C 41.2216 5.9681 41.1783 6.0806 41.0974 6.1637 C 41.0166 6.2468 40.9054 6.2933 40.7894 6.2924 C 40.5813 6.2974 40.4013 6.1482 40.3675 5.9428 C 40.1799 6.1849 39.8899 6.3254 39.5837 6.3226 C 38.818 6.3226 38.3356 5.6413 38.3356 4.8998 Z M 39.3952 4.4529 C 39.2849 4.5746 39.2289 4.7359 39.24 4.8998 C 39.2299 5.0634 39.2863 5.2241 39.3964 5.3456 C 39.5065 5.467 39.6609 5.5389 39.8247 5.5448 C 40.0381 5.5402 40.2311 5.417 40.3251 5.2253 L 40.3251 4.5561 C 40.2255 4.3722 40.0339 4.2568 39.8247 4.2546 C 39.6606 4.2596 39.5055 4.3312 39.3952 4.4529 Z " stroke-width="1" fill="#fdfdfd" stroke="none"/><path d="M 41.7655 4.9058 C 41.7655 4.0678 42.3625 3.477 43.2065 3.477 C 43.5373 3.4594 43.8607 3.5798 44.0995 3.8094 C 44.3383 4.0391 44.4712 4.3575 44.4665 4.6888 C 44.4747 4.798 44.4401 4.906 44.3701 4.9902 C 44.2664 5.0821 44.1275 5.124 43.9903 5.1047 L 42.6518 5.1047 C 42.7363 5.3942 42.9834 5.557 43.3813 5.557 C 43.4929 5.5572 43.6041 5.545 43.7129 5.5207 C 43.7939 5.5001 43.8767 5.488 43.9602 5.4846 C 44.0526 5.4838 44.1414 5.5206 44.2062 5.5865 C 44.271 5.6524 44.3062 5.7419 44.3037 5.8343 C 44.3036 5.996 44.2025 6.1405 44.0506 6.196 C 43.8069 6.2831 43.5497 6.3259 43.2909 6.3226 C 42.4287 6.3226 41.7655 5.7679 41.7655 4.9058 Z M 42.6398 4.5922 L 43.7009 4.5922 C 43.6984 4.4619 43.6417 4.3384 43.5445 4.2515 C 43.4473 4.1646 43.3183 4.1221 43.1885 4.1341 C 42.9145 4.1214 42.6762 4.3203 42.6398 4.5922 Z " stroke-width="1" fill="#fdfdfd" stroke="none"/></g></g></g></svg>