<svg xmlns="http://www.w3.org/2000/svg" xmlns:xlink="http://www.w3.org/1999/xlink" version="1.1" width="40.41504" height="29.88322" viewBox="0,0,40.41504,29.88322"><g><g data-paper-data="{&quot;isPaintingLayer&quot;:true}" fill-rule="nonzero" stroke-linecap="butt" stroke-linejoin="miter" stroke-miterlimit="10" stroke-dasharray="" stroke-dashoffset="0" style="mix-blend-mode: normal"><path d="M 40.1428 25.0828 C 40.1371 25.1994 40.1253 25.3156 40.1075 25.4307 C 39.55 26.482 38.9678 27.3904 37.6695 27.3886 C 20.6655 27.3739 19.6923 27.3708 2.6883 27.3792 C 1.9198 27.3805 1.2007 26.9539 0.7681 26.2402 C 0.5935 25.9869 0.4393 25.7159 0.2758 25.453 C 0.2668 19.1883 0.2582 12.9235 0.25 6.6588 C 0.2484 5.4292 0.2443 4.1996 0.2512 2.97 C 0.2828 1.4745 1.3597 0.2738 2.691 0.25 C 19.7145 0.2473 20.7071 0.2472 37.7307 0.2497 C 39.0137 0.2085 40.088 1.3333 40.1418 2.774 C 40.1447 10.2103 40.1451 17.6466 40.1428 25.0828 Z " fill="#92796b" stroke="#92796b" stroke-width="0.5"/><path d="M 0.3333 26.1087 C 0.4968 26.3427 0.651 26.5839 0.8257 26.8093 C 1.2582 27.4445 1.9773 27.8242 2.7458 27.8231 C 19.7499 27.8156 20.723 27.8184 37.7271 27.8314 C 39.0254 27.8331 39.6075 27.0246 40.165 26.0888 C 40.5009 27.8242 40.0805 28.7108 38.6032 29.488 C 38.3707 29.6003 38.1131 29.6506 37.8554 29.634 C 20.8068 29.6354 19.789 29.6352 2.7403 29.6332 C 1.4198 29.579 0.3612 28.5217 0.3055 27.2012 C 0.3029 26.8371 0.3234 26.4729 0.3333 26.1087 Z " fill="#725f54" stroke="#725f54" stroke-width="0.5"/><g><path d="M 10.9916 6.6366 C 10.0751 6.6366 9.219 6.0579 9.219 4.852 L 9.219 2.9108 C 9.2223 2.6567 9.4292 2.4525 9.6833 2.4525 C 9.9373 2.4525 10.1442 2.6567 10.1475 2.9108 L 10.1475 4.8461 C 10.1475 5.5694 10.5574 5.8167 10.9976 5.8167 C 11.4196 5.8167 11.8476 5.5575 11.8476 4.8461 L 11.8476 2.8866 C 11.8646 2.6378 12.0745 2.4464 12.3239 2.4525 C 12.4407 2.4505 12.5535 2.4952 12.6373 2.5767 C 12.721 2.6582 12.7688 2.7697 12.77 2.8866 L 12.77 4.852 C 12.77 6.0579 11.9019 6.6366 10.9916 6.6366 Z " stroke-width="1" fill="#fdfdfd" stroke="none"/><path d="M 13.463 7.6495 L 13.463 4.2672 C 13.4571 4.0366 13.6347 3.8425 13.8649 3.8279 C 14.0952 3.8133 14.2958 3.9834 14.3191 4.2129 C 14.4853 3.9514 14.7748 3.7941 15.0847 3.797 C 15.8203 3.797 16.3207 4.4421 16.3207 5.2198 C 16.3207 5.9373 15.8384 6.6426 15.0425 6.6426 C 14.7836 6.6568 14.5318 6.5552 14.3552 6.3653 L 14.3552 7.6495 C 14.3541 7.8964 14.156 8.0971 13.9092 8.1016 C 13.6614 8.0993 13.462 7.8973 13.463 7.6495 Z M 14.3552 5.5575 C 14.4469 5.7439 14.6359 5.8628 14.8436 5.8649 C 15.1752 5.8649 15.4163 5.5754 15.4163 5.2198 C 15.4163 4.858 15.1752 4.5746 14.8497 4.5746 C 14.6358 4.5838 14.4449 4.7118 14.3552 4.9062 Z " stroke-width="1" fill="#fdfdfd" stroke="none"/><path d="M 17.1762 6.4919 C 17.0586 6.4146 16.9882 6.2829 16.9893 6.1422 C 16.9893 5.9433 17.0978 5.8106 17.3089 5.7081 C 16.9644 5.5579 16.7434 5.2158 16.7482 4.84 C 16.7482 4.2069 17.3571 3.8513 18.0564 3.8513 L 19.4371 3.8513 C 19.642 3.8513 19.8048 3.9598 19.8048 4.1708 C 19.8061 4.2586 19.7701 4.3428 19.7058 4.4026 C 19.6414 4.4623 19.5547 4.492 19.4673 4.4842 C 19.3145 4.4795 19.1637 4.4489 19.0211 4.3938 L 19.0151 4.4058 C 19.203 4.5292 19.3127 4.7419 19.3044 4.9665 C 19.3044 5.473 18.8643 5.8588 18.0564 5.8588 C 18.0161 5.86 17.9758 5.858 17.9358 5.8528 C 17.8881 5.883 17.8587 5.9351 17.8575 5.9915 C 17.8575 6.094 17.9419 6.1121 18.4182 6.2025 C 19.2382 6.3593 19.6843 6.5341 19.6843 7.0827 C 19.6843 7.7038 19.1055 8.1016 18.0986 8.1016 C 17.1038 8.1016 16.5975 7.7098 16.5975 7.2094 C 16.5975 6.944 16.7421 6.6969 17.1762 6.4919 Z M 18.0264 4.4842 C 17.743 4.4842 17.5681 4.6531 17.5681 4.858 C 17.5681 5.069 17.749 5.2318 18.0264 5.2318 C 18.2976 5.2318 18.4784 5.069 18.4784 4.858 C 18.4784 4.6531 18.3097 4.4842 18.0264 4.4842 Z M 17.767 6.733 C 17.5018 6.8657 17.4415 7.0104 17.4415 7.1068 C 17.4415 7.324 17.7127 7.4987 18.165 7.4987 C 18.6533 7.4987 18.8463 7.2998 18.8463 7.131 C 18.8463 6.9501 18.6232 6.92 18.1831 6.8296 C 18.0264 6.7994 17.8876 6.7693 17.767 6.733 Z " stroke-width="1" fill="#fdfdfd" stroke="none"/><path d="M 20.124 6.1603 L 20.124 4.2732 C 20.1245 4.0271 20.3241 3.8279 20.5702 3.8279 C 20.8163 3.8279 21.0159 4.0272 21.0163 4.2732 L 21.0163 4.3033 C 21.2152 3.9296 21.4504 3.797 21.7217 3.797 C 21.8351 3.794 21.9448 3.8373 22.0255 3.9169 C 22.1063 3.9965 22.1511 4.1056 22.1497 4.219 C 22.1527 4.3361 22.1084 4.4495 22.0267 4.5335 C 21.945 4.6175 21.8328 4.6649 21.7157 4.6652 C 21.4354 4.6485 21.168 4.7845 21.0163 5.0208 L 21.0163 6.1603 C 21.0152 6.4073 20.8171 6.608 20.5702 6.6124 C 20.3224 6.6102 20.123 6.4081 20.124 6.1603 Z " stroke-width="1" fill="#fdfdfd" stroke="none"/><path d="M 23.922 4.9425 L 23.922 4.864 C 23.922 4.6349 23.7894 4.5566 23.4819 4.5566 C 23.3514 4.5571 23.2216 4.5753 23.096 4.6109 C 23.0216 4.634 22.9447 4.6482 22.8669 4.6531 C 22.7721 4.658 22.6793 4.6242 22.61 4.5594 C 22.5406 4.4946 22.5006 4.4043 22.4992 4.3094 C 22.4956 4.158 22.5872 4.0206 22.7283 3.9657 C 23.0086 3.8549 23.3071 3.7977 23.6085 3.797 C 24.3139 3.797 24.7661 4.1345 24.7661 4.7977 L 24.7661 6.1844 C 24.7698 6.4008 24.6087 6.5847 24.3938 6.6096 C 24.1788 6.6345 23.98 6.4923 23.9341 6.2808 C 23.7057 6.5033 23.4025 6.6323 23.0839 6.6426 C 22.8718 6.655 22.6641 6.5791 22.5099 6.433 C 22.3557 6.2868 22.2689 6.0834 22.27 5.8709 C 22.27 5.479 22.5052 5.2559 22.8368 5.1232 C 23.1879 5.011 23.5534 4.9501 23.922 4.9425 Z M 23.922 5.4429 C 23.7773 5.4609 23.6386 5.479 23.5 5.5091 C 23.2287 5.5634 23.1202 5.6358 23.1202 5.7624 C 23.1202 5.8891 23.2166 5.9613 23.3794 5.9613 C 23.5746 5.9484 23.7624 5.8816 23.922 5.7685 Z " stroke-width="1" fill="#fdfdfd" stroke="none"/><path d="M 25.2841 5.2198 C 25.2841 4.4721 25.7665 3.797 26.5322 3.797 C 26.8063 3.7877 27.0729 3.8874 27.2737 4.0744 L 27.2737 2.7359 C 27.2715 2.5751 27.3561 2.4255 27.495 2.3445 C 27.6339 2.2634 27.8057 2.2634 27.9446 2.3445 C 28.0836 2.4255 28.1681 2.5751 28.166 2.7359 L 28.166 6.1723 C 28.1701 6.2881 28.1268 6.4007 28.0459 6.4838 C 27.9651 6.5669 27.8539 6.6133 27.7379 6.6124 C 27.5298 6.6174 27.3498 6.4683 27.316 6.2628 C 27.1284 6.5049 26.8384 6.6454 26.5322 6.6426 C 25.7665 6.6426 25.2841 5.9613 25.2841 5.2198 Z M 26.3437 4.7729 C 26.2334 4.8946 26.1774 5.056 26.1885 5.2198 C 26.1784 5.3834 26.2348 5.5442 26.3449 5.6656 C 26.455 5.787 26.6094 5.8589 26.7732 5.8649 C 26.9866 5.8602 27.1796 5.737 27.2737 5.5454 L 27.2737 4.8761 C 27.174 4.6922 26.9824 4.5768 26.7732 4.5746 C 26.6091 4.5796 26.454 4.6512 26.3437 4.7729 Z " stroke-width="1" fill="#fdfdfd" stroke="none"/><path d="M 28.714 5.2259 C 28.714 4.3878 29.311 3.797 30.155 3.797 C 30.4858 3.7794 30.8092 3.8998 31.048 4.1295 C 31.2868 4.3591 31.4197 4.6775 31.415 5.0088 C 31.4232 5.118 31.3886 5.2261 31.3186 5.3102 C 31.2149 5.4021 31.076 5.444 30.9388 5.4248 L 29.6003 5.4248 C 29.6848 5.7142 29.9319 5.877 30.3298 5.877 C 30.4414 5.8772 30.5526 5.865 30.6614 5.8407 C 30.7424 5.8202 30.8252 5.8081 30.9087 5.8046 C 31.0011 5.8038 31.0899 5.8406 31.1547 5.9065 C 31.2195 5.9725 31.2547 6.0619 31.2522 6.1543 C 31.2522 6.316 31.151 6.4605 30.9991 6.516 C 30.7554 6.6031 30.4982 6.646 30.2395 6.6426 C 29.3772 6.6426 28.714 6.088 28.714 5.2259 Z M 29.5884 4.9123 L 30.6494 4.9123 C 30.6469 4.7819 30.5902 4.6584 30.493 4.5715 C 30.3958 4.4846 30.2668 4.4421 30.137 4.4542 C 29.863 4.4414 29.6247 4.6404 29.5884 4.9123 Z " stroke-width="1" fill="#fdfdfd" stroke="none"/></g></g></g></svg>