<svg xmlns="http://www.w3.org/2000/svg" xmlns:xlink="http://www.w3.org/1999/xlink" version="1.1" width="69.41663" height="25" viewBox="0,0,69.41663,25"><g><g data-paper-data="{&quot;isPaintingLayer&quot;:true}" fill-rule="nonzero" stroke-linejoin="miter" stroke-miterlimit="10" stroke-dasharray="" stroke-dashoffset="0" style="mix-blend-mode: normal"><path d="M 12.5 12.5 L 56.9166 12.5 " fill="none" stroke="#fbfbfb" stroke-width="25" stroke-linecap="round"/><g stroke-linecap="butt"><path d="M 17.1845 17.1861 C 16.7413 16.9596 16.4534 16.513 16.4299 16.0158 C 16.428 15.728 16.5436 15.452 16.7501 15.2516 C 16.9566 15.0512 17.2359 14.9437 17.5235 14.9542 C 17.8667 14.9767 18.1949 15.1039 18.4636 15.3187 C 19.001 15.6967 19.6419 15.8999 20.299 15.9007 C 21.1559 15.9007 21.7123 15.4722 21.7123 14.8902 C 21.7123 14.142 20.7594 13.9182 19.7937 13.5409 C 17.92 12.8246 16.8584 11.9677 16.8584 10.241 C 16.8584 8.3225 18.1886 6.9923 20.5548 6.9923 C 21.3676 6.9446 22.1793 7.103 22.9146 7.4527 C 23.3895 7.6228 23.7201 8.0561 23.7587 8.5591 C 23.7708 8.8321 23.6726 9.0984 23.4861 9.2981 C 23.2996 9.4978 23.0406 9.6141 22.7675 9.6207 C 22.4821 9.6045 22.2023 9.5351 21.9425 9.416 C 21.4947 9.2272 21.0151 9.1252 20.5292 9.1155 C 19.6914 9.1155 19.2502 9.5247 19.2502 10.0491 C 19.2502 10.823 20.1647 11.0788 21.2774 11.4944 C 22.7355 12.0316 24.1168 12.7734 24.1168 14.724 C 24.1168 16.8855 22.4157 18.043 20.2286 18.043 C 19.1546 18.0418 18.1015 17.7454 17.1846 17.1861 Z " stroke-width="1" fill="#000000" stroke="none"/><path d="M 34.867 16.8536 C 34.8681 17.4057 34.4706 17.8781 33.9264 17.9714 C 33.3822 18.0648 32.8501 17.7518 32.6671 17.2309 L 32.1235 15.8495 L 27.5766 15.8495 L 27.033 17.25 C 26.868 17.6941 26.4452 17.9896 25.9714 17.9919 C 25.6708 17.9989 25.3804 17.8826 25.1677 17.67 C 24.9551 17.4574 24.8388 17.167 24.8459 16.8663 C 24.8522 16.6462 24.8999 16.4293 24.9866 16.2268 L 28.2736 8.2329 C 28.4943 7.5248 29.1499 7.0424 29.8916 7.0424 C 30.6333 7.0424 31.2889 7.5248 31.5096 8.2329 L 34.7071 16.2396 C 34.7986 16.4324 34.8528 16.6407 34.867 16.8535 Z M 31.3305 13.8542 L 29.8596 10.1259 L 29.7957 10.1259 L 28.3376 13.8542 Z " stroke-width="1" fill="#000000" stroke="none"/><path d="M 44.5684 8.1754 C 44.5605 8.3953 44.5128 8.612 44.4277 8.8149 L 41.0063 16.9623 C 40.8062 17.5658 40.2479 17.9782 39.6122 17.9919 C 38.9624 17.9894 38.3853 17.5764 38.1733 16.9623 L 34.7775 8.9236 C 34.6805 8.7238 34.6261 8.506 34.6176 8.2841 C 34.6176 7.6145 35.1567 7.0696 35.8263 7.0626 C 36.3414 7.0681 36.7995 7.3914 36.9774 7.8748 C 37.8983 10.1707 38.7744 12.3514 39.6441 14.7368 C 40.5139 12.377 41.4539 10.1259 42.2469 8.0155 C 42.4963 7.3312 42.8481 7.0626 43.4364 7.0626 C 43.7348 7.0575 44.0228 7.1725 44.2357 7.3817 C 44.4485 7.5909 44.5684 7.8769 44.5683 8.1754 Z " stroke-width="1" fill="#000000" stroke="none"/><path d="M 52.9971 16.8216 C 53.0077 17.1165 52.8965 17.4027 52.6897 17.6132 C 52.4829 17.8237 52.1986 17.9398 51.9035 17.9343 L 47.1264 17.9343 C 46.8093 17.9345 46.5056 17.8059 46.285 17.5781 C 46.0644 17.3503 45.9457 17.0426 45.9561 16.7256 L 45.9561 8.3417 C 45.9475 8.0252 46.0668 7.7186 46.287 7.4911 C 46.5072 7.2637 46.8098 7.1346 47.1264 7.133 L 51.7309 7.133 C 52.0225 7.1277 52.3037 7.2413 52.5099 7.4475 C 52.7162 7.6537 52.8297 7.9349 52.8244 8.2266 C 52.8282 8.5149 52.7131 8.792 52.5062 8.9928 C 52.2994 9.1937 52.0189 9.3005 51.7309 9.2881 L 48.4054 9.2881 L 48.4054 11.4753 L 51.2768 11.4753 C 51.6582 11.4449 52.0243 11.6312 52.2242 11.9574 C 52.4242 12.2835 52.4242 12.6943 52.2242 13.0204 C 52.0243 13.3465 51.6582 13.5328 51.2768 13.5025 L 48.4054 13.5025 L 48.4054 15.76 L 51.9227 15.76 C 52.2075 15.753 52.4829 15.8622 52.6855 16.0624 C 52.8882 16.2626 53.0007 16.5367 52.9971 16.8216 Z " stroke-width="1" fill="#000000" stroke="none"/></g></g></g></svg>