<svg xmlns="http://www.w3.org/2000/svg" xmlns:xlink="http://www.w3.org/1999/xlink" version="1.1" width="210.85335" height="30.00623" viewBox="0,0,210.85335,30.00623"><g><g data-paper-data="{&quot;isPaintingLayer&quot;:true}" fill-rule="nonzero" stroke-linecap="butt" stroke-linejoin="miter" stroke-miterlimit="10" stroke-dasharray="" stroke-dashoffset="0" style="mix-blend-mode: normal"><g><path d="M 27.0897 26.7035 C 27.1016 28.2033 26.0259 29.4911 24.548 29.7465 C 23.0702 30.0018 21.6247 29.1496 21.1327 27.7328 L 19.6747 24.0033 L 7.3739 24.0033 L 5.9159 27.7758 C 5.4673 28.9761 4.3261 29.7765 3.0448 29.7895 C 2.2319 29.8088 1.4465 29.4945 0.8714 28.9196 C 0.2963 28.3447 -0.0183 27.5594 0.0008 26.7465 C 0.0147 26.1553 0.1458 25.5727 0.3866 25.0326 L 9.2596 3.4301 C 9.8874 1.5209 11.6649 0.2266 13.6746 0.2152 C 15.6604 0.2396 17.4062 1.5361 18.0037 3.4301 L 26.7039 25.0746 C 26.9307 25.5895 27.0615 26.1416 27.0897 26.7035 Z M 17.5321 18.6029 L 13.5887 8.5307 L 13.4168 8.5307 L 9.4735 18.6029 Z " stroke-width="1" fill="#dd2c2c" stroke="none"/><path d="M 60.2186 3.9018 L 60.2186 26.4897 C 60.2337 27.6634 59.6162 28.7545 58.6021 29.3457 C 57.5881 29.937 56.3344 29.937 55.3204 29.3457 C 54.3063 28.7545 53.6888 27.6634 53.7039 26.4897 L 53.7039 12.2162 L 48.8172 19.6312 C 48.1397 20.8811 46.8522 21.6799 45.4315 21.7318 C 44.0346 21.6726 42.7759 20.8715 42.1307 19.6312 L 37.2879 12.431 L 37.2879 26.4896 C 37.319 27.3666 36.9872 28.2176 36.3707 28.8421 C 35.7541 29.4666 34.9074 29.8093 34.0301 29.7894 C 33.1571 29.8074 32.3158 29.4627 31.7065 28.8373 C 31.0972 28.2119 30.7745 27.3618 30.8153 26.4896 L 30.8153 3.9018 C 30.7694 2.9406 31.1192 2.0025 31.7833 1.306 C 32.4473 0.6095 33.3676 0.2153 34.3299 0.2152 C 36.0877 0.2152 37.0731 0.9008 38.1453 2.5727 L 45.6453 14.3598 L 53.0184 2.5727 C 54.0467 0.9438 55.118 0.2152 56.575 0.2152 C 57.5506 0.2096 58.4872 0.5976 59.1729 1.2914 C 59.8587 1.9853 60.2357 2.9264 60.2186 3.9018 Z " stroke-width="1" fill="#dd2c2c" stroke="none"/><path d="M 90.9451 26.7035 C 90.957 28.2033 89.8814 29.4911 88.4035 29.7465 C 86.9256 30.0018 85.4801 29.1496 84.9881 27.7328 L 83.5301 24.0033 L 71.2293 24.0033 L 69.7713 27.7758 C 69.3228 28.9761 68.1816 29.7765 66.9002 29.7895 C 66.0873 29.8088 65.3019 29.4945 64.7269 28.9196 C 64.1518 28.3447 63.8372 27.5594 63.8563 26.7465 C 63.8702 26.1553 64.0013 25.5727 64.242 25.0326 L 73.1151 3.4301 C 73.7429 1.521 75.5205 0.2266 77.5301 0.2152 C 79.5159 0.2396 81.2617 1.5361 81.8592 3.4301 L 90.5594 25.0746 C 90.7862 25.5895 90.9169 26.1416 90.9451 26.7035 Z M 81.3875 18.6029 L 77.4442 8.5307 L 77.2723 8.5307 L 73.3289 18.6029 Z " stroke-width="1" fill="#dd2c2c" stroke="none"/><path d="M 116.2723 26.6606 C 116.2737 27.449 115.9553 28.2042 115.3898 28.7536 C 114.8244 29.303 114.0603 29.5996 113.2723 29.5756 L 96.2127 29.5756 C 95.3309 29.5841 94.482 29.2404 93.8545 28.6207 C 93.227 28.0011 92.8726 27.1567 92.87 26.2748 C 92.8727 25.3595 93.2075 24.4764 93.8123 23.7894 L 107.1424 6.2592 L 96.0418 6.2592 C 94.9903 6.2745 94.0119 5.7223 93.4817 4.8141 C 92.9514 3.9059 92.9514 2.7824 93.4817 1.8742 C 94.0119 0.966 94.9903 0.4138 96.0418 0.4291 L 112.6287 0.4291 C 114.4316 0.4988 115.8638 1.9688 115.8866 3.7729 C 115.8919 4.7025 115.5567 5.6019 114.9442 6.3012 L 101.5711 23.7465 L 113.2723 23.7465 C 114.0602 23.7224 114.8242 24.0188 115.3896 24.5681 C 115.955 25.1173 116.2735 25.8723 116.2723 26.6606 Z " stroke-width="1" fill="#dd2c2c" stroke="none"/><path d="M 120.4266 26.4897 L 120.4266 3.4731 C 120.4499 1.667 121.9207 0.2151 123.7269 0.2151 C 125.5331 0.2151 127.0039 1.667 127.0272 3.4731 L 127.0272 26.4897 C 127.024 28.3101 125.5474 29.7842 123.7269 29.7842 C 121.9064 29.7842 120.4298 28.3101 120.4266 26.4897 Z " stroke-width="1" fill="#dd2c2c" stroke="none"/><path d="M 133.1121 26.7035 L 133.1121 3.9867 C 133.1114 2.9713 133.5204 1.9984 134.2465 1.2885 C 134.9726 0.5786 135.9544 0.1917 136.9696 0.2152 C 138.4564 0.2315 139.8314 1.008 140.6131 2.2729 L 152.5721 18.56 L 152.6141 18.56 L 152.6141 3.3012 C 152.6847 1.5768 154.1032 0.2153 155.829 0.2153 C 157.5547 0.2153 158.9732 1.5768 159.0438 3.3012 L 159.0438 25.975 C 159.0464 26.9949 158.6394 27.9732 157.9142 28.6904 C 157.189 29.4075 156.2062 29.8035 155.1864 29.7895 C 153.6576 29.7249 152.2604 28.9062 151.4569 27.6039 L 139.6278 11.6596 L 139.5418 11.6596 L 139.5848 26.7035 C 139.5025 28.431 138.078 29.7894 136.3485 29.7894 C 134.619 29.7894 133.1945 28.431 133.1122 26.7035 Z " stroke-width="1" fill="#dd2c2c" stroke="none"/><path d="M 190.5428 16.5024 L 190.5428 24.3032 C 190.7031 26.0623 189.6681 27.7116 188.0145 28.3325 C 185.1976 29.4749 182.1809 30.0433 179.1415 30.0044 C 170.3983 30.0044 163.6688 23.9604 163.6688 14.9165 C 163.6688 6.0873 170.6121 0.0004 179.742 0.0004 C 182.0917 -0.0143 184.4263 0.3776 186.6424 1.1586 C 188.4432 1.8871 189.3426 2.9154 189.3426 4.5014 C 189.3874 5.9593 188.2697 7.191 186.8143 7.2875 C 185.9064 7.2322 185.0182 6.9993 184.2 6.602 C 182.7661 6.1031 181.2602 5.8425 179.742 5.8305 C 173.9559 5.8305 170.5262 9.7309 170.5262 14.9164 C 170.5262 20.7035 174.4696 24.1752 179.3563 24.1752 C 181.3978 24.2269 183.4233 23.8012 185.2713 22.932 L 185.2713 18.9457 L 181.5848 18.9457 C 180.8413 18.9731 180.1189 18.6958 179.5848 18.1779 C 179.0507 17.66 178.7512 16.9465 178.7557 16.2026 C 178.7494 15.4542 179.0469 14.7353 179.5801 14.2102 C 180.1133 13.6851 180.8366 13.3987 181.5848 13.4164 L 187.5858 13.4164 C 188.3943 13.4112 189.1693 13.739 189.7287 14.3228 C 190.288 14.9066 190.5825 15.6949 190.5428 16.5024 Z " stroke-width="1" fill="#dd2c2c" stroke="none"/><path d="M 203.824 26.4037 C 203.824 24.4626 205.3976 22.8891 207.3387 22.8891 C 209.2798 22.8891 210.8534 24.4626 210.8534 26.4037 C 210.8534 28.3448 209.2798 29.9184 207.3387 29.9184 C 205.4116 29.8849 203.8575 28.3308 203.824 26.4037 Z M 205.6668 18.3891 C 204.621 14.1068 204.0463 9.723 203.953 5.3158 C 203.953 1.5863 205.41 0.1293 207.3387 0.1293 C 209.2674 0.1293 210.6825 1.6293 210.6825 5.3158 C 210.6084 9.7219 210.0477 14.1062 209.0106 18.3891 C 208.7537 19.4604 208.2821 20.1889 207.3817 20.1889 C 206.4393 20.1889 205.9246 19.4604 205.6668 18.3891 Z " stroke-width="1" fill="#dd2c2c" stroke="none"/></g></g></g></svg>