<svg xmlns="http://www.w3.org/2000/svg" xmlns:xlink="http://www.w3.org/1999/xlink" version="1.1" width="114.55615" height="30.01179" viewBox="0,0,114.55615,30.01179"><g><g data-paper-data="{&quot;isPaintingLayer&quot;:true}" fill-rule="nonzero" stroke-linecap="butt" stroke-linejoin="miter" stroke-miterlimit="10" stroke-dasharray="" stroke-dashoffset="0" style="mix-blend-mode: normal"><g><path d="M 0 14.9636 C 0 6.0486 6.8144 0.0046 15.1299 0.0046 C 17.4295 -0.0512 19.713 0.4027 21.8164 1.3337 C 23.5313 2.2341 24.3887 3.1765 24.3887 4.6774 C 24.388 5.3858 24.1003 6.0636 23.5913 6.5562 C 23.0823 7.0488 22.3955 7.3142 21.6875 7.2917 C 20.8913 7.2531 20.1145 7.0333 19.416 6.6491 C 18.1218 6.0763 16.7166 5.7981 15.3018 5.8347 C 9.6865 5.8347 6.8574 10.2487 6.8574 14.9636 C 6.8574 19.6354 9.6865 24.0075 15.2158 24.0075 C 16.6891 24.0279 18.1499 23.7356 19.502 23.1501 C 20.3121 22.6614 21.2188 22.3545 22.1592 22.2507 C 22.8873 22.2233 23.5944 22.4976 24.1136 23.0087 C 24.6328 23.5198 24.9182 24.2225 24.9023 24.9509 C 24.8837 25.968 24.3927 26.9184 23.5742 27.5222 C 22.2451 28.6365 19.416 30.0086 15.2158 30.0086 C 6.5576 30.0085 0 23.9646 0 14.9636 Z " stroke-width="1" fill="#fc5702" stroke="none"/><path d="M 27.8125 3.6052 C 27.7952 2.2491 28.5986 1.0169 29.8465 0.4859 C 31.0944 -0.0452 32.5395 0.2302 33.5046 1.1829 C 34.4698 2.1356 34.7638 3.577 34.249 4.8316 C 33.7342 6.0863 32.5125 6.9057 31.1563 6.9059 C 30.2722 6.9218 29.4189 6.5806 28.7896 5.9594 C 28.1603 5.3382 27.808 4.4894 27.8125 3.6052 Z M 27.9844 26.5798 L 27.9844 13.1638 C 27.9875 11.4142 29.4067 9.9975 31.1562 9.9975 C 32.9058 9.9975 34.325 11.4142 34.3281 13.1638 L 34.3281 26.5798 C 34.3432 27.7229 33.7419 28.7858 32.7544 29.3617 C 31.7668 29.9377 30.5457 29.9377 29.5581 29.3617 C 28.5706 28.7858 27.9693 27.7229 27.9844 26.5798 Z " stroke-width="1" fill="#fc5702" stroke="none"/><path d="M 53.4434 12.778 C 53.4647 13.6107 53.1493 14.4168 52.5684 15.0139 C 51.9875 15.6109 51.1904 15.9484 50.3574 15.9499 C 48.3649 15.8315 46.4638 16.7983 45.3858 18.4782 L 45.3858 26.5798 C 45.4008 27.7229 44.7996 28.7858 43.812 29.3617 C 42.8244 29.9377 41.6033 29.9377 40.6158 29.3617 C 39.6282 28.7858 39.0269 27.7229 39.042 26.5798 L 39.042 13.1638 C 39.0451 11.4142 40.4643 9.9975 42.2139 9.9975 C 43.9635 9.9975 45.3826 11.4142 45.3858 13.1638 L 45.3858 13.3777 C 46.7998 10.7204 48.4717 9.7781 50.4004 9.7781 C 51.2063 9.7567 51.9862 10.0644 52.5603 10.6304 C 53.1344 11.1965 53.4533 11.9719 53.4434 12.778 Z " stroke-width="1" fill="#fc5702" stroke="none"/><path d="M 54.5977 19.8933 C 54.5977 13.8064 59.1416 9.7351 65.1001 9.7351 C 67.025 9.6855 68.9253 10.1753 70.5864 11.1491 C 71.465 11.6951 72.0119 12.6445 72.0434 13.6784 C 72.0798 14.4015 71.8145 15.1073 71.3108 15.6273 C 70.8071 16.1474 70.1101 16.435 69.3862 16.4216 C 68.7085 16.3985 68.0406 16.2532 67.4145 15.9929 C 66.7437 15.7374 66.0318 15.6067 65.3139 15.6071 C 64.1687 15.552 63.0528 15.9799 62.2379 16.7865 C 61.423 17.5931 60.9839 18.7045 61.0273 19.8503 C 61.0032 21.0627 61.4922 22.2289 62.3738 23.0615 C 63.2554 23.8941 64.4477 24.3157 65.6567 24.2224 C 66.3023 24.2407 66.9446 24.1239 67.5424 23.8796 C 68.075 23.667 68.6411 23.5506 69.2143 23.5358 C 69.9302 23.484 70.6342 23.7398 71.1498 24.2391 C 71.6653 24.7385 71.9435 25.4339 71.9145 26.1511 C 71.8649 27.4565 71.0375 28.6049 69.8149 29.0651 C 68.3329 29.726 66.7222 30.0483 65.1001 30.0085 C 59.1846 30.0085 54.5977 25.9792 54.5977 19.8933 Z " stroke-width="1" fill="#fc5702" stroke="none"/><path d="M 94.0718 13.1638 L 94.0718 26.5798 C 94.0735 27.4215 93.7399 28.2293 93.1447 28.8245 C 92.5494 29.4197 91.7417 29.7534 90.8999 29.7516 C 89.353 29.7343 88.0381 28.6172 87.771 27.0934 C 86.389 28.8925 84.2535 29.9525 81.9849 29.9655 C 78.5552 29.9655 75.4692 27.694 75.4692 22.9362 L 75.4692 13.1638 C 75.4539 12.0204 76.0551 10.9573 77.0428 10.3812 C 78.0305 9.8051 79.2518 9.8051 80.2395 10.3812 C 81.2271 10.9573 81.8283 12.0204 81.813 13.1638 L 81.813 21.4792 C 81.813 23.236 82.4985 24.5651 84.4273 24.5651 C 85.8984 24.5056 87.1944 23.58 87.728 22.2077 L 87.728 13.1638 C 87.7127 12.0204 88.3139 10.9573 89.3016 10.3812 C 90.2893 9.8051 91.5106 9.8051 92.4983 10.3812 C 93.4859 10.9573 94.0871 12.0204 94.0718 13.1638 Z " stroke-width="1" fill="#fc5702" stroke="none"/><path d="M 99.6831 28.6364 C 98.5903 28.2423 97.8449 27.2258 97.7974 26.0651 C 97.7683 25.435 97.9999 24.8207 98.4377 24.3666 C 98.8756 23.9125 99.4811 23.6586 100.1118 23.6647 C 101.046 23.7568 101.9584 24.0029 102.812 24.3933 C 103.9145 24.7793 105.0727 24.9822 106.2407 24.9939 C 107.9976 24.9939 108.6841 24.6081 108.6841 23.9646 C 108.6841 23.0651 107.1841 22.7644 104.6978 22.0358 C 100.7974 20.8786 98.1831 19.5925 98.1831 15.9928 C 98.1831 12.4352 100.9263 9.778 106.2407 9.778 C 108.1965 9.7854 110.1375 10.1184 111.9839 10.7633 C 113.1461 11.0601 113.9692 12.0935 113.9985 13.2926 C 114.0613 13.9359 113.8511 14.5759 113.4192 15.0566 C 112.9872 15.5374 112.3733 15.8147 111.7271 15.821 C 110.9376 15.7435 110.1605 15.5707 109.4126 15.3063 C 108.3808 15.0096 107.3142 14.8513 106.2407 14.8356 C 104.7407 14.8356 104.0552 15.1784 104.0552 15.821 C 104.0552 16.6354 105.0835 16.8923 108.2983 17.8356 C 111.7271 18.821 114.5562 20.0212 114.5562 23.7077 C 114.5562 27.4362 111.6412 30.0085 106.3267 30.0085 C 104.0402 30.0247 101.7761 29.5572 99.6831 28.6364 Z " stroke-width="1" fill="#fc5702" stroke="none"/></g></g></g></svg>