<svg xmlns="http://www.w3.org/2000/svg" xmlns:xlink="http://www.w3.org/1999/xlink" version="1.1" width="36.37333" height="36.37333" viewBox="0,0,36.37333,36.37333"><g><g data-paper-data="{&quot;isPaintingLayer&quot;:true}" fill-rule="nonzero" stroke-linecap="butt" stroke-linejoin="miter" stroke-miterlimit="10" stroke-dasharray="" stroke-dashoffset="0" style="mix-blend-mode: normal"><path d="M 17.6242 3.1454 L 18.5082 13.9747 L 15.6902 14.6378 L 11.3806 4.9688 Z " fill="#353333" stroke-width="1" stroke="none"/><path d="M 29.6659 8.0064 L 21.7417 15.4409 L 19.4687 13.6484 L 24.3519 4.2559 Z " fill="#353333" stroke-width="1" stroke="none"/><path d="M 33.0253 20.1516 L 22.1726 19.6274 L 21.8797 16.7475 L 32.0248 13.7249 Z " fill="#353333" stroke-width="1" stroke="none"/><path d="M 25.8297 30.6731 L 19.6916 21.7079 L 21.8098 19.7345 L 30.3472 25.9937 Z " fill="#353333" stroke-width="1" stroke="none"/><path d="M 12.7592 31.7537 L 16.338 21.4947 L 19.183 22.0303 L 19.2058 32.6163 Z " fill="#353333" stroke-width="1" stroke="none"/><path d="M 3.7061 22.8743 L 13.8515 18.9851 L 15.2792 21.5035 L 7.209 28.3545 Z " fill="#353333" stroke-width="1" stroke="none"/><path d="M 5.7634 9.3362 L 14.9109 15.1998 L 13.7295 17.8428 L 3.4275 15.4067 Z " fill="#353333" stroke-width="1" stroke="none"/><path d="M 36.048 18.1884 C 36.0471 28.0525 28.0502 36.0484 18.1861 36.0481 C 8.322 36.0478 0.3257 28.0514 0.3254 18.1873 C 0.3251 8.3232 8.321 0.3264 18.1851 0.3255 C 28.0504 0.3256 36.0479 8.3231 36.048 18.1884 Z M 18.1851 32.443 C 26.0576 32.4428 32.4395 26.061 32.4396 18.1885 C 32.4403 12.4221 28.9671 7.2232 23.6398 5.0162 C 18.3125 2.8092 12.1802 4.0288 8.1028 8.1062 C 4.0253 12.1836 2.8057 18.3159 5.0127 23.6432 C 7.2197 28.9705 12.4186 32.4437 18.185 32.443 Z " fill="#0b0600" stroke-width="1" stroke="none"/><path d="M 18.1849 36.3733 C 8.1407 36.3724 -0.001 28.2291 0 18.1849 C 0.001 8.1407 8.1442 -0.001 18.1884 0 C 28.2327 0.001 36.3743 8.1442 36.3733 18.1884 C 36.3611 28.228 28.2245 36.363 18.1849 36.3733 Z M 18.1849 0.6507 C 8.5005 0.6517 0.6504 8.5029 0.6507 18.1872 C 0.651 27.8716 8.5017 35.7223 18.1861 35.7226 C 27.8704 35.7229 35.7216 27.8728 35.7226 18.1884 C 35.7117 8.5071 27.8662 0.6615 18.1849 0.6507 Z M 18.1849 32.7682 C 12.2869 32.7688 6.9695 29.2163 4.7122 23.7674 C 2.4549 18.3185 3.7024 12.0463 7.8729 7.8759 C 12.0435 3.7054 18.3156 2.4581 23.7645 4.7155 C 29.2134 6.9729 32.7657 12.2905 32.765 18.1884 C 32.7559 26.2369 26.2335 32.7593 18.1849 32.7682 Z M 18.1849 4.2559 C 10.4912 4.2551 4.2536 10.4914 4.2527 18.1852 C 4.2519 25.8789 10.4881 32.1166 18.1819 32.1175 C 25.8756 32.1184 32.1133 25.8821 32.1143 18.1884 C 32.1066 10.4981 25.8752 4.2653 18.1849 4.2559 Z " fill="#b44c0c" stroke-width="1" stroke="none"/><path d="M 23.3422 18.1851 C 23.3422 21.0334 21.0333 23.3423 18.1851 23.3423 C 15.3369 23.3423 13.0279 21.0334 13.0279 18.1851 C 13.0279 15.3369 15.3369 13.028 18.1851 13.028 C 21.0333 13.028 23.3422 15.3369 23.3422 18.1851 Z " fill="#dd5601" stroke-width="1" stroke="none"/><path d="M 23.3422 18.1852 C 23.3422 18.5738 23.2985 18.9613 23.2121 19.3402 C 21.5114 20.3317 19.4104 20.3384 17.7034 19.3576 C 15.9965 18.3769 14.9442 16.5584 14.9443 14.5898 C 14.9443 14.4466 14.9508 14.3035 14.9639 14.1636 C 16.5106 12.924 18.6311 12.6812 20.418 13.5389 C 22.205 14.3966 23.3418 16.203 23.3422 18.1852 Z " fill="#df7823" stroke-width="1" stroke="none"/><path d="M 21.0157 15.5822 C 21.0156 15.6837 21.0009 15.7845 20.9719 15.8818 C 20.678 16.0118 20.3599 16.0779 20.0386 16.0758 C 19.0153 16.0758 18.1851 15.4379 18.1851 14.6499 C 18.1851 14.6129 18.1873 14.576 18.1917 14.5393 C 18.5196 14.3432 18.8954 14.2416 19.2774 14.2457 C 20.2371 14.2457 21.0157 14.844 21.0157 15.5822 Z " fill="#ee9954" stroke-width="1" stroke="none"/><path d="M 18.1366 23.871 C 15.0242 23.8709 12.5011 21.3477 12.5011 18.2352 C 12.5011 15.1227 15.0243 12.5996 18.1367 12.5996 C 21.2492 12.5996 23.7724 15.1227 23.7725 18.2352 C 23.7689 21.3463 21.2477 23.8674 18.1366 23.871 Z M 18.1366 13.2503 C 15.3835 13.2504 13.1517 15.4823 13.1518 18.2355 C 13.1519 20.9886 15.3838 23.2203 18.1369 23.2203 C 20.89 23.2202 23.1218 20.9883 23.1217 18.2352 C 23.1185 15.4834 20.8884 13.2534 18.1366 13.2503 Z " fill="#31180a" stroke-width="1" stroke="none"/></g></g></svg>