<svg xmlns="http://www.w3.org/2000/svg" xmlns:xlink="http://www.w3.org/1999/xlink" version="1.1" width="261.76738" height="30.0085" viewBox="0,0,261.76738,30.0085"><g><g data-paper-data="{&quot;isPaintingLayer&quot;:true}" fill-rule="nonzero" stroke-linecap="butt" stroke-linejoin="miter" stroke-miterlimit="10" stroke-dasharray="" stroke-dashoffset="0" style="mix-blend-mode: normal"><g><path d="M 19.076 26.6228 C 19.0887 27.411 18.7812 28.1708 18.2236 28.7281 C 17.6661 29.2855 16.9062 29.5928 16.118 29.5798 L 3.1736 29.5798 C 2.3161 29.5839 1.4938 29.2392 0.8956 28.6247 C 0.2973 28.0103 -0.0253 27.1791 0.0017 26.322 L 0.0017 3.7341 C -0.0267 2.8726 0.2942 2.0362 0.8914 1.4146 C 1.4887 0.7931 2.3117 0.4392 3.1736 0.4333 L 15.6463 0.4333 C 16.4347 0.4203 17.1947 0.7278 17.7522 1.2854 C 18.3098 1.8429 18.6173 2.6029 18.6043 3.3913 C 18.6138 4.171 18.3023 4.9203 17.7429 5.4634 C 17.1835 6.0066 16.4253 6.2959 15.6463 6.2634 L 6.6023 6.2634 L 6.6023 12.1775 L 14.3611 12.1775 C 15.3611 12.1469 16.2985 12.663 16.8075 13.5243 C 17.3166 14.3856 17.3166 15.4556 16.8075 16.317 C 16.2985 17.1783 15.3611 17.6943 14.3611 17.6638 L 6.6023 17.6638 L 6.6023 23.7507 L 16.1179 23.7507 C 16.897 23.7182 17.6551 24.0075 18.2145 24.5506 C 18.774 25.0938 19.0855 25.8431 19.076 26.6228 Z " stroke-width="1" fill="#dd2c2c" stroke="none"/><path d="M 45.6893 24.5222 C 46.1856 25.1293 46.4714 25.8812 46.5037 26.6648 C 46.4685 28.4116 45.036 29.8058 43.2889 29.7937 C 42.3039 29.7808 41.3827 29.3046 40.8025 28.5085 L 34.2449 19.5925 L 27.5584 28.6795 C 26.9752 29.404 26.0879 29.8159 25.158 29.7937 C 24.3452 29.7995 23.5634 29.4821 22.9847 28.9114 C 22.4059 28.3407 22.0777 27.5635 22.0721 26.7507 C 22.0888 25.9973 22.3608 25.2718 22.8436 24.6931 L 30.1727 14.9206 L 22.8865 5.4909 C 22.4012 4.8807 22.1301 4.1279 22.115 3.3484 C 22.1446 1.616 23.5543 0.2254 25.2869 0.2195 C 26.3361 0.1966 27.3235 0.7144 27.9012 1.5906 L 34.4168 10.2917 L 40.7166 1.7195 C 41.2908 0.7795 42.3163 0.21 43.4178 0.2195 C 44.2259 0.2042 45.0067 0.5126 45.5862 1.076 C 46.1658 1.6395 46.4961 2.4112 46.5037 3.2195 C 46.4601 4.0626 46.1269 4.8649 45.5603 5.4909 L 38.4881 14.8786 Z " stroke-width="1" fill="#dd2c2c" stroke="none"/><path d="M 48.7303 14.9636 C 48.7303 6.0486 55.5447 0.0046 63.8602 0.0046 C 66.1598 -0.0512 68.4432 0.4027 70.5467 1.3337 C 72.2615 2.2341 73.1189 3.1765 73.1189 4.6775 C 73.1183 5.3858 72.8306 6.0636 72.3216 6.5562 C 71.8126 7.0488 71.1258 7.3142 70.4178 7.2917 C 69.6216 7.2531 68.8447 7.0333 68.1463 6.6491 C 66.8521 6.0763 65.4468 5.7981 64.032 5.8347 C 58.4168 5.8347 55.5877 10.2487 55.5877 14.9636 C 55.5877 19.6355 58.4168 24.0075 63.9461 24.0075 C 65.4194 24.0279 66.8802 23.7357 68.2322 23.1501 C 69.0424 22.6614 69.949 22.3545 70.8895 22.2507 C 71.6175 22.2233 72.3246 22.4976 72.8439 23.0087 C 73.3631 23.5198 73.6485 24.2225 73.6326 24.9509 C 73.614 25.9679 73.1231 26.9183 72.3045 27.5222 C 70.9754 28.6364 68.1463 30.0085 63.9461 30.0085 C 55.2879 30.0085 48.7303 23.9646 48.7303 14.9636 Z " stroke-width="1" fill="#dd2c2c" stroke="none"/><path d="M 95.2312 26.6648 C 95.2352 27.4466 94.9234 28.1969 94.3665 28.7456 C 93.8097 29.2944 93.0549 29.5951 92.2732 29.5798 L 80.658 29.5798 C 79.7827 29.5922 78.9402 29.2471 78.3253 28.624 C 77.7104 28.001 77.3763 27.154 77.4002 26.279 L 77.4002 3.4773 C 77.4237 1.6713 78.8944 0.2197 80.7005 0.2197 C 82.5066 0.2197 83.9772 1.6713 84.0008 3.4773 L 84.0008 23.7507 L 92.2732 23.7507 C 93.0569 23.7279 93.8158 24.0261 94.3743 24.5763 C 94.9328 25.1265 95.2423 25.8809 95.2312 26.6648 Z " stroke-width="1" fill="#dd2c2c" stroke="none"/><path d="M 118.0311 26.6228 C 118.0438 27.411 117.7363 28.1708 117.1787 28.7281 C 116.6212 29.2855 115.8613 29.5928 115.0731 29.5798 L 102.1287 29.5798 C 101.2712 29.5839 100.4488 29.2391 99.8506 28.6247 C 99.2524 28.0103 98.9298 27.1791 98.9568 26.322 L 98.9568 3.7341 C 98.9284 2.8726 99.2493 2.0362 99.8465 1.4146 C 100.4437 0.7931 101.2667 0.4392 102.1287 0.4333 L 114.6013 0.4333 C 115.3898 0.4203 116.1497 0.7278 116.7073 1.2854 C 117.2649 1.8429 117.5724 2.6029 117.5593 3.3913 C 117.5688 4.171 117.2573 4.9202 116.6979 5.4634 C 116.1385 6.0066 115.3804 6.2958 114.6013 6.2634 L 105.5573 6.2634 L 105.5573 12.1775 L 113.3161 12.1775 C 114.3162 12.1469 115.2536 12.663 115.7626 13.5243 C 116.2716 14.3856 116.2716 15.4556 115.7626 16.317 C 115.2536 17.1783 114.3162 17.6943 113.3161 17.6638 L 105.5573 17.6638 L 105.5573 23.7507 L 115.0731 23.7507 C 115.8521 23.7182 116.6102 24.0075 117.1696 24.5507 C 117.7291 25.0938 118.0405 25.8431 118.0311 26.6228 Z " stroke-width="1" fill="#dd2c2c" stroke="none"/><path d="M 140.3582 26.6648 C 140.3621 27.4466 140.0504 28.1969 139.4935 28.7456 C 138.9366 29.2944 138.1819 29.5951 137.4002 29.5798 L 125.785 29.5798 C 124.9096 29.5922 124.0671 29.2471 123.4522 28.624 C 122.8373 28.001 122.5032 27.154 122.5271 26.279 L 122.5271 3.4773 C 122.5505 1.6712 124.0212 0.2193 125.8274 0.2193 C 127.6337 0.2193 129.1044 1.6712 129.1277 3.4773 L 129.1277 23.7507 L 137.4002 23.7507 C 138.1838 23.7279 138.9428 24.0261 139.5012 24.5763 C 140.0597 25.1265 140.3693 25.8809 140.3582 26.6648 Z " stroke-width="1" fill="#dd2c2c" stroke="none"/><path d="M 161.9148 26.6648 C 161.9188 27.4466 161.607 28.1969 161.0501 28.7456 C 160.4933 29.2944 159.7385 29.5951 158.9568 29.5798 L 147.3416 29.5798 C 146.4663 29.5922 145.6238 29.2471 145.0089 28.624 C 144.3939 28.001 144.0598 27.154 144.0838 26.279 L 144.0838 3.4773 C 144.1071 1.6712 145.5778 0.2193 147.3841 0.2193 C 149.1903 0.2193 150.661 1.6712 150.6844 3.4773 L 150.6844 23.7507 L 158.9568 23.7507 C 159.7405 23.7279 160.4994 24.0261 161.0579 24.5763 C 161.6164 25.1265 161.9259 25.8809 161.9148 26.6648 Z " stroke-width="1" fill="#dd2c2c" stroke="none"/><path d="M 184.7146 26.6228 C 184.7274 27.411 184.4198 28.1708 183.8623 28.7281 C 183.3047 29.2855 182.5449 29.5928 181.7566 29.5798 L 168.8123 29.5798 C 167.9548 29.5839 167.1324 29.2392 166.5342 28.6247 C 165.936 28.0103 165.6134 27.1791 165.6404 26.322 L 165.6404 3.7341 C 165.612 2.8726 165.9328 2.0362 166.5301 1.4146 C 167.1273 0.7931 167.9503 0.4392 168.8123 0.4333 L 181.2849 0.4333 C 182.0734 0.4203 182.8333 0.7278 183.3909 1.2854 C 183.9485 1.8429 184.2559 2.6029 184.2429 3.3913 C 184.2524 4.171 183.9409 4.9203 183.3815 5.4634 C 182.8221 6.0066 182.064 6.2959 181.2849 6.2634 L 172.241 6.2634 L 172.241 12.1775 L 179.9998 12.1775 C 180.9998 12.1469 181.9372 12.663 182.4463 13.5243 C 182.9553 14.3856 182.9553 15.4556 182.4463 16.317 C 181.9372 17.1783 180.9998 17.6943 179.9998 17.6638 L 172.241 17.6638 L 172.241 23.7507 L 181.7566 23.7507 C 182.5357 23.7182 183.2938 24.0075 183.8532 24.5506 C 184.4126 25.0938 184.7241 25.8431 184.7146 26.6228 Z " stroke-width="1" fill="#dd2c2c" stroke="none"/><path d="M 189.2117 26.7077 L 189.2117 3.9909 C 189.211 2.9755 189.62 2.0027 190.3461 1.2928 C 191.0722 0.5828 192.0539 0.1959 193.0691 0.2194 C 194.556 0.2357 195.931 1.0122 196.7127 2.2771 L 208.6717 18.5642 L 208.7137 18.5642 L 208.7137 3.3054 C 208.7843 1.581 210.2027 0.2195 211.9285 0.2195 C 213.6543 0.2195 215.0728 1.581 215.1434 3.3054 L 215.1434 25.9792 C 215.146 26.9991 214.739 27.9774 214.0138 28.6946 C 213.2886 29.4117 212.3058 29.8077 211.286 29.7937 C 209.7571 29.7292 208.3599 28.9104 207.5565 27.6081 L 195.7274 11.6638 L 195.6414 11.6638 L 195.6844 26.7077 C 195.6021 28.4352 194.1776 29.7936 192.4481 29.7936 C 190.7186 29.7936 189.2941 28.4352 189.2118 26.7077 Z " stroke-width="1" fill="#dd2c2c" stroke="none"/><path d="M 243.9422 3.3484 C 243.968 4.1142 243.681 4.8575 243.1474 5.4073 C 242.6137 5.9572 241.8793 6.2662 241.1131 6.2634 L 234.6844 6.2634 L 234.6844 26.4938 C 234.6812 28.3143 233.2045 29.7884 231.3841 29.7884 C 229.5636 29.7884 228.0869 28.3143 228.0838 26.4938 L 228.0838 6.2634 L 221.6971 6.2634 C 220.1041 6.2396 218.8252 4.9415 218.8252 3.3484 C 218.8252 1.7552 220.1041 0.4571 221.6971 0.4333 L 241.1131 0.4333 C 241.8793 0.4305 242.6137 0.7395 243.1474 1.2894 C 243.681 1.8392 243.968 2.5826 243.9422 3.3484 Z " stroke-width="1" fill="#dd2c2c" stroke="none"/><path d="M 254.7381 26.4079 C 254.7381 24.4668 256.3116 22.8933 258.2527 22.8933 C 260.1938 22.8933 261.7674 24.4668 261.7674 26.4079 C 261.7674 28.349 260.1938 29.9226 258.2527 29.9226 C 256.3257 29.8891 254.7715 28.335 254.7381 26.4079 Z M 256.5818 18.3933 C 255.5353 14.1111 254.9602 9.7273 254.867 5.32 C 254.867 1.5905 256.324 0.1335 258.2527 0.1335 C 260.1815 0.1335 261.5965 1.6335 261.5965 5.32 C 261.5224 9.7261 260.9617 14.1104 259.9246 18.3933 C 259.6678 19.4646 259.1961 20.1931 258.2957 20.1931 C 257.3533 20.1931 256.8387 19.4646 256.5818 18.3933 Z " stroke-width="1" fill="#dd2c2c" stroke="none"/></g></g></g></svg>