<svg xmlns="http://www.w3.org/2000/svg" xmlns:xlink="http://www.w3.org/1999/xlink" version="1.1" width="17.1748" height="17.125" viewBox="0,0,17.1748,17.125"><defs><linearGradient x1="234.60416" y1="180" x2="251.72916" y2="180" gradientUnits="userSpaceOnUse" id="color-1"><stop offset="0" stop-color="#9966ff" stop-opacity="0"/><stop offset="1" stop-color="#9966ff" stop-opacity="0"/></linearGradient></defs><g><g data-paper-data="{&quot;isPaintingLayer&quot;:true}" fill-rule="nonzero" stroke-linecap="butt" stroke-linejoin="miter" stroke-miterlimit="10" stroke-dasharray="" stroke-dashoffset="0" style="mix-blend-mode: normal"><path d="M 0 4.4837 C 0 2.067 1.4874 0.4631 3.7183 0.4631 C 5.9957 0.4631 7.5064 2.067 7.5064 4.4837 C 7.5064 6.9242 5.9957 8.5042 3.7183 8.5042 C 1.4874 8.5043 0 6.9242 0 4.4837 Z M 1.7659 15.2905 C 1.7862 14.958 1.9268 14.6443 2.1615 14.4078 L 13.2702 0.9513 C 13.5019 0.6798 13.8431 0.5263 14.2 0.5329 C 14.8784 0.5373 15.4273 1.0862 15.4317 1.7646 C 15.4394 2.1191 15.3056 2.4621 15.0599 2.7177 L 3.974 16.1277 C 3.7437 16.4039 3.4038 16.5651 3.0442 16.5688 C 2.7014 16.5816 2.3687 16.4511 2.1262 16.2085 C 1.8836 15.966 1.7531 15.6333 1.7659 15.2905 Z M 5.0198 4.4837 C 5.0198 3.3452 4.5088 2.6012 3.7183 2.6012 C 2.9515 2.6012 2.44 3.3452 2.44 4.4837 C 2.44 5.6459 2.9515 6.3894 3.7183 6.3894 C 4.5088 6.3894 5.0198 5.6459 5.0198 4.4837 Z M 9.6679 12.6413 C 9.6679 10.2241 11.1553 8.6208 13.41 8.6208 C 15.6874 8.6208 17.1748 10.2241 17.1748 12.6413 C 17.1748 15.0586 15.6874 16.6619 13.41 16.6619 C 11.1553 16.6619 9.6679 15.0586 9.6679 12.6413 Z M 14.711 12.6413 C 14.711 11.5024 14.1767 10.7356 13.41 10.7356 C 12.6194 10.7356 12.1317 11.5024 12.1317 12.6413 C 12.1317 13.7803 12.6194 14.5471 13.41 14.5471 C 14.1767 14.5471 14.711 13.7803 14.711 12.6413 Z " fill="#1b1b1b" stroke-width="1" stroke="none"/><path d="M234.60416,188.5625v-17.125h17.125v17.125z" fill="url(#color-1)" stroke-width="0" stroke="none" transform="matrix(1,0,0,1,-234.57926,-171.4375)"/></g></g></svg>