<svg xmlns="http://www.w3.org/2000/svg" xmlns:xlink="http://www.w3.org/1999/xlink" version="1.1" width="130.49928" height="30.98968" viewBox="0,0,130.49928,30.98968"><g><g data-paper-data="{&quot;isPaintingLayer&quot;:true}" fill-rule="nonzero" stroke-linecap="butt" stroke-linejoin="miter" stroke-miterlimit="10" stroke-dasharray="" stroke-dashoffset="0" style="mix-blend-mode: normal"><g><path d="M 0 27.4746 L 0 4.458 C 0.0233 2.652 1.4941 1.2001 3.3003 1.2001 C 5.1065 1.2001 6.5773 2.652 6.6006 4.458 L 6.6006 27.4746 C 6.5974 29.2951 5.1208 30.7692 3.3003 30.7692 C 1.4798 30.7692 0.0032 29.2951 0 27.4746 Z " stroke-width="1" fill="#fc5702" stroke="none"/><path d="M 12.0859 27.5606 L 12.0859 3.2149 C 12.0734 1.4676 13.4678 0.0349 15.2148 0 C 16.985 0.0128 18.4168 1.4447 18.4296 3.2149 L 18.4296 27.5606 C 18.4447 28.7037 17.8435 29.7665 16.8559 30.3425 C 15.8683 30.9185 14.6472 30.9185 13.6596 30.3425 C 12.6721 29.7665 12.0708 28.7037 12.0859 27.5606 Z " stroke-width="1" fill="#fc5702" stroke="none"/><path d="M 23.3134 27.5606 L 23.3134 3.2149 C 23.301 1.4676 24.6954 0.0349 26.4423 0 C 28.2125 0.0128 29.6443 1.4447 29.6572 3.2149 L 29.6572 27.5606 C 29.6722 28.7037 29.071 29.7665 28.0834 30.3425 C 27.0959 30.9185 25.8748 30.9185 24.8872 30.3425 C 23.8996 29.7665 23.2984 28.7037 23.3134 27.5606 Z " stroke-width="1" fill="#fc5702" stroke="none"/><path d="M 52.9296 14.1446 L 52.9296 27.5606 C 52.9314 28.4023 52.5977 29.2101 52.0025 29.8053 C 51.4073 30.4005 50.5995 30.7342 49.7578 30.7324 C 48.2109 30.7151 46.896 29.598 46.6289 28.0742 C 45.2468 29.8733 43.1114 30.9333 40.8427 30.9463 C 37.413 30.9463 34.3271 28.6748 34.3271 23.917 L 34.3271 14.1446 C 34.3118 13.0012 34.913 11.9381 35.9006 11.362 C 36.8883 10.7858 38.1096 10.7858 39.0973 11.362 C 40.085 11.9381 40.6862 13.0012 40.6709 14.1446 L 40.6709 22.46 C 40.6709 24.2168 41.3564 25.5459 43.2851 25.5459 C 44.7563 25.4864 46.0523 24.5608 46.5859 23.1885 L 46.5859 14.1446 C 46.5706 13.0012 47.1718 11.9381 48.1594 11.362 C 49.1471 10.7858 50.3684 10.7858 51.3561 11.362 C 52.3438 11.9381 52.945 13.0012 52.9297 14.1446 Z " stroke-width="1" fill="#fc5702" stroke="none"/><path d="M 58.541 29.6172 C 57.448 29.2232 56.7022 28.2068 56.6543 27.0459 C 56.6254 26.4157 56.8572 25.8013 57.2952 25.3473 C 57.7332 24.8932 58.3388 24.6394 58.9697 24.6456 C 59.9038 24.7376 60.8163 24.9837 61.6699 25.3741 C 62.7724 25.7601 63.9306 25.963 65.0986 25.9747 C 66.8554 25.9747 67.542 25.5889 67.542 24.9454 C 67.542 24.0459 66.042 23.7452 63.5556 23.0166 C 59.6553 21.8594 57.041 20.5733 57.041 16.9736 C 57.041 13.416 59.7842 10.7588 65.0986 10.7588 C 67.0544 10.7662 68.9954 11.0992 70.8418 11.7442 C 72.004 12.041 72.8271 13.0743 72.8564 14.2735 C 72.9192 14.9167 72.7089 15.5567 72.277 16.0374 C 71.8451 16.5182 71.2312 16.7955 70.5849 16.8018 C 69.7955 16.7243 69.0184 16.5515 68.2705 16.2871 C 67.2387 15.9904 66.1721 15.8321 65.0986 15.8164 C 63.5986 15.8164 62.9131 16.1592 62.9131 16.8018 C 62.9131 17.6162 63.9414 17.8731 67.1562 18.8164 C 70.5849 19.8018 73.414 21.002 73.414 24.6885 C 73.414 28.417 70.499 30.9893 65.1845 30.9893 C 62.8981 31.0056 60.634 30.538 58.541 29.6172 Z " stroke-width="1" fill="#fc5702" stroke="none"/><path d="M 77.0117 4.586 C 76.9943 3.2299 77.7978 1.9977 79.0457 1.4667 C 80.2936 0.9356 81.7387 1.211 82.7038 2.1637 C 83.669 3.1165 83.963 4.5579 83.4482 5.8125 C 82.9333 7.0672 81.7116 7.8866 80.3554 7.8868 C 79.4713 7.9027 78.6181 7.5614 77.9888 6.9402 C 77.3595 6.319 77.0072 5.4702 77.0117 4.586 Z M 77.1835 27.5606 L 77.1835 14.1446 C 77.1867 12.395 78.6058 10.9783 80.3554 10.9783 C 82.105 10.9783 83.5242 12.395 83.5273 14.1446 L 83.5273 27.5606 C 83.5424 28.7038 82.9411 29.7666 81.9536 30.3425 C 80.966 30.9185 79.7449 30.9185 78.7573 30.3425 C 77.7697 29.7666 77.1685 28.7037 77.1836 27.5606 Z " stroke-width="1" fill="#fc5702" stroke="none"/><path d="M 87.2539 20.7881 C 87.2539 14.8301 91.9687 10.7588 97.7129 10.7588 C 103.499 10.7588 108.1709 14.8301 108.1709 20.7881 C 108.0296 26.4628 103.3888 30.9895 97.7124 30.9895 C 92.0359 30.9895 87.3951 26.4628 87.2539 20.7881 Z M 101.7421 20.7881 C 101.7421 17.7022 99.7705 16.1592 97.7128 16.1592 C 95.6552 16.1592 93.6836 17.7022 93.6836 20.7881 C 93.6836 23.917 95.6552 25.5889 97.7128 25.5889 C 99.7705 25.5889 101.7421 23.917 101.7421 20.7881 Z " stroke-width="1" fill="#fc5702" stroke="none"/><path d="M 130.499 17.7881 L 130.499 27.5606 C 130.514 28.7038 129.9128 29.7666 128.9252 30.3425 C 127.9377 30.9185 126.7166 30.9185 125.729 30.3425 C 124.7414 29.7666 124.1402 28.7037 124.1552 27.5606 L 124.1552 19.2452 C 124.1552 17.4874 123.4687 16.1592 121.54 16.1592 C 120.0692 16.2191 118.7736 17.1447 118.2402 18.5166 L 118.2402 27.5606 C 118.2553 28.7038 117.654 29.7666 116.6664 30.3425 C 115.6789 30.9185 114.4578 30.9185 113.4702 30.3425 C 112.4826 29.7666 111.8814 28.7037 111.8964 27.5606 L 111.8964 14.1446 C 111.8944 13.3027 112.2279 12.4948 112.8232 11.8995 C 113.4185 11.3042 114.2265 10.9707 115.0683 10.9727 C 116.6149 10.99 117.9297 12.1066 118.1972 13.6299 C 119.5797 11.8315 121.715 10.7719 123.9834 10.7588 C 127.412 10.7588 130.499 13.0303 130.499 17.7881 Z " stroke-width="1" fill="#fc5702" stroke="none"/></g></g></g></svg>