<svg xmlns="http://www.w3.org/2000/svg" xmlns:xlink="http://www.w3.org/1999/xlink" version="1.1" width="17.125" height="17.13097" viewBox="0,0,17.125,17.13097"><defs><linearGradient x1="231.4375" y1="180" x2="248.5625" y2="180" gradientUnits="userSpaceOnUse" id="color-1"><stop offset="0" stop-color="#9966ff" stop-opacity="0"/><stop offset="1" stop-color="#9966ff" stop-opacity="0"/></linearGradient></defs><g><g data-paper-data="{&quot;isPaintingLayer&quot;:true}" fill-rule="nonzero" stroke-linecap="butt" stroke-linejoin="miter" stroke-miterlimit="10" stroke-dasharray="" stroke-dashoffset="0" style="mix-blend-mode: normal"><path d="M 2.4199 8.6389 C 2.4199 2.9368 5.1607 0 8.5625 0 C 11.964 0 14.7051 2.8389 14.7051 8.6389 C 14.7051 14.341 11.964 17.131 8.5625 17.131 C 5.1607 17.131 2.4199 14.341 2.4199 8.6389 Z M 10.8384 8.5655 C 10.8384 4.9679 9.9574 3.3772 8.5625 3.3772 C 7.1921 3.3772 6.2621 4.9679 6.2621 8.5655 C 6.2621 12.1385 7.1921 13.7783 8.5625 13.7783 C 9.9329 13.7783 10.8384 12.1385 10.8384 8.5655 Z " fill="#1a1a1a" stroke-width="1" stroke="none"/><path d="M231.4375,188.5625v-17.125h17.125v17.125z" fill="url(#color-1)" stroke-width="0" stroke="none" transform="matrix(1,0,0,1,-231.4375,-171.43453)"/></g></g></svg>