<svg xmlns="http://www.w3.org/2000/svg" xmlns:xlink="http://www.w3.org/1999/xlink" version="1.1" width="55.40528" height="18.61687" viewBox="0,0,55.40528,18.61687"><g><g data-paper-data="{&quot;isPaintingLayer&quot;:true}" fill-rule="nonzero" stroke-linecap="butt" stroke-linejoin="miter" stroke-miterlimit="10" stroke-dasharray="" stroke-dashoffset="0" style="mix-blend-mode: normal"><path d="M 10.7124 16.6075 C 10.7147 17.0771 10.5274 17.5278 10.1929 17.8575 C 9.8584 18.1872 9.405 18.3678 8.9354 18.3586 L 1.9578 18.3586 C 1.432 18.3661 0.9259 18.1587 0.5565 17.7844 C 0.1871 17.4102 -0.0137 16.9014 0.0007 16.3757 L 0.0007 2.678 C -0.0024 2.1535 0.2064 1.65 0.5797 1.2816 C 0.953 0.9131 1.4592 0.711 1.9836 0.721 C 2.5079 0.711 3.0141 0.9132 3.3873 1.2816 C 3.7605 1.6501 3.9691 2.1536 3.9659 2.678 L 3.9659 14.8569 L 8.9354 14.8569 C 9.4061 14.8432 9.8621 15.0223 10.1976 15.3528 C 10.5331 15.6833 10.719 16.1365 10.7124 16.6074 Z " stroke-width="1" fill="#fe5a01" stroke="none"/><path d="M 23.2497 11.6385 C 23.2846 12.1047 23.137 12.5663 22.8378 12.9256 C 22.3949 13.3183 21.802 13.4971 21.2157 13.4149 L 15.4994 13.4149 C 15.8602 14.6509 16.9156 15.3461 18.6151 15.3461 C 19.0915 15.3471 19.5664 15.2951 20.0313 15.1912 C 20.377 15.1036 20.7309 15.0519 21.0872 15.037 C 21.482 15.0335 21.8612 15.1907 22.1379 15.4723 C 22.4146 15.7539 22.5649 16.1359 22.5545 16.5306 C 22.5541 17.2214 22.1222 17.8384 21.4733 18.0752 C 20.4327 18.4471 19.3341 18.6303 18.2291 18.6161 C 14.5467 18.6161 11.7144 16.2472 11.7144 12.5654 C 11.7144 8.9862 14.264 6.463 17.8683 6.463 C 19.2814 6.3879 20.6623 6.902 21.6822 7.8829 C 22.702 8.8638 23.2696 10.2236 23.2496 11.6384 Z M 19.9797 11.2261 C 19.9691 10.6693 19.7272 10.1421 19.312 9.7709 C 18.8969 9.3997 18.3459 9.2181 17.7915 9.2696 C 16.6212 9.2153 15.6037 10.0649 15.4484 11.2261 Z " stroke-width="1" fill="#fe5a01" stroke="none"/><path d="M 28.218 16.8908 L 24.5098 9.3465 C 24.3714 9.0664 24.3008 8.7577 24.3039 8.4454 C 24.3241 7.4099 25.1736 6.5834 26.2093 6.5916 C 27.0189 6.6006 27.7422 7.0997 28.0379 7.8534 C 28.9901 10.0158 30.252 12.7197 30.5353 13.8783 L 30.5869 13.8783 C 30.8186 12.7197 32.0799 9.939 33.1101 7.8276 C 33.3962 7.0701 34.1285 6.5749 34.9381 6.5916 C 35.9289 6.6391 36.7095 7.4534 36.715 8.4454 C 36.7181 8.7577 36.6476 9.0664 36.5091 9.3465 L 32.7751 16.9682 C 32.4356 17.8941 31.5471 18.5036 30.5611 18.4871 C 29.4535 18.4871 28.7841 17.9984 28.218 16.8908 Z " stroke-width="1" fill="#fe5a01" stroke="none"/><path d="M 49.3298 11.6385 C 49.3647 12.1047 49.2171 12.5663 48.9179 12.9256 C 48.475 13.3183 47.8821 13.4971 47.2959 13.4149 L 41.5795 13.4149 C 41.9403 14.6509 42.9957 15.3461 44.6952 15.3461 C 45.1716 15.3471 45.6465 15.2951 46.1114 15.1912 C 46.4572 15.1036 46.811 15.0519 47.1674 15.037 C 47.5621 15.0336 47.9414 15.1907 48.218 15.4723 C 48.4947 15.754 48.645 16.1359 48.6346 16.5306 C 48.6342 17.2214 48.2023 17.8384 47.5534 18.0752 C 46.5128 18.4471 45.4142 18.6303 44.3092 18.6161 C 40.6268 18.6161 37.7945 16.2472 37.7945 12.5654 C 37.7945 8.9862 40.3441 6.4631 43.9484 6.4631 C 45.3615 6.3879 46.7424 6.902 47.7623 7.8829 C 48.7822 8.8638 49.3497 10.2236 49.3298 11.6385 Z M 46.0598 11.2261 C 46.0492 10.6693 45.8073 10.1421 45.3921 9.7709 C 44.977 9.3997 44.4261 9.2181 43.8716 9.2696 C 42.7013 9.2153 41.6839 10.0649 41.5285 11.2261 Z " stroke-width="1" fill="#fe5a01" stroke="none"/><path d="M 51.5942 16.5564 L 51.5942 1.9312 C 51.5868 0.8816 52.4244 0.0209 53.4739 0 C 54.5373 0.0077 55.3974 0.8679 55.4051 1.9312 L 55.4051 16.5564 C 55.4142 17.2432 55.053 17.8816 54.4597 18.2276 C 53.8664 18.5736 53.1329 18.5736 52.5396 18.2276 C 51.9464 17.8816 51.5852 17.2432 51.5942 16.5564 Z " stroke-width="1" fill="#fe5a01" stroke="none"/></g></g></svg>