<svg xmlns="http://www.w3.org/2000/svg" xmlns:xlink="http://www.w3.org/1999/xlink" version="1.1" width="173.26856" height="29.98214" viewBox="0,0,173.26856,29.98214"><g><g data-paper-data="{&quot;isPaintingLayer&quot;:true}" fill-rule="nonzero" stroke-linecap="butt" stroke-linejoin="miter" stroke-miterlimit="10" stroke-dasharray="" stroke-dashoffset="0" style="mix-blend-mode: normal"><g><path d="M 2.0576 27.6247 C 0.8359 27.0096 0.047 25.777 0 24.4099 C -0.0023 23.6327 0.3113 22.8879 0.8689 22.3465 C 1.4265 21.8051 2.1802 21.5136 2.957 21.5388 C 3.8813 21.5997 4.7644 21.9437 5.4863 22.5241 C 6.9408 23.5518 8.677 24.1056 10.458 24.1101 C 12.7724 24.1101 14.2724 22.9529 14.2724 21.3669 C 14.2724 19.3523 11.7011 18.7527 9.0009 17.7234 C 3.9433 15.7947 1.0713 13.4802 1.0713 8.8084 C 1.0713 3.7078 4.6718 0.0213 11.0586 0.0213 C 13.2575 -0.1037 15.4528 0.3237 17.4443 1.2644 C 18.7141 1.7469 19.5966 2.9124 19.7168 4.2654 C 19.7629 4.9932 19.5177 5.7094 19.0351 6.2561 C 18.5526 6.8027 17.8723 7.135 17.1445 7.1795 C 16.3729 7.1379 15.6165 6.949 14.916 6.6229 C 13.7049 6.1197 12.4115 5.8436 11.1006 5.8084 C 8.8291 5.8084 7.5439 6.9227 7.5439 8.3367 C 7.5439 10.4373 10.0293 11.1229 13.0302 12.2371 C 16.9736 13.6951 20.7021 15.7088 20.7021 20.9813 C 20.7021 26.8104 16.1162 29.9393 10.2011 29.9393 C 7.3269 29.9211 4.5118 29.121 2.0576 27.6247 Z " stroke-width="1" fill="#dd2c2c" stroke="none"/><path d="M 24.9854 17.2947 L 24.9854 3.4939 C 25.0089 1.6879 26.4796 0.2363 28.2856 0.2363 C 30.0917 0.2363 31.5624 1.6879 31.5859 3.4939 L 31.5859 17.2527 C 31.5859 22.3952 34.5009 24.1531 37.6299 24.1531 C 40.6299 24.1531 43.6729 22.3103 43.6729 17.2527 L 43.6729 3.322 C 43.7937 1.553 45.286 0.1928 47.0586 0.2361 C 47.8892 0.222 48.6912 0.5398 49.2866 1.1191 C 49.882 1.6984 50.2217 2.4913 50.2305 3.322 L 50.2305 17.2947 C 50.2305 25.8679 44.0586 29.9822 37.5869 29.9822 C 31.0713 29.9822 24.9854 25.8679 24.9854 17.2947 Z " stroke-width="1" fill="#dd2c2c" stroke="none"/><path d="M 77.1016 10.5232 C 77.1016 15.4949 73.7148 20.5525 66.4287 20.5525 L 62.6992 20.5525 L 62.6992 26.5535 C 62.6992 28.3762 61.2216 29.8538 59.3989 29.8538 C 57.5762 29.8538 56.0986 28.3762 56.0986 26.5535 L 56.0986 3.7507 C 56.0871 2.8867 56.4194 2.0534 57.0223 1.4344 C 57.6252 0.8154 58.4494 0.4612 59.3135 0.4499 L 66.4287 0.4499 C 73.7148 0.4499 77.1016 5.5505 77.1016 10.5232 Z M 70.3291 10.4802 C 70.3291 8.2087 68.8721 6.28 65.6572 6.28 L 62.6992 6.28 L 62.6992 14.7234 L 65.6572 14.7234 C 68.8721 14.7234 70.3291 12.7517 70.3291 10.4802 Z " stroke-width="1" fill="#dd2c2c" stroke="none"/><path d="M 100.3721 26.6394 C 100.3849 27.4277 100.0773 28.1874 99.5197 28.7448 C 98.9622 29.3021 98.2023 29.6094 97.4141 29.5964 L 84.4697 29.5964 C 83.6122 29.6005 82.7899 29.2558 82.1917 28.6414 C 81.5935 28.0269 81.2708 27.1957 81.2979 26.3386 L 81.2979 3.7507 C 81.2695 2.8892 81.5903 2.0528 82.1875 1.4313 C 82.7848 0.8097 83.6078 0.4559 84.4697 0.4499 L 96.9424 0.4499 C 97.7308 0.4369 98.4908 0.7444 99.0483 1.302 C 99.6059 1.8595 99.9134 2.6195 99.9004 3.4079 C 99.9099 4.1876 99.5984 4.9369 99.039 5.48 C 98.4796 6.0232 97.7214 6.3124 96.9424 6.28 L 87.8984 6.28 L 87.8984 12.1941 L 95.6572 12.1941 C 96.6572 12.1635 97.5947 12.6796 98.1037 13.5409 C 98.6127 14.4022 98.6127 15.4723 98.1037 16.3336 C 97.5947 17.1949 96.6572 17.7109 95.6572 17.6804 L 87.8984 17.6804 L 87.8984 23.7673 L 97.4141 23.7673 C 98.1931 23.7348 98.9512 24.0241 99.5107 24.5673 C 100.0701 25.1104 100.3816 25.8597 100.3721 26.6394 Z " stroke-width="1" fill="#dd2c2c" stroke="none"/><path d="M 127.2002 26.5964 C 127.211 27.4447 126.8816 28.2621 126.2857 28.8659 C 125.6897 29.4698 124.8768 29.8099 124.0283 29.8103 C 122.8985 29.797 121.8449 29.2382 121.2002 28.3103 L 113.9131 19.2663 L 111.4698 19.2663 L 111.4698 26.5105 C 111.4742 27.3945 111.122 28.2429 110.4929 28.864 C 109.8638 29.485 109.0109 29.8261 108.127 29.8103 C 107.2541 29.8155 106.416 29.4682 105.8027 28.847 C 105.1894 28.2258 104.8528 27.3833 104.8692 26.5105 L 104.8692 3.6218 C 104.901 1.8666 106.3286 0.4581 108.084 0.4499 L 115.1133 0.4499 C 122.2286 0.4499 125.7432 4.822 125.7432 9.7087 C 125.7901 13.199 123.8207 16.4035 120.6856 17.9382 L 126.2149 24.196 C 126.8432 24.8374 127.1966 25.6985 127.2002 26.5964 Z M 111.4697 13.78 L 114.5566 13.78 C 117.2139 13.78 118.9277 12.5378 118.9277 10.0944 C 118.9277 7.5651 117.2139 6.28 114.5566 6.28 L 111.4697 6.28 Z " stroke-width="1" fill="#dd2c2c" stroke="none"/><path d="M 153.1709 21.0671 C 153.1709 25.5671 150.085 29.5964 143.1836 29.5964 L 134.6973 29.5964 C 133.8397 29.6005 133.0174 29.2558 132.4192 28.6414 C 131.821 28.027 131.4984 27.1957 131.5254 26.3386 L 131.5254 3.7507 C 131.497 2.8892 131.8178 2.0528 132.4151 1.4313 C 133.0123 0.8097 133.8353 0.4559 134.6973 0.4499 L 142.8408 0.4499 C 149.2275 0.4499 152.1856 4.5222 152.1856 8.3796 C 152.3226 10.8841 151.1342 13.2765 149.0557 14.6804 C 151.5703 15.8075 153.1837 18.3115 153.1709 21.0671 Z M 138.041 6.1081 L 138.041 12.237 L 142.0264 12.237 C 144.5986 12.237 145.499 10.694 145.499 9.1081 C 145.499 7.6511 144.5986 6.1081 142.0264 6.1081 Z M 146.4844 20.7243 C 146.4844 19.2663 145.541 17.6804 142.9268 17.6804 L 138.041 17.6804 L 138.041 23.9382 L 142.9268 23.9382 C 145.541 23.9382 146.4844 22.3523 146.4844 20.7244 Z " stroke-width="1" fill="#dd2c2c" stroke="none"/><path d="M 166.2393 26.4245 C 166.2393 24.4834 167.8128 22.9099 169.7539 22.9099 C 171.695 22.9099 173.2686 24.4834 173.2686 26.4245 C 173.2686 28.3656 171.695 29.9392 169.7539 29.9392 C 167.8269 29.9057 166.2727 28.3516 166.2393 26.4245 Z M 168.083 18.4099 C 167.0365 14.1277 166.4614 9.7439 166.3682 5.3366 C 166.3682 1.6072 167.8252 0.1501 169.7539 0.1501 C 171.6827 0.1501 173.0977 1.6501 173.0977 5.3366 C 173.0236 9.7427 172.4629 14.127 171.4258 18.4099 C 171.1689 19.4812 170.6973 20.2097 169.7969 20.2097 C 168.8545 20.2097 168.3399 19.4812 168.083 18.4099 Z " stroke-width="1" fill="#dd2c2c" stroke="none"/></g></g></g></svg>