<svg xmlns="http://www.w3.org/2000/svg" xmlns:xlink="http://www.w3.org/1999/xlink" version="1.1" width="194.41316" height="78.29286" viewBox="0,0,194.41316,78.29286"><g><g data-paper-data="{&quot;isPaintingLayer&quot;:true}" fill-rule="nonzero" stroke-linecap="butt" stroke-linejoin="miter" stroke-miterlimit="10" stroke-dasharray="" stroke-dashoffset="0" style="mix-blend-mode: normal"><path d="M 194.4132 78.2929 L 0.0003 78.2929 C -0.0003 62.0641 0 45.8354 0.0012 29.6066 C 0.0013 29.2386 0.0175 28.8706 0.0262 28.5026 L 194.3872 28.5026 C 194.3959 28.8706 194.4121 29.2387 194.4121 29.6066 C 194.4128 45.8354 194.4132 62.0641 194.4132 78.2929 Z " fill="#fed5be" stroke-width="1" stroke="none"/><path d="M 194.3878 25.0613 C 194.3876 26.2084 194.3874 27.3555 194.3872 28.5026 L 0.0262 28.5026 C 0.026 27.3555 0.0258 26.2084 0.0255 25.0613 C 1.1599 25.0558 2.2944 25.0502 3.4289 25.0445 C 4.2879 25.0497 5.151 25.0051 6.0049 25.0748 C 6.7648 25.1367 6.9059 24.8222 6.901 24.138 C 6.8732 20.2346 6.9056 16.3307 6.8793 12.4272 C 6.8193 10.7148 7.154 9.0116 7.8575 7.4493 C 8.687 5.5051 10.0054 3.8087 11.6847 2.5251 C 13.3165 1.2806 15.2171 0.4357 17.2342 0.0581 L 20.3482 0.0007 L 27.245 0 C 28.8862 0.1009 30.5435 -0.1218 32.1683 0.3408 C 33.2388 0.6456 34.1904 1.2129 35.2274 1.5825 C 35.9472 2.1229 36.667 2.6633 37.3869 3.2036 C 38.8054 4.6381 39.9229 6.3415 40.674 8.2139 C 40.9598 8.9312 40.9364 9.722 41.3254 10.3952 C 41.3252 15.0436 41.3358 19.6921 41.3111 24.3404 C 41.308 24.9236 41.4582 25.1091 42.0454 25.0726 C 42.9512 25.0165 43.8622 25.0429 44.771 25.0344 C 45.0574 25.0429 45.3438 25.0589 45.6302 25.059 C 56.5074 25.0603 67.3845 25.0602 78.2617 25.059 C 78.5481 25.0589 78.8345 25.0424 79.1207 25.0336 C 80.2511 25.033 81.3816 25.0325 82.5122 25.0319 C 82.5891 25.0445 82.6668 25.0529 82.7447 25.0569 C 94.1541 25.0544 105.5635 25.0512 116.9729 25.0472 L 120.5147 25.0407 C 120.8791 25.0471 121.2435 25.0591 121.6079 25.0591 C 131.8169 25.0601 142.0259 25.06 152.235 25.0589 C 153.094 25.0587 153.9531 25.044 154.8122 25.036 C 155.1507 25.044 155.4892 25.059 155.8277 25.059 C 168.6811 25.0606 181.5345 25.0614 194.3878 25.0613 Z M 24.0519 5.9437 C 24.5269 5.9775 24.9487 5.9702 25.3564 6.0421 C 31.328 7.0949 34.1524 13.2543 31.0427 18.4703 C 30.7808 18.9097 30.8155 19.1109 31.222 19.3984 C 32.3805 20.2181 32.3693 20.2356 33.0799 19.0354 C 33.186 18.8562 33.289 18.6741 33.3781 18.4861 C 35.3546 14.3398 34.3031 9.3831 30.8135 6.3962 C 27.3629 3.4665 22.4114 3.1115 18.5782 5.519 C 16.2977 6.949 14.6811 9.2289 14.0863 11.854 C 13.4915 14.4792 13.9675 17.2332 15.4089 19.5065 C 15.5463 19.7227 15.7845 20.1077 15.8783 20.0803 C 16.4102 19.8744 16.8896 19.5528 17.2817 19.1387 C 17.5972 18.8574 17.2184 18.623 17.0913 18.4061 C 15.4592 15.8864 15.4055 12.657 16.953 10.0844 C 18.3651 7.4914 21.0997 5.8964 24.0519 5.9437 Z M 22.5028 14.2091 C 22.5007 15.0004 23.093 15.667 23.8789 15.7581 C 24.6604 15.9078 25.4237 15.4243 25.6223 14.6537 C 25.7334 14.0963 26.0369 13.5956 26.4797 13.2393 C 27.0956 12.6389 27.6975 12.0241 28.3092 11.4193 C 29.3846 10.3561 29.3728 10.3711 28.2977 9.3505 C 27.9783 9.0472 27.804 9.0281 27.4888 9.3581 C 26.607 10.2814 25.6774 11.159 24.7803 12.0679 C 24.5438 12.3384 24.2206 12.5181 23.866 12.5762 C 23.0421 12.6572 22.4354 13.384 22.5028 14.2092 Z " fill="#fe5a01" stroke-width="1" stroke="none"/><path d="M 3.4289 25.0445 C 3.4339 20.5672 3.4314 16.0898 3.4467 11.6124 C 3.5342 9.1663 4.3949 6.8108 5.9052 4.8846 C 6.7852 3.7649 7.8168 2.7732 8.9703 1.938 C 10.502 1.0349 12.1701 0.3865 13.9096 0.0181 C 15.018 0.0314 16.1262 0.0447 17.2343 0.0581 C 15.2171 0.4357 13.3165 1.2806 11.6847 2.5251 C 10.0055 3.8087 8.687 5.5051 7.8575 7.4493 C 7.154 9.0116 6.8193 10.7148 6.8793 12.4272 C 6.9056 16.3307 6.8732 20.2346 6.901 24.138 C 6.9059 24.8222 6.7648 25.1367 6.0049 25.0747 C 5.1511 25.0051 4.288 25.0497 3.4289 25.0445 Z " fill="#bd4300" stroke-width="1" stroke="none"/><path d="M 24.0519 5.9437 C 21.0996 5.8964 18.3651 7.4914 16.953 10.0845 C 15.4055 12.657 15.4592 15.8864 17.0913 18.4061 C 17.2183 18.623 17.5972 18.8574 17.2817 19.1387 C 16.8896 19.5528 16.4102 19.8745 15.8783 20.0803 C 15.7845 20.1077 15.5463 19.7227 15.4089 19.5065 C 13.9675 17.2332 13.4915 14.4792 14.0863 11.8541 C 14.6811 9.2289 16.2977 6.949 18.5781 5.519 C 22.4114 3.1115 27.3629 3.4665 30.8135 6.3962 C 34.3031 9.3831 35.3546 14.3398 33.3781 18.4861 C 33.289 18.6741 33.186 18.8562 33.0799 19.0354 C 32.3692 20.2356 32.3804 20.2181 31.2219 19.3984 C 30.8155 19.1109 30.7808 18.9097 31.0427 18.4703 C 34.1524 13.2543 31.328 7.0949 25.3564 6.0421 C 24.9486 5.9702 24.5269 5.9775 24.0518 5.9437 Z " fill="#fafcfe" stroke-width="1" stroke="none"/><path d="M 22.5028 14.2091 C 22.4354 13.384 23.0421 12.6573 23.866 12.5762 C 24.2206 12.5181 24.5438 12.3384 24.7803 12.068 C 25.6775 11.159 26.607 10.2815 27.4888 9.3582 C 27.804 9.0281 27.9783 9.0473 28.2978 9.3505 C 29.3728 10.3711 29.3846 10.3561 28.3092 11.4194 C 27.6975 12.0242 27.0956 12.6389 26.4797 13.2394 C 26.0369 13.5957 25.7334 14.0963 25.6223 14.6538 C 25.4237 15.4243 24.6605 15.9078 23.8789 15.7581 C 23.0929 15.6671 22.5006 15.0004 22.5028 14.2091 Z " fill="#fafcfe" stroke-width="1" stroke="none"/><g><path d="M 20.1774 36.3897 L 20.1774 37.7893 L 21.6741 37.7893 C 21.8837 37.7862 22.0788 37.8963 22.1845 38.0774 C 22.2902 38.2584 22.2902 38.4824 22.1845 38.6635 C 22.0788 38.8445 21.8837 38.9546 21.6741 38.9515 L 20.1774 38.9515 L 20.1774 40.5448 C 20.1774 40.9192 19.8739 41.2227 19.4995 41.2227 C 19.1252 41.2227 18.8217 40.9192 18.8217 40.5448 L 18.8217 35.8702 C 18.8159 35.6933 18.8818 35.5215 19.0044 35.3938 C 19.1271 35.2662 19.2961 35.1935 19.4732 35.1923 L 21.9206 35.1923 C 22.1365 35.1892 22.3374 35.3026 22.4463 35.4891 C 22.5552 35.6757 22.5552 35.9064 22.4463 36.0929 C 22.3374 36.2794 22.1365 36.3928 21.9206 36.3897 Z " stroke-width="1" fill="#191919" stroke="none"/><path d="M 24.4906 37.807 L 24.4906 40.5625 C 24.4936 40.7973 24.3702 41.0156 24.1673 41.1339 C 23.9645 41.2522 23.7137 41.2522 23.5109 41.1339 C 23.308 41.0156 23.1845 40.7973 23.1876 40.5625 L 23.1876 37.807 C 23.193 37.4494 23.4815 37.1609 23.8391 37.1555 C 24.1979 37.1578 24.4882 37.4481 24.4906 37.807 Z " stroke-width="1" fill="#191919" stroke="none"/><path d="M 23.3513 36.329 C 23.2217 36.201 23.1499 36.0258 23.1523 35.8438 C 23.1524 35.4705 23.4541 35.1676 23.8273 35.166 C 24.2005 35.1644 24.5049 35.4648 24.5081 35.838 C 24.5113 36.2112 24.2123 36.5168 23.8391 36.5217 C 23.6571 36.5265 23.4809 36.4569 23.3513 36.329 Z " stroke-width="1" fill="#191919" stroke="none"/><path d="M 27.7914 37.1116 C 27.9569 37.1072 28.1171 37.1704 28.235 37.2867 C 28.353 37.4029 28.4184 37.5622 28.4164 37.7278 C 28.4208 37.8988 28.356 38.0644 28.2367 38.187 C 28.1174 38.3096 27.9537 38.3789 27.7826 38.3792 C 27.3733 38.3549 26.9829 38.5535 26.7615 38.8985 L 26.7615 40.5625 C 26.7645 40.7973 26.6411 41.0156 26.4382 41.1339 C 26.2354 41.2522 25.9846 41.2522 25.7818 41.1339 C 25.5789 41.0156 25.4554 40.7973 25.4585 40.5625 L 25.4585 37.807 C 25.4581 37.574 25.5822 37.3585 25.7839 37.2419 C 25.9857 37.1252 26.2343 37.1252 26.4361 37.2419 C 26.6378 37.3585 26.7619 37.574 26.7615 37.807 L 26.7615 37.8509 C 27.0519 37.3052 27.3953 37.1116 27.7914 37.1116 Z " stroke-width="1" fill="#191919" stroke="none"/><path d="M 32.0617 37.597 C 32.4104 37.9324 32.6044 38.3973 32.5976 38.8811 C 32.6096 39.0405 32.5591 39.1983 32.4568 39.3211 C 32.3053 39.4554 32.1026 39.5165 31.9022 39.4884 L 29.9478 39.4884 C 30.0712 39.911 30.432 40.1487 31.0131 40.1487 C 31.1759 40.149 31.3383 40.1313 31.4973 40.0957 C 31.6155 40.0658 31.7364 40.0481 31.8583 40.043 C 31.9933 40.0418 32.1229 40.0956 32.2175 40.1918 C 32.3121 40.2881 32.3635 40.4187 32.3599 40.5537 C 32.3598 40.7898 32.2121 41.0008 31.9903 41.0818 C 31.6345 41.2089 31.2589 41.2716 30.8811 41.2667 C 29.6221 41.2667 28.6537 40.4568 28.6537 39.198 C 28.6537 37.9743 29.5254 37.1116 30.7577 37.1116 C 31.2408 37.0859 31.713 37.2617 32.0617 37.597 Z M 31.4796 38.7401 C 31.476 38.5497 31.3933 38.3694 31.2513 38.2425 C 31.1094 38.1156 30.921 38.0535 30.7314 38.0711 C 30.3313 38.0526 29.9835 38.3431 29.9303 38.7401 Z " stroke-width="1" fill="#191919" stroke="none"/><path d="M 37.2714 40.0254 C 37.2714 39.8406 36.9633 39.7789 36.4527 39.6292 C 35.6516 39.3915 35.1146 39.1274 35.1146 38.3881 C 35.1146 37.6574 35.678 37.1116 36.7696 37.1116 C 37.1713 37.1131 37.5699 37.1815 37.9492 37.314 C 38.1878 37.375 38.3569 37.5872 38.3629 37.8335 C 38.3758 37.9656 38.3327 38.097 38.2439 38.1958 C 38.1552 38.2945 38.0291 38.3515 37.8964 38.3528 C 37.7343 38.3368 37.5746 38.3014 37.421 38.2471 C 37.2091 38.1861 36.99 38.1536 36.7696 38.1504 C 36.4615 38.1504 36.3207 38.2208 36.3207 38.3528 C 36.3207 38.52 36.5319 38.5728 37.1922 38.7666 C 37.8964 38.9689 38.4775 39.2154 38.4775 39.9726 C 38.4775 40.7384 37.8788 41.2667 36.7872 41.2667 C 36.3176 41.2701 35.8526 41.174 35.4227 40.9849 C 35.1983 40.904 35.0452 40.6952 35.0354 40.4568 C 35.0294 40.3274 35.077 40.2012 35.1669 40.1079 C 35.2569 40.0147 35.3812 39.9625 35.5108 39.9638 C 35.7026 39.9827 35.89 40.0332 36.0654 40.1134 C 36.2918 40.1927 36.5297 40.2344 36.7696 40.2368 C 37.1304 40.2368 37.2714 40.1575 37.2714 40.0254 Z " stroke-width="1" fill="#191919" stroke="none"/><path d="M 39.278 37.7982 C 39.2694 37.4614 39.5286 37.1781 39.8648 37.1568 C 40.201 37.1355 40.4939 37.3838 40.528 37.719 C 40.7707 37.337 41.1934 37.1074 41.646 37.1116 C 42.72 37.1116 43.4507 38.0535 43.4507 39.1892 C 43.4507 40.2368 42.7465 41.2667 41.5844 41.2667 C 41.2063 41.2874 40.8386 41.139 40.5807 40.8618 L 40.5807 42.7369 C 40.5838 42.9717 40.4604 43.19 40.2575 43.3083 C 40.0547 43.4266 39.8039 43.4266 39.6011 43.3083 C 39.3983 43.19 39.2748 42.9717 39.278 42.7369 Z M 40.5807 39.6822 C 40.7147 39.9544 40.9905 40.1281 41.2939 40.1311 C 41.7781 40.1311 42.1301 39.7085 42.1301 39.1892 C 42.1301 38.6608 41.7781 38.2471 41.3026 38.2471 C 40.9903 38.2606 40.7117 38.4475 40.5807 38.7313 Z " stroke-width="1" fill="#191919" stroke="none"/><path d="M 47.2795 39.4884 L 45.3251 39.4884 C 45.4485 39.911 45.8093 40.1487 46.3904 40.1487 C 46.5532 40.149 46.7156 40.1313 46.8746 40.0958 C 46.9928 40.0658 47.1137 40.0481 47.2356 40.043 C 47.3706 40.0418 47.5002 40.0956 47.5948 40.1919 C 47.6894 40.2882 47.7408 40.4187 47.7372 40.5537 C 47.7371 40.7899 47.5894 41.0008 47.3676 41.0818 C 47.0118 41.2089 46.6362 41.2716 46.2584 41.2667 C 44.9994 41.2667 44.031 40.4568 44.031 39.198 C 44.031 37.9743 44.9027 37.1116 46.135 37.1116 C 46.6181 37.0859 47.0903 37.2617 47.439 37.597 C 47.7877 37.9324 47.9817 38.3973 47.9749 38.8811 C 47.9869 39.0405 47.9364 39.1983 47.8341 39.3211 C 47.6826 39.4554 47.4799 39.5165 47.2795 39.4884 Z M 46.8569 38.7401 C 46.8533 38.5497 46.7706 38.3694 46.6286 38.2425 C 46.4867 38.1156 46.2983 38.0535 46.1088 38.0712 C 45.7086 38.0526 45.3608 38.3431 45.3077 38.7401 Z " stroke-width="1" fill="#191919" stroke="none"/><path d="M 50.6418 37.1116 C 51.1249 37.0859 51.597 37.2617 51.9457 37.597 C 52.2944 37.9324 52.4885 38.3973 52.4816 38.8811 C 52.4936 39.0405 52.4431 39.1983 52.3408 39.3211 C 52.1894 39.4554 51.9867 39.5165 51.7862 39.4884 L 49.8318 39.4884 C 49.9552 39.911 50.316 40.1487 50.8971 40.1487 C 51.06 40.149 51.2223 40.1313 51.3813 40.0958 C 51.4995 40.0658 51.6205 40.0481 51.7423 40.043 C 51.8773 40.0418 52.0069 40.0956 52.1015 40.1919 C 52.1961 40.2882 52.2475 40.4188 52.244 40.5537 C 52.2438 40.7899 52.0962 41.0008 51.8743 41.0818 C 51.5185 41.209 51.1429 41.2716 50.7651 41.2667 C 49.5061 41.2667 48.5377 40.4568 48.5377 39.198 C 48.5377 37.9743 49.4094 37.1116 50.6418 37.1116 Z M 49.8144 38.7401 L 51.3636 38.7401 C 51.36 38.5497 51.2773 38.3694 51.1354 38.2425 C 50.9934 38.1156 50.8051 38.0535 50.6155 38.0711 C 50.2154 38.0526 49.8675 38.3431 49.8144 38.7401 Z " stroke-width="1" fill="#191919" stroke="none"/><path d="M 53.0445 39.1892 C 53.0445 38.0974 53.7489 37.1116 54.8669 37.1116 C 55.2671 37.098 55.6565 37.2436 55.9496 37.5165 L 55.9496 35.5621 C 55.9464 35.3273 56.0699 35.109 56.2728 34.9906 C 56.4756 34.8723 56.7265 34.8723 56.9293 34.9906 C 57.1322 35.109 57.2557 35.3273 57.2525 35.5621 L 57.2525 40.5799 C 57.2586 40.7491 57.1952 40.9133 57.0772 41.0347 C 56.9592 41.156 56.7968 41.2239 56.6275 41.2226 C 56.3236 41.2299 56.0608 41.0121 56.0114 40.7121 C 55.7375 41.0656 55.3141 41.2708 54.8669 41.2667 C 53.7489 41.2667 53.0445 40.2719 53.0445 39.1891 Z M 54.365 39.1891 C 54.365 39.6759 54.7344 40.0834 55.2189 40.1311 C 55.5305 40.1243 55.8123 39.9443 55.9496 39.6645 L 55.9496 38.6873 C 55.804 38.4188 55.5243 38.2502 55.2189 38.2471 C 54.7344 38.2947 54.365 38.7022 54.365 39.1891 Z " stroke-width="1" fill="#191919" stroke="none"/></g></g></g></svg>