<svg xmlns="http://www.w3.org/2000/svg" xmlns:xlink="http://www.w3.org/1999/xlink" version="1.1" width="42.98285" height="47.08954" viewBox="0,0,42.98285,47.08954"><defs><linearGradient x1="248.72597" y1="195.47901" x2="249.01911" y2="195.47901" gradientUnits="userSpaceOnUse" id="color-1"><stop offset="0" stop-color="#eaf1f9"/><stop offset="1" stop-color="#838389"/></linearGradient><linearGradient x1="1501.22343" y1="784.912" x2="1504.15144" y2="784.912" gradientUnits="userSpaceOnUse" id="color-2"><stop offset="0" stop-color="#eaf1f9"/><stop offset="1" stop-color="#838389"/></linearGradient><linearGradient x1="30.2174" y1="39.0238" x2="30.5105" y2="39.0238" gradientUnits="userSpaceOnUse" id="color-1-,0,0,1,-218.50857,-156.45523"><stop offset="0" stop-color="#eaf1f9"/><stop offset="1" stop-color="#838389"/></linearGradient><linearGradient x1="1282.7149" y1="628.4568" x2="1285.6429" y2="628.4568" gradientUnits="userSpaceOnUse" id="color-2-,0,0,1,-218.50857,-156.45523"><stop offset="0" stop-color="#eaf1f9"/><stop offset="1" stop-color="#838389"/></linearGradient></defs><g><g data-paper-data="{&quot;isPaintingLayer&quot;:true}" fill-rule="nonzero" stroke-linecap="butt" stroke-linejoin="miter" stroke-miterlimit="10" stroke-dasharray="" stroke-dashoffset="0" style="mix-blend-mode: normal"><path d="M 11.5178 33.2777 C 11.5178 33.2777 7.9402 29.3231 8.0684 22.2492 C 8.0658 17.613 10.8772 15.1992 12.1741 4.4371 L 21.4914 4.4371 L 21.4914 25.7164 Z " fill="#fdd406" stroke-width="1" stroke="none"/><path d="M 21.4914 25.7164 L 21.4914 4.4371 L 30.8088 4.4371 C 32.3582 15.4382 34.9171 17.613 34.9145 22.2492 C 35.0427 29.3231 31.4772 33.2777 31.4772 33.2777 Z " fill="#eb9b08" stroke-width="1" stroke="none"/><path d="M 11.3993 4.4371 L 11.3993 2.581 L 21.4911 2.581 L 21.4911 4.4371 Z " fill="#e6a700" stroke-width="1" stroke="none"/><path d="M 21.4911 4.4371 L 21.4911 2.581 L 31.5829 2.581 L 31.5829 4.4371 Z " fill="#c67500" stroke-width="1" stroke="none"/><path d="M 21.4911 2.581 L 21.4911 0 L 31.5829 0 L 31.5829 2.581 Z " fill="#ed9416" stroke-width="1" stroke="none"/><path d="M 11.3993 2.581 L 11.3993 0 L 21.4911 0 L 21.4911 2.581 Z " fill="#fdca17" stroke-width="1" stroke="none"/><path d="M 21.4917 41.3065 L 8.0658 41.0917 L 8.0658 36.0432 L 21.4917 25.2492 " fill="#0e89c2" stroke-width="1" stroke="none"/><path d="M 21.4917 25.2492 L 34.917 36.0432 L 34.917 41.0917 L 21.4917 41.3065 " fill="#01508b" stroke-width="1" stroke="none"/><path d="M 21.4917 24.1163 L 21.4917 25.4114 L 8.0658 36.0432 L 8.0648 34.8572 Z " fill="#0f787e" stroke-width="1" stroke="none"/><path d="M 34.9175 34.8572 L 34.9166 36.0432 L 21.4912 25.4114 L 21.4912 24.1163 Z " fill="#0f3d54" stroke-width="1" stroke="none"/><path d="M 21.4907 22.9293 L 21.4907 24.2239 L 8.0653 34.8562 L 8.0643 33.6697 Z " fill="#f7ffff" stroke-width="1" stroke="none"/><path d="M 34.917 33.6697 L 34.9161 34.8562 L 21.4907 24.2239 L 21.4907 22.9293 Z " fill="#f2f9f9" stroke-width="1" stroke="none"/><path d="M 0 39.0238 C 0 34.5692 3.6112 30.958 8.0658 30.958 C 12.5204 30.958 16.1315 34.5692 16.1315 39.0238 C 16.1315 43.4784 12.5204 47.0895 8.0658 47.0895 C 3.6112 47.0895 0 43.4784 0 39.0238 Z " fill="#000000" stroke-width="1" stroke="none"/><path d="M 0.7793 39.0238 C 0.7793 34.9996 4.0416 31.7373 8.0658 31.7373 C 12.09 31.7373 15.3523 34.9996 15.3523 39.0238 C 15.3523 43.048 12.09 46.3103 8.0658 46.3103 C 4.0416 46.3103 0.7793 43.048 0.7793 39.0238 Z " fill="#192a5e" stroke-width="1" stroke="none"/><path d="M 2.6903 39.0238 C 2.6903 36.055 5.097 33.6482 8.0658 33.6482 C 11.0346 33.6482 13.4413 36.0549 13.4413 39.0238 C 13.4413 41.9926 11.0346 44.3993 8.0658 44.3993 C 5.097 44.3993 2.6903 41.9926 2.6903 39.0238 Z " fill="#000000" stroke-width="1" stroke="none"/><path d="M 3.5999 39.0238 C 3.5999 36.5573 5.5993 34.5579 8.0658 34.5579 C 10.5322 34.5579 12.5316 36.5573 12.5316 39.0238 C 12.5316 41.4902 10.5322 43.4896 8.0658 43.4896 C 5.5993 43.4896 3.5999 41.4902 3.5999 39.0238 Z " fill="#f7ffff" stroke-width="1" stroke="none"/><path d="M 5.0971 39.0238 C 5.0971 37.3842 6.4262 36.0551 8.0658 36.0551 C 9.7054 36.0551 11.0345 37.3842 11.0345 39.0238 C 11.0345 40.6634 9.7054 41.9925 8.0658 41.9925 C 6.4262 41.9925 5.0971 40.6634 5.0971 39.0238 Z " fill="#939aa2" stroke-width="1" stroke="none"/><path d="M 5.6764 39.0238 C 5.6764 37.7042 6.7462 36.6344 8.0658 36.6344 C 9.3854 36.6344 10.4552 37.7042 10.4552 39.0238 C 10.4552 40.3434 9.3854 41.4132 8.0658 41.4132 C 6.7462 41.4132 5.6764 40.3434 5.6764 39.0238 Z " fill="url(#color-1-,0,0,1,-218.50857,-156.45523)" stroke-width="1" stroke="none"/><path d="M 26.8513 39.0238 C 26.8513 34.5692 30.4625 30.958 34.9171 30.958 C 39.3717 30.958 42.9829 34.5692 42.9829 39.0238 C 42.9829 43.4784 39.3717 47.0895 34.9171 47.0895 C 30.4625 47.0895 26.8513 43.4784 26.8513 39.0238 Z " fill="#000000" stroke-width="1" stroke="none"/><path d="M 27.6306 39.0238 C 27.6306 34.9996 30.8929 31.7373 34.9171 31.7373 C 38.9413 31.7373 42.2036 34.9996 42.2036 39.0238 C 42.2036 43.048 38.9413 46.3103 34.9171 46.3103 C 30.8929 46.3103 27.6306 43.048 27.6306 39.0238 Z " fill="#192a5e" stroke-width="1" stroke="none"/><path d="M 29.5416 39.0238 C 29.5416 36.055 31.9483 33.6482 34.9171 33.6482 C 37.8859 33.6482 40.2926 36.0549 40.2926 39.0238 C 40.2926 41.9926 37.8859 44.3993 34.9171 44.3993 C 31.9483 44.3993 29.5416 41.9926 29.5416 39.0238 Z " fill="#000000" stroke-width="1" stroke="none"/><path d="M 30.4512 39.0238 C 30.4512 36.5573 32.4507 34.5579 34.9171 34.5579 C 37.3835 34.5579 39.383 36.5573 39.383 39.0238 C 39.383 41.4902 37.3835 43.4896 34.9171 43.4896 C 32.4507 43.4896 30.4512 41.4902 30.4512 39.0238 Z " fill="#f7ffff" stroke-width="1" stroke="none"/><path d="M 31.9484 39.0238 C 31.9484 37.3842 33.2775 36.0551 34.9171 36.0551 C 36.5567 36.0551 37.8858 37.3842 37.8858 39.0238 C 37.8858 40.6634 36.5567 41.9925 34.9171 41.9925 C 33.2775 41.9925 31.9484 40.6634 31.9484 39.0238 Z " fill="#939aa2" stroke-width="1" stroke="none"/><path d="M 32.5277 39.0238 C 32.5277 37.7042 33.5975 36.6344 34.9171 36.6344 C 36.2367 36.6344 37.3065 37.7042 37.3065 39.0238 C 37.3065 40.3434 36.2367 41.4132 34.9171 41.4132 C 33.5975 41.4132 32.5277 40.3434 32.5277 39.0238 Z " fill="url(#color-2-,0,0,1,-218.50857,-156.45523)" stroke-width="1" stroke="none"/></g></g></svg>