<svg xmlns="http://www.w3.org/2000/svg" xmlns:xlink="http://www.w3.org/1999/xlink" version="1.1" width="59.68664" height="35.10445" viewBox="0,0,59.68664,35.10445"><g><g data-paper-data="{&quot;isPaintingLayer&quot;:true}" fill-rule="nonzero" stroke-linecap="butt" stroke-linejoin="miter" stroke-miterlimit="10" stroke-dasharray="" stroke-dashoffset="0" style="mix-blend-mode: normal"><path d="M 13.3731 30.6036 L 13.3731 32.4474 C 13.3493 33.9217 12.1474 35.1045 10.6729 35.1045 C 9.1984 35.1045 7.9964 33.9217 7.9727 32.4474 L 7.9727 30.7755 C 5.872 30.5826 3.8315 29.9703 1.9717 28.9747 C 0.8162 28.4319 0.0569 27.2931 0 26.0177 C -0.0007 25.2672 0.2972 24.5472 0.8279 24.0165 C 1.3586 23.4858 2.0786 23.1879 2.8291 23.1886 C 3.5831 23.2367 4.316 23.4568 4.9717 23.8322 C 6.6777 24.6863 8.5508 25.1544 10.458 25.2033 C 12.2588 25.2033 13.9727 24.5177 13.9727 23.0607 C 13.9727 18.8595 0.7715 20.5314 0.7715 11.8732 C 0.7715 7.4162 4.2432 5.0587 7.9727 4.2443 L 7.9727 2.6583 C 7.9957 1.1835 9.1979 0 10.6729 0 C 12.1479 0 13.35 1.1835 13.3731 2.6583 L 13.3731 3.9864 C 14.6363 4.096 15.8776 4.3847 17.0596 4.8439 C 18.9453 5.6153 20.1455 6.5157 20.1455 8.1446 C 20.1469 8.884 19.8539 9.5935 19.3311 10.1163 C 18.8082 10.6391 18.0987 10.9322 17.3594 10.9308 C 16.6995 10.91 16.0477 10.7797 15.4307 10.545 C 13.9107 10.0191 12.3226 9.7158 10.7158 9.6446 C 8.7871 9.6446 7.2441 10.4591 7.2441 11.6163 C 7.2441 15.6446 20.8311 14.4454 20.8311 22.7169 C 20.8311 27.046 17.4873 29.7472 13.3731 30.6036 Z " stroke-width="1" fill="#1b1b1b" stroke="none"/><path d="M 36.044 4.4581 L 36.044 27.7325 C 36.0172 29.4731 34.6127 30.8776 32.8721 30.9044 C 32.0303 30.9063 31.2224 30.5728 30.6271 29.9775 C 30.0318 29.3822 29.6983 28.5743 29.7002 27.7325 L 29.7002 8.4444 L 27.043 9.5157 C 26.5575 9.7403 26.034 9.8712 25.5 9.9014 C 23.9058 9.8814 22.6248 8.5817 22.6279 6.9874 C 22.6354 5.7138 23.4415 4.5819 24.6426 4.1583 L 30.4717 1.7579 C 31.1969 1.4028 31.9816 1.1849 32.7861 1.1153 C 33.6681 1.1053 34.5156 1.4571 35.1312 2.0887 C 35.7468 2.7204 36.0767 3.5767 36.044 4.4581 Z " stroke-width="1" fill="#1b1b1b" stroke="none"/><path d="M 59.6866 27.7973 C 59.6913 28.5939 59.3682 29.3575 58.7932 29.9088 C 58.2182 30.4602 57.4418 30.7509 56.6461 30.7128 C 55.6523 30.6774 54.7303 30.1857 54.1473 29.3801 L 49.483 23.3825 L 47.0258 24.8819 L 47.0258 27.589 C 47.0408 28.7 46.4566 29.7331 45.4969 30.293 C 44.5371 30.8528 43.3503 30.8528 42.3905 30.293 C 41.4308 29.7331 40.8466 28.7 40.8616 27.589 L 40.8616 3.933 C 40.8466 2.822 41.4308 1.7889 42.3905 1.229 C 43.3503 0.6692 44.5371 0.6692 45.4969 1.229 C 46.4566 1.7889 47.0408 2.822 47.0258 3.933 L 47.0258 18.8432 L 54.4806 12.3039 C 55.0428 11.7705 55.7878 11.4725 56.5628 11.4711 C 58.077 11.5186 59.287 12.7469 59.3116 14.2616 C 59.2893 15.195 58.8451 16.0679 58.1039 16.6354 L 54.1473 20.0509 L 58.6039 25.4652 C 59.4366 26.4646 59.6866 27.1306 59.6866 27.7973 Z " stroke-width="1" fill="#1b1b1b" stroke="none"/></g></g></svg>