<svg xmlns="http://www.w3.org/2000/svg" xmlns:xlink="http://www.w3.org/1999/xlink" version="1.1" width="112.27564" height="112.27521" viewBox="0,0,112.27564,112.27521"><g><g data-paper-data="{&quot;isPaintingLayer&quot;:true}" fill-rule="nonzero" stroke-linecap="butt" stroke-linejoin="miter" stroke-miterlimit="10" stroke-dasharray="" stroke-dashoffset="0" style="mix-blend-mode: normal"><path d="M 112.2756 30.2984 L 112.2756 93.3766 C 112.2752 101.6501 106.8956 108.9623 98.9972 111.4252 C 98.6459 111.5344 98.2887 111.6304 97.9289 111.7194 C 97.3797 111.8553 96.8224 111.9704 96.2555 112.0571 C 95.624 112.1535 94.988 112.218 94.35 112.2503 C 94.0277 112.2666 93.7035 112.2748 93.3774 112.2748 L 18.9132 112.2748 L 18.8982 112.2752 C 13.8861 112.2752 9.0793 110.2842 5.5352 106.7401 C 1.9911 103.196 0 98.3891 0 93.377 L 0.0007 93.354 L 0.0007 30.2985 C 0.0011 22.025 5.3807 14.7127 13.2791 12.2498 C 13.7044 12.1176 14.1383 12.0053 14.5758 11.9028 C 14.9101 11.8246 15.2478 11.7554 15.5888 11.6951 C 16.6814 11.5002 17.789 11.4016 18.8988 11.4002 L 93.3775 11.4002 C 96.7197 11.3964 100.0025 12.2834 102.8879 13.9701 C 103.2466 14.1794 103.6005 14.3959 103.9436 14.6277 C 104.4787 14.9903 104.9949 15.3799 105.4902 15.7951 C 109.7943 19.3815 112.2807 24.696 112.2756 30.2984 Z " fill="#b2430b" stroke-width="1" stroke="none"/><path d="M 112.2756 18.8983 L 112.2756 84.9258 C 112.2752 93.1992 106.8955 100.5114 98.9972 102.9743 C 98.6458 103.0836 98.2887 103.1796 97.9288 103.2686 C 97.3797 103.4044 96.8224 103.5196 96.2555 103.6062 C 95.624 103.7026 94.988 103.7671 94.35 103.7994 C 94.0277 103.8158 93.7035 103.8239 93.3774 103.8239 L 18.9132 103.8239 L 18.8982 103.8244 C 13.8861 103.8244 9.0792 101.8333 5.5351 98.2892 C 1.991 94.7451 0 89.9383 0 84.9262 L 0.0006 84.9032 L 0.0006 18.8983 C 0.001 10.6248 5.3807 3.3126 13.279 0.8497 C 13.7043 0.7174 14.1383 0.6052 14.5757 0.5027 C 14.9101 0.4245 15.2478 0.3552 15.5887 0.2949 C 16.6814 0.1001 17.789 0.0014 18.8988 0 L 93.3775 0 C 96.7197 -0.0038 100.0025 0.8833 102.8879 2.5699 C 103.2466 2.7792 103.6005 2.9958 103.9436 3.2276 C 104.4787 3.5901 104.9949 3.9797 105.4902 4.395 C 109.7942 7.9813 112.2807 13.2959 112.2756 18.8983 Z " fill="#fc5a03" stroke-width="1" stroke="none"/><path d="M 79.0178 51.8743 C 87.7468 51.8741 95.0613 58.4768 95.9516 67.1603 C 96.842 75.8437 91.0196 83.7934 82.4721 85.5646 C 73.9247 87.3358 65.4228 82.3544 62.7892 74.0321 L 48.7205 74.0321 C 46.2955 80.9096 39.6917 85.421 32.4032 85.1795 C 25.1148 84.938 18.8241 79.9992 16.8597 72.9764 C 14.8953 65.9535 17.7105 58.4676 23.8159 54.4796 C 29.9212 50.4916 37.9073 50.9219 43.5487 55.543 L 42.5094 53.5566 L 42.1746 53.5484 L 42.2016 52.5908 L 41.8458 52.5831 L 41.8458 50.3078 L 42.5431 50.323 L 46.1416 20.7059 L 45.645 20.7039 L 45.6639 19.7864 L 45.3485 19.7864 L 45.3485 17.718 L 66.0385 17.718 L 66.0327 19.7864 L 65.8028 19.7864 L 65.8028 20.668 L 65.3509 20.6715 L 68.3507 50.6123 L 70.2075 50.6123 L 70.2075 52.8876 L 69.867 52.8876 L 69.867 53.8169 L 69.6665 53.8181 L 68.9546 55.1786 C 71.8692 53.0291 75.3963 51.8709 79.0178 51.8742 Z M 20.2446 72.5365 L 28.0458 69.5459 C 27.934 69.0244 27.9089 68.4879 27.9714 67.9582 L 19.8386 66.0351 C 19.689 66.8394 19.6133 67.6557 19.6124 68.4738 C 19.6117 69.8526 19.825 71.2231 20.2446 72.5365 Z M 91.4199 64.8835 C 90.8678 63.1852 89.9728 61.6183 88.7903 60.2801 L 83.0791 65.6382 C 83.4365 66.0832 83.7193 66.5834 83.9163 67.119 Z M 84.2238 56.9455 C 82.5824 56.2267 80.8098 55.8562 79.0178 55.8573 C 78.8706 55.8573 78.7249 55.8636 78.5788 55.8685 L 79.118 62.4755 L 80.5152 63.2699 L 80.3262 63.8488 C 80.4165 63.8729 80.5072 63.8957 80.5955 63.9243 Z M 73.0091 57.3309 C 72.5169 57.5876 72.0416 57.8755 71.5861 58.1928 L 74.0067 59.5692 Z M 74.151 80.9871 L 76.5774 74.0321 L 73.904 74.0321 L 69.489 77.7803 C 70.7905 79.1765 72.3817 80.271 74.151 80.9871 Z M 79.9723 81.8944 C 82.0341 81.7463 84.0306 81.1067 85.7946 80.0291 L 81.4042 73.6165 C 80.9486 73.8546 80.4605 74.0242 79.9555 74.1199 Z M 89.9998 75.9079 C 91.0135 74.3281 91.6716 72.5466 91.9283 70.6871 L 84.0614 70.3069 C 83.971 70.6439 83.847 70.971 83.6915 71.2832 Z M 33.9083 81.7769 C 36.0319 81.6291 38.0887 80.9721 39.9049 79.8615 L 35.9136 74.0322 L 33.8915 74.0322 Z M 38.3016 56.2485 C 36.6156 55.5092 34.7943 55.1283 32.9533 55.1298 C 32.7977 55.1298 32.6436 55.1363 32.4891 55.1416 L 33.0473 61.9768 L 36.2917 60.1142 L 38.3016 56.2485 Z M 26.8185 56.6253 C 24.9538 57.5942 23.3431 58.9883 22.1168 60.6948 L 29.1891 65.2282 C 29.4984 64.8784 29.8554 64.5738 30.2495 64.3232 L 26.8185 56.6253 Z M 27.985 80.8548 L 30.732 72.9808 C 30.2971 72.7683 29.8956 72.4936 29.5401 72.1651 L 23.1874 77.5584 C 24.5249 78.9964 26.1629 80.122 27.985 80.8548 Z M 29.7052 81.4145 C 30.6649 81.6534 31.6482 81.7849 32.637 81.8067 Z M 43.4755 76.6699 L 41.5043 78.7119 C 42.2317 78.1029 42.8924 77.4184 43.4755 76.6699 Z M 45.0805 74.0322 L 41.9536 74.0322 L 44.1853 75.6682 C 44.5216 75.1445 44.8207 74.5978 45.0805 74.0322 Z " fill="#fcfcfe" stroke-width="1" stroke="none"/></g></g></svg>