<svg xmlns="http://www.w3.org/2000/svg" xmlns:xlink="http://www.w3.org/1999/xlink" version="1.1" width="66.52687" height="35.10445" viewBox="0,0,66.52687,35.10445"><g><g data-paper-data="{&quot;isPaintingLayer&quot;:true}" fill-rule="nonzero" stroke-linecap="butt" stroke-linejoin="miter" stroke-miterlimit="10" stroke-dasharray="" stroke-dashoffset="0" style="mix-blend-mode: normal"><path d="M 13.3731 30.6036 L 13.3731 32.4474 C 13.3493 33.9217 12.1474 35.1045 10.6729 35.1045 C 9.1984 35.1045 7.9964 33.9217 7.9727 32.4474 L 7.9727 30.7755 C 5.8721 30.5826 3.8315 29.9703 1.9717 28.9747 C 0.8162 28.4319 0.0569 27.2931 0 26.0177 C -0.0007 25.2672 0.2972 24.5472 0.8279 24.0165 C 1.3586 23.4858 2.0786 23.1879 2.8291 23.1886 C 3.5831 23.2367 4.316 23.4568 4.9717 23.8322 C 6.6777 24.6863 8.5508 25.1544 10.458 25.2033 C 12.2588 25.2033 13.9727 24.5177 13.9727 23.0607 C 13.9727 18.8595 0.7715 20.5314 0.7715 11.8732 C 0.7715 7.4162 4.2432 5.0587 7.9727 4.2443 L 7.9727 2.6583 C 7.9957 1.1835 9.1979 0 10.6729 0 C 12.1479 0 13.35 1.1835 13.3731 2.6583 L 13.3731 3.9864 C 14.6364 4.096 15.8776 4.3847 17.0596 4.8439 C 18.9453 5.6154 20.1455 6.5157 20.1455 8.1446 C 20.147 8.884 19.8539 9.5935 19.3311 10.1163 C 18.8083 10.6391 18.0987 10.9322 17.3594 10.9308 C 16.6995 10.91 16.0477 10.7797 15.4307 10.545 C 13.9107 10.0191 12.3226 9.7158 10.7158 9.6446 C 8.7871 9.6446 7.2442 10.4591 7.2442 11.6163 C 7.2442 15.6446 20.8311 14.4454 20.8311 22.7169 C 20.8311 27.046 17.4874 29.7472 13.3731 30.6036 Z " stroke-width="1" fill="#191919" stroke="none"/><path d="M 45.045 27.6466 C 45.0409 28.4864 44.6967 29.2886 44.0908 29.8701 C 43.485 30.4517 42.6694 30.7628 41.8301 30.7325 L 26.8711 30.7325 C 26.0626 30.7255 25.2925 30.3863 24.7414 29.7946 C 24.1903 29.2029 23.9067 28.4107 23.9571 27.6036 C 23.9974 26.3507 24.5563 25.1708 25.5001 24.3458 L 33.4717 16.2882 C 35.3585 14.4025 36.6436 12.7736 36.6436 10.5021 C 36.664 9.6281 36.3107 8.7869 35.6725 8.1895 C 35.0343 7.5921 34.1716 7.2951 33.3008 7.3732 C 31.7533 7.4539 30.3297 8.2446 29.4434 9.5157 C 28.8442 10.3179 27.9146 10.8063 26.9141 10.8448 C 26.157 10.8894 25.4136 10.6289 24.8499 10.1216 C 24.2863 9.6142 23.9492 8.9022 23.9141 8.1446 C 23.8828 7.1662 24.2017 6.2087 24.8135 5.4445 C 26.8862 2.6383 30.1992 1.0219 33.6865 1.1154 C 39.9873 1.1154 43.5879 5.0587 43.5879 10.2872 C 43.5879 13.545 42.0869 16.1163 38.958 19.3312 L 33.7295 24.6467 L 41.8301 24.6467 C 42.6598 24.5969 43.4735 24.8897 44.0812 25.4568 C 44.6889 26.0239 45.0373 26.8155 45.045 27.6466 Z " stroke-width="1" fill="#191919" stroke="none"/><path d="M 66.5269 21.3025 C 66.5269 26.9607 62.4976 31.1609 55.8111 31.1609 C 53.2931 31.1907 50.8159 30.5232 48.6538 29.2322 C 47.2818 28.2888 46.6822 27.4314 46.6822 26.0174 C 46.6602 25.2982 46.9302 24.6008 47.4308 24.084 C 47.9314 23.5672 48.6199 23.2751 49.3394 23.2742 C 50.4258 23.313 51.4798 23.6546 52.3824 24.2605 C 53.4764 24.8391 54.7033 25.1196 55.94 25.074 C 56.9698 25.1213 57.974 24.7449 58.719 24.0324 C 59.464 23.3199 59.8848 22.3334 59.8834 21.3025 C 59.8966 20.313 59.4884 19.3645 58.7606 18.6939 C 58.0328 18.0233 57.0541 17.6938 56.0689 17.7879 C 55.1004 17.784 54.1502 18.0512 53.3257 18.5594 C 52.5564 19.0889 51.6445 19.3729 50.7105 19.3738 C 49.7927 19.3974 48.911 19.0157 48.3 18.3303 C 47.6891 17.6449 47.411 16.7253 47.5396 15.8162 L 48.525 4.7146 C 48.6341 2.9507 50.1004 1.5781 51.8677 1.5857 L 62.9263 1.5857 C 63.701 1.5549 64.4538 1.8461 65.0061 2.3902 C 65.5583 2.9343 65.8607 3.6828 65.8413 4.4578 C 65.8617 5.2484 65.5566 6.0126 64.9974 6.5718 C 64.4382 7.131 63.6739 7.4361 62.8833 7.4158 L 54.2251 7.4158 L 53.7115 12.8592 C 54.8342 12.4329 56.0252 12.2148 57.2261 12.2156 C 63.0982 12.2156 66.5269 16.159 66.5269 21.3025 Z " stroke-width="1" fill="#191919" stroke="none"/></g></g></svg>