<svg xmlns="http://www.w3.org/2000/svg" xmlns:xlink="http://www.w3.org/1999/xlink" viewBox="0 0 24.95925 24.95925" width="24.95924949645996" height="24.95924949645996"><defs><linearGradient id="Dégradé_sans_nom_71" x1="-4.08081" y1="-79.24981" x2="20.87844" y2="-79.24981" gradientTransform="translate(-66.77018 4.08081) rotate(90)" gradientUnits="userSpaceOnUse"><stop offset="0" stop-color="#fff" stop-opacity="0"/><stop offset="0.53538" stop-color="#010101" stop-opacity="0.86891"/><stop offset="0.7216"/><stop offset="1" stop-color="#fff" stop-opacity="0"/></linearGradient><linearGradient id="Dégradé_sans_nom_40" x1="116.4273" y1="-19.8345" x2="137.79765" y2="-19.8345" gradientTransform="translate(-7.35488 -114.51535) rotate(90)" gradientUnits="userSpaceOnUse"><stop offset="0" stop-color="#fff"/><stop offset="0.07212" stop-color="#fff" stop-opacity="0.87385"/><stop offset="0.21577" stop-color="#fff" stop-opacity="0.64539"/><stop offset="0.35942" stop-color="#fff" stop-opacity="0.44824"/><stop offset="0.49981" stop-color="#fff" stop-opacity="0.28704"/><stop offset="0.63614" stop-color="#fff" stop-opacity="0.16179"/><stop offset="0.76729" stop-color="#fff" stop-opacity="0.07232"/><stop offset="0.89113" stop-color="#fff" stop-opacity="0.0184"/><stop offset="1" stop-color="#fff" stop-opacity="0"/></linearGradient></defs><g id="Calque_2" data-name="Calque 2"><g id="Calque_4" data-name="Calque 4"><circle cx="12.47963" cy="12.47963" r="12.47963" fill="#a50a0a" stroke-width="1"/><circle cx="12.47963" cy="12.47963" r="12.47963" fill="url(#Dégradé_sans_nom_71)" stroke-width="1"/><circle cx="12.47963" cy="12.47963" r="10.68518" fill="#3a1e1e" stroke-width="1"/><path d="M11.28852,18.11941a11.7595,11.7595,0,0,1,2.38244,0V13.61024H11.28852Z" fill="#dd0a0a" stroke-width="1"/><rect x="11.28836" y="9.20587" width="2.38252" height="2.84453" fill="#dd0a0a" stroke-width="1"/><rect x="11.28836" y="6.22375" width="2.38252" height="1.42226" fill="#dd0a0a" stroke-width="1"/><path d="M13.87947,18.143a8.42482,8.42482,0,0,1,2.30779.5925l1.11807-4.02779L15.01,14.07059Z" fill="#dd0a0a" stroke-width="1"/><rect x="15.53313" y="10.32443" width="2.84453" height="2.38252" transform="matrix(0.2675121708604519,-0.9635544813042636,0.9635544813042636,0.2675121708604519,1.32363,24.77255)" fill="#dd0a0a" stroke-width="1"/><rect x="17.23226" y="6.76578" width="1.42226" height="2.38252" transform="matrix(0.26751,-0.96355,0.96355,0.26751,5.47625,23.11786)" fill="#dd0a0a" stroke-width="1"/><path d="M7.65373,14.70771,8.7718,18.7355A8.424,8.424,0,0,1,11.08,18.143L9.9495,14.07059Z" fill="#dd0a0a" stroke-width="1"/><rect x="6.81259" y="10.09343" width="2.38252" height="2.84453" transform="matrix(0.9635544346145671,-0.26751233903243005,0.26751233903243005,0.9635544346145671,-2.78889,2.56083)" fill="#dd0a0a" stroke-width="1"/><rect x="5.8246" y="7.24591" width="2.38252" height="1.42226" transform="matrix(0.9635544346145671,-0.26751233903243005,0.26751233903243005,0.9635544346145671,-1.87291,2.16683)" fill="#dd0a0a" stroke-width="1"/><circle cx="12.47963" cy="12.59713" r="10.68518" opacity="0.5" fill="url(#Dégradé_sans_nom_40)" stroke-width="1"/><path d="M20.26727,19.77111A10.68546,10.68546,0,0,0,4.703,5.1755,10.68451,10.68451,0,1,1,20.26727,19.77111Z" opacity="0.25" stroke-width="1"/><path d="M20.26727,19.77111A10.68526,10.68526,0,1,1,4.69831,5.18023a10.6846,10.6846,0,0,0,15.569,14.59088Z" fill="#fff" opacity="0.25" stroke-width="1"/></g></g></svg>