<svg xmlns="http://www.w3.org/2000/svg" xmlns:xlink="http://www.w3.org/1999/xlink" version="1.1" width="63.75717" height="30.31543" viewBox="0,0,63.75717,30.31543"><g><g data-paper-data="{&quot;isPaintingLayer&quot;:true}" fill-rule="nonzero" stroke-linecap="butt" stroke-linejoin="miter" stroke-miterlimit="10" stroke-dasharray="" stroke-dashoffset="0" style="mix-blend-mode: normal"><path d="M 63.5072 25.0828 C 63.5015 25.1994 63.4897 25.3156 63.4719 25.4307 C 62.9143 26.482 62.3322 27.3904 61.0339 27.3886 C 44.0298 27.3739 19.7484 27.3708 2.7443 27.3792 C 1.9758 27.3805 1.2567 26.9539 0.8241 26.2402 C 0.6495 25.9869 0.4953 25.7159 0.3318 25.453 C 0.3228 19.1883 0.3142 12.9235 0.306 6.6588 C 0.3044 5.4292 0.3004 4.1996 0.3072 2.97 C 0.3388 1.4745 1.4157 0.2738 2.747 0.25 C 19.7705 0.2473 44.0715 0.2472 61.0951 0.2497 C 62.378 0.2085 63.4523 1.3333 63.5061 2.774 C 63.5091 10.2103 63.5095 17.6466 63.5072 25.0828 Z " fill="#92796b" stroke="#92796b" stroke-width="0.5"/><path d="M208.11063,190.69154c0.16519,0.23401 0.32093,0.47525 0.49738,0.70063c0.43695,0.63524 1.16343,1.01493 1.93979,1.01381c17.17774,-0.00749 41.53868,-0.00472 58.71641,0.00834c1.31155,0.00161 1.89966,-0.80687 2.46288,-1.7426c0.33929,1.73533 -0.08536,3.77577 -1.57779,4.55302c-0.23489,0.11227 -0.49509,0.16255 -0.75538,0.14599c-17.22283,0.0014 -41.62886,0.00114 -58.85167,-0.0008c-1.33402,-0.0542 -2.4034,-2.26537 -2.45973,-3.58582c-0.00259,-0.3641 0.01811,-0.72837 0.02813,-1.09256z" fill="#725f54" stroke="#725f54" stroke-width="0" transform="matrix(1,0,0,1,-208.08229,-165.05839)"/><g><path d="M 22.2688 5.5419 L 22.2688 3.3838 C 22.2691 3.2477 22.3238 3.1173 22.4207 3.0216 C 22.5176 2.9259 22.6487 2.8729 22.7848 2.8744 C 22.921 2.8729 23.0521 2.9259 23.1491 3.0215 C 23.246 3.1172 23.3007 3.2476 23.301 3.3838 L 23.301 5.5353 C 23.301 6.3395 23.7567 6.6144 24.2461 6.6144 C 24.7152 6.6144 25.1911 6.3262 25.1911 5.5353 L 25.1911 3.3569 C 25.21 3.0803 25.4433 2.8676 25.7205 2.8744 C 25.8504 2.8722 25.9758 2.9219 26.0689 3.0125 C 26.162 3.1031 26.2152 3.227 26.2165 3.3569 L 26.2165 5.5419 C 26.2165 6.8826 25.2514 7.5259 24.2394 7.5259 C 23.2205 7.5259 22.2688 6.8825 22.2688 5.5419 Z " stroke-width="1" fill="#fdfdfd" stroke="none"/><path d="M 29.8758 5.4683 L 29.8758 6.9965 C 29.8781 7.1752 29.7841 7.3414 29.6296 7.4315 C 29.4752 7.5216 29.2843 7.5216 29.1298 7.4315 C 28.9754 7.3414 28.8814 7.1752 28.8837 6.9965 L 28.8837 5.6961 C 28.8837 5.4213 28.7764 5.2136 28.4748 5.2136 C 28.2448 5.2229 28.0422 5.3677 27.9588 5.5822 L 27.9588 6.9965 C 27.9611 7.1752 27.8671 7.3414 27.7127 7.4315 C 27.5582 7.5216 27.3673 7.5216 27.2129 7.4315 C 27.0584 7.3414 26.9644 7.1752 26.9668 6.9965 L 26.9668 4.8985 C 26.9664 4.7669 27.0186 4.6406 27.1117 4.5475 C 27.2048 4.4544 27.3311 4.4022 27.4628 4.4025 C 27.7046 4.4052 27.9102 4.5799 27.952 4.8181 C 28.1682 4.5368 28.5021 4.3711 28.8568 4.3691 C 29.393 4.3691 29.8757 4.7243 29.8757 5.4683 Z " stroke-width="1" fill="#fdfdfd" stroke="none"/><path d="M 30.6124 6.9965 L 30.6124 3.1894 C 30.6105 2.9162 30.8285 2.6921 31.1017 2.6867 C 31.3785 2.6887 31.6024 2.9126 31.6044 3.1894 L 31.6044 6.9965 C 31.6068 7.1752 31.5128 7.3414 31.3583 7.4315 C 31.2039 7.5216 31.0129 7.5216 30.8585 7.4315 C 30.7041 7.3414 30.6101 7.1752 30.6124 6.9965 Z " stroke-width="1" fill="#fdfdfd" stroke="none"/><path d="M 32.2006 5.9374 C 32.2006 5.0057 32.9379 4.3691 33.8361 4.3691 C 34.7409 4.3691 35.4715 5.0057 35.4715 5.9374 C 35.4494 6.8248 34.7237 7.5327 33.836 7.5327 C 32.9484 7.5327 32.2227 6.8248 32.2006 5.9374 Z M 34.4662 5.9374 C 34.4662 5.4549 34.1579 5.2136 33.8361 5.2136 C 33.5144 5.2136 33.206 5.4549 33.206 5.9374 C 33.206 6.4267 33.5144 6.6881 33.8361 6.6881 C 34.1579 6.6881 34.4662 6.4267 34.4662 5.9374 Z " stroke-width="1" fill="#fdfdfd" stroke="none"/><path d="M 35.9066 5.9509 C 35.9066 4.999 36.6171 4.3624 37.5488 4.3624 C 37.8498 4.3546 38.147 4.4312 38.4067 4.5835 C 38.5441 4.6689 38.6296 4.8173 38.6346 4.979 C 38.6403 5.0921 38.5988 5.2025 38.52 5.2838 C 38.4412 5.3651 38.3322 5.4101 38.219 5.408 C 38.1131 5.4044 38.0086 5.3817 37.9107 5.3409 C 37.8058 5.301 37.6945 5.2806 37.5822 5.2806 C 37.4032 5.272 37.2287 5.3389 37.1013 5.4651 C 36.9739 5.5912 36.9052 5.765 36.912 5.9441 C 36.9082 6.1337 36.9847 6.3161 37.1225 6.4463 C 37.2604 6.5765 37.4468 6.6424 37.6358 6.6278 C 37.7368 6.6307 37.8372 6.6124 37.9307 6.5742 C 38.014 6.541 38.1025 6.5228 38.1922 6.5205 C 38.3041 6.5124 38.4142 6.5524 38.4948 6.6304 C 38.5754 6.7085 38.6189 6.8173 38.6144 6.9294 C 38.6066 7.1336 38.4772 7.3131 38.2861 7.3851 C 38.0543 7.4884 37.8025 7.5388 37.5488 7.5326 C 36.6238 7.5326 35.9065 6.9026 35.9065 5.9509 Z " stroke-width="1" fill="#fdfdfd" stroke="none"/><path d="M 42.2333 7.0299 C 42.2341 7.1581 42.1821 7.281 42.0896 7.3697 C 41.997 7.4585 41.8721 7.5052 41.744 7.499 C 41.5841 7.4934 41.4357 7.4143 41.3419 7.2846 L 40.5912 6.3195 L 40.1959 6.5608 L 40.1959 6.9965 C 40.1982 7.1752 40.1042 7.3414 39.9498 7.4315 C 39.7953 7.5216 39.6044 7.5216 39.45 7.4315 C 39.2955 7.3414 39.2015 7.1752 39.2039 6.9965 L 39.2039 3.1894 C 39.2015 3.0106 39.2955 2.8444 39.4499 2.7543 C 39.6044 2.6642 39.7953 2.6642 39.9498 2.7543 C 40.1042 2.8444 40.1983 3.0106 40.1959 3.1894 L 40.1959 5.589 L 41.3955 4.5366 C 41.486 4.4507 41.606 4.4027 41.7307 4.4026 C 41.9744 4.4102 42.1691 4.6079 42.173 4.8517 C 42.1694 5.0019 42.0979 5.1423 41.9786 5.2336 L 41.3419 5.7832 L 42.0591 6.6546 C 42.1617 6.7538 42.2238 6.8875 42.2333 7.0299 Z " stroke-width="1" fill="#fdfdfd" stroke="none"/></g></g></g></svg>