<svg xmlns="http://www.w3.org/2000/svg" xmlns:xlink="http://www.w3.org/1999/xlink" viewBox="0 0 24.95925 24.95925" width="24.95924949645996" height="24.95924949645996"><defs><linearGradient id="Dégradé_sans_nom_71" x1="-61.52605" y1="4.50835" x2="-36.5668" y2="4.50835" gradientTransform="translate(16.98798 61.52605) rotate(90)" gradientUnits="userSpaceOnUse"><stop offset="0" stop-color="#fff" stop-opacity="0"/><stop offset="0.53538" stop-color="#010101" stop-opacity="0.86891"/><stop offset="0.7216"/><stop offset="1" stop-color="#fff" stop-opacity="0"/></linearGradient><linearGradient id="Dégradé_sans_nom_40" x1="58.86456" y1="63.92366" x2="80.23491" y2="63.92366" gradientTransform="translate(76.40328 -57.07011) rotate(90)" gradientUnits="userSpaceOnUse"><stop offset="0" stop-color="#fff"/><stop offset="0.07212" stop-color="#fff" stop-opacity="0.87385"/><stop offset="0.21577" stop-color="#fff" stop-opacity="0.64539"/><stop offset="0.35942" stop-color="#fff" stop-opacity="0.44824"/><stop offset="0.49981" stop-color="#fff" stop-opacity="0.28704"/><stop offset="0.63614" stop-color="#fff" stop-opacity="0.16179"/><stop offset="0.76729" stop-color="#fff" stop-opacity="0.07232"/><stop offset="0.89113" stop-color="#fff" stop-opacity="0.0184"/><stop offset="1" stop-color="#fff" stop-opacity="0"/></linearGradient><radialGradient id="Dégradé_sans_nom_128" cx="12.67963" cy="11.71921" r="6.69258" gradientUnits="userSpaceOnUse"><stop offset="0" stop-color="#dc47ff"/><stop offset="0.77744" stop-color="#c610b7"/><stop offset="1" stop-color="#c000a2"/></radialGradient></defs><g id="Calque_2" data-name="Calque 2"><g id="Calque_1-2" data-name="Calque 1"><circle cx="12.47963" cy="12.47963" r="12.47963" fill="#b20299" stroke-width="1"/><circle cx="12.47963" cy="12.47963" r="12.47963" fill="url(#Dégradé_sans_nom_71)" stroke-width="1"/><circle cx="12.47963" cy="12.47963" r="10.68518" fill="#3d203f" stroke-width="1"/><circle cx="12.47963" cy="12.47963" r="10.68518" opacity="0.5" fill="url(#Dégradé_sans_nom_40)" stroke-width="1"/><path d="M20.26727,19.77111A10.68546,10.68546,0,0,0,4.703,5.1755,10.68451,10.68451,0,1,1,20.26727,19.77111Z" opacity="0.25" stroke-width="1"/><path d="M20.26727,19.77111A10.68526,10.68526,0,1,1,4.69831,5.18023a10.6846,10.6846,0,0,0,15.569,14.59088Z" fill="#fff" opacity="0.25" stroke-width="1"/><g id="Calque_2-2" data-name="Calque 2"><g id="Calque_1-2-2" data-name="Calque 1-2"><path d="M16.80432,11.72888a3.05248,3.05248,0,0,0-1.81457.59582l.12836-.24533.03616-.0002v-.16758h.06139v-.41026h-.3348l-.54092-5.39884.08148-.00062v-.159h.04146l.001-.373H10.73316v.373H10.79l-.0034.16544.08955.00036-.64887,5.34046-.12574-.00273v.41027l.06417.00139-.00487.17266.06036.00149.18741.35818a3.014,3.014,0,1,0,.93256,3.3339H13.878a3.06939,3.06939,0,1,0,2.9263-3.99544ZM6.09252,14.72205a2.41867,2.41867,0,0,1,.04079-.43974l1.46647.34677a.87672.87672,0,0,0,.01341.2863l-1.40668.53924A2.403,2.403,0,0,1,6.09252,14.72205Zm11.59507-.24428a.95033.95033,0,0,0-.151-.267l1.02982-.96615a2.35121,2.35121,0,0,1,.47416.83008Zm-.5988-.57606c-.01592-.00517-.03228-.00928-.04856-.01362l.03408-.10439-.25193-.14325-.09723-1.19135c.02634-.00088.05262-.002.07917-.002a2.33644,2.33644,0,0,1,.93873.19621Zm-1.18807-.78532-.43647-.24819a2.35142,2.35142,0,0,1,.25659-.15541Zm-.8146,3.28378.79608-.67585h.48206l-.43751,1.2541A2.35905,2.35905,0,0,1,15.08612,16.40017Zm1.88727-.66a.94345.94345,0,0,0,.26122-.09077l.79168,1.15628a2.33492,2.33492,0,0,1-1.04987.33636Zm.67366-.51151a.94258.94258,0,0,0,.06671-.176l1.41854.06854a2.33426,2.33426,0,0,1-.34775.94141Zm-8.97978.49568h.36464l.71968,1.05114a2.39087,2.39087,0,0,1-1.08129.34536Zm.79522-3.20669-.36241.697-.585.33585L8.41441,12.318c.02785-.00095.05563-.00212.08371-.00212a2.39643,2.39643,0,0,1,.96438.20172Zm-2.07059.06794.61866,1.38806a.89938.89938,0,0,0-.1912.16319l-1.27525-.81746a2.41565,2.41565,0,0,1,.84779-.73379Zm-.65474,3.77459,1.14549-.9725a.89648.89648,0,0,0,.21492.14707l-.49533,1.41983a2.40913,2.40913,0,0,1-.86508-.5944Zm1.70392.766a2.40823,2.40823,0,0,1-.52866-.07071Zm1.59893-.558L10.39543,16.2a2.41878,2.41878,0,0,1-.35543.36821Zm.48341-.54883-.4024-.295h.56383A2.40073,2.40073,0,0,1,10.52342,16.01933Z" fill="url(#Dégradé_sans_nom_128)" stroke-width="1"/></g></g></g></g></svg>