<svg xmlns="http://www.w3.org/2000/svg" xmlns:xlink="http://www.w3.org/1999/xlink" version="1.1" width="36.81532" height="30.25075" viewBox="0,0,36.81532,30.25075"><g><g data-paper-data="{&quot;isPaintingLayer&quot;:true}" fill-rule="nonzero" stroke-linecap="butt" stroke-linejoin="miter" stroke-miterlimit="10" stroke-dasharray="" stroke-dashoffset="0" style="mix-blend-mode: normal"><path d="M221.65098,190.38207c0.16515,0.23401 0.32086,0.47525 0.49727,0.70063c0.43685,0.63524 1.16318,1.01493 1.93937,1.01381c17.17396,-0.00749 14.54357,-0.00472 31.71752,0.00834c1.31126,0.00161 1.89924,-0.80687 2.46234,-1.7426c0.33922,1.73533 -0.08534,3.71284 -1.57745,4.49009c-0.23483,0.11227 -0.49499,0.16255 -0.75522,0.14599c-17.21904,0.0014 -14.63372,0.00114 -31.85275,-0.0008c-1.33373,-0.0542 -2.40287,-2.20243 -2.45919,-3.52289c-0.00259,-0.3641 0.01811,-0.72837 0.02812,-1.09256z" fill="#725f54" stroke="#725f54" stroke-width="0" transform="matrix(1,0,0,1,-221.59012,-164.75067)"/><path d="M 36.5653 25.0828 C 36.5596 25.1994 36.5478 25.3156 36.53 25.4307 C 35.9725 26.482 35.3903 27.3904 34.092 27.3886 C 17.088 27.3739 19.6924 27.3708 2.6883 27.3792 C 1.9198 27.3805 1.2007 26.9539 0.7681 26.2402 C 0.5935 25.9869 0.4393 25.7159 0.2758 25.453 C 0.2668 19.1883 0.2582 12.9235 0.25 6.6588 C 0.2484 5.4292 0.2443 4.1996 0.2512 2.97 C 0.2828 1.4745 1.3597 0.2738 2.691 0.25 C 19.7145 0.2473 17.1296 0.2472 34.1532 0.2497 C 35.4362 0.2085 36.5105 1.3333 36.5643 2.774 C 36.5672 10.2103 36.5676 17.6465 36.5653 25.0828 Z " fill="#92796b" stroke="#92796b" stroke-width="0.5"/><g><path d="M 6.1722 14.4882 C 6.1722 10.8106 8.9932 8.2393 12.4923 8.2393 C 14.1681 8.1933 15.7899 8.835 16.9804 10.0154 C 18.1709 11.1958 18.8265 12.812 18.7948 14.4882 C 18.7948 18.1842 15.9738 20.7371 12.4922 20.7371 C 8.9932 20.7371 6.1722 18.1842 6.1722 14.4882 Z M 15.938 14.4882 C 15.938 12.1139 14.3492 10.7032 12.4922 10.7032 C 10.6357 10.7032 9.0285 12.1139 9.0285 14.4882 C 9.0285 16.863 10.6357 18.2733 12.4922 18.2733 C 14.3492 18.2733 15.938 16.863 15.938 14.4882 Z " stroke-width="1" fill="#fbfbfb" stroke="none"/><path d="M 30.6654 19.3268 C 30.6585 20.0604 30.0603 20.6507 29.3267 20.6476 C 28.9105 20.6605 28.5129 20.4751 28.2552 20.1481 L 24.9522 15.399 L 23.4703 16.9162 L 23.4703 19.2731 C 23.4691 19.6404 23.3215 19.992 23.0601 20.2501 C 22.7987 20.5081 22.4452 20.6512 22.0779 20.6476 C 21.7143 20.6498 21.3652 20.5051 21.1097 20.2463 C 20.8543 19.9876 20.7141 19.6367 20.7209 19.2731 L 20.7209 9.6858 C 20.7177 9.3249 20.8597 8.9779 21.1149 8.7227 C 21.37 8.4676 21.7171 8.3256 22.0779 8.3288 C 22.837 8.3194 23.4602 8.9268 23.4703 9.6858 L 23.4703 13.4704 L 27.8981 8.775 C 28.1544 8.4932 28.5169 8.3314 28.8979 8.3288 C 29.2318 8.326 29.5532 8.4562 29.791 8.6906 C 30.0288 8.9251 30.1635 9.2445 30.1654 9.5784 C 30.1487 9.9957 29.9538 10.3859 29.6301 10.6499 L 26.8092 13.5241 L 30.344 18.4518 C 30.5388 18.7033 30.6511 19.009 30.6654 19.3268 Z " stroke-width="1" fill="#fbfbfb" stroke="none"/></g></g></g></svg>