<svg xmlns="http://www.w3.org/2000/svg" xmlns:xlink="http://www.w3.org/1999/xlink" version="1.1" width="110.9541" height="30.0085" viewBox="0,0,110.9541,30.0085"><g><g data-paper-data="{&quot;isPaintingLayer&quot;:true}" fill-rule="nonzero" stroke-linecap="butt" stroke-linejoin="miter" stroke-miterlimit="10" stroke-dasharray="" stroke-dashoffset="0" style="mix-blend-mode: normal"><g><path d="M 0 26.7078 L 0 3.9909 C -0.0007 2.9755 0.4083 2.0027 1.1344 1.2928 C 1.8605 0.5829 2.8422 0.1959 3.8574 0.2195 C 5.3443 0.2357 6.7192 1.0122 7.501 2.2771 L 19.46 18.5642 L 19.502 18.5642 L 19.502 3.3054 C 19.5726 1.5811 20.991 0.2195 22.7168 0.2195 C 24.4426 0.2195 25.8611 1.5811 25.9317 3.3054 L 25.9317 25.9792 C 25.9343 26.9992 25.5273 27.9774 24.8021 28.6946 C 24.0769 29.4117 23.0941 29.8077 22.0743 29.7937 C 20.5454 29.7292 19.1482 28.9104 18.3448 27.6081 L 6.5156 11.6638 L 6.4297 11.6638 L 6.4727 26.7077 C 6.3904 28.4352 4.9658 29.7935 3.2364 29.7935 C 1.5069 29.7935 0.0823 28.4352 0 26.7077 Z " stroke-width="1" fill="#dd2c2c" stroke="none"/><path d="M 32.0137 26.4939 L 32.0137 3.4773 C 32.037 1.6712 33.5077 0.2193 35.314 0.2193 C 37.1202 0.2193 38.5909 1.6712 38.6143 3.4773 L 38.6143 26.4939 C 38.6111 28.3143 37.1344 29.7884 35.314 29.7884 C 33.4935 29.7884 32.0168 28.3143 32.0137 26.4939 Z " stroke-width="1" fill="#dd2c2c" stroke="none"/><path d="M 43.2852 14.9636 C 43.2852 6.0486 50.0996 0.0046 58.415 0.0046 C 60.7147 -0.0512 62.9981 0.4027 65.1016 1.3337 C 66.8164 2.2341 67.6738 3.1765 67.6738 4.6774 C 67.6731 5.3858 67.3855 6.0636 66.8765 6.5562 C 66.3675 7.0488 65.6806 7.3142 64.9727 7.2917 C 64.1765 7.2531 63.3996 7.0333 62.7012 6.6491 C 61.407 6.0763 60.0017 5.7981 58.5869 5.8347 C 52.9717 5.8347 50.1426 10.2487 50.1426 14.9636 C 50.1426 19.6354 52.9717 24.0075 58.501 24.0075 C 59.9742 24.0279 61.4351 23.7357 62.7871 23.1501 C 63.5973 22.6614 64.5039 22.3545 65.4443 22.2507 C 66.1724 22.2233 66.8795 22.4976 67.3988 23.0087 C 67.918 23.5198 68.2034 24.2225 68.1875 24.9509 C 68.1688 25.9679 67.6779 26.9183 66.8594 27.5222 C 65.5303 28.6364 62.7012 30.0085 58.501 30.0085 C 49.8428 30.0085 43.2852 23.9646 43.2852 14.9636 Z " stroke-width="1" fill="#dd2c2c" stroke="none"/><path d="M 91.0293 26.6228 C 91.0421 27.411 90.7345 28.1708 90.177 28.7281 C 89.6194 29.2855 88.8596 29.5928 88.0713 29.5798 L 75.1269 29.5798 C 74.2694 29.5839 73.4471 29.2391 72.8489 28.6247 C 72.2507 28.0103 71.928 27.1791 71.9551 26.3219 L 71.9551 3.7341 C 71.9267 2.8726 72.2475 2.0362 72.8448 1.4146 C 73.442 0.7931 74.265 0.4392 75.1269 0.4333 L 87.5996 0.4333 C 88.388 0.4203 89.148 0.7278 89.7056 1.2854 C 90.2631 1.8429 90.5706 2.6029 90.5576 3.3913 C 90.5671 4.171 90.2556 4.9202 89.6962 5.4634 C 89.1368 6.0066 88.3787 6.2958 87.5996 6.2634 L 78.5557 6.2634 L 78.5557 12.1774 L 86.3144 12.1774 C 87.3144 12.147 88.2518 12.663 88.7608 13.5243 C 89.2698 14.3856 89.2698 15.4556 88.7608 16.3169 C 88.2518 17.1782 87.3144 17.6943 86.3144 17.6638 L 78.5557 17.6638 L 78.5557 23.7507 L 88.0713 23.7507 C 88.8503 23.7182 89.6085 24.0075 90.1679 24.5507 C 90.7273 25.0938 91.0388 25.8431 91.0293 26.6228 Z " stroke-width="1" fill="#dd2c2c" stroke="none"/><path d="M 103.9248 26.4079 C 103.9248 24.4668 105.4984 22.8933 107.4394 22.8933 C 109.3805 22.8933 110.9541 24.4668 110.9541 26.4079 C 110.9541 28.349 109.3805 29.9226 107.4394 29.9226 C 105.5124 29.8891 103.9583 28.335 103.9248 26.4079 Z M 105.7676 18.3933 C 104.7218 14.111 104.1471 9.7272 104.0537 5.32 C 104.0537 1.5906 105.5107 0.1335 107.4394 0.1335 C 109.3682 0.1335 110.7832 1.6335 110.7832 5.32 C 110.7091 9.7261 110.1484 14.1104 109.1113 18.3933 C 108.8545 19.4646 108.3828 20.1931 107.4824 20.1931 C 106.54 20.1931 106.0254 19.4646 105.7676 18.3933 Z " stroke-width="1" fill="#dd2c2c" stroke="none"/></g></g></g></svg>