<svg xmlns="http://www.w3.org/2000/svg" xmlns:xlink="http://www.w3.org/1999/xlink" version="1.1" width="73.08342" height="46.79352" viewBox="0,0,73.08342,46.79352"><g><g data-paper-data="{&quot;isPaintingLayer&quot;:true}" fill-rule="nonzero" stroke-linecap="butt" stroke-linejoin="miter" stroke-miterlimit="10" stroke-dasharray="" stroke-dashoffset="0" style="mix-blend-mode: normal"><g><path d="M 18.6453 44.1536 C 17.0735 45.0698 15.3369 45.3066 13.6269 45.6797 C 11.7956 46.0805 9.9437 46.3962 8.1011 46.7476 C 6.6888 47.0181 5.475 46.0712 5.1695 44.5085 C 4.026 38.6753 2.8801 32.8422 1.7318 27.0091 C 1.6937 26.8148 1.6278 26.6262 1.5862 26.4337 C 1.1964 24.6194 1.8118 23.5606 3.6715 23.1918 C 6.3535 22.6618 9.0455 22.0051 11.7601 21.8456 C 15.5875 21.619 18.4955 25.3256 17.5224 28.9672 C 17.2887 29.8484 16.5706 30.6079 16.0553 31.4119 C 15.8789 31.6237 15.6823 31.8178 15.4682 31.9914 C 17.8753 32.1791 19.8053 32.9615 20.9441 34.9082 C 22.5761 37.6946 22.249 42.0552 18.6453 44.1536 Z M 7.6989 31.4564 C 7.7042 31.6477 7.802 31.8246 7.9614 31.9306 C 8.1207 32.0367 8.3216 32.0587 8.5001 31.9898 C 9.402 31.8016 10.3149 31.6423 11.1928 31.369 C 12.2478 31.0589 12.9546 30.0682 12.9044 28.9697 C 13.0226 27.7485 11.8042 26.234 10.367 26.4725 C 9.4019 26.631 8.4138 26.6668 7.4525 26.844 C 7.1828 26.9715 6.9997 27.231 6.9699 27.5277 C 7.17 28.8426 7.4623 30.1456 7.6989 31.4564 Z M 16.6076 38.0195 C 16.328 36.4393 15.3561 35.4951 12.9099 35.5628 C 12.0373 35.7402 10.6531 36.024 9.2706 36.3042 C 8.7537 36.4088 8.7649 36.7592 8.8448 37.151 C 9.1172 38.5143 9.4034 39.8738 9.6514 41.2408 C 9.763 41.8545 10.123 41.9389 10.6521 41.8323 C 11.8368 41.5914 13.031 41.3879 14.2101 41.1214 C 15.7221 40.7808 16.8465 39.3577 16.6076 38.0195 Z " stroke-width="1" fill="#bba192" stroke="none"/><path d="M 18.6453 44.1536 C 17.0735 45.0698 15.3369 45.3066 13.6269 45.6797 C 11.7956 46.0805 9.9437 46.3962 8.1011 46.7476 C 6.6888 47.0181 5.475 46.0712 5.1695 44.5085 C 4.026 38.6753 2.8801 32.8422 1.7318 27.0091 C 1.6937 26.8148 1.6278 26.6262 1.5862 26.4337 C 1.1964 24.6194 1.8118 23.5606 3.6715 23.1918 C 6.3535 22.6618 9.0455 22.0051 11.7601 21.8456 C 15.5875 21.619 18.4955 25.3256 17.5224 28.9672 C 17.2887 29.8484 16.5706 30.6079 16.0553 31.4119 C 15.8789 31.6237 15.6823 31.8178 15.4682 31.9914 C 17.8753 32.1791 19.8053 32.9615 20.9441 34.9082 C 22.5761 37.6946 22.249 42.0552 18.6453 44.1536 Z M 7.6989 31.4564 C 7.7042 31.6477 7.802 31.8246 7.9614 31.9306 C 8.1207 32.0367 8.3216 32.0587 8.5001 31.9898 C 9.402 31.8016 10.3149 31.6423 11.1928 31.369 C 12.2478 31.0589 12.9546 30.0682 12.9044 28.9697 C 13.0226 27.7485 11.8042 26.234 10.367 26.4725 C 9.4019 26.631 8.4138 26.6668 7.4525 26.844 C 7.1828 26.9715 6.9997 27.231 6.9699 27.5277 C 7.17 28.8426 7.4623 30.1456 7.6989 31.4564 Z M 16.6076 38.0195 C 16.328 36.4393 15.3561 35.4951 12.9099 35.5628 C 12.0373 35.7402 10.6531 36.024 9.2706 36.3042 C 8.7537 36.4088 8.7649 36.7592 8.8448 37.151 C 9.1172 38.5143 9.4034 39.8738 9.6514 41.2408 C 9.763 41.8545 10.123 41.9389 10.6521 41.8323 C 11.8368 41.5914 13.031 41.3879 14.2101 41.1214 C 15.7221 40.7808 16.8465 39.3577 16.6076 38.0195 Z " stroke-width="1" fill="#bba192" stroke="none"/><path d="M 48.6283 37.3287 C 48.6525 38.6346 48.3604 39.0551 47.2113 39.4493 C 46.154 39.8112 45.3455 39.5652 44.6093 38.6614 C 44.4671 38.486 44.3282 38.3071 44.1378 38.0676 C 43.6187 38.651 43.1962 39.1883 42.7065 39.6602 C 40.6054 41.6814 36.3157 41.6475 33.6703 39.5488 C 29.6396 36.354 28.6954 29.6317 31.7565 25.537 C 33.5457 23.0842 36.7087 22.0592 39.5965 22.9964 C 40.1937 23.2485 40.7718 23.5438 41.3263 23.8797 C 41.3823 23.6958 41.442 23.5237 41.486 23.3486 C 41.7813 22.1979 42.4492 21.6598 43.706 21.5612 C 44.8933 21.469 45.4476 21.7125 45.8072 22.9887 C 46.3671 24.9779 46.7469 27.0164 47.1612 29.044 C 47.6325 31.3493 48.0623 33.6639 48.4955 35.9784 C 48.5771 36.4241 48.6216 36.8757 48.6284 37.3287 Z M 42.7956 32.3917 C 42.7969 32.3643 42.7964 32.3387 42.796 32.313 L 42.7946 32.2327 C 42.7935 32.1695 42.7925 32.1079 42.7896 32.0464 C 42.7869 31.9883 42.7842 31.9285 42.7797 31.8705 C 42.7791 31.8408 42.7768 31.8111 42.7729 31.7817 C 42.7686 31.7339 42.7643 31.6878 42.7601 31.6417 C 42.7595 31.6285 42.7582 31.6154 42.7559 31.6024 C 42.7498 31.5512 42.7437 31.5018 42.7376 31.4506 C 42.6773 31.0012 42.5675 30.5598 42.4104 30.1345 C 42.3866 30.0665 42.3611 30.0002 42.3338 29.934 C 42.2538 29.7354 42.1634 29.5386 42.0626 29.3454 C 41.9852 29.1979 41.9027 29.054 41.8149 28.9119 C 41.7272 28.7698 41.6343 28.6295 41.5344 28.4927 C 40.6108 27.2142 39.3377 26.571 37.7034 26.888 C 36.2061 27.1788 35.3318 28.1633 34.9763 29.5544 C 34.4167 31.5378 34.8537 33.6694 36.1486 35.2726 C 37.076 36.4603 38.3129 37.0239 39.8851 36.6429 C 39.9423 36.6299 39.9978 36.6136 40.0549 36.5972 C 40.1121 36.5808 40.1675 36.5628 40.2211 36.5431 C 40.2312 36.5408 40.241 36.5378 40.2506 36.534 C 40.2886 36.5214 40.325 36.5088 40.3613 36.4928 C 40.371 36.4907 40.3803 36.4871 40.3889 36.482 C 40.4356 36.4641 40.4805 36.4445 40.5254 36.4233 C 40.5368 36.4196 40.5478 36.4148 40.5583 36.409 C 40.6014 36.3895 40.6446 36.3699 40.6877 36.3469 C 40.7947 36.2924 40.8989 36.2324 40.9997 36.1672 C 41.0324 36.1461 41.0651 36.125 41.0961 36.1022 C 41.1253 36.0812 41.1563 36.0602 41.1855 36.0357 C 41.2095 36.0182 41.2336 36.0007 41.2559 35.9815 C 41.2689 35.9743 41.2805 35.9648 41.2902 35.9536 C 41.3143 35.9361 41.3383 35.9168 41.3623 35.8959 C 41.4104 35.8574 41.4549 35.8156 41.5012 35.7721 C 41.556 35.7199 41.6108 35.6659 41.662 35.6086 C 41.715 35.553 41.7645 35.494 41.8139 35.435 C 41.8327 35.4125 41.8497 35.3917 41.8668 35.3691 C 41.8855 35.3449 41.9042 35.3206 41.9212 35.2964 C 41.94 35.2721 41.9587 35.2479 41.9757 35.2219 C 41.9846 35.2111 41.9925 35.1995 41.9994 35.1873 C 42.0266 35.1492 42.0521 35.1112 42.0758 35.0714 C 42.1492 34.9572 42.2163 34.839 42.2768 34.7174 C 42.2971 34.6795 42.3155 34.6398 42.334 34.6002 C 42.3525 34.5605 42.3709 34.5209 42.3876 34.4813 C 42.4245 34.3951 42.4595 34.3073 42.491 34.2179 C 42.5043 34.1818 42.5176 34.1439 42.5292 34.1061 C 42.5606 34.0132 42.5886 33.9187 42.613 33.8225 C 42.6294 33.7607 42.6457 33.6988 42.6586 33.6371 C 42.6732 33.5753 42.686 33.5118 42.6971 33.4483 C 42.71 33.39 42.7194 33.33 42.7288 33.27 C 42.7413 33.1877 42.7521 33.1054 42.7611 33.0198 C 42.7672 32.9684 42.7715 32.9153 42.7758 32.8622 C 42.7801 32.8109 42.7844 32.7578 42.7853 32.7048 C 42.7879 32.6534 42.7905 32.6021 42.793 32.549 C 42.7939 32.4977 42.7947 32.4447 42.7955 32.3917 Z " stroke-width="1" fill="#bba192" stroke="none"/><path d="M 48.6283 37.3287 C 48.6525 38.6346 48.3604 39.0551 47.2113 39.4493 C 46.154 39.8112 45.3455 39.5652 44.6093 38.6614 C 44.4671 38.486 44.3282 38.3071 44.1378 38.0676 C 43.6187 38.651 43.1962 39.1883 42.7065 39.6602 C 40.6054 41.6814 36.3157 41.6475 33.6703 39.5488 C 29.6396 36.354 28.6954 29.6317 31.7565 25.537 C 33.5457 23.0842 36.7087 22.0592 39.5965 22.9964 C 40.1937 23.2485 40.7718 23.5438 41.3263 23.8797 C 41.3823 23.6958 41.442 23.5237 41.486 23.3486 C 41.7813 22.1979 42.4492 21.6598 43.706 21.5612 C 44.8933 21.469 45.4476 21.7125 45.8072 22.9887 C 46.3671 24.9779 46.7469 27.0164 47.1612 29.044 C 47.6325 31.3493 48.0623 33.6639 48.4955 35.9784 C 48.5771 36.4241 48.6216 36.8757 48.6284 37.3287 Z M 42.7956 32.3917 C 42.7969 32.3643 42.7964 32.3387 42.796 32.313 L 42.7946 32.2327 C 42.7935 32.1695 42.7925 32.1079 42.7896 32.0464 C 42.7869 31.9883 42.7842 31.9285 42.7797 31.8705 C 42.7791 31.8408 42.7768 31.8111 42.7729 31.7817 C 42.7686 31.7339 42.7643 31.6878 42.7601 31.6417 C 42.7595 31.6285 42.7582 31.6154 42.7559 31.6024 C 42.7498 31.5512 42.7437 31.5018 42.7376 31.4506 C 42.6773 31.0012 42.5675 30.5598 42.4104 30.1345 C 42.3866 30.0665 42.3611 30.0002 42.3338 29.934 C 42.2538 29.7354 42.1634 29.5386 42.0626 29.3454 C 41.9852 29.1979 41.9027 29.054 41.8149 28.9119 C 41.7272 28.7698 41.6343 28.6295 41.5344 28.4927 C 40.6108 27.2142 39.3377 26.571 37.7034 26.888 C 36.2061 27.1788 35.3318 28.1633 34.9763 29.5544 C 34.4167 31.5378 34.8537 33.6694 36.1486 35.2726 C 37.076 36.4603 38.3129 37.0239 39.8851 36.6429 C 39.9423 36.6299 39.9978 36.6136 40.0549 36.5972 C 40.1121 36.5808 40.1675 36.5628 40.2211 36.5431 C 40.2312 36.5408 40.241 36.5378 40.2506 36.534 C 40.2886 36.5214 40.325 36.5088 40.3613 36.4928 C 40.371 36.4907 40.3803 36.4871 40.3889 36.482 C 40.4356 36.4641 40.4805 36.4445 40.5254 36.4233 C 40.5368 36.4196 40.5478 36.4148 40.5583 36.409 C 40.6014 36.3895 40.6446 36.3699 40.6877 36.3469 C 40.7947 36.2924 40.8989 36.2324 40.9997 36.1672 C 41.0324 36.1461 41.0651 36.125 41.0961 36.1022 C 41.1253 36.0812 41.1563 36.0602 41.1855 36.0357 C 41.2095 36.0182 41.2336 36.0007 41.2559 35.9815 C 41.2689 35.9743 41.2805 35.9648 41.2902 35.9536 C 41.3143 35.9361 41.3383 35.9168 41.3623 35.8959 C 41.4104 35.8574 41.4549 35.8156 41.5012 35.7721 C 41.556 35.7199 41.6108 35.6659 41.662 35.6086 C 41.715 35.553 41.7645 35.494 41.8139 35.435 C 41.8327 35.4125 41.8497 35.3917 41.8668 35.3691 C 41.8855 35.3449 41.9042 35.3206 41.9212 35.2964 C 41.94 35.2721 41.9587 35.2479 41.9757 35.2219 C 41.9846 35.2111 41.9925 35.1995 41.9994 35.1873 C 42.0266 35.1492 42.0521 35.1112 42.0758 35.0714 C 42.1492 34.9572 42.2163 34.839 42.2768 34.7174 C 42.2971 34.6795 42.3155 34.6398 42.334 34.6002 C 42.3525 34.5605 42.3709 34.5209 42.3876 34.4813 C 42.4245 34.3951 42.4595 34.3073 42.491 34.2179 C 42.5043 34.1818 42.5176 34.1439 42.5292 34.1061 C 42.5606 34.0132 42.5886 33.9187 42.613 33.8225 C 42.6294 33.7607 42.6457 33.6988 42.6586 33.6371 C 42.6732 33.5753 42.686 33.5118 42.6971 33.4483 C 42.71 33.39 42.7194 33.33 42.7288 33.27 C 42.7413 33.1877 42.7521 33.1054 42.7611 33.0198 C 42.7672 32.9684 42.7715 32.9153 42.7758 32.8622 C 42.7801 32.8109 42.7844 32.7578 42.7853 32.7048 C 42.7879 32.6534 42.7905 32.6021 42.793 32.549 C 42.7939 32.4977 42.7947 32.4447 42.7955 32.3917 Z " stroke-width="1" fill="#bba192" stroke="none"/><path d="M 61.6846 35.8627 C 59.0674 38.0365 54.4287 38.46 51.48 36.7478 C 50.5235 36.1915 50.1151 35.3162 50.3812 34.3952 C 50.6984 33.3022 51.3594 32.7694 52.5407 32.8345 C 53.1981 32.9012 53.8457 33.042 54.4714 33.2545 C 55.5386 33.5661 56.6007 33.7821 57.7017 33.4297 C 58.3509 33.2202 58.9757 33.0163 58.9767 32.1613 C 58.9772 31.2773 58.4327 30.8951 57.6621 30.7203 C 56.4231 30.4424 55.1596 30.2521 53.942 29.902 C 52.8858 29.6343 51.8677 29.2342 50.9118 28.711 C 48.6344 27.3601 48.3225 23.6961 50.211 21.5656 C 51.6164 19.9804 53.7216 19.1098 56.2926 18.9082 C 57.3814 19.1545 58.4882 19.3407 59.5504 19.6678 C 60.4019 19.9101 61.0417 20.6151 61.2005 21.4861 C 61.4913 22.8045 60.5953 23.9467 59.2391 23.8332 C 58.296 23.7537 57.3726 23.402 56.4299 23.3481 C 55.6971 23.2906 54.9611 23.4106 54.2844 23.6979 C 53.867 23.8579 53.5925 24.26 53.5955 24.707 C 53.5986 25.1541 53.8785 25.5524 54.2981 25.7067 C 55.2507 26.1383 56.3159 26.3337 57.3406 26.6034 C 58.2586 26.8441 59.1997 27.0091 60.1095 27.2756 C 64.506 28.5628 64.554 33.4812 61.6845 35.8628 Z " stroke-width="1" fill="#bba192" stroke="none"/><path d="M 70.06 22.8572 C 70.677 25.9414 71.3288 29.0182 71.9145 32.1064 C 72.2284 33.7578 71.1656 35.12 69.6311 35.1652 C 68.5209 35.2054 67.5445 34.4367 67.323 33.348 C 66.9253 31.7852 66.6698 30.1875 66.3468 28.608 C 65.957 26.6928 65.5308 24.7851 65.1757 22.8659 C 65.0337 22.0989 64.7781 21.8092 63.9127 21.9968 C 62.534 22.2975 61.6129 21.6773 61.3798 20.4673 C 61.1312 19.1721 61.7922 18.234 63.2279 18.0109 C 64.0439 17.884 64.2082 17.517 64.0235 16.8003 C 63.8349 16.0581 63.6862 15.3049 63.5705 14.5494 C 63.3746 13.2824 64.0539 12.1934 65.1906 11.8867 C 66.4484 11.5453 67.5867 12.0404 68.0643 13.2941 C 68.3651 14.1781 68.5812 15.0887 68.7099 16.0136 C 68.8105 16.6001 68.9813 16.9135 69.657 16.7343 C 70.0244 16.6513 70.3992 16.6059 70.7757 16.5988 C 72.113 16.5193 72.8348 17.0951 73.0556 18.3942 C 73.2262 19.4087 72.6021 20.2641 71.4553 20.5898 C 69.7109 21.0832 69.704 21.085 70.06 22.8572 Z " stroke-width="1" fill="#bba192" stroke="none"/><path d="M 29.2281 40.5673 C 29.2498 42.1349 28.4888 43.0268 27.121 43.2521 C 25.926 43.4239 24.8048 42.6328 24.566 41.4494 C 24.0036 38.9097 23.5383 36.3478 23.0296 33.7952 C 22.4411 30.8558 21.844 27.9166 21.2608 24.9771 C 20.9578 23.4503 20.6252 21.9274 20.3917 20.3925 C 20.1584 18.8747 20.9033 17.8548 22.3291 17.5567 C 23.4773 17.3181 24.6896 18.0684 25.0123 19.4239 C 25.5752 21.7943 26.0238 24.1924 26.5001 26.5831 C 27.3689 30.9471 28.2291 35.313 29.0805 39.6807 C 29.1511 40.0403 29.2009 40.4054 29.2281 40.5673 Z " stroke-width="1" fill="#bba192" stroke="none"/><path d="M 37.5824 19.4506 C 37.075 19.7239 36.5336 19.9287 35.9723 20.0596 C 34.5364 20.3732 33.0876 20.6461 31.6347 20.8814 C 30.6331 21.044 30.0251 20.6133 29.8272 19.6335 C 29.1053 16.0507 28.3949 12.4665 27.6962 8.881 C 27.5147 7.9454 27.9022 7.4001 28.8407 7.2079 C 30.0826 6.9506 31.3263 6.6984 32.5759 6.4768 C 34.6947 6.0984 36.2417 6.8771 36.9113 8.6644 C 37.3327 9.7873 37.2063 10.8377 36.3517 11.7535 C 36.2218 11.8925 36.1131 12.0534 35.9582 12.2527 C 37.6763 12.5565 38.9288 13.3198 39.4328 14.9971 C 39.9368 16.7318 39.1674 18.5837 37.5825 19.4506 Z M 31.9272 12.2843 C 33.3622 12.222 34.3721 11.531 34.3754 10.6093 C 34.3792 9.715 33.6402 9.054 32.6693 9.0776 C 31.4235 9.1092 30.8629 9.4096 30.8875 10.0281 C 30.9607 11.7538 31.2193 12.3153 31.9272 12.2843 Z M 35.6797 17.3591 C 36.0194 17.2331 36.2951 16.9774 36.4463 16.6482 C 36.5975 16.3189 36.6116 15.9431 36.4857 15.6034 C 36.3138 14.8376 35.5843 14.3309 34.8068 14.4371 C 33.8698 14.5113 32.9395 14.6727 31.8697 14.8125 C 32.0337 15.8493 32.1495 16.7124 32.3243 17.5644 C 32.3625 17.7569 32.6447 18.0735 32.7609 18.0527 C 33.7504 17.9193 34.7243 17.6884 35.6683 17.3632 Z " stroke-width="1" fill="#bba192" stroke="none"/><path d="M 37.5824 19.4506 C 37.075 19.7239 36.5336 19.9287 35.9723 20.0596 C 34.5364 20.3732 33.0876 20.6461 31.6347 20.8814 C 30.6331 21.044 30.0251 20.6133 29.8272 19.6335 C 29.1053 16.0507 28.3949 12.4665 27.6962 8.881 C 27.5147 7.9454 27.9022 7.4001 28.8407 7.2079 C 30.0826 6.9506 31.3263 6.6984 32.5759 6.4768 C 34.6947 6.0984 36.2417 6.8771 36.9113 8.6644 C 37.3327 9.7873 37.2063 10.8377 36.3517 11.7535 C 36.2218 11.8925 36.1131 12.0534 35.9582 12.2527 C 37.6763 12.5565 38.9288 13.3198 39.4328 14.9971 C 39.9368 16.7318 39.1674 18.5837 37.5825 19.4506 Z M 31.9272 12.2843 C 33.3622 12.222 34.3721 11.531 34.3754 10.6093 C 34.3792 9.715 33.6402 9.054 32.6693 9.0776 C 31.4235 9.1092 30.8629 9.4096 30.8875 10.0281 C 30.9607 11.7538 31.2193 12.3153 31.9272 12.2843 Z M 35.6797 17.3591 C 36.0194 17.2331 36.2951 16.9774 36.4463 16.6482 C 36.5975 16.3189 36.6116 15.9431 36.4857 15.6034 C 36.3138 14.8376 35.5843 14.3309 34.8068 14.4371 C 33.8698 14.5113 32.9395 14.6727 31.8697 14.8125 C 32.0337 15.8493 32.1495 16.7124 32.3243 17.5644 C 32.3625 17.7569 32.6447 18.0735 32.7609 18.0527 C 33.7504 17.9193 34.7243 17.6884 35.6683 17.3632 Z " stroke-width="1" fill="#bba192" stroke="none"/><path d="M 55.2792 15.1383 C 55.2857 16.0239 54.7483 16.6572 54.0251 16.7141 C 53.3109 16.7442 52.6899 16.2289 52.5877 15.5214 C 51.7874 11.4999 50.9912 7.4772 50.199 3.4533 C 50.0234 2.5552 50.3951 1.8991 51.1579 1.7167 C 51.4978 1.6313 51.8577 1.6844 52.1584 1.8643 C 52.4592 2.0443 52.6761 2.3363 52.7615 2.6762 C 52.7681 2.7025 52.7739 2.729 52.7789 2.7557 C 53.1336 4.15 53.4 5.5663 53.6836 6.9755 C 54.1975 9.5297 54.6975 12.0876 55.201 14.6438 C 55.2392 14.838 55.2617 15.0343 55.2792 15.1383 Z " stroke-width="1" fill="#bba192" stroke="none"/><path d="M 59.7624 14.2798 C 59.7864 15.1702 59.3178 15.7545 58.5603 15.8393 C 57.8408 15.9298 57.1822 15.4253 57.0821 14.7072 C 56.2583 10.6314 55.4466 6.5542 54.6471 2.4757 C 54.5078 1.7634 54.7413 1.1694 55.5136 0.9322 C 56.291 0.6914 57.022 0.9866 57.2427 1.7762 C 57.5766 2.9708 57.7684 4.2054 58.014 5.4254 C 58.5756 8.2268 59.1356 11.0287 59.6938 13.8313 C 59.728 13.9983 59.7466 14.1672 59.7625 14.2798 Z " stroke-width="1" fill="#bba192" stroke="none"/><path d="M 50.9967 16.2646 C 51.0109 17.0302 50.8396 17.2767 50.166 17.5078 C 49.6125 17.7398 48.9723 17.5459 48.6406 17.0459 C 48.5572 16.9431 48.4758 16.8382 48.3641 16.6978 C 48.0598 17.0398 47.8122 17.3548 47.525 17.6314 C 46.2933 18.8164 43.7785 18.7965 42.2276 17.5662 C 39.8646 15.6932 39.3111 11.7523 41.1057 9.3518 C 42.1546 7.9139 44.0089 7.313 45.7018 7.8624 C 46.0519 8.0102 46.3908 8.1833 46.7159 8.3802 C 46.7487 8.2724 46.7837 8.1716 46.8095 8.0689 C 46.9826 7.3943 47.3742 7.0788 48.111 7.0211 C 48.8071 6.967 49.132 7.1098 49.3428 7.8579 C 49.671 9.0241 49.8937 10.2191 50.1366 11.4077 C 50.4129 12.7592 50.6648 14.1161 50.9188 15.473 C 50.9666 15.7342 50.9927 15.999 50.9967 16.2646 Z M 47.5776 13.3242 L 47.5768 13.2771 C 47.5761 13.2401 47.5755 13.204 47.5739 13.1679 C 47.5722 13.1339 47.5706 13.0988 47.568 13.0648 C 47.5677 13.0474 47.5664 13.03 47.564 13.0127 C 47.5615 12.9847 47.559 12.9577 47.5565 12.9307 C 47.5562 12.9229 47.5554 12.9153 47.554 12.9076 C 47.5505 12.8776 47.5469 12.8486 47.5433 12.8186 C 47.508 12.5552 47.4436 12.2964 47.3515 12.0471 C 47.3375 12.0072 47.3226 11.9684 47.3066 11.9296 C 47.2597 11.8131 47.2067 11.6977 47.1476 11.5845 C 47.1022 11.498 47.0539 11.4137 47.0024 11.3303 C 46.951 11.247 46.8965 11.1648 46.838 11.0846 C 46.3615 10.33 45.464 9.9541 44.592 10.1439 C 43.7861 10.2821 43.1496 10.9044 42.9933 11.707 C 42.6652 12.8697 42.9214 14.1194 43.6806 15.0592 C 44.1651 15.7662 45.0443 16.0886 45.8711 15.8625 C 45.9046 15.855 45.9371 15.8454 45.9706 15.8358 C 46.0041 15.8262 46.0366 15.8156 46.068 15.804 C 46.0739 15.8027 46.0797 15.8009 46.0853 15.7987 C 46.1076 15.7913 46.1289 15.7839 46.1502 15.7745 C 46.1559 15.7733 46.1614 15.7712 46.1664 15.7682 C 46.1938 15.7577 46.2201 15.7462 46.2464 15.7338 C 46.2531 15.7316 46.2595 15.7288 46.2657 15.7254 C 46.291 15.7139 46.3163 15.7025 46.3416 15.689 C 46.4043 15.657 46.4653 15.6219 46.5245 15.5836 C 46.5437 15.5713 46.5628 15.5589 46.581 15.5456 C 46.5981 15.5332 46.6163 15.5209 46.6333 15.5066 C 46.6475 15.4963 46.6616 15.486 46.6746 15.4748 C 46.6822 15.4705 46.6891 15.465 46.6948 15.4584 C 46.7089 15.4481 46.723 15.4369 46.737 15.4246 C 46.7652 15.4021 46.7913 15.3776 46.8184 15.352 C 46.8506 15.3214 46.8827 15.2898 46.9127 15.2562 C 46.9438 15.2236 46.9728 15.189 47.0018 15.1544 C 47.0128 15.1412 47.0228 15.129 47.0327 15.1158 C 47.0437 15.1016 47.0547 15.0873 47.0647 15.0731 C 47.0757 15.0589 47.0866 15.0447 47.0966 15.0295 C 47.1018 15.0231 47.1065 15.0164 47.1105 15.0092 C 47.1265 14.9869 47.1414 14.9646 47.1553 14.9413 C 47.1983 14.8743 47.2377 14.805 47.2732 14.7338 C 47.285 14.7115 47.2959 14.6883 47.3067 14.665 C 47.3175 14.6418 47.3283 14.6186 47.3381 14.5953 C 47.3597 14.5448 47.3802 14.4934 47.3987 14.4409 C 47.4066 14.4197 47.4143 14.3976 47.4211 14.3754 C 47.4396 14.321 47.4559 14.2655 47.4703 14.2092 C 47.4799 14.1729 47.4894 14.1367 47.497 14.1004 C 47.5056 14.0642 47.5131 14.027 47.5196 13.9898 C 47.5271 13.9556 47.5327 13.9204 47.5382 13.8852 C 47.5455 13.837 47.5518 13.7888 47.5571 13.7386 C 47.5607 13.7084 47.5632 13.6773 47.5657 13.6462 C 47.5683 13.6161 47.5708 13.585 47.5713 13.5539 C 47.5728 13.5238 47.5743 13.4937 47.5759 13.4626 L 47.5773 13.3703 C 47.5781 13.3543 47.5778 13.3392 47.5776 13.3242 Z " stroke-width="1" fill="#bba192" stroke="none"/><path d="M 50.9967 16.2646 C 51.0109 17.0302 50.8396 17.2767 50.166 17.5078 C 49.6125 17.7398 48.9723 17.5459 48.6406 17.0459 C 48.5572 16.9431 48.4758 16.8382 48.3641 16.6978 C 48.0598 17.0398 47.8122 17.3548 47.525 17.6314 C 46.2933 18.8164 43.7785 18.7965 42.2276 17.5662 C 39.8646 15.6932 39.3111 11.7523 41.1057 9.3518 C 42.1546 7.9139 44.0089 7.313 45.7018 7.8624 C 46.0519 8.0102 46.3908 8.1833 46.7159 8.3802 C 46.7487 8.2724 46.7837 8.1716 46.8095 8.0689 C 46.9826 7.3943 47.3742 7.0788 48.111 7.0211 C 48.8071 6.967 49.132 7.1098 49.3428 7.8579 C 49.671 9.0241 49.8937 10.2191 50.1366 11.4077 C 50.4129 12.7592 50.6648 14.1161 50.9188 15.473 C 50.9666 15.7342 50.9927 15.999 50.9967 16.2646 Z M 47.5776 13.3242 L 47.5768 13.2771 C 47.5761 13.2401 47.5755 13.204 47.5739 13.1679 C 47.5722 13.1339 47.5706 13.0988 47.568 13.0648 C 47.5677 13.0474 47.5664 13.03 47.564 13.0127 C 47.5615 12.9847 47.559 12.9577 47.5565 12.9307 C 47.5562 12.9229 47.5554 12.9153 47.554 12.9076 C 47.5505 12.8776 47.5469 12.8486 47.5433 12.8186 C 47.508 12.5552 47.4436 12.2964 47.3515 12.0471 C 47.3375 12.0072 47.3226 11.9684 47.3066 11.9296 C 47.2597 11.8131 47.2067 11.6977 47.1476 11.5845 C 47.1022 11.498 47.0539 11.4137 47.0024 11.3303 C 46.951 11.247 46.8965 11.1648 46.838 11.0846 C 46.3615 10.33 45.464 9.9541 44.592 10.1439 C 43.7861 10.2821 43.1496 10.9044 42.9933 11.707 C 42.6652 12.8697 42.9214 14.1194 43.6806 15.0592 C 44.1651 15.7662 45.0443 16.0886 45.8711 15.8625 C 45.9046 15.855 45.9371 15.8454 45.9706 15.8358 C 46.0041 15.8262 46.0366 15.8156 46.068 15.804 C 46.0739 15.8027 46.0797 15.8009 46.0853 15.7987 C 46.1076 15.7913 46.1289 15.7839 46.1502 15.7745 C 46.1559 15.7733 46.1614 15.7712 46.1664 15.7682 C 46.1938 15.7577 46.2201 15.7462 46.2464 15.7338 C 46.2531 15.7316 46.2595 15.7288 46.2657 15.7254 C 46.291 15.7139 46.3163 15.7025 46.3416 15.689 C 46.4043 15.657 46.4653 15.6219 46.5245 15.5836 C 46.5437 15.5713 46.5628 15.5589 46.581 15.5456 C 46.5981 15.5332 46.6163 15.5209 46.6333 15.5066 C 46.6475 15.4963 46.6616 15.486 46.6746 15.4748 C 46.6822 15.4705 46.6891 15.465 46.6948 15.4584 C 46.7089 15.4481 46.723 15.4369 46.737 15.4246 C 46.7652 15.4021 46.7913 15.3776 46.8184 15.352 C 46.8506 15.3214 46.8827 15.2898 46.9127 15.2562 C 46.9438 15.2236 46.9728 15.189 47.0018 15.1544 C 47.0128 15.1412 47.0228 15.129 47.0327 15.1158 C 47.0437 15.1016 47.0547 15.0873 47.0647 15.0731 C 47.0757 15.0589 47.0866 15.0447 47.0966 15.0295 C 47.1018 15.0231 47.1065 15.0164 47.1105 15.0092 C 47.1265 14.9869 47.1414 14.9646 47.1553 14.9413 C 47.1983 14.8743 47.2377 14.805 47.2732 14.7338 C 47.285 14.7115 47.2959 14.6883 47.3067 14.665 C 47.3175 14.6418 47.3283 14.6186 47.3381 14.5953 C 47.3597 14.5448 47.3802 14.4934 47.3987 14.4409 C 47.4066 14.4197 47.4143 14.3976 47.4211 14.3754 C 47.4396 14.321 47.4559 14.2655 47.4703 14.2092 C 47.4799 14.1729 47.4894 14.1367 47.497 14.1004 C 47.5056 14.0642 47.5131 14.027 47.5196 13.9898 C 47.5271 13.9556 47.5327 13.9204 47.5382 13.8852 C 47.5455 13.837 47.5518 13.7888 47.5571 13.7386 C 47.5607 13.7084 47.5632 13.6773 47.5657 13.6462 C 47.5683 13.6161 47.5708 13.585 47.5713 13.5539 C 47.5728 13.5238 47.5743 13.4937 47.5759 13.4626 L 47.5773 13.3703 C 47.5781 13.3543 47.5778 13.3392 47.5776 13.3242 Z " stroke-width="1" fill="#bba192" stroke="none"/></g><g><path d="M 17.1708 43.3031 C 15.599 44.2192 13.8624 44.456 12.1524 44.8291 C 10.3211 45.2299 8.4692 45.5456 6.6266 45.897 C 5.2143 46.1675 4.0005 45.2206 3.6951 43.6579 C 2.5515 37.8247 1.4056 31.9916 0.2573 26.1585 C 0.2192 25.9643 0.1533 25.7756 0.1117 25.5831 C -0.2781 23.7688 0.3373 22.7101 2.197 22.3413 C 4.879 21.8112 7.5711 21.1545 10.2856 20.995 C 14.113 20.7684 17.0211 24.475 16.048 28.1166 C 15.8142 28.9978 15.0961 29.7574 14.5808 30.5613 C 14.4044 30.7731 14.2078 30.9672 13.9937 31.1408 C 16.4008 31.3285 18.3308 32.1109 19.4697 34.0577 C 21.1016 36.844 20.7745 41.2047 17.1708 43.303 Z M 6.2244 30.6058 C 6.2297 30.7972 6.3275 30.974 6.4869 31.0801 C 6.6462 31.1861 6.8471 31.2082 7.0256 31.1392 C 7.9275 30.951 8.8404 30.7917 9.7183 30.5184 C 10.7733 30.2084 11.4801 29.2177 11.4299 28.1191 C 11.5481 26.8979 10.3297 25.3835 8.8925 25.6219 C 7.9274 25.7804 6.9393 25.8162 5.978 25.9935 C 5.7083 26.121 5.5252 26.3804 5.4954 26.6772 C 5.6955 27.992 5.9878 29.2951 6.2244 30.6059 Z M 15.1331 37.169 C 14.8535 35.5887 13.8816 34.6445 11.4354 34.7122 C 10.5628 34.8897 9.1786 35.1734 7.7961 35.4536 C 7.2792 35.5583 7.2904 35.9086 7.3703 36.3005 C 7.6426 37.6637 7.9289 39.0232 8.1769 40.3903 C 8.2885 41.0039 8.6485 41.0883 9.1776 40.9818 C 10.3623 40.7408 11.5564 40.5373 12.7356 40.2708 C 14.2476 39.9302 15.372 38.5071 15.1331 37.169 Z " stroke-width="1" fill="#ff5a00" stroke="none"/><path d="M 17.1708 43.3031 C 15.599 44.2192 13.8624 44.456 12.1524 44.8291 C 10.3211 45.2299 8.4692 45.5456 6.6266 45.897 C 5.2143 46.1675 4.0005 45.2206 3.6951 43.6579 C 2.5515 37.8247 1.4056 31.9916 0.2573 26.1585 C 0.2192 25.9643 0.1533 25.7756 0.1117 25.5831 C -0.2781 23.7688 0.3373 22.7101 2.197 22.3413 C 4.879 21.8112 7.5711 21.1545 10.2856 20.995 C 14.113 20.7684 17.0211 24.475 16.048 28.1166 C 15.8142 28.9978 15.0961 29.7574 14.5808 30.5613 C 14.4044 30.7731 14.2078 30.9672 13.9937 31.1408 C 16.4008 31.3285 18.3308 32.1109 19.4697 34.0577 C 21.1016 36.844 20.7745 41.2047 17.1708 43.303 Z M 6.2244 30.6058 C 6.2297 30.7972 6.3275 30.974 6.4869 31.0801 C 6.6462 31.1861 6.8471 31.2082 7.0256 31.1392 C 7.9275 30.951 8.8404 30.7917 9.7183 30.5184 C 10.7733 30.2084 11.4801 29.2177 11.4299 28.1191 C 11.5481 26.8979 10.3297 25.3835 8.8925 25.6219 C 7.9274 25.7804 6.9393 25.8162 5.978 25.9935 C 5.7083 26.121 5.5252 26.3804 5.4954 26.6772 C 5.6955 27.992 5.9878 29.2951 6.2244 30.6059 Z M 15.1331 37.169 C 14.8535 35.5887 13.8816 34.6445 11.4354 34.7122 C 10.5628 34.8897 9.1786 35.1734 7.7961 35.4536 C 7.2792 35.5583 7.2904 35.9086 7.3703 36.3005 C 7.6426 37.6637 7.9289 39.0232 8.1769 40.3903 C 8.2885 41.0039 8.6485 41.0883 9.1776 40.9818 C 10.3623 40.7408 11.5564 40.5373 12.7356 40.2708 C 14.2476 39.9302 15.372 38.5071 15.1331 37.169 Z " stroke-width="1" fill="#ff5a00" stroke="none"/><path d="M 47.1538 36.4781 C 47.178 37.784 46.8859 38.2045 45.7368 38.5987 C 44.6795 38.9606 43.871 38.7146 43.1348 37.8108 C 42.9925 37.6354 42.8537 37.4565 42.6633 37.217 C 42.1442 37.8004 41.7217 38.3378 41.232 38.8096 C 39.1309 40.8308 34.8412 40.7969 32.1958 38.6982 C 28.165 35.5034 27.2209 28.7811 30.282 24.6864 C 32.0712 22.2336 35.2342 21.2087 38.122 22.1458 C 38.7192 22.398 39.2973 22.6932 39.8518 23.0291 C 39.9078 22.8452 39.9675 22.6732 40.0115 22.498 C 40.3068 21.3473 40.9747 20.8092 42.2315 20.7106 C 43.4188 20.6184 43.9731 20.8619 44.3327 22.1381 C 44.8926 24.1273 45.2723 26.1658 45.6867 28.1934 C 46.158 30.4987 46.5878 32.8133 47.021 35.1278 C 47.1026 35.5735 47.1471 36.0251 47.1539 36.4781 Z M 41.3211 31.5411 C 41.3223 31.5138 41.3219 31.4881 41.3215 31.4625 L 41.3201 31.3821 C 41.319 31.3189 41.3179 31.2574 41.3151 31.1958 C 41.3124 31.1378 41.3096 31.078 41.3051 31.0199 C 41.3046 30.9902 41.3023 30.9605 41.2984 30.9311 C 41.2941 30.8833 41.2898 30.8372 41.2855 30.7911 C 41.285 30.778 41.2836 30.7648 41.2814 30.7519 C 41.2753 30.7007 41.2692 30.6512 41.2631 30.6 C 41.2028 30.1506 41.093 29.7092 40.9358 29.2839 C 40.9121 29.2159 40.8865 29.1497 40.8593 29.0835 C 40.7793 28.8848 40.6889 28.688 40.5881 28.4948 C 40.5107 28.3474 40.4281 28.2034 40.3404 28.0613 C 40.2527 27.9192 40.1597 27.7789 40.0599 27.6421 C 39.1362 26.3636 37.8631 25.7204 36.2288 26.0375 C 34.7316 26.3282 33.8573 27.3128 33.5017 28.7039 C 32.9421 30.6872 33.3792 32.8188 34.6741 34.422 C 35.6014 35.6098 36.8383 36.1733 38.4106 35.7923 C 38.4678 35.7793 38.5232 35.763 38.5804 35.7466 C 38.6376 35.7303 38.693 35.7122 38.7466 35.6925 C 38.7566 35.6903 38.7665 35.6872 38.776 35.6834 C 38.8141 35.6708 38.8505 35.6582 38.8867 35.6422 C 38.8965 35.6401 38.9058 35.6365 38.9144 35.6315 C 38.9611 35.6136 39.006 35.594 39.0509 35.5727 C 39.0623 35.569 39.0733 35.5642 39.0837 35.5585 C 39.1269 35.5389 39.1701 35.5193 39.2132 35.4964 C 39.3202 35.4418 39.4244 35.3818 39.5252 35.3166 C 39.5579 35.2955 39.5906 35.2744 39.6216 35.2517 C 39.6508 35.2306 39.6818 35.2096 39.7109 35.1852 C 39.735 35.1676 39.7591 35.1501 39.7814 35.1309 C 39.7943 35.1237 39.8059 35.1142 39.8157 35.103 C 39.8398 35.0855 39.8638 35.0663 39.8878 35.0453 C 39.9359 35.0069 39.9804 34.9651 40.0267 34.9215 C 40.0815 34.8693 40.1363 34.8153 40.1875 34.758 C 40.2405 34.7024 40.29 34.6434 40.3394 34.5844 C 40.3582 34.5619 40.3752 34.5411 40.3923 34.5186 C 40.411 34.4943 40.4297 34.47 40.4467 34.4458 C 40.4655 34.4216 40.4842 34.3973 40.5011 34.3713 C 40.51 34.3605 40.518 34.3489 40.5249 34.3367 C 40.5521 34.2986 40.5776 34.2606 40.6013 34.2208 C 40.6747 34.1066 40.7418 33.9884 40.8023 33.8669 C 40.8226 33.8289 40.841 33.7893 40.8595 33.7496 C 40.8779 33.71 40.8964 33.6703 40.9131 33.6307 C 40.9499 33.5446 40.985 33.4568 41.0165 33.3673 C 41.0298 33.3312 41.0431 33.2933 41.0546 33.2555 C 41.0861 33.1627 41.1141 33.0681 41.1385 32.9719 C 41.1549 32.9101 41.1712 32.8483 41.1841 32.7865 C 41.1987 32.7247 41.2115 32.6612 41.2226 32.5978 C 41.2355 32.5394 41.2449 32.4794 41.2543 32.4194 C 41.2668 32.3371 41.2776 32.2549 41.2866 32.1692 C 41.2927 32.1178 41.297 32.0647 41.3013 32.0117 C 41.3056 31.9603 41.3099 31.9072 41.3107 31.8542 C 41.3133 31.8029 41.3159 31.7515 41.3185 31.6985 C 41.3194 31.6471 41.3202 31.5941 41.321 31.5411 Z " stroke-width="1" fill="#ff5a00" stroke="none"/><path d="M 47.1538 36.4781 C 47.178 37.784 46.8859 38.2045 45.7368 38.5987 C 44.6795 38.9606 43.871 38.7146 43.1348 37.8108 C 42.9925 37.6354 42.8537 37.4565 42.6633 37.217 C 42.1442 37.8004 41.7217 38.3378 41.232 38.8096 C 39.1309 40.8308 34.8412 40.7969 32.1958 38.6982 C 28.165 35.5034 27.2209 28.7811 30.282 24.6864 C 32.0712 22.2336 35.2342 21.2087 38.122 22.1458 C 38.7192 22.398 39.2973 22.6932 39.8518 23.0291 C 39.9078 22.8452 39.9675 22.6732 40.0115 22.498 C 40.3068 21.3473 40.9747 20.8092 42.2315 20.7106 C 43.4188 20.6184 43.9731 20.8619 44.3327 22.1381 C 44.8926 24.1273 45.2723 26.1658 45.6867 28.1934 C 46.158 30.4987 46.5878 32.8133 47.021 35.1278 C 47.1026 35.5735 47.1471 36.0251 47.1539 36.4781 Z M 41.3211 31.5411 C 41.3223 31.5138 41.3219 31.4881 41.3215 31.4625 L 41.3201 31.3821 C 41.319 31.3189 41.3179 31.2574 41.3151 31.1958 C 41.3124 31.1378 41.3096 31.078 41.3051 31.0199 C 41.3046 30.9902 41.3023 30.9605 41.2984 30.9311 C 41.2941 30.8833 41.2898 30.8372 41.2855 30.7911 C 41.285 30.778 41.2836 30.7648 41.2814 30.7519 C 41.2753 30.7007 41.2692 30.6512 41.2631 30.6 C 41.2028 30.1506 41.093 29.7092 40.9358 29.2839 C 40.9121 29.2159 40.8865 29.1497 40.8593 29.0835 C 40.7793 28.8848 40.6889 28.688 40.5881 28.4948 C 40.5107 28.3474 40.4281 28.2034 40.3404 28.0613 C 40.2527 27.9192 40.1597 27.7789 40.0599 27.6421 C 39.1362 26.3636 37.8631 25.7204 36.2288 26.0375 C 34.7316 26.3282 33.8573 27.3128 33.5017 28.7039 C 32.9421 30.6872 33.3792 32.8188 34.6741 34.422 C 35.6014 35.6098 36.8383 36.1733 38.4106 35.7923 C 38.4678 35.7793 38.5232 35.763 38.5804 35.7466 C 38.6376 35.7303 38.693 35.7122 38.7466 35.6925 C 38.7566 35.6903 38.7665 35.6872 38.776 35.6834 C 38.8141 35.6708 38.8505 35.6582 38.8867 35.6422 C 38.8965 35.6401 38.9058 35.6365 38.9144 35.6315 C 38.9611 35.6136 39.006 35.594 39.0509 35.5727 C 39.0623 35.569 39.0733 35.5642 39.0837 35.5585 C 39.1269 35.5389 39.1701 35.5193 39.2132 35.4964 C 39.3202 35.4418 39.4244 35.3818 39.5252 35.3166 C 39.5579 35.2955 39.5906 35.2744 39.6216 35.2517 C 39.6508 35.2306 39.6818 35.2096 39.7109 35.1852 C 39.735 35.1676 39.7591 35.1501 39.7814 35.1309 C 39.7943 35.1237 39.8059 35.1142 39.8157 35.103 C 39.8398 35.0855 39.8638 35.0663 39.8878 35.0453 C 39.9359 35.0069 39.9804 34.9651 40.0267 34.9215 C 40.0815 34.8693 40.1363 34.8153 40.1875 34.758 C 40.2405 34.7024 40.29 34.6434 40.3394 34.5844 C 40.3582 34.5619 40.3752 34.5411 40.3923 34.5186 C 40.411 34.4943 40.4297 34.47 40.4467 34.4458 C 40.4655 34.4216 40.4842 34.3973 40.5011 34.3713 C 40.51 34.3605 40.518 34.3489 40.5249 34.3367 C 40.5521 34.2986 40.5776 34.2606 40.6013 34.2208 C 40.6747 34.1066 40.7418 33.9884 40.8023 33.8669 C 40.8226 33.8289 40.841 33.7893 40.8595 33.7496 C 40.8779 33.71 40.8964 33.6703 40.9131 33.6307 C 40.9499 33.5446 40.985 33.4568 41.0165 33.3673 C 41.0298 33.3312 41.0431 33.2933 41.0546 33.2555 C 41.0861 33.1627 41.1141 33.0681 41.1385 32.9719 C 41.1549 32.9101 41.1712 32.8483 41.1841 32.7865 C 41.1987 32.7247 41.2115 32.6612 41.2226 32.5978 C 41.2355 32.5394 41.2449 32.4794 41.2543 32.4194 C 41.2668 32.3371 41.2776 32.2549 41.2866 32.1692 C 41.2927 32.1178 41.297 32.0647 41.3013 32.0117 C 41.3056 31.9603 41.3099 31.9072 41.3107 31.8542 C 41.3133 31.8029 41.3159 31.7515 41.3185 31.6985 C 41.3194 31.6471 41.3202 31.5941 41.321 31.5411 Z " stroke-width="1" fill="#ff5a00" stroke="none"/><path d="M 60.2101 35.0122 C 57.5929 37.1859 52.9542 37.6094 50.0055 35.8973 C 49.049 35.3409 48.6406 34.4657 48.9067 33.5446 C 49.2239 32.4517 49.8849 31.9188 51.0662 31.984 C 51.7236 32.0506 52.3712 32.1915 52.9969 32.4039 C 54.0641 32.7155 55.1262 32.9315 56.2272 32.5792 C 56.8764 32.3696 57.5012 32.1657 57.5022 31.3107 C 57.5027 30.4267 56.9582 30.0446 56.1876 29.8697 C 54.9486 29.5918 53.6851 29.4015 52.4675 29.0514 C 51.4113 28.7837 50.3932 28.3836 49.4373 27.8605 C 47.1599 26.5095 46.848 22.8455 48.7365 20.7151 C 50.1419 19.1298 52.2471 18.2592 54.8182 18.0577 C 55.9069 18.304 57.0137 18.4901 58.0759 18.8172 C 58.9274 19.0595 59.5672 19.7646 59.726 20.6355 C 60.0168 21.9539 59.1208 23.0961 57.7646 22.9827 C 56.8215 22.9031 55.8981 22.5514 54.9554 22.4975 C 54.2226 22.44 53.4866 22.56 52.81 22.8473 C 52.3925 23.0073 52.118 23.4094 52.121 23.8564 C 52.1241 24.3035 52.404 24.7018 52.8236 24.8561 C 53.7762 25.2877 54.8414 25.4831 55.8661 25.7528 C 56.7841 25.9935 57.7252 26.1585 58.635 26.425 C 63.0315 27.7122 63.0796 32.6306 60.21 35.0122 Z " stroke-width="1" fill="#ff5a00" stroke="none"/><path d="M 68.5855 22.0066 C 69.2025 25.0908 69.8543 28.1676 70.44 31.2558 C 70.7539 32.9073 69.6911 34.2695 68.1566 34.3147 C 67.0464 34.3548 66.07 33.5861 65.8485 32.4975 C 65.4508 30.9346 65.1953 29.3369 64.8723 27.7574 C 64.4825 25.8422 64.0563 23.9345 63.7012 22.0153 C 63.5592 21.2483 63.3036 20.9587 62.4382 21.1462 C 61.0595 21.4469 60.1384 20.8267 59.9053 19.6167 C 59.6567 18.3215 60.3177 17.3834 61.7534 17.1604 C 62.5694 17.0335 62.7337 16.6664 62.549 15.9498 C 62.3604 15.2075 62.2117 14.4543 62.096 13.6988 C 61.9001 12.4318 62.5794 11.3429 63.7161 11.0361 C 64.9739 10.6947 66.1122 11.1898 66.5898 12.4435 C 66.8906 13.3275 67.1067 14.2381 67.2354 15.163 C 67.336 15.7495 67.5068 16.0629 68.1825 15.8837 C 68.5499 15.8007 68.9247 15.7553 69.3012 15.7482 C 70.6385 15.6688 71.3603 16.2445 71.5811 17.5436 C 71.7517 18.5581 71.1276 19.4135 69.9808 19.7393 C 68.2364 20.2326 68.2295 20.2345 68.5855 22.0066 Z " stroke-width="1" fill="#ff5a00" stroke="none"/><path d="M 27.7536 39.7167 C 27.7753 41.2843 27.0143 42.1763 25.6465 42.4016 C 24.4515 42.5734 23.3303 41.7823 23.0915 40.5989 C 22.5291 38.0591 22.0637 35.4972 21.5551 32.9446 C 20.9666 30.0052 20.3695 27.066 19.7863 24.1265 C 19.4833 22.5997 19.1507 21.0768 18.9172 19.5419 C 18.6839 18.0241 19.4288 17.0042 20.8546 16.7061 C 22.0028 16.4675 23.2151 17.2178 23.5378 18.5733 C 24.1007 20.9438 24.5493 23.3418 25.0256 25.7326 C 25.8944 30.0966 26.7546 34.4624 27.606 38.8301 C 27.6766 39.1897 27.7264 39.5548 27.7536 39.7168 Z " stroke-width="1" fill="#ff5a00" stroke="none"/><path d="M 36.1079 18.6 C 35.6005 18.8733 35.059 19.0781 34.4978 19.209 C 33.0618 19.5227 31.613 19.7955 30.1601 20.0308 C 29.1585 20.1934 28.5506 19.7627 28.3527 18.7829 C 27.6308 15.2001 26.9204 11.6159 26.2217 8.0304 C 26.0402 7.0948 26.4277 6.5495 27.3661 6.3573 C 28.6081 6.1 29.8518 5.8478 31.1013 5.6262 C 33.2202 5.2478 34.7672 6.0265 35.4368 7.8138 C 35.8582 8.9368 35.7318 9.9871 34.8772 10.9029 C 34.7473 11.0419 34.6386 11.2028 34.4837 11.4021 C 36.2017 11.706 37.4543 12.4692 37.9583 14.1465 C 38.4623 15.8812 37.6929 17.7332 36.1079 18.6 Z M 30.4527 11.4337 C 31.8877 11.3714 32.8976 10.6804 32.9009 9.7587 C 32.9046 8.8644 32.1657 8.2035 31.1947 8.227 C 29.9489 8.2587 29.3884 8.559 29.413 9.1775 C 29.4862 10.9032 29.7447 11.4647 30.4527 11.4338 Z M 34.2052 16.5085 C 34.5449 16.3826 34.8206 16.1268 34.9718 15.7976 C 35.123 15.4683 35.1371 15.0925 35.0112 14.7528 C 34.8393 13.9871 34.1098 13.4803 33.3323 13.5865 C 32.3953 13.6608 31.465 13.8221 30.3952 13.9619 C 30.5592 14.9987 30.675 15.8619 30.8498 16.7138 C 30.8879 16.9063 31.1702 17.2229 31.2864 17.2021 C 32.2759 17.0688 33.2498 16.8378 34.1938 16.5126 Z " stroke-width="1" fill="#ff5a00" stroke="none"/><path d="M 36.1079 18.6 C 35.6005 18.8733 35.059 19.0781 34.4978 19.209 C 33.0618 19.5227 31.613 19.7955 30.1601 20.0308 C 29.1585 20.1934 28.5506 19.7627 28.3527 18.7829 C 27.6308 15.2001 26.9204 11.6159 26.2217 8.0304 C 26.0402 7.0948 26.4277 6.5495 27.3661 6.3573 C 28.6081 6.1 29.8518 5.8478 31.1013 5.6262 C 33.2202 5.2478 34.7672 6.0265 35.4368 7.8138 C 35.8582 8.9368 35.7318 9.9871 34.8772 10.9029 C 34.7473 11.0419 34.6386 11.2028 34.4837 11.4021 C 36.2017 11.706 37.4543 12.4692 37.9583 14.1465 C 38.4623 15.8812 37.6929 17.7332 36.1079 18.6 Z M 30.4527 11.4337 C 31.8877 11.3714 32.8976 10.6804 32.9009 9.7587 C 32.9046 8.8644 32.1657 8.2035 31.1947 8.227 C 29.9489 8.2587 29.3884 8.559 29.413 9.1775 C 29.4862 10.9032 29.7447 11.4647 30.4527 11.4338 Z M 34.2052 16.5085 C 34.5449 16.3826 34.8206 16.1268 34.9718 15.7976 C 35.123 15.4683 35.1371 15.0925 35.0112 14.7528 C 34.8393 13.9871 34.1098 13.4803 33.3323 13.5865 C 32.3953 13.6608 31.465 13.8221 30.3952 13.9619 C 30.5592 14.9987 30.675 15.8619 30.8498 16.7138 C 30.8879 16.9063 31.1702 17.2229 31.2864 17.2021 C 32.2759 17.0688 33.2498 16.8378 34.1938 16.5126 Z " stroke-width="1" fill="#ff5a00" stroke="none"/><path d="M 53.8047 14.2877 C 53.8112 15.1733 53.2738 15.8067 52.5506 15.8635 C 51.8364 15.8936 51.2153 15.3783 51.1132 14.6709 C 50.3129 10.6493 49.5167 6.6266 48.7245 2.6027 C 48.5489 1.7047 48.9206 1.0485 49.6834 0.8661 C 50.0233 0.7807 50.3832 0.8338 50.6839 1.0138 C 50.9847 1.1937 51.2016 1.4858 51.287 1.8257 C 51.2936 1.852 51.2994 1.8785 51.3044 1.9052 C 51.6591 3.2995 51.9255 4.7157 52.209 6.1249 C 52.723 8.6792 53.223 11.2371 53.7265 13.7932 C 53.7647 13.9875 53.7872 14.1837 53.8047 14.2877 Z " stroke-width="1" fill="#ff5a00" stroke="none"/><path d="M 58.2879 13.4292 C 58.3119 14.3196 57.8433 14.9039 57.0858 14.9887 C 56.3663 15.0792 55.7077 14.5747 55.6076 13.8566 C 54.7838 9.7808 53.9721 5.7036 53.1726 1.6251 C 53.0333 0.9128 53.2668 0.3189 54.0391 0.0816 C 54.8165 -0.1592 55.5475 0.136 55.7682 0.9256 C 56.1021 2.1202 56.2939 3.3548 56.5395 4.5749 C 57.1011 7.3762 57.6611 10.1782 58.2193 12.9807 C 58.2535 13.1477 58.2721 13.3166 58.288 13.4292 Z " stroke-width="1" fill="#ff5a00" stroke="none"/><path d="M 49.5222 15.414 C 49.5364 16.1796 49.3651 16.4261 48.6915 16.6572 C 48.138 16.8893 47.4978 16.6954 47.1661 16.1953 C 47.0827 16.0925 47.0013 15.9876 46.8896 15.8472 C 46.5853 16.1892 46.3376 16.5042 46.0505 16.7808 C 44.8188 17.9658 42.304 17.9459 40.7531 16.7156 C 38.3901 14.8426 37.8366 10.9017 39.6312 8.5012 C 40.6801 7.0633 42.5344 6.4624 44.2273 7.0118 C 44.5774 7.1597 44.9163 7.3327 45.2414 7.5296 C 45.2742 7.4218 45.3092 7.321 45.335 7.2183 C 45.5081 6.5437 45.8997 6.2283 46.6365 6.1705 C 47.3325 6.1164 47.6575 6.2592 47.8683 7.0073 C 48.1965 8.1735 48.4192 9.3685 48.6621 10.5572 C 48.9384 11.9087 49.1903 13.2655 49.4443 14.6224 C 49.4921 14.8837 49.5182 15.1484 49.5222 15.414 Z M 46.1031 12.4737 L 46.1022 12.4266 C 46.1016 12.3895 46.101 12.3534 46.0993 12.3174 C 46.0977 12.2833 46.0961 12.2483 46.0935 12.2142 C 46.0932 12.1968 46.0919 12.1794 46.0895 12.1621 C 46.087 12.1341 46.0845 12.1071 46.082 12.0801 C 46.0817 12.0724 46.0809 12.0647 46.0795 12.0571 C 46.076 12.027 46.0724 11.998 46.0688 11.968 C 46.0335 11.7046 45.9691 11.4458 45.877 11.1965 C 45.863 11.1566 45.8481 11.1178 45.8321 11.079 C 45.7852 10.9625 45.7322 10.8471 45.6731 10.7339 C 45.6277 10.6475 45.5794 10.5631 45.5279 10.4798 C 45.4765 10.3964 45.422 10.3142 45.3635 10.234 C 44.887 9.4795 43.9895 9.1035 43.1175 9.2933 C 42.3116 9.4315 41.6751 10.0538 41.5188 10.8564 C 41.1907 12.0192 41.4469 13.2688 42.206 14.2086 C 42.6906 14.9156 43.5698 15.238 44.3966 15.012 C 44.4301 15.0044 44.4626 14.9948 44.4961 14.9852 C 44.5296 14.9756 44.5621 14.965 44.5935 14.9534 C 44.5994 14.9521 44.6052 14.9504 44.6108 14.9481 C 44.6331 14.9407 44.6544 14.9333 44.6757 14.9239 C 44.6814 14.9227 44.6869 14.9206 44.6919 14.9176 C 44.7193 14.9072 44.7456 14.8957 44.7719 14.8832 C 44.7786 14.881 44.785 14.8782 44.7912 14.8748 C 44.8165 14.8633 44.8418 14.8519 44.8671 14.8384 C 44.9298 14.8064 44.9908 14.7713 45.05 14.733 C 45.0691 14.7207 45.0883 14.7083 45.1064 14.695 C 45.1236 14.6826 45.1417 14.6703 45.1588 14.656 C 45.1729 14.6457 45.187 14.6355 45.2001 14.6242 C 45.2077 14.6199 45.2146 14.6144 45.2202 14.6078 C 45.2344 14.5976 45.2485 14.5863 45.2625 14.574 C 45.2907 14.5515 45.3168 14.527 45.3439 14.5014 C 45.3761 14.4708 45.4082 14.4392 45.4382 14.4056 C 45.4693 14.373 45.4983 14.3384 45.5272 14.3038 C 45.5382 14.2906 45.5482 14.2784 45.5582 14.2652 C 45.5692 14.251 45.5802 14.2368 45.5902 14.2226 C 45.6011 14.2083 45.6121 14.1941 45.6221 14.1789 C 45.6273 14.1726 45.6319 14.1658 45.636 14.1586 C 45.6519 14.1363 45.6669 14.114 45.6808 14.0907 C 45.7238 14.0237 45.7632 13.9545 45.7987 13.8832 C 45.8105 13.8609 45.8213 13.8377 45.8322 13.8145 C 45.843 13.7912 45.8538 13.768 45.8636 13.7448 C 45.8852 13.6943 45.9057 13.6428 45.9242 13.5904 C 45.932 13.5692 45.9398 13.547 45.9466 13.5248 C 45.965 13.4704 45.9814 13.415 45.9958 13.3586 C 46.0054 13.3223 46.0149 13.2861 46.0225 13.2499 C 46.031 13.2136 46.0385 13.1764 46.0451 13.1392 C 46.0526 13.105 46.0582 13.0698 46.0637 13.0347 C 46.071 12.9864 46.0773 12.9382 46.0826 12.888 C 46.0862 12.8579 46.0887 12.8267 46.0912 12.7956 C 46.0938 12.7655 46.0963 12.7344 46.0968 12.7033 C 46.0983 12.6732 46.0998 12.6431 46.1013 12.612 L 46.1028 12.5197 C 46.1035 12.5037 46.1033 12.4887 46.1031 12.4736 Z " stroke-width="1" fill="#ff5a00" stroke="none"/><path d="M 49.5222 15.414 C 49.5364 16.1796 49.3651 16.4261 48.6915 16.6572 C 48.138 16.8893 47.4978 16.6954 47.1661 16.1953 C 47.0827 16.0925 47.0013 15.9876 46.8896 15.8472 C 46.5853 16.1892 46.3376 16.5042 46.0505 16.7808 C 44.8188 17.9658 42.304 17.9459 40.7531 16.7156 C 38.3901 14.8426 37.8366 10.9017 39.6312 8.5012 C 40.6801 7.0633 42.5344 6.4624 44.2273 7.0118 C 44.5774 7.1597 44.9163 7.3327 45.2414 7.5296 C 45.2742 7.4218 45.3092 7.321 45.335 7.2183 C 45.5081 6.5437 45.8997 6.2283 46.6365 6.1705 C 47.3325 6.1164 47.6575 6.2592 47.8683 7.0073 C 48.1965 8.1735 48.4192 9.3685 48.6621 10.5572 C 48.9384 11.9087 49.1903 13.2655 49.4443 14.6224 C 49.4921 14.8837 49.5182 15.1484 49.5222 15.414 Z M 46.1031 12.4737 L 46.1022 12.4266 C 46.1016 12.3895 46.101 12.3534 46.0993 12.3174 C 46.0977 12.2833 46.0961 12.2483 46.0935 12.2142 C 46.0932 12.1968 46.0919 12.1794 46.0895 12.1621 C 46.087 12.1341 46.0845 12.1071 46.082 12.0801 C 46.0817 12.0724 46.0809 12.0647 46.0795 12.0571 C 46.076 12.027 46.0724 11.998 46.0688 11.968 C 46.0335 11.7046 45.9691 11.4458 45.877 11.1965 C 45.863 11.1566 45.8481 11.1178 45.8321 11.079 C 45.7852 10.9625 45.7322 10.8471 45.6731 10.7339 C 45.6277 10.6475 45.5794 10.5631 45.5279 10.4798 C 45.4765 10.3964 45.422 10.3142 45.3635 10.234 C 44.887 9.4795 43.9895 9.1035 43.1175 9.2933 C 42.3116 9.4315 41.6751 10.0538 41.5188 10.8564 C 41.1907 12.0192 41.4469 13.2688 42.206 14.2086 C 42.6906 14.9156 43.5698 15.238 44.3966 15.012 C 44.4301 15.0044 44.4626 14.9948 44.4961 14.9852 C 44.5296 14.9756 44.5621 14.965 44.5935 14.9534 C 44.5994 14.9521 44.6052 14.9504 44.6108 14.9481 C 44.6331 14.9407 44.6544 14.9333 44.6757 14.9239 C 44.6814 14.9227 44.6869 14.9206 44.6919 14.9176 C 44.7193 14.9072 44.7456 14.8957 44.7719 14.8832 C 44.7786 14.881 44.785 14.8782 44.7912 14.8748 C 44.8165 14.8633 44.8418 14.8519 44.8671 14.8384 C 44.9298 14.8064 44.9908 14.7713 45.05 14.733 C 45.0691 14.7207 45.0883 14.7083 45.1064 14.695 C 45.1236 14.6826 45.1417 14.6703 45.1588 14.656 C 45.1729 14.6457 45.187 14.6355 45.2001 14.6242 C 45.2077 14.6199 45.2146 14.6144 45.2202 14.6078 C 45.2344 14.5976 45.2485 14.5863 45.2625 14.574 C 45.2907 14.5515 45.3168 14.527 45.3439 14.5014 C 45.3761 14.4708 45.4082 14.4392 45.4382 14.4056 C 45.4693 14.373 45.4983 14.3384 45.5272 14.3038 C 45.5382 14.2906 45.5482 14.2784 45.5582 14.2652 C 45.5692 14.251 45.5802 14.2368 45.5902 14.2226 C 45.6011 14.2083 45.6121 14.1941 45.6221 14.1789 C 45.6273 14.1726 45.6319 14.1658 45.636 14.1586 C 45.6519 14.1363 45.6669 14.114 45.6808 14.0907 C 45.7238 14.0237 45.7632 13.9545 45.7987 13.8832 C 45.8105 13.8609 45.8213 13.8377 45.8322 13.8145 C 45.843 13.7912 45.8538 13.768 45.8636 13.7448 C 45.8852 13.6943 45.9057 13.6428 45.9242 13.5904 C 45.932 13.5692 45.9398 13.547 45.9466 13.5248 C 45.965 13.4704 45.9814 13.415 45.9958 13.3586 C 46.0054 13.3223 46.0149 13.2861 46.0225 13.2499 C 46.031 13.2136 46.0385 13.1764 46.0451 13.1392 C 46.0526 13.105 46.0582 13.0698 46.0637 13.0347 C 46.071 12.9864 46.0773 12.9382 46.0826 12.888 C 46.0862 12.8579 46.0887 12.8267 46.0912 12.7956 C 46.0938 12.7655 46.0963 12.7344 46.0968 12.7033 C 46.0983 12.6732 46.0998 12.6431 46.1013 12.612 L 46.1028 12.5197 C 46.1035 12.5037 46.1033 12.4887 46.1031 12.4736 Z " stroke-width="1" fill="#ff5a00" stroke="none"/></g></g></g></svg>