<svg xmlns="http://www.w3.org/2000/svg" xmlns:xlink="http://www.w3.org/1999/xlink" version="1.1" width="129.21727" height="30.99234" viewBox="0,0,129.21727,30.99234"><g><g data-paper-data="{&quot;isPaintingLayer&quot;:true}" fill-rule="nonzero" stroke-linecap="butt" stroke-linejoin="miter" stroke-miterlimit="10" stroke-dasharray="" stroke-dashoffset="0" style="mix-blend-mode: normal"><path d="M 22.3316 27.5604 C 22.3424 28.4087 22.0131 29.2261 21.4171 29.83 C 20.8211 30.4338 20.0082 30.7739 19.1598 30.7743 C 18.03 30.761 16.9763 30.2022 16.3316 29.2743 L 9.0445 20.2303 L 6.6012 20.2303 L 6.6012 27.4744 C 6.6056 28.3584 6.2534 29.2068 5.6243 29.8279 C 4.9952 30.4489 4.1423 30.7901 3.2584 30.7742 C 2.3854 30.7794 1.5473 30.4321 0.934 29.8109 C 0.3207 29.1897 -0.0159 28.3472 0.0006 27.4744 L 0.0006 4.5857 C 0.0324 2.8306 1.46 1.422 3.2154 1.4139 L 10.2447 1.4139 C 17.3599 1.4139 20.8746 5.7859 20.8746 10.6727 C 20.9215 14.1629 18.9521 17.3675 15.817 18.9022 L 21.3463 25.16 C 21.9746 25.8014 22.3281 26.6625 22.3316 27.5604 Z M 6.6012 14.744 L 9.6881 14.744 C 12.3453 14.744 14.0592 13.5018 14.0592 11.0584 C 14.0592 8.5291 12.3453 7.244 9.6881 7.244 L 6.6012 7.244 Z " stroke-width="1" fill="#fc5702" stroke="none"/><path d="M 24.6002 20.7879 C 24.6002 14.8299 29.315 10.7586 35.0592 10.7586 C 40.8453 10.7586 45.5172 14.8299 45.5172 20.7879 C 45.3759 26.4626 40.7351 30.9893 35.0587 30.9893 C 29.3822 30.9893 24.7414 26.4626 24.6002 20.7879 Z M 39.0885 20.7879 C 39.0885 17.702 37.1168 16.159 35.0592 16.159 C 33.0016 16.159 31.0299 17.702 31.0299 20.7879 C 31.0299 23.9168 33.0015 25.5887 35.0592 25.5887 C 37.1168 25.5887 39.0885 23.9168 39.0885 20.7879 Z " stroke-width="1" fill="#fc5702" stroke="none"/><path d="M 48.2994 20.8738 C 48.2994 14.7869 52.8433 10.7156 58.8013 10.7156 C 60.7262 10.6661 62.6266 11.1559 64.2877 12.1297 C 65.1662 12.6756 65.7132 13.6251 65.7447 14.659 C 65.7811 15.3821 65.5158 16.0879 65.0121 16.6079 C 64.5083 17.1279 63.8114 17.4156 63.0875 17.4022 C 62.4098 17.379 61.7419 17.2338 61.1158 16.9734 C 60.4449 16.718 59.733 16.5873 59.0152 16.5877 C 57.87 16.5327 56.7542 16.9606 55.9395 17.7672 C 55.1247 18.5738 54.6856 19.6852 54.7291 20.8309 C 54.7049 22.0432 55.1939 23.2093 56.0754 24.0419 C 56.9569 24.8745 58.149 25.2961 59.358 25.2029 C 60.0036 25.2212 60.6458 25.1045 61.2437 24.8602 C 61.7763 24.6475 62.3423 24.5311 62.9156 24.5164 C 63.6314 24.4645 64.3355 24.7203 64.851 25.2197 C 65.3666 25.719 65.6448 26.4145 65.6158 27.1316 C 65.5661 28.437 64.7387 29.5854 63.5162 30.0457 C 62.0342 30.7066 60.4235 31.0288 58.8013 30.9891 C 52.8863 30.9891 48.2994 26.9598 48.2994 20.8738 Z " stroke-width="1" fill="#fc5702" stroke="none"/><path d="M 88.7584 27.7742 C 88.7635 28.5941 88.4311 29.3799 87.8393 29.9473 C 87.2475 30.5147 86.4484 30.8138 85.6295 30.7742 C 84.6068 30.7382 83.658 30.2322 83.0582 29.4031 L 78.2574 23.2313 L 75.7291 24.7743 L 75.7291 27.5604 C 75.7441 28.7036 75.1429 29.7664 74.1553 30.3423 C 73.1678 30.9183 71.9467 30.9183 70.9591 30.3423 C 69.9715 29.7664 69.3703 28.7035 69.3853 27.5604 L 69.3853 3.2147 C 69.37 2.0714 69.9712 1.0083 70.9589 0.4321 C 71.9466 -0.144 73.1679 -0.144 74.1556 0.4321 C 75.1432 1.0083 75.7444 2.0714 75.7291 3.2147 L 75.7291 18.5594 L 83.401 11.8299 C 83.9794 11.2802 84.7466 10.9733 85.5445 10.9725 C 87.1027 11.0216 88.3476 12.2858 88.3726 13.8445 C 88.3495 14.8049 87.8923 15.7031 87.1295 16.2869 L 83.0582 19.8016 L 87.6441 25.3738 C 88.3002 26.0082 88.6973 26.8636 88.7584 27.7742 Z " stroke-width="1" fill="#fc5702" stroke="none"/><path d="M 109.9723 19.3738 C 110.0305 20.1499 109.7846 20.9183 109.2867 21.5164 C 108.5493 22.1701 107.5624 22.4678 106.5865 22.3309 L 97.0709 22.3309 C 97.6715 24.3885 99.4283 25.5457 102.2574 25.5457 C 103.0503 25.5473 103.841 25.4608 104.6148 25.2879 C 105.1903 25.1419 105.7794 25.0559 106.3726 25.0311 C 107.0298 25.0254 107.661 25.287 108.1216 25.7558 C 108.5821 26.2246 108.8324 26.8604 108.815 27.5174 C 108.8144 28.6673 108.0955 29.6944 107.0152 30.0887 C 105.283 30.7078 103.4542 31.0127 101.6148 30.9891 C 95.4849 30.9891 90.7701 27.0457 90.7701 20.9168 C 90.7701 14.9588 95.0142 10.7586 101.0142 10.7586 C 103.3664 10.6336 105.6652 11.4894 107.3629 13.1221 C 109.0607 14.7549 110.0055 17.0186 109.9722 19.3738 Z M 104.5289 18.6873 C 104.5113 17.7605 104.1086 16.8828 103.4175 16.2649 C 102.7264 15.647 101.8094 15.3447 100.8863 15.4305 C 98.9382 15.3401 97.2445 16.7544 96.9859 18.6873 Z " stroke-width="1" fill="#fc5702" stroke="none"/><path d="M 129.2144 27.3455 C 129.2144 28.5457 128.4859 29.2742 127.1998 29.9178 C 125.7448 30.5726 124.1665 30.9086 122.5709 30.9031 C 117.5562 30.9031 115.1129 28.5457 115.1129 24.3455 L 115.1129 16.4588 L 113.6559 16.4588 C 113.153 16.4802 112.6631 16.2958 112.2991 15.9481 C 111.9352 15.6004 111.7287 15.1194 111.7272 14.616 C 111.7474 13.9259 112.0985 13.2877 112.6705 12.9012 L 118.0709 8.3582 C 118.4813 7.9445 119.0318 7.6995 119.6139 7.6716 C 120.5563 7.6716 121.4567 8.3152 121.4567 9.9012 L 121.4567 11.1444 L 126.3005 11.1444 C 127.7651 11.1515 128.9506 12.337 128.9577 13.8016 C 128.9614 14.5075 128.6827 15.1855 128.1835 15.6847 C 127.6844 16.1838 127.0063 16.4626 126.3005 16.4588 L 121.4567 16.4588 L 121.4567 23.1024 C 121.3901 23.6924 121.5929 24.2811 122.0086 24.705 C 122.4244 25.1289 123.009 25.343 123.6003 25.2879 C 124.108 25.2893 124.6132 25.2173 125.1003 25.0741 C 125.6108 24.8801 126.1436 24.7505 126.6862 24.6883 C 127.3788 24.6901 128.0406 24.9749 128.5181 25.4767 C 128.9955 25.9785 129.2471 26.6536 129.2144 27.3455 Z " stroke-width="1" fill="#fc5702" stroke="none"/></g></g></svg>