<svg xmlns="http://www.w3.org/2000/svg" xmlns:xlink="http://www.w3.org/1999/xlink" version="1.1" width="17.125" height="17.125" viewBox="0,0,17.125,17.125"><defs><linearGradient x1="231.4375" y1="180" x2="248.5625" y2="180" gradientUnits="userSpaceOnUse" id="color-1"><stop offset="0" stop-color="#9966ff" stop-opacity="0"/><stop offset="1" stop-color="#9966ff" stop-opacity="0"/></linearGradient></defs><g><g data-paper-data="{&quot;isPaintingLayer&quot;:true}" fill-rule="nonzero" stroke-linecap="butt" stroke-linejoin="miter" stroke-miterlimit="10" stroke-dasharray="" stroke-dashoffset="0" style="mix-blend-mode: normal"><path d="M 14.3748 6.4317 C 14.3748 11.8402 10.9488 15.2663 7.6204 16.7347 C 7.1847 16.9457 6.7094 17.0625 6.2255 17.0774 C 5.7823 17.1067 5.348 16.9433 5.034 16.6293 C 4.7199 16.3152 4.5565 15.8809 4.5858 15.4377 C 4.5858 14.4832 5.271 14.0427 6.0541 13.6756 C 7.7183 12.8925 9.1377 11.7422 9.9453 10.0537 C 9.2882 10.3725 8.5708 10.5476 7.8407 10.5675 C 4.8793 10.5675 2.7502 8.3895 2.7502 5.5996 C 2.7502 2.4671 5.0751 0.0442 8.477 0.0442 C 11.8299 0.0442 14.3748 2.614 14.3748 6.4317 Z M 10.7284 6.6274 L 10.7284 6.4317 C 10.7284 4.6206 9.9943 3.4214 8.5259 3.4214 C 7.3756 3.4214 6.5924 4.278 6.5924 5.4527 C 6.5783 5.983 6.7776 6.4967 7.1458 6.8787 C 7.5139 7.2606 8.02 7.4787 8.5504 7.484 C 9.3536 7.4588 10.1233 7.1561 10.7284 6.6274 Z " fill="#1a1a1a" stroke-width="1" stroke="none"/><path d="M231.4375,188.5625v-17.125h17.125v17.125z" fill="url(#color-1)" stroke-width="0" stroke="none" transform="matrix(1,0,0,1,-231.4375,-171.4375)"/></g></g></svg>