<svg xmlns="http://www.w3.org/2000/svg" xmlns:xlink="http://www.w3.org/1999/xlink" version="1.1" width="142.22186" height="156.36168" viewBox="0,0,142.22186,156.36168"><g><g data-paper-data="{&quot;isPaintingLayer&quot;:true}" fill-rule="nonzero" stroke-linecap="butt" stroke-linejoin="miter" stroke-miterlimit="10" stroke-dasharray="" stroke-dashoffset="0" style="mix-blend-mode: normal"><path d="M 142.2219 11.0901 L 142.2219 149.3347 C 142.2219 152.8309 139.9584 155.727 136.9945 156.2694 C 136.3283 156.3924 135.6451 156.3924 134.9789 156.2694 L 6.2372 156.2694 C 2.7919 156.2694 0 153.124 0 149.2447 L 0 11.0901 C 0 7.2108 2.7919 4.0655 6.2372 4.0655 L 135.9867 4.0655 C 139.4299 4.0655 142.2219 7.2108 142.2219 11.0901 Z " fill="#b2430b" stroke-width="1" stroke="none"/><path d="M 142.2219 7.0246 L 142.2219 145.2693 C 142.2219 148.7654 139.9584 151.6616 136.9945 152.2039 C 136.3283 152.327 135.6451 152.327 134.9789 152.2039 L 6.2372 152.2039 C 2.7919 152.2039 0 149.0585 0 145.1793 L 0 7.0246 C 0 3.1454 2.7919 0 6.2372 0 L 135.9867 0 C 139.4299 0 142.2219 3.1454 142.2219 7.0246 Z " fill="#fc5a03" stroke-width="1" stroke="none"/><path d="M 127.4007 16.3825 L 127.4007 35.0754 C 127.4007 37.8802 125.5848 40.2037 123.207 40.6387 C 122.6725 40.7375 122.1245 40.7375 121.59 40.6387 L 19.825 40.6387 C 17.061 40.6387 14.8212 38.1153 14.8212 35.0032 L 14.8212 16.3825 C 14.8212 13.2703 17.061 10.7469 19.825 10.7469 L 122.3985 10.7469 C 125.1609 10.7469 127.4007 13.2703 127.4007 16.3825 Z " fill="#fed5be" stroke-width="1" stroke="none"/><path d="M 31.8513 21.1551 C 31.8372 21.4232 31.749 21.6821 31.5967 21.9031 L 28.4932 26.8685 L 28.4932 29.7968 C 28.4932 30.4736 27.9446 31.0223 27.2678 31.0223 C 26.591 31.0223 26.0424 30.4736 26.0424 29.7968 L 26.0424 26.8685 L 22.939 21.9826 C 22.7743 21.7488 22.6804 21.4726 22.6685 21.1869 C 22.6654 20.8793 22.7873 20.5837 23.0063 20.3676 C 23.2253 20.1516 23.5227 20.0338 23.8302 20.041 C 24.2426 20.04 24.6244 20.2581 24.8329 20.6139 C 25.5968 21.919 26.4721 23.2398 27.2838 24.6563 C 28.0954 23.2398 28.8912 21.919 29.7187 20.6139 C 29.9339 20.2413 30.3393 20.0201 30.7691 20.041 C 31.3726 20.0567 31.8532 20.5515 31.8513 21.1551 Z " fill="#000000" stroke-width="1" stroke="none"/><path d="M 32.4079 25.5316 C 32.3852 23.2518 33.7407 21.1836 35.8402 20.2947 C 37.9397 19.4058 40.3681 19.8718 41.9894 21.4748 C 43.6107 23.0778 44.1043 25.5008 43.2393 27.6103 C 42.3742 29.7197 40.3216 31.0986 38.0417 31.1018 C 36.5454 31.1462 35.0963 30.5758 34.0318 29.5233 C 32.9673 28.4708 32.3804 27.0282 32.4078 25.5316 Z M 41.1133 25.5316 C 41.1133 23.4149 39.6968 22.1577 38.0417 22.1577 C 36.3865 22.1577 34.9543 23.4149 34.9543 25.5316 C 34.9543 27.6484 36.3865 28.9056 38.0417 28.9056 C 39.6968 28.9056 41.1133 27.6484 41.1133 25.5316 Z " fill="#000000" stroke-width="1" stroke="none"/><path d="M 45.2983 26.3752 L 45.2983 21.2505 C 45.307 20.5799 45.8531 20.0409 46.5238 20.0409 C 47.1944 20.0409 47.7405 20.5799 47.7493 21.2505 L 47.7493 26.3592 C 47.7493 28.269 48.8314 28.9216 49.9933 28.9216 C 51.1072 28.9216 52.2372 28.2372 52.2372 26.3592 L 52.2372 21.1869 C 52.2822 20.5301 52.8363 20.025 53.4945 20.041 C 53.8029 20.0359 54.1006 20.1539 54.3216 20.369 C 54.5427 20.5841 54.6688 20.8785 54.6721 21.1869 L 54.6721 26.3752 C 54.6721 29.5582 52.3804 31.086 49.9773 31.086 C 47.5582 31.086 45.2983 29.5582 45.2983 26.3752 Z " fill="#000000" stroke-width="1" stroke="none"/><path d="M 67.3397 29.8446 C 67.3445 30.1373 67.2303 30.4195 67.0233 30.6264 C 66.8163 30.8334 66.5341 30.9476 66.2414 30.9427 L 61.4352 30.9427 C 61.1168 30.9443 60.8115 30.8163 60.5894 30.5882 C 60.3673 30.3601 60.2474 30.0515 60.2574 29.7333 L 60.2574 21.346 C 60.2468 21.0261 60.366 20.7155 60.5878 20.4848 C 60.8095 20.254 61.1152 20.1227 61.4352 20.1206 L 66.0665 20.1206 C 66.3592 20.1157 66.6413 20.2299 66.8483 20.4369 C 67.0553 20.6439 67.1694 20.926 67.1646 21.2187 C 67.1682 21.5081 67.0525 21.7863 66.8448 21.988 C 66.6372 22.1896 66.3557 22.297 66.0665 22.285 L 62.7084 22.285 L 62.7084 24.4812 L 65.589 24.4812 C 65.9603 24.4698 66.3085 24.6614 66.4976 24.9812 C 66.6866 25.3011 66.6866 25.6985 66.4976 26.0183 C 66.3085 26.3382 65.9603 26.5298 65.589 26.5184 L 62.7084 26.5184 L 62.7084 28.7783 L 66.2414 28.7783 C 66.5307 28.7663 66.8121 28.8737 67.0198 29.0753 C 67.2275 29.277 67.3432 29.5551 67.3397 29.8446 Z " fill="#000000" stroke-width="1" stroke="none"/><path d="M 78.1612 29.8764 C 78.1656 30.4334 77.7661 30.9116 77.2172 31.0064 C 76.6683 31.1011 76.1316 30.7845 75.949 30.2584 L 75.4079 28.8738 L 70.8402 28.8738 L 70.2992 30.2743 C 70.1325 30.7201 69.7087 31.0173 69.2329 31.0223 C 68.9311 31.0294 68.6395 30.9126 68.426 30.6992 C 68.2126 30.4857 68.0958 30.1942 68.1029 29.8924 C 68.108 29.6728 68.1567 29.4564 68.2461 29.2558 L 71.5406 21.2347 C 71.7736 20.5259 72.4336 20.0453 73.1797 20.041 C 73.9171 20.05 74.5654 20.5314 74.7871 21.2347 L 78.0179 29.2716 C 78.1021 29.4628 78.1506 29.6678 78.1612 29.8764 Z M 74.612 26.8685 L 73.148 23.1285 L 73.0842 23.1285 L 71.6201 26.8685 Z " fill="#000000" stroke-width="1" stroke="none"/><path d="M 87.8367 29.8286 C 87.8407 30.1437 87.7184 30.4472 87.4972 30.6714 C 87.2759 30.8957 86.974 31.0221 86.659 31.0223 C 86.2394 31.0173 85.848 30.8098 85.6085 30.4652 L 82.903 27.1072 L 81.996 27.1072 L 81.996 29.7968 C 81.9976 30.1251 81.8668 30.4402 81.6332 30.6708 C 81.3995 30.9014 81.0828 31.0281 80.7546 31.0223 C 80.4304 31.0242 80.1192 30.8952 79.8915 30.6645 C 79.6637 30.4338 79.5388 30.1209 79.5449 29.7968 L 79.5449 21.2982 C 79.5566 20.6465 80.0868 20.1235 80.7386 20.1206 L 83.3487 20.1206 C 85.9906 20.1206 87.2956 21.7439 87.2956 23.5582 C 87.313 24.8542 86.5817 26.0441 85.4176 26.6139 L 87.4707 28.9374 C 87.704 29.1755 87.8353 29.4952 87.8367 29.8286 Z M 81.996 25.0701 L 83.1418 25.0701 C 84.1284 25.0701 84.765 24.6085 84.765 23.7015 C 84.765 22.7625 84.1284 22.285 83.1418 22.285 L 81.996 22.285 Z " fill="#000000" stroke-width="1" stroke="none"/><path d="M 89.4436 29.8764 L 89.4436 21.4415 C 89.4433 21.0644 89.5951 20.7032 89.8648 20.4395 C 90.1344 20.1759 90.499 20.0322 90.876 20.041 C 91.428 20.0472 91.9385 20.3354 92.2288 20.8049 L 96.669 26.8525 L 96.6849 26.8525 L 96.6849 21.1869 C 96.711 20.5466 97.2377 20.041 97.8785 20.041 C 98.5193 20.041 99.046 20.5466 99.0721 21.1869 L 99.0721 29.6058 C 99.0731 29.9845 98.922 30.3478 98.6527 30.6141 C 98.3834 30.8804 98.0184 31.0275 97.6397 31.0223 C 97.0722 30.9982 96.5535 30.6941 96.2552 30.2106 L 91.8626 24.2903 L 91.8308 24.2903 L 91.8468 29.8764 C 91.8163 30.5179 91.2874 31.0223 90.6452 31.0223 C 90.003 31.0223 89.474 30.5179 89.4436 29.8764 Z " fill="#000000" stroke-width="1" stroke="none"/><path d="M 108.4137 29.8446 C 108.4185 30.1373 108.3043 30.4195 108.0973 30.6264 C 107.8903 30.8334 107.6081 30.9476 107.3154 30.9427 L 102.5092 30.9427 C 102.1908 30.9443 101.8855 30.8163 101.6634 30.5882 C 101.4412 30.3601 101.3214 30.0515 101.3314 29.7333 L 101.3314 21.346 C 101.3208 21.0261 101.4399 20.7155 101.6617 20.4848 C 101.8835 20.254 102.1891 20.1227 102.5092 20.1206 L 107.1405 20.1206 C 107.4331 20.1157 107.7153 20.2299 107.9223 20.4369 C 108.1292 20.6439 108.2434 20.926 108.2386 21.2187 C 108.2421 21.5081 108.1265 21.7863 107.9188 21.988 C 107.7111 22.1896 107.4297 22.297 107.1405 22.285 L 103.7824 22.285 L 103.7824 24.4812 L 106.663 24.4812 C 107.0343 24.4698 107.3825 24.6614 107.5716 24.9812 C 107.7606 25.3011 107.7606 25.6985 107.5716 26.0183 C 107.3825 26.3382 107.0343 26.5298 106.663 26.5184 L 103.7824 26.5184 L 103.7824 28.7783 L 107.3154 28.7783 C 107.6046 28.7663 107.8861 28.8736 108.0938 29.0753 C 108.3015 29.277 108.4171 29.5551 108.4136 29.8446 Z " fill="#000000" stroke-width="1" stroke="none"/><path d="M 119.5534 25.5316 C 119.5534 28.3963 117.58 30.9427 113.7127 30.9427 L 111.2618 30.9427 C 110.9434 30.9443 110.6381 30.8163 110.416 30.5882 C 110.1938 30.3601 110.074 30.0515 110.084 29.7333 L 110.084 21.346 C 110.0734 21.0261 110.1926 20.7155 110.4143 20.4848 C 110.6361 20.254 110.9418 20.1227 111.2618 20.1206 L 113.7127 20.1206 C 117.58 20.1206 119.5534 22.6829 119.5534 25.5316 Z M 117.007 25.5316 C 117.007 23.6537 115.8453 22.285 113.6649 22.285 L 112.535 22.285 L 112.535 28.7783 L 113.6649 28.7783 C 115.8453 28.7783 117.007 27.4096 117.007 25.5316 Z " fill="#000000" stroke-width="1" stroke="none"/><path d="M 31.415 84.6362 C 31.415 80.3658 34.6902 77.3807 38.7533 77.3807 C 42.7955 77.3807 46.0708 80.3658 46.0708 84.6362 C 46.0708 88.9272 42.7955 91.8915 38.7533 91.8915 C 34.6902 91.8915 31.415 88.9272 31.415 84.6362 Z M 42.754 84.6362 C 42.754 81.879 40.9092 80.2414 38.7533 80.2414 C 36.5974 80.2414 34.7316 81.879 34.7316 84.6362 C 34.7316 87.3932 36.5974 89.0308 38.7533 89.0308 C 40.9092 89.0308 42.754 87.3931 42.754 84.6362 Z " fill="#000000" stroke-width="1" stroke="none"/><path d="M 51.5013 80.4073 L 51.5013 83.7032 L 55.0253 83.7032 C 55.5194 83.6953 55.9793 83.9543 56.2286 84.3809 C 56.478 84.8075 56.478 85.3353 56.2286 85.7619 C 55.9793 86.1885 55.5193 86.4475 55.0253 86.4396 L 51.5013 86.4396 L 51.5013 90.1917 C 51.5013 91.0732 50.7867 91.7878 49.9052 91.7878 C 49.0237 91.7878 48.309 91.0732 48.309 90.1917 L 48.309 79.1842 C 48.2952 78.7676 48.4503 78.3631 48.7392 78.0625 C 49.028 77.7619 49.4261 77.5908 49.8429 77.588 L 55.6058 77.588 C 56.1144 77.5805 56.5875 77.8476 56.844 78.2868 C 57.1005 78.726 57.1005 79.2693 56.844 79.7086 C 56.5875 80.1478 56.1144 80.4148 55.6058 80.4073 Z " fill="#000000" stroke-width="1" stroke="none"/><path d="M 62.1145 80.4073 L 62.1145 83.7032 L 65.6385 83.7032 C 66.1326 83.6953 66.5925 83.9543 66.8418 84.3809 C 67.0912 84.8075 67.0912 85.3353 66.8418 85.7619 C 66.5925 86.1885 66.1326 86.4475 65.6385 86.4396 L 62.1145 86.4396 L 62.1145 90.1917 C 62.1145 91.0732 61.3999 91.7878 60.5184 91.7878 C 59.6369 91.7878 58.9223 91.0732 58.9223 90.1917 L 58.9223 79.1842 C 58.9084 78.7676 59.0636 78.3631 59.3524 78.0625 C 59.6413 77.7619 60.0393 77.5908 60.4561 77.588 L 66.219 77.588 C 66.7276 77.5805 67.2008 77.8476 67.4573 78.2868 C 67.7137 78.726 67.7137 79.2693 67.4573 79.7086 C 67.2008 80.1478 66.7276 80.4148 66.219 80.4073 Z " fill="#000000" stroke-width="1" stroke="none"/><path d="M 78.1589 90.2745 C 78.1609 90.6526 78.0101 91.0154 77.7409 91.2808 C 77.4716 91.5462 77.1066 91.6916 76.7286 91.6842 L 71.1109 91.6842 C 70.6876 91.6902 70.2802 91.5233 69.9828 91.222 C 69.6855 90.9207 69.5239 90.5111 69.5355 90.088 L 69.5355 79.0599 C 69.5468 78.1864 70.2581 77.4843 71.1316 77.4843 C 72.0051 77.4843 72.7164 78.1864 72.7278 79.0599 L 72.7278 88.865 L 76.7286 88.865 C 77.1076 88.854 77.4746 88.9983 77.7447 89.2644 C 78.0148 89.5305 78.1644 89.8954 78.1589 90.2745 Z " fill="#000000" stroke-width="1" stroke="none"/><path d="M 79.962 90.1917 L 79.962 79.0599 C 79.9734 78.1864 80.6847 77.4843 81.5582 77.4843 C 82.4317 77.4843 83.143 78.1864 83.1543 79.0599 L 83.1543 90.1917 C 83.1543 91.0732 82.4397 91.7878 81.5582 91.7878 C 80.6766 91.7878 79.962 91.0732 79.962 90.1917 Z " fill="#000000" stroke-width="1" stroke="none"/><path d="M 86.0977 90.2953 L 86.0977 79.3086 C 86.0973 78.8175 86.295 78.3469 86.6462 78.0035 C 86.9974 77.6602 87.4722 77.473 87.9633 77.4844 C 88.6823 77.4924 89.3472 77.8678 89.7253 78.4794 L 95.5089 86.3566 L 95.5295 86.3566 L 95.5295 78.9769 C 95.5636 78.143 96.2496 77.4844 97.0843 77.4844 C 97.9189 77.4844 98.6049 78.143 98.639 78.9769 L 98.639 89.9429 C 98.6402 90.4362 98.4434 90.9093 98.0927 91.2562 C 97.7419 91.603 97.2666 91.7945 96.7734 91.7878 C 96.0341 91.7564 95.3584 91.3604 94.9698 90.7306 L 89.2486 83.0192 L 89.207 83.0192 L 89.2278 90.2953 C 89.1881 91.1308 88.4992 91.7878 87.6627 91.7878 C 86.8263 91.7878 86.1373 91.1308 86.0977 90.2953 Z " fill="#000000" stroke-width="1" stroke="none"/><path d="M 110.8069 90.2539 C 110.8132 90.6351 110.6645 91.0026 110.3948 91.2722 C 110.1252 91.5418 109.7577 91.6905 109.3764 91.6842 L 103.1161 91.6842 C 102.7014 91.6862 102.3037 91.5194 102.0144 91.2223 C 101.7252 90.9252 101.5691 90.5232 101.5822 90.1087 L 101.5822 79.1843 C 101.5684 78.7676 101.7235 78.3631 102.0124 78.0625 C 102.3012 77.7619 102.6992 77.5908 103.1161 77.588 L 109.1485 77.588 C 109.5297 77.5817 109.8972 77.7304 110.1668 78 C 110.4364 78.2696 110.5851 78.6371 110.5788 79.0183 C 110.5834 79.3953 110.4328 79.7577 110.1623 80.0204 C 109.8918 80.2831 109.5252 80.423 109.1485 80.4074 L 104.7745 80.4074 L 104.7745 83.2679 L 108.5266 83.2679 C 109.0103 83.2531 109.4637 83.5027 109.71 83.9192 C 109.9562 84.3358 109.9562 84.8534 109.71 85.27 C 109.4637 85.6866 109.0103 85.9362 108.5266 85.9213 L 104.7745 85.9213 L 104.7745 88.865 L 109.3764 88.865 C 109.7532 88.8493 110.1198 88.9891 110.3903 89.2518 C 110.6609 89.5145 110.8115 89.8768 110.8069 90.2539 Z " fill="#000000" stroke-width="1" stroke="none"/></g></g></svg>