<svg xmlns="http://www.w3.org/2000/svg" xmlns:xlink="http://www.w3.org/1999/xlink" version="1.1" width="112.27567" height="112.27521" viewBox="0,0,112.27567,112.27521"><g><g data-paper-data="{&quot;isPaintingLayer&quot;:true}" fill-rule="nonzero" stroke-linecap="butt" stroke-linejoin="miter" stroke-miterlimit="10" stroke-dasharray="" stroke-dashoffset="0" style="mix-blend-mode: normal"><path d="M 112.2757 30.2984 L 112.2757 93.3766 C 112.2752 101.6501 106.8956 108.9623 98.9973 111.4252 C 98.6459 111.5344 98.2887 111.6304 97.9289 111.7194 C 97.3797 111.8553 96.8224 111.9704 96.2555 112.0571 C 95.624 112.1535 94.988 112.218 94.35 112.2503 C 94.0277 112.2666 93.7036 112.2748 93.3775 112.2748 L 18.9132 112.2748 L 18.8982 112.2752 C 13.8861 112.2752 9.0792 110.2842 5.5351 106.7401 C 1.991 103.196 0 98.3891 0 93.377 L 0.0006 93.354 L 0.0006 30.2984 C 0.001 22.025 5.3807 14.7127 13.2791 12.2498 C 13.7044 12.1176 14.1383 12.0053 14.5758 11.9028 C 14.9101 11.8246 15.2478 11.7554 15.5888 11.6951 C 16.6814 11.5002 17.789 11.4016 18.8988 11.4002 L 93.3775 11.4002 C 96.7196 11.3964 100.0024 12.2834 102.8878 13.9701 C 103.2466 14.1794 103.6006 14.3959 103.9436 14.6277 C 104.4787 14.9903 104.9949 15.3799 105.4902 15.7951 C 109.7943 19.3815 112.2807 24.696 112.2757 30.2984 Z " fill="#b2430b" stroke-width="1" stroke="none"/><path d="M 112.2757 18.8983 L 112.2757 84.9257 C 112.2752 93.1992 106.8956 100.5114 98.9973 102.9743 C 98.6459 103.0835 98.2887 103.1795 97.9289 103.2685 C 97.3797 103.4044 96.8224 103.5195 96.2555 103.6061 C 95.624 103.7026 94.988 103.7671 94.35 103.7994 C 94.0277 103.8157 93.7036 103.8239 93.3775 103.8239 L 18.9132 103.8239 L 18.8982 103.8243 C 13.8861 103.8243 9.0792 101.8333 5.5351 98.2892 C 1.991 94.7451 0 89.9382 0 84.9261 L 0.0006 84.9032 L 0.0006 18.8983 C 0.001 10.6248 5.3807 3.3126 13.2791 0.8497 C 13.7044 0.7174 14.1383 0.6052 14.5758 0.5027 C 14.9101 0.4245 15.2478 0.3552 15.5888 0.2949 C 16.6814 0.1001 17.789 0.0014 18.8988 0 L 93.3775 0 C 96.7196 -0.0038 100.0024 0.8833 102.8878 2.5699 C 103.2466 2.7792 103.6006 2.9958 103.9436 3.2276 C 104.4787 3.5901 104.9949 3.9797 105.4902 4.395 C 109.7943 7.9813 112.2807 13.2959 112.2757 18.8983 Z " fill="#fc5a03" stroke-width="1" stroke="none"/><path d="M 87.0733 36.0686 L 92.0775 40.9386 C 93.9428 42.7539 93.996 45.7337 92.1965 47.6144 L 84.4287 55.733 L 63.5566 56.0065 L 63.5566 56.0065 L 34.5523 85.0108 C 32.8178 86.7453 30.4654 87.7197 28.0124 87.7197 C 25.5595 87.7197 23.207 86.7453 21.4725 85.0108 L 21.4725 85.0108 C 17.8606 81.3989 17.8606 75.5429 21.4725 71.931 L 50.8375 42.566 L 50.8375 22.952 L 58.3767 15.3508 C 59.2624 14.4578 60.4665 13.9533 61.7242 13.9483 C 62.9819 13.9433 64.19 14.4382 65.0828 15.324 L 70.0549 20.2576 C 71.8967 22.0852 71.9275 25.0538 70.1239 26.9192 L 62.4862 34.8182 L 72.0752 44.2553 L 80.4539 36.074 C 82.2938 34.2775 85.2304 34.2751 87.0733 36.0686 Z " fill="#fcfcfe" stroke-width="1" stroke="none"/></g></g></svg>