<svg xmlns="http://www.w3.org/2000/svg" xmlns:xlink="http://www.w3.org/1999/xlink" version="1.1" width="38.19458" height="24.76313" viewBox="0,0,38.19458,24.76313"><g><g data-paper-data="{&quot;isPaintingLayer&quot;:true}" fill-rule="nonzero" stroke-linecap="butt" stroke-linejoin="miter" stroke-miterlimit="10" stroke-dasharray="" stroke-dashoffset="0" style="mix-blend-mode: normal"><path d="M 11.8987 12.3686 C 11.8987 15.6533 9.487 18.5532 5.278 18.5532 C 3.9959 18.5258 2.7316 18.2467 1.5572 17.7318 C 0.5278 17.3911 -0.117 16.3701 0.0177 15.2943 L 0.0177 1.9247 C 0.0131 0.8698 0.8619 0.0096 1.9167 0 C 2.9715 0.0098 3.8201 0.8699 3.8157 1.9247 L 3.8157 7.1592 C 4.5595 6.6865 5.4234 6.4373 6.3046 6.4413 C 9.7179 6.4413 11.8987 9.1611 11.8987 12.3686 Z M 7.3324 14.4697 C 7.849 13.9385 8.1105 13.2099 8.0499 12.4715 C 8.1004 11.7756 7.8622 11.0897 7.3912 10.575 C 6.9202 10.0603 6.258 9.7623 5.5604 9.7511 C 4.9306 9.7289 4.313 9.9288 3.8157 10.3158 L 3.8157 14.8581 C 4.2893 15.1113 4.8182 15.2434 5.3552 15.2429 C 6.095 15.2828 6.816 15.0009 7.3325 14.4697 Z " stroke-width="1" fill="#1b1b1b" stroke="none"/><path d="M 26.4954 12.4972 C 26.4954 15.5509 24.4426 18.5532 21.0551 18.5532 C 19.953 18.6134 18.8811 18.1809 18.1294 17.3728 L 18.1294 22.8388 C 18.1386 23.5232 17.7787 24.1596 17.1875 24.5045 C 16.5962 24.8493 15.8652 24.8493 15.2739 24.5045 C 14.6827 24.1596 14.3228 23.5232 14.332 22.8388 L 14.332 8.4426 C 14.3071 7.4609 15.0626 6.6351 16.0426 6.573 C 17.0227 6.5109 17.8765 7.2347 17.9756 8.2116 C 18.6834 7.0983 19.9154 6.429 21.2346 6.4413 C 24.3655 6.4413 26.4954 9.1869 26.4954 12.4972 Z M 22.646 12.4972 C 22.646 10.9572 21.6199 9.7511 20.2342 9.7511 C 19.3236 9.7902 18.5113 10.3349 18.1294 11.1624 L 18.1294 13.9343 C 18.5199 14.728 19.324 15.2341 20.2085 15.2428 C 21.6199 15.2428 22.6459 14.0109 22.646 12.4972 Z " stroke-width="1" fill="#1b1b1b" stroke="none"/><path d="M 38.1946 14.7809 C 38.1946 17.0132 36.4493 18.5532 33.2676 18.5532 C 31.8987 18.563 30.5432 18.283 29.2901 17.7318 C 28.6359 17.4958 28.1896 16.8872 28.1611 16.1923 C 28.1437 15.8151 28.2823 15.4473 28.5445 15.1754 C 28.8066 14.9035 29.1691 14.7516 29.5468 14.7552 C 30.106 14.8103 30.6523 14.9577 31.1634 15.1914 C 31.8234 15.4225 32.5168 15.544 33.2161 15.551 C 34.2679 15.551 34.679 15.32 34.679 14.9347 C 34.679 14.3963 33.7809 14.2162 32.2923 13.78 C 29.9572 13.0872 28.392 12.3172 28.392 10.1621 C 28.392 8.0322 30.0344 6.4413 33.2161 6.4413 C 34.3871 6.4457 35.5491 6.6451 36.6545 7.0312 C 37.3503 7.2089 37.8431 7.8276 37.8607 8.5455 C 37.8983 8.9306 37.7724 9.3138 37.5138 9.6016 C 37.2552 9.8894 36.8877 10.0554 36.5008 10.0592 C 36.0281 10.0128 35.5629 9.9093 35.1151 9.7511 C 34.4974 9.5734 33.8588 9.4786 33.2161 9.4693 C 32.3181 9.4693 31.9076 9.6745 31.9076 10.0592 C 31.9076 10.5468 32.5233 10.7006 34.448 11.2654 C 36.5008 11.8553 38.1945 12.5739 38.1945 14.781 Z " stroke-width="1" fill="#1b1b1b" stroke="none"/></g></g></svg>