<svg xmlns="http://www.w3.org/2000/svg" xmlns:xlink="http://www.w3.org/1999/xlink" version="1.1" width="24.95926" height="24.95926" viewBox="0,0,24.95926,24.95926"><defs><linearGradient x1="240.00001" y1="167.52038" x2="240.00001" y2="192.47964" gradientUnits="userSpaceOnUse" id="color-1"><stop offset="0" stop-color="#ffffff" stop-opacity="0"/><stop offset="0.53538" stop-color="#010101" stop-opacity="0.86891"/><stop offset="0.7216" stop-color="#000000"/><stop offset="1" stop-color="#ffffff" stop-opacity="0"/></linearGradient><radialGradient cx="240.00001" cy="180.00001" r="8.65532" gradientUnits="userSpaceOnUse" id="color-2"><stop offset="0" stop-color="#00d1e1"/><stop offset="1" stop-color="#36a9e1"/></radialGradient><linearGradient x1="239.99999" y1="169.31482" x2="239.99999" y2="190.68517" gradientUnits="userSpaceOnUse" id="color-3"><stop offset="0" stop-color="#ffffff"/><stop offset="0.07212" stop-color="#ffffff" stop-opacity="0.87385"/><stop offset="0.21577" stop-color="#ffffff" stop-opacity="0.64539"/><stop offset="0.35942" stop-color="#ffffff" stop-opacity="0.44824"/><stop offset="0.49981" stop-color="#ffffff" stop-opacity="0.28704"/><stop offset="0.63614" stop-color="#ffffff" stop-opacity="0.16179"/><stop offset="0.76729" stop-color="#ffffff" stop-opacity="0.07232"/><stop offset="0.89113" stop-color="#ffffff" stop-opacity="0.0184"/><stop offset="1" stop-color="#ffffff" stop-opacity="0"/></linearGradient><linearGradient x1="12.4796" y1="0" x2="12.4796" y2="24.9593" gradientUnits="userSpaceOnUse" id="color-1-,0,0,1,-227.52038,-167.52038"><stop offset="0" stop-color="#ffffff" stop-opacity="0"/><stop offset="0.53538" stop-color="#010101" stop-opacity="0.86891"/><stop offset="0.7216" stop-color="#000000"/><stop offset="1" stop-color="#ffffff" stop-opacity="0"/></linearGradient><radialGradient cx="12.4796" cy="12.4796" r="8.6553" gradientUnits="userSpaceOnUse" id="color-2-,0,0,1,-227.52038,-167.52038"><stop offset="0" stop-color="#00d1e1"/><stop offset="1" stop-color="#36a9e1"/></radialGradient><linearGradient x1="12.4796" y1="1.7944" x2="12.4796" y2="23.1648" gradientUnits="userSpaceOnUse" id="color-3-,0,0,1,-227.52038,-167.52038"><stop offset="0" stop-color="#ffffff"/><stop offset="0.07212" stop-color="#ffffff" stop-opacity="0.87385"/><stop offset="0.21577" stop-color="#ffffff" stop-opacity="0.64539"/><stop offset="0.35942" stop-color="#ffffff" stop-opacity="0.44824"/><stop offset="0.49981" stop-color="#ffffff" stop-opacity="0.28704"/><stop offset="0.63614" stop-color="#ffffff" stop-opacity="0.16179"/><stop offset="0.76729" stop-color="#ffffff" stop-opacity="0.07232"/><stop offset="0.89113" stop-color="#ffffff" stop-opacity="0.0184"/><stop offset="1" stop-color="#ffffff" stop-opacity="0"/></linearGradient></defs><g><g data-paper-data="{&quot;isPaintingLayer&quot;:true}" fill-rule="nonzero" stroke-linecap="butt" stroke-linejoin="miter" stroke-miterlimit="10" stroke-dasharray="" stroke-dashoffset="0" style="mix-blend-mode: normal"><path d="M 0 12.4796 C 0 5.5873 5.5873 0 12.4796 0 C 19.3719 0 24.9593 5.5873 24.9593 12.4796 C 24.9593 19.3719 19.3719 24.9593 12.4796 24.9593 C 5.5873 24.9593 0 19.3719 0 12.4796 Z " fill="#1c71a0" stroke-width="1" stroke="none"/><path d="M 0 12.4796 C 0 5.5873 5.5873 0 12.4796 0 C 19.3719 0 24.9593 5.5873 24.9593 12.4796 C 24.9593 19.3719 19.3719 24.9593 12.4796 24.9593 C 5.5873 24.9593 0 19.3719 0 12.4796 Z " fill="url(#color-1-,0,0,1,-227.52038,-167.52038)" stroke-width="1" stroke="none"/><path d="M 1.7945 12.4796 C 1.7945 6.5784 6.5784 1.7945 12.4796 1.7945 C 18.3809 1.7945 23.1648 6.5784 23.1648 12.4796 C 23.1648 18.3809 18.3809 23.1648 12.4796 23.1648 C 6.5784 23.1648 1.7945 18.3809 1.7945 12.4796 Z " fill="#325360" stroke-width="1" stroke="none"/><path d="M 21.135 13.074 L 19.764 13.074 L 20.806 14.116 L 19.966 14.956 L 18.084 13.074 L 13.913 13.074 L 16.862 16.022 L 19.525 16.022 L 19.525 17.21 L 18.05 17.21 L 19.02 18.18 L 18.18 19.02 L 17.21 18.05 L 17.21 19.525 L 16.022 19.525 L 16.022 16.862 L 13.074 13.913 L 13.074 18.084 L 14.956 19.966 L 14.116 20.806 L 13.074 19.764 L 13.074 21.135 L 11.886 21.135 L 11.886 19.764 L 10.843 20.806 L 10.003 19.966 L 11.886 18.084 L 11.886 13.913 L 8.937 16.862 L 8.937 19.525 L 7.749 19.525 L 7.749 18.05 L 6.779 19.02 L 5.939 18.18 L 6.909 17.21 L 5.435 17.21 L 5.435 16.022 L 8.097 16.022 L 11.046 13.074 L 6.875 13.074 L 4.993 14.956 L 4.153 14.116 L 5.196 13.074 L 3.824 13.074 L 3.824 11.886 L 5.196 11.886 L 4.153 10.843 L 4.993 10.003 L 6.875 11.886 L 11.046 11.886 L 8.097 8.937 L 5.435 8.937 L 5.435 7.749 L 6.909 7.749 L 5.939 6.779 L 6.779 5.939 L 7.749 6.909 L 7.749 5.435 L 8.937 5.435 L 8.937 8.097 L 11.886 11.046 L 11.886 6.875 L 10.003 4.993 L 10.843 4.153 L 11.886 5.196 L 11.886 3.824 L 13.074 3.824 L 13.074 5.196 L 14.116 4.153 L 14.956 4.993 L 13.074 6.875 L 13.074 11.046 L 16.022 8.097 L 16.022 5.435 L 17.21 5.435 L 17.21 6.909 L 18.18 5.939 L 19.02 6.779 L 18.05 7.749 L 19.525 7.749 L 19.525 8.937 L 16.862 8.937 L 13.913 11.886 L 18.084 11.886 L 19.966 10.003 L 20.806 10.843 L 19.764 11.886 L 21.135 11.886 Z " fill="url(#color-2-,0,0,1,-227.52038,-167.52038)" stroke-width="1" stroke="none"/><path d="M 1.7944 12.4796 C 1.7944 6.5784 6.5784 1.7944 12.4796 1.7944 C 18.3809 1.7944 23.1648 6.5784 23.1648 12.4796 C 23.1648 18.3809 18.3809 23.1648 12.4796 23.1648 C 6.5784 23.1648 1.7944 18.3809 1.7944 12.4796 Z " fill="url(#color-3-,0,0,1,-227.52038,-167.52038)" opacity="0.5" stroke-width="1" stroke="none"/><path d="M 20.2673 19.7711 C 23.9067 15.4252 23.5192 8.9937 19.3843 5.1162 C 15.2495 1.2387 8.8064 1.2648 4.703 5.1755 C 7.248 2.1464 11.2585 0.7715 15.1266 1.6021 C 18.9948 2.4327 22.0873 5.3328 23.1644 9.1397 C 24.2415 12.9466 23.1269 17.037 20.2673 19.7711 Z " fill="#000000" opacity="0.25" stroke-width="1" stroke="none"/><path d="M 20.2673 19.7711 C 17.7246 22.8063 13.712 24.1866 9.8403 23.358 C 5.9685 22.5294 2.8723 19.6277 1.7946 15.8177 C 0.7168 12.0078 1.8343 7.9142 4.6983 5.1802 C 1.0491 9.5261 1.4339 15.9665 5.5745 19.847 C 9.7152 23.7275 16.167 23.6942 20.2673 19.7711 Z " fill="#ffffff" opacity="0.25" stroke-width="1" stroke="none"/></g></g></svg>