<svg xmlns="http://www.w3.org/2000/svg" xmlns:xlink="http://www.w3.org/1999/xlink" version="1.1" width="17.125" height="17.125" viewBox="0,0,17.125,17.125"><defs><linearGradient x1="231.4375" y1="180" x2="248.5625" y2="180" gradientUnits="userSpaceOnUse" id="color-1"><stop offset="0" stop-color="#9966ff" stop-opacity="0"/><stop offset="1" stop-color="#9966ff" stop-opacity="0"/></linearGradient></defs><g><g data-paper-data="{&quot;isPaintingLayer&quot;:true}" fill-rule="nonzero" stroke-linecap="butt" stroke-linejoin="miter" stroke-miterlimit="10" stroke-dasharray="" stroke-dashoffset="0" style="mix-blend-mode: normal"><path d="M 14.2282 11.3773 C 14.2282 14.6077 11.9278 17.0061 8.1101 17.0061 C 6.6722 17.023 5.2577 16.6418 4.023 15.9047 C 3.2399 15.3664 2.8975 14.8771 2.8975 14.0694 C 2.8849 13.6588 3.0391 13.2606 3.325 12.9655 C 3.6108 12.6704 4.004 12.5037 4.4148 12.5032 C 5.0351 12.5253 5.6369 12.7202 6.1524 13.066 C 6.7769 13.3967 7.4774 13.5571 8.1835 13.5308 C 9.2115 13.5308 10.435 12.8456 10.435 11.3773 C 10.435 10.2762 9.6519 9.3707 8.257 9.3707 C 7.704 9.3684 7.1615 9.5209 6.6907 9.811 C 6.2516 10.1135 5.7311 10.2757 5.1979 10.2762 C 4.6738 10.2898 4.1702 10.0719 3.8213 9.6805 C 3.4723 9.2891 3.3134 8.7639 3.3868 8.2448 L 3.9496 1.9063 C 4.0119 0.8989 4.8494 0.1151 5.8586 0.1196 L 12.1726 0.1196 C 12.6149 0.1021 13.0447 0.2683 13.36 0.579 C 13.6752 0.8896 13.8479 1.3169 13.8368 1.7594 C 13.8485 2.2107 13.6743 2.647 13.3551 2.9662 C 13.0358 3.2855 12.5995 3.4597 12.1482 3.448 L 7.2045 3.448 L 6.9111 6.5561 C 7.5521 6.313 8.2321 6.1886 8.9177 6.1892 C 12.2706 6.1892 14.2282 8.4406 14.2282 11.3773 Z " fill="#ff5600" stroke-width="1" stroke="none"/><path d="M231.4375,188.5625v-17.125h17.125v17.125z" fill="url(#color-1)" stroke-width="0" stroke="none" transform="matrix(1,0,0,1,-231.4375,-171.4375)"/></g></g></svg>