<svg xmlns="http://www.w3.org/2000/svg" xmlns:xlink="http://www.w3.org/1999/xlink" version="1.1" width="695.84515" height="216.1314" viewBox="0,0,695.84515,216.1314"><g><g data-paper-data="{&quot;isPaintingLayer&quot;:true}" fill-rule="nonzero" stroke-linecap="butt" stroke-linejoin="miter" stroke-miterlimit="10" stroke-dasharray="" stroke-dashoffset="0" style="mix-blend-mode: normal"><path d="M 0 129.9339 C 4.1545 132.2842 7.6545 135.528 11.4186 138.4011 C 20.4368 145.2846 29.3252 152.3381 38.2791 159.3061 C 39.1081 159.8812 39.8215 160.6069 40.3825 161.4455 C 34.8222 162.4704 29.2682 163.5314 23.7 164.5115 C 16.3011 165.8139 8.9476 167.3319 1.6395 169.0652 C 1.0974 169.1542 0.5493 169.2017 0 169.2071 Z " fill="#729bc4" stroke-width="1" stroke="none"/><path d="M 267.6774 176.4271 L 267.6774 155.5118 C 268.0873 155.5028 268.5002 155.5235 268.9064 155.4804 C 274.1055 154.9279 279.2965 154.2842 284.5039 153.829 C 290.3241 153.3201 296.1561 152.9293 301.9886 152.5825 C 306.7661 152.2984 311.5563 152.2638 316.3397 152.1121 C 322.7631 151.9084 329.1883 152.2146 335.6113 152.5148 C 340.1063 152.725 344.5809 153.0853 349.058 153.5113 C 355.5398 154.1279 361.9454 155.2156 368.3417 156.3816 C 376.111 157.7979 383.879 159.2208 391.6459 160.6501 C 405.815 163.2356 419.9903 165.7874 434.1492 168.4272 C 436.0654 168.839 438.0619 168.6499 439.8667 167.8857 C 443.5955 166.3928 447.4067 165.1146 451.2816 164.0574 C 458.4842 161.9895 465.8195 160.4154 473.2363 159.346 C 479.2225 158.474 485.2537 157.9456 491.3003 157.7635 C 496.7029 157.5941 502.1108 157.7305 507.4979 158.1721 C 511.0447 158.4588 514.5905 158.7667 518.1021 159.2827 C 528.1684 160.6933 538.0606 163.1471 547.6191 166.6045 C 548.8272 167.0758 550.1289 167.2574 551.4199 167.1346 C 556.2595 166.6791 561.1172 166.4088 565.9705 166.108 C 570.4175 165.8325 574.8662 165.5858 579.3168 165.3681 C 584.9534 165.0952 590.5905 164.8096 596.2306 164.6379 C 601.5474 164.4761 606.8648 164.3584 612.1814 164.1616 C 617.0491 163.9814 621.9287 163.9459 626.7977 163.9344 C 638.6806 163.9061 650.5643 163.6994 662.45 164.0729 C 669.3626 164.2901 676.2832 164.2547 683.1969 164.5849 C 687.4078 164.7861 691.6287 164.7769 695.8451 164.8622 L 695.8451 176.4271 Z " fill="#68b96a" stroke-width="1" stroke="none"/><path d="M 591.2343 78.4404 C 596.1673 74.7143 601.101 70.9892 606.0356 67.2651 C 612.0936 62.7181 618.1607 58.183 624.2366 53.6597 C 624.6995 54.0485 625.087 53.6731 625.4839 53.5217 C 633.9744 50.2835 642.4635 47.0418 650.9514 43.7966 C 663.2647 39.0953 675.5798 34.3989 687.8969 29.7076 C 690.5315 28.7082 693.091 27.4937 695.8451 26.8209 L 695.8451 109.9902 C 695.4479 110.2004 695.0435 110.3982 694.6546 110.6229 C 687.972 114.485 681.2788 118.3289 674.6172 122.2271 C 672.4024 123.5232 670.0845 124.6536 668.0202 126.2009 C 663.0408 125.6934 658.0485 125.4294 653.0434 125.409 C 652.9042 124.8157 652.3478 124.6159 651.9397 124.3092 C 640.9893 116.0811 630.0313 107.863 619.0657 99.6551 C 610.1631 92.9902 601.2577 86.3291 592.3496 79.6717 C 591.9119 79.3436 591.307 79.1189 591.2343 78.4404 Z " fill="#8fafdc" stroke-width="1" stroke="none"/><path d="M 653.0434 125.409 C 658.0482 125.4357 663.0404 125.6998 668.0203 126.2011 C 668.5449 126.286 669.0667 126.3962 669.5943 126.4514 C 676.7936 127.2093 683.9141 128.5871 690.8764 130.5695 C 692.5227 131.0366 694.1196 131.714 695.8451 131.8897 L 695.8451 154.0354 C 695.5208 153.9959 695.191 153.9817 694.8729 153.913 C 690.1517 152.8937 685.4028 152.034 680.635 151.2541 C 672.9663 149.9996 665.2517 149.1222 657.5212 148.4215 C 651.9474 147.9164 646.3466 147.4804 640.7554 147.448 C 630.3132 147.3876 619.8673 147.1338 609.4249 147.832 C 603.3887 148.2356 597.3669 148.7213 591.349 149.328 C 585.9785 149.8694 580.6304 150.5664 575.3047 151.4191 C 568.0695 152.5693 560.8505 153.8678 553.752 155.6996 C 550.8657 156.4567 547.8291 156.4255 544.959 155.609 C 538.1159 153.7746 531.1342 152.5171 524.1432 151.3903 C 517.6898 150.3501 511.1901 149.632 504.6721 149.0603 C 499.1696 148.5777 493.6594 148.2617 488.1456 148.1704 C 483.3176 148.0905 478.4857 148.0723 473.6481 148.3148 C 469.1557 148.54 464.6571 148.7097 460.1869 149.1645 C 453.4388 149.8511 446.7182 150.7588 440.0399 152.0048 C 428.833 154.055 417.8105 157.009 407.0802 160.8378 C 406.6027 161.0858 406.0333 161.0816 405.5594 160.8267 C 402.7331 159.1516 399.7091 157.8784 396.7186 156.5379 C 385.7689 151.6297 374.4091 147.9039 362.8183 144.8671 C 353.0525 142.2428 343.1039 140.3531 333.056 139.2138 C 327.4143 138.5376 321.7419 138.1489 316.0607 138.049 C 310.6167 138.0205 305.175 137.98 299.7395 138.5061 C 295.3438 138.9316 290.9535 139.3783 286.6072 140.1531 C 280.1914 141.2926 273.8654 142.8893 267.6774 144.9311 L 267.6774 141.7322 C 267.9218 141.7298 268.1656 141.7087 268.4067 141.6691 C 271.6569 140.8916 274.9281 140.2164 278.2202 139.6434 C 280.6972 139.2074 283.1679 138.7354 285.6413 138.2795 C 290.6444 137.6305 295.6474 136.9814 300.6505 136.3323 C 300.8008 136.3862 300.9578 136.4187 301.1171 136.429 C 306.6153 135.9915 312.1077 135.4594 317.6122 135.1277 C 322.4297 134.8373 327.2605 134.7639 332.0859 134.6073 C 337.536 134.4303 342.9771 134.8574 348.4251 134.9069 C 350.3765 134.9247 352.3517 134.9794 354.3087 135.129 C 359.1968 135.5029 364.0857 135.8745 368.9667 136.3283 C 372.9532 136.699 376.9413 137.0961 380.9061 137.6445 C 386.8187 138.4624 392.7116 139.4127 398.5847 140.4955 C 399.3165 140.5836 400.0483 140.6718 400.7801 140.76 C 401.1557 141.0108 401.5853 141.1691 402.0337 141.2219 C 405.8489 141.9471 409.6438 142.7666 413.4085 143.7185 C 414.5202 144.0057 415.6871 144.0013 416.7965 143.7055 C 420.5562 142.7339 424.3468 141.8976 428.1461 141.0936 C 434.5816 139.7318 441.0768 138.7323 447.5791 137.7677 C 450.6684 137.4311 453.7589 137.1057 456.8466 136.7555 C 462.624 136.1001 468.4271 135.7375 474.2323 135.6289 C 481.8894 135.4856 489.5505 135.4521 497.2029 136.0388 C 501.5272 136.3703 505.8482 136.6914 510.1508 137.2466 C 513.1521 137.6339 516.1604 137.9674 519.1656 138.3249 C 519.6735 138.4711 520.1735 138.6588 520.6906 138.7565 C 523.6227 139.3105 526.5733 139.7757 529.4912 140.3953 C 538.7511 142.3331 547.8728 144.8808 556.7966 148.0217 C 557.7501 148.3986 558.8232 148.3215 559.7131 147.8123 C 567.8595 143.6804 576.3061 140.1692 584.9811 137.3087 C 591.2264 135.1913 597.5479 133.3305 603.9456 131.7264 C 604.4361 131.6734 604.9024 131.4852 605.2924 131.1829 C 605.7819 131.1598 606.2695 131.1056 606.7523 131.0206 C 614.109 129.2405 621.5583 127.8668 629.0661 126.906 C 635.103 126.0929 641.1808 125.6201 647.2708 125.4899 C 649.1951 125.4683 651.1192 125.4362 653.0433 125.409 Z " fill="#6a9c9e" stroke-width="1" stroke="none"/><path d="M 267.6774 144.9311 C 273.8654 142.8893 280.1915 141.2926 286.6072 140.1531 C 290.9536 139.3783 295.3439 138.9316 299.7396 138.5061 C 305.175 137.9799 310.6167 138.0205 316.0608 138.049 C 321.7419 138.1489 327.4144 138.5376 333.056 139.2138 C 343.104 140.3531 353.0525 142.2428 362.8184 144.8671 C 374.4091 147.9038 385.769 151.6297 396.7186 156.5379 C 399.7091 157.8784 402.7331 159.1515 405.5595 160.8267 C 406.0334 161.0816 406.6027 161.0858 407.0803 160.8378 C 417.8105 157.009 428.8331 154.055 440.0399 152.0048 C 446.7182 150.7588 453.4388 149.851 460.1869 149.1645 C 464.6571 148.7097 469.1557 148.54 473.6481 148.3148 C 478.4858 148.0723 483.3177 148.0905 488.1457 148.1704 C 493.6594 148.2617 499.1696 148.5776 504.6721 149.0603 C 511.1902 149.632 517.6898 150.3501 524.1432 151.3902 C 531.1342 152.517 538.116 153.7746 544.959 155.609 C 547.8291 156.4254 550.8657 156.4567 553.752 155.6996 C 560.8505 153.8677 568.0695 152.5692 575.3047 151.4191 C 580.6288 150.5728 585.9769 149.8757 591.3491 149.3279 C 597.3669 148.7213 603.3888 148.2356 609.425 147.832 C 619.8674 147.1338 630.3133 147.3876 640.7554 147.448 C 646.3467 147.4804 651.9475 147.9164 657.5212 148.4215 C 665.2517 149.1222 672.9663 149.9996 680.6351 151.2541 C 685.4029 152.034 690.1517 152.8937 694.873 153.913 C 695.1911 153.9817 695.5208 153.9959 695.8451 154.0354 L 695.8451 164.8622 C 691.6287 164.7769 687.4078 164.7861 683.197 164.5849 C 676.2832 164.2547 669.3626 164.2901 662.4501 164.0729 C 650.5643 163.6994 638.6807 163.9061 626.7977 163.9344 C 621.9288 163.9459 617.0492 163.9814 612.1814 164.1616 C 606.8649 164.3584 601.5474 164.4761 596.2306 164.6379 C 590.5905 164.8096 584.9534 165.0952 579.3168 165.3681 C 574.8665 165.5836 570.4178 165.8302 565.9705 166.108 C 561.1172 166.4088 556.2595 166.6791 551.4199 167.1346 C 550.129 167.2574 548.8272 167.0758 547.6192 166.6045 C 538.0606 163.1471 528.1684 160.6933 518.1022 159.2827 C 514.5905 158.7667 511.0447 158.4588 507.498 158.1721 C 502.1108 157.7305 496.7029 157.5941 491.3004 157.7635 C 485.2538 157.9456 479.2225 158.474 473.2364 159.346 C 465.8195 160.4154 458.4842 161.9895 451.2816 164.0574 C 447.4067 165.1146 443.5955 166.3928 439.8667 167.8857 C 438.0619 168.6499 436.0654 168.839 434.1493 168.4272 C 419.9904 165.7874 405.815 163.2356 391.6459 160.6501 C 383.8769 159.2324 376.1089 157.8096 368.3418 156.3816 C 361.9454 155.2156 355.5398 154.1279 349.0581 153.5113 C 344.5809 153.0853 340.1063 152.725 335.6113 152.5148 C 329.1883 152.2146 322.7631 151.9084 316.3398 152.1121 C 311.5563 152.2638 306.7662 152.2984 301.9886 152.5825 C 296.1561 152.9293 290.3242 153.3201 284.504 153.829 C 279.2965 154.2842 274.1056 154.9279 268.9065 155.4804 C 268.5003 155.5235 268.0873 155.5028 267.6775 155.5118 Z " fill="#6ba887" stroke-width="1" stroke="none"/><path d="M 300.6505 136.3325 C 295.6474 136.9815 290.6444 137.6305 285.6414 138.2795 C 285.3918 137.9065 285.0744 137.5837 284.7057 137.3278 C 280.7226 134.2282 276.7686 131.0904 272.7569 128.0283 C 271.0825 126.7503 269.5255 125.3073 267.6774 124.2618 L 267.6774 70.374 C 268.1459 70.3513 268.3892 70.7357 268.7025 70.9693 C 273.8428 74.8035 278.9758 78.6474 284.1015 82.501 C 284.3626 82.6973 284.5609 82.9165 284.904 82.7201 C 284.9631 83.1916 285.3565 83.3685 285.6807 83.6117 C 291.8259 88.2214 297.9701 92.8324 304.1135 97.4445 C 306.0172 98.9027 307.887 100.4082 309.8363 101.8027 C 311.1814 102.765 312.3257 104.0339 313.9419 104.5999 C 314.2277 104.9965 314.5825 105.3386 314.9894 105.6098 C 318.9919 108.6188 322.9885 111.6357 326.9793 114.6604 C 325.7958 116.1531 324.1635 117.1256 322.7128 118.3035 C 316.9813 122.9575 311.2028 127.5538 305.479 132.2172 C 303.841 133.5518 302.0718 134.7409 300.6505 136.3325 Z " fill="#79a7d9" stroke-width="1" stroke="none"/><path d="M 695.8451 26.8209 C 693.091 27.4937 690.5315 28.7082 687.8969 29.7075 C 675.5733 34.3818 663.2582 39.0782 650.9514 43.7966 C 642.462 47.0379 633.9729 50.2796 625.4839 53.5217 C 625.087 53.673 624.6995 54.0484 624.2366 53.6597 C 630.1514 49.2052 636.0661 44.7504 641.9808 40.2955 C 648.8848 35.0921 655.7715 29.8656 662.6922 24.6845 C 673.4616 16.6221 684.2432 8.5758 695.0368 0.5458 C 695.2971 0.3516 695.5753 0.1814 695.8451 0 Z " fill="#b7cde9" stroke-width="1" stroke="none"/><path d="M 695.8451 131.8898 C 694.1196 131.714 692.5228 131.0366 690.8764 130.5695 C 683.9141 128.5871 676.7936 127.2093 669.5943 126.4514 C 669.0668 126.3962 668.5449 126.286 668.0203 126.2012 C 670.0845 124.6536 672.4024 123.5232 674.6172 122.2271 C 681.2788 118.329 687.972 114.485 694.6547 110.6229 C 695.0435 110.3982 695.4479 110.2004 695.8451 109.9902 Z " fill="#729bc4" stroke-width="1" stroke="none"/><path d="M 495.0582 64.2429 C 503.3429 70.465 511.6276 76.6871 519.9123 82.9092 C 519.6846 83.1402 519.4453 83.3594 519.1953 83.5661 C 507.1048 92.6386 495.0149 101.7121 482.9257 110.7865 C 481.0348 112.2097 479.0114 113.4696 477.3253 115.1573 L 477.3351 115.1503 L 477.0703 115.151 C 476.382 115.4006 476.057 116.0755 475.4924 116.4881 C 472.1252 118.9488 468.795 121.4601 465.4523 123.9543 C 459.4892 128.4036 453.5262 132.8528 447.563 137.3019 C 445.9644 136.6764 444.8338 135.3959 443.5379 134.3627 C 438.0876 130.0171 432.6647 125.6374 427.269 121.2234 C 425.4105 119.705 423.4195 118.3445 421.7182 116.6357 C 421.7186 99.144 421.7183 81.6523 421.7174 64.1605 C 421.7174 63.6696 421.688 63.1786 421.6724 62.6877 C 421.6787 62.6201 421.6929 62.5534 421.7145 62.489 C 421.9888 62.5722 422.2672 62.6442 422.5369 62.7403 C 432.8804 66.4276 443.2296 70.099 453.559 73.8255 C 455.1171 74.3875 456.5856 74.6563 458.1965 74.073 C 459.386 73.6423 460.6424 73.3946 461.872 73.0771 C 472.5423 70.3221 483.2128 67.568 493.8836 64.8149 C 494.3112 64.7044 494.7959 64.6983 495.0582 64.2429 Z " fill="#7aa7d9" stroke-width="1" stroke="none"/><path d="M 421.7145 62.4889 C 421.6927 62.5535 421.6787 62.6204 421.6728 62.6882 C 420.1258 62.9653 418.7304 63.6835 417.2843 64.2403 C 409.6796 67.1685 402.0839 70.1204 394.4975 73.096 C 388.4718 75.4489 382.4499 77.8116 376.4317 80.1839 C 375.7295 79.6232 374.9891 79.1035 374.3349 78.4915 C 373.5208 77.73 372.9163 77.8199 372.0455 78.5328 C 369.2015 80.8608 366.4385 83.2967 363.3946 85.3734 C 362.916 85.4753 362.4434 85.6036 361.9789 85.7575 C 349.0372 90.7951 336.0993 95.8423 323.1651 100.8989 C 320.0817 102.1085 316.931 103.1543 313.9419 104.6 C 312.3257 104.0339 311.1814 102.765 309.8363 101.8027 C 307.887 100.4082 306.0172 98.9027 304.1134 97.4445 C 310.4339 92.7002 316.7545 87.9559 323.0752 83.2117 C 323.2603 83.1276 323.4389 83.0301 323.6096 82.9198 C 327.9162 79.6937 332.2379 76.4873 336.5145 73.2218 C 338.4499 71.744 340.5413 70.4609 342.265 68.7123 C 345.4803 66.5999 348.4621 64.1696 351.5433 61.8757 C 359.1804 56.1901 366.8004 50.4815 374.4033 44.7499 C 389.8456 33.1784 405.2893 21.6087 420.7343 10.0408 C 420.9604 9.8715 421.2113 9.7352 421.4507 9.5835 C 421.8091 10.0032 421.7164 10.5126 421.7164 10.996 C 421.7183 28.1603 421.7177 45.3246 421.7145 62.4889 Z " fill="#b7cdea" stroke-width="1" stroke="none"/><path d="M 421.7145 62.4889 C 421.7161 45.3246 421.7168 28.1603 421.7164 10.9959 C 421.7164 10.5126 421.8092 10.0032 421.4507 9.5835 C 422.0501 8.9499 422.3292 9.706 422.6261 9.9273 C 430.3408 15.6785 438.0428 21.4468 445.7321 27.232 C 462.0834 39.4874 478.4356 51.7415 494.7888 63.9943 C 494.8829 64.0723 494.9727 64.1553 495.058 64.2428 C 494.7959 64.6982 494.3112 64.7044 493.8836 64.8148 C 483.2134 67.5702 472.5429 70.3243 461.872 73.077 C 460.6424 73.3945 459.386 73.6423 458.1965 74.0729 C 456.5856 74.6562 455.1171 74.3875 453.559 73.8254 C 443.2296 70.099 432.8804 66.4275 422.5369 62.7402 C 422.2672 62.6441 421.9889 62.5722 421.7146 62.4889 Z " fill="#a8c7e8" stroke-width="1" stroke="none"/><path d="M 653.0434 125.409 C 651.1192 125.4362 649.1951 125.4683 647.2709 125.4899 C 641.1809 125.6201 635.1031 126.0929 629.0662 126.906 C 621.5583 127.8669 614.1091 129.2405 606.7523 131.0207 C 606.2696 131.1057 605.782 131.1598 605.2924 131.1826 C 602.8162 128.0194 599.9067 125.2469 597.2348 122.2599 C 594.8339 119.5758 592.3079 117.004 589.8679 114.3542 C 585.4613 109.5688 581.0891 104.7517 576.6799 99.9686 C 574.1552 97.2299 571.5744 94.5429 569.0472 91.8063 C 568.532 91.3354 568.1351 90.7494 567.8889 90.0962 C 569.0087 89.0846 570.116 88.0586 571.2509 87.0641 C 574.2954 84.3964 577.3853 81.7793 580.3903 79.0679 C 582.0568 77.5643 583.8835 76.2339 585.3747 74.5376 C 586.9382 75.6889 588.4985 76.8445 590.0675 77.9883 C 590.4108 78.2386 590.7025 78.6613 591.2344 78.4403 C 591.307 79.1189 591.9119 79.3436 592.3496 79.6717 C 601.2482 86.3419 610.1535 93.003 619.0657 99.6551 C 630.0306 107.8638 640.9886 116.0819 651.9396 124.3092 C 652.3478 124.6159 652.9042 124.8157 653.0434 125.409 Z " fill="#79a7d9" stroke-width="1" stroke="none"/><path d="M 477.3253 115.1573 C 479.0114 113.4696 481.0348 112.2097 482.9257 110.7865 C 495.0029 101.6962 507.0928 92.6227 519.1953 83.566 C 519.4452 83.3593 519.6845 83.1401 519.9123 82.9092 C 525.5828 78.683 531.253 74.4562 536.9226 70.2288 C 543.7698 65.1099 550.6128 59.9855 557.4516 54.8555 C 557.7028 54.6676 557.9047 54.3627 558.2883 54.4207 C 558.2974 68.0382 558.3065 81.6556 558.3155 95.2729 C 557.6783 96.1819 556.9313 97.0086 556.0914 97.7344 C 555.5649 97.6666 555.0303 97.6364 554.5131 97.5254 C 548.3938 96.2114 542.2756 94.8922 536.1585 93.5678 C 535.4518 93.3578 534.6976 93.3698 533.9979 93.6023 C 517.1558 100.1006 500.306 106.5792 483.4487 113.0383 C 481.4346 113.8085 479.4819 114.787 477.3253 115.1573 Z " fill="#b7cdea" stroke-width="1" stroke="none"/><path d="M 323.0752 83.2117 C 316.7545 87.9559 310.4339 92.7002 304.1133 97.4445 C 297.9695 92.8331 291.8253 88.2222 285.6807 83.6117 C 285.3565 83.3685 284.9631 83.1916 284.904 82.7201 C 288.7599 79.8441 292.6157 76.9682 296.4716 74.0923 C 296.8519 74.4152 297.2401 74.2342 297.6323 74.1176 C 303.0097 72.5186 308.399 70.958 313.7563 69.2941 C 314.6642 68.9345 315.6967 69.1084 316.4368 69.7457 C 318.5237 71.3144 320.4931 73.054 322.7953 74.3251 C 322.7953 74.4019 322.7982 74.4786 322.804 74.5554 C 322.8006 77.0124 322.7977 79.4694 322.7953 81.9264 C 322.7179 82.3749 322.8183 82.8359 323.0752 83.2116 Z " fill="#8fafdc" stroke-width="1" stroke="none"/><path d="M 558.3157 95.2732 L 558.2883 54.4207 C 558.7323 54.3051 558.9559 54.6723 559.2335 54.8799 C 567.8698 61.3394 576.5017 67.8046 585.1294 74.2754 C 585.2188 74.3553 585.3009 74.443 585.3747 74.5375 C 583.8835 76.2339 582.0568 77.5643 580.3903 79.0679 C 577.3853 81.7793 574.2954 84.3964 571.2509 87.0641 C 570.116 88.0586 569.0087 89.0846 567.8889 90.0959 C 567.1038 89.9174 566.662 89.2703 566.2411 88.7088 C 565.5307 87.761 565.0635 87.9886 564.3772 88.7406 C 562.375 90.9346 560.4722 93.2223 558.3157 95.2732 Z " fill="#a8c7e8" stroke-width="1" stroke="none"/><path d="M 322.7952 74.3253 C 320.4931 73.054 318.5236 71.3144 316.4367 69.7456 C 315.6967 69.1084 314.6642 68.9345 313.7562 69.2941 C 308.399 70.958 303.0097 72.5186 297.6323 74.1176 C 297.2401 74.2342 296.8518 74.4152 296.4716 74.0923 C 305.1526 67.5968 313.8338 61.1012 322.515 54.6057 C 322.9118 55.06 322.7924 55.6146 322.7929 56.1359 C 322.799 62.199 322.7998 68.2622 322.7952 74.3253 Z " fill="#b7cde9" stroke-width="1" stroke="none"/><path d="M 323.0752 83.2117 C 322.8183 82.8359 322.7179 82.3749 322.7953 81.9264 C 322.7955 79.4694 322.7984 77.0124 322.8039 74.5554 C 323.3395 74.4821 323.6309 74.0568 323.9849 73.727 C 326.375 71.5002 328.7885 69.2976 331.1389 67.0296 C 332.4251 65.7885 333.8014 64.6283 334.8938 63.1947 C 337.3507 65.0339 339.8077 66.873 342.2648 68.7122 C 340.5413 70.4608 338.4499 71.744 336.5145 73.2218 C 332.2379 76.4873 327.9162 79.6937 323.6096 82.9198 C 323.4388 83.0301 323.2602 83.1276 323.0752 83.2116 Z " fill="#79a7d9" stroke-width="1" stroke="none"/><path d="M 334.8937 63.1947 C 333.8014 64.6283 332.4251 65.7885 331.1389 67.0296 C 328.7885 69.2976 326.375 71.5002 323.9849 73.727 C 323.6308 74.0568 323.3395 74.4821 322.8039 74.5554 C 322.7981 74.4787 322.7952 74.4019 322.7952 74.3251 C 322.7959 68.2622 322.7951 62.1991 322.7929 56.1359 C 322.7924 55.6145 322.9118 55.0599 322.515 54.6057 C 322.8524 54.0631 323.1909 54.3602 323.5214 54.6097 C 327.3129 57.4704 331.1037 60.3321 334.8937 63.1947 Z " fill="#a8c7e8" stroke-width="1" stroke="none"/><path d="M 363.3946 85.3734 C 366.4385 83.2967 369.2015 80.8608 372.0455 78.5328 C 372.9163 77.8199 373.5208 77.73 374.3349 78.4915 C 374.989 79.1035 375.7295 79.6232 376.4317 80.1842 C 377.5378 81.0927 378.6381 82.0082 379.751 82.9081 C 386.7143 88.5385 393.6793 94.1669 400.646 99.7931 C 405.6088 103.8002 410.5753 107.8026 415.5456 111.8005 C 417.5843 113.4357 419.6595 115.0254 421.7182 116.6357 C 423.4195 118.3445 425.4105 119.705 427.269 121.2234 C 432.6671 125.6337 438.0901 130.0135 443.5379 134.3627 C 444.8338 135.3959 445.9643 136.6764 447.5629 137.302 C 447.5683 137.4572 447.5737 137.6125 447.5791 137.7678 C 441.0769 138.7323 434.5817 139.7318 428.1462 141.0936 C 424.3468 141.8976 420.5562 142.7339 416.7966 143.7055 C 415.6872 144.0013 414.5202 144.0058 413.4085 143.7185 C 409.6438 142.7666 405.8489 141.9472 402.0338 141.2219 C 401.5853 141.1692 401.1558 141.0108 400.7804 140.7599 C 400.7869 139.8167 400.8567 138.8686 400.7827 137.9319 C 400.6947 136.8186 401.1652 136.4795 402.2151 136.551 C 403.2356 136.6206 404.2646 136.5705 405.2897 136.5605 C 405.5217 136.5583 405.8177 136.6367 405.9408 136.3548 C 406.0553 136.0926 405.855 135.8902 405.7025 135.7033 C 405.0302 134.8796 404.3196 134.0848 403.6882 133.2311 C 403.3638 132.7925 402.5608 132.4389 402.8493 131.8661 C 403.1128 131.3431 403.8982 131.7262 404.4456 131.641 C 404.7197 131.5984 405.0629 131.7242 405.2404 131.4449 C 405.4486 131.1175 405.1042 130.9312 404.9459 130.7184 C 404.4574 130.0621 403.9414 129.4262 403.4543 128.7689 C 403.1283 128.329 402.335 128.0163 402.602 127.4174 C 402.8207 126.9268 403.5903 127.3521 404.0796 127.1549 C 404.1404 127.1304 404.1738 127.038 404.2553 126.9303 C 402.9398 125.3361 401.6188 123.7346 400.2924 122.1259 C 399.9939 121.7632 399.6747 121.3333 399.2223 121.8805 C 397.8274 123.5678 396.4645 125.2815 395.0765 127.0005 C 395.6946 127.4148 396.3314 127.0044 396.8738 127.4027 C 396.8293 127.5523 396.766 127.6957 396.6854 127.8293 C 395.924 128.7907 395.1453 129.7384 394.3846 130.7004 C 393.9063 131.3053 393.9886 131.658 394.84 131.6398 C 395.4268 131.6272 396.0142 131.6374 396.9504 131.6374 C 395.7335 133.1538 394.7643 134.3543 393.8051 135.5627 C 393.6164 135.8005 393.1928 135.9876 393.4168 136.3656 C 393.6086 136.6892 394.0134 136.5559 394.3277 136.5603 C 395.3527 136.5747 396.3802 136.6076 397.4027 136.5547 C 398.3296 136.5068 398.6483 136.9014 398.5992 137.7896 C 398.5495 138.6891 398.586 139.5933 398.5847 140.4955 C 392.715 139.4016 386.8222 138.4513 380.9062 137.6446 C 376.9413 137.0961 372.9532 136.699 368.9668 136.3284 C 364.0857 135.8745 359.1968 135.5029 354.3087 135.1291 C 352.3517 134.9794 350.3765 134.9247 348.4251 134.907 C 342.9771 134.8574 337.536 134.4304 332.0859 134.6073 C 327.2606 134.764 322.4297 134.8374 317.6122 135.1277 C 312.1077 135.4595 306.6154 135.9916 301.1172 136.429 C 300.9579 136.4188 300.8008 136.3862 300.6505 136.3324 C 302.0718 134.7409 303.841 133.5518 305.479 132.2172 C 311.2028 127.5538 316.9813 122.9575 322.7129 118.3035 C 324.1635 117.1256 325.7958 116.1531 326.9794 114.6604 C 327.1754 114.6116 327.3634 114.5351 327.5379 114.4333 C 331.303 111.4271 335.063 108.4147 338.8181 105.3961 C 345.0469 100.3733 351.2689 95.3419 357.4839 90.3021 C 359.4745 88.6845 361.5978 87.2238 363.3946 85.3733 Z M 347.1611 117.861 C 348.4575 117.861 349.4319 117.8675 350.4062 117.8569 C 350.6798 117.8539 351.0356 117.9325 351.148 117.5854 C 351.2315 117.3277 350.9721 117.1551 350.818 116.9688 C 349.9845 115.9604 349.1054 114.9846 348.343 113.925 C 348.0001 113.4484 347.1943 113.0342 347.4191 112.4607 C 347.6377 111.9031 348.4514 112.2492 348.9983 112.2153 C 349.7047 112.1715 349.8064 111.9029 349.3872 111.3952 C 347.6954 109.3465 345.973 107.3228 344.3022 105.2573 C 343.8286 104.672 343.5523 104.7227 343.1121 105.277 C 341.6887 107.0692 340.2262 108.8304 338.7759 110.6012 C 338.4191 111.0367 337.7235 111.4619 337.9115 111.9792 C 338.0911 112.4736 338.8596 112.1736 339.364 112.1943 C 340.2488 112.2306 340.2505 112.5295 339.7489 113.1322 C 338.7292 114.3572 337.7357 115.604 336.7377 116.8469 C 336.5459 117.0859 336.1254 117.2648 336.3183 117.6433 C 336.4947 117.9893 336.9047 117.8514 337.2165 117.8569 C 338.1373 117.873 339.0585 117.8626 340.303 117.8626 C 338.5957 119.9617 337.1098 121.7898 335.622 123.6163 C 335.4697 123.8033 335.2098 123.9744 335.2981 124.2337 C 335.4153 124.5785 335.7701 124.499 336.0432 124.5006 C 337.6826 124.5099 339.3233 124.5454 340.961 124.4926 C 341.9082 124.462 342.2939 124.7791 342.257 125.7594 C 342.1985 127.3146 342.293 128.8758 342.2254 130.4303 C 342.1754 131.5797 342.6521 131.9237 343.7494 131.9148 C 344.7977 131.9063 345.2409 131.5645 345.2007 130.4834 C 345.1428 128.9282 345.237 127.367 345.1692 125.8126 C 345.1234 124.7648 345.5432 124.4536 346.5374 124.491 C 348.1336 124.551 349.7337 124.5112 351.3321 124.5008 C 351.6044 124.499 351.9556 124.5958 352.106 124.2791 C 352.2635 123.9475 351.9261 123.7783 351.7565 123.5672 C 350.3007 121.7553 348.8414 119.9464 347.1611 117.861 Z M 363.7706 103.5938 C 365.1103 103.5938 366.2814 103.6551 367.4429 103.5761 C 368.5494 103.5008 368.908 103.9472 368.8267 105.0027 C 368.7577 105.8988 368.8085 106.8046 368.8146 107.706 C 368.8187 108.3187 368.7171 108.9812 369.6731 109.0016 C 370.6719 109.023 370.7965 108.4177 370.7818 107.6348 C 370.7634 106.6517 370.8052 105.6671 370.7716 104.6849 C 370.7448 103.903 371.0519 103.5579 371.8505 103.5873 C 372.7917 103.622 373.7354 103.6039 374.6776 103.5866 C 374.943 103.5817 375.3066 103.7138 375.4336 103.3602 C 375.5442 103.0528 375.2742 102.8382 375.0933 102.6214 C 374.4912 101.8994 373.838 101.2132 373.3037 100.4442 C 373.0136 100.0266 372.2781 99.6951 372.5069 99.1772 C 372.7394 98.6509 373.4671 98.9952 373.9716 98.9182 C 374.2427 98.8768 374.5943 99.0102 374.7471 98.6965 C 374.9089 98.364 374.5664 98.1987 374.3993 97.9849 C 373.6684 97.0504 372.7744 96.2296 372.2751 95.1333 C 372.7798 94.8099 373.3515 95.2107 373.8139 94.6628 C 372.6103 93.1723 371.4132 91.6811 370.2052 90.1988 C 369.7447 89.6338 369.3895 90.0595 369.1109 90.3929 C 367.9144 91.8252 366.7452 93.2803 365.5263 94.7758 C 365.665 94.8476 365.8076 94.9115 365.9534 94.9674 C 366.3241 95.0756 366.876 94.7515 367.0559 95.2225 C 367.2194 95.6503 366.6765 95.887 366.4797 96.2269 C 365.9567 97.1299 364.9535 97.6954 364.5775 98.8561 C 365.4773 98.9012 366.2648 98.9407 367.2156 98.9884 C 366.1675 100.6556 364.7715 101.8317 363.7706 103.5937 Z M 394.9847 108.1246 C 396.6496 108.1112 396.194 107.5262 395.5512 106.8081 C 394.8988 106.0793 394.3063 105.2955 393.7086 104.5196 C 393.2987 103.9875 392.9141 103.8662 392.4382 104.4445 C 391.8417 105.1695 391.2031 105.8601 390.6133 106.5902 C 390.3359 106.9336 389.9513 107.3265 389.934 107.7114 C 389.9086 108.2756 390.7873 107.7529 390.9534 108.3 C 390.5934 108.7508 390.2025 109.173 389.8921 109.6479 C 389.5929 110.1056 388.7909 110.4245 389.0685 111.0195 C 389.2952 111.5053 390.0578 111.0834 390.547 111.2804 C 390.6074 111.3047 390.6404 111.3974 390.7356 111.5245 C 390.069 112.3687 389.4034 113.2416 388.7041 114.0865 C 388.2633 114.6191 388.3477 114.8846 389.0435 114.9025 C 389.6981 114.9193 390.3562 114.9493 391.0075 114.9019 C 391.9329 114.8345 392.2571 115.2473 392.2006 116.133 C 392.1564 116.8255 392.1919 117.524 392.2096 118.2194 C 392.2086 118.5203 392.3686 118.7989 392.6291 118.9496 C 392.8896 119.1004 393.2109 119.1002 393.4713 118.9493 C 393.7317 118.7983 393.8914 118.5196 393.8901 118.2187 C 393.9091 117.4824 393.9334 116.7443 393.9028 116.0092 C 393.8706 115.2353 394.1668 114.8649 394.9718 114.9058 C 395.625 114.9389 396.2815 114.9181 396.9361 114.9047 C 397.1674 114.9 397.4663 114.98 397.5785 114.6878 C 397.6788 114.4265 397.4787 114.227 397.3256 114.0398 C 396.964 113.5976 396.5695 113.1799 396.2357 112.7181 C 395.937 112.3047 395.2033 111.9864 395.4513 111.4491 C 395.6864 110.9396 396.4264 111.3412 396.9159 111.1769 C 396.9846 111.1539 397.038 111.0853 397.1668 110.9841 C 396.4634 110.0623 395.7805 109.1673 394.9848 108.1245 Z " fill="#729bc4" stroke-width="1" stroke="none"/><path d="M 447.5792 137.7677 C 447.5737 137.6125 447.5683 137.4572 447.5629 137.302 C 453.5261 132.8527 459.4892 128.4035 465.4523 123.9543 C 468.795 121.4601 472.1252 118.9488 475.4923 116.4881 C 476.057 116.0755 476.382 115.4006 477.0704 115.151 C 477.159 115.243 477.2472 115.2561 477.3351 115.1503 L 477.3253 115.1573 C 479.4819 114.787 481.4346 113.8085 483.4487 113.0382 C 500.3102 106.5901 517.1599 100.1114 533.998 93.6023 C 534.6976 93.3698 535.4518 93.3578 536.1585 93.5678 C 542.2779 94.8815 548.3961 96.2006 554.5131 97.5254 C 555.0303 97.6364 555.5649 97.6666 556.0914 97.7341 C 553.7965 100.2926 551.522 102.87 549.2019 105.4058 C 546.0517 108.8487 542.8537 112.2478 539.6995 115.6871 C 534.5269 121.3275 529.3654 126.9781 524.2152 132.6389 C 522.5091 134.5134 520.8475 136.4284 519.1656 138.3249 C 516.1605 137.9674 513.1522 137.6339 510.1509 137.2466 C 505.8483 136.6914 501.5273 136.3703 497.203 136.0388 C 489.5505 135.4521 481.8894 135.4856 474.2323 135.6289 C 468.4271 135.7375 462.624 136.1002 456.8466 136.7555 C 453.7589 137.1057 450.6684 137.4311 447.5792 137.7677 Z " fill="#8fafdc" stroke-width="1" stroke="none"/><path d="M 519.1656 138.3249 C 520.8475 136.4284 522.5091 134.5135 524.2152 132.6389 C 529.3664 126.979 534.5278 121.3284 539.6995 115.6872 C 542.8536 112.2478 546.0517 108.8488 549.2019 105.4058 C 551.522 102.8701 553.7965 100.2926 556.0914 97.7341 C 556.9314 97.0085 557.6784 96.1819 558.3155 95.2729 C 560.4722 93.2224 562.375 90.9346 564.3772 88.7407 C 565.0636 87.9886 565.5307 87.761 566.2411 88.7088 C 566.662 89.2703 567.1038 89.9175 567.8889 90.0959 C 568.135 90.7493 568.5319 91.3353 569.0473 91.8063 C 571.5744 94.5429 574.1553 97.2299 576.6799 99.9686 C 581.0891 104.7517 585.4613 109.5688 589.8679 114.3542 C 592.3079 117.0039 594.8339 119.5758 597.2348 122.2599 C 599.9067 125.2469 602.8162 128.0194 605.2924 131.1826 C 604.9025 131.4851 604.4363 131.6734 603.9456 131.7264 C 597.5496 133.3338 591.2281 135.1945 584.9812 137.3087 C 576.3062 140.1692 567.8595 143.6804 559.7131 147.8124 C 558.8233 148.3215 557.7502 148.3986 556.7967 148.0217 C 547.8729 144.8808 538.7511 142.3331 529.4912 140.3954 C 526.5733 139.7757 523.6228 139.3105 520.6906 138.7565 C 520.1735 138.6588 519.6735 138.4711 519.1656 138.3249 Z M 549.5567 131.8369 C 548.5685 133.0519 547.6562 134.1481 546.7799 135.2724 C 546.5995 135.5039 546.2521 135.768 546.4748 136.1275 C 546.6461 136.404 546.9932 136.3101 547.2698 136.3133 C 548.1702 136.3239 549.073 136.359 549.9706 136.3077 C 550.8927 136.2549 551.2093 136.65 551.1695 137.5382 C 551.1237 138.559 551.1574 139.5841 551.1779 140.6068 C 551.1919 141.3042 551.6483 141.4775 552.2574 141.482 C 552.894 141.4866 553.1278 141.1629 553.122 140.5664 C 553.1125 139.5843 553.1773 138.5981 553.1091 137.6207 C 553.0359 136.572 553.4813 136.2423 554.4735 136.3048 C 555.4519 136.3663 556.4374 136.3207 557.4196 136.3111 C 557.6558 136.3088 557.9453 136.3587 558.0729 136.0914 C 558.2056 135.8137 557.9527 135.6511 557.805 135.4677 C 557.1649 134.6731 556.5137 133.8871 555.8862 133.0827 C 555.5934 132.7075 554.9339 132.3823 555.1364 131.9123 C 555.3775 131.3527 556.086 131.7344 556.5812 131.6434 C 556.8493 131.5941 557.2083 131.7325 557.3414 131.3979 C 557.4714 131.071 557.1378 130.9041 556.9696 130.6888 C 556.2506 129.7681 555.5316 128.8498 554.8126 127.934 C 555.1659 127.5973 555.5095 127.7272 555.8202 127.7011 C 556.4022 127.6521 556.5853 127.453 556.1676 126.9466 C 555.0508 125.5926 553.9328 124.2394 552.8307 122.8735 C 552.3979 122.3372 552.0277 122.4378 551.6433 122.9096 C 550.5604 124.2385 549.4805 125.5699 548.3881 126.8909 C 547.9404 127.4325 548.0668 127.6933 548.7497 127.6967 C 549.7435 127.7016 549.5222 128.135 549.0958 128.6456 C 548.4939 129.3664 547.8757 130.074 547.2887 130.8067 C 546.8776 131.32 546.8454 131.6692 547.688 131.6539 C 548.3166 131.5639 548.9576 131.6266 549.5567 131.8369 Z M 581.8809 121.5013 C 582.3807 121.1375 583.0676 121.568 583.1773 120.9946 C 583.2351 120.6926 582.8686 120.2668 582.6195 119.9564 C 581.699 118.8093 580.7054 117.7187 579.8238 116.5434 C 579.2992 115.8439 579.0296 115.9728 578.5608 116.5867 C 577.6689 117.7549 576.6819 118.8499 575.7598 119.9958 C 575.5135 120.3019 575.0915 120.6352 575.235 121.0415 C 575.4034 121.5186 575.974 121.1938 576.3302 121.3575 C 576.3927 121.3861 576.4289 121.4719 576.4992 121.5583 C 576.1802 122.47 575.2978 122.977 574.8319 123.7907 C 574.5947 124.2048 573.8907 124.5023 574.0819 124.9682 C 574.3171 125.541 575.0284 125.1512 575.5223 125.2442 C 575.7907 125.2947 576.1474 125.1555 576.2878 125.483 C 576.4291 125.8123 576.0946 125.9813 575.9246 126.1936 C 575.2093 127.0865 574.4818 127.9699 573.774 128.8687 C 573.5777 129.118 573.2501 129.3942 573.3675 129.7109 C 573.5087 130.0917 573.9423 129.9044 574.2446 129.9117 C 575.2271 129.9355 576.211 129.9422 577.1933 129.9165 C 577.9171 129.8976 578.246 130.1891 578.2259 130.9298 C 578.1992 131.912 578.2324 132.8957 578.2188 133.8785 C 578.2096 134.5513 578.2656 135.0829 579.1697 135.0983 C 580.1383 135.1149 580.2118 134.5553 580.194 133.8264 C 580.173 132.9668 580.241 132.1024 580.1768 131.2471 C 580.1001 130.2258 580.4966 129.8478 581.5173 129.9053 C 582.7078 129.9723 583.905 129.9209 585.2723 129.9209 C 584.3866 128.3144 583.2302 127.303 582.3516 126.0793 C 581.9653 125.5413 581.9814 125.2765 582.6962 125.2512 C 582.9417 125.2426 583.1896 125.2653 583.433 125.2404 C 583.7421 125.2088 584.1677 125.3991 584.3269 125.0432 C 584.5088 124.6366 584.0892 124.3984 583.8639 124.125 C 583.1713 123.2843 582.3841 122.5128 581.881 121.5012 Z M 571.9166 117.8679 C 571.3669 116.7205 570.5651 116.0509 570.014 115.2025 C 569.7832 114.8473 569.1297 114.6504 569.3661 114.1422 C 569.5548 113.7365 570.1115 113.983 570.5022 113.9255 C 570.7362 113.891 571.0363 113.9656 571.1338 113.671 C 571.2244 113.3971 570.9775 113.2343 570.8245 113.0506 C 570.4057 112.5477 569.9927 112.0399 569.5662 111.5437 C 569.2412 111.1657 569.0507 110.8412 569.7637 110.7167 C 570.251 110.6316 570.4372 110.3465 570.117 109.9449 C 569.2503 108.858 568.3515 107.7963 567.452 106.7361 C 567.0747 106.2914 566.6983 106.3337 566.3333 106.7883 C 565.5906 107.713 564.8032 108.6038 564.0965 109.5548 C 563.7978 109.9567 563.0433 110.5234 564.3032 110.8129 C 564.8422 110.9367 564.3664 111.3147 564.2316 111.5683 C 563.816 112.3501 562.9587 112.8394 562.7294 113.735 C 563.0065 114.0106 563.3086 113.8921 563.5812 113.9292 C 563.8905 113.9713 564.3025 113.7974 564.4705 114.1608 C 564.6412 114.5299 564.2382 114.7351 564.0551 114.9798 C 563.5163 115.7001 562.9503 116.4005 562.3821 117.0982 C 561.9758 117.5972 562.1276 117.8369 562.723 117.8533 C 563.4606 117.8736 564.2015 117.9017 564.9366 117.8558 C 565.8207 117.8006 566.2347 118.1162 566.1741 119.0472 C 566.1237 119.823 566.1762 120.6049 566.1663 121.3839 C 566.1586 121.9881 566.4083 122.2922 567.0426 122.2888 C 567.7014 122.2854 567.8863 121.9208 567.8814 121.3443 C 567.8745 120.5243 567.9046 119.7034 567.8792 118.8841 C 567.8565 118.1503 568.1742 117.8405 568.9056 117.8614 C 569.8435 117.8882 570.7826 117.8679 571.9167 117.8679 Z " fill="#729bc4" stroke-width="1" stroke="none"/><path d="M 398.5847 140.4955 C 398.586 139.5933 398.5495 138.6891 398.5992 137.7896 C 398.6483 136.9014 398.3296 136.5068 397.4027 136.5547 C 396.3802 136.6075 395.3528 136.5747 394.3277 136.5602 C 394.0134 136.5558 393.6086 136.6892 393.4168 136.3655 C 393.1928 135.9875 393.6164 135.8005 393.8051 135.5627 C 394.7643 134.3542 395.7335 133.1537 396.9504 131.6373 C 396.0142 131.6373 395.4269 131.6272 394.84 131.6397 C 393.9887 131.6579 393.9063 131.3053 394.3846 130.7004 C 395.1453 129.7384 395.924 128.7907 396.6854 127.8293 C 396.766 127.6956 396.8293 127.5523 396.8738 127.4027 C 396.3314 127.0043 395.6946 127.4148 395.0766 127.0004 C 396.4645 125.2815 397.8274 123.5678 399.2223 121.8805 C 399.6747 121.3333 399.9939 121.7632 400.2924 122.1259 C 401.6145 123.7323 402.9355 125.3338 404.2554 126.9302 C 404.1738 127.038 404.1404 127.1303 404.0796 127.1548 C 403.5903 127.352 402.8207 126.9267 402.602 127.4174 C 402.335 128.0162 403.1283 128.3289 403.4543 128.7689 C 403.9414 129.4262 404.4574 130.062 404.9459 130.7184 C 405.1042 130.9311 405.4486 131.1175 405.2404 131.4449 C 405.0629 131.7241 404.7197 131.5983 404.4456 131.641 C 403.8982 131.7261 403.1128 131.343 402.8494 131.866 C 402.5609 132.4388 403.3639 132.7925 403.6882 133.2311 C 404.3196 134.0847 405.0302 134.8796 405.7025 135.7033 C 405.8551 135.8902 406.0553 136.0926 405.9408 136.3547 C 405.8178 136.6367 405.5217 136.5582 405.2897 136.5605 C 404.2646 136.5705 403.2356 136.6205 402.2151 136.551 C 401.1652 136.4795 400.6947 136.8186 400.7827 137.9318 C 400.8567 138.8686 400.7869 139.8166 400.7804 140.7599 C 400.0484 140.6718 399.3165 140.5837 398.5847 140.4954 Z " fill="#678cb0" stroke-width="1" stroke="none"/><path d="M 363.3946 85.3734 C 361.5978 87.2239 359.4745 88.6845 357.4839 90.3021 C 351.2741 95.3483 345.0522 100.3797 338.8181 105.3961 C 335.0676 108.4204 331.3076 111.4328 327.5379 114.4332 C 327.3634 114.535 327.1753 114.6115 326.9793 114.6604 C 322.9842 111.6415 318.9875 108.6246 314.9894 105.6097 C 314.5825 105.3386 314.2277 104.9965 313.9419 104.5998 C 316.931 103.1543 320.0817 102.1085 323.1651 100.8989 C 336.0934 95.8271 349.0313 90.78 361.9789 85.7575 C 362.4434 85.6036 362.916 85.4753 363.3946 85.3734 Z " fill="#8fafdc" stroke-width="1" stroke="none"/><path d="M 421.7182 116.6357 C 419.6596 115.0253 417.5843 113.4357 415.5456 111.8005 C 410.5699 107.8095 405.6033 103.807 400.646 99.793 C 393.6787 94.1675 386.7138 88.5392 379.7511 82.908 C 378.6382 82.0081 377.5378 81.0927 376.4317 80.1841 C 382.4534 77.8206 388.4753 75.4578 394.4975 73.096 C 402.0883 70.1319 409.6839 67.18 417.2843 64.2404 C 418.7304 63.6835 420.1258 62.9653 421.6728 62.6882 C 421.688 63.1786 421.7173 63.6696 421.7174 64.1605 C 421.7193 81.6522 421.7196 99.144 421.7182 116.6357 Z " fill="#8fafdc" stroke-width="1" stroke="none"/><path d="M 477.3351 115.1502 C 477.2472 115.2561 477.159 115.2429 477.0704 115.151 C 477.1586 115.1507 477.2468 115.1505 477.3351 115.1502 Z " fill="#b7cdea" stroke-width="1" stroke="none"/><path d="M 347.1611 117.861 C 348.8414 119.9464 350.3007 121.7554 351.7564 123.5672 C 351.926 123.7783 352.2635 123.9476 352.106 124.2792 C 351.9556 124.5959 351.6044 124.499 351.332 124.5008 C 349.7337 124.5112 348.1336 124.5511 346.5374 124.491 C 345.5432 124.4536 345.1234 124.7649 345.1691 125.8126 C 345.237 127.367 345.1427 128.9282 345.2006 130.4834 C 345.2409 131.5645 344.7976 131.9063 343.7493 131.9149 C 342.652 131.9237 342.1753 131.5797 342.2254 130.4303 C 342.293 128.8759 342.1984 127.3147 342.2569 125.7595 C 342.2938 124.7791 341.9082 124.462 340.9609 124.4926 C 339.3232 124.5454 337.6825 124.51 336.0432 124.5006 C 335.7701 124.4991 335.4153 124.5785 335.298 124.2338 C 335.2098 123.9744 335.4696 123.8033 335.622 123.6163 C 337.1097 121.7898 338.5957 119.9618 340.3029 117.8627 C 339.0585 117.8627 338.1372 117.8731 337.2164 117.8569 C 336.9047 117.8514 336.4947 117.9894 336.3183 117.6434 C 336.1253 117.2649 336.5458 117.0859 336.7377 116.8469 C 337.7356 115.6041 338.7292 114.3572 339.7488 113.1322 C 340.2504 112.5296 340.2487 112.2307 339.3639 112.1943 C 338.8595 112.1736 338.0911 112.4736 337.9114 111.9792 C 337.7235 111.4619 338.4191 111.0367 338.7758 110.6012 C 340.2262 108.8304 341.6886 107.0692 343.1121 105.277 C 343.5523 104.7228 343.8286 104.672 344.3021 105.2574 C 345.973 107.3228 347.6953 109.3466 349.3871 111.3952 C 349.8064 111.9029 349.7046 112.1715 348.9982 112.2153 C 348.4514 112.2493 347.6376 111.9032 347.419 112.4608 C 347.1942 113.0342 348 113.4485 348.3429 113.925 C 349.1054 114.9846 349.9844 115.9605 350.818 116.9688 C 350.972 117.1551 351.2314 117.3278 351.148 117.5854 C 351.0356 117.9325 350.6797 117.8539 350.4061 117.8569 C 349.4319 117.8675 348.4575 117.8611 347.1611 117.8611 Z " fill="#678cb0" stroke-width="1" stroke="none"/><path d="M 363.7706 103.5938 C 364.7715 101.8317 366.1675 100.6556 367.2156 98.9884 C 366.2647 98.9407 365.4772 98.9012 364.5774 98.8561 C 364.9535 97.6954 365.9567 97.1299 366.4797 96.2269 C 366.6765 95.887 367.2193 95.6503 367.0559 95.2225 C 366.8759 94.7516 366.3241 95.0757 365.9533 94.9674 C 365.8075 94.9115 365.6649 94.8476 365.5263 94.7759 C 366.7452 93.2803 367.9144 91.8252 369.1109 90.3929 C 369.3895 90.0595 369.7447 89.6338 370.2052 90.1988 C 371.4131 91.6812 372.6103 93.1724 373.8139 94.6628 C 373.3515 95.2107 372.7798 94.81 372.2751 95.1334 C 372.7744 96.2297 373.6684 97.0504 374.3992 97.985 C 374.5664 98.1987 374.9089 98.364 374.747 98.6965 C 374.5943 99.0102 374.2427 98.8768 373.9716 98.9182 C 373.4671 98.9952 372.7394 98.651 372.5069 99.1772 C 372.278 99.6951 373.0136 100.0267 373.3037 100.4442 C 373.838 101.2132 374.4912 101.8994 375.0933 102.6214 C 375.2741 102.8382 375.5442 103.0528 375.4336 103.3603 C 375.3065 103.7138 374.943 103.5817 374.6776 103.5866 C 373.7354 103.604 372.7917 103.622 371.8505 103.5873 C 371.0519 103.5579 370.7448 103.9031 370.7716 104.6849 C 370.8051 105.6671 370.7634 106.6517 370.7818 107.6348 C 370.7965 108.4177 370.6719 109.023 369.6731 109.0017 C 368.7171 108.9812 368.8187 108.3188 368.8146 107.706 C 368.8085 106.8046 368.7577 105.8988 368.8267 105.0027 C 368.908 103.9472 368.5494 103.5008 367.4429 103.5761 C 366.2814 103.6551 365.1103 103.5938 363.7706 103.5938 Z " fill="#678cb0" stroke-width="1" stroke="none"/><path d="M 394.9848 108.1246 C 395.7805 109.1673 396.4634 110.0623 397.1668 110.9841 C 397.038 111.0853 396.9846 111.1539 396.916 111.1769 C 396.4264 111.3413 395.6864 110.9396 395.4513 111.4491 C 395.2033 111.9864 395.937 112.3047 396.2357 112.7181 C 396.5695 113.1799 396.964 113.5976 397.3256 114.0398 C 397.4787 114.227 397.6788 114.4265 397.5785 114.6879 C 397.4663 114.98 397.1674 114.9 396.9362 114.9047 C 396.2815 114.9181 395.625 114.9389 394.9718 114.9058 C 394.1668 114.8649 393.8706 115.2353 393.9028 116.0092 C 393.9334 116.7443 393.9091 117.4824 393.8901 118.2187 C 393.8914 118.5197 393.7317 118.7984 393.4713 118.9493 C 393.2109 119.1003 392.8897 119.1004 392.6291 118.9497 C 392.3686 118.7989 392.2086 118.5204 392.2097 118.2194 C 392.1919 117.524 392.1564 116.8255 392.2006 116.133 C 392.2572 115.2473 391.9329 114.8345 391.0076 114.9019 C 390.3562 114.9493 389.6981 114.9193 389.0436 114.9025 C 388.3477 114.8847 388.2633 114.6191 388.7041 114.0866 C 389.4035 113.2416 390.0691 112.3687 390.7356 111.5245 C 390.6404 111.3974 390.6075 111.3047 390.547 111.2804 C 390.0578 111.0834 389.2952 111.5054 389.0686 111.0196 C 388.7909 110.4245 389.5929 110.1057 389.8922 109.6479 C 390.2026 109.1731 390.5934 108.7508 390.9534 108.3 C 390.7873 107.7529 389.9086 108.2757 389.934 107.7114 C 389.9513 107.3266 390.3359 106.9336 390.6133 106.5903 C 391.2031 105.8601 391.8417 105.1695 392.4383 104.4446 C 392.9141 103.8663 393.2988 103.9876 393.7086 104.5196 C 394.3063 105.2955 394.8988 106.0793 395.5512 106.8081 C 396.194 107.5262 396.6497 108.1112 394.9848 108.1246 Z " fill="#678cb0" stroke-width="1" stroke="none"/><path d="M 549.5567 131.8369 C 548.9575 131.6267 548.3165 131.5639 547.688 131.6539 C 546.8453 131.6692 546.8775 131.32 547.2887 130.8068 C 547.8757 130.0741 548.4939 129.3664 549.0958 128.6456 C 549.5221 128.135 549.7435 127.7017 548.7497 127.6967 C 548.0667 127.6934 547.9403 127.4325 548.3881 126.891 C 549.4805 125.5699 550.5604 124.2385 551.6433 122.9096 C 552.0277 122.4379 552.3979 122.3373 552.8306 122.8736 C 553.9327 124.2395 555.0508 125.5926 556.1676 126.9466 C 556.5853 127.453 556.4022 127.6521 555.8202 127.7011 C 555.5095 127.7273 555.1659 127.5973 554.8126 127.9341 C 555.5293 128.849 556.2483 129.7673 556.9696 130.6888 C 557.1378 130.9041 557.4714 131.071 557.3414 131.398 C 557.2083 131.7325 556.8493 131.5941 556.5812 131.6434 C 556.086 131.7344 555.3775 131.3527 555.1364 131.9123 C 554.9338 132.3824 555.5933 132.7075 555.8861 133.0828 C 556.5137 133.8871 557.1648 134.6731 557.8049 135.4677 C 557.9527 135.6512 558.2055 135.8137 558.0729 136.0915 C 557.9453 136.3587 557.6557 136.3088 557.4196 136.3111 C 556.4373 136.3207 555.4519 136.3663 554.4735 136.3048 C 553.4813 136.2424 553.0359 136.572 553.1091 137.6207 C 553.1773 138.5981 553.1125 139.5843 553.122 140.5665 C 553.1278 141.1629 552.894 141.4866 552.2573 141.482 C 551.6483 141.4776 551.1919 141.3043 551.1779 140.6069 C 551.1574 139.5841 551.1237 138.559 551.1695 137.5382 C 551.2093 136.65 550.8927 136.255 549.9705 136.3077 C 549.073 136.359 548.1702 136.3239 547.2698 136.3134 C 546.9932 136.3101 546.6461 136.404 546.4747 136.1275 C 546.2521 135.7681 546.5994 135.5039 546.7799 135.2724 C 547.6562 134.1481 548.5685 133.0519 549.5566 131.8369 Z " fill="#678cb0" stroke-width="1" stroke="none"/><path d="M 581.8809 121.5013 C 582.384 122.5128 583.1713 123.2843 583.8639 124.125 C 584.0891 124.3984 584.5088 124.6366 584.3269 125.0432 C 584.1677 125.3991 583.742 125.2089 583.4329 125.2404 C 583.1895 125.2653 582.9417 125.2426 582.6962 125.2513 C 581.9814 125.2765 581.9652 125.5413 582.3515 126.0793 C 583.2302 127.303 584.3866 128.3144 585.2723 129.9209 C 583.905 129.9209 582.7078 129.9723 581.5172 129.9053 C 580.4965 129.8478 580.1001 130.2258 580.1767 131.2472 C 580.2409 132.1024 580.173 132.9668 580.194 133.8264 C 580.2118 134.5553 580.1383 135.1149 579.1697 135.0984 C 578.2655 135.0829 578.2096 134.5513 578.2188 133.8785 C 578.2323 132.8957 578.1992 131.912 578.2259 130.9298 C 578.246 130.1892 577.917 129.8976 577.1933 129.9165 C 576.2109 129.9422 575.227 129.9356 574.2446 129.9117 C 573.9423 129.9044 573.5087 130.0917 573.3675 129.7109 C 573.25 129.3942 573.5776 129.118 573.774 128.8687 C 574.4818 127.9699 575.2092 127.0866 575.9245 126.1936 C 576.0946 125.9813 576.429 125.8124 576.2878 125.483 C 576.1474 125.1555 575.7907 125.2947 575.5223 125.2442 C 575.0283 125.1512 574.3171 125.541 574.0819 124.9682 C 573.8907 124.5023 574.5946 124.2048 574.8318 123.7907 C 575.2978 122.9771 576.1801 122.47 576.4991 121.5583 C 576.4289 121.4719 576.3926 121.3862 576.3302 121.3575 C 575.974 121.1938 575.4034 121.5186 575.2349 121.0415 C 575.0914 120.6352 575.5134 120.3019 575.7597 119.9958 C 576.6818 118.8499 577.6689 117.7549 578.5608 116.5868 C 579.0296 115.9728 579.2991 115.8439 579.8238 116.5434 C 580.7053 117.7188 581.699 118.8093 582.6195 119.9564 C 582.8686 120.2668 583.235 120.6926 583.1773 120.9946 C 583.0676 121.568 582.3806 121.1375 581.8809 121.5013 Z " fill="#678cb0" stroke-width="1" stroke="none"/><path d="M 571.9167 117.8679 C 570.7826 117.8679 569.8435 117.8882 568.9057 117.8614 C 568.1743 117.8406 567.8566 118.1504 567.8793 118.8842 C 567.9047 119.7034 567.8745 120.5243 567.8815 121.3443 C 567.8864 121.9208 567.7015 122.2854 567.0427 122.2889 C 566.4084 122.2922 566.1587 121.9881 566.1664 121.3839 C 566.1763 120.6049 566.1238 119.823 566.1742 119.0473 C 566.2347 118.1163 565.8207 117.8007 564.9366 117.8559 C 564.2016 117.9017 563.4607 117.8736 562.723 117.8533 C 562.1277 117.8369 561.9758 117.5972 562.3821 117.0982 C 562.9504 116.4005 563.5163 115.7001 564.0551 114.9798 C 564.2382 114.735 564.6413 114.5299 564.4706 114.1608 C 564.3025 113.7974 563.8905 113.9713 563.5812 113.9292 C 563.3087 113.8921 563.0065 114.0106 562.7295 113.735 C 562.9588 112.8394 563.8161 112.3501 564.2317 111.5683 C 564.3665 111.3147 564.8422 110.9368 564.3033 110.8129 C 563.0434 110.5234 563.7979 109.9567 564.0966 109.5548 C 564.8033 108.6038 565.5907 107.7131 566.3334 106.7883 C 566.6984 106.3338 567.0748 106.2914 567.4521 106.7361 C 568.3516 107.7963 569.2504 108.858 570.1171 109.9449 C 570.4373 110.3465 570.2511 110.6316 569.7638 110.7167 C 569.0508 110.8412 569.2413 111.1657 569.5663 111.5437 C 569.9928 112.0399 570.4057 112.5478 570.8245 113.0506 C 570.9776 113.2343 571.2245 113.3971 571.1339 113.671 C 571.0364 113.9656 570.7363 113.8911 570.5022 113.9255 C 570.1116 113.983 569.5549 113.7365 569.3662 114.1422 C 569.1298 114.6504 569.7833 114.8473 570.0141 115.2026 C 570.5652 116.0509 571.367 116.7206 571.9167 117.8679 Z " fill="#678cb0" stroke-width="1" stroke="none"/><path d="M 267.6774 176.4271 L 695.8451 176.4271 L 695.8451 210.2259 C 695.2336 210.1707 694.8734 210.5758 694.4947 210.9556 C 693.0468 212.4075 691.5484 213.8128 690.1643 215.323 C 689.4026 216.1541 688.9258 216.0599 688.2068 215.2874 C 686.7828 213.7575 685.245 212.3341 683.7961 210.8263 C 683.2333 210.2407 682.8383 210.2644 682.2862 210.8366 C 680.7769 212.4002 679.1994 213.898 677.6956 215.4666 C 677.1088 216.0787 676.7 216.1163 676.0974 215.4818 C 674.7141 214.0252 673.2681 212.6281 671.846 211.2084 C 670.6244 209.9889 670.6221 209.9885 669.4411 211.1667 C 668.0186 212.586 666.5677 213.9788 665.1914 215.4417 C 664.5489 216.1246 664.1253 216.0782 663.5027 215.4229 C 662.0344 213.8774 660.4771 212.4165 659.0023 210.8769 C 658.4145 210.2631 658.0026 210.2335 657.4011 210.864 C 655.958 212.3771 654.4214 213.8014 652.9903 215.3252 C 652.3093 216.0503 651.8468 216.1414 651.1242 215.3623 C 649.7309 213.8598 648.1968 212.4878 646.8078 210.9818 C 646.013 210.1201 645.4717 210.212 644.718 211.0162 C 643.2885 212.5414 641.7532 213.967 640.3063 215.4765 C 639.7752 216.0305 639.4307 215.9965 638.9155 215.4622 C 637.4072 213.8976 635.832 212.3977 634.3239 210.8331 C 633.6991 210.1849 633.226 210.1705 632.5945 210.8278 C 631.1175 212.3655 629.5584 213.8246 628.094 215.3736 C 627.441 216.0642 626.9983 216.1293 626.3171 215.399 C 624.9472 213.9306 623.4352 212.5929 622.0898 211.1038 C 621.2602 210.1856 620.7321 210.2959 619.9507 211.1456 C 618.564 212.6536 617.048 214.0419 615.6286 215.5211 C 615.0668 216.1066 614.6739 216.0853 614.1206 215.5115 C 612.6122 213.9471 611.0324 212.4514 609.5301 210.8814 C 608.8733 210.195 608.3856 210.1544 607.7113 210.863 C 606.2702 212.3779 604.735 213.8035 603.2999 215.3237 C 602.6861 215.9738 602.2924 216.0612 601.6399 215.3556 C 600.3324 213.9414 598.9311 212.614 597.5673 211.2519 C 596.3012 209.9873 596.2996 209.987 595.0742 211.2104 C 593.6521 212.6301 592.2058 214.0271 590.823 215.4841 C 590.2178 216.1216 589.8099 216.0732 589.2256 215.4639 C 587.7216 213.8955 586.1421 212.3995 584.6353 210.8337 C 584.009 210.1829 583.536 210.1723 582.9059 210.8272 C 581.4278 212.3638 579.8743 213.8281 578.4037 215.3715 C 577.8241 215.9799 577.4427 216.045 576.8336 215.3979 C 575.4569 213.9354 573.9589 212.5859 572.602 211.1063 C 571.78 210.2098 571.1994 210.1127 570.3343 211.0679 C 568.9871 212.5555 567.4718 213.8901 566.1072 215.3633 C 565.3882 216.1395 564.9234 216.0591 564.2399 215.3313 C 562.8089 213.8074 561.273 212.3824 559.8288 210.8704 C 559.2342 210.2478 558.8221 210.2481 558.2276 210.8705 C 556.7834 212.3826 555.2474 213.8076 553.8165 215.3315 C 553.1328 216.0596 552.6686 216.1382 551.9491 215.3632 C 550.555 213.8614 549.0223 212.4883 547.6322 210.9831 C 546.8401 210.1254 546.2992 210.2049 545.5433 211.0144 C 544.1448 212.5123 542.6287 213.9001 541.2219 215.3907 C 540.6173 216.0313 540.2373 215.9868 539.6528 215.3723 C 538.1836 213.8276 536.6292 212.3641 535.151 210.8277 C 534.5213 210.1731 534.0483 210.1821 533.4217 210.8333 C 531.9149 212.3992 530.3353 213.8951 528.8313 215.4635 C 528.2474 216.0723 527.8395 216.1225 527.2339 215.4844 C 525.8511 214.0274 524.4048 212.6306 522.9827 211.2108 C 521.7569 209.987 521.7554 209.9873 520.4896 211.2515 C 519.1259 212.6136 517.7246 213.9411 516.417 215.3551 C 515.765 216.06 515.3714 215.9749 514.7571 215.324 C 513.3221 213.8037 511.7868 212.3782 510.3456 210.8635 C 509.6717 210.1552 509.184 210.1941 508.5268 210.881 C 507.0246 212.4511 505.4448 213.9468 503.9364 215.5111 C 503.3835 216.0844 502.9904 216.1079 502.4283 215.5215 C 501.0383 214.071 499.597 212.6696 498.1753 211.2495 C 497.0189 210.0943 497.0174 210.094 495.9007 211.2091 C 494.4788 212.629 493.033 214.0263 491.6494 215.4826 C 491.047 216.1167 490.6384 216.0788 490.0515 215.4664 C 488.5481 213.8974 486.9679 212.4021 485.4615 210.8358 C 484.8342 210.1837 484.3629 210.1773 483.7336 210.8317 C 482.2558 212.3686 480.7013 213.8319 479.2319 215.3765 C 478.6466 215.9917 478.2655 216.0329 477.6616 215.3932 C 476.2546 213.9028 474.7401 212.5136 473.3397 211.0174 C 472.5879 210.2142 472.0468 210.118 471.2499 210.9805 C 469.8316 212.5154 468.2781 213.9249 466.8439 215.4459 C 466.1956 216.1334 465.7741 216.0684 465.156 215.4183 C 463.6871 213.8733 462.129 212.4133 460.656 210.872 C 460.0593 210.2475 459.6489 210.2548 459.0558 210.8749 C 457.5821 212.4155 456.0244 213.8759 454.5557 215.4211 C 453.9351 216.0739 453.512 216.1284 452.8669 215.4437 C 451.4615 213.9519 449.9273 212.5796 448.5501 211.0636 C 447.6839 210.1101 447.1046 210.2077 446.2817 211.1033 C 444.8955 212.6118 443.374 213.995 441.9609 215.48 C 441.3601 216.1114 440.9513 216.0837 440.3627 215.4686 C 438.8887 213.9283 437.3313 212.4676 435.8624 210.9226 C 435.2403 210.2681 434.8128 210.2198 434.1707 210.9025 C 432.8229 212.3359 431.4006 213.6992 430.0081 215.0905 C 428.8531 216.2445 428.8518 216.2449 427.7383 215.133 C 426.3454 213.742 424.9163 212.3846 423.577 210.9438 C 422.8262 210.136 422.3017 210.2 421.5771 210.9698 C 420.1443 212.492 418.6082 213.9168 417.1661 215.4308 C 416.6023 216.0226 416.2411 216.0055 415.6852 215.4238 C 414.2122 213.8826 412.6572 212.4197 411.1838 210.8788 C 410.5255 210.1902 410.0363 210.1597 409.3642 210.8662 C 407.9231 212.3811 406.3841 213.8033 404.9534 215.3274 C 404.2702 216.0553 403.8074 216.1364 403.0872 215.3603 C 401.6935 213.8583 400.1646 212.4817 398.77 210.9805 C 398.0493 210.2047 397.5823 210.2882 396.8996 211.0145 C 395.4679 212.5378 393.9319 213.9628 392.4885 215.4755 C 391.8927 216.1 391.4842 216.0946 390.8903 215.4732 C 389.4172 213.932 387.8577 212.4732 386.3899 210.9273 C 385.7007 210.2015 385.1963 210.1429 384.481 210.9016 C 383.0468 212.4226 381.4966 213.8348 380.0739 215.3659 C 379.3506 216.1443 378.8877 216.0541 378.2068 215.3295 C 376.7752 213.8062 375.239 212.3815 373.7957 210.8686 C 373.1959 210.2397 372.7855 210.2628 372.1955 210.8785 C 370.6921 212.4474 369.114 213.9448 367.6053 215.5089 C 367.0549 216.0795 366.663 216.1127 366.0981 215.5235 C 364.6794 214.0437 363.2095 212.6128 361.758 211.1646 C 360.5813 209.9906 360.5778 209.9899 359.4394 211.1246 C 358.0451 212.5141 356.6125 213.8687 355.2805 215.3157 C 354.5941 216.0615 354.1752 215.9687 353.5309 215.2847 C 352.0975 213.763 350.5666 212.3335 349.1174 210.826 C 348.4865 210.1696 348.0167 210.1859 347.3906 210.8384 C 345.886 212.4063 344.3047 213.9007 342.8021 215.4704 C 342.2111 216.0879 341.8024 216.1069 341.2039 215.4784 C 339.7903 213.9939 338.2759 212.6044 336.8816 211.1029 C 336.1366 210.3006 335.6318 210.1813 334.8316 211.0616 C 333.454 212.5772 331.9213 213.9508 330.5154 215.4422 C 329.8724 216.1243 329.4495 216.0787 328.8265 215.4228 C 327.3585 213.8771 325.7986 212.4187 324.3264 210.8767 C 323.6652 210.1841 323.1775 210.1653 322.5076 210.868 C 321.0366 212.411 319.4811 213.8734 318.0064 215.4131 C 317.4596 215.984 317.0997 216.0378 316.5268 215.4349 C 315.0866 213.9192 313.5497 212.4952 312.1161 210.9736 C 311.3954 210.2087 310.873 210.1299 310.1162 210.9401 C 308.6894 212.4676 307.1378 213.8786 305.7096 215.4049 C 305.0241 216.1375 304.5822 216.0609 303.9324 215.3745 C 302.467 213.8264 300.9086 212.3666 299.4315 210.8291 C 298.8011 210.1729 298.328 210.1827 297.7022 210.8322 C 296.1942 212.397 294.6183 213.8963 293.1108 215.4615 C 292.5926 215.9996 292.2497 216.0212 291.7213 215.4708 C 290.2447 213.9329 288.6878 212.4717 287.2204 210.9254 C 286.5291 210.197 286.0242 210.1469 285.3115 210.9037 C 283.9064 212.3958 282.3714 213.7674 280.9951 215.284 C 280.1937 216.1671 279.691 216.0428 278.9483 215.2415 C 277.5833 213.7688 276.0886 212.4165 274.7158 210.9507 C 274.0443 210.2338 273.6049 210.2672 272.9336 210.9582 C 271.2213 212.721 269.4345 214.4118 267.6774 216.1314 Z " fill="#82c45a" stroke-width="1" stroke="none"/></g></g></svg>