<svg xmlns="http://www.w3.org/2000/svg" xmlns:xlink="http://www.w3.org/1999/xlink" version="1.1" width="17.125" height="17.125" viewBox="0,0,17.125,17.125"><defs><linearGradient x1="231.4375" y1="180" x2="248.5625" y2="180" gradientUnits="userSpaceOnUse" id="color-1"><stop offset="0" stop-color="#9966ff" stop-opacity="0"/><stop offset="1" stop-color="#9966ff" stop-opacity="0"/></linearGradient></defs><g><g data-paper-data="{&quot;isPaintingLayer&quot;:true}" fill-rule="nonzero" stroke-linecap="butt" stroke-linejoin="miter" stroke-miterlimit="10" stroke-dasharray="" stroke-dashoffset="0" style="mix-blend-mode: normal"><path d="M 14.3751 11.5255 C 14.3751 14.658 12.0502 17.0807 8.6483 17.0807 C 5.2958 17.0807 2.7505 14.5111 2.7505 10.6934 C 2.7033 6.2079 5.358 2.1341 9.4804 0.3658 C 9.918 0.1633 10.3932 0.0549 10.8753 0.0477 C 11.3185 0.0184 11.7528 0.1817 12.0669 0.4958 C 12.381 0.8099 12.5443 1.2442 12.515 1.6874 C 12.515 2.6417 11.8298 3.0823 11.0467 3.4738 C 9.4618 4.1995 8.1622 5.4303 7.3514 6.9734 C 7.9622 6.706 8.6181 6.5565 9.2846 6.5329 C 12.246 6.5329 14.3751 8.7111 14.3751 11.5255 Z M 10.5329 11.6722 C 10.5329 10.4486 9.7498 9.641 8.5749 9.641 C 7.8192 9.6696 7.0915 9.935 6.4948 10.3996 L 6.4948 10.9136 C 6.4948 12.5533 7.1555 13.7035 8.6483 13.7035 C 9.7742 13.7035 10.5329 12.8469 10.5329 11.6722 Z " fill="#fcfcfc" stroke-width="1" stroke="none"/><path d="M231.4375,188.5625v-17.125h17.125v17.125z" fill="url(#color-1)" stroke-width="0" stroke="none" transform="matrix(1,0,0,1,-231.4375,-171.4375)"/></g></g></svg>