<svg xmlns="http://www.w3.org/2000/svg" xmlns:xlink="http://www.w3.org/1999/xlink" version="1.1" width="33.30719" height="37.73032" viewBox="0,0,33.30719,37.73032"><g><g data-paper-data="{&quot;isPaintingLayer&quot;:true}" fill-rule="nonzero" stroke-linecap="butt" stroke-linejoin="miter" stroke-miterlimit="10" stroke-dasharray="" stroke-dashoffset="0" style="mix-blend-mode: normal"><path d="M 33.3072 30.6506 L 31.3259 36.7202 L 1.8081 36.7487 L 0 30.6475 L 16.5714 21.1346 Z " fill="#b85a22" stroke-width="1" stroke="none"/><path d="M232.20504,186.5504c0,-4.41358 3.57791,-7.99149 7.99149,-7.99149c4.41358,0 7.99149,3.57791 7.99149,7.99149c0,4.41358 -3.57791,7.99149 -7.99149,7.99149c-4.41358,0 -7.99149,-3.57791 -7.99149,-7.99149z" fill="#6f310d" stroke-width="0" stroke="none" transform="matrix(1,0,0,1,-223.34643,-161.13484)"/><path d="M 18.5414 32.738 C 18.5408 33.5949 17.8457 34.2891 16.9888 34.2886 L 16.9888 31.1854 C 17.8461 31.1858 18.541 31.8807 18.5414 32.738 Z " fill="#d9a829" stroke-width="1" stroke="none"/><path d="M 1.8489 37.7303 L 1.8489 36.4136 L 31.2939 36.4136 L 31.2939 37.7303 Z " fill="#9d4613" stroke-width="1" stroke="none"/><path d="M 23.1437 1.9446 L 25.157 22.0391 L 16.989 22.0391 L 16.989 1.9446 Z " fill="#484848" stroke-width="1" stroke="none"/><path d="M 10.2841 1.9446 L 17.0092 1.9446 L 17.0092 22.0391 L 7.8423 22.0391 Z " fill="#665c5c" stroke-width="1" stroke="none"/><path d="M 7.3988 21.835 L 16.7695 22.0391 L 16.7695 23.5635 L 7.3988 23.3595 Z " fill="#7b7979" stroke-width="1" stroke="none"/><path d="M 16.7696 23.5635 L 16.7696 22.0391 L 26.4011 22.0391 L 26.4011 23.5635 Z " fill="#726c6a" stroke-width="1" stroke="none"/><path d="M 7.6375 23.3595 L 17.0082 23.5635 L 16.989 24.2372 L 7.6191 24.0063 Z " fill="#3c3b3b" stroke-width="1" stroke="none"/><path d="M 9.9577 1.3539 L 16.7787 1.3539 L 16.7648 2.0276 L 9.9444 2.0005 Z " fill="#3c3b3b" stroke-width="1" stroke="none"/><path d="M 16.7787 1.3539 L 23.4499 1.3029 L 23.4499 1.9766 L 16.7648 2.0276 Z " fill="#302c2a" stroke-width="1" stroke="none"/><path d="M 16.9888 31.1854 L 16.9888 34.2886 C 16.1318 34.2886 15.4371 33.5939 15.4371 32.737 C 15.4371 31.88 16.1318 31.1854 16.9888 31.1854 Z " fill="#fe9b01" stroke-width="1" stroke="none"/><path d="M 7.8434 24.0118 L 16.989 24.2372 L 17.0082 32.7369 L 12.1187 32.1826 Z " fill="#665c5c" stroke-width="1" stroke="none"/><path d="M 21.855 32.1826 L 16.9655 32.737 L 16.9847 24.2372 L 26.1304 24.0118 Z " fill="#484848" stroke-width="1" stroke="none"/><path d="M 9.7456 1.3858 L 9.7456 0 L 16.3284 0 L 16.3284 1.3858 Z " fill="#7b7979" stroke-width="1" stroke="none"/><path d="M 23.6078 0 L 23.6039 1.3857 L 16.3284 1.3857 L 16.3284 0 Z " fill="#726c6a" stroke-width="1" stroke="none"/><path d="M 17.0082 23.5635 L 26.173 23.5125 L 26.173 24.1862 L 16.989 24.2372 Z " fill="#302c2a" stroke-width="1" stroke="none"/></g></g></svg>