<svg xmlns="http://www.w3.org/2000/svg" xmlns:xlink="http://www.w3.org/1999/xlink" version="1.1" width="17.125" height="17.125" viewBox="0,0,17.125,17.125"><defs><linearGradient x1="231.4375" y1="180" x2="248.5625" y2="180" gradientUnits="userSpaceOnUse" id="color-1"><stop offset="0" stop-color="#9966ff" stop-opacity="0"/><stop offset="1" stop-color="#9966ff" stop-opacity="0"/></linearGradient></defs><g><g data-paper-data="{&quot;isPaintingLayer&quot;:true}" fill-rule="nonzero" stroke-linecap="butt" stroke-linejoin="miter" stroke-miterlimit="10" stroke-dasharray="" stroke-dashoffset="0" style="mix-blend-mode: normal"><path d="M 14.9621 11.4259 C 14.9624 11.8391 14.7966 12.2352 14.5021 12.5251 C 14.2076 12.815 13.809 12.9745 13.3958 12.9676 L 12.6127 12.9676 L 12.6127 15.4395 C 12.5992 16.3624 11.8472 17.1035 10.9242 17.1035 C 10.0011 17.1035 9.2491 16.3624 9.2357 15.4395 L 9.2357 12.9676 L 3.9003 12.9676 C 3.4478 12.9823 3.0085 12.814 2.6817 12.5009 C 2.3548 12.1877 2.1678 11.7561 2.1629 11.3034 C 2.1765 10.7227 2.3831 10.163 2.7502 9.7127 L 8.7215 1.0982 C 9.1033 0.4315 9.8132 0.0205 10.5815 0.0215 C 11.1207 0.0201 11.6381 0.2337 12.0193 0.615 C 12.4005 0.9962 12.614 1.5136 12.6126 2.0528 L 12.6126 9.8596 L 13.3958 9.8596 C 13.8116 9.8583 14.2107 10.0229 14.5047 10.3169 C 14.7987 10.6109 14.9633 11.0101 14.962 11.4259 Z M 9.2356 9.8596 L 9.2356 5.1853 L 6.0297 9.8841 Z " fill="#ff6300" stroke-width="1" stroke="none"/><path d="M231.4375,188.5625v-17.125h17.125v17.125z" fill="url(#color-1)" stroke-width="0" stroke="none" transform="matrix(1,0,0,1,-231.4375,-171.4375)"/></g></g></svg>