<svg xmlns="http://www.w3.org/2000/svg" xmlns:xlink="http://www.w3.org/1999/xlink" version="1.1" width="46.85488" height="29.88322" viewBox="0,0,46.85488,29.88322"><g><g data-paper-data="{&quot;isPaintingLayer&quot;:true}" fill-rule="nonzero" stroke-linecap="butt" stroke-linejoin="miter" stroke-miterlimit="10" stroke-dasharray="" stroke-dashoffset="0" style="mix-blend-mode: normal"><path d="M 46.5827 25.0828 C 46.5769 25.1994 46.5652 25.3156 46.5473 25.4307 C 45.9898 26.482 45.4076 27.3904 44.1094 27.3886 C 27.1053 27.3739 19.6924 27.3708 2.6883 27.3792 C 1.9198 27.3805 1.2007 26.9539 0.7681 26.2402 C 0.5935 25.9869 0.4393 25.7159 0.2758 25.453 C 0.2668 19.1883 0.2582 12.9235 0.25 6.6588 C 0.2484 5.4292 0.2443 4.1996 0.2512 2.97 C 0.2828 1.4745 1.3597 0.2738 2.691 0.25 C 19.7145 0.2473 27.147 0.2472 44.1706 0.2497 C 45.4535 0.2085 46.5278 1.3333 46.5816 2.774 C 46.5846 10.2103 46.5849 17.6466 46.5827 25.0828 Z " fill="#92796b" stroke="#92796b" stroke-width="0.5"/><path d="M 0.3333 26.1087 C 0.4968 26.3427 0.651 26.5839 0.8257 26.8093 C 1.2582 27.4445 1.9773 27.8242 2.7458 27.8231 C 19.7499 27.8156 27.1629 27.8184 44.1669 27.8314 C 45.4652 27.8331 46.0473 27.0246 46.6049 26.0888 C 46.9407 27.8242 46.5204 28.7108 45.043 29.488 C 44.8105 29.6003 44.5529 29.6506 44.2953 29.634 C 27.2466 29.6354 19.789 29.6352 2.7403 29.6332 C 1.4198 29.579 0.3612 28.5217 0.3055 27.2012 C 0.3029 26.8371 0.3234 26.4729 0.3333 26.1087 Z " fill="#725f54" stroke="#725f54" stroke-width="0.5"/><g><path d="M 18.0946 10.6682 L 18.0946 19.3653 C 18.1004 19.8172 17.8627 20.2374 17.4722 20.4651 C 17.0818 20.6928 16.599 20.6928 16.2085 20.4651 C 15.8181 20.2374 15.5803 19.8172 15.5862 19.3653 L 15.5862 13.8695 L 13.7047 16.7245 C 13.4438 17.2058 12.9481 17.5134 12.401 17.5333 C 11.8632 17.5105 11.3785 17.2021 11.1301 16.7245 L 9.2655 13.9522 L 9.2655 19.3652 C 9.2774 19.7029 9.1497 20.0306 8.9123 20.271 C 8.6749 20.5115 8.3489 20.6434 8.0111 20.6358 C 7.675 20.6427 7.351 20.51 7.1164 20.2692 C 6.8818 20.0284 6.7576 19.7011 6.7733 19.3653 L 6.7733 10.6682 C 6.7556 10.2981 6.8903 9.9369 7.146 9.6687 C 7.4017 9.4005 7.756 9.2488 8.1265 9.2487 C 8.8034 9.2487 9.1828 9.5127 9.5956 10.1564 L 12.4834 14.6949 L 15.3222 10.1564 C 15.7182 9.5293 16.1307 9.2487 16.6917 9.2487 C 17.0673 9.2466 17.4279 9.396 17.6919 9.6631 C 17.956 9.9303 18.1011 10.2926 18.0945 10.6682 Z " stroke-width="1" fill="#fcfcfc" stroke="none"/><path d="M 29.9253 19.4476 C 29.9299 20.0251 29.5157 20.5209 28.9467 20.6192 C 28.3776 20.7176 27.8211 20.3894 27.6317 19.8439 L 27.0703 18.4079 L 22.3341 18.4079 L 21.7727 19.8605 C 21.6 20.3226 21.1606 20.6308 20.6672 20.6358 C 20.3542 20.6432 20.0518 20.5222 19.8304 20.3008 C 19.609 20.0795 19.4879 19.7771 19.4952 19.4641 C 19.5006 19.2365 19.551 19.0122 19.6437 18.8042 L 23.0601 10.4865 C 23.3019 9.7515 23.9863 9.2531 24.7601 9.2487 C 25.5247 9.2581 26.1969 9.7573 26.4269 10.4866 L 29.7768 18.8204 C 29.8641 19.0187 29.9145 19.2312 29.9253 19.4476 Z M 26.2453 16.3286 L 24.727 12.4504 L 24.6608 12.4504 L 23.1425 16.3286 Z " stroke-width="1" fill="#fcfcfc" stroke="none"/><path d="M 39.8756 18.6061 C 40.0667 18.8398 40.1768 19.1294 40.1892 19.431 C 40.1757 20.1036 39.6241 20.6404 38.9514 20.6358 C 38.5722 20.6308 38.2174 20.4475 37.9941 20.141 L 35.4692 16.708 L 32.8946 20.2068 C 32.67 20.4858 32.3284 20.6444 31.9704 20.6358 C 31.6574 20.638 31.3564 20.5158 31.1336 20.2961 C 30.9107 20.0764 30.7843 19.7771 30.7822 19.4641 C 30.7886 19.174 30.8933 18.8947 31.0792 18.6719 L 33.9012 14.9092 L 31.0958 11.2784 C 30.9089 11.0435 30.8045 10.7536 30.7987 10.4535 C 30.8101 9.7864 31.3529 9.251 32.02 9.2487 C 32.424 9.2399 32.8041 9.4393 33.0266 9.7766 L 35.5353 13.1269 L 37.9609 9.8263 C 38.182 9.4644 38.5769 9.2451 39.001 9.2487 C 39.3121 9.2429 39.6128 9.3616 39.8359 9.5785 C 40.0591 9.7955 40.1863 10.0926 40.1892 10.4038 C 40.1724 10.7285 40.0441 11.0374 39.8259 11.2784 L 37.1029 14.893 Z " stroke-width="1" fill="#fcfcfc" stroke="none"/></g></g></g></svg>