<svg xmlns="http://www.w3.org/2000/svg" xmlns:xlink="http://www.w3.org/1999/xlink" version="1.1" width="180.55656" height="41.36177" viewBox="0,0,180.55656,41.36177"><g><g data-paper-data="{&quot;isPaintingLayer&quot;:true}" fill-rule="nonzero" stroke-linecap="butt" stroke-linejoin="miter" stroke-miterlimit="10" stroke-dasharray="" stroke-dashoffset="0" style="mix-blend-mode: normal"><g><path d="M 2.0576 28.5889 C 0.8359 27.9737 0.047 26.7411 0 25.374 C -0.0023 24.5968 0.3113 23.8521 0.8689 23.3107 C 1.4265 22.7693 2.1802 22.4777 2.957 22.5029 C 3.8813 22.5638 4.7644 22.9079 5.4863 23.4883 C 6.9409 24.5159 8.6771 25.0698 10.458 25.0743 C 12.7725 25.0743 14.2725 23.917 14.2725 22.3311 C 14.2725 20.3165 11.7012 19.7168 9.001 18.6875 C 3.9434 16.7588 1.0713 14.4444 1.0713 9.7725 C 1.0713 4.672 4.6719 0.9854 11.0586 0.9854 C 13.2576 0.8605 15.4528 1.2879 17.4443 2.2286 C 18.7141 2.7111 19.5966 3.8766 19.7168 5.2296 C 19.763 5.9573 19.5177 6.6735 19.0352 7.2202 C 18.5526 7.7669 17.8724 8.0992 17.1445 8.1437 C 16.373 8.1021 15.6165 7.9131 14.916 7.587 C 13.7049 7.0839 12.4116 6.8078 11.1006 6.7726 C 8.8291 6.7726 7.544 7.8868 7.544 9.3009 C 7.544 11.4015 10.0293 12.087 13.0303 13.2013 C 16.9737 14.6593 20.7022 16.673 20.7022 21.9454 C 20.7022 27.7745 16.1162 30.9039 10.2012 30.9039 C 7.3268 30.8858 4.5117 30.0855 2.0576 28.5889 Z " stroke-width="1" fill="#dd2c2c" stroke="none"/><path d="M 44.959 20.874 C 44.959 25.9746 41.5303 30.9898 35.8721 30.9898 C 34.0312 31.0904 32.2407 30.3678 30.9854 29.0176 L 30.9854 38.148 C 31.0006 39.291 30.3994 40.3538 29.412 40.9298 C 28.4245 41.5058 27.2035 41.5058 26.216 40.9298 C 25.2285 40.3538 24.6274 39.291 24.6426 38.148 L 24.6426 14.1016 C 24.6008 12.4618 25.8629 11.0825 27.4999 10.9787 C 29.1368 10.875 30.5629 12.084 30.7285 13.7158 C 31.9106 11.8563 33.9686 10.7384 36.1719 10.7588 C 41.4014 10.7588 44.959 15.3447 44.959 20.874 Z M 38.5293 20.874 C 38.5293 18.3018 36.8154 16.2871 34.501 16.2871 C 32.9801 16.3525 31.6232 17.2623 30.9854 18.6445 L 30.9854 23.2744 C 31.6376 24.6 32.9807 25.4454 34.458 25.46 C 36.8154 25.46 38.5293 23.4023 38.5293 20.874 Z " stroke-width="1" fill="#dd2c2c" stroke="none"/><path d="M 48.8135 27.5606 L 48.8135 3.2149 C 48.801 1.4676 50.1954 0.0349 51.9424 0 C 53.7126 0.0128 55.1444 1.4447 55.1572 3.2149 L 55.1572 27.5606 C 55.1726 28.7039 54.5714 29.767 53.5837 30.3431 C 52.596 30.9193 51.3747 30.9193 50.387 30.3431 C 49.3993 29.767 48.7982 28.7039 48.8135 27.5606 Z " stroke-width="1" fill="#dd2c2c" stroke="none"/><path d="M 59.7832 4.5859 C 59.7659 3.2299 60.5694 1.9977 61.8173 1.4666 C 63.0652 0.9356 64.5102 1.211 65.4754 2.1637 C 66.4405 3.1165 66.7346 4.5578 66.2197 5.8125 C 65.7049 7.0671 64.4832 7.8865 63.127 7.8867 C 62.2428 7.9026 61.3896 7.5614 60.7603 6.9401 C 60.131 6.3189 59.7788 5.4702 59.7832 4.5859 Z M 59.9551 27.5606 L 59.9551 14.1446 C 59.9582 12.395 61.3774 10.9783 63.127 10.9783 C 64.8765 10.9783 66.2957 12.395 66.2988 14.1446 L 66.2988 27.5606 C 66.3142 28.7039 65.713 29.767 64.7253 30.3431 C 63.7376 30.9193 62.5163 30.9193 61.5286 30.3431 C 60.5409 29.767 59.9398 28.7039 59.9551 27.5606 Z " stroke-width="1" fill="#dd2c2c" stroke="none"/><path d="M 86.5703 27.3457 C 86.5703 28.5459 85.8418 29.2744 84.5557 29.9185 C 83.1007 30.5733 81.5224 30.9093 79.9268 30.9038 C 74.9121 30.9038 72.4688 28.5459 72.4688 24.3457 L 72.4688 16.459 L 71.0118 16.459 C 70.5089 16.4804 70.019 16.296 69.655 15.9483 C 69.2911 15.6006 69.0845 15.1196 69.0831 14.6162 C 69.1033 13.9261 69.4544 13.2879 70.0264 12.9014 L 75.4268 8.3584 C 75.8372 7.9447 76.3877 7.6997 76.9698 7.6719 C 77.9122 7.6719 78.8126 8.3154 78.8126 9.9013 L 78.8126 11.1445 L 83.6563 11.1445 C 85.1209 11.1516 86.3065 12.3371 86.3136 13.8017 C 86.3173 14.5076 86.0386 15.1857 85.5394 15.6848 C 85.0403 16.184 84.3622 16.4627 83.6563 16.459 L 78.8126 16.459 L 78.8126 23.1025 C 78.746 23.6926 78.9487 24.2812 79.3645 24.7051 C 79.7803 25.1291 80.3649 25.3432 80.9561 25.2881 C 81.4638 25.2895 81.9691 25.2174 82.4561 25.0742 C 82.9667 24.8802 83.4995 24.7506 84.0421 24.6884 C 84.7347 24.6902 85.3966 24.975 85.874 25.4768 C 86.3515 25.9786 86.603 26.6538 86.5703 27.3457 Z " stroke-width="1" fill="#dd2c2c" stroke="none"/><path d="M 99.6406 29.6172 C 98.5479 29.2231 97.8024 28.2066 97.7549 27.0459 C 97.7258 26.4158 97.9574 25.8014 98.3953 25.3473 C 98.8331 24.8932 99.4386 24.6394 100.0694 24.6455 C 101.0035 24.7375 101.9159 24.9837 102.7696 25.374 C 103.872 25.7601 105.0302 25.9629 106.1983 25.9746 C 107.9551 25.9746 108.6416 25.5889 108.6416 24.9453 C 108.6416 24.0459 107.1416 23.7451 104.6553 23.0166 C 100.7549 21.8594 98.1406 20.5732 98.1406 16.9736 C 98.1406 13.416 100.8838 10.7587 106.1983 10.7587 C 108.1541 10.7661 110.095 11.0991 111.9414 11.7441 C 113.1036 12.0409 113.9267 13.0743 113.9561 14.2734 C 114.0188 14.9166 113.8086 15.5566 113.3767 16.0374 C 112.9447 16.5181 112.3308 16.7955 111.6846 16.8017 C 110.8952 16.7242 110.118 16.5514 109.3701 16.2871 C 108.3384 15.9903 107.2717 15.832 106.1983 15.8164 C 104.6983 15.8164 104.0127 16.1591 104.0127 16.8017 C 104.0127 17.6162 105.041 17.873 108.2559 18.8164 C 111.6846 19.8017 114.5137 21.0019 114.5137 24.6884 C 114.5137 28.417 111.5987 30.9897 106.2842 30.9897 C 103.9976 31.0061 101.7335 30.5384 99.6406 29.6172 Z " stroke-width="1" fill="#dd2c2c" stroke="none"/><path d="M 136.9697 17.7881 L 136.9697 27.5606 C 136.9851 28.7039 136.3839 29.767 135.3962 30.3431 C 134.4085 30.9193 133.1872 30.9193 132.1995 30.3431 C 131.2118 29.767 130.6107 28.7039 130.626 27.5606 L 130.626 19.2451 C 130.626 17.4873 129.9404 16.1592 128.0117 16.1592 C 126.5409 16.2191 125.2453 17.1446 124.7119 18.5166 L 124.7119 27.5606 C 124.7273 28.7039 124.1261 29.767 123.1384 30.3432 C 122.1507 30.9193 120.9294 30.9193 119.9417 30.3432 C 118.954 29.767 118.3528 28.7039 118.3682 27.5606 L 118.3682 3.2149 C 118.3528 2.0715 118.954 1.0084 119.9417 0.4323 C 120.9294 -0.1439 122.1507 -0.1439 123.1384 0.4323 C 124.1261 1.0084 124.7272 2.0715 124.7119 3.2149 L 124.7119 13.5869 C 126.1004 11.8245 128.2116 10.7849 130.4551 10.7588 C 133.8838 10.7588 136.9697 13.0303 136.9697 17.7881 Z " stroke-width="1" fill="#dd2c2c" stroke="none"/><path d="M 140.6104 20.7881 C 140.6104 14.8301 145.3242 10.7588 151.0684 10.7588 C 156.8545 10.7588 161.5264 14.8301 161.5264 20.7881 C 161.3853 26.4626 156.7447 30.9894 151.0684 30.9894 C 145.3921 30.9894 140.7514 26.4627 140.6104 20.7881 Z M 155.0977 20.7881 C 155.0977 17.7022 153.126 16.1592 151.0684 16.1592 C 149.0108 16.1592 147.0391 17.7022 147.0391 20.7881 C 147.0391 23.917 149.0108 25.5889 151.0684 25.5889 C 153.126 25.5889 155.0977 23.917 155.0977 20.7881 Z " stroke-width="1" fill="#dd2c2c" stroke="none"/><path d="M 180.5537 27.3457 C 180.5537 28.5459 179.8252 29.2744 178.5391 29.9185 C 177.084 30.5733 175.5058 30.9093 173.9102 30.9038 C 168.8955 30.9038 166.4522 28.5459 166.4522 24.3457 L 166.4522 16.459 L 164.9952 16.459 C 164.4923 16.4804 164.0023 16.296 163.6384 15.9483 C 163.2745 15.6006 163.0679 15.1196 163.0665 14.6162 C 163.0867 13.9264 163.4374 13.2883 164.0088 12.9014 L 169.4102 8.3584 C 169.8206 7.9447 170.3711 7.6997 170.9532 7.6719 C 171.8956 7.6719 172.796 8.3154 172.796 9.9013 L 172.796 11.1445 L 177.6397 11.1445 C 179.1043 11.1516 180.2899 12.3372 180.2969 13.8018 C 180.3007 14.5076 180.0219 15.1857 179.5228 15.6848 C 179.0236 16.184 178.3456 16.4627 177.6397 16.459 L 172.7959 16.459 L 172.7959 23.1025 C 172.7294 23.6926 172.9321 24.2812 173.3479 24.7052 C 173.7636 25.1291 174.3483 25.3432 174.9395 25.2881 C 175.4472 25.2895 175.9524 25.2175 176.4395 25.0742 C 176.95 24.8802 177.4828 24.7507 178.0254 24.6885 C 178.7181 24.6902 179.3799 24.975 179.8574 25.4768 C 180.3348 25.9787 180.5864 26.6538 180.5537 27.3457 Z " stroke-width="1" fill="#dd2c2c" stroke="none"/></g></g></g></svg>