<svg xmlns="http://www.w3.org/2000/svg" xmlns:xlink="http://www.w3.org/1999/xlink" version="1.1" width="24.14953" height="33.01549" viewBox="0,0,24.14953,33.01549"><g><g data-paper-data="{&quot;isPaintingLayer&quot;:true}" fill-rule="nonzero" stroke-linejoin="miter" stroke-miterlimit="10" stroke-dasharray="" stroke-dashoffset="0" style="mix-blend-mode: normal"><path d="M 24.1495 22.8237 L 24.1495 30.9143 C 24.1496 31.4716 23.9282 32.0061 23.5342 32.4001 C 23.1401 32.7942 22.6056 33.0155 22.0484 33.0155 L 9.7152 33.0155 C 9.2791 33.0156 8.8607 32.8424 8.5523 32.534 C 8.2439 32.2256 8.0706 31.8072 8.0708 31.371 L 8.0708 29.8063 L 1.7422 23.4777 C 0.8866 22.6212 0.887 21.2334 1.7432 20.3774 C 2.5993 19.5215 3.9871 19.5213 4.8434 20.3771 L 8.0708 23.6044 L 8.0708 11.0675 C 8.0708 9.8567 9.0523 8.8751 10.2631 8.8751 C 11.4739 8.8751 12.4554 9.8567 12.4554 11.0675 L 12.4554 19.8014 C 12.4551 19.9768 12.594 20.1207 12.7693 20.1265 C 12.9445 20.1323 13.0927 19.9979 13.104 19.823 L 13.1482 19.8301 C 13.4412 19.2006 14.1165 18.8419 14.8022 18.9516 C 15.4879 19.0614 16.0175 19.6128 16.0994 20.3024 C 16.1018 20.3209 16.1036 20.3394 16.1048 20.3586 C 16.1017 20.3749 16.1001 20.3915 16.1 20.4082 C 16.1 20.4315 16.1034 20.4546 16.1102 20.4769 C 16.1372 20.5706 16.2171 20.6395 16.3138 20.6523 C 16.4104 20.6652 16.5056 20.6195 16.5561 20.5361 C 16.5736 20.5086 16.585 20.4776 16.5896 20.4452 C 16.5973 20.4249 16.6063 20.4052 16.6153 20.3855 C 16.8676 19.8319 17.42 19.4767 18.0284 19.4768 L 18.3936 19.4768 C 19.2079 19.4767 19.884 20.1054 19.9431 20.9175 L 19.9502 20.9187 C 19.9483 20.9317 19.9473 20.9449 19.9472 20.9581 C 19.9469 21.07 20.0117 21.1718 20.1131 21.219 C 20.2146 21.2661 20.3342 21.2499 20.4195 21.1775 C 20.4707 21.1347 20.5052 21.0752 20.5169 21.0095 C 20.5181 21.0035 20.5193 20.9976 20.5199 20.9916 C 20.804 20.5388 21.301 20.2639 21.8356 20.2641 L 21.9874 20.2641 C 22.7753 20.2639 23.4384 20.854 23.5296 21.6366 C 23.9182 21.907 24.1497 22.3504 24.1495 22.8237 Z " fill="#f7b295" stroke="none" stroke-width="1" stroke-linecap="butt"/><path d="M 16.1102 20.4769 C 16.1034 20.4546 16.1 20.4315 16.1 20.4082 C 16.1001 20.3915 16.1017 20.3749 16.1048 20.3586 C 16.1084 20.3974 16.1101 20.4369 16.1101 20.4769 Z " fill="#212121" stroke="none" stroke-width="1" stroke-linecap="butt"/><path d="M 16.5896 20.4453 C 16.585 20.4776 16.5736 20.5086 16.5561 20.5361 C 16.5657 20.505 16.577 20.4751 16.5896 20.4453 Z " fill="#212121" stroke="none" stroke-width="1" stroke-linecap="butt"/><path d="M 20.5199 20.9916 C 20.5193 20.9976 20.5181 21.0036 20.5169 21.0096 C 20.5052 21.0753 20.4707 21.1347 20.4195 21.1775 C 20.4457 21.1192 20.4756 21.0627 20.5091 21.0083 C 20.5124 21.0025 20.516 20.9969 20.5199 20.9916 Z " fill="#212121" stroke="none" stroke-width="1" stroke-linecap="butt"/><path d="M 12.4662 19.7214 C 12.459 19.7474 12.4553 19.7744 12.4554 19.8015 L 12.4554 19.7196 Z " fill="#212121" stroke="none" stroke-width="1" stroke-linecap="butt"/><path d="M 16.1102 20.4769 C 16.1034 20.4546 16.1 20.4315 16.1 20.4082 C 16.1001 20.3915 16.1017 20.3749 16.1048 20.3586 C 16.1084 20.3974 16.1101 20.4369 16.1101 20.4769 Z " fill="#212121" stroke="none" stroke-width="1" stroke-linecap="butt"/><path d="M 16.1221 20.3066 C 16.1145 20.3232 16.1087 20.3407 16.1048 20.3586 C 16.1036 20.3395 16.1018 20.3209 16.0994 20.3024 Z " fill="#212121" stroke="none" stroke-width="1" stroke-linecap="butt"/><path d="M 16.5896 20.4453 C 16.585 20.4776 16.5736 20.5086 16.5561 20.5361 C 16.5657 20.505 16.577 20.4751 16.5896 20.4453 Z " fill="#212121" stroke="none" stroke-width="1" stroke-linecap="butt"/><path d="M 16.5896 20.4453 C 16.5915 20.433 16.5925 20.4206 16.5926 20.4082 C 16.5926 20.3992 16.592 20.3903 16.5914 20.3813 L 16.6153 20.3855 C 16.6063 20.4052 16.5973 20.4249 16.5896 20.4452 Z " fill="#212121" stroke="none" stroke-width="1" stroke-linecap="butt"/><path d="M 20.5169 21.0095 C 20.5052 21.0752 20.4707 21.1347 20.4195 21.1775 C 20.4457 21.1192 20.4756 21.0627 20.5091 21.0083 Z " fill="#212121" stroke="none" stroke-width="1" stroke-linecap="butt"/><path d="M 16.1102 20.4769 C 16.1034 20.4546 16.1 20.4315 16.1 20.4082 C 16.1001 20.3915 16.1017 20.3749 16.1048 20.3586 C 16.1084 20.3974 16.1101 20.4369 16.1101 20.4769 Z " fill="#212121" stroke="none" stroke-width="1" stroke-linecap="butt"/><path d="M 16.5896 20.4453 C 16.585 20.4776 16.5736 20.5086 16.5561 20.5361 C 16.5657 20.505 16.577 20.4751 16.5896 20.4453 Z " fill="#212121" stroke="none" stroke-width="1" stroke-linecap="butt"/><path d="M 20.5199 20.9916 C 20.5193 20.9976 20.5181 21.0036 20.5169 21.0096 C 20.5052 21.0753 20.4707 21.1347 20.4195 21.1775 C 20.4457 21.1192 20.4756 21.0627 20.5091 21.0083 C 20.5124 21.0025 20.516 20.9969 20.5199 20.9916 Z " fill="#212121" stroke="none" stroke-width="1" stroke-linecap="butt"/><path d="M 4.9024 20.9271 C 4.7531 22.3122 3.6533 23.4031 2.267 23.5411 C 1.6072 23.1214 1.2713 22.3408 1.4202 21.573 C 1.569 20.8053 2.1724 20.2069 2.9413 20.0642 C 3.7102 19.9216 4.4881 20.2639 4.9024 20.9271 Z " fill="#f6d3ce" stroke="none" stroke-width="1" stroke-linecap="butt"/><path d="M 12.2761 11.2289 C 12.2762 11.4147 12.2535 11.5999 12.2085 11.7802 C 11.7614 12.332 11.1086 12.1213 10.3825 12.1213 C 9.6564 12.1213 9.0035 12.332 8.5564 11.7802 C 8.5114 11.5999 8.4887 11.4147 8.4888 11.2289 C 8.4889 10.0822 9.3366 8.7665 10.3825 8.7665 C 11.4283 8.7665 12.2761 10.0822 12.2761 11.2289 Z " fill="#f6d3ce" stroke="none" stroke-width="1" stroke-linecap="butt"/><path d="M 10.0489 5.0689 L 10.0489 1 " fill="none" stroke="#ffffff" stroke-width="2" stroke-linecap="round"/><path d="M 6.5571 6.3176 L 3.68 3.4405 " fill="none" stroke="#ffffff" stroke-width="2" stroke-linecap="round"/><path d="M 16.4648 3.7013 L 13.5876 6.5785 " fill="none" stroke="#ffffff" stroke-width="2" stroke-linecap="round"/><path d="M 1 9.999 L 5.0689 9.999 " fill="none" stroke="#ffffff" stroke-width="2" stroke-linecap="round"/><path d="M 19.1433 10.1478 L 15.0744 10.1478 " fill="none" stroke="#ffffff" stroke-width="2" stroke-linecap="round"/></g></g></svg>