<svg xmlns="http://www.w3.org/2000/svg" xmlns:xlink="http://www.w3.org/1999/xlink" version="1.1" width="97.79702" height="12.4289" viewBox="0,0,97.79702,12.4289"><g><g data-paper-data="{&quot;isPaintingLayer&quot;:true}" fill-rule="nonzero" stroke-linecap="butt" stroke-linejoin="miter" stroke-miterlimit="10" stroke-dasharray="" stroke-dashoffset="0" style="mix-blend-mode: normal"><path d="M 0.6331 8.4991 C 0.2572 8.3099 0.0144 7.9307 0 7.51 C -0.0007 7.2709 0.0958 7.0418 0.2673 6.8752 C 0.4389 6.7087 0.6708 6.619 0.9098 6.6267 C 1.1941 6.6455 1.4658 6.7513 1.6879 6.9299 C 2.1354 7.246 2.6696 7.4164 3.2175 7.4178 C 3.9296 7.4178 4.3911 7.0618 4.3911 6.5738 C 4.3911 5.954 3.6 5.7695 2.7693 5.4529 C 1.2132 4.8595 0.3296 4.1474 0.3296 2.71 C 0.3296 1.1407 1.4374 0.0065 3.4023 0.0065 C 4.0789 -0.0319 4.7543 0.0996 5.367 0.389 C 5.7576 0.5375 6.0292 0.896 6.0661 1.3123 C 6.0803 1.5362 6.0049 1.7566 5.8564 1.9248 C 5.708 2.093 5.4986 2.1952 5.2747 2.2089 C 5.0374 2.1961 4.8046 2.138 4.5891 2.0376 C 4.2165 1.8828 3.8186 1.7979 3.4152 1.7871 C 2.7164 1.7871 2.321 2.1299 2.321 2.5649 C 2.321 3.2112 3.0857 3.4221 4.009 3.765 C 5.2222 4.2135 6.3693 4.8331 6.3693 6.4552 C 6.3693 8.2486 4.9584 9.2113 3.1385 9.2113 C 2.2542 9.2057 1.3881 8.9595 0.633 8.4992 Z " stroke-width="1" fill="#343434" stroke="none"/><path d="M 16.4697 4.0155 C 16.4671 4.1779 16.4359 4.3386 16.3774 4.4902 L 14.7817 8.3937 C 14.5576 8.9342 14.2148 9.1716 13.7533 9.1716 C 13.2521 9.1716 12.9357 8.9474 12.6852 8.3673 C 12.4742 7.8793 12.0125 6.719 11.6564 5.7957 C 11.3268 6.719 10.8918 7.8793 10.7202 8.3673 C 10.601 8.8441 10.1701 9.1769 9.6785 9.1716 C 9.217 9.1716 8.8739 8.9474 8.6365 8.3408 L 7.0411 4.4638 C 6.9748 4.3187 6.9388 4.1617 6.9354 4.0023 C 6.9495 3.488 7.3707 3.0787 7.8851 3.0793 C 8.2974 3.0785 8.6684 3.3294 8.8213 3.7123 C 9.1875 4.649 9.5044 5.6041 9.7708 6.5738 L 9.7972 6.5738 C 9.9685 6.1388 10.4696 4.7014 10.8918 3.6727 C 11.0127 3.3113 11.3548 3.0708 11.7357 3.0792 C 12.1388 3.0648 12.5035 3.3169 12.6323 3.6991 C 13.0544 4.7408 13.5685 6.1914 13.7269 6.5738 L 13.7533 6.5738 C 13.8852 6.1517 14.1884 4.9388 14.6763 3.6991 C 14.8248 3.2713 15.2619 3.0146 15.7078 3.0933 C 16.1537 3.1719 16.4766 3.5627 16.4697 4.0155 Z " stroke-width="1" fill="#343434" stroke="none"/><path d="M 17.3518 1.1143 C 17.3592 0.5515 17.8176 0.0991 18.3804 0.0991 C 18.9433 0.0991 19.4016 0.5515 19.409 1.1143 C 19.4019 1.6773 18.9434 2.1299 18.3804 2.1299 C 17.8174 2.1299 17.359 1.6773 17.3518 1.1143 Z M 17.4047 8.1828 L 17.4047 4.0551 C 17.4041 3.7061 17.5899 3.3833 17.8921 3.2086 C 18.1943 3.0338 18.5668 3.0338 18.869 3.2086 C 19.1712 3.3833 19.3571 3.7061 19.3564 4.0551 L 19.3564 8.1828 C 19.3611 8.5345 19.1761 8.8615 18.8722 9.0387 C 18.5684 9.2159 18.1927 9.2159 17.8889 9.0387 C 17.585 8.8615 17.4 8.5345 17.4047 8.1828 Z " stroke-width="1" fill="#343434" stroke="none"/><path d="M 27.0967 6.1256 C 27.0967 7.6948 26.0418 9.2377 24.301 9.2377 C 23.7347 9.2686 23.1838 9.0463 22.7975 8.631 L 22.7975 11.44 C 22.8022 11.7917 22.6173 12.1187 22.3135 12.296 C 22.0097 12.4732 21.634 12.4732 21.3301 12.296 C 21.0263 12.1187 20.8414 11.7917 20.8461 11.44 L 20.8461 4.0419 C 20.8333 3.5374 21.2216 3.1131 21.7252 3.0811 C 22.2288 3.0492 22.6676 3.4212 22.7185 3.9232 C 23.0822 3.3511 23.7154 3.0072 24.3933 3.0135 C 26.0022 3.0135 27.0968 4.4244 27.0968 6.1256 Z M 25.1185 6.1256 C 25.1185 5.3341 24.5913 4.7143 23.8792 4.7143 C 23.4112 4.7344 22.9938 5.0144 22.7975 5.4396 L 22.7975 6.864 C 22.9982 7.2719 23.4114 7.532 23.866 7.5365 C 24.5913 7.5365 25.1186 6.9034 25.1186 6.1255 Z " stroke-width="1" fill="#343434" stroke="none"/><path d="M 33.8738 5.6641 C 33.8917 5.9028 33.816 6.1392 33.6629 6.3233 C 33.436 6.5244 33.1324 6.616 32.8321 6.5738 L 29.9045 6.5738 C 30.0893 7.2069 30.6298 7.5629 31.5002 7.5629 C 31.7442 7.5634 31.9874 7.5368 32.2255 7.4836 C 32.4026 7.4387 32.5838 7.4122 32.7663 7.4046 C 32.9685 7.4028 33.1627 7.4833 33.3044 7.6275 C 33.4461 7.7718 33.5231 7.9674 33.5177 8.1695 C 33.5175 8.5233 33.2964 8.8393 32.964 8.9606 C 32.4311 9.1511 31.8684 9.2449 31.3025 9.2376 C 29.4166 9.2376 27.966 8.0244 27.966 6.1388 C 27.966 4.3057 29.2717 3.0134 31.1177 3.0134 C 31.8414 2.975 32.5487 3.2383 33.071 3.7406 C 33.5933 4.243 33.884 4.9394 33.8738 5.664 Z M 32.199 5.4529 C 32.1936 5.1677 32.0697 4.8977 31.8571 4.7076 C 31.6445 4.5175 31.3624 4.4245 31.0784 4.4508 C 30.479 4.423 29.9579 4.8581 29.8784 5.4529 Z " stroke-width="1" fill="#343434" stroke="none"/><path d="M 42.6155 8.1167 C 42.6155 8.4859 42.3913 8.7101 41.9956 8.9081 C 41.548 9.1096 41.0624 9.2129 40.5715 9.2112 C 39.0287 9.2112 38.2769 8.486 38.2769 7.1937 L 38.2769 4.7672 L 37.8287 4.7672 C 37.6739 4.7738 37.5232 4.7171 37.4112 4.6101 C 37.2993 4.5031 37.2357 4.3551 37.2353 4.2003 C 37.2415 3.988 37.3494 3.7917 37.5252 3.6727 L 39.187 2.275 C 39.3133 2.1477 39.4827 2.0723 39.6618 2.0638 C 39.9517 2.0638 40.2287 2.2618 40.2287 2.7497 L 40.2287 3.1322 L 41.719 3.1322 C 42.1696 3.1344 42.5343 3.4991 42.5365 3.9497 C 42.5377 4.1669 42.4519 4.3755 42.2983 4.5291 C 42.1447 4.6827 41.9361 4.7684 41.719 4.7673 L 40.2287 4.7673 L 40.2287 6.8112 C 40.2082 6.9928 40.2706 7.1739 40.3985 7.3043 C 40.5265 7.4347 40.7063 7.5006 40.8882 7.4837 C 41.0444 7.4841 41.1999 7.4619 41.3497 7.4179 C 41.5068 7.3582 41.6707 7.3183 41.8376 7.2992 C 42.0507 7.2997 42.2544 7.3873 42.4013 7.5417 C 42.5482 7.6961 42.6256 7.9038 42.6155 8.1167 Z " stroke-width="1" fill="#343434" stroke="none"/><path d="M 43.1425 6.0991 C 43.1425 4.266 44.5931 3.0135 46.3603 3.0135 C 48.1405 3.0135 49.5779 4.2661 49.5779 6.0991 C 49.5344 7.845 48.1066 9.2377 46.3602 9.2377 C 44.6138 9.2377 43.186 7.845 43.1425 6.0991 Z M 47.6 6.0991 C 47.6 5.1497 46.9934 4.675 46.3603 4.675 C 45.7273 4.675 45.1207 5.1497 45.1207 6.0991 C 45.1207 7.0618 45.7273 7.5762 46.3603 7.5762 C 46.9934 7.5762 47.6 7.0618 47.6 6.0991 Z " stroke-width="1" fill="#343434" stroke="none"/><path d="M 53.8359 8.4991 C 53.46 8.3099 53.2173 7.9307 53.2029 7.51 C 53.2021 7.2709 53.2986 7.0418 53.4702 6.8752 C 53.6417 6.7087 53.8736 6.619 54.1126 6.6267 C 54.397 6.6455 54.6687 6.7513 54.8908 6.9299 C 55.3383 7.246 55.8725 7.4164 56.4204 7.4178 C 57.1325 7.4178 57.594 7.0618 57.594 6.5738 C 57.594 5.954 56.8029 5.7695 55.9721 5.4529 C 54.4161 4.8595 53.5324 4.1474 53.5324 2.71 C 53.5324 1.1407 54.6402 0.0065 56.6052 0.0065 C 57.2817 -0.0319 57.9571 0.0996 58.5699 0.389 C 58.9605 0.5375 59.2321 0.896 59.269 1.3123 C 59.2832 1.5362 59.2078 1.7566 59.0593 1.9248 C 58.9108 2.093 58.7015 2.1952 58.4776 2.2089 C 58.2402 2.1961 58.0075 2.138 57.792 2.0376 C 57.4195 1.8829 57.0217 1.798 56.6184 1.7871 C 55.9193 1.7871 55.5239 2.1299 55.5239 2.5649 C 55.5239 3.2112 56.2885 3.4221 57.2118 3.765 C 58.4251 4.2135 59.5722 4.8331 59.5722 6.4552 C 59.5722 8.2486 58.1613 9.2113 56.3414 9.2113 C 55.4571 9.2057 54.591 8.9595 53.8359 8.4992 Z " stroke-width="1" fill="#343434" stroke="none"/><path d="M 68.7889 1.0749 L 68.7889 8.1563 C 68.7889 8.7171 68.3343 9.1717 67.7735 9.1717 C 67.2127 9.1717 66.7581 8.7171 66.7581 8.1563 L 66.7581 5.5322 L 62.9865 5.5322 L 62.9865 8.1563 C 62.9855 8.7164 62.5312 9.1699 61.9711 9.1699 C 61.411 9.1699 60.9567 8.7164 60.9557 8.1563 L 60.9557 1.0749 C 60.9629 0.5192 61.4154 0.0726 61.9711 0.0726 C 62.5268 0.0726 62.9793 0.5193 62.9865 1.0749 L 62.9865 3.7387 L 66.7581 3.7387 L 66.7581 1.0749 C 66.7654 0.5193 67.2178 0.0727 67.7735 0.0727 C 68.3292 0.0727 68.7817 0.5193 68.7889 1.0749 Z " stroke-width="1" fill="#343434" stroke="none"/><path d="M 70.2119 4.6221 C 70.2119 1.9057 72.2955 0.0065 74.88 0.0065 C 76.1179 -0.0275 77.3157 0.4465 78.1951 1.3184 C 79.0744 2.1903 79.5587 3.384 79.5352 4.6221 C 79.5352 7.352 77.4516 9.2377 74.88 9.2377 C 72.2955 9.2377 70.2118 7.352 70.2118 4.6221 Z M 77.4252 4.6221 C 77.4252 2.8684 76.2516 1.8264 74.88 1.8264 C 73.5088 1.8264 72.3217 2.8684 72.3217 4.6221 C 72.3217 6.3762 73.5088 7.4178 74.88 7.4178 C 76.2516 7.4178 77.4252 6.3761 77.4252 4.6221 Z " stroke-width="1" fill="#343434" stroke="none"/><path d="M 80.5096 4.6221 C 80.5096 1.9057 82.5933 0.0065 85.1778 0.0065 C 86.4156 -0.0275 87.6135 0.4465 88.4928 1.3184 C 89.3722 2.1903 89.8564 3.384 89.833 4.6221 C 89.833 7.352 87.7493 9.2377 85.1778 9.2377 C 82.5932 9.2377 80.5096 7.352 80.5096 4.6221 Z M 87.7229 4.6221 C 87.7229 2.8684 86.5493 1.8264 85.1778 1.8264 C 83.8065 1.8264 82.6194 2.8684 82.6194 4.6221 C 82.6194 6.3762 83.8065 7.4178 85.1778 7.4178 C 86.5493 7.4178 87.7229 6.3761 87.7229 4.6221 Z " stroke-width="1" fill="#343434" stroke="none"/><path d="M 97.7965 1.0353 C 97.8044 1.2709 97.7162 1.4996 97.552 1.6687 C 97.3878 1.8379 97.1619 1.933 96.9261 1.9321 L 94.9482 1.9321 L 94.9482 8.1563 C 94.9472 8.7164 94.4929 9.17 93.9328 9.17 C 93.3727 9.17 92.9184 8.7164 92.9174 8.1563 L 92.9174 1.9321 L 90.9525 1.9321 C 90.7147 1.9358 90.4857 1.8421 90.3188 1.6727 C 90.1519 1.5033 90.0616 1.273 90.0688 1.0353 C 90.0616 0.7976 90.1519 0.5673 90.3188 0.3979 C 90.4858 0.2285 90.7147 0.1348 90.9525 0.1385 L 96.9261 0.1385 C 97.1618 0.1376 97.3878 0.2327 97.552 0.4018 C 97.7162 0.571 97.8044 0.7997 97.7965 1.0353 Z " stroke-width="1" fill="#343434" stroke="none"/></g></g></svg>