<svg xmlns="http://www.w3.org/2000/svg" xmlns:xlink="http://www.w3.org/1999/xlink" version="1.1" width="215.90919" height="29.93922" viewBox="0,0,215.90919,29.93922"><g><g data-paper-data="{&quot;isPaintingLayer&quot;:true}" fill-rule="nonzero" stroke-linecap="butt" stroke-linejoin="miter" stroke-miterlimit="10" stroke-dasharray="" stroke-dashoffset="0" style="mix-blend-mode: normal"><g><path d="M 2.0576 27.6247 C 0.8359 27.0095 0.047 25.7769 0 24.4099 C -0.0023 23.6327 0.3113 22.8879 0.8689 22.3465 C 1.4265 21.8051 2.1802 21.5136 2.957 21.5388 C 3.8813 21.5997 4.7644 21.9437 5.4863 22.5241 C 6.9409 23.5518 8.677 24.1056 10.458 24.1101 C 12.7724 24.1101 14.2724 22.9528 14.2724 21.3669 C 14.2724 19.3523 11.7011 18.7526 9.001 17.7234 C 3.9433 15.7946 1.0713 13.4802 1.0713 8.8084 C 1.0713 3.7078 4.6719 0.0212 11.0586 0.0212 C 13.2575 -0.1037 15.4528 0.3237 17.4443 1.2644 C 18.7141 1.7469 19.5966 2.9124 19.7168 4.2654 C 19.7629 4.9931 19.5177 5.7093 19.0351 6.256 C 18.5526 6.8027 17.8723 7.135 17.1445 7.1795 C 16.373 7.1379 15.6165 6.9489 14.916 6.6228 C 13.7049 6.1197 12.4116 5.8436 11.1006 5.8084 C 8.8291 5.8084 7.5439 6.9226 7.5439 8.3367 C 7.5439 10.4373 10.0293 11.1228 13.0303 12.2371 C 16.9736 13.6951 20.7021 15.7088 20.7021 20.9812 C 20.7021 26.8103 16.1162 29.9392 10.2011 29.9392 C 7.3269 29.9211 4.5118 29.121 2.0576 27.6247 Z " stroke-width="1" fill="#dd2c2c" stroke="none"/><path d="M 46.2022 10.5231 C 46.2022 15.4948 42.8154 20.5524 35.5293 20.5524 L 31.7998 20.5524 L 31.7998 26.5534 C 31.7967 28.3739 30.32 29.848 28.4995 29.848 C 26.6791 29.848 25.2024 28.3739 25.1992 26.5534 L 25.1992 3.7507 C 25.1877 2.8866 25.52 2.0534 26.1229 1.4344 C 26.7259 0.8153 27.55 0.4612 28.4141 0.4499 L 35.5293 0.4499 C 42.8154 0.4499 46.2022 5.5505 46.2022 10.5232 Z M 39.4297 10.4801 C 39.4297 8.2087 37.9727 6.28 34.7578 6.28 L 31.7998 6.28 L 31.7998 14.7233 L 34.7578 14.7233 C 37.9727 14.7234 39.4297 12.7517 39.4297 10.4802 Z " stroke-width="1" fill="#dd2c2c" stroke="none"/><path d="M 68.2295 26.6814 C 68.2334 27.4632 67.9217 28.2135 67.3648 28.7622 C 66.8079 29.311 66.0532 29.6117 65.2715 29.5964 L 53.6563 29.5964 C 52.781 29.6088 51.9385 29.2637 51.3235 28.6406 C 50.7086 28.0176 50.3745 27.1706 50.3984 26.2956 L 50.3984 3.4939 C 50.4218 1.6878 51.8925 0.2359 53.6987 0.2359 C 55.505 0.2359 56.9757 1.6878 56.999 3.4939 L 56.999 23.7673 L 65.2715 23.7673 C 66.0551 23.7445 66.8141 24.0427 67.3726 24.5929 C 67.931 25.1431 68.2406 25.8975 68.2295 26.6814 Z " stroke-width="1" fill="#dd2c2c" stroke="none"/><path d="M 91.0293 26.6394 C 91.0421 27.4276 90.7345 28.1874 90.177 28.7447 C 89.6194 29.3021 88.8596 29.6094 88.0713 29.5964 L 75.127 29.5964 C 74.2695 29.6005 73.4471 29.2557 72.8489 28.6413 C 72.2507 28.0269 71.928 27.1957 71.9551 26.3385 L 71.9551 3.7507 C 71.9267 2.8892 72.2475 2.0528 72.8448 1.4312 C 73.442 0.8097 74.265 0.4558 75.127 0.4499 L 87.5996 0.4499 C 88.388 0.4369 89.148 0.7444 89.7056 1.302 C 90.2631 1.8595 90.5706 2.6195 90.5576 3.4079 C 90.5671 4.1876 90.2556 4.9368 89.6962 5.48 C 89.1368 6.0232 88.3787 6.3124 87.5996 6.28 L 78.5557 6.28 L 78.5557 12.1941 L 86.3145 12.1941 C 87.3144 12.1636 88.2518 12.6796 88.7608 13.5409 C 89.2698 14.4022 89.2698 15.4722 88.7608 16.3335 C 88.2518 17.1948 87.3145 17.7109 86.3145 17.6804 L 78.5557 17.6804 L 78.5557 23.7673 L 88.0713 23.7673 C 88.8503 23.7349 89.6085 24.0241 90.1679 24.5673 C 90.7273 25.1104 91.0388 25.8597 91.0293 26.6394 Z " stroke-width="1" fill="#dd2c2c" stroke="none"/><path d="M 95.5264 26.7243 L 95.5264 4.0075 C 95.5257 2.9921 95.9347 2.0193 96.6608 1.3094 C 97.3868 0.5994 98.3686 0.2125 99.3838 0.236 C 100.8706 0.2523 102.2456 1.0288 103.0274 2.2937 L 114.9864 18.5808 L 115.0284 18.5808 L 115.0284 3.322 C 115.099 1.5976 116.5174 0.2361 118.2432 0.2361 C 119.969 0.2361 121.3874 1.5976 121.4581 3.322 L 121.4581 25.9958 C 121.4607 27.0157 121.0537 27.994 120.3285 28.7112 C 119.6032 29.4283 118.6205 29.8243 117.6006 29.8103 C 116.0718 29.7457 114.6746 28.927 113.8711 27.6247 L 102.042 11.6804 L 101.9561 11.6804 L 101.9991 26.7243 C 101.9168 28.4518 100.4922 29.8101 98.7628 29.8101 C 97.0333 29.8101 95.6087 28.4518 95.5264 26.7243 Z " stroke-width="1" fill="#dd2c2c" stroke="none"/><path d="M 153.043 15.0231 C 153.043 22.739 147.7285 29.5964 137.3125 29.5964 L 130.7119 29.5964 C 129.8544 29.6005 129.0321 29.2558 128.4339 28.6414 C 127.8356 28.0269 127.513 27.1957 127.5401 26.3386 L 127.5401 3.7507 C 127.5117 2.8892 127.8325 2.0528 128.4297 1.4312 C 129.027 0.8097 129.85 0.4558 130.7119 0.4499 L 137.3125 0.4499 C 147.7285 0.4499 153.043 7.3513 153.043 15.0231 Z M 146.1856 15.0231 C 146.1856 9.9655 143.0566 6.28 137.1846 6.28 L 134.1406 6.28 L 134.1406 23.7673 L 137.1846 23.7673 C 143.0567 23.7673 146.1856 20.0808 146.1856 15.0232 Z " stroke-width="1" fill="#dd2c2c" stroke="none"/><path d="M 157.667 26.5105 L 157.667 3.4939 C 157.6903 1.6878 159.1611 0.2359 160.9673 0.2359 C 162.7735 0.2359 164.2443 1.6878 164.2676 3.4939 L 164.2676 26.5105 C 164.2644 28.3309 162.7878 29.805 160.9673 29.805 C 159.1468 29.805 157.6702 28.3309 157.667 26.5105 Z " stroke-width="1" fill="#dd2c2c" stroke="none"/><path d="M 195.8555 15.0231 C 195.8555 22.739 190.541 29.5964 180.125 29.5964 L 173.5244 29.5964 C 172.6669 29.6005 171.8446 29.2558 171.2464 28.6414 C 170.6481 28.0269 170.3255 27.1957 170.3526 26.3386 L 170.3526 3.7507 C 170.3242 2.8892 170.645 2.0528 171.2422 1.4312 C 171.8395 0.8097 172.6625 0.4558 173.5244 0.4499 L 180.125 0.4499 C 190.541 0.4499 195.8555 7.3513 195.8555 15.0231 Z M 188.9981 15.0231 C 188.9981 9.9655 185.8691 6.28 179.9971 6.28 L 176.9532 6.28 L 176.9532 23.7673 L 179.9971 23.7673 C 185.8692 23.7673 188.9981 20.0808 188.9981 15.0232 Z " stroke-width="1" fill="#dd2c2c" stroke="none"/><path d="M 208.8799 26.4245 C 208.8799 24.4834 210.4534 22.9099 212.3945 22.9099 C 214.3356 22.9099 215.9092 24.4834 215.9092 26.4245 C 215.9092 28.3656 214.3356 29.9392 212.3945 29.9392 C 210.4675 29.9057 208.9133 28.3516 208.8799 26.4245 Z M 210.7236 18.4099 C 209.6771 14.1277 209.102 9.7439 209.0088 5.3366 C 209.0088 1.6071 210.4658 0.1501 212.3945 0.1501 C 214.3233 0.1501 215.7383 1.6501 215.7383 5.3366 C 215.6642 9.7426 215.1035 14.127 214.0664 18.4099 C 213.8096 19.4812 213.3379 20.2097 212.4375 20.2097 C 211.4952 20.2097 210.9805 19.4812 210.7236 18.4099 Z " stroke-width="1" fill="#dd2c2c" stroke="none"/></g></g></g></svg>