<svg xmlns="http://www.w3.org/2000/svg" xmlns:xlink="http://www.w3.org/1999/xlink" version="1.1" width="7.49926" height="4.54494" viewBox="0,0,7.49926,4.54494"><g><g data-paper-data="{&quot;isPaintingLayer&quot;:true}" fill-rule="nonzero" stroke-linecap="butt" stroke-linejoin="miter" stroke-miterlimit="10" stroke-dasharray="" stroke-dashoffset="0" style="mix-blend-mode: normal"><g><path d="M241.47965,177.73c1.25368,0 2.26998,1.0163 2.26998,2.26998c0,1.25368 -1.0163,2.26998 -2.26998,2.26998c-1.25368,0 -2.26998,-1.0163 -2.26998,-2.26998c0,-1.25368 1.0163,-2.26998 2.26998,-2.26998z" fill="#1a1a1a" stroke-width="0" stroke="none" transform="matrix(1,0,0,1,-236.25037,-177.72753)"/><path d="M237.87197,177.72753l3.67463,0l0,4.54494l-3.67463,0z" fill="#1a1a1a" stroke-width="0" stroke="none" transform="matrix(1,0,0,1,-236.25037,-177.72753)"/><path d="M236.25037,177.72753l1.64391,0v4.54494l-1.64391,0z" fill="#176ee5" stroke-width="0" stroke="none" transform="matrix(1,0,0,1,-236.25037,-177.72753)"/></g></g></g></svg>