<svg xmlns="http://www.w3.org/2000/svg" xmlns:xlink="http://www.w3.org/1999/xlink" version="1.1" width="36.81532" height="30.25075" viewBox="0,0,36.81532,30.25075"><g><g data-paper-data="{&quot;isPaintingLayer&quot;:true}" fill-rule="nonzero" stroke-linecap="butt" stroke-linejoin="miter" stroke-miterlimit="10" stroke-dasharray="" stroke-dashoffset="0" style="mix-blend-mode: normal"><path d="M221.64209,190.68979c0.16515,0.23401 0.32086,0.47525 0.49727,0.70063c0.43685,0.63524 1.16318,1.01493 1.93937,1.01381c17.17396,-0.00749 14.54357,-0.00472 31.71752,0.00834c1.31126,0.00161 1.89924,-0.80687 2.46234,-1.7426c0.33922,1.73533 -0.08534,3.71284 -1.57745,4.49009c-0.23483,0.11227 -0.49499,0.16255 -0.75522,0.14599c-17.21904,0.0014 -14.63372,0.00114 -31.85275,-0.0008c-1.33373,-0.0542 -2.40287,-2.20243 -2.45919,-3.52289c-0.00259,-0.3641 0.01811,-0.72837 0.02812,-1.09256z" fill="#725f54" stroke="#725f54" stroke-width="0" transform="matrix(1,0,0,1,-221.58123,-165.05839)"/><path d="M 36.5653 25.0828 C 36.5596 25.1994 36.5478 25.3156 36.53 25.4307 C 35.9725 26.482 35.3903 27.3904 34.092 27.3886 C 17.088 27.3739 19.6924 27.3708 2.6883 27.3792 C 1.9198 27.3805 1.2007 26.9539 0.7681 26.2402 C 0.5935 25.9869 0.4393 25.7159 0.2758 25.453 C 0.2668 19.1883 0.2582 12.9235 0.25 6.6588 C 0.2484 5.4292 0.2443 4.1996 0.2512 2.97 C 0.2828 1.4745 1.3597 0.2738 2.691 0.25 C 19.7145 0.2473 17.1296 0.2472 34.1532 0.2497 C 35.4362 0.2085 36.5105 1.3333 36.5643 2.774 C 36.5672 10.2103 36.5676 17.6466 36.5653 25.0828 Z " fill="#92796b" stroke="#92796b" stroke-width="0.5"/><path d="M 36.5653 25.0828 C 36.5596 25.1994 36.5478 25.3156 36.53 25.4307 C 35.9725 26.482 35.3903 27.3904 34.092 27.3886 C 17.088 27.3739 19.6924 27.3708 2.6883 27.3792 C 1.9198 27.3805 1.2007 26.9539 0.7681 26.2402 C 0.5935 25.9869 0.4393 25.7159 0.2758 25.453 C 0.2668 19.1883 0.2582 12.9235 0.25 6.6588 C 0.2484 5.4292 0.2443 4.1996 0.2512 2.97 C 0.2828 1.4745 1.3597 0.2738 2.691 0.25 C 19.7145 0.2473 17.1296 0.2472 34.1532 0.2497 C 35.4362 0.2085 36.5105 1.3333 36.5643 2.774 C 36.5672 10.2103 36.5676 17.6466 36.5653 25.0828 Z " fill="#92796b" stroke="#92796b" stroke-width="0.5"/><path d="M 13.4013 12.5362 C 13.2225 11.6594 12.9505 10.8561 12.9134 10.042 C 12.8086 7.8011 14.356 5.8196 16.5555 5.3781 C 18.7656 4.9195 20.9863 6.1125 21.8239 8.2085 C 22.0762 8.8301 21.926 9.3119 21.4161 9.5162 C 20.9161 9.7164 20.5213 9.498 20.2529 8.8725 C 19.3459 6.7588 16.805 6.2967 15.306 7.9781 C 14.6784 8.6821 14.4477 9.5124 14.6703 10.4282 C 14.8307 11.0879 15.0665 11.7291 15.2759 12.4019 C 16.5366 12.4019 17.7732 12.4019 19.0097 12.402 C 20.199 12.402 21.3883 12.3957 22.5776 12.4038 C 23.9826 12.4134 25.0158 13.4394 25.023 14.8422 C 25.0325 16.6994 25.0325 18.5567 25.0229 20.414 C 25.0157 21.8042 24.017 22.8385 22.6274 22.8483 C 19.8254 22.8679 17.0233 22.868 14.221 22.8486 C 12.8146 22.8392 11.8316 21.8266 11.8238 20.4253 C 11.8143 18.7147 11.8585 17.003 11.8093 15.2938 C 11.7719 13.9965 12.2203 13.0455 13.4013 12.5363 Z M 17.995 19.0431 C 17.995 19.3844 17.9981 19.7258 17.9941 20.067 C 17.9902 20.4069 18.1214 20.6606 18.4848 20.6596 C 18.8426 20.6587 18.9238 20.3786 18.9258 20.0774 C 18.9297 19.4924 18.9431 18.9067 18.9219 18.3224 C 18.9092 17.9728 18.9896 17.7446 19.3103 17.5271 C 19.9703 17.0794 20.0356 16.105 19.5075 15.5017 C 19.2456 15.2057 18.8708 15.0341 18.4756 15.0291 C 18.0804 15.0241 17.7014 15.1862 17.4321 15.4755 C 16.8719 16.0617 16.8965 17.0376 17.5688 17.4915 C 17.9662 17.7597 18.0268 18.0566 17.9971 18.4583 C 17.9828 18.6522 17.9946 18.8481 17.995 19.0432 Z " fill="#fbfbfb" stroke="none" stroke-width="1"/></g></g></svg>