<svg xmlns="http://www.w3.org/2000/svg" xmlns:xlink="http://www.w3.org/1999/xlink" version="1.1" width="133.58394" height="30.00952" viewBox="0,0,133.58394,30.00952"><g><g data-paper-data="{&quot;isPaintingLayer&quot;:true}" fill-rule="nonzero" stroke-linecap="butt" stroke-linejoin="miter" stroke-miterlimit="10" stroke-dasharray="" stroke-dashoffset="0" style="mix-blend-mode: normal"><g><path d="M 40.1621 3.3064 C 40.1431 3.8791 40.0272 4.4443 39.8193 4.9783 L 32.3183 27.0515 C 31.9048 28.6574 30.4619 29.7835 28.8037 29.7947 C 27.1246 29.8177 25.6508 28.6813 25.246 27.0515 L 19.9306 10.8073 L 15.0019 27.0515 C 14.6101 28.6714 13.1539 29.808 11.4873 29.7946 C 9.8123 29.8055 8.3451 28.6742 7.9297 27.0515 L 0.3858 5.407 C 0.1435 4.8218 0.0127 4.1965 0 3.5632 C -0.0023 1.9187 1.1934 0.5174 2.8178 0.2611 C 4.4422 0.0047 6.0114 0.9696 6.5156 2.5349 C 8.5293 8.6638 10.0303 13.5935 11.6152 19.5085 L 16.8447 2.8777 C 17.2052 1.322 18.5911 0.2204 20.188 0.2204 C 21.7849 0.2204 23.1708 1.322 23.5313 2.8777 L 28.9316 19.5935 C 30.4746 13.6365 32.0176 8.2781 33.8613 2.492 C 34.2402 1.1118 35.5168 0.172 36.9473 0.2205 C 37.7924 0.1681 38.6208 0.4719 39.2316 1.0582 C 39.8424 1.6446 40.1799 2.4599 40.1621 3.3064 Z " stroke-width="1" fill="#dd2c2c" stroke="none"/><path d="M 42.4707 15.0076 C 42.4707 6.1785 49.2431 0.0056 57.6435 0.0056 C 61.6669 -0.105 65.5602 1.4357 68.4184 4.2695 C 71.2766 7.1034 72.8506 10.9834 72.7744 15.0076 C 72.7744 23.8806 66.0019 30.0095 57.6435 30.0095 C 49.2431 30.0095 42.4707 23.8806 42.4707 15.0076 Z M 65.916 15.0076 C 65.916 9.3074 62.1015 5.9207 57.6435 5.9207 C 53.1865 5.9207 49.3281 9.3074 49.3281 15.0076 C 49.3281 20.7087 53.1865 24.0945 57.6435 24.0945 C 62.1015 24.0945 65.916 20.7087 65.916 15.0076 Z " stroke-width="1" fill="#dd2c2c" stroke="none"/><path d="M 115.2461 3.3064 C 115.2271 3.8791 115.1112 4.4443 114.9033 4.9783 L 107.4023 27.0515 C 106.9887 28.6574 105.5459 29.7835 103.8876 29.7947 C 102.2086 29.8177 100.7348 28.6813 100.33 27.0515 L 95.0146 10.8073 L 90.0859 27.0515 C 89.6941 28.6714 88.2379 29.808 86.5713 29.7946 C 84.8962 29.8055 83.4291 28.6742 83.0136 27.0515 L 75.4697 5.4069 C 75.2275 4.8217 75.0967 4.1964 75.084 3.5632 C 75.0816 1.9186 76.2773 0.5174 77.9018 0.261 C 79.5262 0.0046 81.0953 0.9695 81.5996 2.5349 C 83.6133 8.6638 85.1142 13.5935 86.6992 19.5085 L 91.9287 2.8776 C 92.2891 1.3219 93.675 0.2204 95.2719 0.2204 C 96.8689 0.2204 98.2548 1.3219 98.6152 2.8776 L 104.0156 19.5935 C 105.5586 13.6365 107.1015 8.278 108.9453 2.4919 C 109.3241 1.1117 110.6008 0.172 112.0312 0.2204 C 112.8763 0.168 113.7048 0.4718 114.3156 1.0582 C 114.9264 1.6445 115.2639 2.4599 115.2461 3.3064 Z " stroke-width="1" fill="#dd2c2c" stroke="none"/><path d="M 126.5547 26.4089 C 126.5547 24.4678 128.1282 22.8943 130.0693 22.8943 C 132.0104 22.8943 133.584 24.4678 133.584 26.4089 C 133.584 28.35 132.0104 29.9236 130.0693 29.9236 C 128.1422 29.8901 126.5881 28.336 126.5547 26.4089 Z M 128.3984 18.3943 C 127.3518 14.1121 126.7768 9.7283 126.6836 5.3211 C 126.6836 1.5916 128.1406 0.1345 130.0693 0.1345 C 131.998 0.1345 133.4131 1.6345 133.4131 5.3211 C 133.339 9.7271 132.7783 14.1114 131.7412 18.3943 C 131.4843 19.4656 131.0127 20.1941 130.1123 20.1941 C 129.1699 20.1941 128.6552 19.4656 128.3984 18.3943 Z " stroke-width="1" fill="#dd2c2c" stroke="none"/></g></g></g></svg>