<svg xmlns="http://www.w3.org/2000/svg" xmlns:xlink="http://www.w3.org/1999/xlink" version="1.1" width="43.7588" height="35.10443" viewBox="0,0,43.7588,35.10443"><g><g data-paper-data="{&quot;isPaintingLayer&quot;:true}" fill-rule="nonzero" stroke-linecap="butt" stroke-linejoin="miter" stroke-miterlimit="10" stroke-dasharray="" stroke-dashoffset="0" style="mix-blend-mode: normal"><path d="M 13.3731 30.6033 L 13.3731 32.4471 C 13.3495 33.9215 12.1475 35.1044 10.6729 35.1044 C 9.1982 35.1044 7.9962 33.9215 7.9727 32.4471 L 7.9727 30.7752 C 5.872 30.5823 3.8314 29.97 1.9717 28.9744 C 0.8162 28.4315 0.0569 27.2928 0 26.0174 C -0.0007 25.2669 0.2972 24.5469 0.8279 24.0162 C 1.3586 23.4855 2.0786 23.1876 2.8291 23.1883 C 3.5831 23.2364 4.316 23.4565 4.9717 23.8319 C 6.6777 24.686 8.5508 25.1541 10.458 25.203 C 12.2588 25.203 13.9727 24.5174 13.9727 23.0604 C 13.9727 18.8592 0.7715 20.5311 0.7715 11.8729 C 0.7715 7.4159 4.2432 5.0584 7.9727 4.244 L 7.9727 2.658 C 7.9959 1.1833 9.198 0 10.6729 0 C 12.1477 0 13.3498 1.1833 13.373 2.658 L 13.373 3.9861 C 14.6363 4.0956 15.8776 4.3843 17.0596 4.8435 C 18.9453 5.615 20.1455 6.5154 20.1455 8.1443 C 20.1469 8.8837 19.8539 9.5932 19.3311 10.116 C 18.8082 10.6388 18.0987 10.9319 17.3594 10.9305 C 16.6995 10.9097 16.0477 10.7794 15.4307 10.5447 C 13.9107 10.0188 12.3226 9.7155 10.7158 9.6443 C 8.7871 9.6443 7.2441 10.4588 7.2441 11.616 C 7.2441 15.6443 20.8311 14.4451 20.8311 22.7166 C 20.8311 27.0457 17.4873 29.7469 13.3731 30.6033 Z " stroke-width="1" fill="#191919" stroke="none"/><path d="M 43.7588 21.3025 C 43.7588 26.9607 39.7295 31.1609 33.043 31.1609 C 30.525 31.1907 28.0478 30.5232 25.8858 29.2322 C 24.5137 28.2888 23.9141 27.4314 23.9141 26.0174 C 23.8921 25.2982 24.1622 24.6008 24.6627 24.084 C 25.1633 23.5672 25.8518 23.2751 26.5713 23.2742 C 27.6577 23.313 28.7117 23.6546 29.6143 24.2605 C 30.7083 24.8391 31.9352 25.1196 33.1719 25.074 C 34.2017 25.1213 35.206 24.7449 35.951 24.0324 C 36.6959 23.3199 37.1167 22.3334 37.1153 21.3025 C 37.1285 20.313 36.7203 19.3645 35.9925 18.6939 C 35.2647 18.0233 34.286 17.6938 33.3008 17.7879 C 32.3324 17.784 31.3821 18.0512 30.5577 18.5594 C 29.7883 19.0889 28.8764 19.3729 27.9424 19.3738 C 27.0246 19.3974 26.1429 19.0157 25.532 18.3303 C 24.9211 17.6449 24.6429 16.7253 24.7715 15.8162 L 25.7569 4.7146 C 25.866 2.9507 27.3323 1.5781 29.0996 1.5857 L 40.1582 1.5857 C 40.9329 1.5549 41.6858 1.8461 42.238 2.3902 C 42.7903 2.9343 43.0926 3.6828 43.0733 4.4578 C 43.0936 5.2484 42.7885 6.0126 42.2293 6.5718 C 41.6701 7.131 40.9058 7.4361 40.1153 7.4158 L 31.4571 7.4158 L 30.9434 12.8592 C 32.0661 12.4329 33.2571 12.2148 34.458 12.2156 C 40.3301 12.2156 43.7588 16.159 43.7588 21.3025 Z " stroke-width="1" fill="#191919" stroke="none"/></g></g></svg>