<svg xmlns="http://www.w3.org/2000/svg" xmlns:xlink="http://www.w3.org/1999/xlink" version="1.1" width="17.125" height="17.15545" viewBox="0,0,17.125,17.15545"><defs><linearGradient x1="231.4375" y1="180" x2="248.5625" y2="180" gradientUnits="userSpaceOnUse" id="color-1"><stop offset="0" stop-color="#9966ff" stop-opacity="0"/><stop offset="1" stop-color="#9966ff" stop-opacity="0"/></linearGradient></defs><g><g data-paper-data="{&quot;isPaintingLayer&quot;:true}" fill-rule="nonzero" stroke-linecap="butt" stroke-linejoin="miter" stroke-miterlimit="10" stroke-dasharray="" stroke-dashoffset="0" style="mix-blend-mode: normal"><path d="M 14.5582 12.4079 C 14.5582 15.1487 12.1354 17.1555 8.587 17.1555 C 5.0872 17.1555 2.5668 15.2221 2.5668 12.4812 C 2.5668 11.0863 3.252 9.6667 5.1607 8.6634 C 3.9372 7.7824 2.9337 6.5587 2.9337 4.6988 C 2.9337 1.9578 5.1362 0 8.5135 0 C 12.0378 0 14.1668 2.1047 14.1668 4.5031 C 14.1668 6.0939 13.2368 7.3663 11.7685 8.2229 C 13.1634 9.006 14.5582 10.2786 14.5582 12.4079 Z M 10.8629 12.3099 C 10.8629 11.1597 9.4925 10.7437 7.9752 10.1318 C 7.0207 10.5723 6.2376 11.233 6.2376 12.1875 C 6.2376 13.2888 7.2411 13.9741 8.5625 13.9741 C 9.8105 13.9742 10.8629 13.4112 10.8629 12.3099 Z M 6.5559 4.8457 C 6.5559 5.8001 7.3876 6.363 8.8808 6.9992 C 9.8839 6.4854 10.5446 5.5799 10.5446 4.7478 C 10.5446 3.72 9.566 3.1815 8.587 3.1815 C 7.4611 3.1815 6.5559 3.8667 6.5559 4.8457 Z " fill="#1a1a1a" stroke-width="1" stroke="none"/><path d="M231.4375,188.5625v-17.125h17.125v17.125z" fill="url(#color-1)" stroke-width="0" stroke="none" transform="matrix(1,0,0,1,-231.4375,-171.42229)"/></g></g></svg>