<svg xmlns="http://www.w3.org/2000/svg" xmlns:xlink="http://www.w3.org/1999/xlink" version="1.1" width="194.41317" height="77.97547" viewBox="0,0,194.41317,77.97547"><g><g data-paper-data="{&quot;isPaintingLayer&quot;:true}" fill-rule="nonzero" stroke-linecap="butt" stroke-linejoin="miter" stroke-miterlimit="10" stroke-dasharray="" stroke-dashoffset="0" style="mix-blend-mode: normal"><path d="M 194.4132 77.9755 L 0.0003 77.9755 C -0.0003 61.7091 0 45.4427 0.0012 29.1763 C 0.0013 28.8074 0.0176 28.4385 0.0262 28.0697 L 194.3872 28.0697 C 194.3959 28.4386 194.4122 28.8074 194.4122 29.1763 C 194.4129 45.4427 194.4132 61.7091 194.4132 77.9755 Z " fill="#c0dbfa" stroke-width="1" stroke="none"/><path d="M 194.3881 24.9994 L 194.3881 28.4421 L 0.0262 28.4421 L 0.0262 25.0202 L 6.0952 25.0202 C 6.1432 25.0223 6.1891 25.0223 6.2329 25.0202 L 57.3005 25.0202 L 57.3005 24.9993 C 64.2867 25 71.2736 24.9993 78.2612 24.9973 C 78.5472 24.9973 78.8353 24.9806 79.1213 24.9722 C 80.2521 24.9708 81.3823 24.9701 82.5117 24.9701 C 82.5892 24.9827 82.6672 24.991 82.7456 24.9951 L 82.8808 24.9951 C 82.8776 20.3756 82.8757 15.7561 82.875 11.1366 C 82.8613 10.9549 82.8724 10.7721 82.9081 10.5935 C 83.5145 8.4807 84.1209 6.3873 85.5948 4.639 C 86.1907 3.9388 86.8452 3.2907 87.5515 2.7019 C 89.2083 1.3112 91.2125 0.3978 93.3491 0.0596 C 93.7141 0.0428 94.0792 0.0261 94.4444 0.0093 C 96.6831 0.0083 98.9218 0.0073 101.1605 0.0064 C 102.385 0.0155 103.6096 0.0311 104.8341 0.0316 C 105.8443 -0.0079 106.8559 0.0526 107.8542 0.2122 C 107.891 0.2483 107.9215 0.3048 107.9646 0.317 C 112.6974 1.6596 115.7533 4.6594 117.0639 9.4296 C 117.1504 9.7443 116.9368 10.1921 117.376 10.398 C 117.3646 15.26 117.3532 20.1221 117.3419 24.9841 L 120.5144 24.9784 C 120.8797 24.9848 121.243 24.9973 121.6083 24.9973 C 131.8172 24.9993 142.0262 24.9993 152.2351 24.9973 C 153.0931 24.9973 153.9533 24.9826 154.8113 24.9743 C 155.1516 24.9826 155.4898 24.9973 155.828 24.9973 C 168.6807 24.9987 181.534 24.9994 194.3881 24.9994 Z M 93.5284 6.087 C 91.7951 7.8246 90.8267 10.1818 90.8376 12.636 C 90.8405 16.3779 93.0975 19.7495 96.556 21.178 C 100.0145 22.6064 103.993 21.8104 106.6356 19.1611 C 109.2781 16.5119 110.0642 12.5314 108.6269 9.0765 C 107.1897 5.6216 103.8125 3.3731 100.0706 3.3797 C 97.6163 3.3749 95.2616 4.3494 93.5283 6.087 Z " fill="#0a7afe" stroke-width="1" stroke="none"/><path d="M 93.3491 0.0597 C 91.2125 0.3978 89.2083 1.3112 87.5515 2.7018 C 86.8452 3.2907 86.1906 3.9388 85.5948 4.6391 C 84.1209 6.3874 83.5145 8.4807 82.9081 10.5935 C 82.8724 10.7722 82.8613 10.9549 82.875 11.1366 C 82.8757 15.7709 82.8777 20.4052 82.8808 25.0396 C 81.7505 25.0401 80.6201 25.0407 79.4896 25.0412 C 79.4868 20.1544 79.4839 15.2676 79.4807 10.3807 C 79.6673 10.3306 79.6806 10.1855 79.7095 10.0218 C 80.2319 7.1178 81.8059 4.508 84.1307 2.6911 C 85.3186 1.7759 86.6311 1.035 88.0284 0.4907 C 89.7655 0.051 91.5639 -0.0947 93.3491 0.0596 Z " fill="#0a5abe" stroke-width="1" stroke="none"/><path d="M 109.3283 12.6148 C 109.334 17.7206 105.1997 21.8643 100.0939 21.8704 C 94.9881 21.8764 90.8441 17.7425 90.8376 12.6367 C 90.8312 7.5309 94.9648 3.3865 100.0706 3.3797 C 102.5236 3.3742 104.8781 4.3448 106.6148 6.0772 C 108.3515 7.8097 109.3278 10.1618 109.3283 12.6148 Z M 99.6669 14.014 C 99.6648 15.3511 99.7553 15.3347 98.5973 14.9488 C 98.424 14.8925 98.2469 14.8487 98.0674 14.8176 C 97.6474 14.6821 97.1956 14.9039 97.046 15.3191 C 96.8764 15.7225 97.0265 16.1893 97.3993 16.4184 C 97.8889 16.7725 98.4757 16.9673 99.0799 16.9764 C 99.4619 16.999 99.681 17.0604 99.6715 17.484 C 99.6666 17.7033 99.724 17.9357 99.9869 17.9442 C 100.2936 17.9541 100.3766 17.7061 100.3561 17.4564 C 100.3189 17.0041 100.6328 16.9838 100.9451 16.9031 C 102.1967 16.664 103.1191 15.5948 103.1722 14.3217 C 103.3394 13.0913 102.5093 11.947 101.2878 11.724 C 100.3625 11.4494 100.296 10.9195 100.3573 10.1682 C 100.3864 9.8111 100.5119 9.6984 100.8495 9.8301 C 101.0191 9.8963 101.1946 9.9488 101.3694 10.0008 C 101.5781 10.0886 101.8142 10.0847 102.0199 9.99 C 102.2256 9.8954 102.3821 9.7186 102.4512 9.5029 C 102.5529 9.2999 102.5667 9.0639 102.4891 8.8505 C 102.4116 8.637 102.2497 8.4649 102.0414 8.3744 C 101.7054 8.1764 101.3345 8.0447 100.9489 7.9865 C 100.5327 7.9426 100.3138 7.8405 100.3552 7.3901 C 100.3739 7.2983 100.3522 7.2029 100.2957 7.1282 C 100.2393 7.0535 100.1534 7.0066 100.06 6.9995 C 99.8385 6.9692 99.6684 7.1018 99.6901 7.2982 C 99.7534 7.8732 99.3831 7.9419 98.9586 8.0799 C 97.7938 8.4316 96.9981 9.5063 97.0015 10.723 C 97.0058 11.7871 97.5622 12.5253 98.8928 12.8905 C 99.6578 13.1004 99.743 13.5233 99.6669 14.014 Z " fill="#fafcfe" stroke-width="1" stroke="none"/><path d="M 99.6669 14.014 C 99.743 13.5232 99.6578 13.1004 98.8928 12.8905 C 97.5621 12.5253 97.0058 11.787 97.0014 10.723 C 96.9981 9.5062 97.7938 8.4316 98.9586 8.0799 C 99.383 7.9419 99.7534 7.8731 99.69 7.2982 C 99.6684 7.1018 99.8385 6.9692 100.06 6.9995 C 100.1534 7.0066 100.2392 7.0535 100.2957 7.1282 C 100.3522 7.2029 100.3738 7.2983 100.3552 7.3901 C 100.3137 7.8405 100.5326 7.9426 100.9489 7.9865 C 101.3345 8.0447 101.7054 8.1764 102.0413 8.3744 C 102.2497 8.4648 102.4116 8.637 102.4891 8.8505 C 102.5666 9.0639 102.5529 9.2999 102.4512 9.5029 C 102.3821 9.7186 102.2256 9.8954 102.0199 9.99 C 101.8141 10.0847 101.5781 10.0886 101.3694 10.0008 C 101.1946 9.9488 101.0191 9.8963 100.8494 9.8301 C 100.5119 9.6984 100.3864 9.8111 100.3573 10.1682 C 100.296 10.9195 100.3624 11.4493 101.2878 11.724 C 102.5093 11.9469 103.3394 13.0913 103.1722 14.3217 C 103.1191 15.5948 102.1967 16.6639 100.9451 16.9031 C 100.6328 16.9838 100.3189 17.0041 100.356 17.4564 C 100.3765 17.7061 100.2936 17.9541 99.9868 17.9442 C 99.7239 17.9357 99.6666 17.7033 99.6715 17.484 C 99.681 17.0604 99.4619 16.999 99.0799 16.9763 C 98.4757 16.9673 97.8889 16.7725 97.3993 16.4184 C 97.0264 16.1893 96.8764 15.7225 97.046 15.3191 C 97.1956 14.9039 97.6474 14.6821 98.0673 14.8176 C 98.2469 14.8487 98.424 14.8925 98.5973 14.9488 C 99.7553 15.3347 99.6648 15.3511 99.6669 14.014 Z M 100.3085 14.3359 C 100.545 14.515 100.1076 15.0232 100.6146 15.024 C 100.9682 15.0245 101.1247 14.6056 101.149 14.2588 C 101.1757 13.877 100.9309 13.5131 100.5945 13.5372 C 100.141 13.5697 100.4762 14.0433 100.3085 14.3359 Z M 99.6182 9.8234 C 99.4265 9.8312 99.254 9.9421 99.1672 10.1132 C 98.9852 10.3475 99.0118 10.6819 99.2285 10.8845 C 99.3177 10.97 99.4391 11.1052 99.5555 11.0171 C 99.7723 10.853 99.6448 10.5916 99.6608 10.3736 C 99.6606 10.1894 99.6464 10.0055 99.6182 9.8235 Z " fill="#0a7afe" stroke-width="1" stroke="none"/><path d="M 100.3085 14.3359 C 100.4762 14.0433 100.141 13.5697 100.5945 13.5372 C 100.9309 13.5131 101.1758 13.877 101.149 14.2588 C 101.1247 14.6056 100.9682 15.0246 100.6146 15.024 C 100.1076 15.0232 100.545 14.515 100.3085 14.3359 Z " fill="#fafcfe" stroke-width="1" stroke="none"/><path d="M 99.6182 9.8235 C 99.6464 10.0055 99.6606 10.1895 99.6608 10.3737 C 99.6448 10.5916 99.7723 10.8531 99.5555 11.0172 C 99.439 11.1053 99.3177 10.9701 99.2284 10.8846 C 99.0117 10.682 98.9851 10.3476 99.1671 10.1132 C 99.254 9.9421 99.4265 9.8313 99.6182 9.8235 Z " fill="#fafcfe" stroke-width="1" stroke="none"/><g><path d="M 18.8168 37.8755 C 18.8168 35.9739 20.2704 34.6847 22.0441 34.6847 C 22.5346 34.6728 23.0217 34.7696 23.4704 34.9682 C 23.8362 35.1602 24.0191 35.3613 24.0191 35.6814 C 24.0189 35.8325 23.9576 35.9771 23.849 36.0822 C 23.7404 36.1872 23.5939 36.2438 23.4429 36.2391 C 23.2731 36.2308 23.1074 36.1839 22.9584 36.102 C 22.6823 35.9798 22.3826 35.9205 22.0808 35.9283 C 20.883 35.9283 20.2795 36.8698 20.2795 37.8755 C 20.2795 38.8721 20.883 39.8047 22.0624 39.8047 C 22.3767 39.809 22.6883 39.7467 22.9767 39.6218 C 23.1495 39.5175 23.3429 39.4521 23.5435 39.43 C 23.6988 39.4241 23.8496 39.4826 23.9604 39.5916 C 24.0712 39.7006 24.132 39.8505 24.1287 40.0059 C 24.1247 40.2229 24.02 40.4256 23.8454 40.5544 C 23.5618 40.7921 22.9584 41.0848 22.0624 41.0848 C 20.2156 41.0848 18.8168 39.7955 18.8168 37.8756 Z " stroke-width="1" fill="#191919" stroke="none"/><path d="M 25.2272 40.4724 C 24.8061 40.0617 24.5708 39.497 24.5757 38.9087 C 24.5757 37.6379 25.5814 36.7694 26.8067 36.7694 C 28.0409 36.7694 29.0375 37.6378 29.0375 38.9087 C 29.0439 39.4974 28.8091 40.063 28.3877 40.4741 C 27.9663 40.8851 27.395 41.1058 26.8067 41.0847 C 26.2188 41.1043 25.6483 40.8831 25.2272 40.4724 Z M 25.9472 38.9088 C 25.9472 39.5762 26.3678 39.9328 26.8067 39.9328 C 27.2456 39.9328 27.6662 39.5762 27.6662 38.9088 C 27.6662 38.2505 27.2456 37.9214 26.8067 37.9214 C 26.3678 37.9214 25.9472 38.2505 25.9472 38.9088 Z " stroke-width="1" fill="#191919" stroke="none"/><path d="M 31.1855 37.4916 L 31.1855 40.3534 C 31.1887 40.5972 31.0605 40.8239 30.8498 40.9468 C 30.6392 41.0696 30.3787 41.0696 30.168 40.9468 C 29.9574 40.8239 29.8291 40.5972 29.8323 40.3534 L 29.8323 37.4916 C 29.8379 37.1203 30.1376 36.8206 30.5089 36.815 C 30.8816 36.8174 31.1831 37.1189 31.1855 37.4916 Z " stroke-width="1" fill="#191919" stroke="none"/><path d="M 31.0136 34.9507 C 31.1477 35.0832 31.2229 35.2642 31.222 35.4527 C 31.222 35.8404 30.9087 36.1551 30.521 36.1568 C 30.1333 36.1585 29.8173 35.8465 29.8139 35.4588 C 29.8106 35.0712 30.1213 34.7538 30.5089 34.7488 C 30.6975 34.7455 30.8794 34.8183 31.0136 34.9507 Z " stroke-width="1" fill="#191919" stroke="none"/><path d="M 36.1589 40.3534 C 36.1621 40.5972 36.0339 40.8239 35.8232 40.9468 C 35.6126 41.0696 35.3521 41.0696 35.1414 40.9468 C 34.9308 40.8239 34.8025 40.5972 34.8057 40.3534 L 34.8057 38.5796 C 34.8057 38.2047 34.6593 37.9214 34.2479 37.9214 C 33.9341 37.9341 33.6578 38.1316 33.544 38.4242 L 33.544 40.3534 C 33.5472 40.5972 33.419 40.8239 33.2083 40.9468 C 32.9976 41.0696 32.7372 41.0696 32.5265 40.9468 C 32.3158 40.8239 32.1876 40.5972 32.1908 40.3534 L 32.1908 37.4916 C 32.1904 37.312 32.2615 37.1397 32.3885 37.0127 C 32.5155 36.8857 32.6878 36.8146 32.8674 36.815 C 33.1973 36.8187 33.4778 37.0569 33.5348 37.3818 C 33.8297 36.9982 34.2852 36.7722 34.769 36.7694 C 35.5004 36.7694 36.1589 37.2539 36.1589 38.2688 L 36.1589 40.3534 Z " stroke-width="1" fill="#191919" stroke="none"/><path d="M 38.7547 41.0847 C 38.2669 41.0882 37.784 40.9885 37.3375 40.7921 C 37.1044 40.708 36.9453 40.4912 36.9351 40.2436 C 36.9289 40.1092 36.9784 39.9781 37.0718 39.8813 C 37.1652 39.7844 37.2944 39.7303 37.429 39.7316 C 37.6282 39.7512 37.8229 39.8037 38.005 39.887 C 38.2401 39.9693 38.4872 40.0126 38.7363 40.0151 C 39.1111 40.0151 39.2575 39.9328 39.2575 39.7955 C 39.2575 39.6037 38.9375 39.5395 38.4072 39.3841 C 37.5752 39.1373 37.0176 38.8629 37.0176 38.0951 C 37.0176 37.3362 37.6027 36.7694 38.7363 36.7694 C 39.1535 36.771 39.5675 36.842 39.9614 36.9796 C 40.2093 37.0429 40.3849 37.2633 40.3911 37.5191 C 40.4045 37.6563 40.3597 37.7929 40.2675 37.8954 C 40.1754 37.9979 40.0445 38.0571 39.9066 38.0584 C 39.7382 38.0419 39.5724 38.005 39.4129 37.9487 C 39.1928 37.8854 38.9653 37.8516 38.7363 37.8483 C 38.4164 37.8483 38.2701 37.9214 38.2701 38.0584 C 38.2701 38.2322 38.4895 38.287 39.1752 38.4882 C 39.9066 38.6984 40.5101 38.9544 40.5101 39.7408 C 40.5101 40.5361 39.8883 41.0848 38.7547 41.0848 Z " stroke-width="1" fill="#191919" stroke="none"/></g></g></g></svg>