<svg xmlns="http://www.w3.org/2000/svg" xmlns:xlink="http://www.w3.org/1999/xlink" version="1.1" width="62.7012" height="35.10445" viewBox="0,0,62.7012,35.10445"><g><g data-paper-data="{&quot;isPaintingLayer&quot;:true}" fill-rule="nonzero" stroke-linecap="butt" stroke-linejoin="miter" stroke-miterlimit="10" stroke-dasharray="" stroke-dashoffset="0" style="mix-blend-mode: normal"><path d="M 13.3731 30.6036 L 13.3731 32.4474 C 13.3493 33.9217 12.1474 35.1045 10.6729 35.1045 C 9.1984 35.1045 7.9964 33.9217 7.9727 32.4474 L 7.9727 30.7755 C 5.872 30.5826 3.8314 29.9703 1.9717 28.9747 C 0.8162 28.4319 0.0569 27.2931 0 26.0177 C -0.0007 25.2672 0.2972 24.5472 0.8279 24.0165 C 1.3586 23.4858 2.0786 23.1879 2.8291 23.1886 C 3.5831 23.2367 4.316 23.4568 4.9717 23.8322 C 6.6777 24.6863 8.5508 25.1544 10.458 25.2033 C 12.2588 25.2033 13.9726 24.5177 13.9726 23.0607 C 13.9726 18.8595 0.7715 20.5314 0.7715 11.8732 C 0.7715 7.4162 4.2432 5.0587 7.9726 4.2443 L 7.9726 2.6583 C 7.9957 1.1835 9.1978 0 10.6728 0 C 12.1478 0 13.35 1.1835 13.373 2.6583 L 13.373 3.9864 C 14.6363 4.096 15.8776 4.3847 17.0596 4.8439 C 18.9453 5.6153 20.1455 6.5157 20.1455 8.1446 C 20.1469 8.884 19.8539 9.5935 19.331 10.1163 C 18.8082 10.6391 18.0987 10.9322 17.3594 10.9308 C 16.6995 10.91 16.0477 10.7797 15.4307 10.545 C 13.9107 10.0191 12.3226 9.7158 10.7158 9.6446 C 8.7871 9.6446 7.2441 10.4591 7.2441 11.6163 C 7.2441 15.6446 20.831 14.4454 20.831 22.7169 C 20.8311 27.046 17.4873 29.7472 13.3731 30.6036 Z " stroke-width="1" fill="#1b1b1b" stroke="none"/><path d="M 36.044 4.4581 L 36.044 27.7325 C 36.0172 29.4731 34.6127 30.8777 32.8721 30.9044 C 32.0303 30.9063 31.2224 30.5728 30.6271 29.9775 C 30.0318 29.3822 29.6983 28.5743 29.7002 27.7325 L 29.7002 8.4444 L 27.043 9.5157 C 26.5575 9.7403 26.034 9.8712 25.5 9.9015 C 23.9058 9.8815 22.6248 8.5817 22.6279 6.9874 C 22.6354 5.7138 23.4415 4.5819 24.6426 4.1583 L 30.4717 1.7579 C 31.1969 1.4028 31.9816 1.1849 32.7861 1.1153 C 33.6681 1.1053 34.5156 1.4571 35.1312 2.0887 C 35.7468 2.7204 36.0767 3.5767 36.044 4.4581 Z " stroke-width="1" fill="#1b1b1b" stroke="none"/><path d="M 41.1846 16.2882 C 41.1846 6.3009 45.9854 1.1573 51.9434 1.1573 C 57.9014 1.1573 62.7012 6.13 62.7012 16.2882 C 62.7012 26.2745 57.9014 31.1612 51.9434 31.1612 C 45.9854 31.1612 41.1846 26.2745 41.1846 16.2882 Z M 55.9297 16.1593 C 55.9297 9.8585 54.3867 7.0724 51.9434 7.0724 C 49.543 7.0724 47.9141 9.8585 47.9141 16.1593 C 47.9141 22.4171 49.543 25.2892 51.9434 25.2892 C 54.3438 25.2892 55.9297 22.4171 55.9297 16.1593 Z " stroke-width="1" fill="#1b1b1b" stroke="none"/></g></g></svg>