<svg xmlns="http://www.w3.org/2000/svg" xmlns:xlink="http://www.w3.org/1999/xlink" version="1.1" width="162.34616" height="45.88463" viewBox="0,0,162.34616,45.88463"><g><g data-paper-data="{&quot;isPaintingLayer&quot;:true}" fill-rule="nonzero" stroke-linecap="butt" stroke-linejoin="miter" stroke-miterlimit="10" stroke-dasharray="" stroke-dashoffset="0" style="mix-blend-mode: normal"><path d="M158.82692,195.64776c0,-12.07906 0,-25.21538 0,-32.04334c0,-4.75201 7.69996,0.81755 7.69996,0.81755c0,0 -6.27515,-7.36428 -1.19925,-7.36428c7.27289,0 136.50502,0 149.50509,0c-2.07858,4.73378 1.31653,4.44905 1.31653,4.44905c0,0 5.02383,-1.86791 5.02383,3.06186c0,6.70667 0,19.66481 0,31.61746c0,6.4568 -6.62834,0.11055 -6.62834,0.11055c0,0 4.45709,6.64571 -0.44153,6.64571c-7.20544,0 -135.29316,0 -148.45713,0c-6.70708,0 -1.09678,-5.82859 -1.09678,-5.82859c0,0 -5.72239,4.56774 -5.72239,-1.46597z" stroke-width="0" fill="#7f7f7f" stroke="none" transform="matrix(1,0,0,1,-158.82692,-157.05768)"/><path d="M158.88826,163.43716c0,-3.51346 2.85425,-6.36167 6.37513,-6.36167c3.52088,0 6.37513,2.84821 6.37513,6.36167c0,3.51346 -2.85425,6.36167 -6.37513,6.36167c-3.52087,0 -6.37513,-2.84821 -6.37513,-6.36167z" stroke-width="0" fill="#7f7f7f" stroke="none" transform="matrix(1,0,0,1,-158.82692,-157.05768)"/><path d="M308.3956,163.44425c0,-3.51346 2.85425,-6.36167 6.37514,-6.36167c3.52088,0 6.37513,2.84822 6.37513,6.36167c0,3.51346 -2.85425,6.36166 -6.37513,6.36166c-3.52088,0 -6.37513,-2.84821 -6.37513,-6.36166z" stroke-width="0" fill="#7f7f7f" stroke="none" transform="matrix(1,0,0,1,-158.82692,-157.05768)"/><path d="M308.2966,196.57791c0,-3.51346 2.85425,-6.36168 6.37514,-6.36168c3.52088,0 6.37513,2.84823 6.37513,6.36168c0,3.51346 -2.85425,6.36166 -6.37513,6.36166c-3.52088,0 -6.37513,-2.84822 -6.37513,-6.36166z" stroke-width="0" fill="#7f7f7f" stroke="none" transform="matrix(1,0,0,1,-158.82692,-157.05768)"/><path d="M158.84687,196.46334c0,-3.51346 2.85426,-6.36166 6.37515,-6.36166c3.52088,0 6.37513,2.84821 6.37513,6.36167c0,3.51346 -2.85425,6.36167 -6.37513,6.36167c-3.52088,0 -6.37515,-2.84821 -6.37515,-6.36167z" stroke-width="0" fill="#7f7f7f" stroke="none" transform="matrix(1,0,0,1,-158.82692,-157.05768)"/></g></g></svg>