<svg xmlns="http://www.w3.org/2000/svg" xmlns:xlink="http://www.w3.org/1999/xlink" version="1.1" width="48.18438" height="47.31596" viewBox="0,0,48.18438,47.31596"><g><g data-paper-data="{&quot;isPaintingLayer&quot;:true}" fill-rule="nonzero" stroke-linecap="butt" stroke-linejoin="miter" stroke-miterlimit="10" stroke-dasharray="" stroke-dashoffset="0" style="mix-blend-mode: normal"><path d="M 29.2014 1.1179 L 25.6983 1.2582 L 22.1922 1.2582 L 18.8052 1.1179 L 18.8052 0 L 29.2014 0 Z " fill="#e1dae9" stroke-width="1" stroke="none"/><path d="M 24.0922 39.017 L 24.0922 47.316 L 16.4783 45.7612 L 6.0286 36.0103 L 6.4455 35.3776 L 4.4061 33.2043 L 18.4582 33.2043 L 18.3688 33.2936 Z " fill="#aa160f" stroke-width="1" stroke="none"/><path d="M 24.0922 18.4232 L 24.0922 27.5776 L 18.4582 33.2043 L 4.4061 33.2043 L 6.7805 27.8827 L 5.9543 27.4213 L 13.7327 17.3713 Z " fill="#dd530b" stroke-width="1" stroke="none"/><path d="M 4.4061 33.2044 L 4.3986 33.2044 " fill="none" stroke-width="1" stroke="none"/><path d="M 24.0922 33.1857 L 24.0922 40.1591 L 17.2259 33.2928 L 17.3329 33.1857 Z " fill="#8763ac" stroke-width="1" stroke="none"/><path d="M 24.0922 26.4355 L 24.0922 33.1857 L 17.3329 33.1857 Z " fill="#efd2f4" stroke-width="1" stroke="none"/><path d="M 5.2598 33.2043 L 4.3987 33.2043 L 0.0074 33.2043 L 0 33.197 L 5.3289 27.0717 L 5.9392 27.414 L 5.9543 27.4213 L 6.7766 27.8793 Z " fill="#efd2f4" stroke-width="1" stroke="none"/><path d="M 6.4304 35.3702 L 6.0139 36.003 L 5.5443 36.7044 L 0.0074 33.2043 L 5.2598 33.2043 Z " fill="#8763ac" stroke-width="1" stroke="none"/><path d="M 29.8156 33.2936 L 29.7262 33.2043 L 43.7783 33.2043 L 41.7389 35.3776 L 42.1558 36.0103 L 31.6124 45.835 L 24.0922 47.316 L 24.0922 39.017 Z " fill="#861833" stroke-width="1" stroke="none"/><path d="M 43.7783 33.2043 L 29.7262 33.2043 L 24.0922 27.5776 L 24.0922 18.4232 L 34.6299 17.3713 L 42.23 27.4213 L 41.4859 27.8305 L 41.4859 27.8383 Z " fill="#a11b1e" stroke-width="1" stroke="none"/><path d="M 43.7781 33.2044 L 43.7856 33.2044 " fill="none" stroke-width="1" stroke="none"/><path d="M 30.8511 33.1857 L 30.9585 33.2928 L 24.0922 40.1591 L 24.0922 33.1857 Z " fill="#432689" stroke-width="1" stroke="none"/><path d="M 30.8511 33.1857 L 24.0922 33.1857 L 24.0922 26.4355 Z " fill="#9a82db" stroke-width="1" stroke="none"/><path d="M 41.4889 27.834 L 42.2301 27.4213 L 42.2452 27.414 L 42.8551 27.0717 L 48.1844 33.197 L 48.1766 33.2043 L 43.7857 33.2043 L 42.7968 33.2043 Z " fill="#f7e0f4" stroke-width="1" stroke="none"/><path d="M 42.7968 33.2043 L 48.1766 33.2043 L 42.6397 36.7044 L 42.1705 36.003 L 41.7536 35.3702 Z " fill="#6a5aab" stroke-width="1" stroke="none"/><path d="M 34.6299 17.3713 L 24.0922 18.4232 L 13.7327 17.3713 Z " fill="#dfaeaa" stroke-width="1" stroke="none"/><path d="M 21.8158 17.7585 L 17.0972 17.4654 L 17.0972 11.9328 L 21.8158 12.2254 Z " fill="#d2d0e7" stroke-width="1" stroke="none"/><path d="M 21.65 17.7586 L 21.65 12.2256 L 26.3685 12.2256 L 26.3685 17.7586 Z " fill="#a69ec1" stroke-width="1" stroke="none"/><path d="M 31.0871 17.4654 L 26.3686 17.7585 L 26.3686 12.2254 L 31.0871 11.9328 Z " fill="#7f6d9d" stroke-width="1" stroke="none"/><path d="M 18.6504 16.4251 L 18.6504 13.5591 L 20.2625 13.5591 L 20.2625 16.4251 Z " fill="#2a183f" stroke-width="1" stroke="none"/><path d="M 23.1971 16.4251 L 23.1971 13.5591 L 24.8092 13.5591 L 24.8092 16.4251 Z " fill="#2a183f" stroke-width="1" stroke="none"/><path d="M 27.9217 16.4251 L 27.9217 13.5591 L 29.5338 13.5591 L 29.5338 16.4251 Z " fill="#2a183f" stroke-width="1" stroke="none"/><path d="M 22.3683 11.8145 L 18.9671 11.603 L 18.9671 1.6609 L 22.3683 1.872 Z " fill="#d2d0e7" stroke-width="1" stroke="none"/><path d="M 22.2489 11.8144 L 22.2489 1.872 L 25.6501 1.872 L 25.6501 11.8144 Z " fill="#a69ec1" stroke-width="1" stroke="none"/><path d="M 29.0511 11.603 L 25.6499 11.8145 L 25.6499 1.872 L 29.0511 1.6609 Z " fill="#7f6d9d" stroke-width="1" stroke="none"/><path d="M 20.0868 4.899 L 20.0868 2.8332 L 21.2488 2.8332 L 21.2488 4.899 Z " fill="#2a183f" stroke-width="1" stroke="none"/><path d="M 23.3642 4.899 L 23.3642 2.8332 L 24.5262 2.8332 L 24.5262 4.899 Z " fill="#2a183f" stroke-width="1" stroke="none"/><path d="M 26.7697 4.899 L 26.7697 2.8332 L 27.9317 2.8332 L 27.9317 4.899 Z " fill="#2a183f" stroke-width="1" stroke="none"/><path d="M 31.0871 12.036 L 26.4515 12.2254 L 21.7329 12.2254 L 17.0972 12.036 L 17.0972 11.2776 L 21.7329 11.4675 L 26.4515 11.4675 L 31.0871 11.2776 Z " fill="#e1dae9" stroke-width="1" stroke="none"/><path d="M 29.2074 1.72 L 25.7626 1.872 L 22.256 1.872 L 18.8112 1.72 L 18.8112 1.1136 L 22.256 1.2655 L 25.7626 1.2655 L 29.2074 1.1136 Z " fill="#bfb3c8" stroke-width="1" stroke="none"/></g></g></svg>