<svg xmlns="http://www.w3.org/2000/svg" xmlns:xlink="http://www.w3.org/1999/xlink" version="1.1" width="45.67948" height="29.21606" viewBox="0,0,45.67948,29.21606"><g><g data-paper-data="{&quot;isPaintingLayer&quot;:true}" fill-rule="nonzero" stroke-linecap="butt" stroke-linejoin="miter" stroke-miterlimit="10" stroke-dasharray="" stroke-dashoffset="0" style="mix-blend-mode: normal"><g><path d="M217.82057,189.76482c0,0 -4.66031,2.73134 -4.66031,-0.26143c0,-5.99132 0,-15.54818 0,-18.93491c0,-2.35704 3.55446,-1.55065 3.55446,-1.55065c0,0 -0.54906,-3.62584 1.96863,-3.62584c3.60742,0 28.10616,0 34.55431,0c3.28277,0 1.65267,4.0287 1.65267,4.0287c0,0 3.94941,-1.05569 3.94941,1.38952c0,3.32657 0,12.3617 0,18.29032c0,3.20263 -4.50233,0.74487 -4.50233,0.74487c0,0 1.64595,4.75388 -0.78381,4.75388c-3.57396,0 -28.18285,0 -34.71229,0c-3.32677,0 -1.02076,-4.83443 -1.02076,-4.83443z" stroke-width="0" fill="#ffc3a2" stroke="none" transform="matrix(1,0,0,1,-213.16026,-165.39199)"/><path d="M213.19011,170.83941c0,-3.00203 2.43878,-5.43565 5.44715,-5.43565c3.00837,0 5.44715,2.43362 5.44715,5.43565c0,3.00203 -2.43878,5.43565 -5.44715,5.43565c-3.00837,0 -5.44715,-2.43362 -5.44715,-5.43565z" stroke-width="0" fill="#ffc3a2" stroke="none" transform="matrix(1,0,0,1,-213.16026,-165.39199)"/><path d="M247.9442,170.91993c0,-3.00203 2.43877,-5.43565 5.44715,-5.43565c3.00837,0 5.44715,2.43362 5.44715,5.43565c0,3.00203 -2.43878,5.43565 -5.44715,5.43565c-3.00837,0 -5.44715,-2.43362 -5.44715,-5.43565z" stroke-width="0" fill="#ffc3a2" stroke="none" transform="matrix(1,0,0,1,-213.16026,-165.39199)"/><path d="M247.9442,189.15818c0,-3.00203 2.43877,-5.43566 5.44715,-5.43566c3.00837,0 5.44715,2.43363 5.44715,5.43566c0,3.00203 -2.43878,5.43564 -5.44715,5.43564c-3.00837,0 -5.44715,-2.43362 -5.44715,-5.43564z" stroke-width="0" fill="#ffc3a2" stroke="none" transform="matrix(1,0,0,1,-213.16026,-165.39199)"/><path d="M213.20404,189.17241c0,-3.00203 2.43878,-5.43565 5.44716,-5.43565c3.00837,0 5.44715,2.43362 5.44715,5.43565c0,3.00203 -2.43878,5.43565 -5.44715,5.43565c-3.00837,0 -5.44716,-2.43362 -5.44716,-5.43565z" stroke-width="0" fill="#ffc3a2" stroke="none" transform="matrix(1,0,0,1,-213.16026,-165.39199)"/></g><g><path d="M218.80312,188.72552c0,0 -4.21429,2.44682 -4.21429,-0.2342c0,-5.36721 0,-13.92853 0,-16.96246c0,-2.1115 3.21429,-1.38913 3.21429,-1.38913c0,0 -0.49652,-3.24814 1.78022,-3.24814c3.26217,0 26.78803,0 32.61905,0c2.96859,0 1.4945,3.60904 1.4945,3.60904c0,0 3.57143,-0.94571 3.57143,1.24477c0,2.98004 0,11.07398 0,16.38503c0,2.86902 -4.07143,0.66728 -4.07143,0.66728c0,0 1.48843,4.25867 -0.70879,4.25867c-3.23191,0 -26.85737,0 -32.76191,0c-3.00838,0 -0.92307,-4.33084 -0.92307,-4.33084z" stroke-width="0" fill="#fe5a01" stroke="none" transform="matrix(1,0,0,1,-213.16026,-165.39199)"/><path d="M214.61582,171.77154c0,-2.6893 2.20537,-4.86942 4.92583,-4.86942c2.72045,0 4.92583,2.18012 4.92583,4.86942c0,2.6893 -2.20537,4.86942 -4.92583,4.86942c-2.72045,0 -4.92583,-2.18012 -4.92583,-4.86942z" stroke-width="0" fill="#fe5a01" stroke="none" transform="matrix(1,0,0,1,-213.16026,-165.39199)"/><path d="M247.41553,171.84371c0,-2.6893 2.20537,-4.86942 4.92583,-4.86942c2.72045,0 4.92583,2.18012 4.92583,4.86942c0,2.6893 -2.20537,4.86942 -4.92583,4.86942c-2.72045,0 -4.92583,-2.18012 -4.92583,-4.86942z" stroke-width="0" fill="#fe5a01" stroke="none" transform="matrix(1,0,0,1,-213.16026,-165.39199)"/><path d="M247.41553,188.11538c0,-2.6893 2.20537,-4.86942 4.92583,-4.86942c2.72045,0 4.92583,2.18012 4.92583,4.86942c0,2.6893 -2.20537,4.86942 -4.92583,4.86942c-2.72045,0 -4.92583,-2.18012 -4.92583,-4.86942z" stroke-width="0" fill="#fe5a01" stroke="none" transform="matrix(1,0,0,1,-213.16026,-165.39199)"/><path d="M214.62842,188.1948c0,-2.6893 2.20537,-4.86942 4.92583,-4.86942c2.72045,0 4.92583,2.18012 4.92583,4.86942c0,2.6893 -2.20537,4.86942 -4.92583,4.86942c-2.72045,0 -4.92583,-2.18012 -4.92583,-4.86942z" stroke-width="0" fill="#fe5a01" stroke="none" transform="matrix(1,0,0,1,-213.16026,-165.39199)"/></g></g></g></svg>