<svg xmlns="http://www.w3.org/2000/svg" xmlns:xlink="http://www.w3.org/1999/xlink" version="1.1" width="26.8535" height="41.30648" viewBox="0,0,26.8535,41.30648"><g><g data-paper-data="{&quot;isPaintingLayer&quot;:true}" fill-rule="nonzero" stroke-linecap="butt" stroke-linejoin="miter" stroke-miterlimit="10" stroke-dasharray="" stroke-dashoffset="0" style="mix-blend-mode: normal"><g><path d="M 3.4534 33.2777 C 3.4534 33.2777 -0.1242 29.3231 0.0041 22.2492 C 0.0014 17.613 2.8128 15.1992 4.1098 4.4371 L 13.4271 4.4371 L 13.4271 25.7164 Z " fill="#fdd406" stroke-width="1" stroke="none"/><path d="M 13.4271 25.7164 L 13.4271 4.4371 L 22.7444 4.4371 C 24.2939 15.4382 26.8527 17.613 26.8501 22.2492 C 26.9783 29.3231 23.4128 33.2777 23.4128 33.2777 Z " fill="#eb9b08" stroke-width="1" stroke="none"/><path d="M 3.3349 4.4371 L 3.3349 2.581 L 13.4267 2.581 L 13.4267 4.4371 Z " fill="#e6a700" stroke-width="1" stroke="none"/><path d="M 13.4267 4.4371 L 13.4267 2.581 L 23.5185 2.581 L 23.5185 4.4371 Z " fill="#c67500" stroke-width="1" stroke="none"/><path d="M 13.4267 2.581 L 13.4267 0 L 23.5185 0 L 23.5185 2.581 Z " fill="#ed9416" stroke-width="1" stroke="none"/><path d="M 3.3349 2.581 L 3.3349 0 L 13.4267 0 L 13.4267 2.581 Z " fill="#fdca17" stroke-width="1" stroke="none"/><path d="M 13.4273 41.3065 L 0.0014 41.0917 L 0.0014 36.0432 L 13.4273 25.2492 " fill="#0e89c2" stroke-width="1" stroke="none"/><path d="M 13.4273 25.2492 L 26.8527 36.0432 L 26.8527 41.0917 L 13.4273 41.3065 " fill="#01508b" stroke-width="1" stroke="none"/><path d="M 13.4273 24.1163 L 13.4273 25.4114 L 0.0014 36.0432 L 0.0005 34.8572 Z " fill="#0f787e" stroke-width="1" stroke="none"/><path d="M 26.8532 34.8572 L 26.8522 36.0432 L 13.4268 25.4114 L 13.4268 24.1163 Z " fill="#0f3d54" stroke-width="1" stroke="none"/><path d="M 13.4263 22.9293 L 13.4263 24.2239 L 0.001 34.8562 L 0 33.6697 Z " fill="#f7ffff" stroke-width="1" stroke="none"/><path d="M 26.8527 33.6697 L 26.8517 34.8562 L 13.4264 24.2239 L 13.4264 22.9293 Z " fill="#f2f9f9" stroke-width="1" stroke="none"/></g></g></g></svg>