<svg xmlns="http://www.w3.org/2000/svg" xmlns:xlink="http://www.w3.org/1999/xlink" version="1.1" width="56.44596" height="29.88322" viewBox="0,0,56.44596,29.88322"><g><g data-paper-data="{&quot;isPaintingLayer&quot;:true}" fill-rule="nonzero" stroke-linecap="butt" stroke-linejoin="miter" stroke-miterlimit="10" stroke-dasharray="" stroke-dashoffset="0" style="mix-blend-mode: normal"><path d="M 56.1737 25.0828 C 56.168 25.1994 56.1562 25.3156 56.1384 25.4307 C 55.5809 26.482 54.9987 27.3904 53.7005 27.3886 C 36.6964 27.3739 19.6924 27.3708 2.6883 27.3792 C 1.9198 27.3805 1.2007 26.9539 0.7681 26.2402 C 0.5935 25.9869 0.4393 25.7159 0.2758 25.453 C 0.2668 19.1883 0.2582 12.9235 0.25 6.6588 C 0.2484 5.4292 0.2443 4.1996 0.2512 2.97 C 0.2828 1.4745 1.3597 0.2738 2.691 0.25 C 19.7145 0.2473 36.7381 0.2472 53.7616 0.2497 C 55.0446 0.2085 56.1189 1.3333 56.1727 2.774 C 56.1757 10.2103 56.176 17.6466 56.1737 25.0828 Z " fill="#92796b" stroke="#92796b" stroke-width="0.5"/><path d="M 0.3333 26.1087 C 0.4968 26.3427 0.651 26.5839 0.8257 26.8093 C 1.2582 27.4445 1.9773 27.8242 2.7458 27.8231 C 19.7499 27.8156 36.7539 27.8184 53.758 27.8314 C 55.0563 27.8331 55.6384 27.0246 56.196 26.0888 C 56.5318 27.8242 56.1115 28.7108 54.6341 29.488 C 54.4016 29.6003 54.144 29.6506 53.8864 29.634 C 36.8377 29.6354 19.789 29.6352 2.7403 29.6332 C 1.4198 29.579 0.3612 28.5217 0.3055 27.2012 C 0.3029 26.8371 0.3234 26.4729 0.3333 26.1087 Z " fill="#725f54" stroke="#725f54" stroke-width="0.5"/><g><path d="M 19.1971 6.8366 C 18.2806 6.8366 17.4245 6.2579 17.4245 5.052 L 17.4245 3.1108 C 17.4279 2.8567 17.6347 2.6525 17.8888 2.6525 C 18.1428 2.6525 18.3497 2.8567 18.353 3.1108 L 18.353 5.0461 C 18.353 5.7694 18.7629 6.0167 19.2031 6.0167 C 19.6251 6.0167 20.0531 5.7575 20.0531 5.0461 L 20.0531 3.0866 C 20.0701 2.8377 20.28 2.6464 20.5294 2.6525 C 20.6462 2.6505 20.759 2.6952 20.8428 2.7767 C 20.9265 2.8582 20.9743 2.9697 20.9755 3.0866 L 20.9755 5.052 C 20.9755 6.2579 20.1074 6.8366 19.1971 6.8366 Z " stroke-width="1" fill="#fdfdfd" stroke="none"/><path d="M 21.6685 7.8495 L 21.6685 4.4672 C 21.6627 4.2366 21.8402 4.0426 22.0704 4.028 C 22.3007 4.0134 22.5013 4.1834 22.5246 4.4129 C 22.6909 4.1514 22.9803 3.9941 23.2902 3.997 C 24.0258 3.997 24.5262 4.6421 24.5262 5.4198 C 24.5262 6.1373 24.044 6.8426 23.2481 6.8426 C 22.9891 6.8568 22.7373 6.7552 22.5607 6.5653 L 22.5607 7.8495 C 22.5596 8.0964 22.3615 8.2972 22.1147 8.3016 C 21.8669 8.2993 21.6675 8.0973 21.6685 7.8495 Z M 22.5607 5.7575 C 22.6524 5.9439 22.8414 6.0628 23.0492 6.0649 C 23.3808 6.0649 23.6218 5.7755 23.6218 5.4198 C 23.6218 5.058 23.3808 4.7746 23.0552 4.7746 C 22.8413 4.7838 22.6504 4.9118 22.5607 5.1062 Z " stroke-width="1" fill="#fdfdfd" stroke="none"/><path d="M 25.3817 6.6919 C 25.2641 6.6146 25.1938 6.4829 25.1948 6.3422 C 25.1948 6.1433 25.3033 6.0106 25.5144 5.9081 C 25.1699 5.7579 24.9489 5.4158 24.9537 5.04 C 24.9537 4.4069 25.5626 4.0513 26.262 4.0513 L 27.6426 4.0513 C 27.8475 4.0513 28.0103 4.1598 28.0103 4.3708 C 28.0116 4.4586 27.9756 4.5428 27.9113 4.6026 C 27.8469 4.6623 27.7603 4.692 27.6728 4.6842 C 27.5201 4.6795 27.3692 4.6489 27.2267 4.5938 L 27.2206 4.6058 C 27.4085 4.7292 27.5183 4.9419 27.5099 5.1665 C 27.5099 5.673 27.0698 6.0588 26.2619 6.0588 C 26.2216 6.06 26.1813 6.058 26.1413 6.0528 C 26.0936 6.0829 26.0642 6.1351 26.063 6.1915 C 26.063 6.294 26.1474 6.3121 26.6238 6.4025 C 27.4437 6.5592 27.8898 6.7341 27.8898 7.2827 C 27.8898 7.9038 27.311 8.3016 26.3041 8.3016 C 25.3093 8.3016 24.803 7.9098 24.803 7.4094 C 24.803 7.144 24.9477 6.8969 25.3817 6.6919 Z M 26.2319 4.6842 C 25.9485 4.6842 25.7736 4.8531 25.7736 5.058 C 25.7736 5.269 25.9545 5.4318 26.2319 5.4318 C 26.5032 5.4318 26.6839 5.269 26.6839 5.058 C 26.6839 4.8531 26.5152 4.6842 26.2319 4.6842 Z M 25.9725 6.933 C 25.7073 7.0657 25.647 7.2104 25.647 7.3068 C 25.647 7.524 25.9183 7.6987 26.3705 7.6987 C 26.8588 7.6987 27.0518 7.4998 27.0518 7.331 C 27.0518 7.1501 26.8287 7.12 26.3886 7.0296 C 26.2319 6.9994 26.0931 6.9693 25.9725 6.933 Z " stroke-width="1" fill="#fdfdfd" stroke="none"/><path d="M 28.3295 6.3604 L 28.3295 4.4733 C 28.33 4.2272 28.5296 4.0279 28.7757 4.0279 C 29.0218 4.0279 29.2214 4.2272 29.2219 4.4733 L 29.2219 4.5033 C 29.4208 4.1296 29.6559 3.997 29.9272 3.997 C 30.0406 3.994 30.1503 4.0373 30.231 4.1169 C 30.3118 4.1965 30.3566 4.3056 30.3552 4.419 C 30.3583 4.5361 30.3139 4.6495 30.2322 4.7335 C 30.1505 4.8175 30.0383 4.8649 29.9212 4.8652 C 29.6409 4.8485 29.3735 4.9845 29.2219 5.2208 L 29.2219 6.3604 C 29.2207 6.6073 29.0226 6.8081 28.7757 6.8124 C 28.5279 6.8102 28.3285 6.6081 28.3295 6.3603 Z " stroke-width="1" fill="#fdfdfd" stroke="none"/><path d="M 32.1275 5.1425 L 32.1275 5.0641 C 32.1275 4.8349 31.9949 4.7566 31.6874 4.7566 C 31.5569 4.7571 31.4271 4.7753 31.3015 4.8109 C 31.2271 4.834 31.1502 4.8482 31.0724 4.8531 C 30.9776 4.858 30.8848 4.8242 30.8155 4.7594 C 30.7461 4.6946 30.7061 4.6043 30.7047 4.5094 C 30.7011 4.358 30.7927 4.2206 30.9338 4.1657 C 31.2141 4.0549 31.5127 3.9977 31.814 3.997 C 32.5194 3.997 32.9716 4.3345 32.9716 4.9977 L 32.9716 6.3844 C 32.9753 6.6008 32.8143 6.7847 32.5993 6.8096 C 32.3843 6.8345 32.1855 6.6923 32.1396 6.4808 C 31.9113 6.7033 31.608 6.8323 31.2894 6.8426 C 31.0774 6.855 30.8696 6.7792 30.7154 6.633 C 30.5613 6.4868 30.4745 6.2834 30.4756 6.0709 C 30.4756 5.679 30.7107 5.456 31.0423 5.3233 C 31.3934 5.211 31.7589 5.1501 32.1275 5.1425 Z M 32.1275 5.6429 C 31.9829 5.6609 31.8441 5.679 31.7055 5.7091 C 31.4342 5.7634 31.3257 5.8358 31.3257 5.9624 C 31.3257 6.0891 31.4221 6.1613 31.5849 6.1613 C 31.7801 6.1484 31.9679 6.0816 32.1275 5.9685 Z " stroke-width="1" fill="#fdfdfd" stroke="none"/><path d="M 33.4896 5.4198 C 33.4896 4.6721 33.972 3.997 34.7377 3.997 C 35.0118 3.9877 35.2784 4.0874 35.4792 4.2743 L 35.4792 2.9359 C 35.477 2.7751 35.5616 2.6255 35.7005 2.5445 C 35.8394 2.4634 36.0112 2.4634 36.1502 2.5445 C 36.2891 2.6255 36.3736 2.7751 36.3715 2.9359 L 36.3715 6.3723 C 36.3756 6.4881 36.3323 6.6007 36.2515 6.6838 C 36.1706 6.7669 36.0594 6.8133 35.9435 6.8124 C 35.7353 6.8174 35.5553 6.6683 35.5215 6.4628 C 35.3339 6.7049 35.0439 6.8454 34.7377 6.8426 C 33.972 6.8426 33.4896 6.1613 33.4896 5.4198 Z M 34.5492 4.9729 C 34.4389 5.0946 34.3829 5.2559 34.394 5.4198 C 34.3839 5.5834 34.4403 5.7441 34.5504 5.8656 C 34.6605 5.987 34.815 6.0589 34.9787 6.0649 C 35.1921 6.0602 35.3851 5.937 35.4792 5.7454 L 35.4792 5.0761 C 35.3795 4.8922 35.1879 4.7768 34.9787 4.7746 C 34.8146 4.7796 34.6595 4.8512 34.5492 4.9729 Z " stroke-width="1" fill="#fdfdfd" stroke="none"/><path d="M 36.9196 5.4259 C 36.9196 4.5878 37.5165 3.997 38.3605 3.997 C 38.6914 3.9794 39.0147 4.0998 39.2535 4.3295 C 39.4923 4.5591 39.6252 4.8775 39.6205 5.2088 C 39.6287 5.318 39.5941 5.4261 39.5241 5.5102 C 39.4204 5.6022 39.2816 5.644 39.1443 5.6248 L 37.8058 5.6248 C 37.8903 5.9142 38.1374 6.077 38.5354 6.077 C 38.6469 6.0772 38.7581 6.065 38.8669 6.0407 C 38.9479 6.0202 39.0308 6.0081 39.1142 6.0046 C 39.2066 6.0038 39.2954 6.0406 39.3602 6.1065 C 39.425 6.1725 39.4602 6.2619 39.4577 6.3543 C 39.4576 6.5161 39.3565 6.6605 39.2046 6.716 C 38.9609 6.8031 38.7037 6.846 38.445 6.8426 C 37.5827 6.8426 36.9195 6.288 36.9195 5.4259 Z M 37.7939 5.1123 L 38.8549 5.1123 C 38.8524 4.9819 38.7957 4.8584 38.6985 4.7715 C 38.6013 4.6846 38.4723 4.6421 38.3425 4.6542 C 38.0685 4.6414 37.8302 4.8404 37.7939 5.1123 Z " stroke-width="1" fill="#fdfdfd" stroke="none"/></g></g></g></svg>