<svg xmlns="http://www.w3.org/2000/svg" viewBox="0 0 64.23083 36.23709" width="64.23082733154297" height="36.237091064453125"><g id="Calque_2" data-name="Calque 2"><g id="Calque_1-2" data-name="Calque 1"><rect width="64.23083" height="36.23709" rx="6.84453" style="fill:#707070;opacity:0.9" stroke-width="1"/><circle cx="16.4874" cy="18.06482" r="9.64227" style="fill:#fcb40f" stroke-width="1"/><circle cx="16.4874" cy="18.06482" r="7.34857" style="fill:#fdd264" stroke-width="1"/><path d="M16.48732,25.99321a7.92841,7.92841,0,1,1,7.92812-7.92841A7.93717,7.93717,0,0,1,16.48732,25.99321Zm0-14.69766a6.76926,6.76926,0,1,0,6.769,6.76925A6.77669,6.77669,0,0,0,16.48732,11.29555Z" style="fill:#eaab0c" stroke-width="1"/><path d="M15.55588,16.32107c0-.3403.45312-.5795,1.01968-.5795a4.90268,4.90268,0,0,1,1.38495.26448,1.74876,1.74876,0,0,0,.56656.11343.81668.81668,0,0,0,.81839-.81809c0-.47839-.35263-.74287-.90655-.96974a3.91,3.91,0,0,0-1.08256-.25153v-.39024a.79338.79338,0,0,0-1.58655,0v.46545a2.35412,2.35412,0,0,0-2.11488,2.241c0,2.54365,3.87744,2.0523,3.87744,3.2859,0,.42847-.50337.63006-1.03232.63006a3.81429,3.81429,0,0,1-1.61151-.40319,1.45926,1.45926,0,0,0-.62944-.18864.83021.83021,0,0,0-.831.831,1.0098,1.0098,0,0,0,.57919.86864,4.64123,4.64123,0,0,0,1.76255.52833v.49135a.79338.79338,0,0,0,1.58655,0v-.54128a2.44155,2.44155,0,0,0,2.1904-2.31678C19.54675,17.15211,15.55588,17.50474,15.55588,16.32107Z" style="fill:#e3a71a" stroke-width="1"/></g></g></svg>