<svg xmlns="http://www.w3.org/2000/svg" xmlns:xlink="http://www.w3.org/1999/xlink" version="1.1" width="25.26196" height="39.87368" viewBox="0,0,25.26196,39.87368"><g><g data-paper-data="{&quot;isPaintingLayer&quot;:true}" fill-rule="nonzero" stroke-linecap="butt" stroke-linejoin="miter" stroke-miterlimit="10" stroke-dasharray="" stroke-dashoffset="0" style="mix-blend-mode: normal"><path d="M 12.5717 19.5282 L 12.5717 28.8321 L 11.1455 28.8321 L 11.1455 25.8136 L 8.4766 25.8136 L 8.4766 28.8321 L 5.9555 28.8321 L 5.9555 25.8136 L 3.2866 25.8136 L 3.2866 28.8321 L 1.6303 28.8321 L 3.0842 19.5492 L 8.4766 11.0961 Z " fill="#a0a307" stroke-width="1" stroke="none"/><path d="M 12.5717 19.5282 L 16.8628 10.8643 L 22.105 19.5492 L 23.5589 28.8321 L 22.0221 28.8321 L 22.0221 25.8136 L 19.3536 25.8136 L 19.3536 28.8321 L 16.8321 28.8321 L 16.8321 25.8136 L 14.1636 25.8136 L 14.1636 28.8321 L 12.5717 28.8321 L 12.5717 19.5282 L 12.5809 19.5492 " fill="#6b7a1c" stroke-width="1" stroke="none"/><path d="M 11.1434 28.8296 L 12.5792 28.8296 L 12.5792 36.1831 L 0.4785 36.1831 L 1.6286 28.8296 L 3.2849 28.8296 L 3.2849 25.811 L 5.9534 25.811 L 5.9534 28.8296 L 8.4749 28.8296 L 8.4749 25.811 L 11.1434 25.811 Z " fill="#5f4f28" stroke-width="1" stroke="none"/><path d="M 24.7073 36.1831 L 12.6066 36.1831 L 12.6066 28.8296 L 14.1619 28.8296 L 14.1619 25.811 L 16.8304 25.811 L 16.8304 28.8296 L 19.3515 28.8296 L 19.3515 25.811 L 22.0204 25.811 L 22.0204 28.8296 L 23.5568 28.8296 Z " fill="#5f4f28" stroke-width="1" stroke="none"/><path d="M 12.5792 28.8296 L 12.6066 39.8737 L 0 39.2946 L 1.6286 28.8296 Z " fill="#294a7c" stroke-width="1" stroke="none"/><path d="M 3.285 28.8294 L 3.285 25.8112 L 5.9536 25.8112 L 5.9536 28.8294 Z " fill="#294a7c" stroke-width="1" stroke="none"/><path d="M 8.475 28.8294 L 8.475 25.8112 L 11.1435 25.8112 L 11.1435 28.8294 Z " fill="#294a7c" stroke-width="1" stroke="none"/><path d="M 25.262 39.2946 L 12.6066 39.8737 L 12.5792 28.8296 L 23.5568 28.8296 Z " fill="#352b6d" stroke-width="1" stroke="none"/><path d="M 14.1618 28.8294 L 14.1618 25.8112 L 16.8304 25.8112 L 16.8304 28.8294 Z " fill="#352b6d" stroke-width="1" stroke="none"/><path d="M 19.3517 28.8294 L 19.3517 25.8112 L 22.0203 25.8112 L 22.0203 28.8294 Z " fill="#352b6d" stroke-width="1" stroke="none"/><path d="M 12.5927 4.0272 L 12.5653 19.5227 L 8.4611 11.0696 L 3.0686 19.5227 L 5.4888 4.0272 Z " fill="#cf1201" stroke-width="1" stroke="none"/><path d="M 22.0894 19.5467 L 16.7336 11.0936 L 12.5716 19.5282 L 12.5927 4.0507 L 19.7058 4.0507 L 21.9236 18.4471 Z " fill="#9e120b" stroke-width="1" stroke="none"/><path d="M 4.6672 4.0509 L 4.6672 1.3503 L 12.5928 1.3503 L 12.5928 4.0509 Z " fill="#b3c4b3" stroke-width="1" stroke="none"/><path d="M 12.5717 4.0509 L 12.5717 1.3503 L 20.4973 1.3503 L 20.4973 4.0509 Z " fill="#81898b" stroke-width="1" stroke="none"/><path d="M 4.6672 1.3503 L 4.6672 0 L 12.5928 0 L 12.5928 1.3503 Z " fill="#dae2e9" stroke-width="1" stroke="none"/><path d="M 12.5717 1.3503 L 12.5717 0 L 20.4973 0 L 20.4973 1.3503 Z " fill="#c9cfd3" stroke-width="1" stroke="none"/></g></g></svg>