<svg xmlns="http://www.w3.org/2000/svg" xmlns:xlink="http://www.w3.org/1999/xlink" version="1.1" width="64.48199" height="30.25075" viewBox="0,0,64.48199,30.25075"><g><g data-paper-data="{&quot;isPaintingLayer&quot;:true}" fill-rule="nonzero" stroke-linecap="butt" stroke-linejoin="miter" stroke-miterlimit="10" stroke-dasharray="" stroke-dashoffset="0" style="mix-blend-mode: normal"><path d="M207.81765,190.38207c0.16515,0.23401 0.32086,0.47525 0.49727,0.70063c0.43685,0.63524 1.16318,1.01493 1.93937,1.01381c17.17396,-0.00749 42.21024,-0.00472 59.38419,0.00834c1.31126,0.00161 1.89924,-0.80687 2.46234,-1.7426c0.33922,1.73533 -0.08534,3.71284 -1.57745,4.49009c-0.23483,0.11227 -0.49499,0.16255 -0.75522,0.14599c-17.21904,0.0014 -42.30039,0.00114 -59.51942,-0.0008c-1.33373,-0.0542 -2.40287,-2.20243 -2.45919,-3.52289c-0.00259,-0.3641 0.01811,-0.72837 0.02812,-1.09256z" fill="#725f54" stroke="#725f54" stroke-width="0" transform="matrix(1,0,0,1,-207.75679,-164.75067)"/><path d="M 64.232 25.0828 C 64.2263 25.1994 64.2145 25.3156 64.1967 25.4307 C 63.6391 26.482 63.057 27.3904 61.7587 27.3886 C 44.7546 27.3739 19.6923 27.3708 2.6883 27.3792 C 1.9198 27.3805 1.2007 26.9539 0.7681 26.2402 C 0.5935 25.9869 0.4393 25.7159 0.2758 25.453 C 0.2668 19.1883 0.2582 12.9235 0.25 6.6588 C 0.2484 5.4292 0.2443 4.1996 0.2512 2.97 C 0.2828 1.4745 1.3597 0.2738 2.691 0.25 C 19.7145 0.2473 44.7963 0.2472 61.8199 0.2497 C 63.1028 0.2085 64.1771 1.3333 64.2309 2.774 C 64.2339 10.2103 64.2343 17.6465 64.232 25.0828 Z " fill="#92796b" stroke="#92796b" stroke-width="0.5"/><g><path d="M 5.2176 14.0999 C 5.2176 10.4399 8.0153 7.9586 11.4287 7.9586 C 12.373 7.9357 13.3106 8.122 14.1742 8.5043 C 14.8783 8.8739 15.2303 9.2608 15.2303 9.877 C 15.2299 10.1678 15.1118 10.446 14.9029 10.6483 C 14.6939 10.8505 14.412 10.9594 14.1213 10.9503 C 13.7944 10.9345 13.4755 10.8443 13.1888 10.6865 C 12.6573 10.4513 12.0803 10.3371 11.4993 10.3521 C 9.194 10.3521 8.0329 12.1643 8.0329 14.0999 C 8.0329 16.0179 9.194 17.8129 11.464 17.8129 C 12.069 17.8213 12.6688 17.7013 13.2241 17.4609 C 13.5565 17.2603 13.9286 17.1343 14.3146 17.0916 C 14.6135 17.0803 14.9039 17.1929 15.1172 17.4027 C 15.3304 17.6125 15.4476 17.9011 15.4412 18.2002 C 15.4335 18.6177 15.232 19.0079 14.8959 19.2558 C 14.3498 19.7133 13.1888 20.2766 11.464 20.2766 C 7.9094 20.2766 5.2176 17.7953 5.2176 14.0999 Z " stroke-width="1" fill="#ffffff" stroke="none"/><path d="M 16.3015 16.0885 C 16.3015 13.6425 18.2372 11.971 20.5954 11.971 C 22.9705 11.971 24.8885 13.6425 24.8885 16.0885 C 24.8305 18.4181 22.9253 20.2764 20.595 20.2764 C 18.2647 20.2764 16.3595 18.4181 16.3015 16.0885 Z M 22.2496 16.0885 C 22.2496 14.8216 21.4398 14.1881 20.5954 14.1881 C 19.7503 14.1881 18.9412 14.8216 18.9412 16.0885 C 18.9412 17.3731 19.7503 18.0594 20.5954 18.0594 C 21.4398 18.0594 22.2496 17.3731 22.2496 16.0885 Z " stroke-width="1" fill="#ffffff" stroke="none"/><path d="M 26.4537 18.8689 L 26.4537 8.8739 C 26.4486 8.1566 27.0211 7.5684 27.7382 7.5541 C 28.465 7.5592 29.053 8.1471 29.0581 8.8739 L 29.0581 18.8689 C 29.0643 19.3382 28.8174 19.7746 28.412 20.011 C 28.0066 20.2475 27.5052 20.2475 27.0998 20.011 C 26.6944 19.7746 26.4475 19.3382 26.4537 18.8689 Z " stroke-width="1" fill="#ffffff" stroke="none"/><path d="M 31.0635 18.8689 L 31.0635 8.8739 C 31.0584 8.1566 31.6309 7.5684 32.3481 7.5541 C 33.0747 7.5595 33.6625 8.1472 33.6679 8.8739 L 33.6679 18.8689 C 33.6741 19.3382 33.4272 19.7746 33.0218 20.011 C 32.6164 20.2475 32.115 20.2475 31.7096 20.011 C 31.3042 19.7746 31.0573 19.3382 31.0635 18.8689 Z " stroke-width="1" fill="#ffffff" stroke="none"/><path d="M 43.1337 15.508 C 43.1578 15.8266 43.0568 16.1421 42.8522 16.3876 C 42.5496 16.6559 42.1446 16.7781 41.7441 16.722 L 37.8375 16.722 C 38.0837 17.5667 38.8053 18.0418 39.9664 18.0418 C 40.2919 18.0425 40.6165 18.007 40.9342 17.936 C 41.1705 17.8761 41.4123 17.8407 41.6559 17.8305 C 41.9257 17.8282 42.1849 17.9356 42.3741 18.128 C 42.5632 18.3205 42.666 18.5815 42.659 18.8513 C 42.6587 19.3235 42.3634 19.7452 41.9197 19.9069 C 41.2086 20.1611 40.4577 20.2863 39.7026 20.2766 C 37.1864 20.2766 35.2507 18.6576 35.2507 16.1414 C 35.2507 13.6954 36.9932 11.971 39.4564 11.971 C 40.422 11.9198 41.3657 12.2712 42.0626 12.9415 C 42.7595 13.6118 43.1474 14.5411 43.1337 15.508 Z M 40.8989 15.2261 C 40.8918 14.8456 40.7265 14.4852 40.4427 14.2315 C 40.159 13.9778 39.7825 13.8538 39.4035 13.889 C 38.6038 13.8521 37.9085 14.4326 37.8022 15.2261 Z " stroke-width="1" fill="#ffffff" stroke="none"/><path d="M 44.2587 16.1238 C 44.2587 13.6248 46.1246 11.9534 48.5702 11.9534 C 49.3604 11.933 50.1406 12.1341 50.8226 12.5339 C 51.1834 12.7579 51.408 13.1478 51.4207 13.5723 C 51.4358 13.8691 51.3269 14.1589 51.1202 14.3724 C 50.9135 14.5859 50.6274 14.704 50.3302 14.6985 C 50.0519 14.689 49.7775 14.6293 49.5204 14.5225 C 49.2451 14.4176 48.953 14.3639 48.6584 14.3641 C 48.1882 14.3415 47.73 14.5171 47.3954 14.8483 C 47.0608 15.1794 46.8805 15.6357 46.8983 16.1062 C 46.8885 16.6038 47.0892 17.0826 47.4511 17.4244 C 47.813 17.7662 48.3024 17.9393 48.7987 17.9011 C 49.0639 17.9086 49.3277 17.8607 49.5733 17.7604 C 49.7919 17.673 50.0243 17.6252 50.2597 17.6192 C 50.5535 17.5979 50.8425 17.703 51.0541 17.908 C 51.2657 18.113 51.3798 18.3985 51.3678 18.6929 C 51.3474 19.2288 51.0077 19.7003 50.5058 19.8893 C 49.8974 20.1606 49.2361 20.2929 48.5702 20.2766 C 46.1422 20.2765 44.2587 18.6223 44.2587 16.1238 Z " stroke-width="1" fill="#ffffff" stroke="none"/><path d="M 59.2676 18.7807 C 59.2676 19.2734 58.9685 19.5725 58.4409 19.8367 C 57.8435 20.1056 57.1956 20.2435 56.5405 20.2413 C 54.4814 20.2413 53.4783 19.2734 53.4783 17.5491 L 53.4783 14.3112 L 52.8801 14.3112 C 52.6737 14.3199 52.4727 14.2442 52.3233 14.1014 C 52.174 13.9587 52.0893 13.7613 52.0887 13.5547 C 52.0968 13.2713 52.241 13.0092 52.476 12.8507 L 54.6931 10.9856 C 54.8615 10.8156 55.0875 10.715 55.3266 10.7037 C 55.713 10.7037 56.0827 10.9679 56.0827 11.619 L 56.0827 12.1294 L 58.0713 12.1294 C 58.6726 12.1323 59.1595 12.6189 59.1626 13.2203 C 59.164 13.5101 59.0495 13.7885 58.8445 13.9934 C 58.6395 14.1983 58.3611 14.3128 58.0713 14.3112 L 56.0827 14.3112 L 56.0827 17.0387 C 56.0554 17.281 56.1387 17.5227 56.3095 17.6968 C 56.4802 17.8708 56.7204 17.9587 56.9631 17.9359 C 57.1716 17.9365 57.379 17.9069 57.5789 17.8482 C 57.7886 17.7685 58.0073 17.7153 58.23 17.6898 C 58.5144 17.6905 58.786 17.8075 58.982 18.0135 C 59.1779 18.2195 59.2811 18.4967 59.2676 18.7807 Z " stroke-width="1" fill="#ffffff" stroke="none"/></g></g></g></svg>