<svg xmlns="http://www.w3.org/2000/svg" xmlns:xlink="http://www.w3.org/1999/xlink" version="1.1" width="562.2301" height="81.12799" viewBox="0,0,562.2301,81.12799"><g><g data-paper-data="{&quot;isPaintingLayer&quot;:true}" fill-rule="nonzero" stroke-linecap="butt" stroke-linejoin="miter" stroke-miterlimit="10" stroke-dasharray="" stroke-dashoffset="0" style="mix-blend-mode: normal"><path d="M 0.0313 7.7606 C 2.3382 5.5028 4.6842 3.2829 6.9326 0.9682 C 7.8139 0.0609 8.3909 0.017 9.2724 0.9583 C 11.075 2.8829 13.0373 4.6583 14.8296 6.5919 C 15.8048 7.644 16.4648 7.8072 17.517 6.6478 C 19.324 4.6565 21.3394 2.8556 23.1843 0.8966 C 24.12 -0.0971 24.7829 -0.0312 25.6905 0.925 C 27.6172 2.9553 29.6613 4.8738 31.6 6.8931 C 32.2937 7.6157 32.744 7.5873 33.4244 6.8808 C 35.4037 4.8257 37.4728 2.8572 39.4527 0.8027 C 40.2744 -0.05 40.8956 -0.0629 41.7233 0.7986 C 43.6626 2.8173 45.7087 4.734 47.6327 6.7666 C 48.4858 7.6679 49.0661 7.7684 49.9661 6.8065 C 51.8413 4.8026 53.8784 2.95 55.7518 0.9444 C 56.7455 -0.1193 57.4314 -0.0159 58.3776 0.9884 C 60.2599 2.9861 62.2778 4.8558 64.1687 6.8458 C 64.9209 7.6375 65.3934 7.5668 66.1113 6.8173 C 68.0476 4.7958 70.0899 2.8757 72.0213 0.8497 C 72.9008 -0.0728 73.5412 -0.0481 74.4093 0.8612 C 76.3423 2.8857 78.3904 4.8005 80.3178 6.8301 C 81.1357 7.6912 81.691 7.7511 82.5352 6.8555 C 84.381 4.8973 86.3935 3.0939 88.2023 1.1039 C 89.2528 -0.0519 89.9156 0.1048 90.8938 1.1582 C 92.7245 3.1296 94.7128 4.9539 96.5688 6.903 C 97.3546 7.7282 97.8912 7.7032 98.6672 6.8925 C 100.64 4.8315 102.7161 2.8695 104.6916 0.8109 C 105.5137 -0.0458 106.1304 -0.0673 106.959 0.7946 C 108.8616 2.7739 110.8717 4.6507 112.7537 6.6487 C 113.5996 7.5468 114.1495 7.6686 115.0508 6.6895 C 116.7997 4.7895 118.6807 3.0111 120.5113 1.1866 C 122.0059 -0.3032 122.0105 -0.3023 123.5555 1.2392 C 125.4613 3.1407 127.3912 5.0193 129.2539 6.9622 C 129.9956 7.7358 130.5102 7.6922 131.2328 6.9431 C 133.2137 4.8895 135.2856 2.9236 137.2596 0.8636 C 138.0342 0.0552 138.573 0.0248 139.3606 0.8505 C 141.2555 2.8369 143.2725 4.7075 145.1522 6.7076 C 146.0462 7.6589 146.654 7.7773 147.6036 6.7554 C 149.4716 4.7451 151.5069 2.8909 153.39 0.8938 C 154.3291 -0.1022 154.9914 -0.0253 155.8962 0.9277 C 157.8235 2.9574 159.871 4.8727 161.8051 6.8962 C 162.5849 7.7121 163.1212 7.7191 163.9035 6.8993 C 165.7987 4.9131 167.8154 3.0422 169.6951 1.0422 C 170.5915 0.0885 171.2046 -0.0211 172.1508 0.9974 C 173.9819 2.9685 175.9894 4.7759 177.8192 6.748 C 178.7647 7.767 179.3724 7.6605 180.2694 6.7048 C 182.1479 4.7037 184.1685 2.8364 186.0606 0.8475 C 186.9431 -0.0802 187.5853 -0.0401 188.4497 0.864 C 190.3842 2.8872 192.4259 4.8078 194.3599 6.8314 C 195.0897 7.5951 195.564 7.6176 196.3042 6.8405 C 198.1976 4.8528 200.2145 2.9821 202.0958 0.9834 C 203.047 -0.0273 203.7357 -0.1113 204.7215 0.9493 C 206.4799 2.8411 208.3563 4.6232 210.1851 6.4495 C 211.6472 7.9094 211.6489 7.9089 213.1653 6.3938 C 214.9935 4.567 216.861 2.777 218.6307 0.8951 C 219.4736 -0.0013 220.0349 0.0622 220.8518 0.9215 C 222.7804 2.95 224.8252 4.8678 226.7605 6.8902 C 227.5333 7.6978 228.07 7.7342 228.8589 6.9051 C 230.7142 4.9554 232.7119 3.1393 234.5318 1.1587 C 235.6123 -0.0172 236.3729 -0.1453 237.5103 1.1066 C 239.3185 3.097 241.3328 4.8988 243.1781 6.8575 C 244.025 7.7565 244.5806 7.6849 245.3953 6.8278 C 247.3237 4.7991 249.3689 2.8816 251.3038 0.8589 C 252.0826 0.0447 252.6213 0.0352 253.4048 0.855 C 255.3388 2.8787 257.3845 4.7957 259.3131 6.8242 C 260.1246 7.6778 260.6781 7.7631 261.5293 6.8604 C 263.4123 4.8633 265.452 3.0128 267.3142 0.9976 C 268.3605 -0.1349 269.071 -0.0086 270.058 1.0459 C 271.8966 3.0105 273.8852 4.8344 275.7325 6.7912 C 276.5254 7.6311 277.0257 7.577 277.7942 6.7693 C 279.7235 4.7413 281.7645 2.82 283.7048 0.8022 C 284.531 -0.0571 285.1498 -0.0487 285.9734 0.8076 C 287.9513 2.864 290.026 4.8273 292 6.8873 C 292.7705 7.6914 293.307 7.7411 294.0979 6.9086 C 295.9146 4.9966 297.8128 3.1619 299.6798 1.2977 C 301.146 -0.1665 301.148 -0.166 302.6662 1.3507 C 304.5328 3.2153 306.4252 5.0552 308.2503 6.9596 C 308.9882 7.7296 309.5044 7.6987 310.2303 6.946 C 312.2108 4.8922 314.285 2.9283 316.2574 0.8669 C 317.1203 -0.035 317.7606 -0.0861 318.6453 0.8438 C 320.5375 2.8327 322.5533 4.7043 324.4375 6.7004 C 325.2441 7.555 325.7609 7.6667 326.6168 6.7412 C 328.3337 4.8847 330.1735 3.1417 331.964 1.3533 C 333.626 -0.3065 333.628 -0.3069 335.2374 1.2999 C 337.1045 3.164 339.0035 4.998 340.8191 6.911 C 341.6141 7.7487 342.1497 7.6828 342.9163 6.8835 C 344.8911 4.8243 346.965 2.8602 348.9434 0.8042 C 349.7661 -0.0508 350.3872 -0.0625 351.2139 0.7969 C 353.1547 2.8142 355.1955 4.7357 357.1246 6.7637 C 357.892 7.5705 358.391 7.629 359.1848 6.7879 C 361.0319 4.8308 363.0224 3.0087 364.8586 1.0421 C 365.851 -0.0208 366.5612 -0.1252 367.6012 1.0009 C 369.4263 2.9771 371.4387 4.7801 373.2692 6.7518 C 374.2138 7.7694 374.8233 7.6662 375.7209 6.7102 C 377.5997 4.7093 379.6164 2.8384 381.5126 0.8531 C 382.2931 0.0359 382.8342 0.0355 383.6149 0.8529 C 385.5111 2.8382 387.5277 4.7092 389.4065 6.7099 C 390.3039 7.6655 390.9142 7.7711 391.8582 6.7519 C 393.6498 4.8177 395.6393 3.0655 397.4082 1.1122 C 398.544 -0.1419 399.3063 -0.0144 400.3856 1.1627 C 402.1672 3.1053 404.134 4.8771 405.9415 6.7974 C 406.7412 7.647 407.242 7.5615 408.003 6.7628 C 409.9338 4.7363 411.9735 2.8137 413.9142 0.7963 C 414.7415 -0.0636 415.3626 -0.0497 416.1848 0.8047 C 418.1632 2.8606 420.237 4.8247 422.2118 6.884 C 422.9789 7.684 423.5145 7.7476 424.309 6.9105 C 426.1247 4.9975 428.0235 3.1634 429.8907 1.2994 C 431.4996 -0.307 431.5017 -0.3065 433.1641 1.3538 C 434.9546 3.1422 436.7945 4.8851 438.5113 6.7418 C 439.3679 7.6683 439.8848 7.5535 440.6907 6.6999 C 442.575 4.7039 444.5906 2.8322 446.4828 0.8433 C 447.3681 -0.0872 448.0084 -0.0339 448.8708 0.8674 C 450.8432 2.9287 452.9174 4.8926 454.8979 6.9465 C 455.6243 7.6999 456.1402 7.7278 456.8778 6.9591 C 458.7415 5.017 460.7319 3.1942 462.5526 1.2142 C 463.5785 0.0986 464.2719 -0.0462 465.3612 1.1594 C 467.1276 3.1146 469.1128 4.8708 470.9114 6.7988 C 471.8059 7.7576 472.3871 7.6722 473.2444 6.7654 C 475.1671 4.7317 477.2142 2.8159 479.1534 0.7971 C 479.9825 -0.0661 480.6037 -0.0471 481.424 0.804 C 483.4041 2.8583 485.4723 4.8276 487.4527 6.8817 C 488.1291 7.5834 488.5814 7.628 489.2787 6.9006 C 491.1785 4.9186 493.1942 3.0468 495.0711 1.0443 C 496.0607 -0.0116 496.7713 -0.1322 497.8149 0.9992 C 499.6387 2.9764 501.6529 4.778 503.4822 6.7506 C 504.4309 7.7736 505.0381 7.654 505.9323 6.7019 C 507.8112 4.7012 509.8288 2.8311 511.7236 0.8446 C 512.5133 0.0167 513.0541 0.0556 513.8259 0.8614 C 515.7622 2.8829 517.8068 4.8009 519.7346 6.8302 C 520.5521 7.6906 521.1083 7.7515 521.9519 6.8548 C 523.7589 4.9342 525.6639 3.1055 527.5316 1.242 C 529.0822 -0.305 529.0852 -0.3045 530.6892 1.2967 C 532.5563 3.1607 534.4548 4.9951 536.2711 6.9075 C 537.0623 7.7406 537.599 7.6912 538.3694 6.8875 C 540.3439 4.828 542.4151 2.8614 544.3967 0.8085 C 545.1217 0.0573 545.6403 0.0262 546.3791 0.795 C 548.2815 2.7746 550.3005 4.6436 552.1703 6.6523 C 553.1143 7.6665 553.7403 7.7902 554.7403 6.699 C 556.5576 4.7161 558.525 2.871 560.426 0.9647 C 560.9233 0.4661 561.3961 -0.0658 562.1991 0.0067 L 562.1991 10.0219 C 561.3934 9.9456 560.9235 10.4844 560.4269 10.9821 C 558.6014 12.8113 556.774 14.6388 554.9448 16.4645 C 553.4814 17.9259 553.4797 17.9254 551.9638 16.4109 C 550.0975 14.5463 548.2036 12.7079 546.3795 10.8028 C 545.5469 9.9332 544.9212 9.9772 544.1065 10.8214 C 542.1253 12.8745 540.0559 14.8425 538.0788 16.8993 C 537.3907 17.6152 536.9441 17.6223 536.2531 16.9024 C 534.3149 14.8829 532.2712 12.9643 530.344 10.9348 C 529.435 9.9775 528.7699 9.9201 527.8354 10.9103 C 525.9514 12.9064 523.9357 14.7779 522.0437 16.7667 C 521.285 17.5642 520.7856 17.6565 519.9841 16.8045 C 518.1773 14.8838 516.2109 13.1118 514.4284 11.1701 C 513.3491 9.9944 512.5835 9.8681 511.4464 11.1189 C 509.6375 13.1085 507.6239 14.9106 505.7788 16.8693 C 504.9317 17.7686 504.3772 17.6966 503.5622 16.8388 C 501.6344 14.8098 499.5867 12.8948 497.6539 10.8704 C 496.783 9.9581 496.1398 9.9463 495.2636 10.8641 C 493.331 12.8888 491.2889 14.8089 489.354 16.8314 C 488.6312 17.587 488.1596 17.6377 487.4124 16.8519 C 485.5209 14.8627 483.5028 12.9933 481.6216 10.9948 C 480.6699 9.9837 479.9817 9.904 478.9948 10.961 C 477.1587 12.9275 475.1447 14.7291 473.3277 16.7119 C 472.3263 17.8047 471.6999 17.6753 470.7573 16.663 C 468.8872 14.6548 466.8671 12.787 464.9659 10.8066 C 464.1359 9.9422 463.511 9.9692 462.6928 10.8175 C 460.7121 12.8711 458.6431 14.8395 456.6648 16.8952 C 455.9792 17.6076 455.5299 17.6149 454.8406 16.8981 C 452.863 14.8417 450.7928 12.8744 448.8132 10.8198 C 447.9953 9.9709 447.3728 9.9401 446.5416 10.8045 C 444.6015 12.8223 442.5618 14.7446 440.6308 16.7707 C 439.8717 17.5673 439.3713 17.6609 438.5705 16.8082 C 436.8023 14.9252 434.9351 13.135 433.1061 11.3092 C 431.4971 9.703 431.495 9.7035 429.8298 11.3667 C 428.0014 13.193 426.1327 14.9818 424.3652 16.8654 C 423.5176 17.7686 422.9624 17.6878 422.1491 16.8321 C 420.221 14.8033 418.1732 12.8885 416.2409 10.8636 C 415.3648 9.9456 414.7216 9.956 413.8504 10.8684 C 411.9175 12.8928 409.8758 14.8132 407.941 16.8359 C 407.2169 17.5929 406.7439 17.6385 405.998 16.8545 C 404.1059 14.8658 402.0886 12.9957 400.2068 10.9977 C 399.2581 9.9904 398.5708 9.8983 397.58 10.9581 C 395.7057 12.9627 393.6689 14.8153 391.7945 16.8197 C 390.892 17.7847 390.3117 17.675 389.4607 16.7767 C 387.536 14.7449 385.4911 12.8273 383.5512 10.8094 C 382.7234 9.9484 382.0991 9.9633 381.2781 10.8147 C 379.2977 12.8685 377.2289 14.8372 375.25 16.8923 C 374.5678 17.6008 374.1184 17.6215 373.4258 16.9011 C 371.4488 14.8442 369.3785 12.8769 367.3986 10.8227 C 366.5833 9.9768 365.9603 9.9338 365.1269 10.8017 C 363.2255 12.7819 361.2154 14.6585 359.3326 16.6556 C 358.4901 17.5492 357.941 17.6842 357.0368 16.7009 C 355.289 14.8002 353.4074 13.0225 351.5769 11.1982 C 350.0804 9.7067 350.0757 9.7076 348.5297 11.25 C 346.6621 13.1134 344.7571 14.9418 342.9505 16.8627 C 342.1055 17.7612 341.5507 17.6946 340.7343 16.835 C 338.8069 14.8057 336.7585 12.8914 334.8263 10.8663 C 333.9509 9.9489 333.306 9.9562 332.4346 10.8681 C 330.5007 12.8915 328.4596 14.8126 326.5246 16.835 C 325.8017 17.5904 325.3286 17.6411 324.5815 16.8556 C 322.6896 14.8667 320.6724 12.9966 318.7904 10.9988 C 317.8427 9.9928 317.1528 9.8932 316.1636 10.9572 C 314.4052 12.8488 312.4727 14.5789 310.7224 16.4775 C 309.7579 17.5236 309.1209 17.7037 308.0763 16.5353 C 306.3923 14.6518 304.4554 12.9949 302.7611 11.1198 C 301.63 9.8679 300.8616 9.9917 299.7792 11.1697 C 297.9595 13.1502 295.9621 14.9665 294.1067 16.9159 C 293.3191 17.7435 292.7835 17.7112 292.009 16.9025 C 290.0357 14.8421 287.9622 12.8779 285.9822 10.8237 C 285.1678 9.9788 284.5453 9.9324 283.7106 10.8008 C 281.7708 12.8189 279.7306 14.7407 277.7999 16.7672 C 277.0408 17.564 276.5417 17.6577 275.741 16.8049 C 273.9729 14.9217 272.1056 13.1317 270.2767 11.3058 C 268.6671 9.6988 268.6642 9.6985 267.0002 11.3621 C 265.1726 13.1894 263.3073 14.9815 261.5404 16.8658 C 260.6989 17.7632 260.1423 17.704 259.324 16.8423 C 257.3966 14.8129 255.3489 12.8979 253.4158 10.8738 C 252.5475 9.9647 251.9022 9.9401 251.0241 10.8608 C 249.1295 12.8472 247.1151 14.7199 245.2319 16.7167 C 244.4222 17.5752 243.9048 17.674 243.0521 16.7527 C 241.3344 14.897 239.4953 13.1537 237.7049 11.3654 C 236.042 9.7045 236.04 9.7041 234.4303 11.311 C 232.6394 13.0988 230.7924 14.8355 229.0855 16.7003 C 228.1766 17.6932 227.6274 17.536 226.7906 16.6482 C 224.9449 14.6901 222.9607 12.8625 221.1144 10.905 C 220.1768 9.9109 219.5096 9.9871 218.6045 10.9401 C 216.6772 12.9696 214.6298 14.8849 212.6961 16.9086 C 211.9156 17.7254 211.3807 17.7289 210.5983 16.9099 C 208.665 14.8859 206.6176 12.9707 204.6898 10.9416 C 203.7868 9.9912 203.1204 9.9054 202.1814 10.9038 C 200.3747 12.8246 198.4134 14.6007 196.6239 16.5366 C 195.6933 17.5433 195.0965 17.708 194.0931 16.591 C 192.4045 14.7112 190.5441 12.9854 188.7518 11.199 C 187.2556 9.7077 187.251 9.7084 185.7063 11.2495 C 183.8005 13.1508 181.8709 15.0296 180.0081 16.9722 C 179.2681 17.7439 178.7529 17.7073 178.0288 16.9566 C 176.048 14.9032 173.9743 12.9391 172.0021 10.8777 C 171.1372 9.9737 170.4924 9.9318 169.6105 10.8569 C 167.7164 12.8438 165.7016 14.7162 163.8184 16.7129 C 163.0088 17.5712 162.4939 17.6689 161.6392 16.7489 C 159.8446 14.8174 157.8765 13.0472 156.0846 11.1135 C 155.052 9.9991 154.3061 9.8823 153.2231 11.0658 C 151.4801 12.9704 149.5191 14.6766 147.7907 16.5933 C 146.788 17.7053 146.1914 17.5516 145.2584 16.5415 C 143.4697 14.6052 141.509 12.8283 139.7007 10.9089 C 138.7678 9.9187 138.0997 9.9784 137.1907 10.9362 C 135.264 12.9662 133.2158 14.8808 131.2826 16.9048 C 130.5002 17.724 129.9657 17.7203 129.1851 16.9033 C 127.2516 14.8795 125.2044 12.9641 123.2766 10.935 C 122.3712 9.9821 121.702 9.9064 120.7663 10.902 C 118.9973 12.7843 117.0624 14.5127 115.3257 16.4226 C 114.3097 17.54 113.6508 17.7095 112.5612 16.4806 C 110.8854 14.5906 108.9499 12.9326 107.2456 11.0656 C 106.1635 9.8802 105.4183 10.0021 104.3841 11.1137 C 102.5149 13.1227 100.4942 14.99 98.5926 16.9701 C 97.8545 17.7388 97.3397 17.7118 96.6133 16.9586 C 94.6328 14.9049 92.5592 12.9408 90.5867 10.8797 C 89.7238 9.9781 89.079 9.9273 88.195 10.8549 C 86.3012 12.842 84.2867 14.7146 82.4028 16.7107 C 81.596 17.5655 81.0804 17.6756 80.2236 16.7509 C 78.4685 14.8566 76.5921 13.0744 74.7625 11.2492 C 73.2181 9.7084 73.2135 9.7077 71.7169 11.1993 C 69.8865 13.0238 68.0043 14.801 66.2571 16.7022 C 65.3509 17.6883 64.8021 17.5457 63.9614 16.6543 C 62.078 14.6577 60.0689 12.7802 58.1666 10.8008 C 57.3335 9.9339 56.7088 9.9777 55.8936 10.8235 C 53.9138 12.8779 51.8394 14.8413 49.8672 16.9027 C 49.0868 17.7183 48.5528 17.7253 47.7697 16.9054 C 45.8366 14.8812 43.7884 12.9667 41.8616 10.9367 C 40.9532 9.9797 40.2851 9.9174 39.3516 10.9083 C 37.5435 12.8278 35.5829 14.6047 33.7939 16.5409 C 32.8617 17.5497 32.2652 17.7071 31.2615 16.5939 C 29.5334 14.677 27.5723 12.971 25.8292 11.0664 C 24.7469 9.8838 24.001 9.9976 22.9677 11.1129 C 21.176 13.0467 19.2079 14.817 17.4131 16.7482 C 16.5592 17.6671 16.0443 17.5729 15.2339 16.7135 C 13.3509 14.7166 11.3361 12.8443 9.4419 10.8575 C 8.5605 9.933 7.925 9.9832 7.049 10.8755 C 4.751 13.2161 2.3757 15.4808 0.0313 17.7757 C 0.0313 14.4373 0.0313 11.0989 0.0313 7.7605 Z " fill="#5db846" stroke-width="1" stroke="none"/><path d="M 562.1989 10.0221 C 562.1989 33.2832 562.2093 56.5443 562.2301 79.8054 C 562.2321 80.9117 562.0126 81.1282 560.9066 81.128 C 374.3789 81.0965 187.8513 81.0965 1.3236 81.128 C 0.2176 81.1282 -0.0023 80.9118 0 79.8054 C 0.0425 59.1289 0.053 38.4524 0.0312 17.7758 C 2.3757 15.4808 4.7509 13.2162 7.0488 10.8756 C 7.9248 9.9833 8.5604 9.9331 9.4418 10.8576 C 11.336 12.8444 13.3508 14.7167 15.2338 16.7136 C 16.0442 17.573 16.5591 17.6673 17.413 16.7483 C 19.2077 14.8171 21.1759 13.0468 22.9676 11.113 C 24.0009 9.9977 24.7467 9.8839 25.8291 11.0665 C 27.5721 12.9711 29.5332 14.6772 31.2614 16.594 C 32.265 17.7072 32.8616 17.5498 33.7938 16.541 C 35.5828 14.6048 37.5433 12.8279 39.3515 10.9084 C 40.285 9.9175 40.9531 9.9798 41.8615 10.9369 C 43.7883 12.9668 45.8365 14.8813 47.7696 16.9055 C 48.5526 17.7255 49.0866 17.7185 49.8671 16.9028 C 51.8393 14.8414 53.9137 12.878 55.8935 10.8236 C 56.7087 9.9778 57.3334 9.934 58.1665 10.8009 C 60.0688 12.7803 62.0779 14.6578 63.9613 16.6544 C 64.802 17.5458 65.3508 17.6884 66.257 16.7023 C 68.0042 14.8012 69.8864 13.0239 71.7168 11.1995 C 73.2134 9.7078 73.218 9.7086 74.7624 11.2493 C 76.592 13.0746 78.4684 14.8567 80.2235 16.751 C 81.0804 17.6757 81.5959 17.5656 82.4027 16.7108 C 84.2866 14.7147 86.3011 12.8421 88.1949 10.855 C 89.0789 9.9274 89.7237 9.9782 90.5866 10.8798 C 92.5591 12.9409 94.6327 14.9051 96.6132 16.9588 C 97.3396 17.7119 97.8544 17.7389 98.5925 16.9702 C 100.4941 14.9901 102.5148 13.1229 104.384 11.1138 C 105.4182 10.0022 106.1634 9.8803 107.2455 11.0657 C 108.9498 12.9327 110.8853 14.5907 112.5611 16.4807 C 113.6507 17.7096 114.3095 17.5401 115.3256 16.4227 C 117.0623 14.5128 118.9972 12.7844 120.7662 10.9021 C 121.7019 9.9065 122.3711 9.9822 123.2765 10.9351 C 125.2043 12.9642 127.2515 14.8796 129.185 16.9034 C 129.9656 17.7205 130.5001 17.7241 131.2825 16.9049 C 133.2157 14.8809 135.2639 12.9663 137.1906 10.9363 C 138.0996 9.9786 138.7677 9.9188 139.7006 10.9091 C 141.5089 12.8285 143.4696 14.6053 145.2583 16.5416 C 146.1913 17.5518 146.7879 17.7054 147.7906 16.5934 C 149.519 14.6767 151.48 12.9705 153.223 11.0659 C 154.306 9.8825 155.0519 9.9992 156.0845 11.1136 C 157.8764 13.0473 159.8445 14.8176 161.639 16.749 C 162.4938 17.669 163.0087 17.5714 163.8183 16.713 C 165.7015 14.7163 167.7162 12.8439 169.6104 10.857 C 170.4923 9.9319 171.1371 9.9738 172.002 10.8778 C 173.9742 12.9392 176.0479 14.9033 178.0287 16.9567 C 178.7528 17.7074 179.268 17.744 180.008 16.9723 C 181.8708 15.0297 183.8004 13.151 185.7062 11.2497 C 187.2509 9.7085 187.2555 9.7078 188.7517 11.1992 C 190.544 12.9855 192.4044 14.7114 194.093 16.5911 C 195.0964 17.7081 195.6932 17.5434 196.6238 16.5367 C 198.4133 14.6009 200.3746 12.8247 202.1813 10.9039 C 203.1204 9.9055 203.7867 9.9913 204.6897 10.9418 C 206.6175 12.9708 208.6649 14.8859 210.5982 16.91 C 211.3806 17.729 211.9155 17.7256 212.696 16.9087 C 214.6297 14.885 216.6771 12.9697 218.6044 10.9403 C 219.5095 9.9872 220.1767 9.911 221.1143 10.9051 C 222.9606 12.8627 224.9448 14.6902 226.7905 16.6483 C 227.6273 17.5361 228.1765 17.6932 229.0854 16.7004 C 230.7923 14.8356 232.6393 13.0989 234.4302 11.3111 C 236.0399 9.7042 236.0419 9.7046 237.7048 11.3655 C 239.4952 13.1538 241.3343 14.8971 243.052 16.7528 C 243.9047 17.6741 244.4221 17.5753 245.2318 16.7168 C 247.115 14.72 249.1294 12.8474 251.024 10.8609 C 251.9021 9.9403 252.5474 9.9648 253.4157 10.8739 C 255.3488 12.898 257.3965 14.813 259.3239 16.8424 C 260.1422 17.7041 260.6988 17.7633 261.5403 16.8659 C 263.3072 14.9816 265.1725 13.1895 267.0001 11.3623 C 268.6641 9.6986 268.667 9.699 270.2766 11.3059 C 272.1055 13.1318 273.9728 14.9219 275.7409 16.805 C 276.5416 17.6578 277.0407 17.5641 277.7998 16.7673 C 279.7305 14.7408 281.7707 12.819 283.7105 10.8009 C 284.5452 9.9325 285.1677 9.979 285.9821 10.8239 C 287.9621 12.878 290.0357 14.8422 292.0089 16.9026 C 292.7834 17.7113 293.319 17.7436 294.1066 16.916 C 295.962 14.9666 297.9594 13.1504 299.7791 11.1698 C 300.8615 9.9918 301.6299 9.868 302.761 11.1199 C 304.4554 12.9951 306.3922 14.6519 308.0762 16.5354 C 309.1209 17.7038 309.7578 17.5238 310.7223 16.4776 C 312.4726 14.5791 314.4051 12.8489 316.1635 10.9574 C 317.1527 9.8933 317.8426 9.9929 318.7903 10.9989 C 320.6723 12.9967 322.6895 14.8668 324.5814 16.8558 C 325.3286 17.6412 325.8016 17.5905 326.5245 16.8351 C 328.4595 14.8127 330.5006 12.8916 332.4345 10.8682 C 333.3059 9.9564 333.9508 9.9491 334.8262 10.8665 C 336.7584 12.8915 338.8068 14.8059 340.7342 16.8352 C 341.5506 17.6947 342.1054 17.7613 342.9504 16.8628 C 344.757 14.9419 346.6619 13.1135 348.5296 11.2501 C 350.0756 9.7077 350.0803 9.7068 351.5768 11.1983 C 353.4073 13.0227 355.2889 14.8004 357.0367 16.701 C 357.9409 17.6843 358.49 17.5494 359.3325 16.6557 C 361.2153 14.6586 363.2254 12.7821 365.1268 10.8018 C 365.9603 9.9339 366.5832 9.9769 367.3985 10.8228 C 369.3784 12.877 371.4487 14.8443 373.4257 16.9012 C 374.1183 17.6217 374.5677 17.6009 375.2499 16.8924 C 377.2288 14.8373 379.2976 12.8686 381.278 10.8148 C 382.099 9.9634 382.7233 9.9486 383.5511 10.8096 C 385.491 12.8274 387.5359 14.745 389.4606 16.7768 C 390.3116 17.6751 390.8919 17.7848 391.7944 16.8199 C 393.6689 14.8154 395.7056 12.9628 397.5799 10.9582 C 398.5707 9.8985 399.258 9.9906 400.2067 10.9978 C 402.0885 12.9958 404.1058 14.8659 405.9979 16.8546 C 406.7438 17.6386 407.2168 17.593 407.9409 16.836 C 409.8757 14.8133 411.9174 12.8929 413.8503 10.8686 C 414.7215 9.9562 415.3648 9.9457 416.2408 10.8637 C 418.1731 12.8886 420.2209 14.8034 422.149 16.8322 C 422.9623 17.6879 423.5176 17.7688 424.3651 16.8656 C 426.1326 14.9819 428.0013 13.1932 429.8297 11.3668 C 431.4949 9.7036 431.497 9.7031 433.106 11.3093 C 434.935 13.1352 436.8022 14.9253 438.5704 16.8083 C 439.3712 17.661 439.8716 17.5675 440.6307 16.7708 C 442.5616 14.7447 444.6014 12.8224 446.5415 10.8046 C 447.3727 9.9402 447.9952 9.9711 448.8131 10.8199 C 450.7927 12.8745 452.8629 14.8418 454.8405 16.8982 C 455.5298 17.615 455.9791 17.6077 456.6647 16.8953 C 458.643 14.8396 460.712 12.8712 462.6927 10.8177 C 463.5109 9.9693 464.1358 9.9423 464.9658 10.8067 C 466.867 12.7871 468.8871 14.6549 470.7572 16.6631 C 471.6998 17.6754 472.3262 17.8048 473.3276 16.7121 C 475.1446 14.7292 477.1586 12.9276 478.9947 10.9611 C 479.9816 9.9042 480.6698 9.9838 481.6215 10.9949 C 483.5027 12.9934 485.5207 14.8628 487.4123 16.852 C 488.1595 17.6378 488.6311 17.5871 489.3539 16.8315 C 491.2888 14.809 493.3309 12.8889 495.2635 10.8643 C 496.1396 9.9465 496.7829 9.9582 497.6538 10.8705 C 499.5866 12.8949 501.6343 14.8099 503.5621 16.8389 C 504.3771 17.6967 504.9316 17.7687 505.7787 16.8694 C 507.6237 14.9107 509.6374 13.1086 511.4463 11.119 C 512.5834 9.8682 513.349 9.9945 514.4283 11.1703 C 516.2108 13.112 518.1772 14.8839 519.984 16.8046 C 520.7855 17.6566 521.2849 17.5643 522.0436 16.7668 C 523.9356 14.778 525.9513 12.9065 527.8353 10.9104 C 528.7698 9.9203 529.4349 9.9776 530.3439 10.9349 C 532.2711 12.9644 534.3148 14.883 536.253 16.9025 C 536.944 17.6224 537.3906 17.6153 538.0787 16.8995 C 540.0558 14.8426 542.1252 12.8746 544.1064 10.8216 C 544.9211 9.9773 545.5468 9.9333 546.3794 10.8029 C 548.2035 12.7081 550.0974 14.5464 551.9637 16.411 C 553.4796 17.9255 553.4813 17.926 554.9447 16.4646 C 556.7734 14.6385 558.6008 12.811 560.4268 10.9822 C 560.9234 10.4847 561.3933 9.9458 562.1989 10.0221 Z " fill="#3c9e47" stroke-width="1" stroke="none"/></g></g></svg>