<svg xmlns="http://www.w3.org/2000/svg" xmlns:xlink="http://www.w3.org/1999/xlink" version="1.1" width="45.04495" height="35.10445" viewBox="0,0,45.04495,35.10445"><g><g data-paper-data="{&quot;isPaintingLayer&quot;:true}" fill-rule="nonzero" stroke-linecap="butt" stroke-linejoin="miter" stroke-miterlimit="10" stroke-dasharray="" stroke-dashoffset="0" style="mix-blend-mode: normal"><path d="M 13.3731 30.6036 L 13.3731 32.4474 C 13.3493 33.9217 12.1474 35.1045 10.6729 35.1045 C 9.1984 35.1045 7.9964 33.9217 7.9727 32.4474 L 7.9727 30.7755 C 5.872 30.5826 3.8314 29.9703 1.9717 28.9747 C 0.8162 28.4319 0.0569 27.2931 0 26.0177 C -0.0007 25.2672 0.2972 24.5472 0.8279 24.0165 C 1.3586 23.4858 2.0786 23.1879 2.8291 23.1886 C 3.5831 23.2367 4.316 23.4568 4.9717 23.8322 C 6.6777 24.6863 8.5508 25.1544 10.458 25.2033 C 12.2588 25.2033 13.9726 24.5177 13.9726 23.0607 C 13.9726 18.8595 0.7715 20.5314 0.7715 11.8732 C 0.7715 7.4162 4.2432 5.0587 7.9726 4.2443 L 7.9726 2.6583 C 7.9957 1.1835 9.1978 0 10.6728 0 C 12.1478 0 13.35 1.1835 13.373 2.6583 L 13.373 3.9864 C 14.6363 4.096 15.8776 4.3847 17.0596 4.8439 C 18.9453 5.6154 20.1455 6.5157 20.1455 8.1446 C 20.1469 8.884 19.8539 9.5935 19.331 10.1163 C 18.8082 10.6391 18.0987 10.9322 17.3594 10.9308 C 16.6995 10.91 16.0477 10.7797 15.4307 10.545 C 13.9107 10.0191 12.3226 9.7158 10.7158 9.6446 C 8.7871 9.6446 7.2441 10.4591 7.2441 11.6163 C 7.2441 15.6446 20.831 14.4454 20.831 22.7169 C 20.8311 27.046 17.4874 29.7472 13.3731 30.6036 Z " stroke-width="1" fill="#191919" stroke="none"/><path d="M 45.0449 27.6466 C 45.0409 28.4864 44.6966 29.2886 44.0908 29.8701 C 43.485 30.4517 42.6693 30.7628 41.8301 30.7325 L 26.8711 30.7325 C 26.0625 30.7255 25.2924 30.3863 24.7413 29.7946 C 24.1903 29.2029 23.9067 28.4107 23.957 27.6036 C 23.9974 26.3507 24.5562 25.1708 25.5 24.3458 L 33.4717 16.2882 C 35.3584 14.4025 36.6436 12.7736 36.6436 10.5021 C 36.664 9.6281 36.3107 8.7869 35.6725 8.1895 C 35.0342 7.5921 34.1716 7.2951 33.3008 7.3732 C 31.7533 7.4539 30.3297 8.2446 29.4434 9.5157 C 28.8442 10.3179 27.9146 10.8063 26.9141 10.8448 C 26.157 10.8894 25.4136 10.6289 24.8499 10.1216 C 24.2862 9.6142 23.9492 8.9022 23.9141 8.1446 C 23.8828 7.1662 24.2017 6.2087 24.8135 5.4445 C 26.8862 2.6383 30.1992 1.0219 33.6865 1.1154 C 39.9873 1.1154 43.5879 5.0587 43.5879 10.2872 C 43.5879 13.545 42.0869 16.1163 38.958 19.3312 L 33.7295 24.6467 L 41.8301 24.6467 C 42.6598 24.5969 43.4735 24.8897 44.0812 25.4568 C 44.6889 26.0239 45.0373 26.8155 45.0449 27.6466 Z " stroke-width="1" fill="#191919" stroke="none"/></g></g></svg>