<svg xmlns="http://www.w3.org/2000/svg" xmlns:xlink="http://www.w3.org/1999/xlink" version="1.1" width="16.01026" height="16.01025" viewBox="0,0,16.01026,16.01025"><g><g data-paper-data="{&quot;isPaintingLayer&quot;:true}" fill-rule="nonzero" stroke-linecap="butt" stroke-linejoin="miter" stroke-miterlimit="10" stroke-dasharray="" stroke-dashoffset="0" style="mix-blend-mode: normal"><g><path d="M236.15088,183.69417c0,0 -4.1034,2.44655 -4.1034,0.16579c0,-2.80403 0,-6.26918 0,-7.78274c0,-1.23393 4.1034,0.11478 4.1034,0.11478c0,0 -1.38481,-4.16557 -0.09884,-4.16557c1.54266,0 5.06681,0 7.89114,0c2.25379,0 -0.22797,3.79253 -0.22797,3.79253c0,0 4.28991,-1.39722 4.28991,0.33159c0,1.64565 0,5.17863 0,7.9581c0,2.16665 -3.79253,-0.72535 -3.79253,-0.72535c0,0 1.39722,4.60078 -0.33159,4.60078c-1.67029,0 -5.16051,0 -7.9581,0c-2.10732,0 0.22797,-4.28991 0.22797,-4.28991z" stroke-width="0" fill="#806d6d" stroke="none" transform="matrix(1,0,0,1,-231.99487,-171.99488)"/><path d="M231.99487,175.99465c0,-2.20901 1.79076,-3.99977 3.99977,-3.99977c2.20901,0 3.99977,1.79076 3.99977,3.99977c0,2.20901 -1.79076,3.99977 -3.99977,3.99977c-2.20901,0 -3.99977,-1.79076 -3.99977,-3.99977z" stroke-width="0" fill="#806d6d" stroke="none" transform="matrix(1,0,0,1,-231.99487,-171.99488)"/><path d="M240.00558,176.04725c0,-2.20901 1.79076,-3.99977 3.99977,-3.99977c2.20901,0 3.99977,1.79076 3.99977,3.99977c0,2.20901 -1.79076,3.99977 -3.99977,3.99977c-2.20901,0 -3.99977,-1.79076 -3.99977,-3.99977z" stroke-width="0" fill="#806d6d" stroke="none" transform="matrix(1,0,0,1,-231.99487,-171.99488)"/><path d="M240.06775,184.03644c0,-2.19184 1.77684,-3.96869 3.96869,-3.96869c2.19184,0 3.96869,1.77684 3.96869,3.96869c0,2.19184 -1.77684,3.96869 -3.96869,3.96869c-2.19184,0 -3.96869,-1.77684 -3.96869,-3.96869z" stroke-width="0" fill="#806d6d" stroke="none" transform="matrix(1,0,0,1,-231.99487,-171.99488)"/><path d="M232.04748,184.00535c0,-2.20901 1.79076,-3.99977 3.99977,-3.99977c2.20901,0 3.99977,1.79076 3.99977,3.99977c0,2.20901 -1.79076,3.99977 -3.99977,3.99977c-2.20901,0 -3.99977,-1.79076 -3.99977,-3.99977z" stroke-width="0" fill="#806d6d" stroke="none" transform="matrix(1,0,0,1,-231.99487,-171.99488)"/></g></g></g></svg>